<svg xmlns="http://www.w3.org/2000/svg" xmlns:xlink="http://www.w3.org/1999/xlink" viewBox="0 0 99 51"><defs><style>.cls-1{fill:none;}.cls-2{fill:#2baae2;}.cls-3{clip-path:url(#clip-path);}.cls-4{fill:#fff;}.cls-5{clip-path:url(#clip-path-2);}.cls-6{clip-path:url(#clip-path-3);}</style><clipPath id="clip-path" transform="translate(0 0)"><rect class="cls-1" y="7.11" width="20.89" height="17.44"/></clipPath><clipPath id="clip-path-2" transform="translate(0 0)"><rect class="cls-1" x="82.7" y="27.98" width="16.3" height="17.44"/></clipPath><clipPath id="clip-path-3" transform="translate(0 0)"><rect class="cls-1" x="81.83" y="7.11" width="17.17" height="17.44"/></clipPath></defs><path class="cls-2" d="M90.61,7.11H70.75a8.56,8.56,0,0,0-8.39,8.6V16h0a8.55,8.55,0,0,0,8.39,8.6H90.61A8.6,8.6,0,0,0,99,16h0v-.24A8.56,8.56,0,0,0,90.61,7.11Z" transform="translate(0 0)"/><g id="Group_8" data-name="Group 8"><path id="Clip_7-2" data-name="Clip 7-2" class="cls-1" d="M0,7.11H20.89V24.55H0Z" transform="translate(0 0)"/><g class="cls-3"><g id="Group_8-2" data-name="Group 8-2"><path id="Fill_6" data-name="Fill 6" class="cls-4" d="M20.81,7.11V24.55H16.14V16.27a8.58,8.58,0,0,1,.16-1.43c.08-.48.16-1,.24-1.52l-4.35,8.21a1.92,1.92,0,0,1-1.59.87h-.55a1.47,1.47,0,0,1-1.5-.87l-4.2-8.29a5,5,0,0,1,.24,1.52,9.68,9.68,0,0,1,.16,1.51v8.21H0V7.11H4.35a4,4,0,0,1,1,.16,1.57,1.57,0,0,1,.87.88l2.93,6a6.54,6.54,0,0,1,.63,1.27,10.68,10.68,0,0,1,.56,1.44,10.61,10.61,0,0,1,.55-1.44c.24-.47.4-.87.63-1.27l2.93-6a2.6,2.6,0,0,1,.87-1,4.8,4.8,0,0,1,1-.24Z" transform="translate(0 0)"/></g></g></g><path id="Fill_9" data-name="Fill 9" class="cls-4" d="M32.37,24.79a9.6,9.6,0,0,1-3.64-.63,8.32,8.32,0,0,1-2.85-1.84,7.62,7.62,0,0,1-1.82-2.86,10.15,10.15,0,0,1-.64-3.83,12.75,12.75,0,0,1,.64-3.82,7.68,7.68,0,0,1,4.67-4.62,10.37,10.37,0,0,1,7.28,0A9.3,9.3,0,0,1,38.86,9a7.78,7.78,0,0,1,1.82,2.87,10.29,10.29,0,0,1,.63,3.82,13.12,13.12,0,0,1-.63,3.83,9.31,9.31,0,0,1-1.82,2.86A8.86,8.86,0,0,1,36,24.24,11.48,11.48,0,0,1,32.37,24.79Zm0-14.1A3.07,3.07,0,0,0,29.68,12a7.35,7.35,0,0,0-.87,3.9,7,7,0,0,0,.87,3.83A3.06,3.06,0,0,0,32.37,21,2.85,2.85,0,0,0,35,19.7a8.17,8.17,0,0,0,.79-3.83,6.37,6.37,0,0,0-.87-3.82,2.57,2.57,0,0,0-2.53-1.36Z" transform="translate(0 0)"/><g id="Group_13" data-name="Group 13"><path id="Fill_118" data-name="Fill 118" class="cls-4" d="M55.32,0a.81.81,0,0,0-.72.24,1.55,1.55,0,0,1-.55,1.27,2.53,2.53,0,0,1-1.66.64,2.92,2.92,0,0,1-1.74-.64A2.14,2.14,0,0,1,50,.34,1.3,1.3,0,0,0,49.22.1l-1.9.64a10.53,10.53,0,0,0,.4,1.51,7.11,7.11,0,0,0,1.11,1.51,4.19,4.19,0,0,0,1.58,1,6.17,6.17,0,0,0,3.8,0,3.06,3.06,0,0,0,1.58-1A3.77,3.77,0,0,0,56.9,2.33a5.51,5.51,0,0,0,.39-2Z" transform="translate(0 0)"/></g><path id="Fill_14" data-name="Fill 14" class="cls-4" d="M11.55,51H6.33V28H9.58a1.18,1.18,0,0,1,1.26.8l.4,1.27a8.55,8.55,0,0,1,2.29-1.83,7,7,0,0,1,3.09-.72,5.42,5.42,0,0,1,4.51,2.39,9.42,9.42,0,0,1,1.34,2.87A12.22,12.22,0,0,1,23,36.58a11.62,11.62,0,0,1-.55,3.67,8.9,8.9,0,0,1-1.51,2.86A6.15,6.15,0,0,1,18.52,45a5.79,5.79,0,0,1-3,.63,6.87,6.87,0,0,1-2.22-.4,4.42,4.42,0,0,1-1.66-1V51Zm3.33-19.44a2.52,2.52,0,0,0-1.82.48,5.2,5.2,0,0,0-1.43,1.2v7.48a3.81,3.81,0,0,0,1.27,1,3,3,0,0,0,1.42.24,4,4,0,0,0,1.35-.24,2.46,2.46,0,0,0,1-1,7.76,7.76,0,0,0,.71-1.67,8.6,8.6,0,0,0,.24-2.47,10.83,10.83,0,0,0-.24-2.31,5.15,5.15,0,0,0-.55-1.51,2.41,2.41,0,0,0-2-1.2Z" transform="translate(0 0)"/><path id="Fill_16" data-name="Fill 16" class="cls-4" d="M30.07,45.66a11,11,0,0,1-2.21-.24,5.46,5.46,0,0,1-1.67-1,3,3,0,0,1-1-1.44,5.91,5.91,0,0,1-.4-2.07,3.81,3.81,0,0,1,.47-1.83,5.21,5.21,0,0,1,1.67-1.83A10.55,10.55,0,0,1,30,35.87a20.36,20.36,0,0,1,5-.64v-.8a3,3,0,0,0-.63-2.15,2.25,2.25,0,0,0-1.82-.64,5,5,0,0,0-1.51.24,2.5,2.5,0,0,0-1,.48,7.55,7.55,0,0,1-.87.48,4.66,4.66,0,0,1-1,.24,1.68,1.68,0,0,1-.87-.32,5.48,5.48,0,0,1-.63-.64l-.95-1.67a11.93,11.93,0,0,1,3.48-2.07,10.74,10.74,0,0,1,4.2-.64,7.24,7.24,0,0,1,2.85.56,7.66,7.66,0,0,1,2.13,1.43A5.84,5.84,0,0,1,39.65,32a8.42,8.42,0,0,1,.47,2.79V45.66H37.59a1.73,1.73,0,0,1-1.11-.16,2.31,2.31,0,0,1-.63-.87l-.32-1a7.92,7.92,0,0,1-1.26,1c-.4.24-.8.48-1.27.71l-1.42.48A8.74,8.74,0,0,0,30.07,45.66Zm5-7.33-2.53.24a5.37,5.37,0,0,0-1.59.56,3.26,3.26,0,0,0-.79.64,1.6,1.6,0,0,0-.24.87,1.39,1.39,0,0,0,.56,1.28,3.23,3.23,0,0,0,1.5.4A7.25,7.25,0,0,0,33.79,42a5.12,5.12,0,0,0,1.5-1.12Z" transform="translate(0 0)"/><path id="Fill_18" data-name="Fill 18" class="cls-4" d="M60.14,28V45.42H54.92V36.5a4.83,4.83,0,0,1,.08-1c.08-.32.08-.72.16-1A10.19,10.19,0,0,1,54.29,36a.65.65,0,0,0-.24.47,4.5,4.5,0,0,0-.63,1c-.24.4-.56.87-.87,1.35a10.12,10.12,0,0,1-1,1.44c-.79,1.19-1.66,2.55-2.61,4a3.48,3.48,0,0,0-.32.56l-.47.47a1.19,1.19,0,0,1-.56.24,1.46,1.46,0,0,1-.63.16H43.76V28H49v8.84a3.89,3.89,0,0,1-.08,1,4.6,4.6,0,0,0-.16,1,4.39,4.39,0,0,1,.87-1.43c.08-.24.24-.24.24-.48a5.07,5.07,0,0,0,.63-1c.24-.4.55-.88.87-1.36a16.86,16.86,0,0,1,1-1.51c.79-1.2,1.66-2.55,2.61-4a1.67,1.67,0,0,0,.32-.48l.47-.48a1.19,1.19,0,0,1,.56-.24,1.42,1.42,0,0,1,.63-.16h3.24l-.08.32Z" transform="translate(0 0)"/><path id="Fill_18-2" data-name="Fill 18-2" class="cls-4" d="M60.14,6.79V24.24H54.92V15.47a4.88,4.88,0,0,1,.08-1c.08-.32.08-.72.16-1a6,6,0,0,1-.87,1.52.69.69,0,0,0-.24.47,4.5,4.5,0,0,0-.63,1c-.24.4-.56.88-.87,1.35s-.64,1-1,1.52c-.79,1.11-1.66,2.55-2.61,4a1.67,1.67,0,0,0-.32.48l-.47.48a1.19,1.19,0,0,1-.56.24,1.62,1.62,0,0,1-.63.15H43.76V6.79H49v8.92a3.89,3.89,0,0,1-.08,1c-.08.32-.08.72-.16,1a5.86,5.86,0,0,1,.87-1.51c.08-.24.24-.24.24-.48a4.81,4.81,0,0,0,.63-1c.24-.4.55-.88.87-1.36s.63-1,1-1.51c.79-1.19,1.66-2.55,2.61-4a1.67,1.67,0,0,0,.32-.48l.47-.48a1.19,1.19,0,0,1,.56-.24A1.42,1.42,0,0,1,57,6.47h3.24l-.08.32Z" transform="translate(0 0)"/><path id="Fill_20" data-name="Fill 20" class="cls-2" d="M71.22,45.66A9.66,9.66,0,0,1,67.58,45a7.93,7.93,0,0,1-4.67-4.7,10.34,10.34,0,0,1-.63-3.83,13.05,13.05,0,0,1,.63-3.82A7.86,7.86,0,0,1,67.58,28a10.37,10.37,0,0,1,7.28,0,9.64,9.64,0,0,1,2.85,1.75,7.66,7.66,0,0,1,1.82,2.87,10.1,10.1,0,0,1,.64,3.82,12.81,12.81,0,0,1-.64,3.83,10.83,10.83,0,0,1-1.82,2.86A9.15,9.15,0,0,1,74.86,45,7.5,7.5,0,0,1,71.22,45.66Zm0-14.18a3.08,3.08,0,0,0-2.69,1.28,7.34,7.34,0,0,0-.87,3.82,7,7,0,0,0,.87,3.83,3.07,3.07,0,0,0,2.69,1.27,2.84,2.84,0,0,0,2.61-1.27,7.21,7.21,0,0,0,.88-3.83,7.46,7.46,0,0,0-.88-3.9A3.5,3.5,0,0,0,71.22,31.48Z" transform="translate(0 0)"/><g id="Group_24" data-name="Group 24"><path id="Clip_23-2" data-name="Clip 23-2" class="cls-1" d="M82.7,28H99V45.42H82.7Z" transform="translate(0 0)"/><g class="cls-5"><g id="Group_24-2" data-name="Group 24-2"><path id="Fill_22" data-name="Fill 22" class="cls-2" d="M85.94,28a1.88,1.88,0,0,1,.64.16l.47.24.48.48a1.7,1.7,0,0,1,.31.39c1,1.52,1.82,2.87,2.61,4a11.47,11.47,0,0,0,1,1.51,9.09,9.09,0,0,1,.87,1.35c.24.4.4.64.64,1a.72.72,0,0,1,.23.48,13,13,0,0,1,.87,1.51c-.08-.32-.08-.72-.15-1a3.89,3.89,0,0,1-.08-1V28H99V45.42H95.83a1.89,1.89,0,0,1-.63-.16c-.16-.07-.32-.23-.55-.23l-.48-.48a1.63,1.63,0,0,1-.31-.48c-1-1.51-1.82-2.87-2.62-4a6.6,6.6,0,0,0-1-1.44,5.82,5.82,0,0,1-.87-1.35,11.84,11.84,0,0,1-.64-1l-.24-.47a10.19,10.19,0,0,1-.87-1.52c.08.32.08.72.16,1a4.18,4.18,0,0,1,.08,1v8.85H82.7V28Z" transform="translate(0 0)"/></g></g></g><g id="Group_5" data-name="Group 5"><path id="Clip_4-2" data-name="Clip 4-2" class="cls-1" d="M81.83,7.11H99V24.55H81.83Z" transform="translate(0 0)"/><g class="cls-6"><g id="Group_5-2" data-name="Group 5-2"><path id="Fill_3" data-name="Fill 3" class="cls-4" d="M90.37,7.11h0a8.54,8.54,0,0,1,8.55,8.6h0v.08h0V16a8.55,8.55,0,1,1-17.09-.16h0v-.24a8.52,8.52,0,0,1,8.54-8.52h0" transform="translate(0 0)"/></g></g></g></svg>