<?xml version="1.0" encoding="UTF-8"?>
<svg width="14px" height="14px" viewBox="0 0 14 14" version="1.1" xmlns="http://www.w3.org/2000/svg" xmlns:xlink="http://www.w3.org/1999/xlink">
    <!-- Generator: Sketch 64 (93537) - https://sketch.com -->
    <title>icon-remove</title>
    <desc>Created with Sketch.</desc>
    <g id="Documentation" stroke="none" stroke-width="1" fill="none" fill-rule="evenodd">
        <g id="Описание.-Выбор-района" transform="translate(-848.000000, -3122.000000)" fill="#93938F">
            <g id="Screen" transform="translate(0.000000, 2831.000000)">
                <g id="Block" transform="translate(194.000000, 164.000000)">
                    <g id="__input" transform="translate(40.000000, 106.000000)">
                        <path d="M627.721583,21.2784171 C628.092806,21.6496399 628.092806,22.2515109 627.721583,22.6227337 L622.344317,28 L627.721583,33.3772663 C628.092806,33.7484891 628.092806,34.3503601 627.721583,34.7215829 C627.35036,35.0928057 626.748489,35.0928057 626.377266,34.7215829 L621,29.3443166 L615.622734,34.7215829 C615.251511,35.0928057 614.64964,35.0928057 614.278417,34.7215829 C613.907194,34.3503601 613.907194,33.7484891 614.278417,33.3772663 L619.655683,28 L614.278417,22.6227337 C613.907194,22.2515109 613.907194,21.6496399 614.278417,21.2784171 C614.64964,20.9071943 615.251511,20.9071943 615.622734,21.2784171 L621,26.6556834 L626.377266,21.2784171 C626.748489,20.9071943 627.35036,20.9071943 627.721583,21.2784171 Z" id="icon-remove"></path>
                    </g>
                </g>
            </g>
        </g>
    </g>
</svg>