<?xml version="1.0" encoding="UTF-8"?>
<svg width="27px" height="35px" viewBox="0 0 27 35" version="1.1" xmlns="http://www.w3.org/2000/svg" xmlns:xlink="http://www.w3.org/1999/xlink">
    <!-- Generator: Sketch 64 (93537) - https://sketch.com -->
    <title>mos-logo</title>
    <desc>Created with Sketch.</desc>
    <g id="Symbols" stroke="none" stroke-width="1" fill="none" fill-rule="evenodd">
        <g id="element-/-stub" transform="translate(-119.000000, -48.000000)" fill="#E1D0B9" fill-rule="nonzero">
            <path d="M122.403,77.574 C120.525,77.574 119,76.034 119,74.143 L119,48.5 C119,48.2238576 119.223858,48 119.5,48 L145.5,48 C145.776142,48 146,48.2238576 146,48.5 L146,74.143 C146,76.034 144.475,77.574 142.597,77.574 L139.74,77.574 C136.764,77.574 134.898,78.444 132.485,80.971 L130.727,82.842 C130.586701,82.9918555 130.369062,83.0407306 130.17816,82.9652526 C129.987258,82.8897746 129.861886,82.7052814 129.862,82.5 L129.862,77.574 L122.402,77.574 L122.403,77.574 Z M120,74.143 C120,75.484 121.08,76.574 122.403,76.574 L130.363,76.574 C130.639142,76.574 130.863,76.7978576 130.863,77.074 L130.863,81.237 L131.76,80.283 C134.357,77.564 136.48,76.574 139.74,76.574 L142.597,76.574 C143.92,76.574 145,75.484 145,74.143 L145,49 L120,49 L120,74.143 Z" id="mos-logo"></path>
        </g>
    </g>
</svg>