<svg width="135" height="40" viewBox="0 0 135 40" fill="none" xmlns="http://www.w3.org/2000/svg">
<rect width="135" height="40" rx="4" fill="#374044"/>
<path d="M50.0691 27.0344H45.3844L44.2376 30.1298H42.178L46.7658 18.5699H48.7126L53.4052 30.1298H51.2405L50.0691 27.0344ZM45.9743 25.4628H49.4719L48.2194 22.1518C48.0473 21.6944 47.8776 21.1893 47.7104 20.6364C47.5596 21.1256 47.3955 21.6255 47.2183 22.1361L45.9743 25.4628Z" fill="white"/>
<path d="M54.3347 23.6284C54.3347 22.9899 54.3132 22.2878 54.2703 21.5219H56.1435C56.2138 21.8832 56.2625 22.2482 56.2891 22.6152C57.0644 21.7801 57.9529 21.3626 58.9546 21.3624C59.5526 21.3529 60.1399 21.5198 60.6414 21.8416C61.1428 22.1634 61.5358 22.6256 61.7699 23.1691C62.0742 23.7941 62.2263 24.5879 62.2263 25.5505C62.251 26.4372 62.0727 27.3181 61.7048 28.1273C61.3944 28.7994 60.8865 29.3638 60.247 29.747C59.59 30.1223 58.8414 30.3127 58.0825 30.2974C57.4856 30.2966 56.8931 30.1968 56.3297 30.0022V33.5601L54.3346 33.7279L54.3347 23.6284ZM59.5807 28.0279C59.9875 27.4882 60.1908 26.6998 60.1907 25.6627C60.1907 24.7 60.0224 24.0019 59.6858 23.5683C59.5317 23.3605 59.3288 23.1928 59.0946 23.0796C58.8603 22.9664 58.6018 22.9111 58.3411 22.9184C57.9652 22.9153 57.595 23.0086 57.2667 23.1894C56.9199 23.3844 56.6042 23.6291 56.33 23.9155V28.5267C56.5513 28.6299 56.7844 28.7063 57.0242 28.754C57.2819 28.8092 57.5447 28.8372 57.8083 28.8377C58.5835 28.8375 59.1744 28.5675 59.5807 28.0276V28.0279Z" fill="white"/>
<path d="M63.5035 23.6284C63.5035 22.9899 63.482 22.2878 63.4391 21.5219H65.3123C65.3827 21.8832 65.4312 22.2482 65.4577 22.6152C66.233 21.7801 67.1216 21.3625 68.1234 21.3624C68.7214 21.353 69.3087 21.5199 69.8101 21.8418C70.3116 22.1636 70.7045 22.6259 70.9386 23.1694C71.2427 23.7944 71.3949 24.5882 71.395 25.5508C71.4196 26.4375 71.2413 27.3184 70.8733 28.1276C70.563 28.7998 70.0551 29.3641 69.4157 29.7473C68.7586 30.1226 68.0099 30.313 67.251 30.2978C66.6541 30.2969 66.0617 30.1971 65.4984 30.0025V33.5604L63.503 33.7282L63.5035 23.6284ZM68.7497 28.0279C69.1563 27.4882 69.3596 26.6998 69.3596 25.6627C69.3596 24.7 69.1913 24.0019 68.8546 23.5683C68.7006 23.3605 68.4977 23.1928 68.2634 23.0796C68.0291 22.9664 67.7706 22.9111 67.5099 22.9184C67.1341 22.9153 66.7639 23.0086 66.4356 23.1894C66.0888 23.3843 65.7731 23.629 65.499 23.9155V28.5267C65.7202 28.6299 65.9533 28.7063 66.1932 28.754C66.4508 28.8092 66.7137 28.8372 66.9773 28.8377C67.7525 28.8375 68.3433 28.5675 68.7497 28.0276V28.0279Z" fill="white"/>
<path d="M75.1592 29.5832C74.3062 29.1214 73.6137 28.4166 73.172 27.5606C72.7088 26.6825 72.4774 25.6454 72.4778 24.4491C72.4778 23.1515 72.7442 22.0491 73.2771 21.142C73.7813 20.2631 74.5392 19.5524 75.4542 19.1006C76.4152 18.6361 77.4737 18.4023 78.5436 18.4184C79.1922 18.4157 79.8388 18.4894 80.4697 18.6379C81.0598 18.7768 81.6328 18.9787 82.1786 19.24L81.6697 20.7559C80.7269 20.2847 79.689 20.0286 78.6326 20.0063C77.887 19.9896 77.1501 20.167 76.4959 20.5207C75.8773 20.8713 75.3803 21.3983 75.0701 22.0326C74.7117 22.7852 74.5373 23.6105 74.5612 24.4419C74.5475 25.1912 74.6806 25.9361 74.9531 26.6355C75.1981 27.2539 75.6295 27.7831 76.189 28.1514C76.7516 28.5238 77.4607 28.7099 78.3163 28.7098C78.7061 28.7097 79.0952 28.6777 79.4796 28.614C79.851 28.5546 80.216 28.4612 80.5699 28.3348V25.9974H77.8654V24.4658H82.5096V29.3323C81.836 29.6426 81.1305 29.8806 80.4054 30.0422C79.686 30.2053 78.9504 30.2882 78.2123 30.2893C77.0382 30.2893 76.0205 30.0539 75.1592 29.5832Z" fill="white"/>
<path d="M89.6986 30.1299C89.6236 29.7536 89.5778 29.3722 89.5616 28.9891C89.2277 29.3719 88.8198 29.6851 88.3618 29.9104C87.8455 30.1684 87.2734 30.2985 86.6949 30.2893C86.2221 30.2953 85.754 30.1958 85.3255 29.9983C84.9178 29.8078 84.5763 29.5023 84.3442 29.1203C84.0903 28.6858 83.9644 28.1899 83.9808 27.6885C83.9662 27.3083 84.0411 26.93 84.1995 26.5833C84.3579 26.2365 84.5956 25.9307 84.8938 25.6899C85.5023 25.1926 86.5173 24.9439 87.9387 24.9439C88.4685 24.9437 88.9976 24.981 89.5219 25.0557V24.8881C89.5219 24.1275 89.3579 23.5917 89.0298 23.2807C88.7017 22.9696 88.2308 22.8139 87.6169 22.8137C87.1559 22.8186 86.6972 22.8803 86.2517 22.9975C85.8132 23.1039 85.3859 23.2509 84.9753 23.4365L84.6604 22.0005C85.1136 21.8097 85.5844 21.6627 86.0663 21.5614C86.6704 21.426 87.2882 21.359 87.9077 21.3619C88.5652 21.3443 89.2193 21.4597 89.8299 21.7011C90.3664 21.9355 90.8034 22.3473 91.0656 22.8656C91.3619 23.4162 91.5101 24.1568 91.5101 25.0875V28.5101C91.5101 28.8663 91.5316 29.4061 91.5745 30.1296L89.6986 30.1299ZM88.5032 28.5342C88.8887 28.359 89.2347 28.1095 89.5211 27.8003V26.2048C89.0785 26.1527 88.6334 26.1234 88.1876 26.1171C87.3638 26.1171 86.7944 26.2487 86.4795 26.5118C86.3239 26.6421 86.2004 26.8058 86.1186 26.9904C86.0367 27.1749 85.9986 27.3755 86.0071 27.5769C86.0071 28.0024 86.1214 28.3176 86.3499 28.5225C86.6102 28.738 86.9436 28.8478 87.2828 28.8296C87.707 28.8237 88.1244 28.7227 88.5034 28.5342H88.5032Z" fill="white"/>
<path d="M93.2538 28.0633V17.8919L95.2404 17.7324V27.7126C95.2404 28.0795 95.3039 28.3387 95.4309 28.4903C95.5072 28.5708 95.601 28.6332 95.7053 28.6726C95.8096 28.7119 95.9217 28.7274 96.0329 28.7176C96.2107 28.7091 96.3869 28.6797 96.5577 28.63L96.7924 30.0422C96.569 30.1257 96.3374 30.1859 96.1013 30.2217C95.8465 30.2652 95.5885 30.2878 95.33 30.2893C93.9456 30.2893 93.2536 29.5473 93.2538 28.0633Z" fill="white"/>
<path d="M98.2216 28.0633V17.8919L100.208 17.7324V27.7126C100.208 28.0795 100.272 28.3387 100.399 28.4903C100.475 28.5708 100.569 28.6332 100.673 28.6726C100.777 28.7119 100.889 28.7274 101.001 28.7176C101.179 28.7091 101.355 28.6797 101.525 28.63L101.759 30.0422C101.536 30.1257 101.304 30.1859 101.068 30.2217C100.813 30.2652 100.555 30.2878 100.297 30.2893C98.9131 30.2893 98.2214 29.5473 98.2216 28.0633Z" fill="white"/>
<path d="M110.031 26.0771H104.328C104.42 27.8801 105.29 28.7816 106.937 28.7816C107.361 28.7799 107.782 28.7304 108.194 28.6339C108.615 28.5377 109.027 28.4056 109.426 28.2389L109.861 29.5873C108.834 30.0666 107.71 30.3067 106.574 30.2891C105.648 30.2891 104.867 30.1163 104.231 29.7706C103.606 29.4351 103.104 28.9129 102.797 28.2788C102.459 27.5432 102.294 26.7409 102.317 25.9332C102.294 25.0866 102.469 24.2461 102.826 23.4763C103.132 22.8265 103.625 22.28 104.244 21.9048C104.878 21.5353 105.603 21.3473 106.339 21.362C107.07 21.3358 107.792 21.5353 108.403 21.9327C108.953 22.3109 109.38 22.8389 109.631 23.4524C109.904 24.1186 110.039 24.8318 110.03 25.5503L110.031 26.0771ZM108.084 24.8247C108.047 24.1386 107.872 23.624 107.559 23.2809C107.401 23.1099 107.208 22.9751 106.991 22.8862C106.775 22.7974 106.542 22.7565 106.307 22.7665C106.072 22.7605 105.837 22.8035 105.619 22.8928C105.402 22.9821 105.205 23.1157 105.043 23.2848C104.707 23.6307 104.487 24.144 104.385 24.8247H108.084Z" fill="white"/>
<path d="M111.639 23.6839C111.639 23.2104 111.617 22.4896 111.574 21.5216H113.44C113.473 21.7612 113.504 22.0471 113.533 22.3794C113.562 22.7117 113.583 22.9816 113.594 23.1891C113.795 22.8537 114.023 22.535 114.276 22.2359C114.496 21.9805 114.762 21.7669 115.06 21.6056C115.374 21.4396 115.725 21.3557 116.081 21.3621C116.349 21.3571 116.615 21.3894 116.873 21.4579L116.623 23.1651C116.413 23.1045 116.195 23.075 115.976 23.0776C115.54 23.0683 115.111 23.1922 114.749 23.4326C114.312 23.758 113.932 24.1529 113.626 24.6013V30.1299H111.639V23.6839Z" fill="white"/>
<path d="M118.07 33.6519C117.826 33.6129 117.586 33.5555 117.351 33.4804L117.714 32.0445C117.848 32.0817 118.018 32.1174 118.223 32.1522C118.415 32.1856 118.61 32.2029 118.804 32.2039C119.687 32.2039 120.35 31.6428 120.792 30.5205L120.921 30.2016L117.706 21.5215H119.846L121.462 26.3721C121.672 26.9965 121.842 27.6333 121.971 28.2787C122.122 27.6565 122.299 27.0342 122.504 26.4118L124.144 21.5214H126.155L122.948 30.2411C122.707 30.9435 122.379 31.6137 121.971 32.2361C121.659 32.7071 121.233 33.0938 120.731 33.3609C120.195 33.6189 119.603 33.7449 119.006 33.7281C118.693 33.7296 118.379 33.7041 118.07 33.6519V33.6519Z" fill="white"/>
<path d="M16.0939 7.27698C10.7866 7.27698 8.84525 9.19421 8.84525 14.4362V25.5639C8.84525 30.8059 10.7866 32.7231 16.0939 32.7231H27.3572C32.6647 32.7231 34.6096 30.8059 34.6096 25.5639V14.4362C34.6096 9.19421 32.6682 7.27698 27.3609 7.27698H16.0939Z" fill="#C8102E"/>
<path d="M13.9473 20.0022H14.6299V23.3291H13.9473V21.9781H12.4041V23.3291H11.7205V20.0022H12.4041V21.3443H13.9473V20.0022ZM17.7973 21.9066C17.7973 22.4474 17.5254 22.7363 17.0315 22.7363C16.5351 22.7363 16.2616 22.4384 16.2616 21.8834V20.0041H15.5782V21.9066C15.5782 22.8423 16.1046 23.3788 17.0228 23.3788C17.9494 23.3788 18.4809 22.8321 18.4809 21.8788V20.0021H17.7983L17.7973 21.9066ZM25.6959 22.2899L24.9312 20.0021H24.3734L23.6087 22.2899L22.8645 20.0036H22.1371L23.3118 23.329H23.8763L24.6423 21.1448L25.408 23.329H25.9795L27.1506 20.0036H26.4421L25.6959 22.2899ZM28.3756 21.898H29.6186V21.2921H28.3756V20.6112H30.1801V20.0047H27.7014V23.3274H30.2452V22.7214H28.3756V21.898ZM31.0599 23.3248H31.7345V20.0022H31.0601L31.0599 23.3248ZM19.8312 22.6349L19.5247 23.3276H18.827L20.3108 20.0025H20.9141L22.392 23.3276H21.6754L21.3738 22.6349H19.8312ZM20.0852 22.035H21.1185L20.6002 20.8445L20.0852 22.035Z" fill="white"/>
<path d="M21.7273 15.7664C20.5903 15.7651 19.5003 15.3184 18.6963 14.5244C17.8923 13.7303 17.4401 12.6537 17.4389 11.5307H18.0446C18.0446 12.4954 18.4327 13.4207 19.1234 14.1028C19.8141 14.785 20.7509 15.1682 21.7276 15.1682C22.7044 15.1682 23.6412 14.785 24.3319 14.1028C25.0226 13.4207 25.4106 12.4954 25.4106 11.5307H26.0164C26.0152 12.6538 25.5629 13.7305 24.7588 14.5246C23.9547 15.3187 22.8644 15.7653 21.7273 15.7664V15.7664Z" fill="white"/>
<path d="M47.1331 10.5274C47.1331 11.1063 47.0317 11.6149 46.8291 12.0531C46.6264 12.4886 46.3361 12.824 45.9581 13.0594C45.5829 13.292 45.1502 13.4083 44.6599 13.4083C44.1751 13.4083 43.7424 13.292 43.3617 13.0594C42.9837 12.824 42.6907 12.49 42.4825 12.0571C42.2771 11.6243 42.173 11.1253 42.1703 10.5599V10.2272C42.1703 9.65101 42.273 9.14247 42.4784 8.70154C42.6866 8.26062 42.9782 7.92385 43.3535 7.69121C43.7314 7.45587 44.1642 7.3382 44.6517 7.3382C45.1392 7.3382 45.5706 7.45452 45.9458 7.68715C46.3238 7.91708 46.6154 8.2498 46.8209 8.68531C47.0263 9.11812 47.1303 9.62261 47.1331 10.1988V10.5274ZM46.0937 10.2191C46.0937 9.56445 45.9677 9.06267 45.7157 8.71372C45.4665 8.36477 45.1118 8.19029 44.6517 8.19029C44.2025 8.19029 43.8506 8.36477 43.5959 8.71372C43.3439 9.05996 43.2152 9.55093 43.2097 10.1866V10.5274C43.2097 11.1767 43.337 11.6784 43.5918 12.0328C43.8492 12.3872 44.2053 12.5643 44.6599 12.5643C45.12 12.5643 45.4733 12.3912 45.7198 12.045C45.9691 11.6987 46.0937 11.1929 46.0937 10.5274V10.2191Z" fill="white"/>
<path d="M52.137 8.2471H50.2718V13.3272H49.2406V8.2471H47.3919V7.41936H52.137V8.2471Z" fill="white"/>
<path d="M54.6964 10.7952H53.9898V13.3272H52.9545V7.41936H53.9898V9.90258H54.5608L56.3192 7.41936H57.5928L55.5386 10.2475L57.7735 13.3272H56.5246L54.6964 10.7952Z" fill="white"/>
<path d="M59.3881 11.132V13.3272H58.3487V7.41936H60.637C61.3053 7.41936 61.8352 7.59113 62.2269 7.93467C62.6213 8.27821 62.8185 8.73265 62.8185 9.29801C62.8185 9.87688 62.6254 10.3273 62.2392 10.6492C61.8558 10.9711 61.3176 11.132 60.6247 11.132H59.3881ZM59.3881 10.3083H60.637C61.0067 10.3083 61.2888 10.2231 61.4833 10.0527C61.6777 9.87959 61.775 9.63073 61.775 9.30612C61.775 8.98693 61.6764 8.73265 61.4792 8.5433C61.282 8.35124 61.0108 8.25251 60.6657 8.2471H59.3881V10.3083Z" fill="white"/>
<path d="M68.5043 10.5274C68.5043 11.1063 68.403 11.6149 68.2003 12.0531C67.9976 12.4886 67.7073 12.824 67.3294 13.0594C66.9541 13.292 66.5214 13.4083 66.0311 13.4083C65.5464 13.4083 65.1136 13.292 64.7329 13.0594C64.355 12.824 64.0619 12.49 63.8538 12.0571C63.6483 11.6243 63.5443 11.1253 63.5415 10.5599V10.2272C63.5415 9.65101 63.6442 9.14247 63.8497 8.70154C64.0578 8.26062 64.3495 7.92385 64.7247 7.69121C65.1027 7.45587 65.5354 7.3382 66.0229 7.3382C66.5104 7.3382 66.9418 7.45452 67.317 7.68715C67.695 7.91708 67.9867 8.2498 68.1921 8.68531C68.3975 9.11812 68.5016 9.62261 68.5043 10.1988V10.5274ZM67.4649 10.2191C67.4649 9.56445 67.3389 9.06267 67.087 8.71372C66.8377 8.36477 66.4831 8.19029 66.0229 8.19029C65.5738 8.19029 65.2218 8.36477 64.9671 8.71372C64.7151 9.05996 64.5864 9.55093 64.5809 10.1866V10.5274C64.5809 11.1767 64.7083 11.6784 64.963 12.0328C65.2204 12.3872 65.5765 12.5643 66.0311 12.5643C66.4913 12.5643 66.8446 12.3912 67.0911 12.045C67.3403 11.6987 67.4649 11.1929 67.4649 10.5274V10.2191Z" fill="white"/>
<path d="M73.2042 7.41936H74.2436V13.3272H73.2042V9.11947L70.579 13.3272H69.5396V7.41936H70.579V11.6311L73.2042 7.41936ZM73.2371 5.914C73.2371 6.25484 73.1166 6.53075 72.8755 6.74174C72.6345 6.95274 72.3127 7.05823 71.9101 7.05823C71.5075 7.05823 71.1857 6.95274 70.9446 6.74174C70.7036 6.53075 70.5831 6.25484 70.5831 5.914H71.3308C71.3308 6.09253 71.3815 6.23184 71.4828 6.33193C71.5869 6.42931 71.7293 6.478 71.9101 6.478C72.0909 6.478 72.2319 6.42931 72.3332 6.33193C72.4346 6.23184 72.4852 6.09253 72.4852 5.914H73.2371Z" fill="white"/>
<path d="M79.8103 8.2471H77.9451V13.3272H76.914V8.2471H75.0652V7.41936H79.8103V8.2471Z" fill="white"/>
<path d="M84.0952 10.6897H81.6385V12.5075H84.5102V13.3272H80.5991V7.41936H84.4814V8.2471H81.6385V9.87824H84.0952V10.6897Z" fill="white"/>
<path d="M87.4517 13.3272V7.41936H89.5017C90.1782 7.41936 90.6931 7.55326 91.0464 7.82105C91.3997 8.08885 91.5764 8.48785 91.5764 9.01803C91.5764 9.28854 91.5025 9.53199 91.3546 9.74839C91.2067 9.9648 90.9903 10.1325 90.7054 10.2515C91.0286 10.3381 91.2779 10.5017 91.4532 10.7425C91.6312 10.9805 91.7202 11.2673 91.7202 11.6027C91.7202 12.1572 91.5394 12.5833 91.1779 12.8808C90.8191 13.1784 90.3042 13.3272 89.6332 13.3272H87.4517ZM88.4911 10.6613V12.5075H89.6455C89.9714 12.5075 90.2261 12.4277 90.4097 12.2681C90.5932 12.1085 90.6849 11.8867 90.6849 11.6027C90.6849 10.9887 90.3672 10.6749 89.7318 10.6613H88.4911ZM88.4911 9.90664H89.5099C89.8331 9.90664 90.0851 9.83496 90.2659 9.69159C90.4494 9.54552 90.5411 9.33993 90.5411 9.07484C90.5411 8.7827 90.4562 8.5717 90.2864 8.44186C90.1193 8.31202 89.8578 8.2471 89.5017 8.2471H88.4911V9.90664Z" fill="white"/>
</svg>
