<svg width="19" height="13" xmlns="http://www.w3.org/2000/svg"><g fill="none" fill-rule="evenodd"><path fill="#DE2910" fill-rule="nonzero" d="M0 0h19v13H0z"/><path d="M10.214 7.914l-.032.636.63.226-.649.167-.031.635-.37-.531-.65.169.421-.498-.37-.531.63.224.421-.497zm1.493-1.806l.23.598.673-.023-.53.392.231.597-.559-.355-.53.392.185-.612-.558-.355.673-.022.185-.612zM5.253 2.606l.625 1.814h2.02L6.263 5.542l.624 1.814-1.634-1.12-1.633 1.12.624-1.814L2.61 4.42h2.019l.624-1.814zm6.08.965l.469.456.603-.28-.315.563.47.456-.665-.11-.313.563-.096-.629-.664-.11.605-.279-.094-.63zM10.249 1.8l-.059.633.62.25-.656.143-.06.633-.346-.545-.656.142.441-.48-.345-.545.619.249.442-.48z" fill="#FFDE00"/><path stroke-opacity=".2" stroke="#0E0E0F" d="M.5.5h18v12H.5z"/></g></svg>