<svg width="386" height="95" xmlns="http://www.w3.org/2000/svg"><g fill="none" fill-rule="evenodd"><path fill="#BC1F3E" d="M344.43 44.186h-8.374v4.588h-5.104V39h20.953l-8.015 22h-5.674l6.214-16.814m25.376 11.378H380.1V44.438h-10.295v11.126zM364.476 61h20.953V39h-20.953v22z"/><path fill="#FFF" d="M110.952 39v22h-5.329V48.932l-5.207 5.72h-.03l-5.208-5.627V61H90V39h2.605l7.871 8.485L108.348 39h2.604M129.9 55.563h10.296V44.437H129.9v11.126zM124.571 61h20.953V39H124.57v22zm55.524 0h-20.952V39h20.952v8.203h-5.326v-2.766h-10.298v11.126h10.298v-2.86h5.326V61m29.463-13.735h3.852V61h-5.273v-8.298H197.94V61h-5.274V39h5.274v8.265h5.948L207.95 39h5.67l-4.061 8.265m22.939 8.455h11.48v-4.306h-11.48v4.305zm0-7.136h8.873V44.28h-8.873v4.305zm14.105 0h2.635V61h-22V39h19.365v9.584zm20.534 1.006h10.297v-5.153h-10.297v5.154zM282.762 39v22h-5.328v-5.972h-10.297V61h-5.327V39h20.952z"/><path d="M300.59 55.72h11.487v-4.306H300.59v4.305zm1.826-7.136h7.835v-4.303h-7.835v4.303zm12.932 0V39h-18.03v9.584h-1.985V61h22V48.584h-1.985z" fill="#BC1F3E"/><path fill="#BDD4E7" d="M11 61v16.883L29 95V78.117z"/><path fill="#D71440" d="M39 75V37.76L0 0v37.24z"/><path fill="#BCD4E8" d="M74 0v21.848L51 44V22.152z"/></g></svg>