<?xml version="1.0" encoding="UTF-8"?>
<svg width="38px" height="40px" viewBox="0 0 38 40" version="1.1" xmlns="http://www.w3.org/2000/svg" xmlns:xlink="http://www.w3.org/1999/xlink">
    <!-- Generator: Sketch 44.1 (41455) - http://www.bohemiancoding.com/sketch -->
    <title>hp</title>
    <desc>Created with Sketch.</desc>
    <defs></defs>
    <g id="Показ" stroke="none" stroke-width="1" fill="none" fill-rule="evenodd">
        <g id="start_page_1280" transform="translate(-34.000000, -2224.000000)" fill="#000230">
            <g id="hp" transform="translate(32.000000, 2224.000000)">
                <g transform="translate(2.000000, 0.000000)">
                    <path d="M1.37901002,38.667685 L36.62099,38.667685 L36.62099,34.5055331 C36.62099,33.908656 36.349325,33.4809829 36.0831761,33.3690684 C35.7480766,33.2371692 35.3302366,33.5436017 35.108216,33.7434489 C34.9813471,33.8593603 34.8131079,33.9219791 34.6379736,33.9219791 L3.36064741,33.9219791 C3.18689215,33.9219791 3.01727391,33.8593603 2.89040499,33.7434489 C2.6711424,33.5436017 2.25192336,33.2358369 1.91682392,33.3690684 C1.64929598,33.4809829 1.37901002,33.908656 1.37901002,34.5055331 L1.37901002,38.667685 Z M37.310495,40 L0.689505008,40 C0.308898244,40 0,39.7015614 0,39.3338425 L0,34.5055331 C0,33.4210287 0.536434896,32.4964021 1.36797794,32.1473356 C1.789955,31.9688054 2.62287705,31.8089276 3.61990129,32.5896642 L34.3800987,32.5896642 C35.3771229,31.8089276 36.208666,31.9674731 36.6320221,32.1473356 C37.4635651,32.4964021 38,33.4210287 38,34.5055331 L38,39.3338425 C38,39.7015614 37.6911018,40 37.310495,40 L37.310495,40 Z" id="Fill-1"></path>
                    <path d="M31.2946222,32 C30.9052537,32 30.5892444,31.7056 30.5892444,31.3428571 L30.5892444,20.6445714 C30.5892444,14.9484571 25.6149202,10.3142857 19.5007054,10.3142857 C13.3864906,10.3142857 8.4107556,14.9484571 8.4107556,20.6445714 L8.4107556,31.3428571 C8.4107556,31.7056 8.0961571,32 7.7053778,32 C7.31600925,32 7,31.7056 7,31.3428571 L7,20.6445714 C7,14.2242857 12.6077535,9 19.5007054,9 C26.3922465,9 32,14.2242857 32,20.6445714 L32,31.3428571 C32,31.7056 31.6839907,32 31.2946222,32" id="Fill-3"></path>
                    <path d="M6.33662644,8 C6.16688768,8 5.99714892,7.94800027 5.86719268,7.84506201 L2.1939398,4.90548518 C1.9353534,4.69854746 1.9353534,4.36214101 2.1939398,4.15520329 C2.45385227,3.94826557 2.87289484,3.94826557 3.13148124,4.15520329 L6.8060602,7.09371891 C7.0646466,7.30171785 7.0646466,7.63706308 6.8060602,7.84506201 C6.67610396,7.94800027 6.5063652,8 6.33662644,8" id="Fill-5"></path>
                    <path d="M19.5,6 C19.224,6 19,5.71331058 19,5.36006826 L19,0.639931741 C19,0.285409556 19.224,0 19.5,0 C19.776,0 20,0.285409556 20,0.639931741 L20,5.36006826 C20,5.71331058 19.776,6 19.5,6" id="Fill-7"></path>
                    <path d="M12.5061584,7 C12.3262349,7 12.1532316,6.8667795 12.065247,6.63764025 L11.0539187,3.96923368 C10.9303448,3.64151125 11.0262381,3.24051756 11.2694315,3.07265973 C11.5126248,2.90613411 11.8101906,3.03535799 11.934753,3.36308041 L12.9460813,6.03015478 C13.0696552,6.35920941 12.9737619,6.7588709 12.7305685,6.92672873 C12.6584014,6.97602031 12.5822799,7 12.5061584,7" id="Fill-9"></path>
                    <path d="M31.7558074,10 C31.5624174,10 31.3690274,9.92596323 31.2209632,9.77940065 C30.9263456,9.48325359 30.9263456,9.00579199 31.2209632,8.70964493 L35.7097262,4.2221103 C36.0058546,3.92596323 36.4832861,3.92596323 36.7779037,4.2221103 C37.0740321,4.51674641 37.0740321,4.99420801 36.7779037,5.29035507 L32.2906516,9.77940065 C32.1425873,9.92596323 31.9491974,10 31.7558074,10" id="Fill-11"></path>
                    <path d="M25.5079482,6 C25.4296523,6 25.3513564,5.9813301 25.2771278,5.94295309 C25.0269876,5.8122638 24.9283551,5.50109882 25.0554589,5.24490633 L26.0387334,3.28249256 C26.1658371,3.02837449 26.4739366,2.92672727 26.7230599,3.05637934 C26.9721832,3.18706863 27.0718325,3.49927082 26.9447288,3.7544261 L25.9614543,5.71787709 C25.8709564,5.89627834 25.6930112,6 25.5079482,6" id="Fill-13"></path>
                </g>
            </g>
        </g>
    </g>
</svg>