<?xml version="1.0" encoding="UTF-8"?>
<svg width="38px" height="28px" viewBox="0 0 38 28" version="1.1" xmlns="http://www.w3.org/2000/svg" xmlns:xlink="http://www.w3.org/1999/xlink">
    <!-- Generator: Sketch 44.1 (41455) - http://www.bohemiancoding.com/sketch -->
    <title>it</title>
    <desc>Created with Sketch.</desc>
    <defs>
        <polygon id="path-1" points="18.753 27.6690477 37.506 27.6690477 37.506 0 0 0 0 13.8345239 0 27.6690477 18.753 27.6690477"></polygon>
    </defs>
    <g id="Показ" stroke="none" stroke-width="1" fill="none" fill-rule="evenodd">
        <g id="start_page_1280" transform="translate(-37.000000, -1318.000000)">
            <g id="it" transform="translate(32.000000, 1318.000000)">
                <g transform="translate(5.000000, 0.000000)">
                    <mask id="mask-2" fill="white">
                        <use xlink:href="#path-1"></use>
                    </mask>
                    <g id="Clip-2"></g>
                    <path d="M5.2934,18.339614 L31.9187333,18.339614 L31.9187333,1.24708378 L5.2934,1.24708378 L5.2934,18.339614 Z M32.5508,19.5866978 L4.66006667,19.5866978 C4.3092,19.5866978 4.02673333,19.307351 4.02673333,18.9631559 L4.02673333,0.623541888 C4.02673333,0.279346766 4.3092,0 4.66006667,0 L32.5508,0 C32.9016667,0 33.1841333,0.279346766 33.1841333,0.623541888 L33.1841333,18.9631559 C33.1841333,19.307351 32.9016667,19.5866978 32.5508,19.5866978 L32.5508,19.5866978 Z" id="Fill-1" fill="#000230" mask="url(#mask-2)"></path>
                    <path d="M8.55633333,15.1795037 L28.6545333,15.1795037 L28.6545333,4.40594698 L8.55633333,4.40594698 L8.55633333,15.1795037 Z M29.2878667,16.4265875 L7.923,16.4265875 C7.5734,16.4265875 7.28966667,16.1484878 7.28966667,15.8030456 L7.28966667,3.78365217 C7.28966667,3.43820997 7.5734,3.16011029 7.923,3.16011029 L29.2878667,3.16011029 C29.6374667,3.16011029 29.9212,3.43820997 29.9212,3.78365217 L29.9212,15.8030456 C29.9212,16.1484878 29.6374667,16.4265875 29.2878667,16.4265875 L29.2878667,16.4265875 Z" id="Fill-3" fill="#000230" mask="url(#mask-2)"></path>
                    <path d="M0.633333333,23.7566965 C0.475,23.7566965 0.316666667,23.6980836 0.192533333,23.5808577 C-0.0582666667,23.3414176 -0.0646,22.9473391 0.1786,22.6991695 L4.35226667,18.449108 C4.59546667,18.2009383 4.99573333,18.1959499 5.2478,18.4341429 C5.4986,18.673583 5.5062,19.0676615 5.263,19.3158312 L1.08806667,23.5671398 C0.963933333,23.6930952 0.799266667,23.7566965 0.633333333,23.7566965" id="Fill-4" fill="#000230" mask="url(#mask-2)"></path>
                    <path d="M36.8731733,23.7566965 C36.70724,23.7566965 36.5425733,23.6930952 36.41844,23.5671398 L32.2447733,19.3158312 C32.0015733,19.0676615 32.0079067,18.673583 32.2587067,18.4341429 C32.51204,18.1959499 32.9123067,18.2009383 33.15424,18.449108 L37.3279067,22.6991695 C37.5711067,22.9473391 37.5647733,23.3414176 37.3139733,23.5808577 C37.18984,23.6980836 37.0315067,23.7566965 36.8731733,23.7566965" id="Fill-5" fill="#000230" mask="url(#mask-2)"></path>
                    <path d="M36.8731733,23.7566965 L0.63384,23.7566965 C0.282973333,23.7566965 0.000506666667,23.4773497 0.000506666667,23.1331546 C0.000506666667,22.7889595 0.282973333,22.5096127 0.63384,22.5096127 L36.8731733,22.5096127 C37.2227733,22.5096127 37.5065067,22.7889595 37.5065067,23.1331546 C37.5065067,23.4773497 37.2227733,23.7566965 36.8731733,23.7566965" id="Fill-6" fill="#000230" mask="url(#mask-2)"></path>
                    <path d="M0.633333333,27.6690477 C0.283733333,27.6690477 0,27.389701 0,27.0455058 L0,23.133404 C0,22.7879618 0.283733333,22.5098621 0.633333333,22.5098621 C0.982933333,22.5098621 1.26666667,22.7879618 1.26666667,23.133404 L1.26666667,27.0455058 C1.26666667,27.389701 0.982933333,27.6690477 0.633333333,27.6690477" id="Fill-7" fill="#000230" mask="url(#mask-2)"></path>
                    <path d="M36.8731733,27.6690477 C36.5235733,27.6690477 36.23984,27.389701 36.23984,27.0455058 L36.23984,23.133404 C36.23984,22.7879618 36.5235733,22.5098621 36.8731733,22.5098621 C37.2227733,22.5098621 37.5065067,22.7879618 37.5065067,23.133404 L37.5065067,27.0455058 C37.5065067,27.389701 37.2227733,27.6690477 36.8731733,27.6690477" id="Fill-8" fill="#000230" mask="url(#mask-2)"></path>
                    <path d="M36.8731733,27.6690477 L0.63384,27.6690477 C0.282973333,27.6690477 0.000506666667,27.389701 0.000506666667,27.0455058 C0.000506666667,26.7013107 0.282973333,26.4219639 0.63384,26.4219639 L36.8731733,26.4219639 C37.2227733,26.4219639 37.5065067,26.7013107 37.5065067,27.0455058 C37.5065067,27.389701 37.2227733,27.6690477 36.8731733,27.6690477" id="Fill-9" fill="#000230" mask="url(#mask-2)"></path>
                </g>
            </g>
        </g>
    </g>
</svg>