<?xml version="1.0" encoding="UTF-8"?>
<svg width="38px" height="33px" viewBox="0 0 38 33" version="1.1" xmlns="http://www.w3.org/2000/svg" xmlns:xlink="http://www.w3.org/1999/xlink">
    <!-- Generator: Sketch 44.1 (41455) - http://www.bohemiancoding.com/sketch -->
    <title>transport</title>
    <desc>Created with Sketch.</desc>
    <defs>
        <polygon id="path-1" points="0 32.695715 37.506 32.695715 37.506 0.000124768519 0 0.000124768519"></polygon>
    </defs>
    <g id="Показ" stroke="none" stroke-width="1" fill="none" fill-rule="evenodd">
        <g id="start_page_1280" transform="translate(-450.000000, -1092.000000)">
            <g id="transport" transform="translate(448.000000, 1092.000000)">
                <g transform="translate(2.000000, 0.000000)">
                    <mask id="mask-2" fill="white">
                        <use xlink:href="#path-1"></use>
                    </mask>
                    <g id="Clip-2"></g>
                    <path d="M1.26666667,27.1510021 L36.2393333,27.1510021 L36.2393333,9.05831921 L1.26666667,9.05831921 L1.26666667,27.1510021 Z M36.8726667,28.3986873 L0.633333333,28.3986873 C0.283733333,28.3986873 0,28.1204535 0,27.7748447 L0,8.43447662 C0,8.09011551 0.283733333,7.81063403 0.633333333,7.81063403 L36.8726667,7.81063403 C37.2235333,7.81063403 37.506,8.09011551 37.506,8.43447662 L37.506,27.7748447 C37.506,28.1204535 37.2235333,28.3986873 36.8726667,28.3986873 L36.8726667,28.3986873 Z" id="Fill-1" fill="#000230" mask="url(#mask-2)"></path>
                    <path d="M36.3801867,21.8631875 C36.2547867,21.8631875 36.12812,21.8270046 36.01792,21.7508958 L31.4718533,18.615463 C31.30212,18.4994282 31.2007867,18.3085324 31.2007867,18.1051597 L31.2007867,8.88601389 L7.52172,1.21774074 C7.18985333,1.10919213 7.00998667,0.756097222 7.11765333,0.429203704 C7.22785333,0.102310185 7.58632,-0.0761087963 7.91818667,0.0311921296 L32.03172,7.84170139 C32.2913867,7.92654398 32.4674533,8.16485185 32.4674533,8.43435185 L32.4674533,17.7807616 L36.74372,20.727794 C37.0312533,20.9261759 37.0996533,21.3154537 36.89952,21.5974306 C36.7766533,21.7708588 36.58032,21.8631875 36.3801867,21.8631875" id="Fill-3" fill="#000230" mask="url(#mask-2)"></path>
                    <path d="M27.0565067,28.3989368 C26.7069067,28.3989368 26.4231733,28.1194553 26.4231733,27.7750942 L26.4231733,13.6637748 L20.8359067,13.6637748 L20.8359067,27.7750942 C20.8359067,28.1194553 20.55344,28.3989368 20.2025733,28.3989368 C19.8529733,28.3989368 19.56924,28.1194553 19.56924,27.7750942 L19.56924,13.0399322 C19.56924,12.6955711 19.8529733,12.4160896 20.2025733,12.4160896 L27.0565067,12.4160896 C27.4061067,12.4160896 27.68984,12.6955711 27.68984,13.0399322 L27.68984,27.7750942 C27.68984,28.1194553 27.4061067,28.3989368 27.0565067,28.3989368" id="Fill-4" fill="#000230" mask="url(#mask-2)"></path>
                    <path d="M5.2706,18.8014928 L14.6718,18.8014928 L14.6718,13.6647729 L5.2706,13.6647729 L5.2706,18.8014928 Z M15.3051333,20.049178 L4.63726667,20.049178 C4.28766667,20.049178 4.00393333,19.7696965 4.00393333,19.4253354 L4.00393333,13.0409303 C4.00393333,12.6953215 4.28766667,12.4170877 4.63726667,12.4170877 L15.3051333,12.4170877 C15.656,12.4170877 15.9384667,12.6953215 15.9384667,13.0409303 L15.9384667,19.4253354 C15.9384667,19.7696965 15.656,20.049178 15.3051333,20.049178 L15.3051333,20.049178 Z" id="Fill-5" fill="#000230" mask="url(#mask-2)"></path>
                    <path d="M7.36186667,32.695715 C4.7956,32.695715 2.70813333,30.6395299 2.70813333,28.1117197 C2.70813333,27.7661109 2.9906,27.4878771 3.34146667,27.4878771 C3.69106667,27.4878771 3.9748,27.7661109 3.9748,28.1117197 C3.9748,29.9508076 5.49353333,31.4480299 7.36186667,31.4480299 C9.2302,31.4480299 10.7489333,29.9508076 10.7489333,28.1117197 C10.7489333,27.7661109 11.0326667,27.4878771 11.3822667,27.4878771 C11.7331333,27.4878771 12.0156,27.7661109 12.0156,28.1117197 C12.0156,30.6395299 9.92813333,32.695715 7.36186667,32.695715" id="Fill-6" fill="#000230" mask="url(#mask-2)"></path>
                    <path d="M27.9044133,32.695715 C25.3381467,32.695715 23.25068,30.6395299 23.25068,28.1117197 C23.25068,27.7661109 23.5344133,27.4878771 23.8840133,27.4878771 C24.23488,27.4878771 24.5173467,27.7661109 24.5173467,28.1117197 C24.5173467,29.9508076 26.0373467,31.4480299 27.9044133,31.4480299 C29.7727467,31.4480299 31.29148,29.9508076 31.29148,28.1117197 C31.29148,27.7661109 31.5752133,27.4878771 31.9248133,27.4878771 C32.27568,27.4878771 32.5581467,27.7661109 32.5581467,28.1117197 C32.5581467,30.6395299 30.47068,32.695715 27.9044133,32.695715" id="Fill-7" fill="#000230" mask="url(#mask-2)"></path>
                </g>
            </g>
        </g>
    </g>
</svg>