<?xml version="1.0" encoding="UTF-8"?>
<svg width="37px" height="35px" viewBox="0 0 37 35" version="1.1" xmlns="http://www.w3.org/2000/svg" xmlns:xlink="http://www.w3.org/1999/xlink">
    <!-- Generator: Sketch 44.1 (41455) - http://www.bohemiancoding.com/sketch -->
    <title>medicine</title>
    <desc>Created with Sketch.</desc>
    <defs>
        <polygon id="path-1" points="14.2475123 0.468876159 14.2475123 21.2265879 0.549783593 21.2265879 0.549783593 0.468876159"></polygon>
    </defs>
    <g id="Показ" stroke="none" stroke-width="1" fill="none" fill-rule="evenodd">
        <g id="start_page_1280" transform="translate(-33.000000, -1090.000000)">
            <g id="medicine" transform="translate(32.000000, 1090.000000)">
                <g transform="translate(1.000000, 0.000000)">
                    <path d="M8.51471636,33.3014695 L17.3091824,33.3014695 L17.3091824,26.8077394 C17.3091824,26.467 17.5905651,26.1926863 17.9372688,26.1926863 L24.5673491,26.1926863 L24.5673491,17.5819436 L17.9372688,17.5819436 C17.5905651,17.5819436 17.3091824,17.3063999 17.3091824,16.9668906 L17.3091824,10.4719304 L8.51471636,10.4719304 L8.51471636,16.9668906 C8.51471636,17.3063999 8.23333364,17.5819436 7.88662994,17.5819436 L1.25654969,17.5819436 L1.25654969,26.1926863 L7.88662994,26.1926863 C8.23333364,26.1926863 8.51471636,26.467 8.51471636,26.8077394 L8.51471636,33.3014695 Z M17.9372688,34.5315756 L7.88662994,34.5315756 C7.53992623,34.5315756 7.25854352,34.2560318 7.25854352,33.9165225 L7.25854352,27.4227924 L0.628463272,27.4227924 C0.280503395,27.4227924 0.000376851852,27.1472487 0.000376851852,26.8077394 L0.000376851852,16.9668906 C0.000376851852,16.6261512 0.280503395,16.3518375 0.628463272,16.3518375 L7.25854352,16.3518375 L7.25854352,9.85687732 C7.25854352,9.51736804 7.53992623,9.24182427 7.88662994,9.24182427 L17.9372688,9.24182427 C18.2839725,9.24182427 18.5653552,9.51736804 18.5653552,9.85687732 L18.5653552,16.3518375 L25.1954355,16.3518375 C25.5433954,16.3518375 25.8235219,16.6261512 25.8235219,16.9668906 L25.8235219,26.8077394 C25.8235219,27.1472487 25.5433954,27.4227924 25.1954355,27.4227924 L18.5653552,27.4227924 L18.5653552,33.9165225 C18.5653552,34.2560318 18.2839725,34.5315756 17.9372688,34.5315756 L17.9372688,34.5315756 Z" id="Fill-1" fill="#000230"></path>
                    <path d="M11.7883028,10.1565312 C11.5069201,10.1565312 11.2506608,9.97078515 11.1803151,9.69032095 C10.3223491,6.33582162 11.6526361,3.22980371 14.653633,1.58761207 C17.3506361,0.109024536 21.4193799,-0.0336677719 24.4266577,2.97640186 C24.6690991,3.21873276 24.6640744,3.60867639 24.4166083,3.84608687 C24.1691423,4.08349735 23.7721917,4.08103714 23.5284941,3.83624602 C20.9860003,1.28992639 17.5478552,1.412937 15.2666454,2.66026459 C13.3195775,3.72553647 11.5446052,6.05412732 12.3975466,9.39263528 C12.4829664,9.72107361 12.2782102,10.0556625 11.9415559,10.1380796 C11.8900528,10.1503806 11.8398059,10.1565312 11.7883028,10.1565312" id="Fill-3" fill="#000230"></path>
                    <g id="Group-7" transform="translate(22.611111, 0.088605)">
                        <mask id="mask-2" fill="white">
                            <use xlink:href="#path-1"></use>
                        </mask>
                        <g id="Clip-6"></g>
                        <path d="M3.15512932,21.2265879 C2.95916636,21.2265879 2.76697191,21.1380202 2.64386698,20.9694957 C2.44162315,20.6927218 2.50694414,20.3101588 2.78832685,20.1121117 C4.99291019,18.5646383 6.83445957,17.0688292 8.41723735,15.5398074 C11.5790244,12.4854539 14.7332744,8.00540749 11.8139287,4.00879277 C10.8366262,2.67289755 9.2701787,1.85979741 7.40099352,1.71956532 C5.24791327,1.55719131 3.03830525,2.33461837 1.62762315,3.74801028 C1.38643796,3.99157129 0.986975,3.9940315 0.739508951,3.75785113 C0.490786728,3.51921054 0.485762037,3.13049702 0.729459568,2.88816611 C2.39388858,1.22137235 4.99039784,0.304943302 7.49771883,0.493149536 C9.74375586,0.660443966 11.6380645,1.6555998 12.8351972,3.29287102 C15.5548114,7.01394198 14.3325552,11.5530335 9.29907068,16.4144128 C7.66981451,17.9901787 5.77927438,19.5253511 3.52067562,21.1109579 C3.41013241,21.1896847 3.28200278,21.2265879 3.15512932,21.2265879" id="Fill-5" fill="#000230" mask="url(#mask-2)"></path>
                    </g>
                </g>
            </g>
        </g>
    </g>
</svg>