<?xml version="1.0" encoding="UTF-8"?>
<svg width="30px" height="27px" viewBox="0 0 30 27" version="1.1" xmlns="http://www.w3.org/2000/svg" xmlns:xlink="http://www.w3.org/1999/xlink">
    <!-- Generator: Sketch 48.2 (47327) - http://www.bohemiancoding.com/sketch -->
    <title>payment</title>
    <desc>Created with Sketch.</desc>
    <defs></defs>
    <g id="industry_icon_set" stroke="none" stroke-width="1" fill="none" fill-rule="evenodd" transform="translate(-1467.000000, -417.000000)">
        <g id="payment" transform="translate(1467.000000, 416.000000)" fill="#000230">
            <g id="Group-3" transform="translate(0.000000, 0.750700)">
                <path d="M28.1079,20.3535 L23.1669,20.3535 C22.5679,20.3535 22.0809,19.8665 22.0809,19.2675 L22.0809,16.9175 C22.0809,16.3195 22.5679,15.8325 23.1669,15.8325 L28.1079,15.8325 L28.1079,20.3535 Z M3.5119,25.9995 C2.1269,25.9995 0.9999,24.8735 0.9999,23.4885 L0.9999,8.6495 C1.6009,9.0645 2.4919,9.2815 3.7239,9.3405 L28.1079,9.3405 L28.1079,14.8325 L23.1669,14.8325 C22.0169,14.8325 21.0809,15.7675 21.0809,16.9175 L21.0809,19.2675 C21.0809,20.4175 22.0169,21.3535 23.1669,21.3535 L28.1079,21.3535 L28.1079,25.9995 L3.5119,25.9995 Z M1.3269,5.6975 C1.8559,5.1835 2.9449,4.8825 4.2689,4.8955 C4.1919,5.2085 4.1739,5.5425 4.2279,5.8865 L4.7329,8.3415 L3.7479,8.3415 C1.2339,8.2195 1.0049,7.4315 0.9999,6.4085 C1.0039,6.1395 1.1109,5.9075 1.3269,5.6975 L1.3269,5.6975 Z M6.3729,4.0605 L21.1399,1.2755 C21.5249,1.2055 21.9149,1.2865 22.2359,1.5105 C22.5579,1.7355 22.7699,2.0715 22.8329,2.4435 L23.6479,8.3405 L5.7539,8.3415 L5.2119,5.7075 C5.0889,4.9305 5.5989,4.2075 6.3729,4.0605 L6.3729,4.0605 Z M28.1079,4.8235 L28.1079,8.3405 L24.6569,8.3405 L24.1709,4.8235 L28.1079,4.8235 Z M28.6079,3.8235 L24.0329,3.8235 L23.8209,2.2915 C23.7119,1.6385 23.3519,1.0705 22.8079,0.6905 C22.2649,0.3115 21.6069,0.1685 20.9549,0.2925 L6.1869,3.0785 C5.5889,3.1915 5.0919,3.5145 4.7399,3.9535 C4.6759,3.9205 4.6069,3.8985 4.5299,3.8965 C2.8059,3.8445 1.3899,4.2415 0.6299,4.9795 C0.2449,5.3535 0.0299,5.8135 0.0029,6.3155 C0.0009,6.3325 -0.0001,6.3505 -0.0001,6.3695 L-0.0001,23.4885 C-0.0001,25.4245 1.5749,26.9995 3.5119,26.9995 L28.6079,26.9995 C28.8839,26.9995 29.1079,26.7765 29.1079,26.4995 L29.1079,20.8535 L29.1079,15.3325 L29.1079,8.9325 L29.1079,8.8405 L29.1079,4.3235 C29.1079,4.0465 28.8839,3.8235 28.6079,3.8235 L28.6079,3.8235 Z" id="Fill-1"></path>
            </g>
            <path d="M24.0908,18.3396 C24.3688,18.3396 24.5948,18.5656 24.5948,18.8436 C24.5948,19.1216 24.3688,19.3476 24.0908,19.3476 C23.8128,19.3476 23.5868,19.1216 23.5868,18.8436 C23.5868,18.5656 23.8128,18.3396 24.0908,18.3396 M22.5868,18.8436 C22.5868,19.6726 23.2618,20.3476 24.0908,20.3476 C24.9198,20.3476 25.5948,19.6726 25.5948,18.8436 C25.5948,18.0146 24.9198,17.3396 24.0908,17.3396 C23.2618,17.3396 22.5868,18.0146 22.5868,18.8436" id="Fill-4"></path>
        </g>
    </g>
</svg>