<?xml version="1.0" encoding="UTF-8"?>
<svg width="34px" height="39px" viewBox="0 0 34 39" version="1.1" xmlns="http://www.w3.org/2000/svg" xmlns:xlink="http://www.w3.org/1999/xlink">
    <!-- Generator: Sketch 44.1 (41455) - http://www.bohemiancoding.com/sketch -->
    <title>tourism</title>
    <desc>Created with Sketch.</desc>
    <defs>
        <polygon id="path-1" points="0 38.7633581 33.8414871 38.7633581 33.8414871 0.671919244 0 0.671919244"></polygon>
    </defs>
    <g id="Показ" stroke="none" stroke-width="1" fill="none" fill-rule="evenodd">
        <g id="start_page_1280" transform="translate(-37.000000, -1555.000000)">
            <g id="tourism" transform="translate(32.000000, 1555.000000)">
                <g transform="translate(5.000000, 0.000000)">
                    <path d="M25.358016,5.77975011 C25.2230117,5.77975011 25.0867689,5.73647703 24.9728203,5.64622175 C23.4877731,4.46548482 21.7277631,3.61733242 19.8847689,3.1944926 C19.5515931,3.1190738 19.3435131,2.78648927 19.4203046,2.45390473 C19.4958574,2.12008382 19.8277946,1.91237303 20.1622089,1.99026457 C22.184796,2.45390473 24.1157289,3.38365779 25.7444503,4.67690473 C26.0119817,4.89079739 26.0553317,5.28025512 25.843536,5.54731185 C25.7209174,5.70062219 25.540086,5.77975011 25.358016,5.77975011 Z" id="Fill-1" fill="#000230"></path>
                    <path d="M8.68325271,5.77975011 C8.50118271,5.77975011 8.32035129,5.70062219 8.19773271,5.54731185 C7.985937,5.28025512 8.029287,4.89079739 8.29681843,4.6781411 C10.0097627,3.31565723 12.0447356,2.36364944 14.1800327,1.92473676 C14.514447,1.85426346 14.8426684,2.07310161 14.9107899,2.40568615 C14.9801499,2.74074344 14.7646384,3.06838248 14.4289856,3.13638304 C12.4831899,3.53573176 10.630287,4.40366613 9.06844843,5.64498537 C8.95449986,5.73647703 8.818257,5.77975011 8.68325271,5.77975011" id="Fill-3" fill="#000230"></path>
                    <path d="M3.71819143,14.6951176 C3.69465857,14.6951176 3.66988714,14.6938812 3.64635429,14.6914085 C3.30698571,14.6518445 3.06298714,14.3452238 3.10262143,14.005221 C3.25372714,12.6897194 3.79622143,10.6274479 4.31022857,9.41085617 C4.44275571,9.09681724 4.80813429,8.94968877 5.12025429,9.08074438 C5.43609,9.21303637 5.58348,9.57529388 5.45095286,9.89056919 C4.98277286,10.9995964 4.47124286,12.9481215 4.33252286,14.1486404 C4.29660429,14.4639157 4.02783429,14.6951176 3.71819143,14.6951176" id="Fill-5" fill="#000230"></path>
                    <path d="M5.41032771,22.9066175 C5.19605486,22.9066175 4.98797486,22.7953438 4.87278771,22.597524 C4.15937057,21.3599139 3.64164771,20.0258666 3.334482,18.6324734 C3.26140629,18.2986525 3.473202,17.9697771 3.80637771,17.8955947 C4.140792,17.8226486 4.470252,18.0340685 4.54456629,18.3666531 C4.82324486,19.6364089 5.29514057,20.8517643 5.94662914,21.9793372 C6.117552,22.2748305 6.01475057,22.6531608 5.718732,22.8250168 C5.62088486,22.8806536 5.51436771,22.9066175 5.41032771,22.9066175" id="Fill-7" fill="#000230"></path>
                    <path d="M14.3052523,29.3347719 C14.2643794,29.3347719 14.222268,29.3310627 14.178918,29.3211717 C12.0968794,28.8946228 10.104018,27.9747607 8.41832229,26.6642046 C8.14831371,26.454021 8.10000943,26.0657997 8.31056657,25.7962702 C8.51988514,25.5267407 8.90879657,25.4785221 9.17880514,25.6887057 C10.7171109,26.8842791 12.531618,27.7200677 14.430348,28.1119982 C14.7647623,28.1799988 14.9802737,28.5064014 14.9109137,28.8414587 C14.8502237,29.1332429 14.5926009,29.3347719 14.3052523,29.3347719" id="Fill-9" fill="#000230"></path>
                    <path d="M20.5222616,29.0305003 C20.2250044,29.0305003 19.9624273,28.8166076 19.9116459,28.5136961 C19.8559101,28.1774024 20.0838073,27.858418 20.4206987,27.8027811 C21.8896444,27.5592155 23.7041516,26.5725893 24.769323,25.7590553 C25.0418087,25.5525809 25.4294816,25.6045086 25.6375616,25.8752745 C25.8456416,26.1472767 25.7936216,26.5342617 25.5223744,26.7419725 C24.2986659,27.6741983 22.3107587,28.7424252 20.625063,29.0218457 C20.590383,29.0280275 20.555703,29.0305003 20.5222616,29.0305003" id="Fill-11" fill="#000230"></path>
                    <path d="M28.6323034,22.9053811 C28.5282634,22.9053811 28.4217463,22.8794172 28.3238991,22.8237804 C28.0278806,22.6519245 27.9250791,22.2735941 28.096002,21.9781008 C28.7412977,20.8616553 29.2107163,19.6549545 29.4906334,18.396326 C29.5649477,18.0612687 29.8968849,17.8572671 30.2300606,17.926504 C30.5632363,17.9994501 30.7737934,18.3307982 30.6994791,18.6633828 C30.3923134,20.0456486 29.8770677,21.3698049 29.1698434,22.5962877 C29.0546563,22.7941075 28.8465763,22.9053811 28.6323034,22.9053811" id="Fill-13" fill="#000230"></path>
                    <path d="M30.3225819,14.6854739 C30.012939,14.6854739 29.744169,14.454272 29.7082504,14.1389967 C29.5063633,12.4031279 28.9589147,10.7550417 28.0820061,9.24419299 C27.9098447,8.94746329 28.0114076,8.5703693 28.3074261,8.39851335 C28.6022061,8.22542102 28.981209,8.32804004 29.1533704,8.62353337 C30.1157404,10.2827469 30.7164476,12.0903254 30.9381519,13.9955773 C30.9777861,14.3355801 30.7350261,14.6422008 30.394419,14.6817647 C30.3708861,14.6842375 30.3461147,14.6854739 30.3225819,14.6854739" id="Fill-15" fill="#000230"></path>
                    <path d="M14.9239187,1.90878754 L14.9239187,3.46661846 C14.9239187,4.40131702 15.6856401,5.16168687 16.6220001,5.16168687 L17.5137716,5.16168687 C18.4501316,5.16168687 19.2106144,4.40131702 19.2106144,3.46661846 L19.2106144,1.90878754 L14.9239187,1.90878754 Z M17.5137716,6.39806062 L16.6220001,6.39806062 C15.0019487,6.39806062 13.6853473,5.08255895 13.6853473,3.46661846 L13.6853473,1.29060067 C13.6853473,0.949361513 13.9627873,0.672413793 14.304633,0.672413793 L19.8299001,0.672413793 C20.1729844,0.672413793 20.4491859,0.949361513 20.4491859,1.29060067 L20.4491859,3.46661846 C20.4491859,5.08255895 19.1325844,6.39806062 17.5137716,6.39806062 L17.5137716,6.39806062 Z" id="Fill-17" fill="#000230"></path>
                    <path d="M14.9239187,28.3000507 L14.9239187,29.8566452 C14.9239187,30.7913438 15.6856401,31.5517136 16.6220001,31.5517136 L17.5137716,31.5517136 C18.4501316,31.5517136 19.2106144,30.7913438 19.2106144,29.8566452 L19.2106144,28.3000507 L14.9239187,28.3000507 Z M17.5137716,32.7880874 L16.6220001,32.7880874 C15.0019487,32.7880874 13.6853473,31.4725857 13.6853473,29.8566452 L13.6853473,27.6818638 C13.6853473,27.3406246 13.9627873,27.0636769 14.304633,27.0636769 L19.8299001,27.0636769 C20.1729844,27.0636769 20.4491859,27.3406246 20.4491859,27.6818638 L20.4491859,29.8566452 C20.4491859,31.4725857 19.1325844,32.7880874 17.5137716,32.7880874 L17.5137716,32.7880874 Z" id="Fill-19" fill="#000230"></path>
                    <path d="M1.23857143,14.6854739 L1.23857143,16.2420684 C1.23857143,17.176767 2.00029286,17.9371368 2.93665286,17.9371368 L3.82718571,17.9371368 C4.76354571,17.9371368 5.52526714,17.176767 5.52526714,16.2420684 L5.52526714,14.6854739 L1.23857143,14.6854739 Z M3.82718571,19.1735106 L2.93665286,19.1735106 C1.31660143,19.1735106 0,17.8580089 0,16.2420684 L0,14.067287 C0,13.7260478 0.27744,13.4491001 0.619285714,13.4491001 L6.14455286,13.4491001 C6.48763714,13.4491001 6.76383857,13.7260478 6.76383857,14.067287 L6.76383857,16.2420684 C6.76383857,17.8580089 5.44723714,19.1735106 3.82718571,19.1735106 L3.82718571,19.1735106 Z" id="Fill-21" fill="#000230"></path>
                    <path d="M4.93372543,5.77975011 L4.93372543,7.33758103 C4.93372543,8.27227959 5.69544686,9.03264944 6.63180686,9.03264944 L7.52233971,9.03264944 C8.45869971,9.03264944 9.22042114,8.27227959 9.22042114,7.33758103 L9.22042114,5.77975011 L4.93372543,5.77975011 Z M7.52233971,10.2690232 L6.63180686,10.2690232 C5.01175543,10.2690232 3.695154,8.95352152 3.695154,7.33758103 L3.695154,5.16156324 C3.695154,4.82032408 3.972594,4.54337636 4.31443971,4.54337636 L9.83970686,4.54337636 C10.1815526,4.54337636 10.4589926,4.82032408 10.4589926,5.16156324 L10.4589926,7.33758103 C10.4589926,8.95352152 9.14115257,10.2690232 7.52233971,10.2690232 L7.52233971,10.2690232 Z" id="Fill-23" fill="#000230"></path>
                    <path d="M24.6190843,5.77975011 L24.6190843,7.33758103 C24.6190843,8.27227959 25.3808057,9.03264944 26.3171657,9.03264944 L27.2089371,9.03264944 C28.1452971,9.03264944 28.90578,8.27227959 28.90578,7.33758103 L28.90578,5.77975011 L24.6190843,5.77975011 Z M27.2089371,10.2690232 L26.3171657,10.2690232 C24.6971143,10.2690232 23.3805129,8.95352152 23.3805129,7.33758103 L23.3805129,5.16156324 C23.3805129,4.82032408 23.6579529,4.54337636 23.9997986,4.54337636 L29.5250657,4.54337636 C29.86815,4.54337636 30.1443514,4.82032408 30.1443514,5.16156324 L30.1443514,7.33758103 C30.1443514,8.95352152 28.82775,10.2690232 27.2089371,10.2690232 L27.2089371,10.2690232 Z" id="Fill-25" fill="#000230"></path>
                    <path d="M4.93372543,22.9053811 L4.93372543,24.4619756 C4.93372543,25.3966742 5.69544686,26.157044 6.63180686,26.157044 L7.52233971,26.157044 C8.45869971,26.157044 9.22042114,25.3966742 9.22042114,24.4619756 L9.22042114,22.9053811 L4.93372543,22.9053811 Z M7.52233971,27.3934178 L6.63180686,27.3934178 C5.01175543,27.3934178 3.695154,26.0779161 3.695154,24.4619756 L3.695154,22.2871942 C3.695154,21.9459551 3.972594,21.6690073 4.31443971,21.6690073 L9.83970686,21.6690073 C10.1815526,21.6690073 10.4589926,21.9459551 10.4589926,22.2871942 L10.4589926,24.4619756 C10.4589926,26.0779161 9.14115257,27.3934178 7.52233971,27.3934178 L7.52233971,27.3934178 Z" id="Fill-27" fill="#000230"></path>
                    <path d="M24.6190843,22.9053811 L24.6190843,24.4619756 C24.6190843,25.3966742 25.3808057,26.157044 26.3171657,26.157044 L27.2089371,26.157044 C28.1452971,26.157044 28.90578,25.3966742 28.90578,24.4619756 L28.90578,22.9053811 L24.6190843,22.9053811 Z M27.2089371,27.3934178 L26.3171657,27.3934178 C24.6971143,27.3934178 23.3805129,26.0779161 23.3805129,24.4619756 L23.3805129,22.2871942 C23.3805129,21.9459551 23.6579529,21.6690073 23.9997986,21.6690073 L29.5250657,21.6690073 C29.86815,21.6690073 30.1443514,21.9459551 30.1443514,22.2871942 L30.1443514,24.4619756 C30.1443514,26.0779161 28.82775,27.3934178 27.2089371,27.3934178 L27.2089371,27.3934178 Z" id="Fill-29" fill="#000230"></path>
                    <path d="M28.3159723,14.6854739 L28.3159723,16.2420684 C28.3159723,17.176767 29.0776937,17.9371368 30.0140537,17.9371368 L30.9045866,17.9371368 C31.8409466,17.9371368 32.602668,17.176767 32.602668,16.2420684 L32.602668,14.6854739 L28.3159723,14.6854739 Z M30.9045866,19.1735106 L30.0140537,19.1735106 C28.3940023,19.1735106 27.0774009,17.8580089 27.0774009,16.2420684 L27.0774009,14.067287 C27.0774009,13.7260478 27.3548409,13.4491001 27.6966866,13.4491001 L33.2219537,13.4491001 C33.565038,13.4491001 33.8412394,13.7260478 33.8412394,14.067287 L33.8412394,16.2420684 C33.8412394,17.8580089 32.524638,19.1735106 30.9045866,19.1735106 L30.9045866,19.1735106 Z" id="Fill-31" fill="#000230"></path>
                    <path d="M16.974126,27.9499096 C16.6322803,27.9499096 16.3548403,27.6729619 16.3548403,27.3317227 L16.3548403,18.8984174 C16.3548403,18.5559419 16.6322803,18.2802305 16.974126,18.2802305 C17.3159717,18.2802305 17.5934117,18.5559419 17.5934117,18.8984174 L17.5934117,27.3317227 C17.5934117,27.6729619 17.3159717,27.9499096 16.974126,27.9499096" id="Fill-33" fill="#000230"></path>
                    <path d="M16.974126,12.9661725 C16.6322803,12.9661725 16.3548403,12.6892248 16.3548403,12.3479857 L16.3548403,5.7803683 C16.3548403,5.43789277 16.6322803,5.16218142 16.974126,5.16218142 C17.3159717,5.16218142 17.5934117,5.43789277 17.5934117,5.7803683 L17.5934117,12.3479857 C17.5934117,12.6892248 17.3159717,12.9661725 16.974126,12.9661725" id="Fill-35" fill="#000230"></path>
                    <path d="M9.94424229,23.2592313 C9.78570514,23.2592313 9.627168,23.1986489 9.505788,23.0787207 C9.26426657,22.8363914 9.26426657,22.4456973 9.505788,22.2033681 L14.2408466,17.4779476 C14.482368,17.2368547 14.8737566,17.2368547 15.1165166,17.4779476 C15.358038,17.7202769 15.358038,18.110971 15.1165166,18.3520638 L10.3826966,23.0787207 C10.2613166,23.1986489 10.1027794,23.2592313 9.94424229,23.2592313" id="Fill-37" fill="#000230"></path>
                    <path d="M19.3170077,13.9030966 C19.1584706,13.9030966 18.9999334,13.8425142 18.8785534,13.722586 C18.637032,13.4802567 18.637032,13.0895626 18.8785534,12.8472334 L23.9207777,7.81395584 C24.1635377,7.57286296 24.5549263,7.57286296 24.7964477,7.81395584 C25.0392077,8.05628509 25.0392077,8.4469792 24.7964477,8.68807208 L19.755462,13.722586 C19.634082,13.8425142 19.4755449,13.9030966 19.3170077,13.9030966" id="Fill-39" fill="#000230"></path>
                    <path d="M23.9997986,23.2544094 C23.8412614,23.2544094 23.6827243,23.1938271 23.5613443,23.0738988 L18.8770671,18.3966969 C18.6355457,18.1556041 18.6355457,17.76491 18.8770671,17.5225807 C19.1198271,17.2814878 19.5112157,17.2814878 19.7527371,17.5225807 L24.4382529,22.1985462 C24.6797743,22.4408755 24.6797743,22.8315696 24.4382529,23.0738988 C24.3168729,23.1938271 24.1583357,23.2544094 23.9997986,23.2544094" id="Fill-41" fill="#000230"></path>
                    <path d="M14.6784339,13.9502024 C14.5198967,13.9502024 14.3613596,13.8896201 14.2399796,13.7696918 L9.23119671,8.76856001 C8.98843671,8.52623076 8.98843671,8.13553665 9.23119671,7.89444377 C9.47271814,7.65211452 9.86410671,7.65211452 10.1068667,7.89444377 L15.1168881,12.8943392 C15.3584096,13.1366685 15.3584096,13.5273626 15.1168881,13.7696918 C14.9955081,13.8896201 14.836971,13.9502024 14.6784339,13.9502024" id="Fill-43" fill="#000230"></path>
                    <path d="M27.4384444,16.2418211 L20.3017959,16.2418211 C19.9587116,16.2418211 19.6825101,15.9648734 19.6825101,15.6236343 C19.6825101,15.2823951 19.9587116,15.0054474 20.3017959,15.0054474 L27.4384444,15.0054474 C27.7802901,15.0054474 28.0577301,15.2823951 28.0577301,15.6236343 C28.0577301,15.9648734 27.7802901,16.2418211 27.4384444,16.2418211" id="Fill-45" fill="#000230"></path>
                    <path d="M13.3696354,16.2755741 L6.19830686,16.2755741 C5.85646114,16.2755741 5.57902114,15.9986264 5.57902114,15.6573873 C5.57902114,15.3161481 5.85646114,15.0392004 6.19830686,15.0392004 L13.3696354,15.0392004 C13.7114811,15.0392004 13.9889211,15.3161481 13.9889211,15.6573873 C13.9889211,15.9986264 13.7114811,16.2755741 13.3696354,16.2755741" id="Fill-47" fill="#000230"></path>
                    <path d="M17.0206963,12.9661725 C15.5529891,12.9661725 14.3590063,14.1580368 14.3590063,15.6231397 C14.3590063,17.0882426 15.5529891,18.2801069 17.0206963,18.2801069 C18.4884034,18.2801069 19.6823863,17.0882426 19.6823863,15.6231397 C19.6823863,14.1580368 18.4884034,12.9661725 17.0206963,12.9661725 M17.0206963,19.5164806 C14.8705363,19.5164806 13.1204349,17.7707209 13.1204349,15.6231397 C13.1204349,13.4767949 14.8705363,11.7297988 17.0206963,11.7297988 C19.1720949,11.7297988 20.9209577,13.4767949 20.9209577,15.6231397 C20.9209577,17.7707209 19.1720949,19.5164806 17.0206963,19.5164806" id="Fill-49" fill="#000230"></path>
                    <path d="M6.19768757,34.9962509 C6.083739,34.9962509 5.96855186,34.9653415 5.86575043,34.8998137 C5.57716329,34.715594 5.49170186,34.3347909 5.676249,34.0454795 L9.93941186,27.3492793 C10.1227204,27.0624405 10.505439,26.9783671 10.7940261,27.1601141 C11.0826133,27.3443338 11.1680747,27.7251369 10.9847661,28.0144483 L6.72036471,34.7106486 C6.60270043,34.8948682 6.40329043,34.9962509 6.19768757,34.9962509" id="Fill-51" fill="#000230"></path>
                    <path d="M27.0912729,34.9962509 C26.8831929,34.9962509 26.6800671,34.8923955 26.5636414,34.7032303 L22.6262229,28.3235418 C22.44663,28.0317576 22.5370457,27.6509544 22.82811,27.4716803 C23.1179357,27.2936424 23.5006543,27.3826613 23.6802471,27.6732092 L27.6176657,34.0528977 C27.7972586,34.3446819 27.7068429,34.725485 27.4157786,34.9047592 C27.3142157,34.9665779 27.2015057,34.9962509 27.0912729,34.9962509" id="Fill-53" fill="#000230"></path>
                    <mask id="mask-2" fill="white">
                        <use xlink:href="#path-1"></use>
                    </mask>
                    <g id="Clip-56"></g>
                    <path d="M1.90616143,37.5269843 L32.2338214,37.5269843 L32.2338214,34.9961273 L1.90616143,34.9961273 L1.90616143,37.5269843 Z M32.8531071,38.7633581 L1.28687571,38.7633581 C0.94503,38.7633581 0.66759,38.4864103 0.66759,38.1451712 L0.66759,34.3779404 C0.66759,34.0367012 0.94503,33.7597535 1.28687571,33.7597535 L32.8531071,33.7597535 C33.1949529,33.7597535 33.4723929,34.0367012 33.4723929,34.3779404 L33.4723929,38.1451712 C33.4723929,38.4864103 33.1949529,38.7633581 32.8531071,38.7633581 L32.8531071,38.7633581 Z" id="Fill-55" fill="#000230" mask="url(#mask-2)"></path>
                </g>
            </g>
        </g>
    </g>
</svg>