<?xml version="1.0" encoding="UTF-8"?>
<svg width="42px" height="40px" viewBox="0 0 42 40" version="1.1" xmlns="http://www.w3.org/2000/svg" xmlns:xlink="http://www.w3.org/1999/xlink">
    <!-- Generator: Sketch 52.5 (67469) - http://www.bohemiancoding.com/sketch -->
    <title>ico</title>
    <desc>Created with Sketch.</desc>
    <g id="Page-1" stroke="none" stroke-width="1" fill="none" fill-rule="evenodd">
        <g id="Desktop2---1600" transform="translate(-324.000000, -352.000000)" fill-rule="nonzero">
            <g id="card" transform="translate(32.000000, 280.000000)">
                <g id="block" transform="translate(24.000000, 70.000000)">
                    <g transform="translate(268.000000, 0.000000)" id="ico">
                        <g transform="translate(0.000000, 2.000000)">
                            <path d="M25.1,32.74 L21,37.88 L3.74,16.33 C1.37538425,13.1504801 1.33716839,8.80712231 3.64547115,5.58648681 C5.95377391,2.36585131 10.0791531,1.00663686 13.8498033,2.22440172 C17.6204536,3.44216659 20.1715224,6.95759897 20.16,10.92 C20.16,11.3839192 20.5360808,11.76 21,11.76 C21.4639192,11.76 21.84,11.3839192 21.84,10.92 C21.8399999,7.66173777 23.5782621,4.65097929 26.3999999,3.02184816 C29.2217378,1.39271702 32.6982622,1.39271702 35.5200001,3.02184816 C38.3417379,4.65097929 40.0800001,7.66173777 40.08,10.92 C40.0736179,12.6410991 39.5738697,14.3242786 38.64,15.77 L37.33,17.42 L38.61,18.49 L40,16.78 L40.05,16.71 C42.1863805,13.400341 42.3414116,9.1872558 40.454054,5.72953324 C38.5666964,2.27181067 34.9392791,0.123330885 31,0.13 C26.6359892,0.115855206 22.6914943,2.72711086 21,6.75 C19.4116586,2.87348292 15.7230437,0.266721686 11.5386717,0.0636354234 C7.35429969,-0.139450839 3.43058086,2.09784984 1.47429976,5.80233056 C-0.481981341,9.50681128 -0.117187126,14.0088118 2.41,17.35 L20.35,39.75 C20.5108879,39.943441 20.7484178,40.0567245 21,40.06 C21.2525456,40.0609371 21.4917793,39.946841 21.65,39.75 L26.39,33.82 L25.1,32.74 Z" id="Path" fill="#2C8900"></path>
                            <path d="M22.57,28.67 L28.88,28.67 L28.88,35 C28.88,35.4142136 29.2157864,35.75 29.63,35.75 L34.14,35.75 C34.5542136,35.75 34.89,35.4142136 34.89,35 L34.89,28.67 L41.19,28.67 C41.6042136,28.67 41.94,28.3342136 41.94,27.92 L41.94,23.41 C41.9346142,22.9980379 41.6019621,22.6653858 41.19,22.66 L34.89,22.66 L34.89,16.35 C34.8845288,15.9396969 34.5503395,15.6099635 34.14,15.61 L29.63,15.61 C29.4337345,15.6073298 29.2444487,15.6827445 29.1037925,15.8196499 C28.9631363,15.9565552 28.8826343,16.1437341 28.88,16.34 L28.88,22.65 L22.57,22.65 C22.1596969,22.6554712 21.8299635,22.9896605 21.83,23.4 L21.83,27.87 C21.8191037,28.0689839 21.8878475,28.2641232 22.0210565,28.4123417 C22.1542654,28.5605601 22.3409859,28.6496697 22.54,28.66 L22.57,28.67 Z M23.32,24.15 L29.63,24.15 C30.0386907,24.15 30.37,23.8186907 30.37,23.41 L30.37,17.1 L33.37,17.1 L33.37,23.41 C33.37,23.8186907 33.7013093,24.15 34.11,24.15 L40.42,24.15 L40.42,27.15 L34.14,27.15 C33.7313093,27.15 33.4,27.4813093 33.4,27.89 L33.4,34.21 L30.4,34.21 L30.4,27.88 C30.4,27.4713093 30.0686907,27.14 29.66,27.14 L23.32,27.14 L23.32,24.15 Z" id="Shape" fill="#2C8900"></path>
                            <circle id="Oval" fill="#5EB130" cx="37.92" cy="18.01" r="1"></circle>
                            <circle id="Oval" fill="#5EB130" cx="25.68" cy="33.35" r="1"></circle>
                        </g>
                    </g>
                </g>
            </g>
        </g>
    </g>
</svg>