<?xml version="1.0" encoding="UTF-8"?>
<svg width="42px" height="41px" viewBox="0 0 42 41" version="1.1" xmlns="http://www.w3.org/2000/svg" xmlns:xlink="http://www.w3.org/1999/xlink">
    <!-- Generator: Sketch 52.5 (67469) - http://www.bohemiancoding.com/sketch -->
    <title>ico</title>
    <desc>Created with Sketch.</desc>
    <g id="Page-1" stroke="none" stroke-width="1" fill="none" fill-rule="evenodd">
        <g id="Desktop2---1600" transform="translate(-56.000000, -352.000000)" fill="#2C8900" fill-rule="nonzero">
            <g id="card" transform="translate(32.000000, 280.000000)">
                <g id="block" transform="translate(24.000000, 70.000000)">
                    <g id="ico">
                        <g transform="translate(0.000000, 2.000000)">
                            <path d="M9.78,26.79 L18.09,26.79 L18.09,35.1 C18.09,35.5142136 18.4257864,35.85 18.84,35.85 L23.35,35.85 C23.7619621,35.8446142 24.0946142,35.5119621 24.1,35.1 L24.1,26.79 L32.4,26.79 C32.8142136,26.79 33.15,26.4542136 33.15,26.04 L33.15,21.53 C33.15,21.1157864 32.8142136,20.78 32.4,20.78 L24.1,20.78 L24.1,12.47 C24.0945288,12.0596969 23.7603395,11.7299635 23.35,11.73 L18.84,11.73 C18.6420129,11.7273243 18.4512118,11.8041055 18.3102645,11.9431735 C18.1693172,12.0822415 18.0899819,12.2719948 18.09,12.47 L18.09,20.78 L9.78,20.78 C9.36969694,20.7854712 9.03996352,21.1196605 9.04,21.53 L9.04,26 C9.02908879,26.2040222 9.10188504,26.4036652 9.24156081,26.5527785 C9.38123657,26.7018918 9.57570075,26.7875674 9.78,26.79 Z M10.53,22.27 L18.84,22.27 C19.2486907,22.27 19.58,21.9386907 19.58,21.53 L19.58,13.22 L22.58,13.22 L22.58,21.53 C22.58,21.9386907 22.9113093,22.27 23.32,22.27 L31.63,22.27 L31.63,25.27 L23.35,25.27 C22.9413093,25.27 22.61,25.6013093 22.61,26.01 L22.61,34.33 L19.61,34.33 L19.61,26 C19.61,25.5913093 19.2786907,25.26 18.87,25.26 L10.53,25.26 L10.53,22.27 Z" id="Shape"></path>
                            <path d="M40.58,6.68 L33.58,6.68 C33.29,3 30.79,0.13 27.76,0.13 L14.43,0.13 C11.43,0.13 8.9,3.01 8.62,6.68 L1.62,6.68 C1.20803794,6.68538581 0.875385812,7.01803794 0.87,7.43 L0.87,39.32 C0.875471192,39.7303031 1.20966046,40.0600365 1.62,40.06 L40.62,40.06 C41.0303395,40.0600365 41.3645288,39.7303031 41.37,39.32 L41.37,7.43 C41.3674612,7.22486909 41.2821026,7.02947675 41.1333244,6.88823163 C40.9845462,6.74698651 40.7849861,6.6718864 40.58,6.68 Z M14.43,1.62 L27.76,1.62 C29.98,1.62 31.81,3.83 32.07,6.68 L10.07,6.68 C10.38,3.83 12.21,1.62 14.43,1.62 Z M39.84,38.62 L2.35,38.62 L2.35,8.17 L39.84,8.17 L39.84,38.62 Z" id="Shape"></path>
                        </g>
                    </g>
                </g>
            </g>
        </g>
    </g>
</svg>