<?xml version="1.0" encoding="UTF-8"?>
<svg width="20px" height="24px" viewBox="0 0 20 24" version="1.1" xmlns="http://www.w3.org/2000/svg" xmlns:xlink="http://www.w3.org/1999/xlink">
    <!-- Generator: sketchtool 57.1 (101010) - https://sketch.com -->
    <title>0892BAA5-B17B-45DC-A333-592E0B3CF313</title>
    <desc>Created with sketchtool.</desc>
    <g id="Widgets" stroke="none" stroke-width="1" fill="none" fill-rule="evenodd">
        <g id="ОИВ-с-гербом" transform="translate(-68.000000, -3270.000000)" fill="#6A6E72">
            <g id="icon/Phone" transform="translate(68.000000, 3270.000000)">
                <path d="M14.3320334,14.2373567 C14.2002449,14.1009748 14.0916886,14.0456989 13.9863644,14.0456989 C13.8764967,14.0456989 13.7578112,14.1039639 13.6244818,14.2366978 L12.5579027,15.2951655 C12.2069436,15.6434556 11.6697143,15.7217675 11.2339321,15.4881608 C10.891872,15.3047951 9.53570241,14.1908922 8.74953089,13.4281771 C7.77360684,12.481371 6.67165828,11.1685907 6.45783572,10.6974848 C6.25612766,10.2530702 6.36396944,9.72928921 6.72483145,9.40070276 C6.83703428,9.29853536 6.95445055,9.1864468 7.09279558,9.04961239 C7.18321612,8.96017916 7.26172521,8.88128219 7.47133627,8.66939006 C7.51112401,8.62954459 7.51112401,8.62954459 7.53539721,8.60514489 C7.56162425,8.57867729 7.56162425,8.57867729 7.60633111,8.5333779 C7.65026593,8.48885477 7.65026593,8.48885477 7.67743252,8.46142908 C7.706413,8.43228819 7.706413,8.43228819 7.75511879,8.38351068 C8.02221123,8.11760802 8.02221123,7.9186823 7.75511879,7.65277964 L6.83367607,6.73544154 C6.80115038,6.7030612 6.80115038,6.7030612 6.78125046,6.68321968 C6.76045732,6.66245476 6.76045732,6.66245476 6.72548039,6.62746901 C6.63351069,6.53525963 6.56219921,6.46212097 6.50681477,6.40310254 C6.24985493,6.13876017 6.08152097,5.97278526 5.88937151,5.79532213 C5.76985744,5.67756706 5.65801975,5.625 5.54823868,5.625 C5.43398066,5.625 5.31010041,5.68088814 5.1947573,5.79083422 L5.10680595,5.87916247 L4.62068608,6.36736393 C4.25674518,6.73286808 4.25674518,6.73286808 4.133703,6.85643364 C4.0918143,6.89849936 4.0918143,6.89849936 4.04003538,6.95049469 C3.79555432,7.1938867 3.66503825,7.47105746 3.6350741,7.80829037 C3.58626187,8.39952705 3.70243849,9.01694747 4.00020045,9.81642521 C4.50335959,11.1676664 5.25824011,12.4191957 6.38888623,13.7724314 C7.76564661,15.4090483 9.41760841,16.6976947 11.2970368,17.6021789 C12.3303296,18.0896885 13.0851522,18.3211664 13.8404976,18.3695416 C13.9262227,18.3736056 13.9670731,18.375 13.9998654,18.375 C14.4614154,18.375 14.8194047,18.229389 15.0805329,17.9495944 C15.2269309,17.7726172 15.3756168,17.6148825 15.5993873,17.3971786 C15.6532397,17.3450328 15.6532397,17.3450328 15.6860363,17.3133437 C15.7199193,17.2806764 15.7199193,17.2806764 15.7770371,17.2257331 C15.9388979,17.0720882 16.0647109,16.9479401 16.1809897,16.8268017 C16.3138781,16.68916 16.375,16.5608427 16.375,16.4455645 C16.375,16.3356564 16.3175679,16.2194914 16.1850458,16.0888352 L14.3320334,14.2373567 Z M17.0679605,15.2039877 C17.4309336,15.5617661 17.625,15.9929704 17.625,16.4455645 C17.625,16.8936871 17.4352441,17.327344 17.0805182,17.6947575 C16.9482407,17.8325708 16.8078617,17.9707181 16.6383055,18.1316627 C16.553532,18.2132489 16.553532,18.2132489 16.4708318,18.293328 C16.2869948,18.4721815 16.162282,18.6029925 16.039132,18.7515634 C15.5029163,19.3310468 14.8151459,19.625 13.9998654,19.625 C13.9404429,19.625 13.884733,19.6230425 13.7792591,19.6180255 C12.7842666,19.554491 11.8807328,19.2597067 10.7627999,18.7322597 C8.71633106,17.7474264 6.92307853,16.349225 5.43206271,14.5767865 C4.20858727,13.1124568 3.3824486,11.7395145 2.82878147,10.2526334 C2.488152,9.33805828 2.32000811,8.54488811 2.38937853,7.70467014 C2.4459283,7.06780051 2.7047817,6.51596637 3.15774003,6.06502746 C3.30202937,5.92011711 3.30202937,5.92011711 3.73490103,5.48538613 C4.16645839,5.0519785 4.16645839,5.0519785 4.31428842,4.90358536 C4.67427366,4.55953896 5.10304651,4.375 5.54823868,4.375 C5.99365987,4.375 6.41636148,4.55974965 6.76352799,4.90191279 C6.95608178,5.07886299 7.14253217,5.2637433 7.40449604,5.53325601 C7.46418735,5.59664312 7.52869869,5.66270864 7.61051334,5.74473651 C7.66313256,5.79736904 7.66313256,5.79736904 7.71558369,5.84958661 L8.63702702,6.76692532 C9.39490849,7.52143076 9.39490849,8.51485956 8.63702702,9.269365 C8.56679976,9.33969541 8.56679976,9.33969541 8.49604699,9.41139023 C8.42503925,9.4833446 8.42503925,9.4833446 8.35409854,9.5543894 C8.16596598,9.74462497 8.07299197,9.83826109 7.9718137,9.93833459 C7.85244409,10.0564008 7.74416149,10.1606826 7.63879768,10.2584213 C7.87361532,10.6400303 8.80369487,11.7391302 9.61992898,12.5310109 C10.3307498,13.2206235 11.418957,14.1071726 11.7484784,14.3373763 L12.743838,13.3495866 C13.1069873,12.9880549 13.5363578,12.7956989 13.9863644,12.7956989 C14.4388367,12.7956989 14.8655958,12.9906945 15.2163519,13.3539078 L17.0679605,15.2039877 Z" id="iconColor"></path>
            </g>
        </g>
    </g>
</svg>