<?xml version="1.0" encoding="UTF-8"?>
<svg width="20px" height="24px" viewBox="0 0 20 24" version="1.1" xmlns="http://www.w3.org/2000/svg" xmlns:xlink="http://www.w3.org/1999/xlink">
    <!-- Generator: sketchtool 57.1 (101010) - https://sketch.com -->
    <title>87DE95D4-9103-4036-A651-5F62E40568BC</title>
    <desc>Created with sketchtool.</desc>
    <g id="Widgets" stroke="none" stroke-width="1" fill="none" fill-rule="evenodd">
        <g id="ОИВ-с-гербом" transform="translate(-140.000000, -3270.000000)" fill="#6A6E72">
            <g id="icon/Link/Website" transform="translate(140.000000, 3270.000000)">
                <path d="M10,19.125 C6.06497116,19.125 2.875,15.9350288 2.875,12 C2.875,8.06497116 6.06497116,4.875 10,4.875 C13.9350288,4.875 17.125,8.06497116 17.125,12 C17.125,15.9350288 13.9350288,19.125 10,19.125 Z M6.87724563,13.375 C6.8343633,12.9236852 6.8125,12.4639348 6.8125,12 C6.8125,11.5360652 6.8343633,11.0763148 6.87724563,10.625 L4.28675496,10.625 C4.17966022,11.0716331 4.125,11.5321672 4.125,12 C4.125,12.4678328 4.17966022,12.9283669 4.28675496,13.375 L6.87724563,13.375 Z M8.05512562,17.5454629 C7.61766678,16.7674079 7.26871859,15.7570067 7.05390594,14.625 L4.74257542,14.625 C5.42473819,15.9887061 6.61666943,17.0408972 8.05512562,17.5454629 Z M15.875,12 C15.875,11.5321672 15.8203398,11.0716331 15.713245,10.625 L13.1227544,10.625 C13.1656367,11.0763148 13.1875,11.5360652 13.1875,12 C13.1875,12.4639348 13.1656367,12.9236852 13.1227544,13.375 L15.7132451,13.375 C15.8203398,12.9283669 15.875,12.4678328 15.875,12 Z M12.9460941,14.625 C12.7312814,15.7570067 12.3823332,16.7674079 11.9448744,17.5454629 C13.3833306,17.0408972 14.5752618,15.9887061 15.2574246,14.625 L12.9460941,14.625 Z M11.8635977,13.375 C11.9123514,12.9208164 11.9375,12.4605245 11.9375,12 C11.9375,11.5394755 11.9123514,11.0791836 11.8635977,10.625 L8.13640232,10.625 C8.08764857,11.0791836 8.0625,11.5394755 8.0625,12 C8.0625,12.4605245 8.08764857,12.9208164 8.13640232,13.375 L11.8635977,13.375 Z M10,17.875 C10.516123,17.875 11.2779713,16.4710095 11.6664848,14.625 L8.33351516,14.625 C8.72202874,16.4710095 9.48387702,17.875 10,17.875 Z M7.05390594,9.375 C7.26871859,8.24299331 7.61766678,7.23259207 8.05512562,6.45453706 C6.61666943,6.95910285 5.42473819,8.01129393 4.74257542,9.375 L7.05390594,9.375 Z M11.9448744,6.45453706 C12.3823332,7.23259207 12.7312814,8.24299331 12.9460941,9.375 L15.2574246,9.375 C14.5752618,8.01129393 13.3833306,6.95910285 11.9448744,6.45453706 Z M11.6664848,9.375 C11.2779713,7.52899047 10.516123,6.125 10,6.125 C9.48387702,6.125 8.72202874,7.52899047 8.33351516,9.375 L11.6664848,9.375 Z" id="iconColor"></path>
            </g>
        </g>
    </g>
</svg>