<?xml version="1.0" encoding="UTF-8"?>
<svg width="20px" height="24px" viewBox="0 0 20 24" version="1.1" xmlns="http://www.w3.org/2000/svg" xmlns:xlink="http://www.w3.org/1999/xlink">
    <!-- Generator: sketchtool 57.1 (101010) - https://sketch.com -->
    <title>65259FCD-3D88-4C57-B341-C429E04496F5</title>
    <desc>Created with sketchtool.</desc>
    <g id="Widgets" stroke="none" stroke-width="1" fill="none" fill-rule="evenodd">
        <g id="ОИВ-с-гербом" transform="translate(-32.000000, -3270.000000)" fill="#6A6E72">
            <g id="icon/Place" transform="translate(32.000000, 3270.000000)">
                <path d="M10,5 C13.8659932,5 17,8.13400675 17,12 C17,14.8960507 15.2413069,17.3813366 12.733666,18.4461123 C11.0569647,19.2571979 10.3153939,20.9870791 10.1116107,21.8600006 C10.0824414,21.9373903 10.0452378,22 10,22 C9.95476218,22 9.92160761,21.9373903 9.9005363,21.8600006 C9.6977423,20.9787811 9.1578656,19.3294692 7.34380979,18.4784591 C4.79499255,17.4323276 3,14.9257853 3,12 C3,8.13400675 6.13400675,5 10,5 Z M10,6.25 C6.82436269,6.25 4.25,8.82436269 4.25,12 C4.25,14.3540356 5.67746976,16.4433386 7.8746955,17.3467965 C8.82418328,17.7922203 9.53124492,18.3943113 10.0519392,19.1094831 C10.6087983,18.372224 11.3410431,17.7320522 12.2451178,17.2955383 C14.3526054,16.4006727 15.75,14.3291985 15.75,12 C15.75,8.82436269 13.1756373,6.25 10,6.25 Z M10,9 C11.6568542,9 13,10.3431458 13,12 C13,13.6568542 11.6568542,15 10,15 C8.34314575,15 7,13.6568542 7,12 C7,10.3431458 8.34314575,9 10,9 Z M10,10.25 C9.03350169,10.25 8.25,11.0335017 8.25,12 C8.25,12.9664983 9.03350169,13.75 10,13.75 C10.9664983,13.75 11.75,12.9664983 11.75,12 C11.75,11.0335017 10.9664983,10.25 10,10.25 Z" id="iconColor"></path>
            </g>
        </g>
    </g>
</svg>