<?xml version="1.0" encoding="UTF-8"?> <svg xmlns="http://www.w3.org/2000/svg" id="Слой_1" data-name="Слой 1" width="480" height="64.76" viewBox="0 0 480 64.76"> <defs> <style>.cls-1{fill:#ebe5df;}.cls-2,.cls-7{fill:#1e0f00;}.cls-2,.cls-3,.cls-4,.cls-5,.cls-6{fill-rule:evenodd;}.cls-3{fill:#9e2f34;}.cls-4{fill:#fff;}.cls-5{fill:#d7aa26;}.cls-6{fill:#009ad9;}</style> </defs> <title>1Монтажная область 22 копия 3</title> <rect class="cls-1" x="-46.05" y="-15.01" width="1674.42" height="110.51"></rect> <polygon class="cls-2" points="18.93 7 61.66 7 61.66 46.99 61.64 47.39 61.62 47.79 61.58 48.2 61.52 48.58 61.45 48.96 61.34 49.33 61.24 49.67 61.12 50.03 60.98 50.38 60.83 50.72 60.64 51.02 60.46 51.34 60.24 51.64 60.02 51.92 59.78 52.17 59.52 52.44 59.26 52.68 58.96 52.92 58.66 53.14 58.34 53.34 58 53.52 57.66 53.7 57.3 53.86 56.9 54 56.52 54.12 56.1 54.24 55.68 54.34 55.22 54.4 54.78 54.48 54.3 54.52 53.82 54.54 53.32 54.56 48.35 54.56 48.01 54.56 47.67 54.58 47.33 54.58 47.01 54.62 46.69 54.64 46.39 54.68 46.09 54.74 45.79 54.78 45.51 54.84 45.23 54.9 44.95 54.98 44.67 55.06 44.41 55.14 44.17 55.22 43.91 55.32 43.67 55.42 43.43 55.52 43.21 55.64 42.97 55.74 42.75 55.86 42.55 55.98 42.33 56.1 42.13 56.24 41.93 56.38 41.73 56.52 41.53 56.66 41.35 56.8 41.17 56.96 40.99 57.12 40.81 57.26 40.65 57.42 40.29 57.76 39.95 57.42 39.77 57.26 39.59 57.12 39.41 56.96 39.23 56.8 39.05 56.66 38.84 56.52 38.65 56.38 38.45 56.24 38.24 56.1 38.05 55.98 37.82 55.86 37.58 55.74 37.37 55.64 37.15 55.52 36.9 55.42 36.66 55.32 36.4 55.22 36.16 55.14 35.88 55.06 35.62 54.98 35.36 54.9 35.08 54.84 34.78 54.78 34.48 54.74 34.18 54.68 33.88 54.64 33.56 54.62 33.24 54.58 32.9 54.58 32.56 54.56 32.2 54.56 27.26 54.56 26.76 54.54 26.28 54.52 25.79 54.48 25.34 54.4 24.89 54.34 24.47 54.24 24.05 54.12 23.65 54 23.29 53.86 22.91 53.7 22.55 53.52 22.23 53.34 21.91 53.14 21.61 52.92 21.31 52.68 21.05 52.44 20.79 52.17 20.55 51.92 20.33 51.64 20.11 51.34 19.93 51.02 19.75 50.72 19.59 50.38 19.45 50.03 19.33 49.67 19.21 49.33 19.13 48.96 19.05 48.58 18.99 48.2 18.95 47.79 18.93 47.39 18.93 46.99 18.93 7"></polygon> <path class="cls-3" d="M19.18,7.25h42.2V47c0,4.29-2.74,7.31-8.06,7.31h-5a10.72,10.72,0,0,0-8.06,3.11,10.79,10.79,0,0,0-8.07-3.11h-5c-5.33,0-8.09-3-8.09-7.31Z"></path> <path class="cls-2" d="M27.9,9.86c-.26,0-.36.22-.32.52l1.78,2.52c.06.12.18.24.16.34-.14.35-.2.56.1.87l.6.58a1.69,1.69,0,0,0,.28.88c-.14.28,0,.54.28.8.06.08.08.18.18.25l.1.86A4,4,0,0,0,29.72,19c0,.18-.08.32,0,.42l1.18-.12c.1.06.22.08.25.16a.86.86,0,0,1-.49,1.11l-.21.05C29,21,28,21.5,28.39,22.48c.54.7.25,1.32-.66,1.88a.87.87,0,0,0-.28.8,2.86,2.86,0,0,0-.64.94c-.14.4-.14.59.14.55,2-.68,4-1,5.46.22.7.58.58.88,1.68.94-.12.46,0,.72.4.8l.07.53c-.44.1-.94.1-1.38.22a7,7,0,0,1-1.42.32,11.8,11.8,0,0,0-1.18-.7c-1.85-1.14-3.39-1.2-4.73.36A9.83,9.83,0,0,0,24,33c-.1.3-.34.42-.82.14-1-.78-1.14-1.48-.66-1.94.68-.64.94-.25.58.08l0,.08c.52,0,.72.36.92.74a2.15,2.15,0,0,0-.42-2.54l-.14,0,.06,1a1.42,1.42,0,0,0-1.72,1.36c-.08.77.28,1.4,1.24,2,.54.18.7.8.28,1.42-1,1.52-.88,3.15.06,5.23l.12-.06c.2-2.29.68-3.45,1.44-3.67a1.32,1.32,0,0,0,.66-.5c.22-.34.34-.3.5.06a2.81,2.81,0,0,1-.19,2.8c-1.33,2.14-1.39,3.79.5,5.09l.06.16L26,45c-.17.25,0,.58.4.94A3.55,3.55,0,0,1,27,47.73a1,1,0,0,0-.08.88,2.05,2.05,0,0,0,1.92.52c.1,0,.08-.1.08-.2.08-.44-.22-.76-.54-1.3a2.07,2.07,0,0,1-.84-2.42l.14-.22a14.63,14.63,0,0,0,2.54.68,2.5,2.5,0,0,0,0,2.2,2.33,2.33,0,0,0,2.46,1.42c1.62-.14,2.42-1.48,1.82-3.3.58-.32,1-.3,1.16.06,0,.82.34.56.36,1.36-1,.84-1.32,1.56-.28,2,.54.54.24.74-.46.78-.74-.18-1.28-.14-1.38.46-.68,0-.88.44-.86,1.08.2-.48.58-.52.78-.4a3.1,3.1,0,0,0,1.06-.06,1.18,1.18,0,0,1,1,0,.46.46,0,0,1,.44.25c.48.5.42-.06,1.49.58.25,0,.69,0,.77.42l.11-.38a.35.35,0,0,0-.13-.44c-.34-.4.2-.42,1.15-.25a2.5,2.5,0,0,0,1.32.25c.42-.42.52-.16.6.4.3-.82.1-1.26-.72-1.3.14-.44.2.22.5-.32.25-.12.52,0,.78.25.06-.4-.18-.64-.7-.75-.12-.34-.38-.36-.74,0-1.51-.4-1.68-1.32-.82-1.52.46-.11.64.37,1,.51a3.08,3.08,0,0,0,.8.1,2,2,0,0,1,1.06.28l.3.1c.16-.12.32-.1.52.08s.44.36.64.1c.6-.48,1.51-.48,1.44-.18s.06.6.22.56.2.2.2.52c-.58,0-1,.08-1,.5-.54.16-.52.54-.28,1-.06-1,.76-.18,1.56-.7l.56-.06c.06.28.32.4.82.38a3.52,3.52,0,0,1,.64-.09,2,2,0,0,1,2.35.6.72.72,0,0,0-.06-.75c.67-.46,1.41-.28,1,.46.4-.2.8-1.22.28-1.2.22-.6,1.12-.1.86.34.38-.2.44-.51,0-.88q-.09-.51-.84-.3c-.28-.48-.64-.51-1.13-.08-.47.22-.86.25-1.09-.08s-.21-.62.15-.48c.19.06.26-.16.49-.58.07-.19.25-.32.35-.56.53-.08.95-.55,1.49-1.47.38-.17.56-.92.58-2.08.16.08.36,0,.62-.14-.18,0-.25-.08-.25-.54h.5c.2-.08.28-.16.25-.25s-.2-.06-.34-.28a1.58,1.58,0,0,0-.52-.84l-.48-.78c-.34-1.08-.74-1.7-1.24-1.3l-.14-.08a4.69,4.69,0,0,1-.88-1.61c0-.75-.78-.8-1.2-.07L49,38.06l-.2.32-1.26-1.82c.14,0,.38-.16.52-.18a11.3,11.3,0,0,0,4.66-1.46l1.12-.34a.68.68,0,0,1,.92.22L55.91,36a.55.55,0,0,1,.1.7c-.12.25.17.56.56.9a1.38,1.38,0,0,1,.08,1.63c-.17.44-.14.72.12.86l.78.56c.52.42.79.28.76-.46a2.62,2.62,0,0,0-.38-1.12,3,3,0,0,1-.46-1.36c0-.93-.14-1.41-.52-1.73a6.16,6.16,0,0,1-1.12-1.42c-.1-.3-.18-.48-.34-.56,0-1-.74-1.44-1.18-1.18a3.13,3.13,0,0,1-1.14.06v-.22a12.56,12.56,0,0,0,2.22-2.12c.32-.4.48-.25.8.08l1.24,1.3c0,.64.06,1.06.51,1,.3.52.44,1,.16,1.24s-.51.4-.51.74c.06.5.64,1,1.28,1.26a.21.21,0,0,0,.21-.1,2.1,2.1,0,0,0,0-1.48l-.22-.74a3.86,3.86,0,0,1,0-.76,1.14,1.14,0,0,0-.54-1.34,15.29,15.29,0,0,1-2-2.48c0-1.14-1-1.44-1.58-.2l-1.2.84c-.3.2-.5-.12-.5-.44-.13-1.52-1.15-2.7-2.27-3.87-.6-1.82-1.42-3.34-1.72-4.74a4.43,4.43,0,0,1,2.34.68c.5.54,1.14.82,1.3.44.06-.12-.3-.34-.48-.52a1.29,1.29,0,0,1,.74.46c.5,0,.66-.38.52-.9.06-.42,0-.74-.14-.88L53,19.89a13.05,13.05,0,0,1-1.76-2.36.46.46,0,0,1-.08-.25,1.2,1.2,0,0,0-.44-1l.15-.08,0-.12.36.08-.36-.6c-.2-.74-.88-.87-1.9-.57-.14.05-.32-.11-.5-.31-.64-.62-1.32-1-1.08-.51,0,.08.25.3,0,.28l-1.1-.18c-.24,0-.28,0-.22.16a2.24,2.24,0,0,1,.48.66l-1.4.08a5.26,5.26,0,0,1-.78.12c-.76-.64-1.71-.16-2.69.58l-.14-.06,0-1.14h.14l-.1-.74h.08A3.11,3.11,0,0,0,41,11.64c-.08-.34.25-.3.34-.4a1.66,1.66,0,0,0,.3-1.1c-.06-.48-.22-.64-.46-.48h-.29a1.07,1.07,0,0,1-.66-.28.77.77,0,0,0-.92,0c-1.44.36-1.7,1.49-3.46.72-.2,0-.26.06-.16.22a2.91,2.91,0,0,0,1.18.87,1.81,1.81,0,0,1-1,.09,2.05,2.05,0,0,0,1.78.58,1.28,1.28,0,0,0,1.18-.06c.25-.14.25-.06.1.25a3.27,3.27,0,0,0-.84,2.47,2.33,2.33,0,0,0-.34.92c-.66-.18-1.24-.3-1.48-.1l-.25,0a1.32,1.32,0,0,0-1.61-.12l-1,.78c-.38.25-.7.28-.75,0L32.24,15c0-.65-.22-.94-.66-1a1.06,1.06,0,0,1-.38-.63L30.9,13c.1-.33,0-.46-.28-.46a1.17,1.17,0,0,1-.64-.13ZM26.47,34.7h0c.83-3.1,2.19-4.76,4.43-4.14-.88,1-1.5,2.72-1.36,5.72.08,1.41.32,2.27-.51,3.13s-1.34.68-1.46,1.58a6.08,6.08,0,0,1-.38,1.51c-.58-.32-.64-1-.2-2.06a4.65,4.65,0,0,0-.52-5.73Zm5.85,11.89c.32.14.32.44-.08.62C31.94,47.09,32,46.83,32.32,46.59Zm5.12,2.1h0a.58.58,0,0,0,.18.4.35.35,0,0,1,.13.48l-.06.08-.45-.38C37.13,49,37.22,48.86,37.44,48.69Zm10.48.88h0c.12.34.68.57.28.64,0,.1-.16.08-.38-.05S47.58,49.76,47.92,49.57ZM36.58,43.11c-.72-.74-.81-1.4,0-2a10.8,10.8,0,0,0,2-2.18,15.16,15.16,0,0,0,1.62-.26A16.82,16.82,0,0,0,46.26,37a.54.54,0,0,1,.7.2L48.29,39l-.39.14,1,.76c-.18.14,0,.24.16.32-.12.18,0,.36.14.34.08.25.26.6-.25.1-.32-.16-.36,0-.1.51l.54.78a1.43,1.43,0,0,0,.46.92l.44.9a1.42,1.42,0,0,0,.12.4c.06.34.14.52.42.56A3,3,0,0,1,49.6,46c-1.18.64-2.12.38-2-1.18.07-.84.22-1.54.26-2.4.34-1.34,0-2-1.15-2.1a2.68,2.68,0,0,0-1.4.25c-.34.23-.78.14-1.4-.22A5.6,5.6,0,0,0,41.19,39a1.48,1.48,0,0,1,.28,2c.48.22.46.44,0,.66a13,13,0,0,1-3.87-.56c-.43-.08-.52,0-.21.24,1,.4,1.54,1,1.54,1.84a10.57,10.57,0,0,0-1.49.12.6.6,0,0,1-.86-.18Zm-8.19,0a2.55,2.55,0,0,1,2.28-2,17.49,17.49,0,0,0,3.9-1.51c.6-.44.69-.25.26.62l-.68.78a.74.74,0,0,0,.06,1.22c.68.34,1,.66.86.95a2,2,0,0,0-2,.42,2.27,2.27,0,0,0-1.63.28,1.53,1.53,0,0,0-1.24-.08c-.12-.3-.46-.38-1-.28a1.42,1.42,0,0,0-.75-.38Z"></path> <path class="cls-4" d="M56.92,36.44s.14,0,.2.14.1.26.06.26a.26.26,0,0,1-.2-.17c-.06-.12-.1-.22-.06-.23Zm.28,1.62c.06,0,.12.18.12.38s-.06.38-.12.38-.12-.17-.12-.38S57.12,38.06,57.2,38.06Zm-.42,1.45.2-.42c.1-.14.18-.14.24,0l.48.45c-.1.1-.32.1-.48.14l.16.25-.16.08-.06.22c-.3-.24-.48-.46-.38-.7Z"></path> <path class="cls-4" d="M58.36,34.2l.1-.46c0-.12.06-.1.12,0a1.33,1.33,0,0,1,.34.76c0,.13,0,.22-.08.23a.35.35,0,0,1-.32-.14.42.42,0,0,1-.16-.38Zm-.16-1.58c-.2-.24-.16-.38.1-.36-.25-.38,0-.46.25-.06a1.58,1.58,0,0,1,.1,1c0,.12-.16.16-.2,0a1.89,1.89,0,0,0-.25-.54Zm0,1.86c-.06-.06-.12,0-.18,0-.22.25-.25.46-.14.64l.44.34c.14.12.3.06.22-.06l-.16-.22c.1,0,.18.14.28.14s.1-.12,0-.2-.2-.22-.1-.32,0-.08,0-.12Z"></path> <path class="cls-4" d="M53.84,31.34a3.82,3.82,0,0,1,.25-1.16c.06-.18.14-.2.24-.1.36-.58.28-.26.12.18l.1.06c.44-.82.25-.16.22.2-.32.4-.54.48-.64.2l-.1.52c-.08.24-.14.28-.18.1Zm-2.33-.62c-.07-.38.05-.44.19-.08a4.94,4.94,0,0,1,.32,2c0,.3-.24.32-.26,0a15.83,15.83,0,0,0-.25-1.94Zm-.25-1.32c.14,0,.32.14.36.36a.43.43,0,0,1-.17.48c-.13,0-.32-.12-.38-.36a.37.37,0,0,1,.2-.48Zm-.54,1s.12,0,.18.14.06.22,0,.25-.12,0-.18-.16-.06-.2,0-.22Zm1.84.16s.12.06.19.16,0,.2,0,.22-.13,0-.17-.14S52.52,30.56,52.56,30.54Zm2.91-1.4a.35.35,0,0,1,0-.5.32.32,0,0,1,.44-.07c.12.07.16.15.16.21l-.25.07.3.09c.16.14,0,.4-.12.18a.3.3,0,0,0-.4-.06c0,.18,0,.22-.15.08ZM53.35,31.6l.11-.78-.14.28c-.12,0-.14-.12-.16-.36s0-.38.16-.32l.11.25.07-.18c.14-.08.17,0,.1.25l0,.86c-.08.12-.13.34-.21,0Zm-2.89-2.14.08-.06a0,0,0,0,1,.07,0s0,0,0,0l.3.38a.06.06,0,0,1,0,.08l-.08.06a0,0,0,0,1-.07,0s0,0,0,0l-.32-.38a0,0,0,0,1,0-.07Zm2,3s0,0,0,.08,0,.08,0,.08a.08.08,0,0,1-.07-.08A.07.07,0,0,1,52.45,32.42Zm-1.17-3.34c0-.84.12-1.51.12-2.14,0-.26.18-.26.18,0a11.64,11.64,0,0,1-.12,2C51.46,29.12,51.28,29.3,51.28,29.08Z"></path> <path class="cls-4" d="M26.62,45.27c-.15.54-.75.25-.45-.22a8.78,8.78,0,0,0,1.61-4c0-.58.4-.84.86-1.1a2.58,2.58,0,0,0,1.3-2.51c-.22-4.52,1-6.5,3-7.28l-.06.18c-1.74,1.06-2.46,3.1-2.48,5.88a12.56,12.56,0,0,0,0,1.94l.06-.13a30.69,30.69,0,0,1,.25-4,5.16,5.16,0,0,1,.9-2.16,4.14,4.14,0,0,1,.34-.48c.16-.16.34-.2.48-.34l0,.14a5.39,5.39,0,0,0-1.48,2.6A15.61,15.61,0,0,0,30.72,38a1.59,1.59,0,0,1-.14.56l.08,0a1.85,1.85,0,0,0,.18-.86,10,10,0,0,1,.66-5,3.85,3.85,0,0,1,2-2l0,.14c-1.09.74-2.1,1.6-2.31,4.54l.06-.06c.21-2.22,1-3.87,2.49-4.47a4.78,4.78,0,0,1,1.82-.18l-.12.11a3.15,3.15,0,0,0-2.72,1.07l.11,0A2.7,2.7,0,0,1,35.5,31l-.08.16a2.55,2.55,0,0,0-2,.62v.08a2.53,2.53,0,0,1,1.9-.56c.2,0,.26.18.2.42l-.12,1.1a12.35,12.35,0,0,1-.34,3l-.1.08.1-1.84-.42,2.27c0,.25-.22.22-.18,0,.1-.48.25-1.14.36-1.84a.24.24,0,0,0-.2.22,5.46,5.46,0,0,1-.5,2.06,9.68,9.68,0,0,0,.25-1.86l-.12.1L34,36.71c.22.12-.06.3-.14.08l.1-1-.08,0-.42,1.54.14-1.06-.36,1.06h-.14l.18-.9-.6,1.64c-.18,0-.21,0-.06-.3L33,36.67l-.13,0c-.25.82-.42,1.4-.72,1.58l-.09,0a3.22,3.22,0,0,0,.5-1.46,3.81,3.81,0,0,1-.84,1.62c-.06-.06,0-.25.25-.68l.22-.58c-.1-.12-.16-.08-.22.1a2.94,2.94,0,0,1-.54,1.16l.26-1-.05-.12a2.92,2.92,0,0,1-.75,1.38l.16.08c.54-.36,1.28-.24,2-.58.16-.08.32-.12.42,0l-.14.38-.14-.22a1.31,1.31,0,0,1-.36.7l-.06-.44c-.32.7-.54,1.08-.56.74l.06-.42a1.61,1.61,0,0,0-.46.87c-.12,0-.14-.26-.1-.61l-.2.74c-.18,0-.22-.16-.12-.6a3,3,0,0,1-.35.74.78.78,0,0,1,0-.58l-.2.38c0,.28-.08.38-.2.36.06-.42.06-.58,0-.49l-.25.65c-.14.08-.18-.08-.16-.44-.22.12-.16.56-.32.74-.13-.08-.14-.28-.13-.51-.09.34-.2.55-.33.57l0-.67a2.42,2.42,0,0,1-.26.74l-.18-.48-.08.47c-.14.07-.25,0-.34-.35,0,.63-.08,1.15-.48,1.41a2.61,2.61,0,0,1-.38,1.06l.64-.94c.14,0,.2,0,.14.34l-.66,1.08c-.1.12-.22.08-.35,0a3.87,3.87,0,0,1-.61,1.28,2.33,2.33,0,0,0,.68-1.08c0-.16.22,0,.16.36l-.16.14,0,.24-.2,0v.32l-.19.08c.19.44,0,.72-.47.51Z"></path> <polygon class="cls-4" points="30.38 30.2 31.16 30.06 31.12 30.22 30.38 30.2"></polygon> <path class="cls-4" d="M23.09,36.3a5.12,5.12,0,0,1,.62-1.06c.16-.25.22-.08.2.16A3.07,3.07,0,0,1,23.09,36.3Z"></path> <path class="cls-4" d="M31.28,29.84C30,28.7,28.74,28.1,27.8,28.3c-1.78.4-2.64,2-3.16,3.6.3-.52.56-.86.88-1a8.88,8.88,0,0,0-1.46,4.46,1.17,1.17,0,0,1-.32.52,1.52,1.52,0,0,0-.63,1.1,3.45,3.45,0,0,0,.45-.56,2.74,2.74,0,0,0,.64-1.14c.18-.7.25-1.4.4-1.92a6.89,6.89,0,0,1,.75-1.74,5.82,5.82,0,0,1,2.4-2.42v.08a6.38,6.38,0,0,0-2.32,2.44,6.14,6.14,0,0,0-.46,1,4.39,4.39,0,0,0-.36,1.32,4.68,4.68,0,0,1-.68,2.2,5.16,5.16,0,0,0-.58.8,1,1,0,0,0-.1.48c.7-1.32,1-1.2,1.32-2.14.42-1.44.14-2.92,2.06-5h.14a7.13,7.13,0,0,0-1.86,4.19,3.86,3.86,0,0,1-.28,1.16c-.23.47-.74.82-.88,1.28l.1,0a4.92,4.92,0,0,0,.9-1.18c.59-1.12.39-2.62,1.12-3.82,1-1.57,1.71-2.4,2.89-2.86l.14,0a6.07,6.07,0,0,0-2.6,2.44,3.8,3.8,0,0,0-.62,1.24,12.87,12.87,0,0,0-.41,1.94,3.28,3.28,0,0,1-.74,1.68c-.18.22-.32.32-.46.52a3.54,3.54,0,0,0-.3.76l.1,0c.44-1.18.7-.92,1-1.32a2.91,2.91,0,0,0,.54-1.28,7.53,7.53,0,0,1,.76-2.8A7.9,7.9,0,0,1,28,29.89a2.76,2.76,0,0,1,1.06-.58h.1a8.36,8.36,0,0,0-1.32.86,7.25,7.25,0,0,0-1.66,2.43,8.7,8.7,0,0,0-.62,2.52c0-.12.08.06.12,0a8.25,8.25,0,0,1,2-4.49,3.85,3.85,0,0,1,1.72-1.08l.38,0a3.86,3.86,0,0,0-2.36,1.64l.12,0a4.54,4.54,0,0,1,2.32-1.4l.12,0a4,4,0,0,0-1.3.66l0,.13a5.59,5.59,0,0,1,2.5-.69Z"></path> <path class="cls-4" d="M23.27,38.59a1,1,0,0,1-.14-.51c0-.24.2-.22.24-.06s-.1.32-.1.56Z"></path> <path class="cls-4" d="M25.59,40.73l.2-.22a.32.32,0,0,1,.3,0c0,.1-.25.2-.5.25Z"></path> <path class="cls-4" d="M25.41,41.35l.26-.28a.38.38,0,0,1,.41-.06c0,.12-.31.25-.68.34Z"></path> <path class="cls-4" d="M25.43,41.67l.31-.25a.42.42,0,0,1,.43,0c0,.1-.38.23-.74.29Z"></path> <path class="cls-4" d="M25.51,42l.28-.25a.44.44,0,0,1,.43,0,1.06,1.06,0,0,1-.71.25Z"></path> <path class="cls-4" d="M25.66,42.25l.17-.2a.32.32,0,0,1,.3,0C26.11,42.09,25.89,42.19,25.66,42.25Z"></path> <path class="cls-4" d="M26.68,39.05l.16-.1a.2.2,0,0,1,.22,0C27,39,26.86,39.05,26.68,39.05Z"></path> <path class="cls-4" d="M26.41,39.39l.35-.16a.42.42,0,0,1,.4.1C27.08,39.43,26.78,39.44,26.41,39.39Z"></path> <path class="cls-4" d="M26.62,38.56l.25-.19a.38.38,0,0,1,.36,0c-.06.1-.32.15-.62.19Z"></path> <path class="cls-4" d="M26.82,38.08l.25,0a.32.32,0,0,1,.28.13c-.06.06-.3,0-.54-.08Z"></path> <path class="cls-4" d="M26.26,43.47l.17-.1a.36.36,0,0,1,.23,0c0,.06-.21.1-.4.08Z"></path> <path class="cls-4" d="M26.82,42.85l-.44.06a.56.56,0,0,0-.34.39c.13,0,.45-.16.78-.44Z"></path> <path class="cls-4" d="M26.62,42.65h-.34a.37.37,0,0,0-.3.25C26.08,42.94,26.36,42.82,26.62,42.65Z"></path> <path class="cls-4" d="M28.18,44.29l.2-.42a.54.54,0,0,1,.44-.22C28.82,43.79,28.54,44.07,28.18,44.29Z"></path> <path class="cls-4" d="M29.08,43.87l.36-.14a.54.54,0,0,1,.42.16h0c0,.12-.25.34-.56.5l.18-.33a.86.86,0,0,1,.14-.13h-.12a2.3,2.3,0,0,1-.42.35L29.2,44a.27.27,0,0,1,.08-.07,1,1,0,0,0-.2-.05Z"></path> <path class="cls-4" d="M30.82,43.93c.12-.06.54,0,.48.18h0c0,.12-.28.34-.56.54l.16-.36a.34.34,0,0,1,.12-.12h-.14a1.85,1.85,0,0,1-.4.34l.12-.3.08-.06-.1,0a1.42,1.42,0,0,1-.3.25l.08-.2c.14-.18.24-.16.46-.24Z"></path> <path class="cls-4" d="M33.4,43.87c0-.34.25-.54.76-.6s1.28,0,1.08.3h-.06l-.1.25-.22.4.14-.44.06-.23-.25-.07-.18.17-.3.34.24-.4.1-.15-.12,0-.18.17-.31.34.25-.38.1-.16h-.16l-.12.18-.28.36.2-.41.06-.1a1.16,1.16,0,0,0-.22.06l-.15.33.06-.33a.65.65,0,0,0-.4.38Z"></path> <path class="cls-4" d="M31.52,44.15v0h0l.5-.32c.34-.16.76-.22.7.06,0,0,0,.06-.12.08s0,.22,0,.34l-.14-.3h-.08a3.85,3.85,0,0,0,0,.48l-.2-.44-.1,0c0,.22,0,.46,0,.7l-.28-.58v0c0,.12-.06.25-.1.38l-.06-.4c-.06.16-.14.36-.2.56l0-.42v-.08Z"></path> <path class="cls-4" d="M25.79,30.62l.87-.86A1.74,1.74,0,0,0,25.79,30.62Z"></path> <path class="cls-4" d="M30.53,46.27a.89.89,0,0,1,0-.84c.16-.42.36-.54.48-.52s0,.48,0,.88l-.32-.28.1.54-.24-.25Z"></path> <path class="cls-4" d="M33.36,46.79a.2.2,0,0,0-.12-.12s0,.1,0,.18a.24.24,0,0,0,.14.12S33.42,46.87,33.36,46.79Z"></path> <path class="cls-4" d="M33.36,47.15c-.08-.12-.16-.18-.2-.16s0,.12.08.25.16.19.2.17,0-.13-.08-.24Z"></path> <path class="cls-4" d="M33.18,47.49c-.06-.1-.12-.16-.14-.16s0,.12,0,.22.12.16.14.14,0-.1,0-.2Z"></path> <path class="cls-4" d="M33,47.84c0-.16-.14-.28-.18-.25s0,.16,0,.32.12.25.16.25.06-.16,0-.32Z"></path> <path class="cls-4" d="M30.66,47.69c.12,0,.2.06.2.1a.28.28,0,0,1-.22,0c-.1,0-.2-.06-.18-.08a.25.25,0,0,1,.2,0Z"></path> <path class="cls-4" d="M30.56,47.43c.14,0,.24.08.24.12s-.12.06-.25,0-.24-.08-.24-.12.12-.06.25,0Z"></path> <path class="cls-4" d="M30.5,47.11c.16,0,.28.1.28.14s-.16.08-.32,0-.3-.08-.28-.14S30.32,47.09,30.5,47.11Z"></path> <path class="cls-4" d="M35.7,43.71c-.12-.4.32-.54.79-.34a2.37,2.37,0,0,0,1.37.08,2.37,2.37,0,0,1,.88,0c.31.16.29.3-.05.36a3.46,3.46,0,0,0-1.21,1.82c-.22-.3.26-1.06,1-2a6.49,6.49,0,0,0-1.23,1.28,4.22,4.22,0,0,1,.7-1.24,3.23,3.23,0,0,0-1.24,3,3.06,3.06,0,0,1,.52-2.77l-.86.89.79-1.19-.49.16,0-.19-.3.15v-.21l-.4.32.08-.33c-.14-.08-.25,0-.36.2Z"></path> <path class="cls-4" d="M36.07,46a1,1,0,0,0,.18.8c.06.06.14,0,.1-.16A1.24,1.24,0,0,1,36.07,46Z"></path> <path class="cls-4" d="M37.06,46.09s.09.1.09.25,0,.26-.09.26-.08-.12-.08-.26S37,46.09,37.06,46.09Z"></path> <path class="cls-4" d="M38,45.07a.34.34,0,0,1,0,.22c-.07.11-.13.2-.17.18s0-.13,0-.22.12-.2.17-.18Z"></path> <path class="cls-4" d="M38.2,44.59s0,.12-.05.2S38,45,38,44.93s0-.12.06-.2A.29.29,0,0,1,38.2,44.59Z"></path> <path class="cls-4" d="M45.71,45.37c.34.12.38.6.2,1.18A2.52,2.52,0,0,0,45.71,45.37Z"></path> <path class="cls-4" d="M44,47.84a.79.79,0,0,0-.12-.3l.06.36Z"></path> <path class="cls-4" d="M40.05,41.79a.47.47,0,0,1,.16,0l.16.25a.53.53,0,0,1-.18,0Z"></path> <path class="cls-4" d="M39.73,43.53a.48.48,0,0,1,.12.22c0,.1,0,.16,0,.14a.28.28,0,0,1-.12-.2c0-.1,0-.16,0-.16Z"></path> <path class="cls-4" d="M40,43.51s.08.06.1.16.06.18,0,.2-.08-.06-.12-.16S40,43.51,40,43.51Z"></path> <path class="cls-4" d="M40.39,43.45s.12.12.14.25,0,.18-.06.18-.06,0-.08-.18S40.37,43.45,40.39,43.45Z"></path> <path class="cls-4" d="M40.73,43.33a.6.6,0,0,1,.16.25c0,.14.06.28,0,.28s-.1-.08-.16-.24-.06-.28,0-.3Z"></path> <path class="cls-4" d="M41.09,43.33c.06,0,.12.12.16.28s0,.32,0,.34-.12-.14-.14-.3,0-.32,0-.32Z"></path> <path class="cls-4" d="M41.49,43.39s.16.18.18.34.06.25-.06.25-.1-.06-.14-.24,0-.36,0-.36Z"></path> <path class="cls-4" d="M41.75,43.3c.06,0,.12.12.18.3s0,.34,0,.34-.12-.12-.16-.3-.06-.34,0-.34Z"></path> <path class="cls-4" d="M42.17,43.21s.1.18.1.4,0,.4-.1.4-.1-.18-.1-.4S42.11,43.21,42.17,43.21Z"></path> <path class="cls-4" d="M42.51,43.33s.08.16.08.34,0,.34-.08.34-.08-.14-.08-.34S42.45,43.33,42.51,43.33Z"></path> <path class="cls-4" d="M42.85,43.23s.08.18.08.4,0,.4-.08.4-.08-.18-.08-.4S42.81,43.23,42.85,43.23Z"></path> <path class="cls-4" d="M43.21,43.13c.06,0,.08.2.06.46s-.08.42-.14.42-.06-.2,0-.44S43.15,43.13,43.21,43.13Z"></path> <path class="cls-4" d="M43.69,43.11c.06,0,.06.2,0,.44s-.1.42-.16.42-.06-.2,0-.44S43.65,43.11,43.69,43.11Z"></path> <path class="cls-4" d="M44.07,42.89c.06,0,.16.3.12.58s-.14.54-.2.52,0-.25,0-.54S44,42.87,44.07,42.89Z"></path> <path class="cls-4" d="M42,45.15s.06.06.1.14a.65.65,0,0,1,0,.2s-.08-.06-.1-.14S42,45.15,42,45.15Z"></path> <path class="cls-4" d="M42.31,45.05s.1.1.14.22,0,.18,0,.2-.06,0-.1-.16a.43.43,0,0,1,0-.25Z"></path> <path class="cls-4" d="M45,44.21v.14h0l.18-.12a5.35,5.35,0,0,0,0-1A8.19,8.19,0,0,1,45,44.21Z"></path> <path class="cls-4" d="M44.81,44.65c-.1.52-.12.68-.32.86a1.84,1.84,0,0,0,0-.62l-.14,0V45a1,1,0,0,1-.22.78c0-.28.1-.54.1-.82l-.16.06v.28a2.32,2.32,0,0,1-.16.44,1.83,1.83,0,0,0,0-.7l-.14,0v.08c0,.06,0,.12-.06.12s0,0,0-.1,0-.06,0-.08l-.1,0v0q0,.09,0,.12s-.06-.06-.1-.12l-.1,0c0,.1,0,.14-.06.18s-.1-.06-.12-.16l-.18,0c0,.08,0,.14,0,.14s-.06,0-.1-.12h-.16c0,.08,0,.12,0,.14s-.06,0-.1-.12l0,0s0,0,0,0,0-.06,0-.1a.37.37,0,0,1-.06-.25s.1.06.16.2a.57.57,0,0,1,0,.14.33.33,0,0,1,.14,0s0-.06,0-.08,0-.3,0-.32.1.1.14.25,0,.06,0,.1l.16-.06a.68.68,0,0,1,0-.2c0-.08,0-.12,0-.12a.51.51,0,0,1,.16.28l.1,0s0,0,0,0a.73.73,0,0,1,0-.25c0-.06,0-.08,0-.1s.12.14.16.27a.08.08,0,0,0,0,.07l.1,0v-.31c0-.08,0-.12,0-.12s0,0,.06.1,0,.18.06.28h0a.28.28,0,0,0,.12,0v-.16c0-.06,0-.1,0-.1s.06.1.08.2l.16-.06v-.22c0-.06,0-.12,0-.12s0,0,0,.08a.45.45,0,0,1,0,.2s.08,0,.12-.06h0c0-.12,0-.25,0-.32s0-.14.06-.14,0,0,0,.1a1,1,0,0,1,0,.3h0a.28.28,0,0,1,.12,0,9,9,0,0,0,.32-2L45,42.27a4.43,4.43,0,0,1-.34,1.82,5,5,0,0,0,0-2h-.06a4.66,4.66,0,0,1-.2,2,4.71,4.71,0,0,0-.2-2.14.28.28,0,0,0-.12,0,1.11,1.11,0,0,1,.06.9c-.12-.38,0-.5-.36-.76h-.1a.9.9,0,0,1,.16.74,2.72,2.72,0,0,0-.42-.64h-.18c.25.3.25.36.22.6-.1-.25-.5-.44-.66-.56l-.18,0c.2.1.48.46.38.58-.14-.16-.44-.32-.56-.54-.08,0,0,0-.12,0s0,.2,0,.34a.75.75,0,0,1-.51-.3s-.11,0-.11,0,.1.2.11.26-.45-.28-.5-.35.08,0-.16,0c0,.06.16.39.18.45s-.34-.39-.38-.43l-.28,0-.18-.3a12.38,12.38,0,0,0,3.1-.19l1.12-.23c.38-.12.64.09.72.66l.06.65a1.27,1.27,0,0,1,.1,1.34,2.1,2.1,0,0,0,.7,1.08c.32.3.36.72,0,1.32a8.17,8.17,0,0,1-1.24,2s0,0,0,.06l-.06.08.06-.1-.06-.3a.49.49,0,0,1,.1.22l.18-.3c0-.1,0-.2-.06-.32l.12.22c0-.08.1-.16.14-.25s-.06-.22-.1-.34a.72.72,0,0,1,.14.24,2.19,2.19,0,0,0,.16-.3c0-.1-.06-.2-.08-.3a.82.82,0,0,1,.12.2,2.4,2.4,0,0,0,.12-.44l-2,1.29c.18-.16.38-.3.56-.46l0,0-.06-.38a3.09,3.09,0,0,1,.14.32l.14-.12L44.37,47a2,2,0,0,1,.16.4l.18-.14c0-.2,0-.42-.08-.64a2.06,2.06,0,0,1,.2.54A1.07,1.07,0,0,1,45,47c0-.28-.06-.6-.1-.9a1.85,1.85,0,0,1,.25.75l.12-.1a8.19,8.19,0,0,0-.12-1,2.14,2.14,0,0,1,.28.84s0,0,.06-.06a7.48,7.48,0,0,0-.12-1.16,1.78,1.78,0,0,1,.26,1l.12-.12a6.06,6.06,0,0,0-.4-1.64c-.08.28-.08.38-.17.36,0-.32,0-.47,0-.51a1.35,1.35,0,0,1-.28.86l.09-.72Z"></path> <path class="cls-4" d="M43,45.91h0c0,.12,0,.22-.08.22s-.06-.12,0-.22Z"></path> <path class="cls-4" d="M43.23,45.69s.06.06.06.2,0,.25-.1.25-.1-.14-.06-.25.06-.18.1-.18Z"></path> <path class="cls-4" d="M43.51,45.73h0c0,.22,0,.38-.08.36s-.08-.18,0-.36Z"></path> <path class="cls-4" d="M43.47,45.45s0,0,0,.1h-.1C43.43,45.49,43.45,45.45,43.47,45.45Z"></path> <path class="cls-4" d="M43.75,45.41s.06.08.06.25,0,.34-.14.32-.1-.18-.06-.36.08-.22.14-.22Z"></path> <path class="cls-4" d="M42.37,39.66a4.49,4.49,0,0,1,1.54,1c.09.14,0,.18-.08.12a14.52,14.52,0,0,1-1.46-1.11Z"></path> <path class="cls-4" d="M44.29,41c.1.06.14.12.12.14s-.1,0-.2,0-.14-.14-.12-.16S44.19,40.91,44.29,41Z"></path> <path class="cls-4" d="M39.25,41.71l.54.06.12.2,0,0c-.06,0,.18.64-.14,0,0-.08-.16-.06-.25-.1a.55.55,0,0,0-.26-.1Z"></path> <path class="cls-4" d="M36.74,50.36c.1,0,.2,0,.2.08s-.06.06-.16.06-.2,0-.2-.06S36.64,50.36,36.74,50.36Z"></path> <path class="cls-4" d="M37,50.86a.81.81,0,0,1,.37,0s-.09.1-.24.17a.55.55,0,0,1-.36,0s.07-.1.25-.15Z"></path> <path class="cls-4" d="M37.17,51c.17,0,.35-.06.39,0s-.1.12-.28.15a.55.55,0,0,1-.4,0S37,51.06,37.17,51Z"></path> <path class="cls-4" d="M37.41,51.19c.11,0,.23,0,.25,0s-.06.09-.18.13-.26,0-.28,0,.08-.09.2-.11Z"></path> <path class="cls-4" d="M37.56,51.37c.13,0,.2,0,.2.08s0,.06-.16.06-.19,0-.19-.06S37.46,51.37,37.56,51.37Z"></path> <path class="cls-4" d="M39.71,50.55c.16-.06.32-.06.34,0s-.08.19-.25.26-.32.05-.35,0S39.54,50.64,39.71,50.55Z"></path> <path class="cls-4" d="M39.43,50.38c.12-.07.25-.07.25,0s-.06.13-.18.17-.25,0-.25,0A.23.23,0,0,1,39.43,50.38Z"></path> <path class="cls-4" d="M39.17,50a.23.23,0,0,1,.2,0c0,.07,0,.13-.14.15s-.18,0-.2,0S39.07,50.06,39.17,50Z"></path> <path class="cls-4" d="M36.26,48.34a.08.08,0,0,0-.08-.08.1.1,0,0,0-.08.06.41.41,0,0,0,.16.4c.16.08.21-.08.12-.14a.37.37,0,0,1-.12-.25Z"></path> <path class="cls-4" d="M36,48.21c0-.12-.08-.18-.16-.08a.45.45,0,0,0,0,.51c.14.17.26,0,.22-.08a.47.47,0,0,1,0-.35Z"></path> <path class="cls-4" d="M50,39.23c-.12.18-.16.86.45,1.68.21.28,0,.48.28.52q.18,0,.21-.3l-.2-.1H51l-.3-.2c.1,0,.34,0,.32-.06s-.3-.14-.44-.2l.34-.08c0-.1-.18-.18-.5-.28l.32-.08-.36-.22.28-.08-.44-.22.25-.12-.25-.08.25-.12c-.2-.08-.28-.25-.46-.06Z"></path> <path class="cls-4" d="M49.47,39.74a.94.94,0,0,1-.08-.68c.14-.35.28-.45.4-.45.26.25-.16.42-.25.62-.06,0-.08.18-.08.51Z"></path> <path class="cls-4" d="M49.37,38.51c.1-.1.22-.16.26-.12s0,.14-.12.25-.22.18-.26.14,0-.16.12-.28Z"></path> <path class="cls-4" d="M49.27,39.79a.12.12,0,0,1,.12.14.13.13,0,0,1-.12.12.14.14,0,0,1-.14-.12.14.14,0,0,1,.14-.14Z"></path> <path class="cls-4" d="M49.53,40.19c.08,0,.1.12,0,.22s-.12.16-.18.12a.16.16,0,0,1,0-.22c.06-.1.12-.16.18-.12Z"></path> <path class="cls-4" d="M49.81,40.61c.1,0,.12.14,0,.25a.3.3,0,0,1-.3.14.17.17,0,0,1-.07-.23v0a.3.3,0,0,1,.32-.14Z"></path> <path class="cls-4" d="M50.11,41.07c.06.08,0,.16-.07.2a.23.23,0,0,1-.26-.06c0-.06,0-.14.08-.18a.23.23,0,0,1,.25,0Z"></path> <path class="cls-4" d="M51.56,41.31a.12.12,0,0,0,0-.16l0,0c-.1,0-.16,0-.22-.12s0-.36.23-.42.23.06.19.16l-.1.08a.63.63,0,0,1,.36.22c-.1,0-.16,0-.18.1.33-.06.32.48,0,.38s-.3,0-.2.36.36.5.34.08c0-.2.64-.25.72.2l-.26-.1c.07.32.32.18.37.46l-.22,0a1.57,1.57,0,0,1,.56.66c-.29,0-.31-.34-.56-.34.33.46.73.36.93.82a2,2,0,0,1-1-.6c.34.48.56.88.48,1.08-.51-.22-.6-1-.8-1.18,0,.38.28.6.18,1a1.81,1.81,0,0,1-.3-1.22c.2,0,.28-.1.28-.44s-.22-.34-.19,0-.17.34-.71,0c-.08.08,0,.18.33.36V43l.16-.25.06.84c0,.22-.08.18-.15,0l-.06-.42c0,.3,0,.44-.13.42l-.09-.79-.21.29-.06-.44-.2.15v-.53c-.15.08-.3,0-.47-.22a.68.68,0,0,0,.54-.08c-.09-.41.08-.6.43-.64Z"></path> <path class="cls-4" d="M46.79,43.75a.48.48,0,0,0-.12-.48c-.08-.08-.14-.1-.12,0s.2.32.25.48Z"></path> <path class="cls-4" d="M46.47,42.53c.25.14.38.16.52.54,0,.14,0,.24-.08.12s-.25-.48-.44-.66Z"></path> <path class="cls-4" d="M46.51,41.75a1.16,1.16,0,0,1,.64.84c0,.22,0,.34-.14.16s-.25-.7-.5-1Z"></path> <path class="cls-4" d="M46.67,41.19a1.05,1.05,0,0,1,.66,1c0,.22-.1.36-.16.16a2.85,2.85,0,0,0-.5-1.14Z"></path> <path class="cls-4" d="M46.83,40.89a1.12,1.12,0,0,1,.68.74c0,.2,0,.3-.14.14A2.06,2.06,0,0,0,46.83,40.89Z"></path> <path class="cls-4" d="M49.19,50.8a.54.54,0,0,1,.72-.27h0c.17,0,.15.26.15.38-.11-.1-.21-.21-.3-.1-.29-.22-.39-.09-.59,0Z"></path> <path class="cls-4" d="M48.11,50.86a.12.12,0,0,1,.14.13c0,.08-.06.1-.14.1A.12.12,0,0,1,48,51a.13.13,0,0,1,.11-.13Z"></path> <path class="cls-4" d="M47.42,50.86s.09.06.13.17,0,.19,0,.19-.09,0-.13-.15,0-.21,0-.21Z"></path> <path class="cls-4" d="M47.65,50.83s.06,0,.08.13,0,.12,0,.14-.06,0-.08-.12S47.61,50.85,47.65,50.83Z"></path> <path class="cls-4" d="M47.71,48.25s0,0,0,.06-.16.14-.18.1a.2.2,0,0,1,0-.2l.08-.08s0,0,0-.06,0,0,0,.06-.18.16-.22.12,0-.14.06-.24.06-.06.08-.08,0,0,0,0h0c-.08.1-.18.14-.22.12s0-.14.06-.24a0,0,0,0,1,0,0s0-.06-.06-.08-.1.06-.14,0,0-.1.06-.18-.06-.16,0-.2.18,0,.3.3c0,.1,0,.16.06.22a1.8,1.8,0,0,1,.2.18.5.5,0,0,1,.1.42s0,0-.1-.18Z"></path> <path class="cls-4" d="M47.71,48.45c.06,0,0,.16-.08.28s-.2.18-.25.14,0-.16.06-.28.22-.18.25-.14Z"></path> <path class="cls-4" d="M50.17,47.27s0,.12,0,.24-.12.2-.16.18,0-.12,0-.24S50.13,47.25,50.17,47.27Z"></path> <path class="cls-4" d="M49.87,47.15s0,.18-.06.36-.2.3-.25.28,0-.18.06-.36.2-.3.25-.28Z"></path> <path class="cls-4" d="M49.18,46.87s0,.14,0,.3-.14.24-.18.22,0-.14,0-.28S49.14,46.86,49.18,46.87Z"></path> <path class="cls-4" d="M29.77,13.05a.51.51,0,0,1,.44-.44l.44.08c.16.12.14.16,0,.18-.36-.06-.56,0-.66.25s-.2.22-.18-.08Z"></path> <path class="cls-4" d="M31.16,13.89a.11.11,0,0,1,.1.12.14.14,0,0,1-.1.12.12.12,0,0,1-.1-.12C31.06,13.93,31.1,13.89,31.16,13.89Z"></path> <path class="cls-4" d="M29.7,13.48c-.14.19-.1.39.14.63l.32.4c.28.2.42.16.38-.14s0-.28.2-.28a.36.36,0,0,0,.25-.18c0-.16,0-.24-.12-.28a2,2,0,0,1-.66.3,2.25,2.25,0,0,0,.49-.37.24.24,0,0,1,.25-.05.22.22,0,0,0-.18-.23,1.19,1.19,0,0,0-.82.48.83.83,0,0,1,.76-.55.25.25,0,0,0-.1-.25.89.89,0,0,0-.62.18Z"></path> <path class="cls-4" d="M31.32,16A8.46,8.46,0,0,1,33,18.24V19l-.25-.83c0,.58,0,1-.06.83l-.2-1.19-.14.52-.12-.74c-.1-.08-.12.38-.1,1-.18-.17-.16-.7-.14-1.28l-.18.56a2.19,2.19,0,0,1,0-1.08c-.12-.1-.21.1-.26.7a2.16,2.16,0,0,1,0-1.1l-.13.3Z"></path> <path class="cls-4" d="M36.22,10.32a1.41,1.41,0,0,0,.82.2l0,.16a2.64,2.64,0,0,0,1.48-.56.26.26,0,0,0-.21,0c-.36.18-.32.06.36-.28.1-.06.17,0,.34,0l.43-.1c-.36.33-.72.64-1.12.94a1.87,1.87,0,0,1-1.51.26,5.3,5.3,0,0,1-.76-.46c-.06-.1-.12-.16.16-.1Z"></path> <path class="cls-4" d="M39,10.42a.1.1,0,0,1,.1.08.09.09,0,0,1-.1.08.07.07,0,0,1-.08-.08S38.94,10.43,39,10.42Z"></path> <path class="cls-4" d="M39.59,11.62c0-.06.08-.08.12,0a.08.08,0,0,1,0,.11h0c0,.06-.1.08-.12.06A.12.12,0,0,1,39.59,11.62Z"></path> <path class="cls-4" d="M41,11.08c.06,0,.12,0,.14,0a.11.11,0,0,1-.07.14h0c-.06,0-.12,0-.14,0S40.93,11.12,41,11.08Z"></path> <path class="cls-4" d="M40.69,10.86c.06,0,.12-.06.14,0a.11.11,0,0,1,0,.13s-.12.06-.14,0A.13.13,0,0,1,40.69,10.86Z"></path> <path class="cls-4" d="M38.5,11.29a.11.11,0,0,1,.15,0,.13.13,0,0,1-.11.1.11.11,0,0,1-.13,0S38.45,11.31,38.5,11.29Z"></path> <path class="cls-4" d="M39.29,12.77c.08,0,.17,0,.2,0s0,.09-.12.13-.18,0-.2,0S39.19,12.79,39.29,12.77Z"></path> <path class="cls-4" d="M36.72,11.4a2.73,2.73,0,0,0,.92-.28l.47-.22c.22-.1.25-.08.07.1a4.89,4.89,0,0,1-.64.45,1,1,0,0,1-.88.15C36.44,11.54,36.52,11.42,36.72,11.4Z"></path> <path class="cls-4" d="M38.12,11.2a2.41,2.41,0,0,1,.79-.46,2.71,2.71,0,0,1,1-.18c.24-.22.46.08.2.32a1,1,0,0,1-.28.18,2.15,2.15,0,0,1-.82.36c-.36.1-.4.07-.1-.14a2,2,0,0,1,.28-.2,1.46,1.46,0,0,1,.68-.2c-.34-.22-1,.12-1.67.44C38,11.42,38,11.36,38.12,11.2Z"></path> <path class="cls-4" d="M39.93,10.16a1.54,1.54,0,0,1,.43,0c.25.08.38.22.4.4a.45.45,0,0,1-.25.32c-.06-.32-.18-.5-.36-.56l-.2,0Z"></path> <path class="cls-4" d="M39.63,10.24a.75.75,0,0,1,.18-.08v.12l-.16,0c-.08,0-.16,0,0-.08Z"></path> <path class="cls-4" d="M39.27,10a1.09,1.09,0,0,1,.62-.32,3.14,3.14,0,0,1,.75,0c.51.18.3.34,0,.22a.83.83,0,0,0-.72,0c0,.2-.36,0-.56.18s-.16,0-.08-.1Z"></path> <path class="cls-4" d="M40.73,10.1c.16,0,.28,0,.3.16a.4.4,0,0,1-.14.4C41,10.28,40.77,10.32,40.73,10.1Z"></path> <path class="cls-4" d="M41.17,10a.79.79,0,0,1,0,.48l-.16.3c0,.14,0,.18.1.14a.46.46,0,0,0,.25-.44c0-.3,0-.44.12-.54-.18-.3-.36-.25-.3.06Z"></path> <path class="cls-4" d="M39.89,11.76c0,.2.46.25.52,0s-.08-.42,0-.66a.64.64,0,0,0-.51.64Z"></path> <path class="cls-4" d="M39.76,12.29a.49.49,0,0,1,.51-.22c.18,0,.28,0,.28.22a2.42,2.42,0,0,1,0,.54c-.06.17-.08.15-.28.17s-.3-.11-.54,0c.14-.33,0-.48.06-.74Z"></path> <path class="cls-4" d="M40.63,11.5c-.1-.16,0-.22.12-.1a.53.53,0,0,1,.2.38.15.15,0,0,1-.25.14c-.12-.11,0-.25-.09-.42Z"></path> <path class="cls-4" d="M40.73,12.26c-.06-.2,0-.21.25-.12s.18.26.1.33a.49.49,0,0,1,0,.63c-.09-.08-.22,0-.3-.16s-.07,0,0-.34a.57.57,0,0,0,0-.34Z"></path> <path class="cls-4" d="M41,13.91c.1,0,.16.06.16.12s-.08.1-.16.08-.16-.07-.16-.12S40.93,13.91,41,13.91Z"></path> <path class="cls-4" d="M39.76,13.73c.11,0,.19.06.17.11a.15.15,0,0,1-.18.11c-.1,0-.18-.06-.16-.13A.14.14,0,0,1,39.76,13.73Z"></path> <path class="cls-4" d="M40.05,15.29a.31.31,0,0,1,.32,0c.06,0,0,.1,0,.14a.41.41,0,0,1-.22,0C40.07,15.37,40.11,15.33,40.05,15.29Zm-.25-.14h0c.14.18.08.22,0,.32a2.24,2.24,0,0,0,.58.06c.3-.19.28-.3,0-.38A1.32,1.32,0,0,0,39.8,15.15Zm1.48-1.65a1.2,1.2,0,0,0-.86-.4,3.43,3.43,0,0,0-1.06.14,1.35,1.35,0,0,0-.26,1.09l.19,0-.16.12h.22l-.14.2.12,0-.1.25.12.09-.06.16.16,0,0,.16.12,0,0,.16.12,0A1.18,1.18,0,0,0,40,16a.62.62,0,0,0,.38,0,3,3,0,0,0,.5-.56c.06,0,.08-.14.08-.32a.28.28,0,0,0,.16-.29l.1-.14v-.49a.59.59,0,0,1-.3,0l-.28-.12-.08.62c0,.12-.06.3-.2.23L40,14.82c-.08,0-.06-.16,0-.2l.12,0V14a.65.65,0,0,1-.62,0,.46.46,0,0,0-.26,0,.88.88,0,0,1,.22-.28l-.12-.19.18,0c.28,0,.42-.06.51,0a.67.67,0,0,0,.22.19l0-.14c.06-.16.18-.2.36-.14l0,.39.64-.19Z"></path> <path class="cls-4" d="M40.11,14.67s0,0,0,0v0a.05.05,0,0,1,0,0,.08.08,0,0,1-.07,0A.07.07,0,0,1,40.11,14.67Z"></path> <path class="cls-4" d="M40.43,13.75s0-.08,0-.14.14-.17.14-.07a1.49,1.49,0,0,1,0,.21Z"></path> <path class="cls-4" d="M40.31,14.73c0-.25.06-.48.1-.8h.14q0,.42-.12.84C40.39,14.85,40.35,14.81,40.31,14.73Z"></path> <path class="cls-4" d="M38.77,13.35c0-.17.14-.15.16,0a.77.77,0,0,1-.14.64c-.1,0-.26,0-.16-.12A.66.66,0,0,0,38.77,13.35Z"></path> <path class="cls-4" d="M38.65,14.49c0-.18.08-.26.12-.05A3,3,0,0,0,39.69,16c.22.18,0,.34-.23.16A2.83,2.83,0,0,1,38.65,14.49Z"></path> <path class="cls-4" d="M40.65,16.13a.49.49,0,0,1,.21-.46c.12-.08.16.06.1.14s-.22.14-.32.32Z"></path> <path class="cls-4" d="M35.42,18.34a.7.7,0,0,1,.12-.34.45.45,0,0,1-.14-.1,3.3,3.3,0,0,1-.44.66,2.76,2.76,0,0,1,.58-1.06c0,.14-.08.25-.12.36l.14.12a.29.29,0,0,0,.1-.12.36.36,0,0,1,0,.18h0l0,.06h0A.55.55,0,0,1,35.42,18.34Z"></path> <path class="cls-4" d="M35.18,18.71a.44.44,0,0,1,.14-.28.39.39,0,0,1-.15.28Z"></path> <path class="cls-4" d="M36.24,18.87c0-.08,0-.16.06-.22h0l0,0a.2.2,0,0,1,0-.08h0l.12-.14a.58.58,0,0,1-.25.48Z"></path> <path class="cls-4" d="M36.2,19.45c-.06-.2,0-.34.26-.46C36.46,19.29,36.43,19.37,36.2,19.45Z"></path> <path class="cls-4" d="M36.68,19.27a2.08,2.08,0,0,0,.16-1.3C37.06,18.53,37,18.69,36.68,19.27Z"></path> <path class="cls-4" d="M40,21.09a4.25,4.25,0,0,0,.12-1.23l-.1,0a2.87,2.87,0,0,1-.21.8,2.6,2.6,0,0,0,.09-.78l-.12,0a4.61,4.61,0,0,1-.16.64,4.34,4.34,0,0,0,.06-.62l-.18,0c0,.25-.06.54-.12.9,0-.3,0-.6,0-.88H39.1a6.91,6.91,0,0,1-.1,1c0-.36,0-.7,0-1l-.2,0a7.89,7.89,0,0,1-.1,1.08c0-.39,0-.75,0-1.1l-.18-.07a8.49,8.49,0,0,1-.16,1c0-.36,0-.68,0-1l-.18-.06c0,.4-.06.76-.08,1.18A5.14,5.14,0,0,1,38,19.71a.39.39,0,0,1-.14-.08,4.27,4.27,0,0,0-.1,1.38,2.45,2.45,0,0,1,0-1.42l-.12-.08a3.45,3.45,0,0,1-.28.54,5.66,5.66,0,0,0,.2-.58l-.2-.12a2.82,2.82,0,0,1-.36.88,5.6,5.6,0,0,0,.3-2,4.79,4.79,0,0,1,.1.76l.22.1a9.2,9.2,0,0,0,.06-1,2.52,2.52,0,0,1,.08,1.06.48.48,0,0,0,.18.06A.86.86,0,0,1,38,19l-.06.18.14,0c0-.12.06-.26.12-.42,0,.16,0,.3,0,.46l.16,0c0-.1,0-.22,0-.34a2.25,2.25,0,0,1,.06.36l.2,0v-.46c0,.18.08.32.1.46a1.06,1.06,0,0,0,.25,0,3.85,3.85,0,0,1,0-.48c0,.18.06.34.1.48h.2v-.72a3.34,3.34,0,0,1,.14.7l.18,0a4.6,4.6,0,0,0-.06-.52,1.82,1.82,0,0,1,.16.5l.12,0c0-.17-.06-.36-.08-.55a4.4,4.4,0,0,1,.18.51.17.17,0,0,0,.12,0c0-.28-.06-.57-.12-.92a3.2,3.2,0,0,1,0,2.83Z"></path> <path class="cls-4" d="M40.51,19.77l.08.18.28-.25c.08-.1.16-.08.22.06l0-.33c.1-.06.19,0,.26.08a.35.35,0,0,0,0-.3l0-.4c-.16-.25-.28-.42-.46-.48a.69.69,0,0,1,0,.56.66.66,0,0,0-.34-.55.76.76,0,0,1,.08.49.61.61,0,0,0-.2-.19l0,.24-.12.08Z"></path> <path class="cls-4" d="M42.35,18.34c0,.07,0,.1,0,.1s-.08,0-.14-.1Z"></path> <path class="cls-4" d="M42.23,18h0a1,1,0,0,1,.08.24h-.22a1.76,1.76,0,0,1-.12-.2s0,0,0,0Z"></path> <path class="cls-4" d="M41.87,17.63c.06,0,.2.12.3.3h-.25c-.08-.16-.1-.3,0-.3Z"></path> <path class="cls-4" d="M41.75,18.33s.1.06.18.18.08.22.06.25-.1-.06-.16-.18S41.73,18.33,41.75,18.33Z"></path> <path class="cls-4" d="M41.37,18.25s.11.08.22.22.12.28.08.3-.13-.08-.22-.22S41.33,18.27,41.37,18.25Z"></path> <path class="cls-4" d="M34.9,17.47l.14.1.1-.1a.4.4,0,0,1-.16.28l.06-.16A.53.53,0,0,0,34.9,17.47Z"></path> <polygon class="cls-4" points="33.12 37.54 33.04 37.8 32.96 37.76 33 37.54 33.12 37.54"></polygon> <path class="cls-4" d="M26.92,46.37c.25-.1.32,0,.4.32s.36.36.36.52c.46.38.38.54-.25.48a.44.44,0,0,1-.33-.48Z"></path> <path class="cls-4" d="M27,47.91a.63.63,0,0,0,.07.78.49.49,0,0,0,.41.18l-.08-.22.25.16c0-.12-.1-.25-.32-.41l.3.07c0-.16-.14-.3-.38-.42h.2c-.1-.28-.28-.36-.44-.14Z"></path> <path class="cls-4" d="M27.8,48.05c.08,0,.14.08.16.2a.21.21,0,0,1-.1.25c-.08,0-.14-.07-.16-.19S27.74,48.05,27.8,48.05Z"></path> <path class="cls-4" d="M31.86,34.34a3.85,3.85,0,0,1,.64-1.88A15.41,15.41,0,0,0,31.86,34.34Z"></path> <path class="cls-4" d="M33.3,30.62c-.24.1-.25-.1-.08-.25a1.88,1.88,0,0,1,1.28-.43h.84c.32,0,.28.32,0,.3h-.6A2.63,2.63,0,0,0,33.3,30.62Z"></path> <path class="cls-4" d="M35.12,30.32c.22,0,.4,0,.4.08a.67.67,0,0,1-.4.08c-.22,0-.4,0-.4-.08S34.9,30.32,35.12,30.32Z"></path> <path class="cls-4" d="M36.77,26.08c-.05,0-.15.09-.28.27a.92.92,0,0,0-.19.33s.14-.1.26-.28a.83.83,0,0,0,.2-.32Z"></path> <path class="cls-4" d="M35.36,27.46c-.1.18-.06.28.14.36a3,3,0,0,0,2.36-.46l1-.46c.19-.22.15-.28-.1-.2l-.47.25.12-.4a1.73,1.73,0,0,0-.55.62l-.08-.2a.81.81,0,0,0-.26.42l-.09-.22a.57.57,0,0,0-.26.25l0-.28c-.08-.06-.2.08-.36.4l.08-.3q-.09-.09-.3.36l.32-1c-.16,0-.38.38-.62,1-.1,0-.14,0-.12-.1l.39-.69c-.18,0-.38.25-.62.7l.28-.8-.52.68v-.27a.8.8,0,0,0-.35.28Z"></path> <path class="cls-4" d="M35.46,40.49c-.08-.08.06-.16.1-.12l.25.22c.06.06-.08.16-.14.12Z"></path> <path class="cls-4" d="M35.64,40.33c0-.06.06-.14.1-.1l.2.2c.06.06-.06.14-.1.1Z"></path> <path class="cls-4" d="M35.76,40.15c-.08-.08.06-.18.12-.12l.25.25c.07.06-.09.16-.13.1Z"></path> <path class="cls-4" d="M35.86,39.85c-.08-.11.1-.24.2-.19l.36.36c.1.11-.14.26-.2.18Z"></path> <path class="cls-4" d="M36.24,39.52c-.12-.12,0-.28.14-.18l.45.39c.12.1-.06.28-.16.2Z"></path> <path class="cls-4" d="M36.5,39.33c-.1-.1,0-.24.12-.16l.38.32c.11.1-.06.24-.14.17Z"></path> <path class="cls-4" d="M36.84,39.21c-.07-.08,0-.2.1-.15l.32.28c.08.09-.06.23-.11.17Z"></path> <path class="cls-4" d="M35.24,36.94c0-.1-.16,0-.18,0l0,.36c0,.08.18,0,.18,0Z"></path> <path class="cls-4" d="M34.72,37.45c0-.16-.18-.09-.18,0l0,.29c0,.13.2,0,.18,0Z"></path> <path class="cls-4" d="M34.12,37.83c0-.14-.12-.1-.12,0l0,.25c0,.14.14.08.14,0Z"></path> <path class="cls-4" d="M34.88,37.32a.09.09,0,0,1,.08.1.1.1,0,0,1-.08.11s-.06,0-.06-.11S34.86,37.32,34.88,37.32Z"></path> <path class="cls-4" d="M34.32,37.69a.1.1,0,0,1,.1.11c0,.08,0,.12-.1.12s-.1,0-.1-.12A.1.1,0,0,1,34.32,37.69Z"></path> <path class="cls-4" d="M33.82,38.05c0-.13-.16-.13-.16,0v.25c0,.12.18.1.18,0Z"></path> <path class="cls-4" d="M38.16,22.91a.13.13,0,0,1,.11.14c0,.08-.05.16-.11.16s-.07-.08-.07-.16,0-.14.08-.14Z"></path> <path class="cls-4" d="M38.41,23.29s-.06-.1-.06-.22,0-.25.06-.25.07.1.07.25S38.45,23.29,38.41,23.29Z"></path> <path class="cls-4" d="M38.79,23.19c.1,0,.18,0,.18.08s-.08.06-.18.06-.16,0-.16-.06A.2.2,0,0,1,38.79,23.19Z"></path> <path class="cls-4" d="M39,23.53a.11.11,0,0,1,.08.08.09.09,0,0,1-.08.1s-.06,0-.06-.1a.07.07,0,0,1,.06-.07Z"></path> <path class="cls-4" d="M39.31,23.51h.74c.25,0,.28.12.12.35.08.39-.42.66-.41,0,0-.12-.17-.18-.45-.18C39.19,23.65,39.19,23.54,39.31,23.51Z"></path> <path class="cls-4" d="M38.15,28.22a.09.09,0,0,1,.09.09h0a.1.1,0,0,1-.09.12s-.09-.06-.09-.12A.1.1,0,0,1,38.15,28.22Z"></path> <path class="cls-4" d="M37.84,28.32a.13.13,0,0,1,.12.14.15.15,0,0,1-.12.12.11.11,0,0,1-.12-.11h0C37.72,28.38,37.76,28.32,37.84,28.32Z"></path> <path class="cls-4" d="M38.22,28.54c.26-.18.52-.3.57-.25s-.14.25-.42.46-.53.28-.58.22.15-.25.43-.44Z"></path> <path class="cls-4" d="M39.19,27.92a.83.83,0,0,1,.34-.2c0,.05-.08.18-.26.33s-.32.21-.34.17.08-.17.24-.3Z"></path> <path class="cls-4" d="M38.56,29.44a2.52,2.52,0,0,1,.21-.4l0,0a.72.72,0,0,1,.46-.54l0,0a1.21,1.21,0,0,1,.3-.2c-.07.1-.1.2-.16.28l.06,0A1.17,1.17,0,0,1,40,28.3a2.4,2.4,0,0,1-.38.4l.12.08a1.91,1.91,0,0,1,.58-.35c-.14.14-.28.3-.44.44L40,29a1.33,1.33,0,0,1,.6-.28,2.26,2.26,0,0,0-.28.25,4,4,0,0,1,.5-.06c-.25.12-.42.16-.62.25l.16.1a1.27,1.27,0,0,1,.6-.18,5,5,0,0,1-.46.25l.14.08a1.07,1.07,0,0,1,.58-.12,3.49,3.49,0,0,0-.44.2l.08.06a1.44,1.44,0,0,1,.54-.14c-.17.06-.28.14-.43.2l.13.06a.86.86,0,0,1,.45,0,2.53,2.53,0,0,0-.36.12l.43.25-.09,0-.64-.21a.09.09,0,0,0-.08,0s0,0,0-.06l-.16,0-.28.14a.93.93,0,0,1,.16-.18l-.16-.06-.28.14a1.56,1.56,0,0,1,.16-.2l-.15-.06c-.11.08-.23.15-.35.22a1.69,1.69,0,0,1,.2-.25l-.22-.08a2.21,2.21,0,0,1-.3.25.67.67,0,0,1,.16-.3l-.2-.08c-.1.1-.22.2-.34.3a1.9,1.9,0,0,1,.2-.34l-.32-.12A2.05,2.05,0,0,1,38.56,29.44Z"></path> <path class="cls-4" d="M35.4,37.17a2.63,2.63,0,0,1,.14-1c0-.14.18-.22.42-.25l2.69-.41c.14,0,.15.06.14.26a1.94,1.94,0,0,1-.2.7c-.11.08-.13-.25-.11-.78-.19.48-.11,1-.43,1.06-.15-.22.07-.64.11-1-.3.28-.19.62-.45,1-.11,0-.09-.32,0-.86a2.73,2.73,0,0,1-.41.86,1.55,1.55,0,0,1-.06-.74c-.11.52-.25.88-.38.94a3.53,3.53,0,0,1,0-.86L36.8,36a2.15,2.15,0,0,1-.28.94,1.17,1.17,0,0,1,0-.92h-.12c-.08.25-.12.48-.25.56s-.25-.2-.25-.5a1.84,1.84,0,0,1-.56,1Zm4.17-6.56c.06-.08.16-.06.14,0a18.19,18.19,0,0,0-.28,3h-.06A11,11,0,0,1,39.57,30.61Zm.3,0c-.14,1-.14,1.6-.26,2.64l.08.18A16.13,16.13,0,0,1,40,30.7c.07-.16-.1-.2-.18,0Zm.22.64.12-.59q.21-.12.18.12l-.25.5,0,0Zm-3.31-.81h0a12.54,12.54,0,0,0-.44,3.9c0,.25.06.36.26.34a20.67,20.67,0,0,0,2.82-.44c.16-.06.14-.12,0-.18h-.14a14,14,0,0,1,.09-3.3c.12-.25,0-.36-.08-.25a12.44,12.44,0,0,0-.17,3.55l-.12,0a14.45,14.45,0,0,1,0-3.22c.14-.22.14-.42,0-.36a13.2,13.2,0,0,0-.16,3.6l-.08,0a23.54,23.54,0,0,1,0-3.66l-.08-.06a14.32,14.32,0,0,0-.06,3.7h-.08a12.87,12.87,0,0,1,0-3.56l-.1.12a16.68,16.68,0,0,0-.06,3.42l-.08,0a14.3,14.3,0,0,1,0-3.58l-.08-.08A11.1,11.1,0,0,0,38,34.18l-.08,0a11,11,0,0,1,0-3.7l-.1,0a10.33,10.33,0,0,0-.1,3.68l-.08.08a10.33,10.33,0,0,1,.08-3.84l-.16,0a11.77,11.77,0,0,0-.16,3.88l-.08.06a8,8,0,0,1,0-3.6v-.2c-.37.64-.53,1.84-.35,3.92a8.38,8.38,0,0,1,.18-4.1l0-.15c-.37.34-.61,2.36-.51,4.27a12,12,0,0,1,.18-4l-.06,0Zm-.46-.42a8.85,8.85,0,0,0-.7,2.94,6.93,6.93,0,0,0,0,2.18c.08.4.26.54.44.52l3-.47c.22,0,.43-.21.34-.42l-.12-.23-.11.33L39,34.63l-.13.32-.17-.4-.15.49-.17-.39-.1.41-.11-.34-.11.41-.15-.37-.11.45-.17-.44-.12.32-.13-.25-.11.25-.13-.2a.54.54,0,0,0-.43,0l-.06.11-.08-.11c-.22-.06-.46-.1-.68-.14l.28-.14c0-.09-.1-.14-.28-.11l.3-.23-.32-.05.3-.19c0-.08-.08-.16-.32-.25l.32-.1V33.6l-.32,0,.34-.16c0-.08-.06-.14-.28-.21l.28-.09a.32.32,0,0,0-.25-.25l.25-.08-.25-.18.3-.12c0-.1,0-.14-.22-.22l.32-.14a.46.46,0,0,0-.3-.22l.3-.1-.25-.16.3-.18-.22-.08.25-.16c.07-.06,0-.12-.25-.14l.31-.12,0-.12-.29,0,.14-.12-.18-.14.42-.09,0-.08-.3-.08.26-.14a.23.23,0,0,0-.26-.16Z"></path> <path class="cls-4" d="M40.71,37.25q-.15-.18.06-.3l.72-.06a.47.47,0,0,1,.38.24l.34.37c.14.19,0,.33-.12.29A8.23,8.23,0,0,1,40.71,37.25Zm-.16,0c-.16-.08-.26,0-.14.12a3.35,3.35,0,0,0,.84.54,1.83,1.83,0,0,0,.92.18c.22,0,.32-.14,0-.2A7,7,0,0,1,40.55,37.27Zm-1.28-1.2c-.22-.14,0-.42.18-.3l.31.32c.19.16.07.3-.09.22l-.4-.25Zm-.26.38.64.4c.14.1.32-.14.14-.28l-.6-.44C39,36,38.79,36.31,39,36.45Zm1.44-4.94c-.16.12-.22.25.1.25-.22.2-.25.34-.06.4-.39.5-.39.64,0,.42-.44.56-.37.64-.07.54-.39.46-.32.52-.21.54-.25.36-.25.54,0,.52a.6.6,0,0,0-.36.55c-.08.32-1,.68-.22,1a1.45,1.45,0,0,1,.54.94c.06.28.18.3.42.2a3.76,3.76,0,0,1,.6-.1c.38,0,.4-.38,0-.44,0-.16-.1-.25-.32-.14.18-.29,0-.22-.12-.25.12-.06.1-.2-.22,0l0-.1a.33.33,0,0,0,.25-.28l-.54.18c.16-.14.25-.25.22-.34l-.38.08c.4-.28.56-.48.54-.58L40.1,35c.3-.25.5-.44.48-.56l-.36.14c0-.12.16-.25.46-.32S41,34,41,33.73l-.54.26a4.32,4.32,0,0,0,.9-1c0-.14-.48.16-1.06.64v-.1a4.7,4.7,0,0,0,1.32-1.31L40.56,33l1-1.14c-.06-.14-.34,0-.88.58l0-.12.5-.54A1.89,1.89,0,0,0,42,31c.1-.25-.25.08-.76.54-.12.12-.25.18-.4.32L42,30.53l0-.16c-.12-.12-.9.8-1.56,1.12Z"></path> <path class="cls-4" d="M43.15,34.26l.06,0c.14-.16.14-.25,0-.28h0Zm-.18.08.06,0V34L43,34l0,.34Zm-.25.08.1,0V34l-.18,0Zm-.22.06h0v-.4l-.1,0Zm.92-.86c.08,0,.14,0,.16,0s0,.1-.12.12-.14,0-.16-.06S43.34,33.64,43.42,33.62Zm.08.25s0,0,0,0,0,.06,0,.06,0,0,0-.06S43.48,33.88,43.5,33.87Zm-.79-.4a.1.1,0,0,1,.1.09h0a.1.1,0,0,1-.09.1h0a.08.08,0,0,1-.08-.1A.09.09,0,0,1,42.71,33.47ZM42,34l1-.2c.17-.06.22-.16.19-.3L43,32.17c-.06-.25.12-.16.18,0s.16.1,0,.25c.34,0,.45.14.26.28l-.28.06.36,0c.16.06.12.18,0,.2l-.34.06.42.06c.2,0,.2.07,0,.18l-.18.12.3,0c.14,0,.18,0,.12.2.1.49,0,.79-.4.79l-1.35.3c-.07-.06-.11-.06-.07-.09l0,0a.08.08,0,0,1,.07-.08.07.07,0,0,1,.06.07l.21-.05v-.39l-.18,0v0c0,.08,0,.14-.09.14s-.07-.06-.07-.14v0l-.08,0c-.18-.06-.18-.14,0-.26Zm.7-1,0,.29c.06.12.08.16.13.1l.07-.32c0-.12-.16-.28-.18-.08Zm1.46.36h0c-.07-.08-.22,0-.14.06a1.23,1.23,0,0,1,.14.62c0,.14.16,0,.18-.2A.52.52,0,0,0,44.11,33.31Zm.31.58s.09.08.11.18,0,.2,0,.2-.07-.06-.09-.16A.28.28,0,0,1,44.42,33.89Zm0,1.22s.05,0,.05.08,0,.08-.05.08a.07.07,0,0,1-.08-.08s0-.07.06-.08Zm-.1.3s0,.06,0,.14,0,.14,0,.14-.05-.06-.05-.14S44.32,35.41,44.34,35.41Zm.06-.82c0-.22.25-.16.15.06l-.11.28h-.06Zm-3,.76a1.06,1.06,0,0,1,.56-.48,9.81,9.81,0,0,0,2-.48c.19-.14.27-.1.25.12a2.54,2.54,0,0,1-.32,1.3V34.73l-.08,0a2.41,2.41,0,0,1-.28,1.1l0-1h-.1l-.22,1,.06-.85c0-.13,0-.15-.1-.09-.14,1-.32,1.43-.52,1.57A3.47,3.47,0,0,0,42.88,35l-.06,0a4.82,4.82,0,0,1-.32,1.41c-.2-.31.18-.83.1-1.32h0l-.36,1.24c-.12,0-.08-.16,0-.48l0-.71-.06,0a3.7,3.7,0,0,1-.34.91l.06-.93-.25.66,0-.54Z"></path> <path class="cls-4" d="M43.79,16.43a2.18,2.18,0,0,1,1.51-.36c.36,0,.36.25.16.25a2.8,2.8,0,0,0-1.64.2c-.2.1-.16,0,0-.08Zm-.44.62h0c-.06.16,0,.22,0,.16.5-.46.84-.58,1.12-.52l0,0a1.87,1.87,0,0,0-1.38,1.14c-.06.14,0,.18.08.12a2.94,2.94,0,0,1,1.08-1.08,2.19,2.19,0,0,1,.66-.2,1.78,1.78,0,0,1,.56-.1c.22,0,.25-.22,0-.25a2.53,2.53,0,0,0-2.14.68Zm1.34-.2c.18,0,.25.08.12.24a3.27,3.27,0,0,0-1.26,1,.43.43,0,0,1-.25.46c0,.3-.18.44-.48.48l-.44.56c.09.14-.06.36-.38.68s-.28.16-.26-.2c.26-.66.7-1.62.93-1.62s.11,0,.16-.26.18-.11.14,0,0,.19.12.06a2.9,2.9,0,0,1,1.58-1.4Zm-3.56,5.24c-.06-.72.1-1.14.44-1.38.92-.56,1.24-1.38,1.54-1.36a7,7,0,0,1,1.3-1.56c.4-.28.48-.22.25.22A8.07,8.07,0,0,1,43,20.09a.75.75,0,0,0-.56.38l.36-.18c.18,0,.2,0,.08.16-.3.16-.8.94-.92.44-.2.38-.54.32-.56.7l0,.51c-.08.13-.14.13-.22,0ZM43.77,18a2.55,2.55,0,0,1,.94-.72c.38-.16.36.14.1.14s-.48.18-.94.76c-.12.16-.25,0-.1-.18Zm-2.22,3.42h0a.16.16,0,0,0,0,.18.12.12,0,0,0,.17,0v0a.14.14,0,0,0,0-.18A.14.14,0,0,0,41.55,21.43Zm0,1c0,.16,0,.12.12,0l.18-.5a6.13,6.13,0,0,0,.74-.7c.12.18.34,0,.68-.44a1.38,1.38,0,0,0,.74-.91q.15-.51-.18-.18c-.32.42-.56.58-.68.88-.38.12-.68.54-1.12.74a.37.37,0,0,0-.16.36c-.18.12-.3.32-.32.76Zm0,.64c-.18.46.32.54.32.14a2,2,0,0,1,.25-1c.14-.25.08-.28-.14-.06a2.2,2.2,0,0,0-.42.9Zm.57-.32h0c-.06.14,0,.28.1.1l.48-.66-.38.76c-.08.12.06.12.14,0a2.33,2.33,0,0,0,.6-1.24l.32-.52c.06-.1,0-.25-.1-.14l-.45.42c-.18,0-.32.18-.4.46Zm1,.1h0c-.08.4,0,.44.25.14a2,2,0,0,0,.25-1.12c.15,0,.15-.2.16-.34s.14-.25,0-.3l.12-.38c0-.3-.1-.32-.16-.08l-.22.6a1.33,1.33,0,0,0-.3.76l-.15.72Zm-1.26.92a2.19,2.19,0,0,0,.76-.66c.28-.4.4-.42.32,0a1.25,1.25,0,0,1-.82.88c-.42.17-.55,0-.26-.22Zm-1,1.15c.16-.34.6-.56,1.22-.76a2.4,2.4,0,0,0,1.06-.8c.33-.2.26,0,.16.2a.87.87,0,0,1-.4.38,3.67,3.67,0,0,1-.88.51,2.1,2.1,0,0,0-1,.68c-.18.13-.25.07-.2-.21Zm.06,1.16c-.1.18-.12.32,0,.42.38-.14.25-.74,1.2-1.22.12-.16.08-.22-.12-.16l-.87.64c.3-.49.6-.87,1-1a1.26,1.26,0,0,0,.78-.42c.1-.21.06-.28-.1-.18-.54.36-1,.51-1.42.82a2.18,2.18,0,0,0-.74,1.18l.28-.11Zm.06.66h0A5.34,5.34,0,0,1,42.5,25a3.77,3.77,0,0,0,1-1.74c.12-.3.3-.16.14.32a4,4,0,0,1-1.34,1.78,7.11,7.11,0,0,0-1.26,1.48c-.13.18-.23.1-.11-.12Zm.16.42c-.14.18-.12.25.12.14a3.73,3.73,0,0,1,.86-1.08l.68-.6c.52-.12.82-.68.92-1.62l0-.12a2.78,2.78,0,0,1-1,1.4,4.51,4.51,0,0,0-.94,1c-.12.12-.12.25-.22.42a5.17,5.17,0,0,0-.42.51Zm1.74-1.34h0c.25-.06.16.08.08.14a4.71,4.71,0,0,0-.61.47c-.18.18-.22.17-.12-.08A1.14,1.14,0,0,1,42.88,25.8ZM42,27.31a1.36,1.36,0,0,1,.56-.94c.28-.2.34-.14.12.14a6.53,6.53,0,0,0-.48.86C42.18,27.49,42,27.62,42,27.31Zm-.12-.7h0s-.06.1-.06.2,0,.2.06.2.06-.08.06-.2S41.94,26.61,41.92,26.61ZM43.36,26h0c-.08,0-.16.08-.22.22s0,.25.06.28.16-.08.2-.2A.3.3,0,0,0,43.36,26Zm2.89-10.69a3.05,3.05,0,0,0-2.9,1,2.82,2.82,0,0,0-.62,1.62c0,.1.22-.12.48-.46l-.16-.06a1.11,1.11,0,0,1,.18-.34c0-.06,0-.16.14-.22a.47.47,0,0,0,.2-.22h-.14A2.1,2.1,0,0,1,45.25,16l.56.06a.36.36,0,0,0,.25-.06c.06,0,.08-.1,0-.1a4.86,4.86,0,0,0-1.9.08,3.58,3.58,0,0,1,2.06-.28c.38,0,.4-.25,0-.31Z"></path> <path class="cls-4" d="M47.43,15.11c-.08.06,0,.2.08.25s.18,0,.14-.08-.14-.25-.22-.18Zm-.86-.32c-.14-.18,0-.28.2-.25a3.68,3.68,0,0,1,1.52.48c.2.14,0,.28-.1.18L47.77,15c0,.19-.14.11-.38-.09-.17.16-.36.08-.59-.16l.14.4c0,.08-.06.08-.1,0Z"></path> <path class="cls-4" d="M48.71,15.61c-.06,0-.2-.1,0-.14-.2-.13-.12-.28,0-.3.54,0,1-.32,1.58,0l.28.32c.19.42,0,.62-.21.32s0-.34-.32-.49a2.12,2.12,0,0,1,.27.95c.47.44,0,.54-.08.25l-.17-.82c0,.4,0,.7,0,.7s-.07-.28-.13-.62c0-.14-.08-.4-.15-.42a2.09,2.09,0,0,0-.93,0c.44,0,.74,0,.84.12a.69.69,0,0,1,.1.62c-.1.16-.16.12-.16-.08l-.05-.25c0-.14-.19-.16-.41-.14a.62.62,0,0,1-.46,0Z"></path> <path class="cls-4" d="M49.33,30c-.1-.16.16-.26.36,0a12.4,12.4,0,0,1,1.18,1.94c.19.4,0,.5-.17.14A13.29,13.29,0,0,0,49.33,30Zm.62.2h0a8.59,8.59,0,0,1,.92,1.54c.11.22.26.16.15-.08a12.43,12.43,0,0,0-.85-1.51c-.16-.25-.36-.14-.22.06Zm-6.8.38a21.31,21.31,0,0,0,2.22,3c.1.12,0-.25.1-.1a3.61,3.61,0,0,0,.58.86c.12-.1-.25-.44-.32-.84l1.14,1.32c.1-.18-.56-1-1.1-1.64l.08-.08,1.3,1.7.06,0A12,12,0,0,0,46,32.94l0-.14c.25.3.56.76.82,1.14A6.91,6.91,0,0,0,47.69,35c.48.12-1.14-1.58-1.88-3l0-.08A11.24,11.24,0,0,0,48.35,35c.1.06.18-.06.08-.18A28.92,28.92,0,0,1,46.16,32l0-.08c.85,1,1.28,2.14,2.89,3.1.1.06.16.16.25.08.36-.28-1.38-.7-2.72-3l0-.16a10.84,10.84,0,0,0,1,1.36c.64.7,1.64,1.51,1.8,1.4S48,33.54,47.18,32.2l0,0a8.85,8.85,0,0,0,3,2.8c.2.1.12.08.36.08.62,0-1.38-1-2.42-2.12l0-.1c.3.25.68.6,1.1.94a16.71,16.71,0,0,0,1.44.92c.38.2.68.32.82.25.36-.18-1.38-.79-1.82-1.26a5.39,5.39,0,0,0,.74.35c.76.38,1.3.64,1.42.5s-.32-.32-1-.58q-.12-.12.18-.06c.8.32,1.26.54,1.36.48.25-.08-.16-.25-.64-.56a3.09,3.09,0,0,0,1.4.42c.1,0-.34-.25-.72-.6.54.34,1.82.8.6-.06l.08,0c.46.34,1,.48.34-.08h.1c.4.32.62.56.32-.1.4.58.8.8.25,0l.62.48c-.21.1-.19.16,0,.28.53.34.57.28.47,0a1.08,1.08,0,0,0-.51-1.12c-.4-.25-.38,0,.08.76a2.3,2.3,0,0,1-.42-.46A.49.49,0,0,0,54,33a25.26,25.26,0,0,0-2.74.32,2.24,2.24,0,0,1-1.44-.16c-.25-.2-.32-.28-.2-.5a.28.28,0,0,0-.11-.37h0L48.81,31c.08.14.18.2.25.32.25.42.44.76.51.74-.1-.28-.44-.9-.7-1.6.5.88.94,1.64,1.06,1.54a7.58,7.58,0,0,0-.86-1.68,3,3,0,0,1,.25.25c.16.2.3.38.38.34a2.18,2.18,0,0,0-1-1.2c-.56-.2-.9-.28-.82.08l-.28-.32-.3,0c-.1,0,0,.2.24.54l-.06,0-.34-.54c-.1-.06-.25-.12-.25,0l.18.36-.38-.42c-.18-.1-.38-.14-.38-.06l.56.92c-.1-.14-.26-.28-.4-.48s-.4-.52-.66-.56.25.4.62,1.26l-.86-1.24c-.09-.06-.43-.12-.44,0l1,1.44a7.88,7.88,0,0,1-1.19-1.46.19.19,0,0,0-.18-.06s-.08,0-.12,0l1.22,1.58a8.5,8.5,0,0,1-.66-.68c-.25-.36-.5-.6-.7-.92a.18.18,0,0,0-.25,0c-.1.14.92,1.18,1.36,1.8a10.18,10.18,0,0,1-1.54-1.8c-.2-.1-.34-.1-.4,0s1.23,1.37,1.74,2.15a22.48,22.48,0,0,1-1.88-2.14c-.08-.1-.32-.1-.32,0s1.12,1.22,2,2.46a17.08,17.08,0,0,0-1.8-1.88c-.16,0,.4.68,1.68,2.14A17.2,17.2,0,0,1,43.33,30c-.16.14.54,1,1.56,2.14l-1.6-1.68C43.07,30.34,43,30.36,43.15,30.56Z"></path> <path class="cls-4" d="M48.55,17.47s0,.28-.06.42a.7.7,0,0,0,0,.38c.06.14.08.16.08.12a3.66,3.66,0,0,1,0-.74A.2.2,0,0,0,48.55,17.47Zm.22,0c0,.17,0,.34,0,.52a1,1,0,0,0,.08.5c.06.16.1.2.1.14a4.9,4.9,0,0,1-.07-.94.23.23,0,0,0-.07-.22Zm.26,0a3.64,3.64,0,0,0,0,.66,1.05,1.05,0,0,0,.1.6c.08.2.12.24.12.18a5.83,5.83,0,0,1-.12-1.18c0-.16,0-.22-.08-.25Zm.3.3a4,4,0,0,0,0,.6,1,1,0,0,0,.09.54c.09.18.15.22.13.16A5.39,5.39,0,0,1,49.4,18a.28.28,0,0,0-.07-.25Zm.28.32s0,.34,0,.52a.8.8,0,0,0,.1.5q.15.21.12.12a7.36,7.36,0,0,1-.15-.94c0-.14,0-.18-.08-.2Zm.28.3h0c.06,0,.08.06.08.18a4.57,4.57,0,0,0,.16.82c0,.06,0,0-.1-.1a.68.68,0,0,1-.12-.44C49.91,18.67,49.85,18.35,49.89,18.37Zm.3.3s0,.28,0,.42a.6.6,0,0,0,.12.36c.08.1.12.14.1.1a2.89,2.89,0,0,1-.16-.72A.3.3,0,0,0,50.19,18.67Zm.28.3h0a.15.15,0,0,1,.08.14,3.18,3.18,0,0,0,.18.6s0,0-.1-.08a.42.42,0,0,1-.12-.3C50.49,19.21,50.43,19,50.47,19Zm1.62,2.48c-.22-.22-.36,0-.06.32s.54.16.46.08Zm-5.22-5.29c.06,0,.14.25.22.46s.14.31.2.48A1.09,1.09,0,0,1,46.87,16.16Zm-2.64,3.95a5.67,5.67,0,0,0,2.1,3.18c-.08-.25-1-1.08-1.44-1.82S44.39,20.31,44.23,20.11Zm.16-.38h0c.14.16.2.58.6,1.26s1.2,1.4,1.28,1.64A4.67,4.67,0,0,1,44.39,19.73Zm.14-.4h0c.14.16.22.56.58,1.2s1.1,1.28,1.16,1.51a4.36,4.36,0,0,1-1.74-2.7Zm.16-.38h0c.14.14.22.52.54,1.1s1,1.2,1.06,1.4A4.1,4.1,0,0,1,44.69,19Zm.2-.38h0c.12.12.18.48.5,1s.9,1.1.94,1.28a3.59,3.59,0,0,1-1.44-2.3Zm.2-.38h0c.1.1.18.44.46.94s.8,1,.84,1.18A3.21,3.21,0,0,1,45.09,18.19Zm.22-.38a2.83,2.83,0,0,0,1.14,1.92c0-.14-.48-.6-.72-1.06A8.63,8.63,0,0,0,45.31,17.81Zm.24-.36h0a2.36,2.36,0,0,0,1,1.72c0-.12-.4-.54-.62-.94a7.11,7.11,0,0,0-.38-.78Zm.28-.37a2.22,2.22,0,0,0,.84,1.55,7,7,0,0,0-.52-.84A6.43,6.43,0,0,0,45.83,17.08Zm.3-.32h0a1.73,1.73,0,0,0,.72,1.33c0-.1-.25-.4-.42-.72s-.19-.4-.3-.6Zm-2.42,8.41a3.18,3.18,0,0,0,.06-.43,16,16,0,0,0,2.58,3,26.94,26.94,0,0,0-2.14-2.55c-.16-.28-.3-.54-.4-.75s0-.22,0-.36a10.25,10.25,0,0,0,2.6,3.16c-.14-.36-1.38-1.36-2-2.42a6.41,6.41,0,0,1-.52-1.05v-.18a10.74,10.74,0,0,0,2.6,3.17c-.12-.36-1.4-1.4-2-2.43a9.59,9.59,0,0,1-.54-1.06v-.2a12.59,12.59,0,0,0,2.74,3.36c-.12-.33-1.56-1.6-2.16-2.57A8.11,8.11,0,0,1,44,22.75v-.28a10.23,10.23,0,0,0,2.66,3.33c-.12-.34-1.51-1.49-2.06-2.43A6.54,6.54,0,0,1,44,22.21c0-.1,0-.2,0-.3a8.17,8.17,0,0,0,2.56,3.21c-.12-.3-1.4-1.35-1.92-2.23a11,11,0,0,1-.62-1.24c0-.11,0-.23,0-.34a7.58,7.58,0,0,0,2.44,3.19c-.08-.31-1.28-1.25-1.8-2.09a7.78,7.78,0,0,1-.62-1.34V21c0-.12,0-.25,0-.38a6.72,6.72,0,0,0,2.32,3.3c-.08-.25-1.18-1.2-1.64-2a14.24,14.24,0,0,1-.68-1.42c.34-2.88,1.56-4.58,3.34-4.88l0,0a1.87,1.87,0,0,0,.2,1.16,5.56,5.56,0,0,0-.08-.82v-.3l.16,0c0,.4.16.78.34.82a1.48,1.48,0,0,1-.16-.74l.22.06c0,.42.14.88.34.9a1.25,1.25,0,0,1-.16-.82l0,0a1,1,0,0,0,.18.4c.08-.1,0-.3,0-.52a.72.72,0,0,1,.76.08c.1.12.06.18-.08.18h-.14l.32.14s.08.08-.1.1l-.12.1.42,0c.14.06.12.1.08.16l-.1.12a2.42,2.42,0,0,1,1.2.32c0,.16-.2.14-.54,0,.08.2.4.22.38.34s-.52,0-.74.3l.54,0c.12.08.08.14-.1.14.28.34.5.44.58.2s.16-.18.25,0c.34.2.4.22.2.25l-.32.06.38.06a.1.1,0,0,1,.08.12.08.08,0,0,1,0,.06c-.25,0-.28.08.2.1.2.1.28.2.2.28-.42,0-.4.08.1.12.12.06.16.14.14.2-.25.06-.22.12.1.12,0,.06.08.1,0,.16q-.45.12.12.12c0,.14.26.12.32.3.32-.06.46.16.18.16l0,.06c.46,0,.66.14.61.42,0,.12-.67-.25-.4.72l.09.1c.18,0,0-.44.29-.4,0,0,.07.16,0,.4s-.21.32-.43.18-.31-.27-.31-.43l0-.3c-.22,0-.25-.12-.28-.34,0,0-.08,0-.06-.08-.36-.06-.52.06-.62.32,0,.1-.1,0-.14-.08s-.12,0-.2,0,0-.14-.1-.12,0,.06-.12.06,0-.16-.16,0-.1.08-.12,0,.1-.3-.12,0c-.08,0-.1,0-.14-.06-.12-.34-.2-.36-.25-.06-.06.12-.13.14-.13,0-.12-.52-.14-.52-.1,0,0,.22-.08.2-.2-.06-.14-.42-.2,0-.3-.16s0-.58-.28-.68l.15.7c0,.1-.17.12-.19,0a3.45,3.45,0,0,0-.32-1l.18,1c0,.09-.2,0-.25-.07l-.25-1.2c-.06-.35-.06.64.08,1.06,0,.06-.16.06-.14,0a4,4,0,0,0-.25-1.17c-.14.14.25,1.28-.06,1.1,0,0-.15-1.17-.19-1.18s0,1.09,0,1.08c-.32-.4,0-1.49-.19-1.55,0,0-.15,1.33-.19,1.29.14,1,1,1.05.91,1.36l-.58-.31c.16.31.39.63.56,1-.19.06,0,.3.14.42-.18,0-.14.1.2.42a.18.18,0,0,1,.08.18c-.42-.1-.46-.1.22.44-.42-.06-.44,0,0,.3a.64.64,0,0,1,.2.3c0,.08-.06,0-.11,0a2.18,2.18,0,0,0-.25-.14c-.12,0,0,.14.52.56.14.12.2.22.1.25-.68-.42-.64-.32.1.32.18.28.2.4.14.44-.6-.51-1-.82,0,.22.18.18.22.3.08.32-1-.78-.48-.25.23.46,0,0,0,.1,0,.08-1-.74-1-.56,0,.54,0,.1.09.18,0,.25s-.1,0-.14,0c-.72-.68-.66-.54.16.58.12.18.18.35,0,.26-.89-1-1.18-1.25,0,.32.12.2.14.3,0,.24-.83-1.12-.85-1,0,.22.06.14.06.16,0,.14-.74-.9-1-1.12,0,.2.12.25.1.28,0,.16-.9-1.12-.92-1,0,.18.08.14.13.22,0,.16-1-1.18-1-1.14,0,.14,0,.32,0,.3-.18.14s-.1-.22-.2-.32c-.64-.78-.72-.72,0,.28-.08.08-.18.08-.3,0-.66-.86-.72-.86-.2,0L49,29.41a.82.82,0,0,0-.2-.25c-.62-.6-.84-.66-.22.12,0,0,0,0,0,.06l-.7-.12a.35.35,0,0,1-.25-.14,4.28,4.28,0,0,0-.91-1.2c0,.18.42.5.72,1,.08.32-.28.19-.4.13-.22-.3-.3-.34-.62-.73-.9-1.05-1.86-2.26-2.64-3.1Zm-.06.42h0c.74.82,1.66,2,2.51,2.95a2.72,2.72,0,0,0,.34.42c.14,0,.22.08.22,0-.2-.22-.18-.2-.54-.64-.68-.84-1.86-2.27-2.46-3,0,.1,0,.2-.07.32Zm-.1.49c.72.8,1,1.16,1.76,2.08.08.12.51.54.58.64s.44.2.28.06,0,0-.2-.3L43.63,25.7c0,.14-.06.25-.08.38Zm-.12.41c.68.79,1.3,1.49,2,2.35a.31.31,0,0,0,.28,0c-.08-.08-.56-.66-.64-.76-.58-.72-.92-1.1-1.58-1.9,0,.1,0,.2-.08.3Zm-.14.51c.52.6,1,1.12,1.56,1.78.16.08.28.08.34,0-.52-.68-1.18-1.42-1.78-2.16a2.16,2.16,0,0,1-.1.25.18.18,0,0,0,0,.1Zm-.08.64c.42.42.74.68,1.12,1.08.12.06.2.06.25,0-.46-.58-.88-1-1.34-1.6a2.28,2.28,0,0,0,0,.52Zm.08.56c.2.2.4.32.6.54a.27.27,0,0,0,.3,0c-.32-.34-.62-.54-1-.88Zm.4.52c-.3,0-.36,0-.38-.34C43.45,28.52,43.56,28.58,43.69,28.72Zm3.53-12.89a1.42,1.42,0,0,0,.32,1.22,3.79,3.79,0,0,0-.18-.66C47.3,16.14,47.28,15.87,47.22,15.83Zm.3,11a.89.89,0,0,0-.48-.7c0,.06.18.22.3.4A2.38,2.38,0,0,0,47.52,26.8Zm.08.78h0a1.5,1.5,0,0,0-.69-1.07c0,.09.28.35.44.61s.16.31.25.46Zm.08.76h0a2.09,2.09,0,0,0-.9-1.39c0,.1.36.44.56.78A5.24,5.24,0,0,0,47.68,28.34Zm0,.6a2,2,0,0,0-1-1.48c0,.13.42.47.66.9s.25.5.34.58ZM46.46,16.45A1.42,1.42,0,0,0,47,17.57a5.28,5.28,0,0,0-.3-.58c-.12-.28-.18-.51-.25-.54Z"></path> <path class="cls-5" d="M31.64,15.09c-.28-.1-.36,0-.3.32,4,5.64,10.07,13.89,17.21,23.61l0,.14.6.34-.2-.8-.12.07C43.29,31.09,36.9,22,31.65,15.08Zm-.7.32c.06.16-.06.24-.18.08a.75.75,0,0,1,.08-1,.67.67,0,0,1,.95-.14l.06,0c.2.16.14.18-.1.18-.68,0-.94.34-.82.86Zm-3-5.15c.6.74,1.17,1.44,1.8,2.27,0,.14-.05.22-.22.22-.66-.94-1.15-1.7-1.66-2.42-.09-.14,0-.16.08-.08Z"></path> <path class="cls-6" d="M42.33,16.85c-.14-.1-.2.14,0,.06l.34-.3c.16-.28.06.08.16.06a.66.66,0,0,0,.25-.54L43.4,16c.16-.14.12-.2-.1-.18a3.37,3.37,0,0,0-.74.72l-.25.32Zm-.64-.16s0,.1-.06.18a.2.2,0,0,1-.18.06.16.16,0,0,1,.06-.18Q41.63,16.66,41.69,16.69Zm-8.25-.46c-.25.08-.25.18,0,.22a.53.53,0,0,0,.25,0c.14,0,.2,0,.26.12s.22.28.32.22-.38-.38-.16-.38h.12c.34.32.66.5.64.44l-.14-.36c0-.12.14-.06.22,0l.46.4c.06.08,0-.06-.08-.32,0-.08.08-.08.16,0,.28.28.62.75.62.58V17c0-.08.1-.08.16,0s.38.38.36.3l0-.16c0-.1.06-.1.18,0l.48.4c.1.08.18,0,.14,0l-.08-.12c-.06-.1,0-.12.1,0l.44.3c.08.06.08,0,0-.2h.25c0,.14.14.18.38.28.06,0,.08,0,.2-.08l.58-.18c.18-.06.16-.18,0-.14a3.79,3.79,0,0,1-2.66-.72,3.75,3.75,0,0,0-3.08-.38Zm1-.64h0a1.17,1.17,0,0,1,1.26-.2c.54.34.74.25,1.2.6a6.74,6.74,0,0,0,1.64.8c.12,0,.1.1-.1.2-.32-.22-.56-.36-.36,0q-.06,0-.12-.06c-.36-.32-.64-.48-.84-.46-.25-.32-.38-.34-.32-.08,0,.1-.06.06-.14,0q-.45-.66-.42-.18c0,.06,0,.06-.12,0-.25-.48-.32-.51-.2,0,0,0-.08,0-.14,0-.22-.44-.24-.4-.24-.14-.34-.48-.42-.4-.34-.08-.22-.32-.32-.34-.32-.08-.18-.18-.32-.16-.46,0s-.08-.06,0-.12Zm2.27-.12a3.19,3.19,0,0,1,1.3.44c0,.06,0,.1,0,.06a.67.67,0,0,0-.42-.18c0,.18,0,.26-.06.25-.16-.28-.3-.32-.42-.25s-.06,0-.1,0c-.12-.25-.18-.25-.24-.16-.12-.1-.12-.16,0-.16ZM30,19c.3-.46.54-.6.7-.24.2-.64.42-.7.7-.14.38,0,.46.58.4,1.44l-.36-1v.62C31.23,18.61,29.7,19.23,30,19Zm2,.25c.06,0,.12.08.16.22s0,.26,0,.26-.12-.08-.16-.23A.42.42,0,0,1,32.08,19.2ZM29.8,21.37a1.16,1.16,0,0,1,.44-.38l0,.18.48-.16,0,.16.52-.28c-.3.38-.36.54-.25.54s.46-.44.58-.32c-.25.4,0,.28.42-.08.12,0-.16.32-.12.36s.2-.08.52-.3c.08-.06.25-.25.3-.16s-.1.18-.16.25c-.32.38-.24.32.32,0,.08,0,.2-.14.28-.1-.38.5-.22.4.34.06.08,0,.18-.18.28-.08-.7.62-.58.7.32.25-.42.48-.32.51.34.08.06,0,.14,0,.22,0-.3.3-.34.52-.2.44a1.4,1.4,0,0,1,.64-.18c-.28.29-.25.4.1.34.12,0,0,.19-.36.43-.06.1-.12,0-.18-.24,0,.13-.1.13-.16.06l-.08.52-.12,0v-.28q-.09-.12-.18,0l-.11.39-.19-.1a.76.76,0,0,1-.28.38c-.12-.16-.2-.12-.25,0s-.12,0-.2,0c-.06.18-.12.22-.22.1a2.28,2.28,0,0,0-.46.36l-.08-.2c-.14.2-.25.32-.34.28l-.14-.14-.22.36-.36.1c0,.1.14.1.38.06a10.36,10.36,0,0,0,1.34-.3,10,10,0,0,0,1.32-.38c.38-.18.82-.5,1.26-.72.1.08,0,.28-.82.94l-.38-.12.22.29c-.1.1-.18.15-.28.13L34,23.64l.12.38c-.25,0-.38-.32-.62-.18l.1.3L33.06,24l.1.36-.46-.2-.1.2c-.14,0-.22,0-.24.1a5.89,5.89,0,0,0,3.42-.78c.06,0,.08,0,.08.12a2.17,2.17,0,0,1-1,1.28l.16-.64c-.36.16-.75.94-1.06,1l.33-.85-1,.79c-.08-.1,0-.32.25-.6-.28,0-.75.66-.84.62s.16-.3.26-.44c-.26,0-.44.22-.66.34,0-.12.11-.25.36-.48L32,25.2c0-.14.3-.25.36-.46a2.09,2.09,0,0,1-.76.38l.25-.38-.72.36.42-.45-.72.34.2-.38-.52.34.22-.42a1.39,1.39,0,0,1-.64.37c.14-.18.25-.32.22-.42a1.31,1.31,0,0,1-.58.34l.09-.34a1.73,1.73,0,0,1-.65.42l.25-.4c0-.06,0-.14-.06-.08l-.55.43c.12-.22.18-.35.1-.42l-.38.2,0-.21-.44.48c-.06,0,0-.14.08-.36l-.46.3a1.8,1.8,0,0,1,1.18-1,8,8,0,0,1,1.54-.28,5.51,5.51,0,0,0,1.7-.42A2.9,2.9,0,0,0,33,22.7c.16-.12.1-.16-.08-.14l-.72,0v-.33l-.28.38-.06-.38-.24.66-.1-.75-.18.82-.1-.81-.3.92-.08-1-.18,1-.18-1-.12,1-.2-.94-.08.91-.25-.92,0,.95-.3-.92-.06.82-.19-.8-.09.72L29,22.29l-.1.72c-.3-.56-.42-1-.22-1.28A1.16,1.16,0,0,1,29.8,21.37Zm-2.55,4.31-.08.21c.1,0,.18-.11.28-.17l-.08.36c.12,0,.4-.28.6-.42l-.14.36c.18,0,.3-.26.44-.4l-.08.38c.22,0,.36-.3.54-.47l0,.38c.16,0,.28-.25.44-.38l.08.25c.14,0,.22-.18.34-.25l.06.24.3-.3.06.25.34-.12.1.14.28-.14,0,.31.38-.16,0,.2.28-.16V26L31.7,26l0,.25.48-.2-.16.34.42-.25-.06.28.46-.2-.25.42c.3,0,.4-.2.6-.3l-.14.38a1.63,1.63,0,0,0,.82-.62c.06.1,0,.25-.2.6a1.21,1.21,0,0,0,.6-.6l-.1.42a.89.89,0,0,0,.58-.46l0,.39a1,1,0,0,0,.36-.48c.2.08.42,0,.51-.36s0-.4-.22-.3a4.06,4.06,0,0,1-3.69.25,13.69,13.69,0,0,0-3.32-.37c-.5,0-.92.05-1.12.52Zm6.66,1.42c.08-.12.17-.18.18-.16a.45.45,0,0,1-.06.28c-.05.12-.16.16-.2.14a.35.35,0,0,1,.08-.26Zm.4-.08c.09-.14.18-.22.22-.18s0,.18-.08.32-.2.22-.25.18,0-.18.1-.32Zm.45-.26c.11-.17.25-.25.3-.21s0,.25-.13.4-.25.28-.3.22,0-.22.12-.41Zm-1.37.29c.18,0,.34.06.34.12s-.16.14-.34.14-.34,0-.34-.14.16-.12.36-.12Zm8-10.47c0-.14.52-.5,1.2-1a1.23,1.23,0,0,1,.83-.33,1.09,1.09,0,0,0,.36,0c.16.1.1.18-.08.22a.2.2,0,0,0-.25,0c-.18,0-.2.16-.32.2L43,15.57c-.25.16-.4.6-.58.82l0-.22c-.12,0-.2.28-.38.42,0-.16,0-.25-.08-.25-.3.2-.52.3-.6.22Z"></path> <path class="cls-7" d="M72.67,10h5.25v7.62h.78v3h-1v-2H72v2H71v-3h.66q1-1.58,1-6.36V10Zm4.11,1h-3v.44c0,.73-.07,1.74-.2,3a10,10,0,0,1-.78,3.15h4Z"></path> <path class="cls-7" d="M84.22,16.61l1.1.14a2.66,2.66,0,0,1-1,1.49,3.28,3.28,0,0,1-4-.31,3.36,3.36,0,0,1-.8-2.38,3.47,3.47,0,0,1,.81-2.45,2.82,2.82,0,0,1,2.11-.88,2.71,2.71,0,0,1,2.06.86,3.4,3.4,0,0,1,.79,2.41v.28H80.67a2.41,2.41,0,0,0,.58,1.58,1.76,1.76,0,0,0,1.31.55,1.65,1.65,0,0,0,1-.31,2,2,0,0,0,.66-1ZM80.73,14.9h3.49a2.12,2.12,0,0,0-.4-1.19,1.63,1.63,0,0,0-1.31-.61,1.66,1.66,0,0,0-1.23.49,1.94,1.94,0,0,0-.55,1.31Z"></path> <polygon class="cls-7" points="86.65 12.37 91.59 12.37 91.59 18.63 90.53 18.63 90.53 13.24 87.71 13.24 87.71 18.63 86.65 18.63 86.65 12.37"></polygon> <path class="cls-7" d="M97.27,17.86a4.3,4.3,0,0,1-1.13.71,3.64,3.64,0,0,1-1.17.2,2.27,2.27,0,0,1-1.59-.5A1.68,1.68,0,0,1,92.82,17a1.72,1.72,0,0,1,.21-.84,1.62,1.62,0,0,1,.55-.61,2.39,2.39,0,0,1,.76-.35,7.38,7.38,0,0,1,.94-.16,9.3,9.3,0,0,0,1.89-.37v-.27a1.15,1.15,0,0,0-.3-.92,1.79,1.79,0,0,0-1.21-.36,1.92,1.92,0,0,0-1.1.25,1.65,1.65,0,0,0-.51,1l-1-.14a2.66,2.66,0,0,1,.46-1.08,1.94,1.94,0,0,1,.94-.63,4.31,4.31,0,0,1,1.42-.23,3.84,3.84,0,0,1,1.3.2,1.65,1.65,0,0,1,.74.47,1.63,1.63,0,0,1,.33.72,6.44,6.44,0,0,1,.05,1V16a14.62,14.62,0,0,0,.07,1.87,2.5,2.5,0,0,0,.27.75H97.49a2.05,2.05,0,0,1-.21-.77Zm-.09-2.37a7.9,7.9,0,0,1-1.73.4,3.69,3.69,0,0,0-.93.21.87.87,0,0,0-.41.35.93.93,0,0,0,.17,1.21,1.43,1.43,0,0,0,.94.28,2.14,2.14,0,0,0,1.1-.27,1.6,1.6,0,0,0,.7-.73,2.58,2.58,0,0,0,.18-1.06Z"></path> <path class="cls-7" d="M99.9,21V12.37h1v.81a2.28,2.28,0,0,1,.77-.71,2.11,2.11,0,0,1,1-.26,2.49,2.49,0,0,1,2.36,1.6,4.21,4.21,0,0,1,.31,1.65,4.15,4.15,0,0,1-.35,1.73,2.59,2.59,0,0,1-2.38,1.58,2,2,0,0,1-1-.22A2.15,2.15,0,0,1,101,18V21Zm1-5.5a2.7,2.7,0,0,0,.49,1.79,1.48,1.48,0,0,0,1.18.58,1.53,1.53,0,0,0,1.22-.6,2.86,2.86,0,0,0,.5-1.85,2.63,2.63,0,0,0-.5-1.8,1.5,1.5,0,0,0-1.16-.6,1.53,1.53,0,0,0-1.21.64A2.88,2.88,0,0,0,100.86,15.53Z"></path> <polygon class="cls-7" points="105.78 12.37 110.87 12.37 110.87 13.24 108.86 13.24 108.86 18.63 107.8 18.63 107.8 13.24 105.78 13.24 105.78 12.37"></polygon> <path class="cls-7" d="M115.84,17.86a4,4,0,0,1-1.14.71,3.55,3.55,0,0,1-1.17.2,2.26,2.26,0,0,1-1.58-.5,1.68,1.68,0,0,1-.56-1.29,1.72,1.72,0,0,1,.21-.84,1.62,1.62,0,0,1,.55-.61,2.34,2.34,0,0,1,.75-.35,7.53,7.53,0,0,1,.95-.16,9.43,9.43,0,0,0,1.89-.37v-.27a1.15,1.15,0,0,0-.3-.92,1.79,1.79,0,0,0-1.21-.36,2,2,0,0,0-1.11.25,1.64,1.64,0,0,0-.52.93l-1-.14a2.57,2.57,0,0,1,.46-1.07,2.09,2.09,0,0,1,.94-.64,4.3,4.3,0,0,1,1.42-.22,3.85,3.85,0,0,1,1.31.19,1.89,1.89,0,0,1,.74.48,1.89,1.89,0,0,1,.33.72,6.37,6.37,0,0,1,0,1V16a13.13,13.13,0,0,0,.07,1.88,2.23,2.23,0,0,0,.26.75H116a2.51,2.51,0,0,1-.21-.77Zm-.09-2.37a7.9,7.9,0,0,1-1.73.4,3.69,3.69,0,0,0-.93.21.9.9,0,0,0-.42.35.93.93,0,0,0,.18,1.21,1.36,1.36,0,0,0,.94.28,2.2,2.2,0,0,0,1.09-.27,1.65,1.65,0,0,0,.7-.73,2.57,2.57,0,0,0,.17-1.06Z"></path> <polygon class="cls-7" points="118.5 12.37 120.15 12.37 121.8 17.38 123.62 12.37 125.15 12.37 125.15 18.63 124.09 18.63 124.09 13.59 122.24 18.63 121.29 18.63 119.54 13.35 119.54 18.63 118.5 18.63 118.5 12.37"></polygon> <path class="cls-7" d="M131.06,16.61l1.1.14a2.66,2.66,0,0,1-1,1.49,2.91,2.91,0,0,1-1.8.53,2.88,2.88,0,0,1-2.18-.84,3.36,3.36,0,0,1-.8-2.38,3.47,3.47,0,0,1,.81-2.45,2.82,2.82,0,0,1,2.11-.88,2.71,2.71,0,0,1,2.06.86,3.4,3.4,0,0,1,.79,2.41v.28h-4.67a2.36,2.36,0,0,0,.58,1.58,1.74,1.74,0,0,0,1.31.55,1.68,1.68,0,0,0,1-.31,2,2,0,0,0,.65-1Zm-3.48-1.71h3.5a2.12,2.12,0,0,0-.4-1.19,1.64,1.64,0,0,0-1.32-.61,1.67,1.67,0,0,0-1.23.49A1.94,1.94,0,0,0,127.58,14.9Z"></path> <polygon class="cls-7" points="133.49 12.37 134.56 12.37 134.56 14.97 137.5 14.97 137.5 12.37 138.56 12.37 138.56 18.63 137.5 18.63 137.5 15.85 134.56 15.85 134.56 18.63 133.49 18.63 133.49 12.37"></polygon> <polygon class="cls-7" points="139.59 12.37 144.68 12.37 144.68 13.24 142.66 13.24 142.66 18.63 141.6 18.63 141.6 13.24 139.59 13.24 139.59 12.37"></polygon> <path class="cls-7" d="M71.74,25.86H72.8v2.71a1,1,0,0,0,.71-.19,4.15,4.15,0,0,0,.6-1.14,5.32,5.32,0,0,1,.5-1,1,1,0,0,1,.45-.31,2.8,2.8,0,0,1,.81-.09h.22v.88h-.3a.83.83,0,0,0-.53.12,3.13,3.13,0,0,0-.38.78,3,3,0,0,1-.45.84,1.62,1.62,0,0,1-.61.43,2.61,2.61,0,0,1,1.34,1.28l1.16,1.94H75.16L74,30.19a2.46,2.46,0,0,0-.61-.75,1,1,0,0,0-.62-.19v2.87H71.74Z"></path> <path class="cls-7" d="M77.12,34.54l-.12-1a2.1,2.1,0,0,0,.61.09,1.09,1.09,0,0,0,.56-.12.8.8,0,0,0,.35-.33,5,5,0,0,0,.33-.79l.09-.25-2.38-6.27h1.15L79,29.48c.17.46.32,1,.46,1.47a14.65,14.65,0,0,1,.43-1.43l1.34-3.65H82.3l-2.38,6.37a13.67,13.67,0,0,1-.59,1.42,2.19,2.19,0,0,1-.66.76,1.48,1.48,0,0,1-.87.25A2.28,2.28,0,0,1,77.12,34.54Z"></path> <path class="cls-7" d="M83.46,25.86H88.4v6.26H87.34V26.74H84.52v3.12a9.92,9.92,0,0,1-.07,1.44,1,1,0,0,1-.39.61,1.49,1.49,0,0,1-.92.25,8.27,8.27,0,0,1-.86,0v-.88h.47a1.24,1.24,0,0,0,.47-.06.38.38,0,0,0,.19-.22,5.15,5.15,0,0,0,0-1Z"></path> <path class="cls-7" d="M90,25.86H91v2.45h1.34a3.48,3.48,0,0,1,2,.5,1.65,1.65,0,0,1,.71,1.41,1.76,1.76,0,0,1-.59,1.34,2.71,2.71,0,0,1-1.9.56H90ZM91,31.25h1.11A3,3,0,0,0,93.58,31a.82.82,0,0,0,.43-.77,1,1,0,0,0-.32-.73,2.11,2.11,0,0,0-1.4-.32H91Z"></path> <polygon class="cls-7" points="94.76 25.86 99.85 25.86 99.85 26.74 97.84 26.74 97.84 32.12 96.78 32.12 96.78 26.74 94.76 26.74 94.76 25.86"></polygon> <path class="cls-7" d="M101,34.54l-.11-1a2,2,0,0,0,.6.09,1.13,1.13,0,0,0,.57-.12,1,1,0,0,0,.35-.33,4.21,4.21,0,0,0,.32-.79,2.54,2.54,0,0,1,.1-.25l-2.38-6.27h1.14l1.31,3.63a14.5,14.5,0,0,1,.45,1.45,14.72,14.72,0,0,1,.44-1.43l1.34-3.65h1.07l-2.38,6.37a13.67,13.67,0,0,1-.59,1.42,2.27,2.27,0,0,1-.65.76,1.53,1.53,0,0,1-.88.25A2.1,2.1,0,0,1,101,34.54Z"></path> <path class="cls-7" d="M106.91,34.52V25.86h1v.82a2.34,2.34,0,0,1,.78-.72,2.1,2.1,0,0,1,1-.25,2.48,2.48,0,0,1,1.42.41,2.56,2.56,0,0,1,.92,1.16,4.29,4.29,0,0,1,.32,1.65,4.09,4.09,0,0,1-.35,1.73,2.61,2.61,0,0,1-2.39,1.59,2,2,0,0,1-1-.22,2.11,2.11,0,0,1-.69-.57v3Zm1-5.49a2.73,2.73,0,0,0,.49,1.79,1.54,1.54,0,0,0,1.18.58,1.59,1.59,0,0,0,1.22-.6,2.91,2.91,0,0,0,.5-1.86,2.75,2.75,0,0,0-.49-1.79,1.48,1.48,0,0,0-1.18-.6,1.52,1.52,0,0,0-1.2.64A2.8,2.8,0,0,0,107.87,29Z"></path> <path class="cls-7" d="M119.59,25.86h1.06v6.26h-1.06Zm-5.94,0h1.07v2.45h1.35a3.45,3.45,0,0,1,2,.5,1.66,1.66,0,0,1,.72,1.41,1.8,1.8,0,0,1-.6,1.34,2.7,2.7,0,0,1-1.89.56h-2.66Zm1.07,5.39h1.12a3,3,0,0,0,1.44-.25.82.82,0,0,0,.43-.77,1,1,0,0,0-.32-.73,2.12,2.12,0,0,0-1.41-.32h-1.26Z"></path> <polygon class="cls-7" points="71.75 39.36 75.36 39.36 75.36 40.23 72.81 40.23 72.81 45.62 71.75 45.62 71.75 39.36"></polygon> <path class="cls-7" d="M75.49,42.49a3.22,3.22,0,0,1,1-2.58,2.89,2.89,0,0,1,2-.7,2.79,2.79,0,0,1,2.11.85,3.19,3.19,0,0,1,.82,2.34A4.05,4.05,0,0,1,81,44.31a2.54,2.54,0,0,1-1,1.08,3.16,3.16,0,0,1-1.51.38,2.83,2.83,0,0,1-2.13-.84,3.36,3.36,0,0,1-.81-2.43Zm1.09,0a2.67,2.67,0,0,0,.53,1.8,1.75,1.75,0,0,0,2.47.17l.16-.17a2.75,2.75,0,0,0,.53-1.84,2.61,2.61,0,0,0-.53-1.76,1.75,1.75,0,0,0-2.47-.17,1.29,1.29,0,0,0-.16.17A2.67,2.67,0,0,0,76.58,42.49Z"></path> <path class="cls-7" d="M82.61,48V39.36h1v.81a2.41,2.41,0,0,1,.77-.72,2.11,2.11,0,0,1,1-.24,2.46,2.46,0,0,1,1.41.42,2.53,2.53,0,0,1,.93,1.16A4.21,4.21,0,0,1,88,42.44a4.12,4.12,0,0,1-.35,1.73,2.6,2.6,0,0,1-2.38,1.59,2.07,2.07,0,0,1-1-.22,2.28,2.28,0,0,1-.7-.57V48Zm1-5.5a2.77,2.77,0,0,0,.49,1.79,1.52,1.52,0,0,0,2.4,0A2.83,2.83,0,0,0,87,42.43a2.71,2.71,0,0,0-.51-1.79,1.51,1.51,0,0,0-1.17-.6,1.56,1.56,0,0,0-1.21.64,2.94,2.94,0,0,0-.51,1.84Z"></path> <path class="cls-7" d="M88.92,42.49a3.25,3.25,0,0,1,1-2.58,2.91,2.91,0,0,1,2-.7,2.79,2.79,0,0,1,2.11.85,3.15,3.15,0,0,1,.82,2.34,4,4,0,0,1-.36,1.91,2.54,2.54,0,0,1-1.05,1.08,3.23,3.23,0,0,1-1.52.38,2.82,2.82,0,0,1-2.12-.84,3.36,3.36,0,0,1-.81-2.43Zm1.1,0a2.67,2.67,0,0,0,.52,1.8,1.75,1.75,0,0,0,2.47.17l.17-.17a2.75,2.75,0,0,0,.52-1.84,2.61,2.61,0,0,0-.52-1.76,1.76,1.76,0,0,0-2.47-.17l-.17.17a2.67,2.67,0,0,0-.52,1.8Z"></path> <path class="cls-7" d="M96.61,39.36H101v5.39h.68V47.4h-.87V45.62H95.85V47.4H95V44.75h.56q1.11-1.52,1.07-5.39Zm.89.87a10.38,10.38,0,0,1-1,4.52h3.37V40.23Z"></path> <path class="cls-7" d="M106.91,44.85a4.46,4.46,0,0,1-1.14.71,3.55,3.55,0,0,1-1.17.2,2.3,2.3,0,0,1-1.59-.5,1.78,1.78,0,0,1-.08-2.5,1.68,1.68,0,0,1,.29-.24,2.44,2.44,0,0,1,.75-.35,6.28,6.28,0,0,1,1-.16,9.3,9.3,0,0,0,1.89-.37v-.27a1.15,1.15,0,0,0-.3-.92,1.79,1.79,0,0,0-1.21-.36,1.92,1.92,0,0,0-1.1.25,1.61,1.61,0,0,0-.52.94l-1-.14a2.46,2.46,0,0,1,.47-1.07,2,2,0,0,1,.94-.64,4.3,4.3,0,0,1,1.42-.22,3.83,3.83,0,0,1,1.3.19,1.73,1.73,0,0,1,.74.48,1.63,1.63,0,0,1,.33.72,6.37,6.37,0,0,1,0,1V43a16.88,16.88,0,0,0,.07,1.88,2.5,2.5,0,0,0,.27.75h-1.11a2.05,2.05,0,0,1-.21-.77Zm-.09-2.38a7.39,7.39,0,0,1-1.73.41,3.69,3.69,0,0,0-.93.21.9.9,0,0,0-.42.35.87.87,0,0,0-.15.5,1,1,0,0,0,.32.71,1.45,1.45,0,0,0,.94.28,2.11,2.11,0,0,0,1.1-.27,1.65,1.65,0,0,0,.7-.73,2.57,2.57,0,0,0,.17-1.06Z"></path> <path class="cls-7" d="M113,45.62V37h1.73l2,6.12c.19.57.33,1,.41,1.29.1-.32.25-.78.46-1.39l2.07-6h1.54v8.65h-1.11V38.38l-2.52,7.24h-1l-2.49-7.36v7.36Z"></path> <path class="cls-7" d="M122.69,42.49a3.25,3.25,0,0,1,1-2.58,2.91,2.91,0,0,1,2-.7,2.79,2.79,0,0,1,2.11.85,3.19,3.19,0,0,1,.82,2.34,4.16,4.16,0,0,1-.36,1.9,2.54,2.54,0,0,1-1,1.08,3.23,3.23,0,0,1-1.52.38,2.82,2.82,0,0,1-2.12-.84,3.36,3.36,0,0,1-.81-2.43Zm1.1,0a2.67,2.67,0,0,0,.52,1.8,1.74,1.74,0,0,0,2.47.16,1.29,1.29,0,0,0,.17-.16,2.75,2.75,0,0,0,.52-1.84,2.61,2.61,0,0,0-.52-1.76,1.76,1.76,0,0,0-2.47-.17,1.37,1.37,0,0,0-.17.17,2.62,2.62,0,0,0-.51,1.8Z"></path> <path class="cls-7" d="M133.9,43.32l1,.14a2.71,2.71,0,0,1-.88,1.69,2.53,2.53,0,0,1-1.73.61,2.66,2.66,0,0,1-2.06-.84,3.37,3.37,0,0,1-.79-2.41,4.42,4.42,0,0,1,.34-1.76,2.38,2.38,0,0,1,1-1.15,3.15,3.15,0,0,1,1.5-.38,2.63,2.63,0,0,1,1.67.52,2.4,2.4,0,0,1,.83,1.47l-1,.16a1.72,1.72,0,0,0-.52-.95,1.34,1.34,0,0,0-.91-.32,1.61,1.61,0,0,0-1.3.57,2.71,2.71,0,0,0-.51,1.82,2.75,2.75,0,0,0,.49,1.82,1.6,1.6,0,0,0,1.26.57,1.52,1.52,0,0,0,1-.38A1.93,1.93,0,0,0,133.9,43.32Z"></path> <path class="cls-7" d="M135.84,39.36h1.07v2.7a1,1,0,0,0,.71-.19,4.9,4.9,0,0,0,.6-1.13,3.94,3.94,0,0,1,.5-1,1,1,0,0,1,.45-.32,2.46,2.46,0,0,1,.81-.08h.2v.87h-.29a.8.8,0,0,0-.54.13,3.68,3.68,0,0,0-.38.77,3.12,3.12,0,0,1-.44.85,1.82,1.82,0,0,1-.62.43,2.56,2.56,0,0,1,1.35,1.27l1.16,1.94h-1.17l-1.13-1.94a2.66,2.66,0,0,0-.61-.77,1,1,0,0,0-.61-.18v2.89h-1.07Z"></path> <path class="cls-7" d="M141.14,39.36h2.45a4.35,4.35,0,0,1,1.34.15,1.59,1.59,0,0,1,.76.55,1.49,1.49,0,0,1,.31,1,1.47,1.47,0,0,1-.74,1.34,1.47,1.47,0,0,1,.73.55,1.56,1.56,0,0,1,.29,1,1.69,1.69,0,0,1-.63,1.32,2.78,2.78,0,0,1-1.68.43h-2.83ZM142.2,42h1.13a4.12,4.12,0,0,0,.93-.07,1,1,0,0,0,.46-.28.74.74,0,0,0,.2-.51.71.71,0,0,0-.35-.69,2.59,2.59,0,0,0-1.2-.19H142.2V42Zm0,2.76h1.4a2.57,2.57,0,0,0,1.24-.21.82.82,0,0,0,.35-.72.87.87,0,0,0-.2-.56.86.86,0,0,0-.5-.33,5.65,5.65,0,0,0-1-.06H142.2Z"></path> <path class="cls-7" d="M153.51,39.36h1.06v6.26h-1.06Zm-5.94,0h1.07V41.8H150a3.4,3.4,0,0,1,2,.51,1.62,1.62,0,0,1,.71,1.4,1.76,1.76,0,0,1-.59,1.34,2.68,2.68,0,0,1-1.9.56h-2.65Zm1.07,5.39h1.11a3,3,0,0,0,1.44-.26.81.81,0,0,0,.43-.76,1,1,0,0,0-.32-.73,2.06,2.06,0,0,0-1.41-.32h-1.26Z"></path> </svg> 