<?xml version="1.0" encoding="UTF-8"?> <svg xmlns="http://www.w3.org/2000/svg" id="Слой_1" data-name="Слой 1" width="1200" height="64.76" viewBox="0 0 1200 64.76"> <defs> <style>.cls-1{fill:#ebe5df;}.cls-2,.cls-7{fill:#1e0f00;}.cls-2,.cls-3,.cls-4,.cls-5,.cls-6{fill-rule:evenodd;}.cls-3{fill:#9e2f34;}.cls-4{fill:#fff;}.cls-5{fill:#d7aa26;}.cls-6{fill:#009ad9;}</style> </defs> <title>1Монтажная область 22 копия</title> <rect class="cls-1" x="-32.39" y="-15.01" width="1674.42" height="110.51"></rect> <polygon class="cls-2" points="20 7 62.73 7 62.73 46.99 62.71 47.39 62.69 47.79 62.65 48.2 62.59 48.58 62.52 48.96 62.41 49.33 62.31 49.67 62.2 50.03 62.05 50.38 61.9 50.72 61.71 51.02 61.53 51.34 61.31 51.64 61.09 51.92 60.85 52.17 60.59 52.44 60.33 52.68 60.03 52.92 59.73 53.14 59.41 53.34 59.07 53.52 58.73 53.7 58.37 53.86 57.97 54 57.59 54.12 57.17 54.24 56.75 54.34 56.29 54.4 55.85 54.48 55.37 54.52 54.89 54.54 54.39 54.56 49.42 54.56 49.08 54.56 48.74 54.58 48.4 54.58 48.08 54.62 47.76 54.64 47.46 54.68 47.16 54.74 46.86 54.78 46.58 54.84 46.3 54.9 46.02 54.98 45.74 55.06 45.48 55.14 45.24 55.22 44.98 55.32 44.74 55.42 44.5 55.52 44.28 55.64 44.04 55.74 43.82 55.86 43.62 55.98 43.4 56.1 43.2 56.24 43 56.38 42.8 56.52 42.6 56.66 42.42 56.8 42.24 56.96 42.06 57.12 41.88 57.26 41.72 57.42 41.36 57.76 41.02 57.42 40.84 57.26 40.66 57.12 40.48 56.96 40.3 56.8 40.12 56.66 39.91 56.52 39.72 56.38 39.52 56.24 39.31 56.1 39.12 55.98 38.89 55.86 38.66 55.74 38.44 55.64 38.22 55.52 37.97 55.42 37.73 55.32 37.47 55.22 37.23 55.14 36.95 55.06 36.69 54.98 36.43 54.9 36.15 54.84 35.85 54.78 35.55 54.74 35.25 54.68 34.95 54.64 34.63 54.62 34.31 54.58 33.97 54.58 33.63 54.56 33.27 54.56 28.33 54.56 27.83 54.54 27.35 54.52 26.86 54.48 26.41 54.4 25.96 54.34 25.54 54.24 25.13 54.12 24.72 54 24.36 53.86 23.98 53.7 23.62 53.52 23.3 53.34 22.98 53.14 22.68 52.92 22.38 52.68 22.12 52.44 21.86 52.17 21.62 51.92 21.4 51.64 21.18 51.34 21 51.02 20.82 50.72 20.66 50.38 20.52 50.03 20.4 49.67 20.28 49.33 20.2 48.96 20.12 48.58 20.06 48.2 20.02 47.79 20 47.39 20 46.99 20 7"></polygon> <path class="cls-3" d="M20.25,7.25h42.2V47c0,4.29-2.74,7.31-8.06,7.31h-5a10.72,10.72,0,0,0-8.06,3.11,10.79,10.79,0,0,0-8.07-3.11h-5c-5.33,0-8.09-3-8.09-7.31Z"></path> <path class="cls-2" d="M29,9.86c-.26,0-.36.22-.32.52l1.78,2.52c.06.12.18.24.16.34-.14.35-.2.56.1.87l.6.58a1.69,1.69,0,0,0,.28.88c-.14.28,0,.54.28.8.06.08.08.18.18.25l.1.86A4,4,0,0,0,30.79,19c0,.18-.08.32,0,.42L32,19.32c.1.06.22.08.25.16a.86.86,0,0,1-.49,1.11l-.21.05c-1.46.36-2.52.86-2.1,1.84.54.7.25,1.32-.66,1.88a.87.87,0,0,0-.28.8,2.86,2.86,0,0,0-.64.94c-.14.4-.14.59.14.55,2-.68,4-1,5.46.22.7.58.58.88,1.68.94-.12.46,0,.72.4.8l.07.53c-.44.1-.94.1-1.38.22a7,7,0,0,1-1.42.32,11.8,11.8,0,0,0-1.18-.7c-1.85-1.14-3.39-1.2-4.73.36A9.83,9.83,0,0,0,25.06,33c-.1.3-.34.42-.82.14-1-.78-1.14-1.48-.66-1.94.68-.64.94-.25.58.08l0,.08c.52,0,.72.36.92.74a2.15,2.15,0,0,0-.42-2.54l-.14,0,.06,1a1.42,1.42,0,0,0-1.72,1.36c-.08.77.28,1.4,1.24,2,.54.18.7.8.28,1.42-1,1.52-.88,3.15.06,5.23l.12-.06c.2-2.29.68-3.45,1.44-3.67a1.32,1.32,0,0,0,.66-.5c.22-.34.34-.3.5.06a2.81,2.81,0,0,1-.19,2.8c-1.33,2.14-1.39,3.79.5,5.09l.06.16-.5.64c-.17.25,0,.58.4.94A3.55,3.55,0,0,1,28,47.73a1,1,0,0,0-.08.88,2.05,2.05,0,0,0,1.92.52c.1,0,.08-.1.08-.2.08-.44-.22-.76-.54-1.3a2.09,2.09,0,0,1-.84-2.42l.14-.22a14.63,14.63,0,0,0,2.54.68,2.5,2.5,0,0,0,0,2.2,2.33,2.33,0,0,0,2.46,1.42c1.62-.14,2.42-1.48,1.82-3.3.58-.32,1-.3,1.16.06,0,.82.34.56.36,1.36-1,.84-1.32,1.56-.28,2,.54.54.24.74-.46.78-.74-.18-1.28-.14-1.38.46-.68,0-.88.44-.86,1.08.2-.48.58-.52.78-.4a3.1,3.1,0,0,0,1.06-.06,1.18,1.18,0,0,1,1,0,.46.46,0,0,1,.44.25c.48.5.42-.06,1.49.58.25,0,.69,0,.78.42l.1-.38a.34.34,0,0,0-.12-.44c-.35-.4.19-.42,1.14-.25a2.5,2.5,0,0,0,1.32.25c.42-.42.52-.16.6.4.3-.82.1-1.26-.72-1.3.14-.44.2.22.5-.32.25-.12.52,0,.78.25.06-.4-.18-.64-.7-.75-.12-.34-.38-.36-.74,0-1.51-.4-1.68-1.32-.82-1.52.46-.11.64.37,1,.51a3.08,3.08,0,0,0,.8.1,2,2,0,0,1,1.06.28l.3.1c.16-.12.32-.1.52.08s.44.36.64.1c.6-.48,1.51-.48,1.44-.18s.06.6.22.56.2.2.2.52c-.58,0-1,.08-1,.5-.54.16-.52.54-.28,1-.06-1,.76-.18,1.56-.7l.56-.06c.06.28.32.4.82.38a3.52,3.52,0,0,1,.64-.09,2,2,0,0,1,2.35.6.72.72,0,0,0-.06-.75c.67-.46,1.42-.28,1,.46.4-.2.8-1.22.28-1.2.22-.6,1.12-.1.86.34.38-.2.44-.51,0-.88q-.09-.51-.84-.3c-.28-.48-.64-.51-1.13-.08-.47.22-.86.25-1.09-.08s-.21-.62.15-.48c.19.06.26-.16.49-.58.07-.19.25-.32.35-.56.53-.08.95-.55,1.49-1.47.38-.17.56-.92.58-2.08.16.08.36,0,.62-.14-.18,0-.25-.08-.25-.54h.5c.2-.08.28-.16.25-.25s-.2-.06-.34-.28a1.58,1.58,0,0,0-.52-.84l-.48-.78c-.34-1.08-.74-1.7-1.24-1.3l-.14-.08a4.69,4.69,0,0,1-.88-1.61c0-.75-.78-.8-1.2-.07l-.12-.61-.2.32-1.26-1.82c.14,0,.38-.16.52-.18a11.3,11.3,0,0,0,4.66-1.46l1.12-.34a.68.68,0,0,1,.92.22L57,36a.55.55,0,0,1,.1.7c-.12.25.17.56.56.9a1.38,1.38,0,0,1,.09,1.63c-.18.44-.15.72.11.86l.79.56c.51.42.78.28.75-.46A2.62,2.62,0,0,0,59,39.05a3,3,0,0,1-.46-1.36c0-.93-.14-1.41-.52-1.73a6.16,6.16,0,0,1-1.12-1.42c-.1-.3-.18-.48-.34-.56,0-1-.74-1.44-1.18-1.18a3.13,3.13,0,0,1-1.14.06v-.22a12.56,12.56,0,0,0,2.22-2.12c.32-.4.48-.25.8.08l1.24,1.3c0,.64.06,1.06.51,1,.3.52.44,1,.16,1.24s-.51.4-.51.74c.06.5.64,1,1.28,1.26a.21.21,0,0,0,.21-.1,2.1,2.1,0,0,0,0-1.48l-.22-.74a3.86,3.86,0,0,1,0-.76,1.14,1.14,0,0,0-.54-1.34,15.29,15.29,0,0,1-2-2.48c0-1.14-1-1.44-1.58-.2l-1.2.84c-.3.2-.5-.12-.5-.44-.13-1.52-1.15-2.7-2.27-3.87-.6-1.82-1.42-3.34-1.72-4.74a4.43,4.43,0,0,1,2.34.68c.5.54,1.14.82,1.3.44.06-.12-.3-.34-.48-.52a1.29,1.29,0,0,1,.74.46c.5,0,.66-.38.52-.9.06-.42,0-.74-.14-.88L54,19.89a13.05,13.05,0,0,1-1.76-2.36.46.46,0,0,1-.08-.25,1.17,1.17,0,0,0-.44-1l.15-.08,0-.12.36.08-.36-.6c-.19-.74-.88-.87-1.9-.57-.14.05-.32-.11-.5-.31-.64-.62-1.32-1-1.08-.51,0,.08.25.3,0,.28l-1.1-.18c-.24,0-.28,0-.22.16a2.24,2.24,0,0,1,.48.66l-1.4.08a5.26,5.26,0,0,1-.78.12c-.76-.64-1.71-.16-2.69.58l-.14-.06,0-1.14h.14l-.1-.74h.08a3.11,3.11,0,0,0-.56-2.34c-.08-.34.25-.3.34-.4a1.66,1.66,0,0,0,.3-1.1c-.06-.48-.22-.64-.46-.48H42a1.07,1.07,0,0,1-.66-.28.77.77,0,0,0-.92,0c-1.44.36-1.7,1.49-3.46.72-.2,0-.26.06-.16.22a2.91,2.91,0,0,0,1.18.87,1.79,1.79,0,0,1-1,.09,2.05,2.05,0,0,0,1.78.58,1.28,1.28,0,0,0,1.18-.06c.25-.14.25-.06.1.25a3.27,3.27,0,0,0-.84,2.47,2.33,2.33,0,0,0-.34.92c-.66-.18-1.24-.3-1.48-.1l-.25,0a1.32,1.32,0,0,0-1.61-.12l-1,.78c-.39.25-.71.28-.76,0L33.31,15c0-.65-.22-.94-.66-1a1.06,1.06,0,0,1-.38-.63L32,13c.1-.33,0-.46-.28-.46a1.19,1.19,0,0,1-.64-.13ZM27.55,34.7h0c.82-3.1,2.18-4.76,4.42-4.14-.88,1-1.5,2.72-1.36,5.72.08,1.41.32,2.27-.51,3.13s-1.34.68-1.46,1.58a6.08,6.08,0,0,1-.38,1.51c-.58-.32-.64-1-.2-2.06a4.65,4.65,0,0,0-.52-5.73Zm5.84,11.89c.32.14.32.44-.08.62C33,47.09,33,46.83,33.39,46.59Zm5.12,2.1h0a.58.58,0,0,0,.18.4.35.35,0,0,1,.13.48l-.06.08-.45-.38C38.2,49,38.29,48.86,38.51,48.69ZM49,49.57h0c.12.34.68.57.28.64,0,.1-.16.08-.38-.05S48.65,49.76,49,49.57ZM37.65,43.11c-.72-.74-.81-1.4,0-2a10.8,10.8,0,0,0,2-2.18,15.16,15.16,0,0,0,1.62-.26A16.82,16.82,0,0,0,47.33,37a.54.54,0,0,1,.7.2L49.36,39l-.38.14,1,.76c-.18.14,0,.24.16.32-.12.18,0,.36.14.34.08.25.26.6-.25.1-.32-.16-.36,0-.1.51l.54.78a1.43,1.43,0,0,0,.46.92l.44.9a1.42,1.42,0,0,0,.12.4c.06.34.14.52.42.56A3,3,0,0,1,50.67,46c-1.18.64-2.12.38-2-1.18.06-.84.21-1.54.25-2.4.34-1.34,0-2-1.14-2.1a2.72,2.72,0,0,0-1.41.25c-.34.23-.78.14-1.4-.22A5.6,5.6,0,0,0,42.26,39a1.48,1.48,0,0,1,.28,2c.48.22.46.44,0,.66a13,13,0,0,1-3.87-.56c-.43-.08-.52,0-.21.24,1,.4,1.54,1,1.54,1.84a10.57,10.57,0,0,0-1.49.12.6.6,0,0,1-.86-.18Zm-8.19,0a2.55,2.55,0,0,1,2.28-2,17.49,17.49,0,0,0,3.9-1.51c.6-.44.69-.25.26.62l-.68.78a.74.74,0,0,0,.06,1.22c.68.34,1,.66.86.95a2,2,0,0,0-2,.42,2.27,2.27,0,0,0-1.63.28,1.53,1.53,0,0,0-1.24-.08c-.12-.3-.46-.38-1-.28a1.42,1.42,0,0,0-.75-.38Z"></path> <path class="cls-4" d="M58,36.44s.14,0,.2.14.1.26.06.26a.26.26,0,0,1-.2-.17c-.06-.12-.1-.22-.06-.23Zm.28,1.62c.06,0,.12.18.12.38s-.06.38-.12.38-.12-.17-.12-.38S58.19,38.06,58.27,38.06Zm-.42,1.45.2-.42c.1-.14.18-.14.24,0l.48.45c-.1.1-.32.1-.48.14l.16.25-.16.08-.06.22c-.3-.24-.48-.46-.38-.7Z"></path> <path class="cls-4" d="M59.43,34.2l.1-.46c0-.12.06-.1.12,0a1.33,1.33,0,0,1,.34.76c0,.13,0,.22-.08.23a.35.35,0,0,1-.32-.14.42.42,0,0,1-.16-.38Zm-.16-1.58c-.2-.24-.16-.38.1-.36-.25-.38,0-.46.25-.06a1.58,1.58,0,0,1,.1,1c0,.12-.16.16-.19,0a2.24,2.24,0,0,0-.26-.54Zm0,1.86c-.06-.06-.12,0-.18,0-.22.25-.25.46-.14.64l.44.34c.14.12.3.06.22-.06l-.16-.22c.1,0,.18.14.28.14s.1-.12,0-.2-.2-.22-.1-.32,0-.08,0-.12Z"></path> <path class="cls-4" d="M54.91,31.34a3.82,3.82,0,0,1,.25-1.16c.06-.18.14-.2.24-.1.36-.58.28-.26.12.18l.1.06c.44-.82.25-.16.22.2-.32.4-.54.48-.64.2l-.1.52c-.08.24-.14.28-.18.1Zm-2.32-.62c-.08-.38,0-.44.18-.08a4.94,4.94,0,0,1,.32,2c0,.3-.24.32-.26,0a14.1,14.1,0,0,0-.25-1.94Zm-.26-1.32c.14,0,.32.14.36.36a.43.43,0,0,1-.17.48c-.13,0-.32-.12-.38-.36a.37.37,0,0,1,.2-.48Zm-.54,1s.12,0,.18.14.06.22,0,.25-.12,0-.18-.16-.06-.2,0-.22Zm1.84.16s.12.06.19.16,0,.2,0,.22-.13,0-.17-.14S53.59,30.56,53.63,30.54Zm2.91-1.4a.35.35,0,0,1,0-.5.32.32,0,0,1,.44-.07c.12.07.16.15.16.21l-.25.07.3.09c.16.14,0,.4-.12.18a.3.3,0,0,0-.4-.06c0,.18,0,.22-.14.08ZM54.42,31.6l.11-.78-.13.28c-.13,0-.15-.12-.17-.36s0-.38.17-.32l.1.25.07-.18c.15-.08.17,0,.1.25l0,.86c-.08.12-.13.34-.21,0Zm-2.89-2.14.08-.06a0,0,0,0,1,.07,0s0,0,0,0l.3.38a.06.06,0,0,1,0,.08l-.08.06a0,0,0,0,1-.07,0s0,0,0,0l-.32-.38a0,0,0,0,1,0-.07Zm2,3s0,0,0,.08,0,.08,0,.08a.08.08,0,0,1-.07-.08A.07.07,0,0,1,53.52,32.42Zm-1.17-3.34c0-.84.12-1.51.12-2.14,0-.26.18-.26.18,0a11.64,11.64,0,0,1-.12,2C52.53,29.12,52.35,29.3,52.35,29.08Z"></path> <path class="cls-4" d="M27.69,45.27c-.14.54-.74.25-.44-.22a8.87,8.87,0,0,0,1.6-4c0-.58.4-.84.86-1.1A2.58,2.58,0,0,0,31,37.41c-.22-4.52,1-6.5,3-7.28l-.06.18c-1.74,1.06-2.46,3.1-2.48,5.88a12.56,12.56,0,0,0,0,1.94l.06-.13a30.69,30.69,0,0,1,.25-4,5.16,5.16,0,0,1,.9-2.16,4.14,4.14,0,0,1,.34-.48c.16-.16.34-.2.48-.34l0,.14A5.39,5.39,0,0,0,32,33.75,15.61,15.61,0,0,0,31.79,38a1.59,1.59,0,0,1-.14.56l.08,0a1.85,1.85,0,0,0,.18-.86,10,10,0,0,1,.66-5,3.85,3.85,0,0,1,2-2l0,.14c-1.09.74-2.1,1.6-2.31,4.54l.06-.06c.21-2.22,1-3.87,2.49-4.47a4.78,4.78,0,0,1,1.82-.18l-.12.11a3.15,3.15,0,0,0-2.72,1.07l.12,0A2.68,2.68,0,0,1,36.57,31l-.08.16a2.55,2.55,0,0,0-2,.62v.08a2.53,2.53,0,0,1,1.9-.56c.21,0,.26.18.21.42l-.13,1.1a11.89,11.89,0,0,1-.34,3l-.1.08.1-1.84-.42,2.27c0,.25-.22.22-.18,0,.1-.48.25-1.14.36-1.84a.24.24,0,0,0-.2.22,5.46,5.46,0,0,1-.5,2.06,9.68,9.68,0,0,0,.25-1.86l-.12.1L35,36.71c.22.12-.06.3-.14.08l.1-1-.08,0-.42,1.54.14-1.06-.36,1.06h-.14l.18-.9-.6,1.64c-.18,0-.21,0-.06-.3L34,36.67l-.12,0c-.26.82-.43,1.4-.73,1.58l-.09,0a3.22,3.22,0,0,0,.5-1.46,3.81,3.81,0,0,1-.84,1.62c-.06-.06,0-.25.25-.68l.22-.58c-.1-.12-.16-.08-.22.1a2.81,2.81,0,0,1-.54,1.16l.26-1-.05-.12a2.92,2.92,0,0,1-.75,1.38l.16.08c.54-.36,1.28-.24,2-.58.16-.08.32-.12.42,0l-.14.38-.14-.22a1.31,1.31,0,0,1-.36.7l-.06-.44c-.32.7-.54,1.08-.56.74l.06-.42a1.61,1.61,0,0,0-.46.87c-.12,0-.14-.26-.1-.61l-.2.74c-.18,0-.22-.16-.12-.6a3,3,0,0,1-.35.74.78.78,0,0,1,0-.58l-.2.38c0,.28-.08.38-.2.36.06-.42.06-.58,0-.49l-.25.65c-.14.08-.18-.08-.16-.44-.22.12-.16.56-.32.74-.13-.08-.14-.28-.13-.51-.09.34-.19.55-.33.57l0-.67a2.42,2.42,0,0,1-.26.74L30,40.34l-.08.47c-.14.07-.25,0-.34-.35,0,.63-.08,1.15-.48,1.41a2.61,2.61,0,0,1-.38,1.06l.64-.94c.14,0,.2,0,.14.34l-.66,1.08c-.1.12-.22.08-.34,0a4.1,4.1,0,0,1-.62,1.28,2.33,2.33,0,0,0,.68-1.08c0-.16.22,0,.16.36l-.16.14,0,.24-.2,0v.32l-.18.08c.18.44,0,.72-.48.51Z"></path> <polygon class="cls-4" points="31.45 30.2 32.23 30.06 32.19 30.22 31.45 30.2"></polygon> <path class="cls-4" d="M24.16,36.3a5.12,5.12,0,0,1,.62-1.06c.16-.25.22-.08.2.16A3.07,3.07,0,0,1,24.16,36.3Z"></path> <path class="cls-4" d="M32.35,29.84c-1.28-1.14-2.54-1.74-3.48-1.54-1.78.4-2.64,2-3.16,3.6.3-.52.56-.86.88-1a8.88,8.88,0,0,0-1.46,4.46,1.17,1.17,0,0,1-.32.52,1.55,1.55,0,0,0-.63,1.1,3.45,3.45,0,0,0,.45-.56,2.74,2.74,0,0,0,.64-1.14c.18-.7.25-1.4.4-1.92a6.89,6.89,0,0,1,.75-1.74,5.82,5.82,0,0,1,2.4-2.42v.08a6.38,6.38,0,0,0-2.32,2.44,7.1,7.1,0,0,0-.46,1,4.39,4.39,0,0,0-.36,1.32,4.68,4.68,0,0,1-.68,2.2,5.16,5.16,0,0,0-.58.8,1,1,0,0,0-.1.48c.7-1.32,1-1.2,1.32-2.14.42-1.44.14-2.92,2.06-5h.15A7.07,7.07,0,0,0,26,34.6a3.86,3.86,0,0,1-.28,1.16c-.23.47-.74.82-.88,1.28l.1,0a4.92,4.92,0,0,0,.9-1.18c.59-1.12.39-2.62,1.13-3.82,1-1.57,1.7-2.4,2.88-2.86l.14,0a6.07,6.07,0,0,0-2.6,2.44,3.8,3.8,0,0,0-.62,1.24,11.72,11.72,0,0,0-.4,1.94,3.38,3.38,0,0,1-.75,1.68,6.36,6.36,0,0,0-.45.52,3.12,3.12,0,0,0-.31.76l.1,0c.44-1.18.7-.92,1-1.32a2.91,2.91,0,0,0,.54-1.28,7.53,7.53,0,0,1,.76-2.8,7.9,7.9,0,0,1,1.82-2.39,2.76,2.76,0,0,1,1.06-.58h.1a8.36,8.36,0,0,0-1.32.86,7.25,7.25,0,0,0-1.66,2.43,8.7,8.7,0,0,0-.62,2.52c0-.12.08.06.12,0a8.25,8.25,0,0,1,2-4.49,3.85,3.85,0,0,1,1.72-1.08l.38,0a3.86,3.86,0,0,0-2.36,1.64l.12,0A4.54,4.54,0,0,1,31,29.71l.12,0a4,4,0,0,0-1.3.66l0,.13a5.59,5.59,0,0,1,2.5-.69Z"></path> <path class="cls-4" d="M24.34,38.59a1,1,0,0,1-.14-.51c0-.24.2-.22.24-.06s-.1.32-.1.56Z"></path> <path class="cls-4" d="M26.67,40.73l.19-.22a.32.32,0,0,1,.3,0c0,.1-.25.2-.5.25Z"></path> <path class="cls-4" d="M26.48,41.35l.26-.28a.38.38,0,0,1,.41-.06c0,.12-.31.25-.68.34Z"></path> <path class="cls-4" d="M26.5,41.67l.31-.25a.43.43,0,0,1,.44,0,1.38,1.38,0,0,1-.75.29Z"></path> <path class="cls-4" d="M26.58,42l.28-.25a.44.44,0,0,1,.43,0,1.06,1.06,0,0,1-.71.25Z"></path> <path class="cls-4" d="M26.73,42.25l.17-.2a.32.32,0,0,1,.3,0C27.18,42.09,27,42.19,26.73,42.25Z"></path> <path class="cls-4" d="M27.75,39.05l.16-.1a.2.2,0,0,1,.22,0C28.11,39,27.93,39.05,27.75,39.05Z"></path> <path class="cls-4" d="M27.48,39.39l.35-.16a.42.42,0,0,1,.4.1C28.15,39.43,27.85,39.44,27.48,39.39Z"></path> <path class="cls-4" d="M27.69,38.56l.25-.19a.38.38,0,0,1,.36,0c-.06.1-.32.15-.62.19Z"></path> <path class="cls-4" d="M27.89,38.08l.25,0a.32.32,0,0,1,.28.13c-.06.06-.3,0-.54-.08Z"></path> <path class="cls-4" d="M27.33,43.47l.17-.1a.36.36,0,0,1,.23,0c0,.06-.21.1-.4.08Z"></path> <path class="cls-4" d="M27.89,42.85l-.44.06a.56.56,0,0,0-.34.39c.14,0,.46-.16.78-.44Z"></path> <path class="cls-4" d="M27.69,42.65h-.34a.37.37,0,0,0-.3.25C27.15,42.94,27.43,42.82,27.69,42.65Z"></path> <path class="cls-4" d="M29.25,44.29l.2-.42a.54.54,0,0,1,.44-.22C29.89,43.79,29.61,44.07,29.25,44.29Z"></path> <path class="cls-4" d="M30.15,43.87l.36-.14a.54.54,0,0,1,.42.16h0c0,.12-.25.34-.56.5l.18-.33a.86.86,0,0,1,.14-.13h-.12a2.3,2.3,0,0,1-.42.35l.14-.29a.27.27,0,0,1,.08-.07,1,1,0,0,0-.2-.05Z"></path> <path class="cls-4" d="M31.89,43.93c.12-.06.54,0,.48.18h0c0,.12-.28.34-.56.54l.16-.36a.34.34,0,0,1,.12-.12H32a1.85,1.85,0,0,1-.4.34l.12-.3.08-.06-.1,0a1.42,1.42,0,0,1-.3.25l.08-.2c.14-.18.24-.16.46-.24Z"></path> <path class="cls-4" d="M34.47,43.87c0-.34.25-.54.76-.6s1.28,0,1.08.3h-.06l-.1.25-.22.4.14-.44.06-.23-.25-.07-.18.17-.3.34.24-.4.1-.15-.12,0-.18.17-.31.34.25-.38.1-.16h-.16l-.12.18-.28.36.2-.41.06-.1a1.16,1.16,0,0,0-.22.06l-.15.33.06-.33a.65.65,0,0,0-.4.38Z"></path> <path class="cls-4" d="M32.59,44.15v0h0l.5-.32c.34-.16.76-.22.7.06,0,0,0,.06-.12.08s0,.22,0,.34l-.14-.3h-.08c0,.16,0,.32,0,.48l-.2-.44-.1,0c0,.22,0,.46,0,.7L33,44.15v0c0,.12-.06.25-.1.38l-.06-.4c-.06.16-.14.36-.2.56l0-.42v-.08Z"></path> <path class="cls-4" d="M26.86,30.62l.87-.86A1.74,1.74,0,0,0,26.86,30.62Z"></path> <path class="cls-4" d="M31.6,46.27a.89.89,0,0,1,0-.84c.16-.42.36-.54.48-.52s0,.48,0,.88l-.32-.28.1.54-.24-.25Z"></path> <path class="cls-4" d="M34.43,46.79a.2.2,0,0,0-.12-.12s0,.1,0,.18a.24.24,0,0,0,.14.12S34.49,46.87,34.43,46.79Z"></path> <path class="cls-4" d="M34.43,47.15c-.08-.12-.16-.18-.2-.16s0,.12.08.25.16.19.2.17,0-.13-.08-.24Z"></path> <path class="cls-4" d="M34.25,47.49c-.06-.1-.12-.16-.14-.16s0,.12,0,.22.12.16.14.14,0-.1,0-.2Z"></path> <path class="cls-4" d="M34.07,47.84c0-.16-.14-.28-.18-.25s0,.16,0,.32.12.25.16.25.06-.16,0-.32Z"></path> <path class="cls-4" d="M31.73,47.69c.12,0,.2.06.2.1a.28.28,0,0,1-.22,0c-.1,0-.2-.06-.18-.08a.25.25,0,0,1,.2,0Z"></path> <path class="cls-4" d="M31.63,47.43c.14,0,.24.08.24.12s-.12.06-.25,0-.24-.08-.24-.12.12-.06.25,0Z"></path> <path class="cls-4" d="M31.57,47.11c.16,0,.28.1.28.14s-.16.08-.32,0-.3-.08-.28-.14S31.39,47.09,31.57,47.11Z"></path> <path class="cls-4" d="M36.77,43.71c-.12-.4.32-.54.79-.34a2.37,2.37,0,0,0,1.37.08,2.37,2.37,0,0,1,.88,0c.31.16.29.3-.05.36a3.46,3.46,0,0,0-1.21,1.82c-.22-.3.26-1.06,1-2a6.49,6.49,0,0,0-1.23,1.28,4.22,4.22,0,0,1,.7-1.24,3.23,3.23,0,0,0-1.24,3,3.06,3.06,0,0,1,.52-2.77l-.86.89.79-1.19-.49.16,0-.19-.3.15v-.21l-.4.32.08-.33c-.14-.08-.25,0-.36.2Z"></path> <path class="cls-4" d="M37.14,46a1,1,0,0,0,.18.8c.06.06.14,0,.1-.16A1.24,1.24,0,0,1,37.14,46Z"></path> <path class="cls-4" d="M38.13,46.09s.09.1.09.25,0,.26-.09.26-.08-.12-.08-.26S38.09,46.09,38.13,46.09Z"></path> <path class="cls-4" d="M39.06,45.07a.34.34,0,0,1,0,.22c-.07.11-.13.2-.17.18s0-.13,0-.22.13-.2.17-.18Z"></path> <path class="cls-4" d="M39.27,44.59s0,.12-.05.2-.14.16-.16.14,0-.12.06-.2A.29.29,0,0,1,39.27,44.59Z"></path> <path class="cls-4" d="M46.78,45.37c.34.12.38.6.2,1.18A2.52,2.52,0,0,0,46.78,45.37Z"></path> <path class="cls-4" d="M45,47.84a.79.79,0,0,0-.12-.3l.06.36Z"></path> <path class="cls-4" d="M41.12,41.79a.47.47,0,0,1,.16,0l.16.25a.53.53,0,0,1-.18,0Z"></path> <path class="cls-4" d="M40.8,43.53a.48.48,0,0,1,.12.22c0,.1,0,.16,0,.14a.28.28,0,0,1-.12-.2c0-.1,0-.16,0-.16Z"></path> <path class="cls-4" d="M41.1,43.51s.08.06.1.16.06.18,0,.2-.08-.06-.12-.16S41.06,43.51,41.1,43.51Z"></path> <path class="cls-4" d="M41.46,43.45s.12.12.14.25,0,.18-.06.18-.06,0-.08-.18S41.44,43.45,41.46,43.45Z"></path> <path class="cls-4" d="M41.8,43.33a.6.6,0,0,1,.16.25c0,.14.06.28,0,.28s-.1-.08-.16-.24-.06-.28,0-.3Z"></path> <path class="cls-4" d="M42.16,43.33c.06,0,.12.12.16.28s0,.32,0,.34-.12-.14-.14-.3,0-.32,0-.32Z"></path> <path class="cls-4" d="M42.56,43.39s.16.18.18.34.06.25-.06.25-.1-.06-.14-.24,0-.36,0-.36Z"></path> <path class="cls-4" d="M42.82,43.3c.06,0,.12.12.18.3s0,.34,0,.34-.12-.12-.16-.3-.06-.34,0-.34Z"></path> <path class="cls-4" d="M43.24,43.21s.1.18.1.4,0,.4-.1.4-.1-.18-.1-.4S43.18,43.21,43.24,43.21Z"></path> <path class="cls-4" d="M43.58,43.33s.08.16.08.34,0,.34-.08.34-.08-.14-.08-.34S43.52,43.33,43.58,43.33Z"></path> <path class="cls-4" d="M43.92,43.23s.08.18.08.4,0,.4-.08.4-.08-.18-.08-.4S43.88,43.23,43.92,43.23Z"></path> <path class="cls-4" d="M44.28,43.13c.06,0,.08.2.06.46s-.08.42-.14.42-.06-.2,0-.44S44.22,43.13,44.28,43.13Z"></path> <path class="cls-4" d="M44.76,43.11c.06,0,.06.2,0,.44s-.1.42-.16.42-.06-.2,0-.44S44.72,43.11,44.76,43.11Z"></path> <path class="cls-4" d="M45.14,42.89c.06,0,.16.3.12.58s-.14.54-.2.52,0-.25,0-.54S45.1,42.87,45.14,42.89Z"></path> <path class="cls-4" d="M43.1,45.15s.06.06.1.14a.65.65,0,0,1,0,.2s-.08-.06-.1-.14S43.08,45.15,43.1,45.15Z"></path> <path class="cls-4" d="M43.38,45.05s.1.1.14.22,0,.18,0,.2-.06,0-.1-.16a.43.43,0,0,1,0-.25Z"></path> <path class="cls-4" d="M46.08,44.21v.14h0l.18-.12a5.35,5.35,0,0,0,0-1A8.19,8.19,0,0,1,46.08,44.21Z"></path> <path class="cls-4" d="M45.88,44.65c-.1.52-.12.68-.32.86a1.84,1.84,0,0,0,0-.62l-.14,0V45a1,1,0,0,1-.22.78c0-.28.1-.54.1-.82l-.16.06v.28a2.32,2.32,0,0,1-.16.44,1.83,1.83,0,0,0,0-.7l-.14,0v.08c0,.06,0,.12-.06.12s0,0,0-.1,0-.06,0-.08l-.1,0v0q0,.09,0,.12s-.06-.06-.1-.12l-.1,0c0,.1,0,.14-.06.18s-.1-.06-.12-.16l-.18,0c0,.08,0,.14,0,.14s-.06,0-.1-.12h-.16c0,.08,0,.12,0,.14s-.06,0-.1-.12l0,0s0,0,0,0,0-.06,0-.1a.37.37,0,0,1-.06-.25s.1.06.16.2a.57.57,0,0,1,0,.14.33.33,0,0,1,.14,0s0-.06,0-.08,0-.3,0-.32.1.1.14.25,0,.06,0,.1l.16-.06a.68.68,0,0,1,0-.2c0-.08,0-.12,0-.12a.51.51,0,0,1,.16.28l.1,0s0,0,0,0a.73.73,0,0,1,0-.25c0-.06,0-.08,0-.1s.12.14.16.27a.08.08,0,0,0,0,.07l.1,0v-.31c0-.08,0-.12,0-.12s0,0,.06.1,0,.18.06.28h0a.28.28,0,0,0,.12,0v-.16c0-.06,0-.1,0-.1s.06.1.08.2l.16-.06v-.22c0-.06,0-.12,0-.12s0,0,0,.08a.45.45,0,0,1,0,.2s.08,0,.12-.06h0c0-.12,0-.25,0-.32s0-.14.06-.14,0,0,0,.1a1,1,0,0,1,0,.3h0a.28.28,0,0,1,.12,0,9,9,0,0,0,.32-2L46,42.27a4.43,4.43,0,0,1-.34,1.82,5,5,0,0,0,0-2H45.6a4.66,4.66,0,0,1-.2,2,4.71,4.71,0,0,0-.2-2.14.28.28,0,0,0-.12,0,1.11,1.11,0,0,1,.06.9c-.12-.38,0-.5-.36-.76h-.1a.9.9,0,0,1,.16.74,2.72,2.72,0,0,0-.42-.64h-.18c.25.3.25.36.22.6-.1-.25-.5-.44-.66-.56l-.18,0c.2.1.48.46.38.58-.14-.16-.44-.32-.56-.54-.08,0,0,0-.12,0s0,.2,0,.34a.78.78,0,0,1-.51-.3s-.11,0-.11,0,.1.2.11.26-.45-.28-.5-.35.08,0-.16,0c0,.06.16.39.18.45s-.34-.39-.38-.43l-.28,0-.18-.3a12.38,12.38,0,0,0,3.1-.19l1.12-.23c.38-.12.64.09.72.66l.06.65a1.27,1.27,0,0,1,.1,1.34,2.1,2.1,0,0,0,.7,1.08c.32.3.36.72,0,1.32a8.17,8.17,0,0,1-1.24,2s0,0,0,.06l-.06.08.06-.1-.06-.3a.49.49,0,0,1,.1.22l.18-.3c0-.1,0-.2-.06-.32l.12.22c0-.08.1-.16.14-.25s-.06-.22-.1-.34a.72.72,0,0,1,.14.24,2.19,2.19,0,0,0,.16-.3c0-.1-.06-.2-.07-.3a1.28,1.28,0,0,1,.11.2,1.8,1.8,0,0,0,.12-.44l-2,1.29c.18-.16.38-.3.56-.46l0,0-.06-.38a3.09,3.09,0,0,1,.14.32l.14-.12L45.44,47a2,2,0,0,1,.16.4l.18-.14c0-.2,0-.42-.08-.64a2.06,2.06,0,0,1,.2.54,1.07,1.07,0,0,1,.16-.14c0-.28-.06-.6-.1-.9a1.85,1.85,0,0,1,.25.75l.12-.1a8.19,8.19,0,0,0-.12-1,2.14,2.14,0,0,1,.28.84s0,0,.06-.06a7.48,7.48,0,0,0-.12-1.16,1.78,1.78,0,0,1,.26,1l.12-.12a6.06,6.06,0,0,0-.4-1.64c-.08.28-.08.38-.16.36,0-.32,0-.47,0-.51a1.35,1.35,0,0,1-.28.86l.09-.72Z"></path> <path class="cls-4" d="M44.08,45.91h0c0,.12,0,.22-.08.22s-.06-.12,0-.22Z"></path> <path class="cls-4" d="M44.3,45.69s.06.06.06.2,0,.25-.1.25-.1-.14-.06-.25.06-.18.1-.18Z"></path> <path class="cls-4" d="M44.58,45.73h0c0,.22,0,.38-.08.36s-.08-.18,0-.36Z"></path> <path class="cls-4" d="M44.54,45.45s0,0,0,.1h-.1C44.5,45.49,44.52,45.45,44.54,45.45Z"></path> <path class="cls-4" d="M44.82,45.41s.06.08.06.25,0,.34-.14.32-.1-.18-.06-.36.08-.22.14-.22Z"></path> <path class="cls-4" d="M43.44,39.66a4.49,4.49,0,0,1,1.54,1c.09.14,0,.18-.08.12a14.52,14.52,0,0,1-1.46-1.11Z"></path> <path class="cls-4" d="M45.36,41c.1.06.14.12.12.14s-.1,0-.2,0-.14-.14-.12-.16S45.26,40.91,45.36,41Z"></path> <path class="cls-4" d="M40.32,41.71l.54.06L41,42l0,0c-.06,0,.18.64-.14,0,0-.08-.16-.06-.25-.1a.55.55,0,0,0-.26-.1Z"></path> <path class="cls-4" d="M37.82,50.36c.09,0,.19,0,.19.08s-.06.06-.16.06-.2,0-.2-.06S37.71,50.36,37.82,50.36Z"></path> <path class="cls-4" d="M38.07,50.86c.17,0,.35,0,.37,0s-.09.1-.24.17a.55.55,0,0,1-.36,0s.07-.1.25-.15Z"></path> <path class="cls-4" d="M38.24,51c.18,0,.35-.06.39,0s-.1.12-.28.15a.55.55,0,0,1-.4,0S38,51.06,38.24,51Z"></path> <path class="cls-4" d="M38.48,51.19c.11,0,.24,0,.25,0s-.06.09-.18.13-.26,0-.28,0,.08-.09.2-.11Z"></path> <path class="cls-4" d="M38.63,51.37c.13,0,.2,0,.2.08s0,.06-.16.06-.19,0-.19-.06S38.53,51.37,38.63,51.37Z"></path> <path class="cls-4" d="M40.78,50.55c.16-.06.32-.06.34,0s-.08.19-.25.26-.32.05-.34,0S40.61,50.64,40.78,50.55Z"></path> <path class="cls-4" d="M40.5,50.38c.12-.07.25-.07.25,0s-.06.13-.18.17-.25,0-.25,0A.23.23,0,0,1,40.5,50.38Z"></path> <path class="cls-4" d="M40.24,50a.23.23,0,0,1,.2,0c0,.07,0,.13-.14.15s-.18,0-.2,0S40.14,50.06,40.24,50Z"></path> <path class="cls-4" d="M37.33,48.34a.08.08,0,0,0-.08-.08.1.1,0,0,0-.08.06.41.41,0,0,0,.16.4c.16.08.21-.08.12-.14a.37.37,0,0,1-.12-.25Z"></path> <path class="cls-4" d="M37.05,48.21c0-.12-.08-.18-.16-.08a.45.45,0,0,0,0,.51c.14.17.26,0,.22-.08a.47.47,0,0,1,0-.35Z"></path> <path class="cls-4" d="M51,39.23c-.12.18-.16.86.45,1.68.22.28,0,.48.28.52q.18,0,.21-.3l-.2-.1H52l-.3-.2c.1,0,.34,0,.32-.06s-.3-.14-.44-.2l.34-.08c0-.1-.18-.18-.5-.28l.32-.08-.36-.22.28-.08-.44-.22.25-.12-.25-.08.25-.12c-.2-.08-.28-.25-.46-.06Z"></path> <path class="cls-4" d="M50.54,39.74a.89.89,0,0,1-.07-.68c.13-.35.27-.45.39-.45.26.25-.16.42-.25.62-.06,0-.08.18-.08.51Z"></path> <path class="cls-4" d="M50.44,38.51c.1-.1.22-.16.26-.12s0,.14-.12.25-.22.18-.26.14,0-.16.12-.28Z"></path> <path class="cls-4" d="M50.34,39.79a.13.13,0,0,1,.13.14.15.15,0,0,1-.13.12.14.14,0,0,1-.14-.12.14.14,0,0,1,.14-.14Z"></path> <path class="cls-4" d="M50.6,40.19c.08,0,.1.12,0,.22s-.12.16-.17.12a.15.15,0,0,1,0-.22c.07-.1.12-.16.18-.12Z"></path> <path class="cls-4" d="M50.88,40.61c.1,0,.12.14,0,.25a.3.3,0,0,1-.3.14.17.17,0,0,1-.07-.23v0a.3.3,0,0,1,.32-.14Z"></path> <path class="cls-4" d="M51.18,41.07c.06.08,0,.16-.07.2a.23.23,0,0,1-.26-.06c0-.06,0-.14.08-.18a.23.23,0,0,1,.25,0Z"></path> <path class="cls-4" d="M52.63,41.31a.12.12,0,0,0,0-.16l0,0c-.1,0-.16,0-.22-.12s0-.36.24-.42.22.06.18.16l-.1.08a.6.6,0,0,1,.36.22c-.1,0-.16,0-.18.1.34-.06.32.48,0,.38s-.3,0-.2.36.36.5.34.08c0-.2.64-.25.72.2l-.26-.1c.07.32.33.18.37.46l-.22,0a1.57,1.57,0,0,1,.56.66c-.29,0-.31-.34-.56-.34.33.46.73.36.93.82a2,2,0,0,1-1-.6c.34.48.56.88.48,1.08-.51-.22-.6-1-.8-1.18,0,.38.28.6.18,1a1.87,1.87,0,0,1-.3-1.22c.2,0,.28-.1.28-.44s-.22-.34-.18,0-.18.34-.72,0c-.08.08,0,.18.33.36V43l.16-.25.06.84c0,.22-.08.18-.14,0l-.07-.42c0,.3,0,.44-.13.42l-.08-.79-.22.29-.06-.44-.2.15v-.53c-.14.08-.3,0-.47-.22A.67.67,0,0,0,52.2,42c-.09-.41.09-.6.43-.64Z"></path> <path class="cls-4" d="M47.86,43.75a.48.48,0,0,0-.12-.48c-.08-.08-.14-.1-.12,0s.2.32.25.48Z"></path> <path class="cls-4" d="M47.54,42.53c.25.14.38.16.52.54,0,.14,0,.24-.08.12s-.25-.48-.44-.66Z"></path> <path class="cls-4" d="M47.58,41.75a1.16,1.16,0,0,1,.64.84c0,.22,0,.34-.14.16s-.25-.7-.5-1Z"></path> <path class="cls-4" d="M47.74,41.19a1.05,1.05,0,0,1,.66,1c0,.22-.1.36-.16.16a2.85,2.85,0,0,0-.5-1.14Z"></path> <path class="cls-4" d="M47.9,40.89a1.12,1.12,0,0,1,.68.74c0,.2,0,.3-.14.14A2.06,2.06,0,0,0,47.9,40.89Z"></path> <path class="cls-4" d="M50.26,50.8a.54.54,0,0,1,.72-.27h0c.17,0,.15.26.15.38-.11-.1-.21-.21-.3-.1-.29-.22-.38-.09-.59,0Z"></path> <path class="cls-4" d="M49.18,50.86a.12.12,0,0,1,.14.13c0,.08-.06.1-.14.1a.12.12,0,0,1-.12-.1.13.13,0,0,1,.11-.13Z"></path> <path class="cls-4" d="M48.49,50.86s.09.06.13.17,0,.19,0,.19-.09,0-.13-.15,0-.21,0-.21Z"></path> <path class="cls-4" d="M48.72,50.83s.06,0,.08.13,0,.12,0,.14-.06,0-.08-.12S48.68,50.85,48.72,50.83Z"></path> <path class="cls-4" d="M48.78,48.25s0,0,0,.06-.16.14-.18.1a.2.2,0,0,1,0-.2l.08-.08s0,0,0-.06,0,0,0,.06-.18.16-.22.12,0-.14.06-.24.06-.06.08-.08,0,0,0,0h0c-.08.1-.18.14-.22.12s0-.14.06-.24a0,0,0,0,1,0,0s0-.06-.06-.08-.1.06-.14,0,0-.1.06-.18-.06-.16,0-.2.18,0,.3.3c0,.1,0,.16.06.22a1.8,1.8,0,0,1,.2.18.5.5,0,0,1,.1.42s0,0-.1-.18Z"></path> <path class="cls-4" d="M48.78,48.45c.06,0,0,.16-.08.28s-.2.18-.25.14,0-.16.06-.28.22-.18.25-.14Z"></path> <path class="cls-4" d="M51.24,47.27s0,.12,0,.24-.11.2-.16.18,0-.12.05-.24S51.2,47.25,51.24,47.27Z"></path> <path class="cls-4" d="M50.94,47.15s0,.18-.06.36-.2.3-.25.28,0-.18.06-.36.2-.3.25-.28Z"></path> <path class="cls-4" d="M50.25,46.87s0,.14,0,.3-.14.24-.18.22,0-.14,0-.28S50.21,46.86,50.25,46.87Z"></path> <path class="cls-4" d="M30.84,13.05a.51.51,0,0,1,.44-.44l.44.08c.16.12.14.16,0,.18-.36-.06-.56,0-.66.25s-.2.22-.18-.08Z"></path> <path class="cls-4" d="M32.23,13.89a.11.11,0,0,1,.1.12.14.14,0,0,1-.1.12.12.12,0,0,1-.1-.12C32.13,13.93,32.17,13.89,32.23,13.89Z"></path> <path class="cls-4" d="M30.77,13.48c-.14.19-.1.39.14.63l.32.4c.28.2.42.16.38-.14s0-.28.2-.28a.36.36,0,0,0,.25-.18c0-.16,0-.24-.12-.28a2,2,0,0,1-.66.3,2.25,2.25,0,0,0,.49-.37.24.24,0,0,1,.25-.05.22.22,0,0,0-.18-.23,1.19,1.19,0,0,0-.82.48.83.83,0,0,1,.76-.55.25.25,0,0,0-.1-.25.89.89,0,0,0-.62.18Z"></path> <path class="cls-4" d="M32.39,16a8.25,8.25,0,0,1,1.66,2.27V19l-.25-.83c0,.58,0,1-.06.83l-.2-1.19-.14.52-.12-.74c-.1-.08-.12.38-.1,1-.18-.17-.16-.7-.14-1.28l-.18.56a2.19,2.19,0,0,1,0-1.08c-.12-.1-.21.1-.26.7a2.16,2.16,0,0,1,0-1.1l-.13.3Z"></path> <path class="cls-4" d="M37.29,10.32a1.42,1.42,0,0,0,.83.2v.16a2.7,2.7,0,0,0,1.49-.56.28.28,0,0,0-.22,0c-.36.18-.32.06.36-.28.1-.06.18,0,.34,0l.44-.1c-.37.33-.73.64-1.13.94a1.87,1.87,0,0,1-1.51.26,5.3,5.3,0,0,1-.76-.46c-.06-.1-.12-.16.16-.1Z"></path> <path class="cls-4" d="M40.06,10.42a.1.1,0,0,1,.1.08.09.09,0,0,1-.1.08A.07.07,0,0,1,40,10.5S40,10.43,40.06,10.42Z"></path> <path class="cls-4" d="M40.66,11.62c0-.06.08-.08.12,0a.08.08,0,0,1,0,.11h0c0,.06-.1.08-.12.06A.12.12,0,0,1,40.66,11.62Z"></path> <path class="cls-4" d="M42.08,11.08c.06,0,.12,0,.14,0a.11.11,0,0,1-.07.14h0c-.06,0-.12,0-.14,0S42,11.12,42.08,11.08Z"></path> <path class="cls-4" d="M41.76,10.86c.06,0,.12-.06.14,0a.11.11,0,0,1,0,.13s-.12.06-.14,0A.13.13,0,0,1,41.76,10.86Z"></path> <path class="cls-4" d="M39.57,11.29a.11.11,0,0,1,.15,0,.13.13,0,0,1-.1.1.12.12,0,0,1-.14,0S39.52,11.31,39.57,11.29Z"></path> <path class="cls-4" d="M40.36,12.77c.08,0,.18,0,.2,0s0,.09-.12.13-.18,0-.2,0S40.26,12.79,40.36,12.77Z"></path> <path class="cls-4" d="M37.79,11.4a2.85,2.85,0,0,0,.93-.28l.46-.22c.22-.1.25-.08.07.1a4.89,4.89,0,0,1-.64.45,1,1,0,0,1-.88.15C37.52,11.54,37.59,11.42,37.79,11.4Z"></path> <path class="cls-4" d="M39.19,11.2a2.41,2.41,0,0,1,.79-.46,2.71,2.71,0,0,1,1-.18c.24-.22.46.08.2.32a1,1,0,0,1-.28.18,2.15,2.15,0,0,1-.82.36c-.36.1-.4.07-.1-.14a2,2,0,0,1,.28-.2,1.46,1.46,0,0,1,.68-.2c-.34-.22-1,.12-1.67.44C39.1,11.42,39,11.36,39.19,11.2Z"></path> <path class="cls-4" d="M41,10.16a1.54,1.54,0,0,1,.43,0c.25.08.38.22.4.4a.45.45,0,0,1-.25.32c-.06-.32-.18-.5-.36-.56l-.2,0Z"></path> <path class="cls-4" d="M40.7,10.24a.75.75,0,0,1,.18-.08v.12l-.16,0c-.08,0-.16,0,0-.08Z"></path> <path class="cls-4" d="M40.34,10A1.09,1.09,0,0,1,41,9.72a3.14,3.14,0,0,1,.75,0c.51.18.3.34,0,.22A.83.83,0,0,0,41,10c0,.2-.36,0-.56.18s-.16,0-.08-.1Z"></path> <path class="cls-4" d="M41.8,10.1c.16,0,.28,0,.3.16a.4.4,0,0,1-.14.4C42,10.28,41.84,10.32,41.8,10.1Z"></path> <path class="cls-4" d="M42.24,10a.79.79,0,0,1,0,.48l-.16.3c0,.14,0,.18.1.14a.46.46,0,0,0,.25-.44c0-.3,0-.44.12-.54-.18-.3-.36-.25-.3.06Z"></path> <path class="cls-4" d="M41,11.76c0,.2.46.25.52,0s-.08-.42,0-.66a.64.64,0,0,0-.51.64Z"></path> <path class="cls-4" d="M40.84,12.29a.47.47,0,0,1,.5-.22c.18,0,.28,0,.28.22a2.42,2.42,0,0,1,0,.54c-.06.17-.08.15-.28.17s-.3-.11-.54,0c.14-.33,0-.48.06-.74Z"></path> <path class="cls-4" d="M41.7,11.5c-.1-.16,0-.22.12-.1a.53.53,0,0,1,.2.38.15.15,0,0,1-.25.14c-.12-.11,0-.25-.09-.42Z"></path> <path class="cls-4" d="M41.8,12.26c-.06-.2,0-.21.25-.12s.18.26.1.33a.49.49,0,0,1,0,.63c-.09-.08-.22,0-.3-.16s-.07,0,0-.34a.57.57,0,0,0,0-.34Z"></path> <path class="cls-4" d="M42.08,13.91c.1,0,.16.06.16.12s-.08.1-.16.08-.16-.07-.16-.12S42,13.91,42.08,13.91Z"></path> <path class="cls-4" d="M40.84,13.73c.1,0,.18.06.16.11a.15.15,0,0,1-.18.11c-.1,0-.18-.06-.16-.13A.14.14,0,0,1,40.84,13.73Z"></path> <path class="cls-4" d="M41.12,15.29a.31.31,0,0,1,.32,0c.06,0,0,.1,0,.14a.41.41,0,0,1-.22,0C41.14,15.37,41.18,15.33,41.12,15.29Zm-.25-.14h0c.14.18.08.22,0,.32a2.24,2.24,0,0,0,.58.06c.3-.19.28-.3,0-.38A1.32,1.32,0,0,0,40.87,15.15Zm1.48-1.65a1.2,1.2,0,0,0-.86-.4,3.43,3.43,0,0,0-1.06.14,1.35,1.35,0,0,0-.26,1.09l.19,0-.16.12h.22l-.14.2.12,0-.1.25.12.09-.06.16.16,0,0,.16.12,0,0,.16.12,0a1.18,1.18,0,0,0,.38.32.62.62,0,0,0,.38,0,3,3,0,0,0,.5-.56c.06,0,.09-.14.09-.32a.29.29,0,0,0,.15-.29l.1-.14v-.49a.59.59,0,0,1-.3,0l-.28-.12-.08.62c0,.12-.06.3-.19.23l-.35-.14c-.08,0-.06-.16,0-.2l.12,0V14a.65.65,0,0,1-.62,0,.46.46,0,0,0-.26,0,.88.88,0,0,1,.22-.28l-.12-.19.18,0c.28,0,.42-.06.51,0a.67.67,0,0,0,.22.19l0-.14c.06-.16.18-.2.36-.14l0,.39.64-.19Z"></path> <path class="cls-4" d="M41.18,14.67s0,0,0,0v0a.05.05,0,0,1,0,0,.06.06,0,0,1-.06,0A.05.05,0,0,1,41.18,14.67Z"></path> <path class="cls-4" d="M41.5,13.75s0-.08,0-.14.14-.17.14-.07a1.49,1.49,0,0,1,0,.21Z"></path> <path class="cls-4" d="M41.38,14.73c0-.25.06-.48.1-.8h.14a8.09,8.09,0,0,1-.12.84C41.46,14.85,41.42,14.81,41.38,14.73Z"></path> <path class="cls-4" d="M39.84,13.35c0-.17.14-.15.16,0a.77.77,0,0,1-.14.64c-.1,0-.25,0-.16-.12A.66.66,0,0,0,39.84,13.35Z"></path> <path class="cls-4" d="M39.72,14.49c0-.18.08-.26.12-.05A3,3,0,0,0,40.76,16c.22.18,0,.34-.22.16A2.79,2.79,0,0,1,39.72,14.49Z"></path> <path class="cls-4" d="M41.72,16.13a.49.49,0,0,1,.21-.46c.12-.08.16.06.1.14s-.22.14-.32.32Z"></path> <path class="cls-4" d="M36.49,18.34a.7.7,0,0,1,.12-.34.45.45,0,0,1-.14-.1,3.3,3.3,0,0,1-.44.66,2.76,2.76,0,0,1,.58-1.06c0,.14-.08.25-.12.36a1.74,1.74,0,0,1,.14.12.29.29,0,0,0,.1-.12.36.36,0,0,1,0,.18h0l0,.06h0A.55.55,0,0,1,36.49,18.34Z"></path> <path class="cls-4" d="M36.25,18.71a.44.44,0,0,1,.14-.28.39.39,0,0,1-.15.28Z"></path> <path class="cls-4" d="M37.31,18.87c0-.08,0-.16.06-.22h0l0,0a.2.2,0,0,1,0-.08h0l.12-.14a.58.58,0,0,1-.25.48Z"></path> <path class="cls-4" d="M37.27,19.45c-.06-.2,0-.34.26-.46C37.53,19.29,37.5,19.37,37.27,19.45Z"></path> <path class="cls-4" d="M37.75,19.27a2.08,2.08,0,0,0,.16-1.3C38.13,18.53,38.09,18.69,37.75,19.27Z"></path> <path class="cls-4" d="M41,21.09a4.25,4.25,0,0,0,.12-1.23l-.1,0a3.24,3.24,0,0,1-.2.8,3,3,0,0,0,.08-.78l-.12,0a4.61,4.61,0,0,1-.16.64A3.26,3.26,0,0,0,40.7,20l-.18,0c0,.25-.06.54-.12.9,0-.3,0-.6,0-.88h-.21a6.91,6.91,0,0,1-.1,1c0-.36,0-.7,0-1l-.2,0a7.89,7.89,0,0,1-.1,1.08c0-.39,0-.75,0-1.1l-.18-.07a8.49,8.49,0,0,1-.16,1c0-.36,0-.68,0-1l-.18-.06c0,.4-.06.76-.08,1.18a5.14,5.14,0,0,1-.06-1.24.39.39,0,0,1-.14-.08,4.57,4.57,0,0,0-.1,1.38,2.45,2.45,0,0,1,0-1.42l-.12-.08a3.45,3.45,0,0,1-.28.54,5.66,5.66,0,0,0,.2-.58l-.2-.12a2.82,2.82,0,0,1-.36.88,5.6,5.6,0,0,0,.3-2,4.79,4.79,0,0,1,.1.76l.22.1a9.2,9.2,0,0,0,.06-1,2.52,2.52,0,0,1,.08,1.06.48.48,0,0,0,.18.06.86.86,0,0,1,.1-.16l-.06.18.14,0c0-.12.06-.26.12-.42,0,.16,0,.3,0,.46l.16,0c0-.1,0-.22,0-.34a2.25,2.25,0,0,1,.06.36l.2,0v-.46c0,.18.08.32.1.46a1.06,1.06,0,0,0,.25,0,3.85,3.85,0,0,1,0-.48c0,.18.06.34.1.48h.2v-.72a3.34,3.34,0,0,1,.14.7l.18,0a4.6,4.6,0,0,0-.06-.52,1.82,1.82,0,0,1,.16.5l.12,0c0-.17-.06-.36-.08-.55a4.4,4.4,0,0,1,.18.51.17.17,0,0,0,.12,0c0-.28-.06-.57-.12-.92a3.2,3.2,0,0,1,0,2.83Z"></path> <path class="cls-4" d="M41.58,19.77l.08.18.28-.25c.08-.1.16-.08.22.06l0-.33c.1-.06.19,0,.26.08a.35.35,0,0,0,0-.3l0-.4c-.15-.25-.28-.42-.45-.48a.73.73,0,0,1,0,.56.66.66,0,0,0-.34-.55.76.76,0,0,1,.08.49.61.61,0,0,0-.2-.19l0,.24-.12.08Z"></path> <path class="cls-4" d="M43.42,18.34c0,.07,0,.1,0,.1s-.08,0-.14-.1Z"></path> <path class="cls-4" d="M43.3,18h0a1,1,0,0,1,.08.24h-.22a1.76,1.76,0,0,1-.12-.2s0,0,0,0Z"></path> <path class="cls-4" d="M42.94,17.63c.06,0,.2.12.3.3H43c-.08-.16-.1-.3,0-.3Z"></path> <path class="cls-4" d="M42.82,18.33s.1.06.18.18.08.22.06.25-.1-.06-.16-.18S42.8,18.33,42.82,18.33Z"></path> <path class="cls-4" d="M42.44,18.25s.11.08.22.22.12.28.08.3-.13-.08-.22-.22S42.4,18.27,42.44,18.25Z"></path> <path class="cls-4" d="M36,17.47l.14.1.1-.1a.4.4,0,0,1-.16.28l.06-.16A.53.53,0,0,0,36,17.47Z"></path> <polygon class="cls-4" points="34.19 37.54 34.11 37.8 34.03 37.76 34.07 37.54 34.19 37.54"></polygon> <path class="cls-4" d="M28,46.37c.25-.1.32,0,.4.32s.36.36.36.52c.46.38.38.54-.25.48a.42.42,0,0,1-.32-.48Z"></path> <path class="cls-4" d="M28.09,47.91a.62.62,0,0,0,.08.78.46.46,0,0,0,.4.18l-.08-.22.25.16c0-.12-.1-.25-.32-.41l.3.07c0-.16-.14-.3-.38-.42h.2c-.1-.28-.28-.36-.44-.14Z"></path> <path class="cls-4" d="M28.87,48.05c.08,0,.14.08.16.2a.21.21,0,0,1-.1.25c-.08,0-.14-.07-.16-.19S28.81,48.05,28.87,48.05Z"></path> <path class="cls-4" d="M32.93,34.34a3.85,3.85,0,0,1,.64-1.88A15.41,15.41,0,0,0,32.93,34.34Z"></path> <path class="cls-4" d="M34.37,30.62c-.24.1-.25-.1-.08-.25a1.88,1.88,0,0,1,1.28-.43h.84c.32,0,.28.32,0,.3h-.6A2.63,2.63,0,0,0,34.37,30.62Z"></path> <path class="cls-4" d="M36.19,30.32c.22,0,.41,0,.41.08a.71.71,0,0,1-.41.08c-.22,0-.4,0-.4-.08S36,30.32,36.19,30.32Z"></path> <path class="cls-4" d="M37.84,26.08c-.05,0-.15.09-.28.27a.92.92,0,0,0-.19.33s.15-.1.26-.28a.83.83,0,0,0,.2-.32Z"></path> <path class="cls-4" d="M36.43,27.46c-.1.18-.06.28.14.36a3,3,0,0,0,2.36-.46l1-.46c.18-.22.14-.28-.11-.2l-.47.25.12-.4a1.73,1.73,0,0,0-.55.62l-.08-.2a.81.81,0,0,0-.26.42l-.09-.22a.57.57,0,0,0-.26.25l0-.28c-.08-.06-.2.08-.36.4l.08-.3q-.09-.09-.3.36l.32-1c-.16,0-.38.38-.62,1-.1,0-.14,0-.12-.1l.39-.69c-.18,0-.38.25-.62.7l.28-.8-.52.68v-.27a.8.8,0,0,0-.35.28Z"></path> <path class="cls-4" d="M36.53,40.49c-.08-.08.07-.16.1-.12l.25.22c.06.06-.08.16-.14.12Z"></path> <path class="cls-4" d="M36.71,40.33c0-.06.06-.14.1-.1l.2.2c.06.06-.06.14-.1.1Z"></path> <path class="cls-4" d="M36.83,40.15c-.08-.08.06-.18.12-.12l.26.25c.06.06-.1.16-.14.1Z"></path> <path class="cls-4" d="M36.93,39.85c-.08-.11.1-.24.2-.19l.36.36c.1.11-.14.26-.2.18Z"></path> <path class="cls-4" d="M37.31,39.52c-.12-.12,0-.28.14-.18l.45.39c.12.1-.06.28-.16.2Z"></path> <path class="cls-4" d="M37.57,39.33c-.1-.1,0-.24.12-.16l.38.32c.11.1-.06.24-.14.17Z"></path> <path class="cls-4" d="M37.91,39.21c-.07-.08,0-.2.1-.15l.32.28c.09.09-.06.23-.11.17Z"></path> <path class="cls-4" d="M36.31,36.94c0-.1-.16,0-.18,0l0,.36c0,.08.18,0,.18,0Z"></path> <path class="cls-4" d="M35.79,37.45c0-.16-.18-.09-.18,0l0,.29c0,.13.2,0,.18,0Z"></path> <path class="cls-4" d="M35.19,37.83c0-.14-.12-.1-.12,0l0,.25c0,.14.14.08.14,0Z"></path> <path class="cls-4" d="M36,37.32a.09.09,0,0,1,.08.1.1.1,0,0,1-.08.11s-.06,0-.06-.11S35.93,37.32,36,37.32Z"></path> <path class="cls-4" d="M35.39,37.69a.1.1,0,0,1,.1.11c0,.08,0,.12-.1.12s-.1,0-.1-.12A.1.1,0,0,1,35.39,37.69Z"></path> <path class="cls-4" d="M34.89,38.05c0-.13-.16-.13-.16,0v.25c0,.12.18.1.18,0Z"></path> <path class="cls-4" d="M39.23,22.91a.13.13,0,0,1,.11.14c0,.08-.05.16-.11.16s-.07-.08-.07-.16,0-.14.08-.14Z"></path> <path class="cls-4" d="M39.48,23.29s-.06-.1-.06-.22,0-.25.06-.25.07.1.07.25S39.52,23.29,39.48,23.29Z"></path> <path class="cls-4" d="M39.86,23.19c.1,0,.18,0,.18.08s-.08.06-.18.06-.16,0-.16-.06A.2.2,0,0,1,39.86,23.19Z"></path> <path class="cls-4" d="M40.06,23.53a.11.11,0,0,1,.08.08.09.09,0,0,1-.08.1s-.06,0-.06-.1a.07.07,0,0,1,.06-.07Z"></path> <path class="cls-4" d="M40.38,23.51h.74c.25,0,.28.12.12.35.08.39-.42.66-.4,0,0-.12-.18-.18-.46-.18C40.26,23.65,40.26,23.54,40.38,23.51Z"></path> <path class="cls-4" d="M39.22,28.22a.11.11,0,0,1,.1.09h0a.12.12,0,0,1-.1.12s-.09-.06-.09-.12A.1.1,0,0,1,39.22,28.22Z"></path> <path class="cls-4" d="M38.91,28.32a.13.13,0,0,1,.12.14.15.15,0,0,1-.12.12.11.11,0,0,1-.12-.11h0C38.79,28.38,38.83,28.32,38.91,28.32Z"></path> <path class="cls-4" d="M39.29,28.54c.26-.18.52-.3.57-.25s-.14.25-.42.46-.53.28-.58.22.16-.25.43-.44Z"></path> <path class="cls-4" d="M40.26,27.92a.83.83,0,0,1,.34-.2c0,.05-.08.18-.26.33s-.32.21-.34.17.08-.17.24-.3Z"></path> <path class="cls-4" d="M39.64,29.44a1.87,1.87,0,0,1,.2-.4l0,0a.72.72,0,0,1,.46-.54l0,0a1.21,1.21,0,0,1,.3-.2c-.06.1-.1.2-.16.28l.06,0A1.17,1.17,0,0,1,41,28.3a2.4,2.4,0,0,1-.38.4l.12.08a1.91,1.91,0,0,1,.58-.35c-.14.14-.28.3-.44.44L41,29a1.33,1.33,0,0,1,.6-.28,2.26,2.26,0,0,0-.28.25,4,4,0,0,1,.5-.06c-.25.12-.42.16-.62.25l.16.1A1.27,1.27,0,0,1,42,29a5,5,0,0,1-.46.25l.14.08a1.07,1.07,0,0,1,.58-.12,3.49,3.49,0,0,0-.44.2l.08.06a1.44,1.44,0,0,1,.54-.14c-.17.06-.28.14-.43.2l.13.06a.86.86,0,0,1,.45,0,2.53,2.53,0,0,0-.36.12l.43.25-.09,0-.64-.21a.09.09,0,0,0-.08,0s0,0,0-.06l-.16,0-.28.14a.93.93,0,0,1,.16-.18l-.16-.06-.28.14a1.56,1.56,0,0,1,.16-.2l-.15-.06c-.11.08-.23.15-.35.22a1.69,1.69,0,0,1,.2-.25l-.21-.08-.3.25a.57.57,0,0,1,.15-.3l-.2-.08c-.1.1-.22.2-.34.3a1.9,1.9,0,0,1,.2-.34L40,29.1A2.37,2.37,0,0,1,39.64,29.44Z"></path> <path class="cls-4" d="M36.47,37.17a2.63,2.63,0,0,1,.14-1c0-.14.18-.22.42-.25l2.69-.41c.14,0,.15.06.14.26a1.94,1.94,0,0,1-.2.7c-.11.08-.13-.25-.11-.78-.19.48-.11,1-.43,1.06-.15-.22.07-.64.11-1-.3.28-.19.62-.45,1-.11,0-.09-.32,0-.86a2.73,2.73,0,0,1-.41.86,1.55,1.55,0,0,1-.06-.74c-.11.52-.25.88-.38.94a3.53,3.53,0,0,1,0-.86L37.87,36a2.15,2.15,0,0,1-.28.94,1.17,1.17,0,0,1,0-.92h-.11c-.09.25-.13.48-.26.56s-.25-.2-.25-.5a1.84,1.84,0,0,1-.56,1Zm4.17-6.56c.06-.08.16-.06.14,0a18.19,18.19,0,0,0-.28,3h-.06A11,11,0,0,1,40.64,30.61Zm.3,0c-.14,1-.14,1.6-.26,2.64l.08.18a16.13,16.13,0,0,1,.34-2.77c.07-.16-.1-.2-.18,0Zm.22.64.12-.59q.21-.12.18.12l-.25.5,0,0Zm-3.31-.81h0a12.54,12.54,0,0,0-.44,3.9c0,.25.06.36.26.34a20.67,20.67,0,0,0,2.82-.44c.16-.06.14-.12,0-.18h-.14a14,14,0,0,1,.09-3.3c.12-.25,0-.36-.08-.25a12.44,12.44,0,0,0-.17,3.55l-.12,0a14.45,14.45,0,0,1,0-3.22c.14-.22.14-.42,0-.36a13.2,13.2,0,0,0-.16,3.6l-.08,0a23.54,23.54,0,0,1,0-3.66l-.08-.06a14.32,14.32,0,0,0-.06,3.7h-.08a13.26,13.26,0,0,1,0-3.56l-.1.12a16.68,16.68,0,0,0-.06,3.42l-.08,0a14.3,14.3,0,0,1,0-3.58l-.08-.08a11.1,11.1,0,0,0-.14,3.72l-.08,0a11,11,0,0,1,0-3.7l-.1,0a10.33,10.33,0,0,0-.1,3.68l-.08.08a10.33,10.33,0,0,1,.08-3.84l-.16,0a11.77,11.77,0,0,0-.16,3.88l-.07.06a7.81,7.81,0,0,1,0-3.6v-.2c-.37.64-.53,1.84-.34,3.92a8.26,8.26,0,0,1,.17-4.1l0-.15c-.37.34-.61,2.36-.51,4.27a12,12,0,0,1,.18-4l-.06,0Zm-.46-.42a8.85,8.85,0,0,0-.7,2.94,6.93,6.93,0,0,0,0,2.18c.08.4.26.54.44.52l3-.47c.22,0,.44-.21.34-.42l-.12-.23-.1.33-.16-.28-.12.32-.18-.4-.14.49-.18-.39-.1.41-.11-.34-.11.41L39,34.76l-.11.45-.17-.44-.12.32-.13-.25-.11.25-.13-.2a.54.54,0,0,0-.43,0l-.06.11-.08-.11c-.22-.06-.46-.1-.68-.14l.28-.14c0-.09-.1-.14-.28-.11l.3-.23-.32-.05.3-.19c0-.08-.08-.16-.32-.25l.32-.1V33.6l-.32,0,.34-.16c0-.08-.06-.14-.28-.21l.28-.09a.32.32,0,0,0-.25-.25l.25-.08L37,32.59l.3-.12c0-.1,0-.14-.22-.22l.32-.14a.46.46,0,0,0-.3-.22l.3-.1-.25-.16.3-.18-.22-.08.25-.16c.07-.06,0-.12-.25-.14l.31-.12,0-.12-.29,0,.14-.12-.18-.14.42-.09,0-.08-.3-.08.26-.14a.23.23,0,0,0-.26-.16Z"></path> <path class="cls-4" d="M41.78,37.25q-.15-.18.06-.3l.72-.06a.47.47,0,0,1,.38.24l.34.37c.14.19,0,.33-.12.29A8.23,8.23,0,0,1,41.78,37.25Zm-.16,0c-.16-.08-.26,0-.14.12a3.35,3.35,0,0,0,.84.54,1.83,1.83,0,0,0,.92.18c.22,0,.32-.14,0-.2A7,7,0,0,1,41.62,37.27Zm-1.28-1.2c-.22-.14,0-.42.18-.3l.32.32c.18.16.06.3-.1.22l-.4-.25Zm-.26.38.64.4c.14.1.32-.14.14-.28l-.6-.44C40.1,36,39.86,36.31,40.08,36.45Zm1.44-4.94c-.16.12-.22.25.1.25-.22.2-.25.34-.06.4-.39.5-.39.64,0,.42-.44.56-.37.64-.07.54-.39.46-.32.52-.21.54-.25.36-.25.54,0,.52a.6.6,0,0,0-.36.55c-.08.32-.94.68-.22,1a1.45,1.45,0,0,1,.54.94c.06.28.18.3.42.2a3.76,3.76,0,0,1,.6-.1c.38,0,.4-.38,0-.44,0-.16-.1-.25-.32-.14.18-.29,0-.22-.12-.25.12-.06.1-.2-.22,0l0-.1a.33.33,0,0,0,.25-.28l-.54.18c.16-.14.25-.25.22-.34l-.38.08c.4-.28.56-.48.54-.58l-.42.12c.3-.25.5-.44.48-.56l-.36.14c0-.12.16-.25.46-.32s.36-.28.32-.51l-.54.26a4.32,4.32,0,0,0,.9-1c0-.14-.48.16-1.06.64v-.1a4.7,4.7,0,0,0,1.32-1.31L41.63,33l1-1.14c-.06-.14-.34,0-.88.58l0-.12.5-.54A1.89,1.89,0,0,0,43,31c.1-.25-.25.08-.76.54-.12.12-.25.18-.4.32l1.22-1.28,0-.16c-.12-.12-.9.8-1.56,1.12Z"></path> <path class="cls-4" d="M44.22,34.26l.06,0c.14-.16.14-.25,0-.28h0Zm-.18.08.06,0V34L44,34l0,.34Zm-.25.08.1,0V34l-.18,0Zm-.22.06h0v-.4l-.1,0Zm.92-.86c.08,0,.14,0,.16,0s0,.1-.12.12-.14,0-.16-.06S44.41,33.64,44.49,33.62Zm.08.25a0,0,0,0,1,0,0s0,.06,0,.06,0,0,0-.06S44.55,33.88,44.57,33.87Zm-.79-.4a.1.1,0,0,1,.1.09h0a.1.1,0,0,1-.09.1h0a.08.08,0,0,1-.08-.1A.09.09,0,0,1,43.78,33.47ZM43,34l1-.2c.17-.06.22-.16.19-.3l-.09-1.32c-.06-.25.12-.16.18,0s.17.1,0,.25c.34,0,.45.14.26.28l-.28.06.36,0c.16.06.12.18,0,.2l-.34.06.42.06c.2,0,.2.07,0,.18l-.18.12.3,0c.14,0,.18,0,.12.2.1.49,0,.79-.4.79l-1.35.3c-.07-.06-.11-.06-.07-.09l0,0a.07.07,0,1,1,.14,0l.2-.05v-.39l-.18,0v0c0,.08,0,.14-.09.14s-.07-.06-.07-.14v0l-.08,0c-.18-.06-.18-.14,0-.26Zm.7-1,0,.29c.06.12.08.16.14.1L43.9,33c0-.12-.16-.28-.18-.08Zm1.46.36h0c-.07-.08-.22,0-.13.06a1.33,1.33,0,0,1,.13.62c0,.14.17,0,.19-.2A.55.55,0,0,0,45.18,33.31Zm.31.58s.09.08.11.18,0,.2,0,.2-.07-.06-.09-.16A.28.28,0,0,1,45.49,33.89Zm0,1.22s.05,0,.05.08,0,.08-.05.08a.07.07,0,0,1-.08-.08s0-.07.06-.08Zm-.1.3s0,.06,0,.14,0,.14,0,.14,0-.06,0-.14S45.39,35.41,45.41,35.41Zm.06-.82c0-.22.25-.16.15.06l-.11.28h-.06Zm-3,.76a1.06,1.06,0,0,1,.56-.48,9.81,9.81,0,0,0,2-.48c.19-.14.28-.1.25.12a2.54,2.54,0,0,1-.32,1.3V34.73l-.08,0a2.41,2.41,0,0,1-.28,1.1l0-1h-.1l-.22,1,.06-.85c0-.13,0-.15-.1-.09-.14,1-.32,1.43-.52,1.57A3.47,3.47,0,0,0,44,35l-.06,0a4.82,4.82,0,0,1-.32,1.41c-.2-.31.18-.83.1-1.32h0l-.36,1.24c-.12,0-.08-.16,0-.48l0-.71-.06,0A3.7,3.7,0,0,1,43,36L43,35.1l-.25.66,0-.54Z"></path> <path class="cls-4" d="M44.86,16.43a2.18,2.18,0,0,1,1.51-.36c.36,0,.36.25.16.25a2.8,2.8,0,0,0-1.64.2c-.2.1-.16,0,0-.08Zm-.44.62h0c-.06.16,0,.22,0,.16.5-.46.84-.58,1.12-.52l0,0a1.89,1.89,0,0,0-1.38,1.14c-.06.14,0,.18.08.12a2.94,2.94,0,0,1,1.08-1.08,2.19,2.19,0,0,1,.66-.2,1.78,1.78,0,0,1,.56-.1c.22,0,.25-.22,0-.25a2.53,2.53,0,0,0-2.14.68Zm1.34-.2c.18,0,.25.08.12.24a3.27,3.27,0,0,0-1.26,1,.42.42,0,0,1-.25.46c0,.3-.18.44-.48.48l-.44.56c.1.14-.06.36-.38.68s-.28.16-.26-.2c.26-.66.7-1.62.93-1.62s.12,0,.16-.26.18-.11.14,0,0,.19.12.06a2.9,2.9,0,0,1,1.58-1.4ZM42.2,22.09c-.06-.72.1-1.14.44-1.38.92-.56,1.24-1.38,1.54-1.36a7,7,0,0,1,1.3-1.56c.4-.28.48-.22.25.22a8.07,8.07,0,0,1-1.68,2.08.75.75,0,0,0-.56.38l.36-.18c.18,0,.2,0,.08.16-.3.16-.8.94-.92.44-.2.38-.54.32-.56.7l0,.51c-.08.13-.14.13-.22,0ZM44.84,18a2.55,2.55,0,0,1,.94-.72c.38-.16.36.14.1.14s-.48.18-.94.76c-.12.16-.25,0-.1-.18Zm-2.22,3.42h0a.16.16,0,0,0,0,.18.12.12,0,0,0,.17,0v0a.14.14,0,0,0,0-.18A.14.14,0,0,0,42.62,21.43Zm0,1c0,.16,0,.12.12,0l.18-.5a6.13,6.13,0,0,0,.74-.7c.12.18.34,0,.68-.44a1.38,1.38,0,0,0,.74-.91q.15-.51-.18-.18c-.32.42-.56.58-.68.88-.38.12-.68.54-1.12.74a.37.37,0,0,0-.16.36c-.18.12-.3.32-.32.76Zm0,.64c-.18.46.32.54.32.14a2,2,0,0,1,.25-1c.14-.25.08-.28-.14-.06a2.2,2.2,0,0,0-.42.9Zm.57-.32h0c-.06.14,0,.28.1.1l.48-.66-.38.76c-.08.12.06.12.14,0a2.33,2.33,0,0,0,.6-1.24l.32-.52c.06-.1,0-.25-.1-.14l-.45.42c-.18,0-.32.18-.4.46Zm1,.1h0c-.08.4,0,.44.25.14a2,2,0,0,0,.25-1.12c.15,0,.15-.2.16-.34s.14-.25,0-.3l.12-.38c0-.3-.1-.32-.16-.08l-.22.6a1.33,1.33,0,0,0-.3.76l-.14.72Zm-1.26.92a2.19,2.19,0,0,0,.76-.66c.28-.4.4-.42.32,0a1.25,1.25,0,0,1-.82.88c-.42.17-.55,0-.26-.22Zm-1,1.15c.16-.34.6-.56,1.22-.76a2.4,2.4,0,0,0,1.06-.8c.33-.2.26,0,.16.2a.87.87,0,0,1-.4.38,3.67,3.67,0,0,1-.88.51,2.1,2.1,0,0,0-1,.68c-.18.13-.25.07-.2-.21ZM42,26.06c-.1.18-.12.32,0,.42.38-.14.25-.74,1.2-1.22.12-.16.09-.22-.12-.16l-.87.64c.3-.49.6-.87,1-1a1.26,1.26,0,0,0,.78-.42c.1-.21.06-.28-.1-.18-.54.36-1,.51-1.42.82a2.18,2.18,0,0,0-.74,1.18l.28-.11Zm.06.66h0A5.34,5.34,0,0,1,43.57,25a3.77,3.77,0,0,0,1-1.74c.12-.3.3-.16.14.32a4,4,0,0,1-1.34,1.78,7.11,7.11,0,0,0-1.26,1.48c-.12.18-.23.1-.1-.12Zm.16.42c-.14.18-.12.25.12.14a3.73,3.73,0,0,1,.86-1.08l.68-.6c.52-.12.82-.68.92-1.62l0-.12a2.85,2.85,0,0,1-1,1.4,4.51,4.51,0,0,0-.94,1c-.12.12-.12.25-.22.42a5.17,5.17,0,0,0-.42.51ZM44,25.8h0c.25-.06.16.08.08.14a4.71,4.71,0,0,0-.61.47c-.18.18-.22.17-.12-.08A1.14,1.14,0,0,1,44,25.8Zm-.84,1.51a1.36,1.36,0,0,1,.56-.94c.28-.2.34-.14.12.14a6.53,6.53,0,0,0-.48.86C43.25,27.49,43.06,27.62,43.11,27.31Zm-.12-.7h0s-.06.1-.06.2,0,.2.06.2.06-.08.06-.2S43,26.61,43,26.61ZM44.43,26h0c-.08,0-.16.08-.22.22s0,.25.06.28.16-.08.2-.2A.3.3,0,0,0,44.43,26Zm2.89-10.69a3.05,3.05,0,0,0-2.9,1,2.82,2.82,0,0,0-.62,1.62c0,.1.22-.12.48-.46l-.16-.06a1.11,1.11,0,0,1,.18-.34c0-.06,0-.16.14-.22a.47.47,0,0,0,.2-.22H44.5A2.1,2.1,0,0,1,46.32,16l.56.06a.36.36,0,0,0,.25-.06c.06,0,.08-.1,0-.1a4.87,4.87,0,0,0-1.9.08,3.58,3.58,0,0,1,2.06-.28c.38,0,.4-.25,0-.31Z"></path> <path class="cls-4" d="M48.5,15.11c-.08.06,0,.2.08.25s.18,0,.14-.08-.14-.25-.22-.18Zm-.86-.32c-.14-.18,0-.28.2-.25a3.68,3.68,0,0,1,1.52.48c.2.14,0,.28-.1.18L48.84,15c0,.19-.14.11-.38-.09-.17.16-.36.08-.59-.16l.14.4c0,.08-.06.08-.1,0Z"></path> <path class="cls-4" d="M49.78,15.61c-.06,0-.2-.1,0-.14-.2-.13-.12-.28,0-.3.54,0,1-.32,1.58,0l.28.32c.19.42,0,.62-.21.32s0-.34-.32-.49a2.27,2.27,0,0,1,.28.95c.46.44,0,.54-.09.25l-.17-.82c0,.4,0,.7,0,.7s-.06-.28-.13-.62c0-.14-.08-.4-.15-.42a2.09,2.09,0,0,0-.93,0c.44,0,.74,0,.85.12a.72.72,0,0,1,.09.62c-.09.16-.16.12-.16-.08l-.05-.25c0-.14-.18-.16-.41-.14a.62.62,0,0,1-.46,0Z"></path> <path class="cls-4" d="M50.4,30c-.1-.16.16-.26.37,0a13.15,13.15,0,0,1,1.17,1.94c.19.4,0,.5-.17.14A13.29,13.29,0,0,0,50.4,30Zm.62.2h0a8.59,8.59,0,0,1,.92,1.54c.11.22.26.16.15-.08a12.43,12.43,0,0,0-.85-1.51c-.15-.25-.36-.14-.22.06Zm-6.8.38a21.31,21.31,0,0,0,2.22,3c.1.12,0-.25.1-.1a3.61,3.61,0,0,0,.58.86c.12-.1-.25-.44-.32-.84l1.14,1.32c.1-.18-.56-1-1.1-1.64l.08-.08,1.3,1.7.06,0a12,12,0,0,0-1.2-1.86l0-.14c.25.3.56.76.82,1.14A6.91,6.91,0,0,0,48.76,35c.48.12-1.14-1.58-1.88-3l0-.08A11.24,11.24,0,0,0,49.42,35c.1.06.18-.06.08-.18A28.92,28.92,0,0,1,47.23,32l0-.08c.85,1,1.28,2.14,2.89,3.1.1.06.16.16.25.08.36-.28-1.38-.7-2.72-3l0-.16a10.84,10.84,0,0,0,1,1.36c.64.7,1.64,1.51,1.8,1.4s-1.44-1.24-2.3-2.58l0,0a8.85,8.85,0,0,0,3,2.8c.2.1.12.08.36.08.62,0-1.38-1-2.42-2.12l0-.1c.3.25.68.6,1.1.94a16.71,16.71,0,0,0,1.44.92c.38.2.68.32.82.25.36-.18-1.38-.79-1.82-1.26a5.39,5.39,0,0,0,.74.35c.76.38,1.3.64,1.42.5s-.32-.32-1-.58q-.12-.12.18-.06c.8.32,1.26.54,1.36.48s-.16-.25-.64-.56a3.09,3.09,0,0,0,1.4.42c.1,0-.34-.25-.72-.6.54.34,1.82.8.6-.06l.08,0c.46.34,1,.48.34-.08h.1c.4.32.62.56.32-.1.4.58.8.8.25,0l.62.48c-.21.1-.19.16,0,.28.53.34.57.28.47,0a1.08,1.08,0,0,0-.51-1.12c-.4-.25-.38,0,.08.76a2.3,2.3,0,0,1-.42-.46A.49.49,0,0,0,55,33a25.26,25.26,0,0,0-2.74.32,2.24,2.24,0,0,1-1.44-.16c-.25-.2-.32-.28-.2-.5a.28.28,0,0,0-.11-.37h0L49.88,31c.08.14.18.2.25.32.25.42.44.76.51.74-.1-.28-.44-.9-.7-1.6.5.88.94,1.64,1.06,1.54a7.58,7.58,0,0,0-.86-1.68,3,3,0,0,1,.25.25c.16.2.3.38.38.34a2.18,2.18,0,0,0-1-1.2c-.56-.2-.9-.28-.82.08l-.28-.32-.3,0c-.1,0,0,.2.24.54l-.06,0-.34-.54c-.1-.06-.25-.12-.25,0l.18.36-.38-.42c-.18-.1-.38-.14-.38-.06l.56.92c-.1-.14-.26-.28-.4-.48s-.4-.52-.66-.56.25.4.62,1.26l-.86-1.24c-.09-.06-.43-.12-.44,0l1,1.44A7.88,7.88,0,0,1,46,29.21a.19.19,0,0,0-.18-.06s-.08,0-.12,0l1.22,1.58a8.5,8.5,0,0,1-.66-.68c-.25-.36-.5-.6-.7-.92a.18.18,0,0,0-.25,0c-.1.14.92,1.18,1.36,1.8a10.18,10.18,0,0,1-1.54-1.8c-.2-.1-.34-.1-.4,0S46,30.52,46.47,31.3a22.48,22.48,0,0,1-1.88-2.14c-.08-.1-.32-.1-.32,0s1.12,1.22,2,2.46a17.08,17.08,0,0,0-1.8-1.88c-.16,0,.4.68,1.68,2.14A17.2,17.2,0,0,1,44.4,30c-.16.14.54,1,1.56,2.14l-1.6-1.68C44.14,30.34,44.11,30.36,44.22,30.56Z"></path> <path class="cls-4" d="M49.62,17.47s0,.28-.06.42a.7.7,0,0,0,0,.38c.06.14.08.16.08.12a3.66,3.66,0,0,1,0-.74A.2.2,0,0,0,49.62,17.47Zm.22,0c0,.17,0,.34,0,.52a1,1,0,0,0,.08.5c.06.16.1.2.1.14a4.9,4.9,0,0,1-.07-.94.23.23,0,0,0-.07-.22Zm.26,0a3.64,3.64,0,0,0,0,.66,1.05,1.05,0,0,0,.1.6c.08.2.12.24.12.18a5.83,5.83,0,0,1-.12-1.18c0-.16,0-.22-.08-.25Zm.3.3a4,4,0,0,0,0,.6.92.92,0,0,0,.1.54c.08.18.14.22.12.16A4.72,4.72,0,0,1,50.48,18a.32.32,0,0,0-.08-.25Zm.28.32s0,.34,0,.52a.8.8,0,0,0,.1.5q.15.21.12.12a7.36,7.36,0,0,1-.15-.94c0-.14,0-.18-.08-.2Zm.28.3h0c.06,0,.08.06.08.18a4.57,4.57,0,0,0,.16.82c0,.06,0,0-.1-.1a.68.68,0,0,1-.12-.44C51,18.67,50.92,18.35,51,18.37Zm.3.3s0,.28,0,.42a.6.6,0,0,0,.12.36c.08.1.12.14.1.1a2.89,2.89,0,0,1-.16-.72A.3.3,0,0,0,51.26,18.67Zm.28.3h0a.15.15,0,0,1,.08.14,3.18,3.18,0,0,0,.18.6s0,0-.1-.08a.42.42,0,0,1-.12-.3C51.56,19.21,51.5,19,51.54,19Zm1.62,2.48c-.22-.22-.36,0-.06.32s.54.16.46.08Zm-5.22-5.29c.06,0,.14.25.22.46s.14.31.2.48A1.09,1.09,0,0,1,47.94,16.16ZM45.3,20.11a5.67,5.67,0,0,0,2.1,3.18c-.08-.25-1-1.08-1.44-1.82S45.46,20.31,45.3,20.11Zm.16-.38h0c.14.16.2.58.6,1.26s1.2,1.4,1.28,1.64A4.67,4.67,0,0,1,45.46,19.73Zm.14-.4h0c.14.16.22.56.58,1.2s1.1,1.28,1.16,1.51a4.36,4.36,0,0,1-1.74-2.7Zm.16-.38h0c.14.14.22.52.54,1.1s1,1.2,1.06,1.4A4.1,4.1,0,0,1,45.76,19Zm.2-.38h0c.12.12.18.48.5,1s.9,1.1.94,1.28A3.63,3.63,0,0,1,46,18.56Zm.2-.38h0c.1.1.18.44.46.94s.8,1,.84,1.18A3.21,3.21,0,0,1,46.16,18.19Zm.22-.38a2.83,2.83,0,0,0,1.14,1.92c0-.14-.48-.6-.72-1.06A8.63,8.63,0,0,0,46.38,17.81Zm.24-.36h0a2.36,2.36,0,0,0,1,1.72c0-.12-.4-.54-.62-.94a7.11,7.11,0,0,0-.38-.78Zm.28-.37a2.22,2.22,0,0,0,.84,1.55,7,7,0,0,0-.52-.84A6.43,6.43,0,0,0,46.9,17.08Zm.3-.32h0a1.73,1.73,0,0,0,.72,1.33c0-.1-.25-.4-.42-.72s-.19-.4-.3-.6Zm-2.42,8.41a3.18,3.18,0,0,0,.06-.43,16,16,0,0,0,2.58,3,26.94,26.94,0,0,0-2.14-2.55c-.16-.28-.3-.54-.4-.75s0-.22,0-.36a10.25,10.25,0,0,0,2.6,3.16c-.14-.36-1.38-1.36-2-2.42A6.41,6.41,0,0,1,45,23.77v-.18a10.74,10.74,0,0,0,2.6,3.17c-.12-.36-1.4-1.4-2-2.43A9.59,9.59,0,0,1,45,23.27v-.2a12.59,12.59,0,0,0,2.74,3.36c-.12-.33-1.56-1.6-2.16-2.57A8.11,8.11,0,0,1,45,22.75v-.28A10.23,10.23,0,0,0,47.7,25.8c-.12-.34-1.51-1.49-2.06-2.43a6.54,6.54,0,0,1-.56-1.16c0-.1,0-.2,0-.3a8.17,8.17,0,0,0,2.56,3.21c-.12-.3-1.4-1.35-1.92-2.23a11,11,0,0,1-.62-1.24c0-.11,0-.23,0-.34a7.58,7.58,0,0,0,2.44,3.19c-.08-.31-1.28-1.25-1.8-2.09a7.78,7.78,0,0,1-.62-1.34V21c0-.12,0-.25,0-.38a6.72,6.72,0,0,0,2.32,3.3c-.08-.25-1.18-1.2-1.64-2a14.24,14.24,0,0,1-.68-1.42c.34-2.88,1.56-4.58,3.34-4.88l0,0a1.94,1.94,0,0,0,.2,1.16A4.47,4.47,0,0,0,48.7,16v-.3l.16,0c0,.4.16.78.34.82a1.48,1.48,0,0,1-.16-.74l.22.06c0,.42.14.88.34.9a1.25,1.25,0,0,1-.16-.82l0,0a1,1,0,0,0,.18.4c.08-.1,0-.3,0-.52a.72.72,0,0,1,.76.08c.1.12.06.18-.08.18h-.14l.32.14s.08.08-.1.1l-.12.1.42,0c.14.06.12.1.08.16l-.1.12a2.42,2.42,0,0,1,1.2.32c0,.16-.2.14-.54,0,.08.2.4.22.38.34s-.52,0-.74.3l.54,0c.12.08.08.14-.1.14.28.34.5.44.58.2s.16-.18.25,0c.34.2.4.22.2.25l-.32.06.38.06a.1.1,0,0,1,.08.12.08.08,0,0,1,0,.06c-.25,0-.28.08.2.1.2.1.28.2.2.28-.42,0-.4.08.1.12.12.06.16.14.14.2-.25.06-.22.12.1.12,0,.06.08.1,0,.16q-.45.12.12.12c0,.14.26.12.32.3.32-.06.46.16.18.16l0,.06c.46,0,.66.14.61.42,0,.12-.67-.25-.4.72l.09.1c.19,0,0-.44.29-.4,0,0,.07.16,0,.4s-.21.32-.42.18-.32-.27-.32-.43l0-.3c-.22,0-.25-.12-.28-.34,0,0-.08,0-.06-.08-.36-.06-.52.06-.62.32,0,.1-.1,0-.14-.08s-.12,0-.2,0,0-.14-.1-.12,0,.06-.12.06,0-.16-.16,0-.1.08-.12,0,.1-.3-.12,0c-.08,0-.1,0-.14-.06-.12-.34-.2-.36-.25-.06-.06.12-.13.14-.13,0-.12-.52-.14-.52-.1,0,0,.22-.08.2-.19-.06-.15-.42-.21,0-.3-.16s-.05-.58-.29-.68l.15.7c0,.1-.17.12-.19,0a3.45,3.45,0,0,0-.32-1l.18,1c0,.09-.2,0-.25-.07l-.25-1.2c-.06-.35-.06.64.08,1.06,0,.06-.16.06-.14,0a4,4,0,0,0-.25-1.17c-.14.14.25,1.28-.06,1.1,0,0-.14-1.17-.19-1.18s0,1.09,0,1.08c-.32-.4,0-1.49-.19-1.55,0,0-.15,1.33-.19,1.29.15,1,1,1.05.91,1.36l-.58-.31c.16.31.39.63.56,1-.19.06,0,.3.14.42-.18,0-.14.1.2.42a.16.16,0,0,1,.08.18c-.42-.1-.46-.1.22.44-.42-.06-.44,0,0,.3a.57.57,0,0,1,.2.3c0,.08-.06,0-.1,0s-.2-.12-.26-.14,0,.14.52.56c.14.12.2.22.1.25-.68-.42-.64-.32.1.32.18.28.2.4.14.44-.6-.51-1-.82,0,.22.18.18.22.3.08.32-1-.78-.48-.25.23.46,0,0,0,.1,0,.08-1-.74-1-.56,0,.54,0,.1.09.18,0,.25s-.09,0-.14,0c-.72-.68-.66-.54.16.58.12.18.19.35,0,.26-.89-1-1.18-1.25,0,.32.12.2.14.3,0,.24-.83-1.12-.85-1,0,.22.05.14.05.16,0,.14-.75-.9-1-1.12,0,.2.12.25.1.28,0,.16-.9-1.12-.92-1,0,.18.09.14.13.22,0,.16-1-1.18-1-1.14,0,.14,0,.32,0,.3-.18.14s-.1-.22-.2-.32c-.64-.78-.72-.72,0,.28-.08.08-.18.08-.3,0-.66-.86-.72-.86-.2,0L50,29.41a.69.69,0,0,0-.2-.25c-.62-.6-.84-.66-.22.12,0,0,0,0,0,.06l-.7-.12a.35.35,0,0,1-.25-.14,4.28,4.28,0,0,0-.91-1.2c0,.18.42.5.72,1,.08.32-.28.19-.4.13-.22-.3-.3-.34-.62-.73-.9-1.05-1.86-2.26-2.64-3.1Zm-.06.42h0c.74.82,1.66,2,2.51,2.95a2.72,2.72,0,0,0,.34.42c.14,0,.22.08.22,0-.2-.22-.18-.2-.54-.64-.68-.84-1.86-2.27-2.46-3,0,.1,0,.2-.07.32Zm-.1.49c.72.8,1,1.16,1.76,2.08.08.12.51.54.58.64s.44.2.28.06,0,0-.2-.3L44.7,25.7c0,.14-.06.25-.08.38Zm-.12.41c.68.79,1.3,1.49,2,2.35a.31.31,0,0,0,.28,0c-.08-.08-.56-.66-.64-.76-.58-.72-.92-1.1-1.58-1.9,0,.1,0,.2-.08.3Zm-.14.51c.52.6,1,1.12,1.56,1.78.16.08.28.08.34,0-.52-.68-1.18-1.42-1.78-2.16a2.16,2.16,0,0,1-.1.25.18.18,0,0,0,0,.1Zm-.08.64c.42.42.74.68,1.12,1.08.12.06.2.06.25,0-.46-.58-.88-1-1.34-1.6a3,3,0,0,0,0,.52Zm.08.56c.2.2.4.32.6.54a.27.27,0,0,0,.3,0c-.32-.34-.62-.54-1-.88Zm.4.52c-.3,0-.36,0-.38-.34C44.52,28.52,44.63,28.58,44.76,28.72Zm3.53-12.89a1.42,1.42,0,0,0,.32,1.22,3.79,3.79,0,0,0-.18-.66C48.37,16.14,48.35,15.87,48.29,15.83Zm.3,11a.89.89,0,0,0-.48-.7c0,.06.18.22.3.4A2.38,2.38,0,0,0,48.59,26.8Zm.08.78h0A1.47,1.47,0,0,0,48,26.51c0,.09.28.35.44.61a4.17,4.17,0,0,0,.26.46Zm.08.76h0a2.09,2.09,0,0,0-.9-1.39c0,.1.36.44.56.78S48.63,28.14,48.75,28.34Zm0,.6a2,2,0,0,0-1-1.48c0,.13.42.47.66.9a3.68,3.68,0,0,0,.34.58ZM47.53,16.45a1.42,1.42,0,0,0,.56,1.12,5.28,5.28,0,0,0-.3-.58c-.12-.28-.18-.51-.25-.54Z"></path> <path class="cls-5" d="M32.71,15.09c-.28-.1-.36,0-.3.32,4,5.64,10.07,13.89,17.21,23.61l0,.14.61.34L50,38.7l-.12.07C44.36,31.09,38,22,32.72,15.08Zm-.7.32c.06.16-.06.24-.18.08a.75.75,0,0,1,.08-1,.67.67,0,0,1,.95-.14l.06,0c.2.16.14.18-.1.18-.68,0-.94.34-.82.86Zm-3-5.15c.6.74,1.17,1.44,1.8,2.27,0,.14-.05.22-.21.22-.67-.94-1.16-1.7-1.67-2.42-.09-.14,0-.16.08-.08Z"></path> <path class="cls-6" d="M43.4,16.85c-.14-.1-.2.14,0,.06l.34-.3c.16-.28.06.08.16.06a.66.66,0,0,0,.25-.54l.28-.14c.16-.14.12-.2-.1-.18a3.37,3.37,0,0,0-.74.72l-.25.32Zm-.64-.16s0,.1-.06.18a.2.2,0,0,1-.18.06.17.17,0,0,1,.06-.18Q42.7,16.66,42.76,16.69Zm-8.25-.46c-.25.08-.25.18,0,.22a.53.53,0,0,0,.25,0c.14,0,.2,0,.26.12s.22.28.32.22-.38-.38-.16-.38h.12c.34.32.66.5.64.44l-.14-.36c0-.12.14-.06.22,0l.46.4c.06.08,0-.06-.08-.32,0-.08.08-.08.16,0,.28.28.62.75.62.58V17c0-.08.1-.08.16,0s.38.38.36.3l0-.16c0-.1.06-.1.18,0l.48.4c.1.08.18,0,.14,0l-.08-.12c-.06-.1,0-.12.1,0l.44.3c.08.06.08,0,0-.2h.25c0,.14.14.18.38.28.06,0,.08,0,.2-.08l.58-.18c.18-.06.16-.18,0-.14a3.79,3.79,0,0,1-2.66-.72,3.75,3.75,0,0,0-3.08-.38Zm1-.64h0a1.17,1.17,0,0,1,1.26-.2c.54.34.74.25,1.2.6a6.74,6.74,0,0,0,1.64.8c.12,0,.1.1-.1.2-.32-.22-.56-.36-.36,0q-.06,0-.12-.06c-.36-.32-.64-.48-.84-.46-.25-.32-.38-.34-.32-.08,0,.1-.06.06-.14,0q-.45-.66-.42-.18c0,.06,0,.06-.12,0-.25-.48-.32-.51-.2,0,0,0-.08,0-.14,0-.22-.44-.24-.4-.24-.14-.34-.48-.42-.4-.34-.08-.22-.32-.32-.34-.32-.08-.18-.18-.32-.16-.46,0s-.08-.06,0-.12Zm2.27-.12a3.19,3.19,0,0,1,1.3.44c0,.06,0,.1,0,.06a.67.67,0,0,0-.42-.18c0,.18,0,.26-.06.25-.16-.28-.3-.32-.42-.25s-.06,0-.1,0c-.12-.25-.18-.25-.24-.16-.12-.1-.12-.16,0-.16ZM31.11,19c.3-.46.54-.6.7-.24.2-.64.42-.7.7-.14.38,0,.46.58.4,1.44l-.36-1v.62C32.3,18.61,30.77,19.23,31.11,19Zm2,.25c.06,0,.12.08.16.22s0,.26,0,.26-.12-.08-.16-.23A.42.42,0,0,1,33.15,19.2Zm-2.28,2.17a1.16,1.16,0,0,1,.44-.38l0,.18.48-.16,0,.16.52-.28c-.3.38-.36.54-.25.54s.46-.44.58-.32c-.25.4,0,.28.42-.08.12,0-.16.32-.12.36s.2-.08.52-.3c.08-.06.25-.25.3-.16s-.1.18-.16.25c-.32.38-.24.32.32,0,.08,0,.2-.14.28-.1-.38.5-.22.4.34.06.08,0,.18-.18.28-.08-.7.62-.58.7.32.25-.42.48-.32.51.34.08.06,0,.14,0,.22,0-.3.3-.34.52-.2.44a1.4,1.4,0,0,1,.64-.18c-.28.29-.25.4.1.34.12,0,0,.19-.36.43-.06.1-.12,0-.18-.24,0,.13-.1.13-.16.06l-.08.52-.12,0v-.28q-.09-.12-.18,0l-.11.39-.19-.1a.76.76,0,0,1-.28.38c-.12-.16-.2-.12-.25,0s-.12,0-.2,0c-.06.18-.12.22-.22.1a2.28,2.28,0,0,0-.46.36l-.08-.2c-.14.2-.25.32-.34.28L33,23.45l-.22.36-.36.1c0,.1.14.1.38.06a10.36,10.36,0,0,0,1.34-.3,10,10,0,0,0,1.32-.38c.38-.18.82-.5,1.26-.72.1.08,0,.28-.82.94l-.38-.12.22.29c-.1.1-.18.15-.28.13l-.36-.17.12.38c-.25,0-.38-.32-.62-.18l.1.3L34.13,24l.1.36-.46-.2-.1.2c-.14,0-.22,0-.24.1a5.89,5.89,0,0,0,3.42-.78c.06,0,.08,0,.08.12a2.17,2.17,0,0,1-1,1.28l.16-.64c-.36.16-.75.94-1.06,1l.33-.85-1,.79c-.08-.1,0-.32.25-.6-.28,0-.75.66-.84.62s.16-.3.26-.44c-.26,0-.44.22-.66.34,0-.12.11-.25.36-.48L33,25.2c0-.14.3-.25.36-.46a2,2,0,0,1-.76.38l.25-.38-.72.36.42-.45-.72.34.2-.38-.52.34.22-.42a1.34,1.34,0,0,1-.64.37c.14-.18.25-.32.22-.42a1.31,1.31,0,0,1-.58.34l.09-.34a1.66,1.66,0,0,1-.65.42l.25-.4c0-.06,0-.14-.06-.08l-.55.43c.12-.22.18-.35.1-.42l-.38.2,0-.21-.44.48c-.06,0,0-.14.08-.36l-.46.3a1.8,1.8,0,0,1,1.18-1,8,8,0,0,1,1.54-.28,5.51,5.51,0,0,0,1.7-.42,2.9,2.9,0,0,0,.88-.48c.16-.12.1-.16-.08-.14l-.72,0v-.33l-.28.38-.06-.38-.24.66-.1-.75-.18.82-.1-.81-.3.92-.08-1-.18,1-.18-1-.12,1-.2-.94-.08.91-.25-.92,0,.95-.3-.92-.06.82-.19-.8-.08.72-.18-.66L30,23c-.3-.56-.42-1-.22-1.28A1.16,1.16,0,0,1,30.87,21.37Zm-2.55,4.31-.08.21c.1,0,.18-.11.28-.17l-.08.36c.12,0,.4-.28.6-.42L28.9,26c.18,0,.3-.26.44-.4l-.08.38c.22,0,.36-.3.54-.47l0,.38c.16,0,.28-.25.44-.38l.08.25c.14,0,.22-.18.34-.25l.06.24.3-.3.06.25.34-.12.1.14.28-.14,0,.31.38-.16,0,.2.28-.16V26l.32-.08,0,.25.48-.2-.16.34.42-.25-.06.28.46-.2-.25.42c.3,0,.4-.2.6-.3l-.14.38a1.63,1.63,0,0,0,.82-.62c.06.1,0,.25-.2.6a1.21,1.21,0,0,0,.6-.6l-.1.42a.89.89,0,0,0,.58-.46l0,.39a1,1,0,0,0,.36-.48c.2.08.43,0,.51-.36s0-.4-.22-.3a4.06,4.06,0,0,1-3.69.25,13.69,13.69,0,0,0-3.32-.37c-.5,0-.92.05-1.12.52ZM35,27.1c.08-.12.17-.18.18-.16a.49.49,0,0,1,0,.28c-.06.12-.17.16-.21.14A.35.35,0,0,1,35,27.1Zm.41-.08c.08-.14.17-.22.21-.18s0,.18-.08.32-.2.22-.25.18,0-.18.1-.32Zm.44-.26c.11-.17.25-.25.3-.21s0,.25-.12.4-.26.28-.3.22,0-.22.11-.41Zm-1.37.29c.18,0,.35.06.35.12s-.17.14-.35.14-.34,0-.34-.14.16-.12.36-.12Zm8-10.47c0-.14.52-.5,1.2-1a1.23,1.23,0,0,1,.83-.33,1.09,1.09,0,0,0,.36,0c.16.1.1.18-.08.22a.2.2,0,0,0-.25,0c-.18,0-.2.16-.32.2l-.06-.12c-.25.16-.4.6-.58.82l0-.22c-.12,0-.2.28-.38.42,0-.16,0-.25-.08-.25-.3.2-.52.3-.6.22Z"></path> <path class="cls-7" d="M73.74,10H79v7.62h.78v3h-1v-2H73v2H72v-3h.66q1-1.58,1-6.36V10Zm4.11,1h-3v.44c0,.73-.07,1.74-.2,3a10,10,0,0,1-.78,3.15h4Z"></path> <path class="cls-7" d="M85.29,16.61l1.1.14a2.66,2.66,0,0,1-1,1.49,3.28,3.28,0,0,1-4-.31,3.36,3.36,0,0,1-.8-2.38,3.47,3.47,0,0,1,.81-2.45,2.82,2.82,0,0,1,2.11-.88,2.71,2.71,0,0,1,2.06.86,3.4,3.4,0,0,1,.79,2.41v.28H81.74a2.41,2.41,0,0,0,.58,1.58,1.76,1.76,0,0,0,1.31.55,1.65,1.65,0,0,0,1-.31,2,2,0,0,0,.66-1ZM81.8,14.9h3.49a2.12,2.12,0,0,0-.4-1.19,1.63,1.63,0,0,0-1.31-.61,1.66,1.66,0,0,0-1.23.49,1.94,1.94,0,0,0-.55,1.31Z"></path> <polygon class="cls-7" points="87.72 12.37 92.66 12.37 92.66 18.63 91.6 18.63 91.6 13.24 88.78 13.24 88.78 18.63 87.72 18.63 87.72 12.37"></polygon> <path class="cls-7" d="M98.34,17.86a4.14,4.14,0,0,1-1.13.71,3.6,3.6,0,0,1-1.17.2,2.28,2.28,0,0,1-1.59-.5A1.63,1.63,0,0,1,93.9,17a1.61,1.61,0,0,1,.2-.84,1.71,1.71,0,0,1,.55-.61,2.39,2.39,0,0,1,.76-.35,7.38,7.38,0,0,1,.94-.16,9.3,9.3,0,0,0,1.89-.37v-.27a1.15,1.15,0,0,0-.3-.92,1.79,1.79,0,0,0-1.21-.36,1.92,1.92,0,0,0-1.1.25,1.65,1.65,0,0,0-.51,1l-1-.14a2.66,2.66,0,0,1,.46-1.08,1.94,1.94,0,0,1,.94-.63,4.31,4.31,0,0,1,1.42-.23,3.84,3.84,0,0,1,1.3.2,1.65,1.65,0,0,1,.74.47,1.63,1.63,0,0,1,.33.72,6.44,6.44,0,0,1,0,1V16a16.7,16.7,0,0,0,.07,1.87,2.5,2.5,0,0,0,.27.75H98.56a2.26,2.26,0,0,1-.21-.77Zm-.09-2.37a7.9,7.9,0,0,1-1.73.4,3.69,3.69,0,0,0-.93.21.87.87,0,0,0-.41.35.93.93,0,0,0,.17,1.21,1.43,1.43,0,0,0,.94.28,2.14,2.14,0,0,0,1.1-.27,1.6,1.6,0,0,0,.7-.73,2.58,2.58,0,0,0,.18-1.06Z"></path> <path class="cls-7" d="M101,21V12.37h1v.81a2.28,2.28,0,0,1,.77-.71,2.11,2.11,0,0,1,1-.26,2.49,2.49,0,0,1,2.36,1.6,4.21,4.21,0,0,1,.31,1.65,4.15,4.15,0,0,1-.35,1.73,2.59,2.59,0,0,1-2.38,1.58,2,2,0,0,1-1-.22A2,2,0,0,1,102,18V21Zm1-5.5a2.7,2.7,0,0,0,.49,1.79,1.48,1.48,0,0,0,1.18.58,1.53,1.53,0,0,0,1.22-.6,2.86,2.86,0,0,0,.5-1.85,2.63,2.63,0,0,0-.5-1.8,1.5,1.5,0,0,0-1.16-.6,1.53,1.53,0,0,0-1.21.64A2.88,2.88,0,0,0,101.93,15.53Z"></path> <polygon class="cls-7" points="106.85 12.37 111.94 12.37 111.94 13.24 109.92 13.24 109.92 18.63 108.87 18.63 108.87 13.24 106.85 13.24 106.85 12.37"></polygon> <path class="cls-7" d="M116.91,17.86a4,4,0,0,1-1.14.71,3.55,3.55,0,0,1-1.17.2,2.26,2.26,0,0,1-1.58-.5,1.68,1.68,0,0,1-.56-1.29,1.72,1.72,0,0,1,.21-.84,1.62,1.62,0,0,1,.55-.61,2.34,2.34,0,0,1,.75-.35,7.53,7.53,0,0,1,1-.16,9.43,9.43,0,0,0,1.89-.37v-.27a1.15,1.15,0,0,0-.3-.92,1.79,1.79,0,0,0-1.21-.36,2,2,0,0,0-1.11.25,1.64,1.64,0,0,0-.52.93l-1-.14a2.57,2.57,0,0,1,.46-1.07,2.09,2.09,0,0,1,.94-.64,4.3,4.3,0,0,1,1.42-.22,3.85,3.85,0,0,1,1.31.19,1.89,1.89,0,0,1,.74.48,1.89,1.89,0,0,1,.33.72,6.37,6.37,0,0,1,0,1V16a14.77,14.77,0,0,0,.07,1.88,2.23,2.23,0,0,0,.26.75H117.1a2.51,2.51,0,0,1-.21-.77Zm-.09-2.37a7.9,7.9,0,0,1-1.73.4,3.69,3.69,0,0,0-.93.21.9.9,0,0,0-.42.35.93.93,0,0,0,.18,1.21,1.36,1.36,0,0,0,.94.28,2.2,2.2,0,0,0,1.09-.27,1.65,1.65,0,0,0,.7-.73,2.57,2.57,0,0,0,.17-1.06Z"></path> <polygon class="cls-7" points="119.57 12.37 121.22 12.37 122.86 17.38 124.69 12.37 126.22 12.37 126.22 18.63 125.16 18.63 125.16 13.59 123.31 18.63 122.36 18.63 120.61 13.35 120.61 18.63 119.57 18.63 119.57 12.37"></polygon> <path class="cls-7" d="M132.13,16.61l1.1.14a2.66,2.66,0,0,1-1,1.49,2.91,2.91,0,0,1-1.8.53,2.84,2.84,0,0,1-2.17-.84,3.32,3.32,0,0,1-.81-2.38,3.47,3.47,0,0,1,.81-2.45,2.82,2.82,0,0,1,2.12-.88,2.71,2.71,0,0,1,2.05.86,3.4,3.4,0,0,1,.79,2.41v.28h-4.67a2.36,2.36,0,0,0,.58,1.58,1.74,1.74,0,0,0,1.31.55,1.68,1.68,0,0,0,1-.31,2,2,0,0,0,.65-1Zm-3.48-1.71h3.5a2.12,2.12,0,0,0-.4-1.19,1.64,1.64,0,0,0-1.32-.61,1.67,1.67,0,0,0-1.23.49A1.94,1.94,0,0,0,128.65,14.9Z"></path> <polygon class="cls-7" points="134.56 12.37 135.63 12.37 135.63 14.97 138.57 14.97 138.57 12.37 139.63 12.37 139.63 18.63 138.57 18.63 138.57 15.85 135.63 15.85 135.63 18.63 134.56 18.63 134.56 12.37"></polygon> <polygon class="cls-7" points="140.66 12.37 145.75 12.37 145.75 13.24 143.73 13.24 143.73 18.63 142.67 18.63 142.67 13.24 140.66 13.24 140.66 12.37"></polygon> <path class="cls-7" d="M72.81,25.86h1.06v2.71a1,1,0,0,0,.71-.19,4.15,4.15,0,0,0,.6-1.14,5.32,5.32,0,0,1,.5-1,1,1,0,0,1,.45-.31,2.8,2.8,0,0,1,.81-.09h.22v.88h-.3a.83.83,0,0,0-.53.12,3.13,3.13,0,0,0-.38.78,2.93,2.93,0,0,1-.44.84,1.74,1.74,0,0,1-.62.43,2.61,2.61,0,0,1,1.34,1.28l1.16,1.94H76.23L75.1,30.19a2.46,2.46,0,0,0-.61-.75,1,1,0,0,0-.62-.19v2.87H72.81Z"></path> <path class="cls-7" d="M78.19,34.54l-.12-1a2.1,2.1,0,0,0,.61.09,1.09,1.09,0,0,0,.56-.12.8.8,0,0,0,.35-.33,5,5,0,0,0,.33-.79l.09-.25-2.37-6.27h1.14l1.3,3.62c.17.46.32,1,.46,1.47A14.65,14.65,0,0,1,81,29.52l1.34-3.65h1.06L81,32.24a13.67,13.67,0,0,1-.59,1.42,2.27,2.27,0,0,1-.65.76,1.53,1.53,0,0,1-.88.25A2.28,2.28,0,0,1,78.19,34.54Z"></path> <path class="cls-7" d="M84.53,25.86h4.94v6.26H88.41V26.74H85.59v3.12a9.92,9.92,0,0,1-.07,1.44,1,1,0,0,1-.39.61,1.49,1.49,0,0,1-.92.25,7.92,7.92,0,0,1-.85,0v-.88h.46a1.24,1.24,0,0,0,.47-.06.38.38,0,0,0,.19-.22,5.15,5.15,0,0,0,0-1Z"></path> <path class="cls-7" d="M91,25.86H92.1v2.45h1.34a3.48,3.48,0,0,1,2,.5,1.65,1.65,0,0,1,.71,1.41,1.76,1.76,0,0,1-.59,1.34,2.71,2.71,0,0,1-1.9.56H91Zm1.06,5.39h1.11A3,3,0,0,0,94.65,31a.82.82,0,0,0,.43-.77,1,1,0,0,0-.32-.73,2.11,2.11,0,0,0-1.4-.32H92.1Z"></path> <polygon class="cls-7" points="95.83 25.86 100.92 25.86 100.92 26.74 98.91 26.74 98.91 32.12 97.85 32.12 97.85 26.74 95.83 26.74 95.83 25.86"></polygon> <path class="cls-7" d="M102,34.54l-.11-1a2,2,0,0,0,.6.09,1.11,1.11,0,0,0,.57-.12,1,1,0,0,0,.35-.33,4.21,4.21,0,0,0,.32-.79,2.54,2.54,0,0,1,.1-.25l-2.38-6.27h1.14l1.31,3.63a14.5,14.5,0,0,1,.45,1.45,14.72,14.72,0,0,1,.44-1.43l1.34-3.65h1.07l-2.38,6.37a13.67,13.67,0,0,1-.59,1.42,2.27,2.27,0,0,1-.65.76,1.53,1.53,0,0,1-.88.25A2.15,2.15,0,0,1,102,34.54Z"></path> <path class="cls-7" d="M108,34.52V25.86h1v.82a2.44,2.44,0,0,1,.78-.72,2.1,2.1,0,0,1,1-.25,2.43,2.43,0,0,1,2.34,1.57,4.29,4.29,0,0,1,.32,1.65,4.09,4.09,0,0,1-.35,1.73,2.61,2.61,0,0,1-2.39,1.59,2,2,0,0,1-1-.22,2.11,2.11,0,0,1-.69-.57v3Zm1-5.49a2.73,2.73,0,0,0,.49,1.79,1.54,1.54,0,0,0,1.18.58,1.59,1.59,0,0,0,1.22-.6,2.91,2.91,0,0,0,.5-1.86,2.75,2.75,0,0,0-.49-1.79,1.48,1.48,0,0,0-1.18-.6,1.52,1.52,0,0,0-1.2.64A2.8,2.8,0,0,0,108.94,29Z"></path> <path class="cls-7" d="M120.66,25.86h1.06v6.26h-1.06Zm-5.94,0h1.07v2.45h1.35a3.45,3.45,0,0,1,2,.5,1.66,1.66,0,0,1,.72,1.41,1.8,1.8,0,0,1-.6,1.34,2.7,2.7,0,0,1-1.89.56h-2.66Zm1.07,5.39h1.12a3,3,0,0,0,1.44-.25.82.82,0,0,0,.43-.77,1,1,0,0,0-.32-.73,2.12,2.12,0,0,0-1.41-.32h-1.26Z"></path> <polygon class="cls-7" points="72.82 39.36 76.42 39.36 76.42 40.23 73.88 40.23 73.88 45.62 72.82 45.62 72.82 39.36"></polygon> <path class="cls-7" d="M76.56,42.49a3.22,3.22,0,0,1,1-2.58,2.91,2.91,0,0,1,2-.7,2.79,2.79,0,0,1,2.11.85,3.19,3.19,0,0,1,.82,2.34,4.05,4.05,0,0,1-.37,1.91,2.54,2.54,0,0,1-1,1.08,3.16,3.16,0,0,1-1.51.38,2.83,2.83,0,0,1-2.13-.84,3.36,3.36,0,0,1-.81-2.43Zm1.09,0a2.67,2.67,0,0,0,.53,1.8,1.75,1.75,0,0,0,2.47.17l.16-.17a2.75,2.75,0,0,0,.53-1.84,2.61,2.61,0,0,0-.53-1.76,1.75,1.75,0,0,0-2.47-.17,1.29,1.29,0,0,0-.16.17A2.67,2.67,0,0,0,77.65,42.49Z"></path> <path class="cls-7" d="M83.68,48V39.36h1v.81a2.41,2.41,0,0,1,.77-.72,2.11,2.11,0,0,1,1-.24,2.46,2.46,0,0,1,1.41.42,2.53,2.53,0,0,1,.93,1.16,4.21,4.21,0,0,1,.31,1.65,4.27,4.27,0,0,1-.34,1.73,2.62,2.62,0,0,1-2.39,1.59,2.07,2.07,0,0,1-.95-.22,2.28,2.28,0,0,1-.7-.57V48Zm.95-5.5a2.77,2.77,0,0,0,.49,1.79,1.52,1.52,0,0,0,2.4,0A2.83,2.83,0,0,0,88,42.43a2.71,2.71,0,0,0-.51-1.79,1.51,1.51,0,0,0-1.17-.6,1.56,1.56,0,0,0-1.21.64,2.94,2.94,0,0,0-.51,1.84Z"></path> <path class="cls-7" d="M90,42.49a3.25,3.25,0,0,1,1-2.58,2.91,2.91,0,0,1,2-.7,2.79,2.79,0,0,1,2.11.85,3.15,3.15,0,0,1,.82,2.34,4,4,0,0,1-.36,1.91,2.54,2.54,0,0,1-1,1.08,3.23,3.23,0,0,1-1.52.38,2.82,2.82,0,0,1-2.12-.84A3.36,3.36,0,0,1,90,42.5Zm1.09,0a2.67,2.67,0,0,0,.52,1.8,1.75,1.75,0,0,0,2.47.17c.06-.06.12-.11.17-.17a2.75,2.75,0,0,0,.52-1.84,2.61,2.61,0,0,0-.52-1.76,1.76,1.76,0,0,0-2.47-.17,1.37,1.37,0,0,0-.17.17,2.67,2.67,0,0,0-.52,1.8Z"></path> <path class="cls-7" d="M97.68,39.36h4.37v5.39h.67V47.4h-.87V45.62H96.92V47.4h-.87V44.75h.56q1.11-1.52,1.07-5.39Zm.89.87a10.38,10.38,0,0,1-.95,4.52H101V40.23Z"></path> <path class="cls-7" d="M108,44.85a4.46,4.46,0,0,1-1.14.71,3.55,3.55,0,0,1-1.17.2,2.3,2.3,0,0,1-1.59-.5,1.78,1.78,0,0,1-.08-2.5,1.68,1.68,0,0,1,.29-.24,2.44,2.44,0,0,1,.75-.35A6.28,6.28,0,0,1,106,42a9.3,9.3,0,0,0,1.89-.37v-.27a1.15,1.15,0,0,0-.3-.92,1.79,1.79,0,0,0-1.21-.36,1.92,1.92,0,0,0-1.1.25,1.61,1.61,0,0,0-.52.94l-1-.14a2.58,2.58,0,0,1,.47-1.07,2,2,0,0,1,.94-.64,4.3,4.3,0,0,1,1.42-.22,3.83,3.83,0,0,1,1.3.19,1.73,1.73,0,0,1,.74.48,1.63,1.63,0,0,1,.33.72,6.37,6.37,0,0,1,0,1V43a16.88,16.88,0,0,0,.07,1.88,2.5,2.5,0,0,0,.27.75h-1.11a2.05,2.05,0,0,1-.21-.77Zm-.09-2.38a7.39,7.39,0,0,1-1.73.41,3.69,3.69,0,0,0-.93.21.9.9,0,0,0-.42.35.87.87,0,0,0-.15.5,1,1,0,0,0,.32.71,1.45,1.45,0,0,0,.94.28,2.11,2.11,0,0,0,1.1-.27,1.65,1.65,0,0,0,.7-.73,2.57,2.57,0,0,0,.17-1.06Z"></path> <path class="cls-7" d="M114.06,45.62V37h1.73l2,6.12c.19.57.33,1,.41,1.29.1-.32.25-.78.46-1.39l2.07-6h1.54v8.65h-1.11V38.38l-2.52,7.24h-1l-2.49-7.36v7.36Z"></path> <path class="cls-7" d="M123.77,42.49a3.25,3.25,0,0,1,1-2.58,2.91,2.91,0,0,1,2-.7,2.79,2.79,0,0,1,2.11.85,3.19,3.19,0,0,1,.82,2.34,4.16,4.16,0,0,1-.36,1.9,2.54,2.54,0,0,1-1.05,1.08,3.23,3.23,0,0,1-1.52.38,2.82,2.82,0,0,1-2.12-.84,3.36,3.36,0,0,1-.81-2.43Zm1.09,0a2.67,2.67,0,0,0,.52,1.8,1.74,1.74,0,0,0,2.47.16,1.29,1.29,0,0,0,.17-.16,2.75,2.75,0,0,0,.52-1.84,2.61,2.61,0,0,0-.52-1.76,1.76,1.76,0,0,0-2.47-.17,1.37,1.37,0,0,0-.17.17,2.62,2.62,0,0,0-.51,1.8Z"></path> <path class="cls-7" d="M135,43.32l1,.14a2.71,2.71,0,0,1-.88,1.69,2.53,2.53,0,0,1-1.73.61,2.67,2.67,0,0,1-2.06-.84,3.41,3.41,0,0,1-.79-2.41,4.42,4.42,0,0,1,.34-1.76,2.35,2.35,0,0,1,1-1.15,3.09,3.09,0,0,1,1.49-.38,2.63,2.63,0,0,1,1.67.52,2.36,2.36,0,0,1,.83,1.47l-1,.16a1.72,1.72,0,0,0-.52-.95,1.34,1.34,0,0,0-.91-.32,1.61,1.61,0,0,0-1.3.57,2.71,2.71,0,0,0-.51,1.82,2.81,2.81,0,0,0,.49,1.82,1.6,1.6,0,0,0,1.26.57,1.52,1.52,0,0,0,1-.38A1.93,1.93,0,0,0,135,43.32Z"></path> <path class="cls-7" d="M136.91,39.36H138v2.7a1,1,0,0,0,.71-.19,4.9,4.9,0,0,0,.6-1.13,3.94,3.94,0,0,1,.5-1,1,1,0,0,1,.45-.32,2.46,2.46,0,0,1,.81-.08h.21v.87H141a.8.8,0,0,0-.54.13,3.21,3.21,0,0,0-.37.77,3.46,3.46,0,0,1-.45.85,1.82,1.82,0,0,1-.62.43,2.56,2.56,0,0,1,1.35,1.27l1.16,1.94h-1.17l-1.13-1.94a2.66,2.66,0,0,0-.61-.77,1,1,0,0,0-.61-.18v2.89H136.9Z"></path> <path class="cls-7" d="M142.21,39.36h2.45a4.35,4.35,0,0,1,1.34.15,1.59,1.59,0,0,1,.76.55,1.49,1.49,0,0,1,.31,1,1.47,1.47,0,0,1-.74,1.34,1.47,1.47,0,0,1,.73.55,1.56,1.56,0,0,1,.29,1,1.69,1.69,0,0,1-.63,1.32,2.78,2.78,0,0,1-1.68.43h-2.83ZM143.27,42h1.13a4.12,4.12,0,0,0,.93-.07,1,1,0,0,0,.46-.28.74.74,0,0,0,.2-.51.71.71,0,0,0-.35-.69,2.59,2.59,0,0,0-1.2-.19h-1.17V42Zm0,2.76h1.4a2.57,2.57,0,0,0,1.24-.21.82.82,0,0,0,.35-.72.87.87,0,0,0-.2-.56.86.86,0,0,0-.5-.33,5.65,5.65,0,0,0-1-.06h-1.28Z"></path> <path class="cls-7" d="M154.58,39.36h1.06v6.26h-1.06Zm-5.94,0h1.07V41.8h1.34a3.4,3.4,0,0,1,2,.51,1.62,1.62,0,0,1,.71,1.4,1.76,1.76,0,0,1-.59,1.34,2.68,2.68,0,0,1-1.9.56h-2.65Zm1.07,5.39h1.11a3,3,0,0,0,1.44-.26.81.81,0,0,0,.43-.76,1,1,0,0,0-.32-.73,2.06,2.06,0,0,0-1.41-.32H149.7Z"></path> </svg> 