<?xml version="1.0" encoding="UTF-8"?> <svg xmlns="http://www.w3.org/2000/svg" id="Слой_1" data-name="Слой 1" width="640" height="64.76" viewBox="0 0 640 64.76"> <defs> <style>.cls-1{fill:#ebe5df;}.cls-2,.cls-7{fill:#1e0f00;}.cls-2,.cls-3,.cls-4,.cls-5,.cls-6{fill-rule:evenodd;}.cls-3{fill:#9e2f34;}.cls-4{fill:#fff;}.cls-5{fill:#d7aa26;}.cls-6{fill:#009ad9;}</style> </defs> <title>1Монтажная область 22 копия 2</title> <rect class="cls-1" x="-45.3" y="-15.01" width="1674.42" height="110.51"></rect> <polygon class="cls-2" points="19.67 7 62.41 7 62.41 46.99 62.39 47.39 62.37 47.79 62.33 48.2 62.27 48.58 62.19 48.96 62.09 49.33 61.99 49.67 61.87 50.03 61.73 50.38 61.57 50.72 61.39 51.02 61.21 51.34 60.99 51.64 60.77 51.92 60.53 52.17 60.27 52.44 60.01 52.68 59.71 52.92 59.41 53.14 59.09 53.34 58.74 53.52 58.41 53.7 58.05 53.86 57.64 54 57.26 54.12 56.84 54.24 56.42 54.34 55.96 54.4 55.52 54.48 55.04 54.52 54.56 54.54 54.06 54.56 49.1 54.56 48.76 54.56 48.42 54.58 48.08 54.58 47.76 54.62 47.44 54.64 47.14 54.68 46.84 54.74 46.54 54.78 46.25 54.84 45.98 54.9 45.7 54.98 45.41 55.06 45.16 55.14 44.92 55.22 44.65 55.32 44.41 55.42 44.17 55.52 43.95 55.64 43.71 55.74 43.49 55.86 43.29 55.98 43.07 56.1 42.87 56.24 42.67 56.38 42.47 56.52 42.27 56.66 42.09 56.8 41.91 56.96 41.73 57.12 41.55 57.26 41.39 57.42 41.03 57.76 40.69 57.42 40.51 57.26 40.33 57.12 40.15 56.96 39.97 56.8 39.79 56.66 39.59 56.52 39.39 56.38 39.19 56.24 38.99 56.1 38.79 55.98 38.57 55.86 38.33 55.74 38.11 55.64 37.89 55.52 37.65 55.42 37.41 55.32 37.15 55.22 36.91 55.14 36.63 55.06 36.37 54.98 36.11 54.9 35.83 54.84 35.53 54.78 35.23 54.74 34.92 54.68 34.63 54.64 34.3 54.62 33.98 54.58 33.65 54.58 33.3 54.56 32.94 54.56 28 54.56 27.5 54.54 27.02 54.52 26.54 54.48 26.08 54.4 25.64 54.34 25.22 54.24 24.8 54.12 24.4 54 24.04 53.86 23.66 53.7 23.3 53.52 22.98 53.34 22.66 53.14 22.36 52.92 22.06 52.68 21.8 52.44 21.54 52.17 21.3 51.92 21.08 51.64 20.85 51.34 20.68 51.02 20.5 50.72 20.34 50.38 20.19 50.03 20.07 49.67 19.95 49.33 19.87 48.96 19.8 48.58 19.73 48.2 19.69 47.79 19.67 47.39 19.67 46.99 19.67 7"></polygon> <path class="cls-3" d="M19.93,7.25h42.2V47c0,4.29-2.74,7.31-8.07,7.31h-5A10.73,10.73,0,0,0,41,57.41,10.76,10.76,0,0,0,33,54.3H28c-5.32,0-8.08-3-8.08-7.31Z"></path> <path class="cls-2" d="M28.64,9.86c-.25,0-.36.22-.32.52L30.1,12.9c.06.12.18.24.16.34-.14.35-.2.56.1.87l.6.58a1.69,1.69,0,0,0,.28.88c-.14.28,0,.54.28.8.06.08.08.18.18.25l.1.86A4,4,0,0,0,30.46,19c0,.18-.08.32,0,.42l1.18-.12c.1.06.22.08.26.16a.86.86,0,0,1-.5,1.11l-.21.05c-1.45.36-2.52.86-2.09,1.84.53.7.25,1.32-.67,1.88a.89.89,0,0,0-.28.8,3,3,0,0,0-.64.94c-.14.4-.14.59.14.55,2-.68,4-1,5.47.22.7.58.58.88,1.68.94-.12.46,0,.72.4.8l.06.53c-.44.1-.94.1-1.38.22a6.81,6.81,0,0,1-1.42.32,10.77,10.77,0,0,0-1.18-.7c-1.84-1.14-3.38-1.2-4.72.36A9.83,9.83,0,0,0,24.74,33c-.1.3-.34.42-.83.14-1-.78-1.13-1.48-.65-1.94.68-.64.94-.25.58.08l0,.08c.52,0,.72.36.92.74a2.16,2.16,0,0,0-.42-2.54l-.15,0,.06,1a1.42,1.42,0,0,0-1.72,1.36c-.08.77.28,1.4,1.24,2,.54.18.7.8.28,1.42-1,1.52-.88,3.15.06,5.23l.12-.06c.2-2.29.68-3.45,1.44-3.67a1.32,1.32,0,0,0,.66-.5c.22-.34.34-.3.51.06a2.81,2.81,0,0,1-.2,2.8c-1.32,2.14-1.38,3.79.5,5.09l.06.16-.5.64c-.16.25,0,.58.4.94a3.55,3.55,0,0,1,.58,1.78,1,1,0,0,0-.08.88,2.05,2.05,0,0,0,1.92.52c.1,0,.08-.1.08-.2.08-.44-.22-.76-.54-1.3a2.09,2.09,0,0,1-.84-2.42l.14-.22a15.13,15.13,0,0,0,2.54.68,2.5,2.5,0,0,0,0,2.2,2.33,2.33,0,0,0,2.47,1.42c1.62-.14,2.42-1.48,1.82-3.3.58-.32,1-.3,1.16.06,0,.82.34.56.36,1.36-1,.84-1.32,1.56-.28,2,.54.54.24.74-.46.78-.74-.18-1.28-.14-1.38.46-.69,0-.88.44-.86,1.08.19-.48.58-.52.77-.4a3.14,3.14,0,0,0,1.07-.06,1.18,1.18,0,0,1,1,0,.48.48,0,0,1,.44.25c.48.5.42-.06,1.48.58.25,0,.7,0,.78.42l.1-.38a.33.33,0,0,0-.12-.44c-.34-.4.2-.42,1.14-.25a2.52,2.52,0,0,0,1.32.25c.42-.42.52-.16.6.4.3-.82.1-1.26-.72-1.3.14-.44.2.22.51-.32.25-.12.51,0,.78.25,0-.4-.18-.64-.71-.75-.12-.34-.37-.36-.74,0-1.51-.4-1.68-1.32-.82-1.52.46-.11.64.37,1,.51a3.08,3.08,0,0,0,.8.1,2,2,0,0,1,1.06.28l.3.1c.16-.12.32-.1.52.08s.44.36.64.1c.6-.48,1.52-.48,1.45-.18s.06.6.22.56.2.2.2.52c-.59,0-1,.08-1,.5-.55.16-.53.54-.29,1,0-1,.76-.18,1.57-.7l.56-.06c.06.28.32.4.82.38a3.4,3.4,0,0,1,.64-.09,2,2,0,0,1,2.34.6.72.72,0,0,0-.06-.75c.68-.46,1.42-.28,1,.46.4-.2.8-1.22.28-1.2.22-.6,1.12-.1.86.34.38-.2.44-.51,0-.88q-.09-.51-.84-.3c-.28-.48-.64-.51-1.12-.08-.48.22-.86.25-1.1-.08s-.2-.62.16-.48c.18.06.25-.16.48-.58.08-.19.25-.32.36-.56.52-.08.94-.55,1.48-1.47.38-.17.56-.92.58-2.08.16.08.36,0,.62-.14-.18,0-.25-.08-.25-.54h.5c.2-.08.28-.16.26-.25s-.2-.06-.34-.28a1.6,1.6,0,0,0-.53-.84l-.47-.78c-.34-1.08-.75-1.7-1.24-1.3L52,40.35a4.86,4.86,0,0,1-.88-1.61c0-.75-.78-.8-1.2-.07l-.12-.61-.2.32-1.26-1.82c.14,0,.38-.16.52-.18a11.3,11.3,0,0,0,4.67-1.46l1.12-.34a.68.68,0,0,1,.92.22L56.66,36a.55.55,0,0,1,.1.7c-.12.25.16.56.56.9a1.4,1.4,0,0,1,.08,1.63c-.18.44-.14.72.12.86l.78.56c.52.42.78.28.76-.46a2.78,2.78,0,0,0-.39-1.12,3.13,3.13,0,0,1-.45-1.36c0-.93-.15-1.41-.53-1.73a6.75,6.75,0,0,1-1.12-1.42c-.1-.3-.18-.48-.34-.56,0-1-.74-1.44-1.18-1.18a3.12,3.12,0,0,1-1.14.06v-.22a12.56,12.56,0,0,0,2.22-2.12c.32-.4.48-.25.8.08l1.25,1.3c0,.64,0,1.06.5,1,.3.52.44,1,.16,1.24s-.5.4-.5.74c.06.5.64,1,1.28,1.26a.2.2,0,0,0,.2-.1,2.1,2.1,0,0,0,0-1.48l-.22-.74a2.77,2.77,0,0,1,0-.76,1.14,1.14,0,0,0-.54-1.34,14.77,14.77,0,0,1-2-2.48c0-1.14-1-1.44-1.59-.2l-1.2.84c-.3.2-.5-.12-.5-.44-.12-1.52-1.14-2.7-2.27-3.87-.6-1.82-1.42-3.34-1.72-4.74a4.43,4.43,0,0,1,2.34.68c.51.54,1.14.82,1.3.44.06-.12-.3-.34-.48-.52a1.29,1.29,0,0,1,.74.46c.51,0,.66-.38.52-.9.06-.42,0-.74-.14-.88l-.41-.23a13.11,13.11,0,0,1-1.77-2.36.46.46,0,0,1-.08-.25,1.17,1.17,0,0,0-.44-1l.16-.08,0-.12.36.08-.36-.6c-.2-.74-.88-.87-1.9-.57-.14.05-.32-.11-.51-.31-.64-.62-1.32-1-1.08-.51,0,.08.25.3,0,.28L47,14.32c-.24,0-.28,0-.22.16a2.07,2.07,0,0,1,.48.66l-1.4.08a5.26,5.26,0,0,1-.78.12c-.76-.64-1.7-.16-2.68.58l-.14-.06,0-1.14h.13l-.1-.74h.08a3.11,3.11,0,0,0-.56-2.34c-.08-.34.25-.3.34-.4a1.61,1.61,0,0,0,.3-1.1c-.06-.48-.22-.64-.46-.48h-.29A1.09,1.09,0,0,1,41,9.38a.77.77,0,0,0-.92,0c-1.44.36-1.7,1.49-3.46.72-.2,0-.25.06-.16.22a2.91,2.91,0,0,0,1.18.87,1.79,1.79,0,0,1-1,.09,2.05,2.05,0,0,0,1.78.58,1.28,1.28,0,0,0,1.18-.06c.26-.14.26-.06.11.25a3.23,3.23,0,0,0-.85,2.47,2.31,2.31,0,0,0-.33.92c-.67-.18-1.25-.3-1.49-.1l-.25,0a1.31,1.31,0,0,0-1.6-.12l-1,.78c-.38.25-.7.28-.76,0L33,15c0-.65-.21-.94-.66-1a1.12,1.12,0,0,1-.38-.63l-.3-.39c.1-.33,0-.46-.28-.46a1.19,1.19,0,0,1-.64-.13ZM27.22,34.7h0c.82-3.1,2.18-4.76,4.42-4.14-.88,1-1.5,2.72-1.36,5.72.08,1.41.32,2.27-.5,3.13s-1.34.68-1.46,1.58a6.56,6.56,0,0,1-.38,1.51c-.58-.32-.65-1-.2-2.06a4.63,4.63,0,0,0-.53-5.73Zm5.85,11.89c.32.14.32.44-.09.62C32.68,47.09,32.7,46.83,33.07,46.59Zm5.12,2.1h0a.54.54,0,0,0,.18.4.35.35,0,0,1,.12.48.24.24,0,0,1-.06.08L38,49.27C37.87,49,38,48.86,38.19,48.69Zm10.47.88h0c.13.34.69.57.28.64,0,.1-.15.08-.38-.05S48.32,49.76,48.66,49.57ZM37.32,43.11c-.72-.74-.8-1.4,0-2a10.8,10.8,0,0,0,2-2.18,15.16,15.16,0,0,0,1.62-.26A16.81,16.81,0,0,0,47,37a.54.54,0,0,1,.7.2L49,39l-.38.14,1,.76c-.18.14-.06.24.16.32-.12.18,0,.36.14.34.08.25.25.6-.25.1-.32-.16-.36,0-.1.51l.54.78a1.39,1.39,0,0,0,.46.92l.44.9a1.42,1.42,0,0,0,.12.4c.06.34.14.52.42.56A3.08,3.08,0,0,1,50.35,46c-1.18.64-2.13.38-2-1.18.06-.84.22-1.54.25-2.4.34-1.34,0-2-1.14-2.1a2.68,2.68,0,0,0-1.4.25c-.34.23-.78.14-1.4-.22A5.58,5.58,0,0,0,41.93,39a1.47,1.47,0,0,1,.28,2c.48.22.46.44,0,.66a13,13,0,0,1-3.87-.56c-.44-.08-.52,0-.22.24,1,.4,1.54,1,1.54,1.84a10.43,10.43,0,0,0-1.48.12.6.6,0,0,1-.86-.18Zm-8.18,0a2.55,2.55,0,0,1,2.28-2,17.49,17.49,0,0,0,3.9-1.51c.6-.44.68-.25.25.62l-.68.78A.74.74,0,0,0,35,42.2c.68.34,1,.66.86.95a2,2,0,0,0-2,.42,2.24,2.24,0,0,0-1.62.28,1.54,1.54,0,0,0-1.24-.08c-.12-.3-.46-.38-1-.28a1.45,1.45,0,0,0-.76-.38Z"></path> <path class="cls-4" d="M57.66,36.44s.15,0,.2.14.1.26.07.26a.27.27,0,0,1-.21-.17c-.06-.12-.1-.22-.06-.23Zm.28,1.62c.06,0,.12.18.12.38s-.06.38-.12.38-.12-.17-.12-.38S57.86,38.06,57.94,38.06Zm-.41,1.45.19-.42c.1-.14.18-.14.24,0l.49.45c-.11.1-.32.1-.49.14l.17.25L58,40l-.06.22c-.3-.24-.48-.46-.37-.7Z"></path> <path class="cls-4" d="M59.11,34.2l.1-.46c0-.12,0-.1.12,0a1.39,1.39,0,0,1,.34.76c0,.13,0,.22-.09.23a.35.35,0,0,1-.32-.14.44.44,0,0,1-.15-.38Zm-.17-1.58c-.19-.24-.15-.38.11-.36-.26-.38,0-.46.25-.06a1.66,1.66,0,0,1,.1,1c0,.12-.16.16-.2,0a2.2,2.2,0,0,0-.25-.54Zm0,1.86c-.06-.06-.11,0-.17,0-.22.25-.26.46-.15.64l.45.34c.14.12.3.06.21-.06l-.15-.22c.1,0,.18.14.28.14s.1-.12,0-.2-.2-.22-.1-.32,0-.08,0-.12Z"></path> <path class="cls-4" d="M54.58,31.34a4.14,4.14,0,0,1,.25-1.16c.06-.18.14-.2.24-.1.36-.58.28-.26.12.18l.1.06c.44-.82.25-.16.22.2-.32.4-.54.48-.64.2l-.1.52c-.08.24-.14.28-.18.1Zm-2.32-.62c-.08-.38,0-.44.18-.08a4.61,4.61,0,0,1,.32,2c0,.3-.24.32-.25,0a18.05,18.05,0,0,0-.25-1.94ZM52,29.4c.14,0,.32.14.36.36a.43.43,0,0,1-.18.48c-.12,0-.32-.12-.38-.36s0-.44.2-.48Zm-.54,1s.12,0,.18.14.06.22,0,.25-.12,0-.18-.16-.06-.2,0-.22Zm1.84.16s.12.06.18.16.06.2,0,.22-.12,0-.16-.14S53.27,30.56,53.31,30.54Zm2.9-1.4a.37.37,0,0,1,0-.5.32.32,0,0,1,.44-.07c.12.07.16.15.16.21l-.25.07.3.09c.16.14,0,.4-.12.18a.3.3,0,0,0-.4-.06c0,.18,0,.22-.14.08ZM54.09,31.6l.12-.78-.14.28c-.12,0-.14-.12-.16-.36s0-.38.16-.32l.1.25.08-.18c.14-.08.16,0,.1.25l0,.86c-.08.12-.14.34-.22,0Zm-2.88-2.14.08-.06a0,0,0,0,1,.07,0s0,0,0,0l.3.38a.06.06,0,0,1,0,.08l-.08.06a0,0,0,0,1-.07,0v0l-.32-.38a0,0,0,0,1,0-.07h0Zm2,3s.06,0,.06.08,0,.08-.06.08-.06,0-.06-.08S53.15,32.42,53.19,32.42ZM52,29.08c0-.84.12-1.51.12-2.14,0-.26.18-.26.18,0a11.64,11.64,0,0,1-.12,2C52.21,29.12,52,29.3,52,29.08Z"></path> <path class="cls-4" d="M27.36,45.27c-.14.54-.74.25-.44-.22a8.87,8.87,0,0,0,1.6-4c0-.58.4-.84.86-1.1a2.58,2.58,0,0,0,1.3-2.51c-.22-4.52,1-6.5,3-7.28l-.07.18c-1.73,1.06-2.46,3.1-2.48,5.88a12.56,12.56,0,0,0,0,1.94l.06-.13a30.69,30.69,0,0,1,.25-4,5.43,5.43,0,0,1,.9-2.16,5.85,5.85,0,0,1,.34-.48c.16-.16.34-.2.48-.34l0,.14a5.39,5.39,0,0,0-1.48,2.6A15.61,15.61,0,0,0,31.46,38a1.4,1.4,0,0,1-.14.56l.08,0a1.85,1.85,0,0,0,.18-.86,10,10,0,0,1,.66-5,3.85,3.85,0,0,1,2-2l0,.14c-1.08.74-2.1,1.6-2.3,4.54l.06-.06c.2-2.22,1-3.87,2.48-4.47a4.78,4.78,0,0,1,1.82-.18l-.12.11a3.16,3.16,0,0,0-2.72,1.07l.12,0A2.7,2.7,0,0,1,36.25,31l-.08.16a2.54,2.54,0,0,0-2,.62v.08a2.51,2.51,0,0,1,1.9-.56c.2,0,.25.18.2.42l-.12,1.1a12.86,12.86,0,0,1-.34,3l-.1.08.1-1.84-.42,2.27c0,.25-.23.22-.18,0,.1-.48.25-1.14.36-1.84a.23.23,0,0,0-.2.22,5.23,5.23,0,0,1-.51,2.06,9,9,0,0,0,.25-1.86L35,35l-.3,1.74c.22.12-.06.3-.14.08l.1-1-.08,0-.42,1.54.14-1.06-.36,1.06h-.14l.18-.9-.6,1.64c-.18,0-.2,0-.06-.3l.38-1.12-.12,0c-.25.82-.42,1.4-.72,1.58l-.1,0a3,3,0,0,0,.5-1.46,3.71,3.71,0,0,1-.84,1.62c-.06-.06,0-.25.26-.68l.22-.58c-.1-.12-.16-.08-.22.1a3.09,3.09,0,0,1-.54,1.16l.25-1,0-.12a3,3,0,0,1-.76,1.38l.16.08c.54-.36,1.28-.24,2.05-.58.15-.08.32-.12.41,0l-.13.38-.15-.22a1.25,1.25,0,0,1-.36.7l-.05-.44c-.32.7-.55,1.08-.57.74l.06-.42a1.61,1.61,0,0,0-.46.87c-.12,0-.14-.26-.1-.61l-.19.74c-.19,0-.23-.16-.13-.6a2.39,2.39,0,0,1-.35.74.78.78,0,0,1,0-.58l-.2.38c0,.28-.08.38-.2.36.06-.42.06-.58,0-.49l-.25.65c-.14.08-.18-.08-.16-.44-.22.12-.16.56-.32.74-.12-.08-.14-.28-.12-.51-.1.34-.2.55-.34.57l0-.67a2.4,2.4,0,0,1-.25.74l-.18-.48-.08.47c-.14.07-.25,0-.34-.35,0,.63-.08,1.15-.48,1.41a2.78,2.78,0,0,1-.38,1.06L29,42c.14,0,.2,0,.14.34l-.66,1.08c-.1.12-.22.08-.34,0a4.1,4.1,0,0,1-.62,1.28,2.33,2.33,0,0,0,.68-1.08c0-.16.22,0,.16.36l-.16.14,0,.24-.2,0v.32l-.18.08c.18.44,0,.72-.48.51Z"></path> <polygon class="cls-4" points="31.12 30.2 31.9 30.06 31.86 30.22 31.12 30.2"></polygon> <path class="cls-4" d="M23.84,36.3a5.12,5.12,0,0,1,.62-1.06c.16-.25.22-.08.2.16A3.07,3.07,0,0,1,23.84,36.3Z"></path> <path class="cls-4" d="M32,29.84c-1.28-1.14-2.55-1.74-3.49-1.54-1.78.4-2.64,2-3.16,3.6.3-.52.56-.86.88-1A9,9,0,0,0,24.8,35.4a1,1,0,0,1-.32.52,1.5,1.5,0,0,0-.62,1.1,4,4,0,0,0,.44-.56,2.74,2.74,0,0,0,.64-1.14c.18-.7.25-1.4.4-1.92a6.91,6.91,0,0,1,.76-1.74,5.82,5.82,0,0,1,2.4-2.42v.08a6.38,6.38,0,0,0-2.32,2.44,5.41,5.41,0,0,0-.46,1,4.12,4.12,0,0,0-.36,1.32,4.68,4.68,0,0,1-.68,2.2,5.16,5.16,0,0,0-.58.8,1,1,0,0,0-.11.48c.71-1.32,1-1.2,1.33-2.14.42-1.44.13-2.92,2.06-5h.14a7.13,7.13,0,0,0-1.86,4.19,4.19,4.19,0,0,1-.28,1.16c-.24.47-.74.82-.88,1.28l.1,0a5.5,5.5,0,0,0,.9-1.18c.58-1.12.38-2.62,1.12-3.82,1-1.57,1.7-2.4,2.89-2.86l.13,0A6.07,6.07,0,0,0,27,31.58a3.8,3.8,0,0,0-.62,1.24,12.84,12.84,0,0,0-.4,1.94,3.28,3.28,0,0,1-.74,1.68c-.18.22-.32.32-.46.52a2.74,2.74,0,0,0-.3.76l.1,0c.44-1.18.7-.92,1-1.32a3,3,0,0,0,.54-1.28,7.52,7.52,0,0,1,.75-2.8,7.78,7.78,0,0,1,1.83-2.39,2.69,2.69,0,0,1,1.06-.58h.1a8.36,8.36,0,0,0-1.32.86,7.28,7.28,0,0,0-1.67,2.43,9,9,0,0,0-.62,2.52c0-.12.08.06.13,0a8.25,8.25,0,0,1,2-4.49,3.74,3.74,0,0,1,1.72-1.08l.38,0a3.88,3.88,0,0,0-2.37,1.64l.13,0a4.54,4.54,0,0,1,2.32-1.4l.12,0a3.9,3.9,0,0,0-1.3.66l0,.13a5.59,5.59,0,0,1,2.5-.69Z"></path> <path class="cls-4" d="M24,38.59a.94.94,0,0,1-.14-.51c0-.24.2-.22.24-.06s-.1.32-.1.56Z"></path> <path class="cls-4" d="M26.34,40.73l.2-.22a.32.32,0,0,1,.3,0c0,.1-.25.2-.51.25Z"></path> <path class="cls-4" d="M26.16,41.35l.25-.28a.4.4,0,0,1,.42-.06c0,.12-.32.25-.68.34Z"></path> <path class="cls-4" d="M26.18,41.67l.3-.25a.43.43,0,0,1,.44,0c0,.1-.38.23-.74.29Z"></path> <path class="cls-4" d="M26.26,42l.28-.25a.42.42,0,0,1,.42,0c-.06.12-.36.22-.7.25Z"></path> <path class="cls-4" d="M26.4,42.25l.18-.2a.32.32,0,0,1,.3,0C26.86,42.09,26.64,42.19,26.4,42.25Z"></path> <path class="cls-4" d="M27.42,39.05l.16-.1a.2.2,0,0,1,.22,0C27.78,39,27.6,39.05,27.42,39.05Z"></path> <path class="cls-4" d="M27.16,39.39l.34-.16a.42.42,0,0,1,.4.1C27.82,39.43,27.52,39.44,27.16,39.39Z"></path> <path class="cls-4" d="M27.36,38.56l.25-.19a.38.38,0,0,1,.36,0c-.06.1-.32.15-.62.19Z"></path> <path class="cls-4" d="M27.56,38.08l.25,0a.31.31,0,0,1,.28.13c-.06.06-.3,0-.54-.08Z"></path> <path class="cls-4" d="M27,43.47l.18-.1a.34.34,0,0,1,.22,0c0,.06-.2.1-.4.08Z"></path> <path class="cls-4" d="M27.56,42.85l-.44.06a.56.56,0,0,0-.34.39c.14,0,.46-.16.78-.44Z"></path> <path class="cls-4" d="M27.36,42.65H27a.37.37,0,0,0-.3.25C26.82,42.94,27.1,42.82,27.36,42.65Z"></path> <path class="cls-4" d="M28.92,44.29l.2-.42a.56.56,0,0,1,.44-.22C29.56,43.79,29.28,44.07,28.92,44.29Z"></path> <path class="cls-4" d="M29.82,43.87l.36-.14a.54.54,0,0,1,.42.16h0c0,.12-.25.34-.56.5l.18-.33a.86.86,0,0,1,.14-.13h-.12a1.78,1.78,0,0,1-.42.35l.14-.29a.27.27,0,0,1,.08-.07,1,1,0,0,0-.2-.05Z"></path> <path class="cls-4" d="M31.56,43.93c.12-.06.54,0,.48.18h0c0,.12-.28.34-.56.54l.16-.36.12-.12h-.14a1.64,1.64,0,0,1-.4.34l.12-.3.08-.06-.1,0a1.05,1.05,0,0,1-.3.25l.08-.2c.14-.18.24-.16.46-.24Z"></path> <path class="cls-4" d="M34.15,43.87q0-.51.75-.6c.59-.08,1.28,0,1.08.3h-.06l-.1.25-.22.4.14-.44.07-.23-.25-.07-.18.17-.3.34.24-.4.1-.15-.12,0-.18.17-.32.34.25-.38.1-.16H35l-.12.18-.28.36.2-.41.06-.1a1.16,1.16,0,0,0-.22.06l-.14.33,0-.33a.61.61,0,0,0-.39.38Z"></path> <path class="cls-4" d="M32.26,44.15v0h0l.51-.32c.34-.16.75-.22.7.06,0,0,0,.06-.12.08s0,.22,0,.34l-.14-.3h-.08a3.85,3.85,0,0,0,0,.48L33,44l-.09,0c0,.22,0,.46,0,.7l-.28-.58v0c0,.12-.06.25-.1.38l0-.4a5.09,5.09,0,0,0-.21.56l0-.42v-.08Z"></path> <path class="cls-4" d="M26.54,30.62l.86-.86A1.72,1.72,0,0,0,26.54,30.62Z"></path> <path class="cls-4" d="M31.27,46.27a.89.89,0,0,1,0-.84c.16-.42.36-.54.48-.52s0,.48,0,.88l-.32-.28.1.54-.24-.25Z"></path> <path class="cls-4" d="M34.11,46.79a.23.23,0,0,0-.12-.12c-.05,0,0,.1,0,.18a.24.24,0,0,0,.14.12S34.17,46.87,34.11,46.79Z"></path> <path class="cls-4" d="M34.11,47.15C34,47,33.94,47,33.91,47s0,.12.08.25.16.19.2.17,0-.13-.08-.24Z"></path> <path class="cls-4" d="M33.92,47.49c-.06-.1-.11-.16-.13-.16s0,.12,0,.22.11.16.13.14,0-.1,0-.2Z"></path> <path class="cls-4" d="M33.75,47.84c0-.16-.15-.28-.19-.25s0,.16,0,.32.13.25.17.25.06-.16,0-.32Z"></path> <path class="cls-4" d="M31.4,47.69c.12,0,.2.06.2.1a.28.28,0,0,1-.22,0c-.1,0-.2-.06-.18-.08a.25.25,0,0,1,.2,0Z"></path> <path class="cls-4" d="M31.3,47.43c.14,0,.24.08.24.12s-.12.06-.25,0-.24-.08-.24-.12.12-.06.25,0Z"></path> <path class="cls-4" d="M31.24,47.11c.16,0,.28.1.28.14s-.16.08-.32,0-.3-.08-.28-.14S31.06,47.09,31.24,47.11Z"></path> <path class="cls-4" d="M36.45,43.71c-.12-.4.32-.54.78-.34a2.4,2.4,0,0,0,1.38.08,2.37,2.37,0,0,1,.88,0c.3.16.28.3-.06.36a3.44,3.44,0,0,0-1.2,1.82c-.22-.3.25-1.06,1-2A6.73,6.73,0,0,0,38,44.89a4,4,0,0,1,.7-1.24,3.21,3.21,0,0,0-1.24,3A3.06,3.06,0,0,1,38,43.92l-.86.89.78-1.19-.48.16,0-.19-.3.15v-.21l-.4.32.08-.33c-.14-.08-.25,0-.36.2Z"></path> <path class="cls-4" d="M36.82,46a1,1,0,0,0,.18.8c.06.06.14,0,.1-.16A1.1,1.1,0,0,1,36.82,46Z"></path> <path class="cls-4" d="M37.81,46.09s.08.1.08.25,0,.26-.08.26-.08-.12-.08-.26S37.77,46.09,37.81,46.09Z"></path> <path class="cls-4" d="M38.73,45.07a.34.34,0,0,1,0,.22c-.06.11-.12.2-.16.18s0-.13,0-.22.12-.2.16-.18Z"></path> <path class="cls-4" d="M39,44.59s0,.12-.06.2-.14.16-.16.14,0-.12.06-.2A.28.28,0,0,1,39,44.59Z"></path> <path class="cls-4" d="M46.46,45.37c.34.12.38.6.2,1.18A2.8,2.8,0,0,0,46.46,45.37Z"></path> <path class="cls-4" d="M44.71,47.84a.79.79,0,0,0-.12-.3l.06.36Z"></path> <path class="cls-4" d="M40.79,41.79a.41.41,0,0,1,.16,0l.16.25a.58.58,0,0,1-.18,0Z"></path> <path class="cls-4" d="M40.47,43.53a.4.4,0,0,1,.12.22c0,.1,0,.16,0,.14a.32.32,0,0,1-.12-.2c0-.1,0-.16,0-.16Z"></path> <path class="cls-4" d="M40.77,43.51s.08.06.1.16.06.18,0,.2-.08-.06-.12-.16S40.73,43.51,40.77,43.51Z"></path> <path class="cls-4" d="M41.13,43.45s.12.12.14.25,0,.18-.06.18-.06,0-.08-.18S41.11,43.45,41.13,43.45Z"></path> <path class="cls-4" d="M41.47,43.33a.51.51,0,0,1,.16.25c0,.14.06.28,0,.28s-.1-.08-.16-.24-.06-.28,0-.3Z"></path> <path class="cls-4" d="M41.83,43.33c.06,0,.12.12.16.28s0,.32,0,.34-.12-.14-.14-.3,0-.32,0-.32Z"></path> <path class="cls-4" d="M42.23,43.39s.16.18.18.34.06.25-.06.25-.1-.06-.14-.24,0-.36,0-.36Z"></path> <path class="cls-4" d="M42.49,43.3c.06,0,.12.12.18.3s0,.34,0,.34-.12-.12-.16-.3-.06-.34,0-.34Z"></path> <path class="cls-4" d="M42.91,43.21s.1.18.1.4,0,.4-.1.4-.1-.18-.1-.4S42.85,43.21,42.91,43.21Z"></path> <path class="cls-4" d="M43.25,43.33s.08.16.08.34,0,.34-.08.34-.08-.14-.08-.34S43.19,43.33,43.25,43.33Z"></path> <path class="cls-4" d="M43.59,43.23s.08.18.08.4,0,.4-.08.4-.08-.18-.08-.4S43.55,43.23,43.59,43.23Z"></path> <path class="cls-4" d="M44,43.13c.06,0,.08.2.06.46s-.08.42-.14.42-.06-.2,0-.44S43.89,43.13,44,43.13Z"></path> <path class="cls-4" d="M44.43,43.11c.06,0,.06.2,0,.44s-.1.42-.16.42,0-.2,0-.44S44.39,43.11,44.43,43.11Z"></path> <path class="cls-4" d="M44.81,42.89c.06,0,.16.3.12.58s-.14.54-.2.52,0-.25,0-.54S44.77,42.87,44.81,42.89Z"></path> <path class="cls-4" d="M42.77,45.15s.06.06.1.14a.45.45,0,0,1,0,.2s-.08-.06-.1-.14S42.75,45.15,42.77,45.15Z"></path> <path class="cls-4" d="M43.05,45.05s.1.1.14.22,0,.18,0,.2-.06,0-.1-.16a.43.43,0,0,1,0-.25Z"></path> <path class="cls-4" d="M45.76,44.21v.14h0l.17-.12a4.59,4.59,0,0,0,0-1A8.14,8.14,0,0,1,45.76,44.21Z"></path> <path class="cls-4" d="M45.55,44.65c-.09.52-.11.68-.32.86a1.61,1.61,0,0,0,0-.62l-.13,0V45a1.09,1.09,0,0,1-.22.78A7.61,7.61,0,0,1,45,45l-.16.06v.28a1.79,1.79,0,0,1-.16.44,1.65,1.65,0,0,0,0-.7l-.14,0v.08c0,.06,0,.12-.05.12s0,0,0-.1,0-.06,0-.08l-.1,0v0q0,.09,0,.12s-.06-.06-.1-.12l-.1,0c0,.1,0,.14-.06.18s-.1-.06-.12-.16l-.18,0c0,.08,0,.14,0,.14s-.06,0-.1-.12h-.16c0,.08,0,.12,0,.14s-.06,0-.1-.12l0,0s0,0,0,0,0-.06,0-.1a.37.37,0,0,1-.06-.25s.1.06.16.2a.23.23,0,0,1,0,.14.37.37,0,0,1,.14,0s0-.06,0-.08,0-.3,0-.32.1.1.14.25a.3.3,0,0,1,0,.1l.16-.06a1.36,1.36,0,0,1,0-.2c0-.08,0-.12,0-.12a.51.51,0,0,1,.16.28l.11,0s0,0,0,0a.73.73,0,0,1,0-.25c0-.06,0-.08,0-.1s.12.14.16.27a.14.14,0,0,0,0,.07l.1,0v-.31c0-.08,0-.12,0-.12s0,0,.07.1,0,.18.05.28h0a.21.21,0,0,0,.12,0v-.16c0-.06,0-.1,0-.1s.06.1.09.2l.15-.06v-.22c0-.06,0-.12,0-.12s0,0,0,.08a.45.45,0,0,1,0,.2.27.27,0,0,0,.12-.06h0c0-.12,0-.25,0-.32s0-.14.06-.14,0,0,0,.1a1,1,0,0,1,0,.3h0a.28.28,0,0,1,.13,0,9,9,0,0,0,.32-2l-.13-.22a4.43,4.43,0,0,1-.34,1.82,4.84,4.84,0,0,0,0-2h-.06a4.66,4.66,0,0,1-.2,2,4.71,4.71,0,0,0-.2-2.14.21.21,0,0,0-.12,0,1.11,1.11,0,0,1,.06.9c-.12-.38,0-.5-.36-.76h-.1a.9.9,0,0,1,.16.74,2.22,2.22,0,0,0-.42-.64h-.18c.25.3.25.36.22.6-.1-.25-.5-.44-.66-.56l-.18,0c.2.1.48.46.38.58-.14-.16-.44-.32-.56-.54-.08,0,0,0-.12,0s0,.2,0,.34a.73.73,0,0,1-.5-.3s-.12,0-.12,0,.1.2.12.26-.46-.28-.51-.35.08,0-.16,0c0,.06.16.39.18.45s-.34-.39-.38-.43l-.28,0-.18-.3a12.49,12.49,0,0,0,3.11-.19l1.12-.23c.38-.12.64.09.72.66l.06.65a1.29,1.29,0,0,1,.1,1.34,2,2,0,0,0,.7,1.08c.32.3.36.72,0,1.32a8.17,8.17,0,0,1-1.24,2s0,0,0,.06a.16.16,0,0,0-.06.08l.06-.1-.06-.3a.62.62,0,0,1,.1.22l.18-.3c0-.1,0-.2-.06-.32L46,48c0-.08.1-.16.14-.25s-.06-.22-.1-.34a1.38,1.38,0,0,1,.14.24c.06-.1.11-.2.16-.3s-.06-.2-.08-.3l.12.2a3.6,3.6,0,0,0,.12-.44l-2.06,1.29c.18-.16.38-.3.56-.46l0,0c0-.12,0-.25-.06-.38a1.3,1.3,0,0,1,.14.32l.15-.12L45.11,47a2,2,0,0,1,.16.4c.06,0,.12-.1.19-.14,0-.2-.05-.42-.09-.64a1.76,1.76,0,0,1,.2.54l.17-.14c0-.28-.07-.6-.11-.9a1.87,1.87,0,0,1,.26.75l.12-.1a8.19,8.19,0,0,0-.12-1,2.52,2.52,0,0,1,.28.84s0,0,.06-.06a11.11,11.11,0,0,0-.12-1.16,1.77,1.77,0,0,1,.25,1l.12-.12a5.71,5.71,0,0,0-.4-1.64c-.08.28-.08.38-.16.36,0-.32,0-.47,0-.51a1.47,1.47,0,0,1-.28.86l.08-.72Z"></path> <path class="cls-4" d="M43.75,45.91h0c0,.12,0,.22-.08.22s-.06-.12,0-.22Z"></path> <path class="cls-4" d="M44,45.69s.06.06.06.2,0,.25-.1.25-.1-.14-.06-.25.06-.18.1-.18Z"></path> <path class="cls-4" d="M44.25,45.73h0c0,.22,0,.38-.08.36s-.08-.18,0-.36Z"></path> <path class="cls-4" d="M44.22,45.45s0,0,0,.1h-.1C44.17,45.49,44.19,45.45,44.22,45.45Z"></path> <path class="cls-4" d="M44.49,45.41s.06.08.06.25,0,.34-.14.32-.1-.18-.06-.36.08-.22.14-.22Z"></path> <path class="cls-4" d="M43.12,39.66a4.59,4.59,0,0,1,1.54,1c.08.14,0,.18-.08.12a13.46,13.46,0,0,1-1.46-1.11Z"></path> <path class="cls-4" d="M45,41c.11.06.15.12.13.14s-.11,0-.21,0-.14-.14-.11-.16S44.93,40.91,45,41Z"></path> <path class="cls-4" d="M40,41.71l.54.06.12.2,0,0c-.06,0,.18.64-.14,0,0-.08-.16-.06-.25-.1a.5.5,0,0,0-.25-.1Z"></path> <path class="cls-4" d="M37.49,50.36c.1,0,.2,0,.2.08s-.06.06-.16.06-.2,0-.2-.06S37.39,50.36,37.49,50.36Z"></path> <path class="cls-4" d="M37.75,50.86c.16,0,.34,0,.36,0s-.08.1-.24.17a.56.56,0,0,1-.36,0s.08-.1.25-.15Z"></path> <path class="cls-4" d="M37.91,51c.18,0,.36-.06.4,0s-.1.12-.28.15a.56.56,0,0,1-.4,0S37.71,51.06,37.91,51Z"></path> <path class="cls-4" d="M38.15,51.19c.12,0,.24,0,.25,0s-.06.09-.18.13a.31.31,0,0,1-.28,0s.08-.09.2-.11Z"></path> <path class="cls-4" d="M38.31,51.37c.12,0,.2,0,.2.08s-.06.06-.16.06-.2,0-.2-.06S38.21,51.37,38.31,51.37Z"></path> <path class="cls-4" d="M40.45,50.55c.16-.06.32-.06.34,0s-.08.19-.25.26-.32.05-.34,0S40.28,50.64,40.45,50.55Z"></path> <path class="cls-4" d="M40.17,50.38c.12-.07.25-.07.25,0s-.06.13-.18.17-.25,0-.25,0A.23.23,0,0,1,40.17,50.38Z"></path> <path class="cls-4" d="M39.91,50a.23.23,0,0,1,.2,0c0,.07,0,.13-.14.15s-.18,0-.2,0S39.81,50.06,39.91,50Z"></path> <path class="cls-4" d="M37,48.34a.09.09,0,0,0-.08-.08.09.09,0,0,0-.08.06.39.39,0,0,0,.16.4c.16.08.2-.08.12-.14a.37.37,0,0,1-.12-.25Z"></path> <path class="cls-4" d="M36.73,48.21c0-.12-.08-.18-.16-.08a.42.42,0,0,0,0,.51c.14.17.25,0,.22-.08a.43.43,0,0,1,0-.35Z"></path> <path class="cls-4" d="M50.7,39.23c-.12.18-.16.86.44,1.68.22.28,0,.48.28.52.12,0,.2-.12.22-.3l-.2-.1h.28l-.3-.2c.1,0,.34,0,.32-.06s-.3-.14-.44-.2l.34-.08c0-.1-.18-.18-.51-.28l.32-.08-.36-.22.28-.08-.44-.22.25-.12-.25-.08.25-.12c-.2-.08-.28-.25-.46-.06Z"></path> <path class="cls-4" d="M50.22,39.74a.94.94,0,0,1-.08-.68c.14-.35.28-.45.4-.45.25.25-.16.42-.25.62-.07,0-.09.18-.09.51Z"></path> <path class="cls-4" d="M50.12,38.51c.1-.1.22-.16.25-.12s0,.14-.12.25-.22.18-.25.14,0-.16.12-.28Z"></path> <path class="cls-4" d="M50,39.79a.13.13,0,0,1,.12.14.14.14,0,0,1-.12.12.13.13,0,0,1-.14-.12.13.13,0,0,1,.13-.14Z"></path> <path class="cls-4" d="M50.28,40.19c.08,0,.1.12,0,.22s-.12.16-.18.12a.15.15,0,0,1,0-.22c.06-.1.12-.16.18-.12Z"></path> <path class="cls-4" d="M50.56,40.61c.1,0,.12.14,0,.25a.31.31,0,0,1-.3.14.17.17,0,0,1-.08-.23l0,0a.29.29,0,0,1,.32-.14Z"></path> <path class="cls-4" d="M50.86,41.07c.06.08,0,.16-.08.2a.21.21,0,0,1-.25-.06c0-.06,0-.14.08-.18a.23.23,0,0,1,.25,0Z"></path> <path class="cls-4" d="M52.3,41.31a.11.11,0,0,0,0-.16l0,0c-.1,0-.16,0-.22-.12s0-.36.24-.42.22.06.18.16l-.1.08a.6.6,0,0,1,.36.22c-.1,0-.16,0-.18.1.34-.06.32.48,0,.38s-.3,0-.2.36.36.5.34.08c0-.2.64-.25.72.2l-.25-.1c.06.32.32.18.36.46l-.22,0a1.5,1.5,0,0,1,.56.66c-.28,0-.3-.34-.56-.34.34.46.74.36.94.82a2,2,0,0,1-1-.6c.34.48.56.88.48,1.08-.5-.22-.6-1-.8-1.18,0,.38.28.6.18,1a1.87,1.87,0,0,1-.3-1.22c.2,0,.28-.1.28-.44s-.22-.34-.18,0-.18.34-.72,0c-.08.08,0,.18.34.36l0,.3.16-.25.06.84c0,.22-.08.18-.14,0l-.06-.42c0,.3,0,.44-.14.42l-.08-.79-.22.29L52,42.64l-.2.15v-.53c-.14.08-.3,0-.46-.22a.68.68,0,0,0,.54-.08c-.1-.41.08-.6.42-.64Z"></path> <path class="cls-4" d="M47.54,43.75a.5.5,0,0,0-.12-.48c-.08-.08-.14-.1-.12,0s.19.32.25.48Z"></path> <path class="cls-4" d="M47.21,42.53c.26.14.39.16.53.54,0,.14,0,.24-.08.12s-.26-.48-.45-.66Z"></path> <path class="cls-4" d="M47.26,41.75a1.16,1.16,0,0,1,.64.84c0,.22,0,.34-.14.16s-.26-.7-.51-1Z"></path> <path class="cls-4" d="M47.42,41.19a1.09,1.09,0,0,1,.66,1c0,.22-.1.36-.16.16a2.74,2.74,0,0,0-.51-1.14Z"></path> <path class="cls-4" d="M47.58,40.89a1.14,1.14,0,0,1,.68.74c0,.2,0,.3-.14.14A2.28,2.28,0,0,0,47.58,40.89Z"></path> <path class="cls-4" d="M49.94,50.8a.54.54,0,0,1,.72-.27h0c.16,0,.14.26.14.38-.1-.1-.2-.21-.3-.1-.28-.22-.38-.09-.58,0Z"></path> <path class="cls-4" d="M48.86,50.86A.12.12,0,0,1,49,51c0,.08-.06.1-.14.1a.11.11,0,0,1-.12-.1.12.12,0,0,1,.11-.13Z"></path> <path class="cls-4" d="M48.16,50.86s.1.06.14.17,0,.19,0,.19-.1,0-.14-.15,0-.21,0-.21Z"></path> <path class="cls-4" d="M48.4,50.83s.06,0,.08.13,0,.12,0,.14-.06,0-.08-.12S48.36,50.85,48.4,50.83Z"></path> <path class="cls-4" d="M48.46,48.25s0,0,0,.06-.16.14-.18.1a.2.2,0,0,1,0-.2l.08-.08s0,0,0-.06,0,0,0,.06-.18.16-.22.12,0-.14.06-.24.06-.06.08-.08,0,0,0,0h0c-.08.1-.18.14-.22.12s0-.14.06-.24a0,0,0,0,1,0,0s0-.06-.06-.08-.1.06-.14,0,0-.1.06-.18-.06-.16,0-.2.18,0,.3.3c0,.1,0,.16.06.22a1.8,1.8,0,0,1,.2.18.53.53,0,0,1,.1.42s0,0-.1-.18Z"></path> <path class="cls-4" d="M48.46,48.45c.06,0,0,.16-.08.28s-.2.18-.26.14,0-.16.06-.28.22-.18.25-.14Z"></path> <path class="cls-4" d="M50.92,47.27s0,.12,0,.24-.12.2-.16.18,0-.12,0-.24S50.88,47.25,50.92,47.27Z"></path> <path class="cls-4" d="M50.62,47.15s0,.18-.06.36-.2.3-.25.28,0-.18.06-.36.2-.3.25-.28Z"></path> <path class="cls-4" d="M49.92,46.87s0,.14,0,.3-.13.24-.17.22,0-.14,0-.28S49.88,46.86,49.92,46.87Z"></path> <path class="cls-4" d="M30.51,13.05a.51.51,0,0,1,.45-.44l.44.08c.16.12.13.16,0,.18-.36-.06-.56,0-.66.25s-.2.22-.19-.08Z"></path> <path class="cls-4" d="M31.9,13.89A.11.11,0,0,1,32,14a.14.14,0,0,1-.1.12.12.12,0,0,1-.1-.12C31.8,13.93,31.84,13.89,31.9,13.89Z"></path> <path class="cls-4" d="M30.44,13.48c-.14.19-.1.39.14.63l.32.4c.28.2.42.16.38-.14s0-.28.2-.28a.4.4,0,0,0,.26-.18c0-.16,0-.24-.12-.28a2.07,2.07,0,0,1-.66.3,2.19,2.19,0,0,0,.48-.37.25.25,0,0,1,.26-.05.23.23,0,0,0-.19-.23,1.17,1.17,0,0,0-.81.48.82.82,0,0,1,.75-.55.25.25,0,0,0-.1-.25.92.92,0,0,0-.62.18Z"></path> <path class="cls-4" d="M32.06,16a8.49,8.49,0,0,1,1.67,2.27V19l-.26-.83c0,.58,0,1-.06.83l-.2-1.19-.14.52L33,17.56c-.1-.08-.12.38-.1,1-.18-.17-.16-.7-.14-1.28l-.18.56a2.19,2.19,0,0,1,0-1.08c-.12-.1-.2.1-.25.7a2.06,2.06,0,0,1,0-1.1l-.14.3Z"></path> <path class="cls-4" d="M37,10.32a1.37,1.37,0,0,0,.82.2l0,.16a2.67,2.67,0,0,0,1.48-.56.28.28,0,0,0-.22,0c-.36.18-.32.06.36-.28.1-.06.18,0,.34,0l.44-.1c-.37.33-.72.64-1.13.94a1.86,1.86,0,0,1-1.51.26,5.19,5.19,0,0,1-.75-.46c-.06-.1-.12-.16.16-.1Z"></path> <path class="cls-4" d="M39.73,10.42a.1.1,0,0,1,.1.08.09.09,0,0,1-.1.08.08.08,0,0,1-.08-.08S39.69,10.43,39.73,10.42Z"></path> <path class="cls-4" d="M40.33,11.62c0-.06.08-.08.12,0a.09.09,0,0,1,0,.11h0c0,.06-.1.08-.12.06A.12.12,0,0,1,40.33,11.62Z"></path> <path class="cls-4" d="M41.75,11.08c.06,0,.12,0,.14,0a.11.11,0,0,1-.06.14h0c-.06,0-.12,0-.14,0S41.67,11.12,41.75,11.08Z"></path> <path class="cls-4" d="M41.43,10.86c.06,0,.12-.06.14,0a.11.11,0,0,1,0,.13s-.12.06-.14,0A.13.13,0,0,1,41.43,10.86Z"></path> <path class="cls-4" d="M39.25,11.29a.1.1,0,0,1,.14,0,.12.12,0,0,1-.1.1.12.12,0,0,1-.14,0S39.19,11.31,39.25,11.29Z"></path> <path class="cls-4" d="M40,12.77c.08,0,.18,0,.2,0s0,.09-.12.13-.18,0-.2,0S39.93,12.79,40,12.77Z"></path> <path class="cls-4" d="M37.47,11.4a2.73,2.73,0,0,0,.92-.28l.46-.22c.22-.1.25-.08.08.1a5.67,5.67,0,0,1-.64.45,1,1,0,0,1-.88.15C37.19,11.54,37.27,11.42,37.47,11.4Z"></path> <path class="cls-4" d="M38.87,11.2a2.37,2.37,0,0,1,.78-.46,2.71,2.71,0,0,1,1-.18c.24-.22.46.08.2.32a1,1,0,0,1-.28.18,2.15,2.15,0,0,1-.82.36c-.36.1-.4.07-.1-.14a2.83,2.83,0,0,1,.28-.2,1.49,1.49,0,0,1,.68-.2c-.34-.22-1,.12-1.66.44C38.77,11.42,38.72,11.36,38.87,11.2Z"></path> <path class="cls-4" d="M40.67,10.16a1.55,1.55,0,0,1,.43,0c.25.08.38.22.4.4a.43.43,0,0,1-.25.32c-.06-.32-.18-.5-.36-.56l-.2,0Z"></path> <path class="cls-4" d="M40.37,10.24l.18-.08v.12l-.16,0c-.08,0-.16,0,0-.08Z"></path> <path class="cls-4" d="M40,10a1.13,1.13,0,0,1,.62-.32,3.22,3.22,0,0,1,.76,0c.5.18.3.34,0,.22a.83.83,0,0,0-.72,0c0,.2-.37,0-.56.18s-.17,0-.08-.1Z"></path> <path class="cls-4" d="M41.47,10.1c.16,0,.28,0,.3.16a.38.38,0,0,1-.14.4C41.69,10.28,41.51,10.32,41.47,10.1Z"></path> <path class="cls-4" d="M41.91,10a.66.66,0,0,1,0,.48l-.16.3c0,.14,0,.18.1.14a.46.46,0,0,0,.25-.44c0-.3,0-.44.12-.54-.18-.3-.36-.25-.3.06Z"></path> <path class="cls-4" d="M40.63,11.76c0,.2.46.25.52,0s-.08-.42,0-.66a.63.63,0,0,0-.5.64Z"></path> <path class="cls-4" d="M40.51,12.29a.47.47,0,0,1,.5-.22c.18,0,.28,0,.28.22a1.94,1.94,0,0,1,0,.54c-.06.17-.08.15-.28.17s-.3-.11-.54,0c.14-.33,0-.48.06-.74Z"></path> <path class="cls-4" d="M41.37,11.5c-.1-.16,0-.22.12-.1a.53.53,0,0,1,.2.38.15.15,0,0,1-.25.14c-.11-.11,0-.25-.08-.42Z"></path> <path class="cls-4" d="M41.47,12.26c-.06-.2,0-.21.25-.12s.18.26.11.33a.5.5,0,0,1,0,.63c-.1-.08-.22,0-.3-.16s-.08,0,0-.34a.57.57,0,0,0,0-.34Z"></path> <path class="cls-4" d="M41.75,13.91c.1,0,.16.06.16.12s-.08.1-.16.08-.16-.07-.16-.12S41.67,13.91,41.75,13.91Z"></path> <path class="cls-4" d="M40.51,13.73c.1,0,.18.06.16.11a.15.15,0,0,1-.18.11c-.1,0-.18-.06-.16-.13A.14.14,0,0,1,40.51,13.73Z"></path> <path class="cls-4" d="M40.79,15.29a.31.31,0,0,1,.32,0c.06,0,0,.1,0,.14a.41.41,0,0,1-.22,0C40.81,15.37,40.85,15.33,40.79,15.29Zm-.25-.14h0c.14.18.08.22,0,.32a2.29,2.29,0,0,0,.58.06c.3-.19.28-.3,0-.38A1.32,1.32,0,0,0,40.54,15.15ZM42,13.5a1.2,1.2,0,0,0-.86-.4,3.43,3.43,0,0,0-1.06.14,1.35,1.35,0,0,0-.25,1.09l.18,0-.16.12h.22l-.14.2.12,0L40,15l.12.09-.06.16.16,0,0,.16.12,0,0,.16.12,0a1.44,1.44,0,0,0,.38.32.63.63,0,0,0,.38,0,3.39,3.39,0,0,0,.51-.56c.06,0,.08-.14.08-.32a.3.3,0,0,0,.16-.29l.1-.14v-.49a.63.63,0,0,1-.3,0l-.28-.12-.08.62c0,.12-.06.3-.2.23l-.35-.14c-.08,0-.06-.16,0-.2l.12,0V14a.65.65,0,0,1-.62,0A.44.44,0,0,0,40,14a.67.67,0,0,1,.22-.28l-.12-.19.18,0c.28,0,.42-.06.5,0a.79.79,0,0,0,.22.19l0-.14c.06-.16.18-.2.36-.14l0,.39.64-.19Z"></path> <path class="cls-4" d="M40.85,14.67s0,0,.06,0v0a.06.06,0,0,1-.12,0A.06.06,0,0,1,40.85,14.67Z"></path> <path class="cls-4" d="M41.17,13.75s0-.08,0-.14.14-.17.14-.07a.5.5,0,0,1,0,.21Z"></path> <path class="cls-4" d="M41.05,14.73c0-.25.06-.48.1-.8h.14a6.07,6.07,0,0,1-.12.84C41.13,14.85,41.09,14.81,41.05,14.73Z"></path> <path class="cls-4" d="M39.51,13.35c0-.17.14-.15.16,0a.71.71,0,0,1-.14.64c-.1,0-.25,0-.16-.12A.59.59,0,0,0,39.51,13.35Z"></path> <path class="cls-4" d="M39.39,14.49c0-.18.08-.26.12-.05A3,3,0,0,0,40.43,16c.22.18,0,.34-.22.16A2.79,2.79,0,0,1,39.39,14.49Z"></path> <path class="cls-4" d="M41.39,16.13a.48.48,0,0,1,.22-.46c.12-.08.16.06.1.14s-.22.14-.32.32Z"></path> <path class="cls-4" d="M36.17,18.34a.54.54,0,0,1,.12-.34.45.45,0,0,1-.14-.1,3.3,3.3,0,0,1-.44.66,2.52,2.52,0,0,1,.58-1.06c0,.14-.08.25-.12.36l.14.12a.4.4,0,0,0,.1-.12,1,1,0,0,1,0,.18h0l0,.06h0A.71.71,0,0,1,36.17,18.34Z"></path> <path class="cls-4" d="M35.93,18.71a.43.43,0,0,1,.13-.28.38.38,0,0,1-.14.28Z"></path> <path class="cls-4" d="M37,18.87c0-.08,0-.16.06-.22h0l0,0a.12.12,0,0,1,0-.08h0l.12-.14a.61.61,0,0,1-.25.48Z"></path> <path class="cls-4" d="M37,19.45c-.06-.2,0-.34.25-.46C37.2,19.29,37.18,19.37,37,19.45Z"></path> <path class="cls-4" d="M37.43,19.27a2.16,2.16,0,0,0,.16-1.3C37.81,18.53,37.77,18.69,37.43,19.27Z"></path> <path class="cls-4" d="M40.69,21.09a4.25,4.25,0,0,0,.12-1.23l-.1,0a3.24,3.24,0,0,1-.2.8,2.59,2.59,0,0,0,.08-.78l-.12,0a3.53,3.53,0,0,1-.16.64,3.26,3.26,0,0,0,.06-.62l-.18,0c0,.25-.06.54-.12.9,0-.3,0-.6,0-.88h-.21a6.91,6.91,0,0,1-.1,1c0-.36,0-.7,0-1l-.2,0A7.89,7.89,0,0,1,39.4,21c0-.39,0-.75,0-1.1l-.18-.07a6.85,6.85,0,0,1-.16,1c0-.36,0-.68,0-1l-.18-.06c0,.4-.06.76-.08,1.18a6.41,6.41,0,0,1-.06-1.24.39.39,0,0,1-.14-.08,4.92,4.92,0,0,0-.1,1.38,2.45,2.45,0,0,1,0-1.42.36.36,0,0,0-.12-.08,3.45,3.45,0,0,1-.28.54,4,4,0,0,0,.2-.58l-.2-.12a2.82,2.82,0,0,1-.36.88,5.6,5.6,0,0,0,.3-2,3.86,3.86,0,0,1,.1.76l.22.1a9.2,9.2,0,0,0,.06-1,2.52,2.52,0,0,1,.08,1.06.64.64,0,0,0,.18.06c0-.06.07-.11.1-.16l-.06.18.14,0c0-.12.06-.26.12-.42,0,.16,0,.3,0,.46l.16,0c0-.1,0-.22,0-.34a2.25,2.25,0,0,1,.06.36l.2,0v-.46c0,.18.08.32.1.46a1.14,1.14,0,0,0,.26,0,2.57,2.57,0,0,1,0-.48c0,.18.06.34.1.48H40v-.72a5.42,5.42,0,0,1,.14.7l.18,0-.06-.52a2.24,2.24,0,0,1,.16.5l.11,0c0-.17,0-.36-.07-.55a4.4,4.4,0,0,1,.18.51.17.17,0,0,0,.12,0c0-.28-.06-.57-.12-.92a3.2,3.2,0,0,1,0,2.83Z"></path> <path class="cls-4" d="M41.25,19.77l.08.18.28-.25c.08-.1.16-.08.22.06l0-.33c.1-.06.18,0,.25.08a.32.32,0,0,0,0-.3l0-.4c-.16-.25-.28-.42-.46-.48a.69.69,0,0,1,0,.56.62.62,0,0,0-.34-.55.7.7,0,0,1,.08.49.61.61,0,0,0-.2-.19l0,.24-.12.08Z"></path> <path class="cls-4" d="M43.09,18.34c0,.07,0,.1,0,.1s-.08,0-.14-.1Z"></path> <path class="cls-4" d="M43,18h0a.68.68,0,0,1,.08.24h-.22a1.76,1.76,0,0,1-.12-.2s0,0,0,0Z"></path> <path class="cls-4" d="M42.61,17.63c.06,0,.21.12.31.3h-.26c-.08-.16-.09-.3,0-.3Z"></path> <path class="cls-4" d="M42.49,18.33s.1.06.18.18.08.22.06.25-.1-.06-.16-.18S42.47,18.33,42.49,18.33Z"></path> <path class="cls-4" d="M42.11,18.25s.12.08.22.22.12.28.08.3-.12-.08-.22-.22S42.07,18.27,42.11,18.25Z"></path> <path class="cls-4" d="M35.65,17.47l.14.1.1-.1a.45.45,0,0,1-.16.28.44.44,0,0,1,.06-.16A.53.53,0,0,0,35.65,17.47Z"></path> <polygon class="cls-4" points="33.86 37.54 33.79 37.8 33.7 37.76 33.75 37.54 33.86 37.54"></polygon> <path class="cls-4" d="M27.66,46.37c.25-.1.32,0,.4.32s.36.36.36.52c.46.38.38.54-.25.48a.43.43,0,0,1-.32-.48Z"></path> <path class="cls-4" d="M27.76,47.91a.65.65,0,0,0,.08.78.49.49,0,0,0,.4.18l-.08-.22.25.16c0-.12-.1-.25-.32-.41l.3.07c0-.16-.14-.3-.38-.42h.2c-.1-.28-.28-.36-.44-.14Z"></path> <path class="cls-4" d="M28.54,48.05c.08,0,.14.08.16.2a.21.21,0,0,1-.1.25c-.08,0-.14-.07-.16-.19S28.48,48.05,28.54,48.05Z"></path> <path class="cls-4" d="M32.6,34.34a3.85,3.85,0,0,1,.64-1.88A17.33,17.33,0,0,0,32.6,34.34Z"></path> <path class="cls-4" d="M34,30.62c-.24.1-.25-.1-.08-.25a1.88,1.88,0,0,1,1.29-.43h.84c.32,0,.28.32,0,.3h-.61A2.63,2.63,0,0,0,34,30.62Z"></path> <path class="cls-4" d="M35.87,30.32c.22,0,.4,0,.4.08a.67.67,0,0,1-.4.08c-.23,0-.41,0-.41-.08S35.65,30.32,35.87,30.32Z"></path> <path class="cls-4" d="M37.51,26.08s-.14.09-.28.27a.89.89,0,0,0-.18.33s.14-.1.25-.28a.83.83,0,0,0,.2-.32Z"></path> <path class="cls-4" d="M36.11,27.46c-.1.18-.06.28.14.36a3,3,0,0,0,2.36-.46l1-.46c.18-.22.14-.28-.1-.2L39,27l.12-.4a1.83,1.83,0,0,0-.55.62L38.5,27a.73.73,0,0,0-.25.42l-.1-.22a.51.51,0,0,0-.25.25l0-.28c-.08-.06-.2.08-.37.4l.09-.3q-.09-.09-.3.36l.32-1c-.17,0-.38.38-.62,1-.11,0-.15,0-.13-.1l.39-.69c-.18,0-.38.25-.62.7l.28-.8-.52.68v-.27a.72.72,0,0,0-.34.28Z"></path> <path class="cls-4" d="M36.21,40.49c-.08-.08.06-.16.1-.12l.25.22c.06.06-.08.16-.14.12Z"></path> <path class="cls-4" d="M36.39,40.33c0-.06.06-.14.1-.1l.2.2c.06.06-.06.14-.1.1Z"></path> <path class="cls-4" d="M36.51,40.15c-.08-.08.06-.18.12-.12l.25.25c.06.06-.1.16-.14.1Z"></path> <path class="cls-4" d="M36.61,39.85c-.08-.11.1-.24.2-.19l.36.36c.1.11-.14.26-.2.18Z"></path> <path class="cls-4" d="M37,39.52c-.12-.12,0-.28.14-.18l.44.39c.12.1-.06.28-.16.2Z"></path> <path class="cls-4" d="M37.25,39.33c-.1-.1,0-.24.12-.16l.38.32c.1.1-.06.24-.14.17Z"></path> <path class="cls-4" d="M37.59,39.21c-.08-.08,0-.2.1-.15l.32.28c.08.09-.06.23-.12.17Z"></path> <path class="cls-4" d="M36,36.94c0-.1-.16,0-.18,0l0,.36c0,.08.18,0,.18,0Z"></path> <path class="cls-4" d="M35.46,37.45c0-.16-.17-.09-.17,0l0,.29c0,.13.2,0,.18,0Z"></path> <path class="cls-4" d="M34.86,37.83c0-.14-.11-.1-.11,0l0,.25c0,.14.13.08.13,0Z"></path> <path class="cls-4" d="M35.63,37.32a.1.1,0,0,1,.08.1.11.11,0,0,1-.08.11s-.06,0-.06-.11S35.61,37.32,35.63,37.32Z"></path> <path class="cls-4" d="M35.07,37.69a.09.09,0,0,1,.09.11q0,.12-.09.12c-.06,0-.1,0-.1-.12A.1.1,0,0,1,35.07,37.69Z"></path> <path class="cls-4" d="M34.57,38.05c0-.13-.16-.13-.16,0v.25c0,.12.18.1.18,0Z"></path> <path class="cls-4" d="M38.91,22.91c.06,0,.1.06.1.14s0,.16-.1.16-.08-.08-.08-.16,0-.14.08-.14Z"></path> <path class="cls-4" d="M39.15,23.29s-.06-.1-.06-.22,0-.25.06-.25.08.1.08.25S39.19,23.29,39.15,23.29Z"></path> <path class="cls-4" d="M39.53,23.19c.1,0,.18,0,.18.08s-.08.06-.18.06-.16,0-.16-.06A.2.2,0,0,1,39.53,23.19Z"></path> <path class="cls-4" d="M39.73,23.53s.08,0,.08.08a.08.08,0,0,1-.08.1s-.06,0-.06-.1a.09.09,0,0,1,.06-.07Z"></path> <path class="cls-4" d="M40.05,23.51h.74c.25,0,.28.12.12.35.08.39-.42.66-.4,0,0-.12-.18-.18-.46-.18C39.93,23.65,39.93,23.54,40.05,23.51Z"></path> <path class="cls-4" d="M38.89,28.22a.1.1,0,0,1,.1.09h0a.12.12,0,0,1-.1.12s-.08-.06-.08-.12A.08.08,0,0,1,38.89,28.22Z"></path> <path class="cls-4" d="M38.58,28.32a.13.13,0,0,1,.12.14.14.14,0,0,1-.12.12.13.13,0,0,1-.12-.11h0C38.46,28.38,38.5,28.32,38.58,28.32Z"></path> <path class="cls-4" d="M39,28.54c.25-.18.52-.3.56-.25s-.14.25-.42.46-.52.28-.58.22.16-.25.44-.44Z"></path> <path class="cls-4" d="M39.93,27.92a.83.83,0,0,1,.34-.2c0,.05-.08.18-.25.33s-.32.21-.34.17.08-.17.24-.3Z"></path> <path class="cls-4" d="M39.31,29.44a1.87,1.87,0,0,1,.2-.4l0,0a.76.76,0,0,1,.46-.54l0,0a1.21,1.21,0,0,1,.3-.2c-.06.1-.1.2-.16.28l.06,0a1.23,1.23,0,0,1,.52-.32,2.4,2.4,0,0,1-.38.4l.12.08a2,2,0,0,1,.58-.35c-.14.14-.28.3-.44.44l.14.08a1.38,1.38,0,0,1,.6-.28l-.28.25a4.43,4.43,0,0,1,.51-.06c-.26.12-.42.16-.62.25l.16.1a1.24,1.24,0,0,1,.6-.18,5,5,0,0,1-.46.25l.14.08a1,1,0,0,1,.58-.12,3.49,3.49,0,0,0-.44.2l.08.06a1.34,1.34,0,0,1,.53-.14c-.16.06-.28.14-.42.2l.12.06a.91.91,0,0,1,.46,0,2.53,2.53,0,0,0-.36.12l.42.25-.08,0-.64-.21a.08.08,0,0,0-.08,0s0,0,0-.06l-.16,0-.28.14a.55.55,0,0,1,.16-.18l-.16-.06-.28.14a1,1,0,0,1,.16-.2l-.16-.06-.34.22a1,1,0,0,1,.2-.25l-.22-.08a2.21,2.21,0,0,1-.3.25.59.59,0,0,1,.16-.3l-.2-.08c-.1.1-.23.2-.34.3a1.45,1.45,0,0,1,.2-.34l-.33-.12A2,2,0,0,1,39.31,29.44Z"></path> <path class="cls-4" d="M36.15,37.17a2.45,2.45,0,0,1,.14-1c0-.14.18-.22.42-.25l2.68-.41c.14,0,.16.06.14.26a1.94,1.94,0,0,1-.2.7c-.1.08-.12-.25-.1-.78-.2.48-.12,1-.44,1.06-.14-.22.08-.64.12-1-.3.28-.2.62-.46,1-.1,0-.08-.32,0-.86a2.7,2.7,0,0,1-.4.86A1.55,1.55,0,0,1,38,36c-.12.52-.25.88-.38.94a2.75,2.75,0,0,1,0-.86L37.55,36a2.15,2.15,0,0,1-.28.94,1.1,1.1,0,0,1,0-.92h-.12c-.08.25-.12.48-.25.56s-.25-.2-.25-.5a1.9,1.9,0,0,1-.56,1Zm4.16-6.56c.06-.08.16-.06.14,0a18.19,18.19,0,0,0-.28,3h-.06A11,11,0,0,1,40.31,30.61Zm.3,0c-.14,1-.14,1.6-.25,2.64l.08.18a15.2,15.2,0,0,1,.34-2.77c.06-.16-.1-.2-.18,0Zm.22.64L41,30.7q.21-.12.18.12l-.25.5,0,0Zm-3.3-.81h0a12,12,0,0,0-.44,3.9c0,.25.06.36.25.34a20.67,20.67,0,0,0,2.82-.44c.16-.06.14-.12,0-.18H40a14,14,0,0,1,.09-3.3c.12-.25,0-.36-.08-.25a12.82,12.82,0,0,0-.17,3.55l-.12,0a14.45,14.45,0,0,1,0-3.22c.14-.22.14-.42,0-.36a13.2,13.2,0,0,0-.16,3.6l-.08,0a26.3,26.3,0,0,1,0-3.66l-.08-.06a14.78,14.78,0,0,0-.06,3.7h-.08a13.69,13.69,0,0,1,0-3.56l-.1.12A16.68,16.68,0,0,0,39,34.08l-.08,0a14.3,14.3,0,0,1,0-3.58l-.08-.08a11.1,11.1,0,0,0-.14,3.72l-.08,0a11,11,0,0,1,0-3.7l-.1,0a10.82,10.82,0,0,0-.1,3.68l-.08.08a10.55,10.55,0,0,1,.08-3.84l-.15,0a11.51,11.51,0,0,0-.16,3.88l-.08.06a8.1,8.1,0,0,1,0-3.6v-.2c-.36.64-.52,1.84-.34,3.92a8.26,8.26,0,0,1,.18-4.1l-.06-.15c-.36.34-.6,2.36-.5,4.27a12,12,0,0,1,.18-4l-.07,0Zm-.46-.42a8.85,8.85,0,0,0-.7,2.94,6.38,6.38,0,0,0,0,2.18c.08.4.25.54.44.52l3-.47c.22,0,.44-.21.34-.42L40,34.58l-.1.33-.16-.28-.12.32-.18-.4-.14.49-.18-.39-.1.41-.1-.34-.12.41-.14-.37-.12.45-.16-.44-.12.32-.14-.25-.1.25-.14-.2a.51.51,0,0,0-.42,0l-.06.11-.08-.11c-.22-.06-.46-.1-.68-.14l.28-.14c0-.09-.1-.14-.28-.11l.3-.23-.32-.05.3-.19c0-.08-.08-.16-.32-.25l.32-.1V33.6l-.32,0,.34-.16c0-.08-.06-.14-.28-.21l.28-.09a.35.35,0,0,0-.25-.25l.25-.08-.25-.18.29-.12c0-.1,0-.14-.21-.22l.32-.14a.48.48,0,0,0-.3-.22l.3-.1-.26-.16.31-.18-.22-.08.25-.16c.06-.06,0-.12-.25-.14l.3-.12,0-.12-.28,0,.14-.12-.18-.14.41-.09,0-.08-.29-.08.25-.14a.22.22,0,0,0-.25-.16Z"></path> <path class="cls-4" d="M41.45,37.25q-.15-.18.06-.3l.72-.06a.47.47,0,0,1,.38.24l.34.37c.14.19,0,.33-.12.29A9,9,0,0,1,41.45,37.25Zm-.16,0c-.16-.08-.25,0-.14.12a3.75,3.75,0,0,0,.84.54,1.85,1.85,0,0,0,.92.18c.22,0,.32-.14,0-.2A7.13,7.13,0,0,1,41.29,37.27ZM40,36.07c-.22-.14,0-.42.18-.3l.32.32c.18.16.06.3-.1.22l-.4-.25Zm-.25.38.64.4c.14.1.32-.14.14-.28l-.6-.44C39.78,36,39.54,36.31,39.76,36.45Zm1.44-4.94c-.16.12-.22.25.1.25-.22.2-.25.34-.06.4-.4.5-.4.64,0,.42-.44.56-.38.64-.08.54-.38.46-.32.52-.2.54-.25.36-.25.54,0,.52a.63.63,0,0,0-.37.55c-.08.32-.94.68-.22,1a1.45,1.45,0,0,1,.54.94c.06.28.18.3.42.2a4.17,4.17,0,0,1,.6-.1c.38,0,.4-.38,0-.44,0-.16-.1-.25-.32-.14.18-.29,0-.22-.12-.25.12-.06.1-.2-.22,0l0-.1a.33.33,0,0,0,.25-.28l-.54.18c.16-.14.25-.25.22-.34l-.38.08c.4-.28.56-.48.54-.58l-.42.12c.3-.25.51-.44.48-.56l-.36.14c0-.12.16-.25.46-.32s.36-.28.32-.51L41.2,34a4.11,4.11,0,0,0,.9-1c0-.14-.48.16-1.06.64v-.1a4.46,4.46,0,0,0,1.32-1.31L41.3,33l1-1.14c-.06-.14-.34,0-.88.58l0-.12.51-.54a1.81,1.81,0,0,0,.76-.86c.1-.25-.25.08-.75.54-.12.12-.26.18-.41.32l1.23-1.28,0-.16c-.13-.12-.9.8-1.57,1.12Z"></path> <path class="cls-4" d="M43.89,34.26l.06,0c.14-.16.14-.25,0-.28h0Zm-.18.08.06,0V34l-.08,0,0,.34Zm-.25.08.1,0V34l-.18,0Zm-.22.06h0v-.4l-.1,0Zm.92-.86c.08,0,.14,0,.16,0s0,.1-.12.12-.14,0-.16-.06S44.08,33.64,44.16,33.62Zm.08.25a0,0,0,0,1,0,0s0,.06,0,.06,0,0,0-.06S44.22,33.88,44.24,33.87Zm-.79-.4a.09.09,0,0,1,.1.09h0a.1.1,0,0,1-.09.1h0a.09.09,0,0,1-.08-.1A.1.1,0,0,1,43.45,33.47ZM42.7,34l1-.2q.24-.09.18-.3l-.08-1.32c-.06-.25.12-.16.18,0s.16.1,0,.25c.34,0,.44.14.25.28l-.28.06.36,0c.16.06.12.18,0,.2L44,33l.42.06c.2,0,.2.07,0,.18l-.18.12.3,0c.14,0,.18,0,.12.2.1.49,0,.79-.4.79l-1.34.3c-.08-.06-.12-.06-.08-.09l0,0s0-.07.08-.08a.07.07,0,0,1,.06.07l.2-.05v-.39l-.18,0v0c0,.08,0,.14-.08.14s-.08-.06-.08-.14v0l-.08,0c-.18-.06-.18-.14,0-.26Zm.7-1,0,.29c.06.12.08.16.14.1l.06-.32c0-.12-.16-.28-.18-.08Zm1.46.36h0c-.08-.08-.22,0-.14.06a1.34,1.34,0,0,1,.14.62c0,.14.16,0,.18-.2A.52.52,0,0,0,44.86,33.31Zm.3.58c.06,0,.1.08.12.18s0,.2,0,.2-.08-.06-.1-.16A.34.34,0,0,1,45.16,33.89Zm0,1.22s.06,0,.06.08,0,.08-.06.08a.08.08,0,0,1-.08-.08.08.08,0,0,1,.06-.08Zm-.1.3s0,.06,0,.14,0,.14,0,.14,0-.06,0-.14S45.06,35.41,45.08,35.41Zm.06-.82c0-.22.25-.16.16.06l-.12.28h-.06Zm-3,.76a1.06,1.06,0,0,1,.56-.48,9.88,9.88,0,0,0,2-.48c.2-.14.28-.1.25.12a2.54,2.54,0,0,1-.32,1.3V34.73l-.08,0a2.41,2.41,0,0,1-.28,1.1l0-1h-.1l-.22,1,.06-.85c0-.13,0-.15-.1-.09-.14,1-.32,1.43-.52,1.57A3.32,3.32,0,0,0,43.62,35l-.06,0a4.52,4.52,0,0,1-.32,1.41c-.2-.31.18-.83.1-1.32h0l-.36,1.24c-.12,0-.08-.16,0-.48l0-.71-.06,0a3.34,3.34,0,0,1-.34.91l.06-.93-.25.66,0-.54Z"></path> <path class="cls-4" d="M44.54,16.43a2.18,2.18,0,0,1,1.51-.36c.36,0,.36.25.16.25a2.79,2.79,0,0,0-1.64.2c-.2.1-.16,0,0-.08Zm-.45.62h0c-.06.16,0,.22,0,.16.51-.46.84-.58,1.12-.52l0,0c-.5,0-1,.42-1.38,1.14-.06.14,0,.18.08.12A3.1,3.1,0,0,1,45,16.91a2.28,2.28,0,0,1,.66-.2,1.78,1.78,0,0,1,.56-.1c.23,0,.26-.22,0-.25a2.54,2.54,0,0,0-2.15.68Zm1.35-.2c.17,0,.25.08.11.24a3.42,3.42,0,0,0-1.26,1,.42.42,0,0,1-.25.46c0,.3-.18.44-.48.48l-.44.56c.1.14-.06.36-.38.68s-.28.16-.25-.2c.25-.66.7-1.62.92-1.62s.12,0,.16-.26.18-.11.14,0,0,.19.12.06a2.93,2.93,0,0,1,1.58-1.4Zm-3.57,5.24c-.06-.72.1-1.14.44-1.38.92-.56,1.24-1.38,1.54-1.36a7,7,0,0,1,1.31-1.56c.39-.28.47-.22.25.22a8.07,8.07,0,0,1-1.68,2.08.73.73,0,0,0-.56.38l.35-.18c.19,0,.21,0,.08.16-.3.16-.79.94-.92.44-.19.38-.53.32-.55.7l-.05.51c-.08.13-.14.13-.21,0ZM44.51,18a2.58,2.58,0,0,1,1-.72c.38-.16.36.14.09.14s-.48.18-.94.76c-.12.16-.25,0-.1-.18Zm-2.22,3.42h0a.17.17,0,0,0,0,.18.12.12,0,0,0,.17,0s0,0,0,0a.12.12,0,0,0,0-.18A.15.15,0,0,0,42.29,21.43Zm0,1c0,.16,0,.12.12,0l.18-.5a5.47,5.47,0,0,0,.74-.7c.12.18.34,0,.68-.44a1.33,1.33,0,0,0,.74-.91c.1-.34,0-.4-.17-.18-.32.42-.57.58-.69.88-.38.12-.68.54-1.12.74a.41.41,0,0,0-.16.36c-.18.12-.3.32-.32.76Zm0,.64c-.18.46.32.54.32.14a2,2,0,0,1,.26-1c.13-.25.07-.28-.14-.06a2.18,2.18,0,0,0-.43.9Zm.58-.32h0c-.06.14,0,.28.09.1l.49-.66-.38.76c-.09.12.06.12.14,0a2.33,2.33,0,0,0,.6-1.24l.32-.52c.06-.1,0-.25-.1-.14l-.46.42c-.18,0-.32.18-.4.46Zm1,.1h0c-.07.4,0,.44.26.14a2,2,0,0,0,.25-1.12c.14,0,.14-.2.16-.34s.14-.25,0-.3l.12-.38c0-.3-.1-.32-.16-.08l-.22.6a1.33,1.33,0,0,0-.3.76l-.14.72Zm-1.26.92a2.19,2.19,0,0,0,.76-.66c.28-.4.4-.42.32,0a1.22,1.22,0,0,1-.82.88c-.42.17-.54,0-.25-.22Zm-1,1.15c.16-.34.6-.56,1.22-.76a2.46,2.46,0,0,0,1.06-.8c.32-.2.25,0,.16.2a.87.87,0,0,1-.4.38,3.88,3.88,0,0,1-.88.51,2,2,0,0,0-1,.68c-.18.13-.25.07-.2-.21Zm.06,1.16c-.1.18-.12.32,0,.42.38-.14.25-.74,1.2-1.22.12-.16.08-.22-.12-.16l-.88.64c.3-.49.6-.87,1-1a1.26,1.26,0,0,0,.78-.42c.1-.21.06-.28-.1-.18-.54.36-1,.51-1.42.82a2.18,2.18,0,0,0-.74,1.18l.28-.11Zm.06.66h0A5.31,5.31,0,0,1,43.24,25a3.77,3.77,0,0,0,1-1.74c.12-.3.3-.16.14.32a3.88,3.88,0,0,1-1.34,1.78,7.43,7.43,0,0,0-1.26,1.48c-.12.18-.22.1-.1-.12Zm.16.42c-.14.18-.12.25.12.14a3.73,3.73,0,0,1,.86-1.08l.68-.6c.52-.12.82-.68.92-1.62l0-.12a2.78,2.78,0,0,1-1,1.4,4.28,4.28,0,0,0-.94,1c-.12.12-.12.25-.22.42a5.17,5.17,0,0,0-.42.51Zm1.73-1.34h0c.25-.06.16.08.08.14a5.5,5.5,0,0,0-.61.47c-.18.18-.22.17-.12-.08A1.18,1.18,0,0,1,43.62,25.8Zm-.84,1.51a1.36,1.36,0,0,1,.56-.94c.28-.2.34-.14.12.14a6.53,6.53,0,0,0-.48.86C42.92,27.49,42.73,27.62,42.78,27.31Zm-.12-.7h0s-.06.1-.06.2,0,.2.06.2.06-.08.06-.2S42.68,26.61,42.66,26.61ZM44.1,26h0c-.08,0-.16.08-.22.22s0,.25.06.28.16-.08.2-.2A.3.3,0,0,0,44.1,26ZM47,15.34a3.07,3.07,0,0,0-2.91,1,2.89,2.89,0,0,0-.62,1.62c0,.1.22-.12.48-.46l-.16-.06a1.83,1.83,0,0,1,.18-.34c0-.06,0-.16.14-.22a.39.39,0,0,0,.2-.22h-.14A2.1,2.1,0,0,1,46,16l.57.06a.36.36,0,0,0,.25-.06c.06,0,.08-.1,0-.1a4.86,4.86,0,0,0-1.9.08A3.58,3.58,0,0,1,47,15.65c.38,0,.4-.25,0-.31Z"></path> <path class="cls-4" d="M48.18,15.11c-.08.06,0,.2.08.25s.18,0,.14-.08-.14-.25-.22-.18Zm-.86-.32c-.15-.18,0-.28.2-.25A3.58,3.58,0,0,1,49,15c.2.14,0,.28-.1.18L48.51,15c0,.19-.14.11-.38-.09-.16.16-.36.08-.58-.16l.14.4c0,.08-.06.08-.1,0Z"></path> <path class="cls-4" d="M49.46,15.61c-.06,0-.2-.1,0-.14-.2-.13-.12-.28,0-.3.54,0,1-.32,1.58,0l.28.32c.18.42,0,.62-.22.32s0-.34-.32-.49a2,2,0,0,1,.28.95c.46.44,0,.54-.08.25l-.18-.82c0,.4.06.7,0,.7s-.06-.28-.12-.62c0-.14-.08-.4-.16-.42a2,2,0,0,0-.92,0c.44,0,.74,0,.84.12a.72.72,0,0,1,.1.62c-.1.16-.16.12-.16-.08l-.06-.25c0-.14-.18-.16-.4-.14a.61.61,0,0,1-.46,0Z"></path> <path class="cls-4" d="M50.08,30c-.1-.16.16-.26.36,0a13.21,13.21,0,0,1,1.18,1.94c.18.4,0,.5-.18.14A13.23,13.23,0,0,0,50.08,30Zm.62.2h0a10,10,0,0,1,.92,1.54c.1.22.25.16.14-.08a13.86,13.86,0,0,0-.84-1.51c-.16-.25-.36-.14-.22.06Zm-6.81.38a21.38,21.38,0,0,0,2.23,3c.09.12,0-.25.09-.1a3.65,3.65,0,0,0,.59.86c.11-.1-.26-.44-.32-.84l1.14,1.32c.1-.18-.56-1-1.1-1.64l.07-.08,1.31,1.7.06,0a12,12,0,0,0-1.2-1.86l0-.14c.25.3.56.76.82,1.14A6.91,6.91,0,0,0,48.44,35c.48.12-1.14-1.58-1.88-3v-.08A11.43,11.43,0,0,0,49.1,35c.09.06.17-.06.08-.18A26.22,26.22,0,0,1,46.91,32L47,32c.84,1,1.28,2.14,2.88,3.1.1.06.16.16.25.08.36-.28-1.38-.7-2.72-3l0-.16a11.88,11.88,0,0,0,1,1.36c.64.7,1.64,1.51,1.8,1.4s-1.44-1.24-2.3-2.58l0,0A8.85,8.85,0,0,0,51,35c.2.1.12.08.36.08.62,0-1.38-1-2.42-2.12l0-.1c.3.25.68.6,1.1.94a16.87,16.87,0,0,0,1.45.92c.37.2.68.32.81.25.37-.18-1.38-.79-1.82-1.26a6,6,0,0,0,.74.35c.76.38,1.3.64,1.43.5s-.33-.32-1-.58c-.08-.08,0-.1.19-.06a4.54,4.54,0,0,0,1.36.48c.25-.08-.16-.25-.65-.56a3.12,3.12,0,0,0,1.41.42c.1,0-.34-.25-.73-.6.55.34,1.83.8.61-.06l.08,0c.46.34,1,.48.34-.08h.1c.4.32.62.56.32-.1.4.58.8.8.25,0l.62.48c-.22.1-.2.16,0,.28.52.34.56.28.46,0a1.07,1.07,0,0,0-.5-1.12c-.4-.25-.38,0,.08.76a1.83,1.83,0,0,1-.42-.46A.5.5,0,0,0,54.7,33,25.45,25.45,0,0,0,52,33.3a2.24,2.24,0,0,1-1.44-.16c-.25-.2-.32-.28-.2-.5a.27.27,0,0,0-.1-.37h0L49.55,31c.08.14.18.2.26.32.25.42.43.76.5.74-.1-.28-.44-.9-.7-1.6.5.88.94,1.64,1.06,1.54a7.58,7.58,0,0,0-.86-1.68l.25.25c.16.2.3.38.38.34a2.18,2.18,0,0,0-1-1.2c-.56-.2-.9-.28-.82.08l-.28-.32-.3,0c-.1,0,0,.2.24.54l-.06,0-.34-.54c-.1-.06-.25-.12-.25,0l.18.36-.38-.42c-.18-.1-.38-.14-.38-.06l.56.92c-.1-.14-.25-.28-.4-.48s-.4-.52-.66-.56.25.4.62,1.26l-.86-1.24c-.08-.06-.42-.12-.44,0l1,1.44a8.22,8.22,0,0,1-1.18-1.46.21.21,0,0,0-.18-.06s-.08,0-.12,0l1.22,1.58a6,6,0,0,1-.66-.68c-.26-.36-.51-.6-.7-.92a.2.2,0,0,0-.26,0c-.1.14.92,1.18,1.37,1.8a9.83,9.83,0,0,1-1.55-1.8c-.2-.1-.34-.1-.4,0s1.24,1.37,1.74,2.15a22.48,22.48,0,0,1-1.88-2.14c-.08-.1-.32-.1-.32,0s1.12,1.22,2,2.46a17.08,17.08,0,0,0-1.8-1.88c-.16,0,.4.68,1.68,2.14A16.37,16.37,0,0,1,44.07,30c-.16.14.54,1,1.56,2.14L44,30.48C43.81,30.34,43.78,30.36,43.89,30.56Z"></path> <path class="cls-4" d="M49.3,17.47s0,.28-.06.42a.62.62,0,0,0,0,.38c.06.14.08.16.08.12a2.62,2.62,0,0,1,0-.74A.23.23,0,0,0,49.3,17.47Zm.22,0a4.38,4.38,0,0,0,0,.52.79.79,0,0,0,.08.5c.06.16.1.2.1.14a4.9,4.9,0,0,1-.08-.94.23.23,0,0,0-.06-.22Zm.25,0a4.85,4.85,0,0,0,0,.66,1.05,1.05,0,0,0,.1.6c.08.2.12.24.12.18a6.65,6.65,0,0,1-.12-1.18c0-.16,0-.22-.08-.25Zm.3.3a4,4,0,0,0,0,.6,1,1,0,0,0,.1.54c.08.18.14.22.12.16A6.26,6.26,0,0,1,50.15,18a.29.29,0,0,0-.08-.25Zm.28.32s0,.34,0,.52a.87.87,0,0,0,.1.5q.15.21.12.12a5.92,5.92,0,0,1-.14-.94c0-.14,0-.18-.08-.2Zm.28.3h0c.06,0,.08.06.08.18a4.57,4.57,0,0,0,.16.82c0,.06,0,0-.1-.1a.68.68,0,0,1-.12-.44C50.65,18.67,50.59,18.35,50.63,18.37Zm.3.3s0,.28,0,.42a.77.77,0,0,0,.12.36c.09.1.12.14.11.1a2.91,2.91,0,0,1-.17-.72A.21.21,0,0,0,50.93,18.67Zm.28.3h0a.12.12,0,0,1,.08.14,3.18,3.18,0,0,0,.18.6s0,0-.1-.08a.47.47,0,0,1-.12-.3C51.23,19.21,51.18,19,51.21,19Zm1.63,2.48c-.23-.22-.36,0-.06.32s.54.16.45.08Zm-5.23-5.29c.06,0,.14.25.22.46a3.45,3.45,0,0,1,.2.48A1.09,1.09,0,0,1,47.61,16.16ZM45,20.11a5.64,5.64,0,0,0,2.11,3.18c-.08-.25-1-1.08-1.45-1.82S45.13,20.31,45,20.11Zm.17-.38h0c.13.16.19.58.6,1.26s1.2,1.4,1.28,1.64A4.58,4.58,0,0,1,45.14,19.73Zm.13-.4h0c.14.16.23.56.59,1.2S47,21.81,47,22a4.38,4.38,0,0,1-1.75-2.7Zm.17-.38h0c.13.14.21.52.53,1.1s1,1.2,1.07,1.4A4.05,4.05,0,0,1,45.44,19Zm.19-.38h0c.13.12.19.48.51,1s.9,1.1.94,1.28a3.59,3.59,0,0,1-1.44-2.3Zm.21-.38h0c.09.1.17.44.45.94s.81,1,.85,1.18A3.21,3.21,0,0,1,45.84,18.19Zm.22-.38a2.85,2.85,0,0,0,1.13,1.92c0-.14-.47-.6-.71-1.06A8.63,8.63,0,0,0,46.06,17.81Zm.23-.36h0a2.4,2.4,0,0,0,1,1.72c0-.12-.4-.54-.62-.94a7.11,7.11,0,0,0-.38-.78Zm.28-.37a2.23,2.23,0,0,0,.85,1.55,6.27,6.27,0,0,0-.53-.84A6.43,6.43,0,0,0,46.57,17.08Zm.3-.32h0a1.74,1.74,0,0,0,.73,1.33c0-.1-.26-.4-.43-.72a4.2,4.2,0,0,0-.3-.6Zm-2.42,8.41a3.18,3.18,0,0,0,.06-.43,16.1,16.1,0,0,0,2.59,3A25.94,25.94,0,0,0,45,25.19c-.16-.28-.3-.54-.4-.75s0-.22,0-.36a10.39,10.39,0,0,0,2.6,3.16c-.13-.36-1.37-1.36-2-2.42a6.45,6.45,0,0,1-.53-1.05v-.18a10.9,10.9,0,0,0,2.6,3.17c-.12-.36-1.4-1.4-2-2.43a7,7,0,0,1-.54-1.06v-.2a12.59,12.59,0,0,0,2.74,3.36c-.12-.33-1.56-1.6-2.16-2.57a8.11,8.11,0,0,1-.54-1.11v-.28a10.23,10.23,0,0,0,2.66,3.33c-.12-.34-1.51-1.49-2.06-2.43a5.4,5.4,0,0,1-.56-1.16,1,1,0,0,1,0-.3,8.17,8.17,0,0,0,2.56,3.21c-.12-.3-1.4-1.35-1.92-2.23a8.44,8.44,0,0,1-.62-1.24,1.3,1.3,0,0,1,0-.34,7.5,7.5,0,0,0,2.44,3.19c-.09-.31-1.29-1.25-1.8-2.09a7.1,7.1,0,0,1-.62-1.34V21c0-.12,0-.25,0-.38a6.78,6.78,0,0,0,2.32,3.3c-.07-.25-1.18-1.2-1.64-2a14.24,14.24,0,0,1-.68-1.42c.34-2.88,1.57-4.58,3.35-4.88l0,0a1.87,1.87,0,0,0,.2,1.16,7.34,7.34,0,0,0-.08-.82v-.3l.16,0c0,.4.16.78.34.82a1.38,1.38,0,0,1-.16-.74l.22.06c0,.42.14.88.34.9a1.19,1.19,0,0,1-.16-.82l0,0a.9.9,0,0,0,.18.4c.08-.1,0-.3,0-.52a.71.71,0,0,1,.75.08c.1.12.06.18-.08.18h-.14l.32.14s.08.08-.1.1l-.12.1.42,0c.14.06.12.1.08.16l-.1.12a2.4,2.4,0,0,1,1.2.32c0,.16-.2.14-.54,0,.08.2.4.22.38.34s-.52,0-.74.3l.54,0c.12.08.08.14-.1.14.28.34.51.44.58.2s.17-.18.26,0c.34.2.4.22.2.25l-.32.06.38.06a.1.1,0,0,1,.08.12s0,.05,0,.06c-.26,0-.28.08.2.1.2.1.28.2.2.28-.42,0-.4.08.1.12.12.06.16.14.14.2-.26.06-.22.12.1.12,0,.06.08.1,0,.16q-.45.12.12.12c0,.14.25.12.32.3.32-.06.46.16.18.16l0,.06c.46,0,.66.14.6.42,0,.12-.66-.25-.4.72l.1.1c.18,0,0-.44.28-.4,0,0,.08.16,0,.4s-.2.32-.42.18-.32-.27-.32-.43l0-.3c-.22,0-.25-.12-.28-.34,0,0-.08,0-.06-.08-.36-.06-.52.06-.62.32,0,.1-.1,0-.14-.08s-.12,0-.2,0,0-.14-.1-.12,0,.06-.12.06,0-.16-.16,0-.1.08-.12,0,.1-.3-.12,0c-.08,0-.1,0-.14-.06-.12-.34-.2-.36-.25-.06-.06.12-.12.14-.12,0-.12-.52-.14-.52-.1,0,0,.22-.08.2-.2-.06-.14-.42-.2,0-.3-.16s0-.58-.28-.68l.14.7c0,.1-.16.12-.18,0a3.45,3.45,0,0,0-.32-1l.18,1c0,.09-.2,0-.25-.07l-.26-1.2c-.06-.35-.06.64.08,1.06,0,.06-.16.06-.14,0a4,4,0,0,0-.25-1.17c-.14.14.25,1.28-.06,1.1,0,0-.14-1.17-.18-1.18s0,1.09,0,1.08c-.32-.4,0-1.49-.2-1.55,0,0-.14,1.33-.18,1.29.14,1,1,1.05.9,1.36l-.58-.31c.16.31.4.63.56,1-.18.06,0,.3.14.42-.18,0-.14.1.2.42a.15.15,0,0,1,.08.18c-.42-.1-.46-.1.22.44-.42-.06-.44,0,0,.3a.52.52,0,0,1,.2.3c0,.08-.06,0-.1,0l-.25-.14c-.12,0,0,.14.52.56.14.12.2.22.1.25-.68-.42-.64-.32.1.32.18.28.2.4.14.44-.6-.51-1-.82,0,.22.18.18.22.3.08.32-1-.78-.48-.25.22.46,0,0,0,.1,0,.08-1-.74-1-.56,0,.54,0,.1.1.18.06.25s-.1,0-.14,0c-.72-.68-.66-.54.16.58.12.18.18.35,0,.26-.9-1-1.18-1.25,0,.32.12.2.14.3,0,.24-.82-1.12-.84-1,0,.22.06.14.06.16,0,.14-.74-.9-1-1.12,0,.2.12.25.1.28,0,.16-.9-1.12-.92-1,0,.18.08.14.12.22,0,.16-1-1.18-1-1.14,0,.14,0,.32,0,.3-.18.14s-.1-.22-.2-.32c-.64-.78-.72-.72,0,.28-.08.08-.18.08-.3,0-.66-.86-.72-.86-.2,0l-.36-.06a.82.82,0,0,0-.2-.25c-.62-.6-.84-.66-.22.12,0,0,0,0,0,.06l-.7-.12a.38.38,0,0,1-.26-.14,4.28,4.28,0,0,0-.91-1.2c0,.18.42.5.72,1,.08.32-.27.19-.4.13-.22-.3-.3-.34-.62-.73-.9-1.05-1.86-2.26-2.64-3.1Zm-.06.42h0c.75.82,1.67,2,2.51,2.95a3.47,3.47,0,0,0,.34.42c.14,0,.22.08.22,0-.2-.22-.18-.2-.54-.64-.68-.84-1.86-2.27-2.46-3,0,.1,0,.2-.06.32Zm-.1.49c.72.8,1,1.16,1.77,2.08.08.12.5.54.58.64s.44.2.28.06,0,0-.2-.3L44.38,25.7c0,.14-.06.25-.08.38Zm-.12.41c.68.79,1.31,1.49,2,2.35a.31.31,0,0,0,.28,0c-.08-.08-.56-.66-.64-.76-.58-.72-.92-1.1-1.58-1.9a1.11,1.11,0,0,1-.08.3ZM44,27c.52.6,1,1.12,1.56,1.78.17.08.28.08.34,0-.52-.68-1.18-1.42-1.78-2.16a2.16,2.16,0,0,1-.1.25.36.36,0,0,0,0,.1Zm-.08.64c.42.42.74.68,1.12,1.08.12.06.2.06.26,0-.46-.58-.88-1-1.34-1.6a1.83,1.83,0,0,0,0,.52Zm.08.56c.21.2.4.32.6.54a.27.27,0,0,0,.3,0c-.32-.34-.62-.54-1-.88Zm.4.52c-.3,0-.36,0-.38-.34C44.19,28.52,44.31,28.58,44.43,28.72ZM48,15.83a1.42,1.42,0,0,0,.32,1.22,2.59,2.59,0,0,0-.18-.66C48,16.14,48,15.87,48,15.83Zm.3,11a.89.89,0,0,0-.48-.7c0,.06.18.22.3.4Zm.08.78h0a1.46,1.46,0,0,0-.68-1.07c0,.09.28.35.44.61a4.09,4.09,0,0,0,.25.46Zm.08.76h0a2.06,2.06,0,0,0-.9-1.39c0,.1.36.44.56.78S48.3,28.14,48.42,28.34Zm0,.6a2,2,0,0,0-1-1.48c0,.13.42.47.66.9s.25.5.34.58ZM47.2,16.45a1.45,1.45,0,0,0,.56,1.12,3.19,3.19,0,0,0-.3-.58c-.12-.28-.18-.51-.25-.54Z"></path> <path class="cls-5" d="M32.38,15.09c-.28-.1-.36,0-.3.32C36.09,21.05,42.15,29.3,49.3,39l0,.14.6.34-.2-.8-.12.07C44,31.09,37.65,22,32.39,15.08Zm-.7.32c.06.16-.06.24-.18.08a.75.75,0,0,1,.08-1,.68.68,0,0,1,1-.14l.05,0c.2.16.14.18-.1.18-.68,0-.94.34-.82.86Zm-3-5.15c.6.74,1.16,1.44,1.8,2.27a.19.19,0,0,1-.22.22c-.66-.94-1.16-1.7-1.66-2.42-.1-.14,0-.16.08-.08Z"></path> <path class="cls-6" d="M43.07,16.85c-.14-.1-.2.14,0,.06l.34-.3c.16-.28.06.08.16.06a.64.64,0,0,0,.25-.54l.29-.14c.16-.14.12-.2-.1-.18a3.65,3.65,0,0,0-.75.72l-.25.32Zm-.64-.16s0,.1-.06.18a.11.11,0,1,1-.12-.12Q42.37,16.66,42.43,16.69Zm-8.24-.46c-.26.08-.26.18,0,.22a.53.53,0,0,0,.25,0c.14,0,.2,0,.25.12s.22.28.32.22-.38-.38-.16-.38H35c.34.32.66.5.64.44l-.14-.36c0-.12.14-.06.22,0l.46.4c.06.08,0-.06-.08-.32,0-.08.08-.08.16,0,.28.28.62.75.62.58V17c0-.08.1-.08.16,0s.38.38.36.3l0-.16c0-.1.06-.1.18,0l.48.4c.1.08.18,0,.14,0L38,17.39c-.06-.1,0-.12.1,0l.44.3c.08.06.08,0,0-.2h.26c0,.14.13.18.38.28,0,0,.07,0,.19-.08l.58-.18c.19-.06.17-.18,0-.14a3.8,3.8,0,0,1-2.66-.72,3.75,3.75,0,0,0-3.08-.38Zm1-.64h0a1.18,1.18,0,0,1,1.27-.2c.53.34.73.25,1.2.6a6.4,6.4,0,0,0,1.64.8c.12,0,.1.1-.1.2-.32-.22-.56-.36-.36,0q-.06,0-.12-.06c-.36-.32-.64-.48-.85-.46-.25-.32-.38-.34-.32-.08,0,.1-.06.06-.13,0-.3-.44-.44-.5-.43-.18,0,.06,0,.06-.11,0-.26-.48-.32-.51-.21,0,0,0-.08,0-.14,0-.22-.44-.23-.4-.23-.14-.35-.48-.43-.4-.35-.08-.22-.32-.32-.34-.32-.08-.18-.18-.32-.16-.46,0s-.08-.06,0-.12Zm2.27-.12a3.14,3.14,0,0,1,1.3.44c0,.06,0,.1,0,.06a.64.64,0,0,0-.42-.18c0,.18,0,.26-.06.25-.16-.28-.29-.32-.42-.25s-.06,0-.1,0c-.12-.25-.18-.25-.24-.16-.12-.1-.12-.16,0-.16ZM30.78,19c.3-.46.54-.6.7-.24.2-.64.42-.7.71-.14.37,0,.45.58.39,1.44l-.36-1v.62C32,18.61,30.44,19.23,30.78,19Zm2,.25c.05,0,.11.08.15.22s0,.26,0,.26-.12-.08-.16-.23A.42.42,0,0,1,32.83,19.2Zm-2.29,2.17A1.33,1.33,0,0,1,31,21l0,.18L31.5,21l0,.16.52-.28c-.3.38-.36.54-.25.54s.46-.44.58-.32c-.25.4,0,.28.42-.08.12,0-.16.32-.12.36s.2-.08.52-.3c.08-.06.25-.25.3-.16s-.1.18-.16.25c-.32.38-.24.32.32,0,.08,0,.2-.14.28-.1-.38.5-.22.4.34.06.08,0,.18-.18.28-.08-.7.62-.58.7.32.25-.42.48-.32.51.34.08.06,0,.14,0,.22,0-.3.3-.34.52-.2.44a1.47,1.47,0,0,1,.64-.18c-.28.29-.25.4.1.34.12,0,0,.19-.36.43-.06.1-.12,0-.18-.24,0,.13-.1.13-.16.06l-.08.52-.12,0v-.28q-.09-.12-.18,0l-.11.39-.18-.1a.9.9,0,0,1-.28.38c-.12-.16-.2-.12-.25,0s-.12,0-.2,0c-.06.18-.12.22-.22.1a2.35,2.35,0,0,0-.47.36l-.08-.2c-.14.2-.25.32-.33.28l-.15-.14-.22.36-.36.1c0,.1.14.1.38.06a10.15,10.15,0,0,0,1.35-.3,10.92,10.92,0,0,0,1.32-.38c.38-.18.82-.5,1.26-.72.1.08,0,.28-.82.94l-.39-.12.23.29c-.1.1-.18.15-.28.13l-.36-.17.11.38c-.25,0-.37-.32-.62-.18l.11.3L33.81,24l.1.36-.46-.2-.11.2c-.14,0-.21,0-.23.1a5.89,5.89,0,0,0,3.42-.78c.06,0,.08,0,.08.12a2.17,2.17,0,0,1-1,1.28l.16-.64c-.36.16-.76.94-1.06,1l.32-.85-.94.79c-.08-.1,0-.32.25-.6-.28,0-.76.66-.84.62s.16-.3.25-.44c-.25,0-.44.22-.66.34,0-.12.12-.25.36-.48l-.78.36c0-.14.3-.25.36-.46a2,2,0,0,1-.76.38l.26-.38-.73.36.43-.45-.73.34.2-.38L31.2,25l.22-.42a1.29,1.29,0,0,1-.64.37c.14-.18.26-.32.22-.42a1.31,1.31,0,0,1-.58.34l.09-.34a1.66,1.66,0,0,1-.65.42l.25-.4c0-.06,0-.14-.06-.08l-.54.43c.11-.22.17-.35.09-.42l-.38.2,0-.21-.44.48c-.06,0,0-.14.08-.36l-.46.3a1.83,1.83,0,0,1,1.18-1,8.17,8.17,0,0,1,1.54-.28,5.64,5.64,0,0,0,1.71-.42,3.15,3.15,0,0,0,.88-.48c.16-.12.1-.16-.08-.14l-.73,0v-.33l-.28.38-.06-.38-.24.66-.1-.75-.18.82-.1-.81-.3.92-.08-1-.18,1-.18-1-.12,1-.2-.94-.08.91-.25-.92,0,.95-.3-.92L30.2,23l-.19-.8-.08.72-.17-.66-.1.72c-.3-.56-.42-1-.22-1.28A1.15,1.15,0,0,1,30.54,21.37ZM28,25.68l-.08.21c.1,0,.18-.11.28-.17l-.08.36c.12,0,.4-.28.6-.42l-.14.36c.18,0,.3-.26.44-.4l-.08.38c.22,0,.36-.3.54-.47l0,.38c.16,0,.28-.25.44-.38l.08.25c.14,0,.22-.18.34-.25l.06.24.3-.3.06.25.34-.12.1.14.28-.14,0,.31.38-.16,0,.2.28-.16V26l.32-.08,0,.25.47-.2-.16.34.42-.25-.06.28.46-.2-.25.42c.3,0,.4-.2.6-.3l-.14.38a1.55,1.55,0,0,0,.82-.62c.06.1,0,.25-.2.6a1.17,1.17,0,0,0,.6-.6l-.1.42a.87.87,0,0,0,.58-.46l0,.39a1.15,1.15,0,0,0,.36-.48c.2.08.42,0,.5-.36s0-.4-.22-.3a4,4,0,0,1-3.68.25,13.77,13.77,0,0,0-3.33-.37c-.5,0-.92.05-1.12.52Zm6.67,1.42c.08-.12.16-.18.18-.16a.54.54,0,0,1-.06.28c-.06.12-.16.16-.2.14a.35.35,0,0,1,.08-.26Zm.4-.08c.08-.14.18-.22.22-.18s0,.18-.08.32-.2.22-.25.18,0-.18.1-.32Zm.44-.26c.12-.17.25-.25.3-.21s0,.25-.12.4-.25.28-.3.22,0-.22.12-.41Zm-1.36.29c.18,0,.34.06.34.12s-.16.14-.34.14-.35,0-.35-.14.16-.12.36-.12Zm8-10.47c0-.14.52-.5,1.2-1a1.25,1.25,0,0,1,.84-.33,1.08,1.08,0,0,0,.36,0c.16.1.1.18-.08.22a.21.21,0,0,0-.26,0c-.18,0-.2.16-.32.2l-.06-.12c-.25.16-.4.6-.58.82l0-.22c-.12,0-.2.28-.38.42,0-.16,0-.25-.08-.25-.3.2-.52.3-.6.22Z"></path> <path class="cls-7" d="M73.41,10h5.25v7.62h.78v3h-1v-2H72.71v2h-1v-3h.65q1-1.58,1-6.36V10Zm4.12,1h-3v.44c0,.73-.07,1.74-.2,3a9.77,9.77,0,0,1-.77,3.15h4Z"></path> <path class="cls-7" d="M85,16.61l1.09.14a2.66,2.66,0,0,1-1,1.49,3.27,3.27,0,0,1-4-.31,3.32,3.32,0,0,1-.81-2.38,3.42,3.42,0,0,1,.82-2.45,2.79,2.79,0,0,1,2.11-.88,2.71,2.71,0,0,1,2,.86,3.4,3.4,0,0,1,.8,2.41v.28H81.41A2.42,2.42,0,0,0,82,17.35a1.74,1.74,0,0,0,1.31.55,1.63,1.63,0,0,0,1-.31,2,2,0,0,0,.66-1ZM81.48,14.9H85a2.06,2.06,0,0,0-.41-1.19,1.61,1.61,0,0,0-1.31-.61,1.67,1.67,0,0,0-1.23.49,1.94,1.94,0,0,0-.55,1.31Z"></path> <polygon class="cls-7" points="87.39 12.37 92.34 12.37 92.34 18.63 91.27 18.63 91.27 13.24 88.46 13.24 88.46 18.63 87.39 18.63 87.39 12.37"></polygon> <path class="cls-7" d="M98,17.86a4.2,4.2,0,0,1-1.14.71,3.55,3.55,0,0,1-1.17.2,2.3,2.3,0,0,1-1.59-.5,1.79,1.79,0,0,1-.34-2.13,1.62,1.62,0,0,1,.55-.61,2.34,2.34,0,0,1,.75-.35A7.69,7.69,0,0,1,96,15a9.53,9.53,0,0,0,1.9-.37v-.27a1.23,1.23,0,0,0-.3-.92,1.82,1.82,0,0,0-1.21-.36,2,2,0,0,0-1.11.25,1.58,1.58,0,0,0-.5,1l-1-.14a2.66,2.66,0,0,1,.46-1.08,2,2,0,0,1,.94-.63,4.31,4.31,0,0,1,1.42-.23,3.86,3.86,0,0,1,1.31.2,1.77,1.77,0,0,1,.74.47,1.89,1.89,0,0,1,.33.72,8,8,0,0,1,.05,1V16a13,13,0,0,0,.07,1.87,2.23,2.23,0,0,0,.26.75h-1.1a2.27,2.27,0,0,1-.22-.77Zm-.09-2.37a7.86,7.86,0,0,1-1.74.4,3.72,3.72,0,0,0-.92.21.93.93,0,0,0-.57.85.93.93,0,0,0,.32.71,1.43,1.43,0,0,0,.94.28,2.15,2.15,0,0,0,1.11-.27,1.65,1.65,0,0,0,.7-.73,2.57,2.57,0,0,0,.17-1.06Z"></path> <path class="cls-7" d="M100.65,21V12.37h.95v.81a2.31,2.31,0,0,1,.78-.71,2.11,2.11,0,0,1,1-.26,2.51,2.51,0,0,1,1.41.42,2.48,2.48,0,0,1,.94,1.18,4.41,4.41,0,0,1,.32,1.65,4.32,4.32,0,0,1-.35,1.73,2.61,2.61,0,0,1-2.39,1.58,2,2,0,0,1-.95-.22,2.11,2.11,0,0,1-.69-.57V21Zm.95-5.5a2.7,2.7,0,0,0,.49,1.79,1.5,1.5,0,0,0,1.19.58,1.53,1.53,0,0,0,1.21-.6,2.86,2.86,0,0,0,.5-1.85,2.63,2.63,0,0,0-.5-1.8,1.47,1.47,0,0,0-1.16-.6,1.52,1.52,0,0,0-1.2.64A2.82,2.82,0,0,0,101.6,15.53Z"></path> <polygon class="cls-7" points="106.52 12.37 111.62 12.37 111.62 13.24 109.6 13.24 109.6 18.63 108.54 18.63 108.54 13.24 106.52 13.24 106.52 12.37"></polygon> <path class="cls-7" d="M116.58,17.86a3.92,3.92,0,0,1-1.13.71,3.6,3.6,0,0,1-1.17.2,2.28,2.28,0,0,1-1.59-.5,1.67,1.67,0,0,1-.55-1.29,1.61,1.61,0,0,1,.2-.84,1.71,1.71,0,0,1,.55-.61,2.39,2.39,0,0,1,.76-.35,7.38,7.38,0,0,1,.94-.16,9.3,9.3,0,0,0,1.89-.37v-.27a1.15,1.15,0,0,0-.3-.92,1.78,1.78,0,0,0-1.2-.36,1.94,1.94,0,0,0-1.11.25,1.66,1.66,0,0,0-.53.93l-1-.14a2.46,2.46,0,0,1,.47-1.07,2,2,0,0,1,.94-.64,4.22,4.22,0,0,1,1.42-.22,3.83,3.83,0,0,1,1.3.19,1.83,1.83,0,0,1,.74.48,1.63,1.63,0,0,1,.33.72,6.37,6.37,0,0,1,0,1V16a16.88,16.88,0,0,0,.07,1.88,2.5,2.5,0,0,0,.27.75h-1.11a2.05,2.05,0,0,1-.21-.77Zm-.09-2.37a7.9,7.9,0,0,1-1.73.4,3.79,3.79,0,0,0-.93.21.87.87,0,0,0-.41.35.92.92,0,0,0,.17,1.21,1.38,1.38,0,0,0,.94.28,2.18,2.18,0,0,0,1.09-.27,1.6,1.6,0,0,0,.7-.73,2.41,2.41,0,0,0,.17-1.06Z"></path> <polygon class="cls-7" points="119.24 12.37 120.89 12.37 122.54 17.38 124.37 12.37 125.89 12.37 125.89 18.63 124.84 18.63 124.84 13.59 122.98 18.63 122.03 18.63 120.28 13.35 120.28 18.63 119.24 18.63 119.24 12.37"></polygon> <path class="cls-7" d="M131.8,16.61l1.1.14a2.66,2.66,0,0,1-1,1.49,3.27,3.27,0,0,1-4-.31,3.31,3.31,0,0,1-.8-2.38A3.47,3.47,0,0,1,128,13.1a2.79,2.79,0,0,1,2.11-.88,2.69,2.69,0,0,1,2,.86,3.4,3.4,0,0,1,.8,2.41v.28h-4.68a2.41,2.41,0,0,0,.58,1.58,1.76,1.76,0,0,0,1.31.55,1.65,1.65,0,0,0,1-.31,1.93,1.93,0,0,0,.65-1Zm-3.48-1.71h3.5a2.12,2.12,0,0,0-.4-1.19,1.63,1.63,0,0,0-1.31-.61,1.66,1.66,0,0,0-1.23.49A2,2,0,0,0,128.32,14.9Z"></path> <polygon class="cls-7" points="134.24 12.37 135.3 12.37 135.3 14.97 138.25 14.97 138.25 12.37 139.31 12.37 139.31 18.63 138.25 18.63 138.25 15.85 135.3 15.85 135.3 18.63 134.24 18.63 134.24 12.37"></polygon> <polygon class="cls-7" points="140.33 12.37 145.42 12.37 145.42 13.24 143.41 13.24 143.41 18.63 142.35 18.63 142.35 13.24 140.33 13.24 140.33 12.37"></polygon> <path class="cls-7" d="M72.48,25.86h1.07v2.71a1.06,1.06,0,0,0,.71-.19,4.41,4.41,0,0,0,.59-1.14,4.81,4.81,0,0,1,.51-1,.9.9,0,0,1,.45-.31,2.76,2.76,0,0,1,.81-.09h.21v.88h-.29a.85.85,0,0,0-.54.12,3.13,3.13,0,0,0-.38.78,2.93,2.93,0,0,1-.44.84,1.58,1.58,0,0,1-.62.43,2.59,2.59,0,0,1,1.35,1.28l1.16,1.94H75.9l-1.13-1.94a2.58,2.58,0,0,0-.6-.75,1,1,0,0,0-.62-.19v2.87H72.48Z"></path> <path class="cls-7" d="M77.86,34.54l-.12-1a2.1,2.1,0,0,0,.61.09,1.13,1.13,0,0,0,.57-.12.92.92,0,0,0,.35-.33,5,5,0,0,0,.32-.79l.09-.25-2.37-6.27h1.14l1.31,3.62c.16.46.32,1,.45,1.47a14.72,14.72,0,0,1,.44-1.43L82,25.87h1.06l-2.39,6.37a10.36,10.36,0,0,1-.59,1.42,2.16,2.16,0,0,1-.65.76,1.5,1.5,0,0,1-.87.25A2.28,2.28,0,0,1,77.86,34.54Z"></path> <path class="cls-7" d="M84.21,25.86h4.93v6.26H88.08V26.74H85.27v3.12a8.69,8.69,0,0,1-.08,1.44,1,1,0,0,1-.39.61,1.47,1.47,0,0,1-.92.25,8.08,8.08,0,0,1-.85,0v-.88h.47a1.24,1.24,0,0,0,.47-.06.38.38,0,0,0,.19-.22,5.14,5.14,0,0,0,0-1Z"></path> <path class="cls-7" d="M90.72,25.86h1v2.45h1.35a3.43,3.43,0,0,1,2,.5,1.63,1.63,0,0,1,.72,1.41,1.77,1.77,0,0,1-.6,1.34,2.68,2.68,0,0,1-1.89.56H90.72Zm1,5.39h1.12A3,3,0,0,0,94.33,31a.83.83,0,0,0,.43-.77,1,1,0,0,0-.32-.73A2.12,2.12,0,0,0,93,29.18H91.77Z"></path> <polygon class="cls-7" points="95.51 25.86 100.6 25.86 100.6 26.74 98.58 26.74 98.58 32.12 97.52 32.12 97.52 26.74 95.51 26.74 95.51 25.86"></polygon> <path class="cls-7" d="M101.7,34.54l-.12-1a2.1,2.1,0,0,0,.61.09,1.15,1.15,0,0,0,.57-.12.9.9,0,0,0,.34-.33,5,5,0,0,0,.33-.79l.09-.25-2.37-6.27h1.14l1.3,3.63c.17.46.32.94.46,1.45a14.65,14.65,0,0,1,.43-1.43l1.34-3.65h1.08l-2.39,6.37a10.36,10.36,0,0,1-.59,1.42,2.16,2.16,0,0,1-.65.76,1.5,1.5,0,0,1-.87.25A2.06,2.06,0,0,1,101.7,34.54Z"></path> <path class="cls-7" d="M107.65,34.52V25.86h1v.82a2.31,2.31,0,0,1,.77-.72,2.1,2.1,0,0,1,1-.25,2.46,2.46,0,0,1,1.42.41,2.58,2.58,0,0,1,.93,1.16,4.28,4.28,0,0,1,.31,1.65,4.09,4.09,0,0,1-.35,1.73,2.58,2.58,0,0,1-2.38,1.59,2,2,0,0,1-1-.22,2.15,2.15,0,0,1-.7-.57v3Zm1-5.49a2.79,2.79,0,0,0,.49,1.79,1.56,1.56,0,0,0,1.19.58,1.59,1.59,0,0,0,1.21-.6,2.85,2.85,0,0,0,.5-1.86,2.75,2.75,0,0,0-.49-1.79,1.46,1.46,0,0,0-1.17-.6,1.53,1.53,0,0,0-1.21.64A2.86,2.86,0,0,0,108.61,29Z"></path> <path class="cls-7" d="M120.33,25.86h1.06v6.26h-1.06Zm-5.94,0h1.08v2.45h1.34a3.48,3.48,0,0,1,2,.5,1.65,1.65,0,0,1,.71,1.41,1.73,1.73,0,0,1-.6,1.34,2.68,2.68,0,0,1-1.89.56h-2.66Zm1.08,5.39h1.11A3,3,0,0,0,118,31a.82.82,0,0,0,.43-.77,1,1,0,0,0-.32-.73,2.12,2.12,0,0,0-1.41-.32h-1.26Z"></path> <polygon class="cls-7" points="72.49 39.36 76.1 39.36 76.1 40.23 73.56 40.23 73.56 45.62 72.49 45.62 72.49 39.36"></polygon> <path class="cls-7" d="M76.23,42.49a3.25,3.25,0,0,1,1-2.58,2.91,2.91,0,0,1,2-.7,2.79,2.79,0,0,1,2.11.85,3.19,3.19,0,0,1,.82,2.34,4.17,4.17,0,0,1-.36,1.91,2.57,2.57,0,0,1-1.06,1.08,3.16,3.16,0,0,1-1.51.38,2.8,2.8,0,0,1-2.12-.84,3.36,3.36,0,0,1-.81-2.43Zm1.09,0a2.67,2.67,0,0,0,.53,1.8,1.75,1.75,0,0,0,2.47.17c.06-.06.12-.11.17-.17A2.75,2.75,0,0,0,81,42.45a2.56,2.56,0,0,0-.53-1.76A1.74,1.74,0,0,0,78,40.52a1.37,1.37,0,0,0-.17.17A2.72,2.72,0,0,0,77.32,42.49Z"></path> <path class="cls-7" d="M83.35,48V39.36h1v.81a2.45,2.45,0,0,1,.78-.72,2.09,2.09,0,0,1,1-.24,2.49,2.49,0,0,1,1.42.42,2.44,2.44,0,0,1,.92,1.16,4.21,4.21,0,0,1,.31,1.65,4.11,4.11,0,0,1-.34,1.73,2.62,2.62,0,0,1-2.39,1.59,2.1,2.1,0,0,1-1-.22,2.24,2.24,0,0,1-.69-.57V48Zm1-5.5a2.71,2.71,0,0,0,.49,1.79,1.51,1.51,0,0,0,1.18.58,1.56,1.56,0,0,0,1.22-.6,2.89,2.89,0,0,0,.5-1.86,2.71,2.71,0,0,0-.5-1.79A1.53,1.53,0,0,0,86,40a1.54,1.54,0,0,0-1.2.64,2.88,2.88,0,0,0-.51,1.84Z"></path> <path class="cls-7" d="M89.67,42.49a3.22,3.22,0,0,1,1-2.58,2.91,2.91,0,0,1,2-.7,2.79,2.79,0,0,1,2.11.85,3.19,3.19,0,0,1,.82,2.34,4.05,4.05,0,0,1-.37,1.91,2.54,2.54,0,0,1-1,1.08,3.16,3.16,0,0,1-1.51.38,2.83,2.83,0,0,1-2.13-.84,3.36,3.36,0,0,1-.81-2.43Zm1.09,0a2.67,2.67,0,0,0,.53,1.8,1.74,1.74,0,0,0,2.46.17c.06-.06.12-.11.17-.17a2.75,2.75,0,0,0,.53-1.84,2.61,2.61,0,0,0-.53-1.76,1.75,1.75,0,0,0-2.47-.17,1.29,1.29,0,0,0-.16.17,2.67,2.67,0,0,0-.53,1.8Z"></path> <path class="cls-7" d="M97.36,39.36h4.36v5.39h.68V47.4h-.87V45.62H96.59V47.4h-.87V44.75h.56q1.13-1.52,1.08-5.39Zm.88.87a10.38,10.38,0,0,1-.95,4.52h3.37V40.23Z"></path> <path class="cls-7" d="M107.65,44.85a4.4,4.4,0,0,1-1.13.71,3.6,3.6,0,0,1-1.17.2,2.28,2.28,0,0,1-1.59-.5,1.77,1.77,0,0,1-.08-2.5,1.61,1.61,0,0,1,.28-.24,2.39,2.39,0,0,1,.76-.35,6,6,0,0,1,.94-.16,9.53,9.53,0,0,0,1.9-.37v-.27a1.23,1.23,0,0,0-.3-.92,1.82,1.82,0,0,0-1.21-.36,2,2,0,0,0-1.11.25,1.6,1.6,0,0,0-.51.94l-1-.14a2.57,2.57,0,0,1,.46-1.07,2.09,2.09,0,0,1,.94-.64,4.3,4.3,0,0,1,1.42-.22,3.76,3.76,0,0,1,1.3.19,1.67,1.67,0,0,1,.74.48,1.63,1.63,0,0,1,.33.72,5.32,5.32,0,0,1,.06,1V43a14.76,14.76,0,0,0,.06,1.88,2.5,2.5,0,0,0,.27.75h-1.1a2.27,2.27,0,0,1-.22-.77Zm-.08-2.38a7.59,7.59,0,0,1-1.74.41,3.62,3.62,0,0,0-.92.21.85.85,0,0,0-.42.35.8.8,0,0,0-.15.5.9.9,0,0,0,.32.71,1.43,1.43,0,0,0,.94.28,2.08,2.08,0,0,0,1.09-.27,1.6,1.6,0,0,0,.7-.73,2.75,2.75,0,0,0,.18-1.06Z"></path> <path class="cls-7" d="M113.74,45.62V37h1.73l2,6.12.41,1.29c.1-.32.25-.78.46-1.39l2.07-6H122v8.65h-1.11V38.38l-2.52,7.24h-1l-2.49-7.36v7.36Z"></path> <path class="cls-7" d="M123.44,42.49a3.22,3.22,0,0,1,1-2.58,2.91,2.91,0,0,1,2-.7,2.79,2.79,0,0,1,2.11.85,3.24,3.24,0,0,1,.82,2.34,4.17,4.17,0,0,1-.37,1.9,2.54,2.54,0,0,1-1,1.08,3.16,3.16,0,0,1-1.51.38,2.83,2.83,0,0,1-2.13-.84,3.36,3.36,0,0,1-.81-2.43Zm1.09,0a2.67,2.67,0,0,0,.53,1.8,1.74,1.74,0,0,0,2.47.16,1.21,1.21,0,0,0,.16-.16,2.75,2.75,0,0,0,.53-1.84,2.61,2.61,0,0,0-.53-1.76,1.75,1.75,0,0,0-2.47-.17,1.29,1.29,0,0,0-.16.17,2.62,2.62,0,0,0-.52,1.8Z"></path> <path class="cls-7" d="M134.64,43.32l1,.14a2.65,2.65,0,0,1-.87,1.69,2.55,2.55,0,0,1-1.73.61,2.7,2.7,0,0,1-2.07-.84,3.41,3.41,0,0,1-.78-2.41,4.41,4.41,0,0,1,.33-1.76,2.4,2.4,0,0,1,1-1.15,3.11,3.11,0,0,1,1.49-.38,2.63,2.63,0,0,1,1.67.52,2.31,2.31,0,0,1,.83,1.47l-1,.16a1.72,1.72,0,0,0-.52-.95,1.32,1.32,0,0,0-.91-.32,1.64,1.64,0,0,0-1.3.57,2.77,2.77,0,0,0-.5,1.82,2.81,2.81,0,0,0,.48,1.82,1.61,1.61,0,0,0,1.26.57,1.54,1.54,0,0,0,1.05-.38A1.92,1.92,0,0,0,134.64,43.32Z"></path> <path class="cls-7" d="M136.59,39.36h1.06v2.7a1,1,0,0,0,.71-.19,4.24,4.24,0,0,0,.6-1.13,4.76,4.76,0,0,1,.5-1,1,1,0,0,1,.45-.32,2.52,2.52,0,0,1,.82-.08h.2v.87h-.3a.78.78,0,0,0-.53.13,3.25,3.25,0,0,0-.38.77,3.12,3.12,0,0,1-.44.85,2,2,0,0,1-.62.43A2.59,2.59,0,0,1,140,43.68l1.17,1.94H140l-1.14-1.94a2.63,2.63,0,0,0-.6-.77,1,1,0,0,0-.62-.18v2.89h-1.06Z"></path> <path class="cls-7" d="M141.88,39.36h2.45a4.31,4.31,0,0,1,1.34.15,1.55,1.55,0,0,1,.76.55,1.49,1.49,0,0,1,.31,1,1.45,1.45,0,0,1-.74,1.34,1.39,1.39,0,0,1,.73.55,1.57,1.57,0,0,1,.3,1,1.7,1.7,0,0,1-.64,1.32,2.74,2.74,0,0,1-1.68.43h-2.83ZM143,42h1.13a4.17,4.17,0,0,0,.93-.07,1,1,0,0,0,.45-.28.74.74,0,0,0,.2-.51.71.71,0,0,0-.35-.69,2.59,2.59,0,0,0-1.2-.19H143V42Zm0,2.76h1.39a2.57,2.57,0,0,0,1.24-.21.8.8,0,0,0,.35-.72.86.86,0,0,0-.19-.56.85.85,0,0,0-.51-.33,5.6,5.6,0,0,0-1-.06H143Z"></path> <path class="cls-7" d="M154.26,39.36h1.06v6.26h-1.06Zm-5.94,0h1.06V41.8h1.35a3.37,3.37,0,0,1,2,.51,1.62,1.62,0,0,1,.71,1.4,1.76,1.76,0,0,1-.59,1.34,2.68,2.68,0,0,1-1.9.56h-2.64Zm1.06,5.39h1.11a2.94,2.94,0,0,0,1.44-.26.81.81,0,0,0,.43-.76,1,1,0,0,0-.31-.73,2.1,2.1,0,0,0-1.41-.32h-1.26Z"></path> </svg> 