<?xml version="1.0" encoding="UTF-8"?> <svg xmlns="http://www.w3.org/2000/svg" id="Layer_1" data-name="Layer 1" viewBox="0 0 537.13 198.9"> <defs> <style>.cls-1,.cls-2{fill:#fff;}.cls-1{fill-rule:evenodd;}</style> </defs> <path class="cls-1" d="M60.42,33.5c.56-.47,1.12-.55,1.83.17,0-1,.4-1,1.27.31-.32-1.26,0-1.58,1.35.32,0-1,.08-1.19.95.56.24.31.48.31.56.16-.48-1.83-.24-1.75.79.15.32.4.48.4.48.16-.08-1.26.47-1,1.67.72.31.4.47.55.55.16-.24-1,.24-1,1.27.32.8-.08,1.91.56,3.34,1.82.16.24.31.32.47.24-.79-1.43.16-.88,1.43,0,.8-.4.88-.64.4-.79a25.13,25.13,0,0,1-6.51-3.18c-1.83-1.43-2.62-1-4.76-2.39a4.69,4.69,0,0,0-5,.8C60.1,33.27,60.1,33.43,60.42,33.5Z"></path> <path class="cls-1" d="M68.29,44.7a.63.63,0,0,0-.16.33l-.16.15c-.08.24-.16.55-.24.87a2.34,2.34,0,0,0,1-1.9C68.6,44.31,68.44,44.55,68.29,44.7Z"></path> <path class="cls-1" d="M69.55,33.19c.24-.4.48-.4,1,.63.15.08.23,0,.4-.07.47-.25,1-.08,1.66,1q.48.12.24-1a3,3,0,0,1,1.67.72c.31.16.24,0,.16-.24a13,13,0,0,0-5.16-1.74C69.08,32.56,69.08,32.79,69.55,33.19Z"></path> <path class="cls-1" d="M56.54,36.45a2.23,2.23,0,0,0,1,0c.55-.08.79,0,1,.47.39.79.87,1.11,1.27.88.23-.24-1.51-1.51-.64-1.51h.48c1.35,1.27,2.62,2,2.54,1.74l-.56-1.43c-.15-.47.56-.23.88.09l1.82,1.58c.24.32,0-.24-.31-1.26-.16-.32.31-.32.63,0,1.11,1.11,2.46,3,2.46,2.3v-.72c0-.32.4-.32.64,0,.63.8,1.51,1.51,1.42,1.19l-.15-.64c-.08-.39.24-.39.71,0l1.91,1.58c.39.32.71.16.55-.07l-.31-.48c-.24-.4-.08-.48.39-.16L74,41.21c.32.24.32-.08-.16-.79h1c.16.55.56.71,1.51,1.11.24.16.32-.16.8-.32l2.3-.72c.71-.23.63-.71,0-.55-3.33.87-6.83-.79-10.56-2.85-4.92-2.63-8.89-2.63-12.23-1.52C55.66,35.89,55.66,36.29,56.54,36.45Z"></path> <path class="cls-1" d="M77.81,26.68a2.87,2.87,0,0,0,.56-2.54c-.08-.56-.72-.64-.64,0a2.41,2.41,0,0,1-.55,2.07C76.86,26.68,77.42,26.92,77.81,26.68Z"></path> <path class="cls-1" d="M83.13,14.37c1-.95.16-2.14-.79-1.27a10.5,10.5,0,0,0-4,.71,9.26,9.26,0,0,0-3.1,1.83c-.63.64-.4.88.4.48,2.62-1.27,5.24-2.62,6.59-1.75a5.82,5.82,0,0,0-2.7.8,8.45,8.45,0,0,0-1.11.79c-1.19.8-1,.95.4.56A9,9,0,0,0,82,15.09,5,5,0,0,0,83.13,14.37Z"></path> <path class="cls-1" d="M77.26,28.66c.47,2.31,1.11,4.84,3.25,6.67.8.72,1.75.09.88-.63a12.09,12.09,0,0,1-3.66-6.2C77.58,27.71,77.1,28,77.26,28.66Z"></path> <path class="cls-1" d="M67.57,48.36c.87-.32,1-.64,1-1.83C67.57,47,67.33,47.56,67.57,48.36Z"></path> <path class="cls-1" d="M76.7,16c-.24.08-.4.24-.4.4a.46.46,0,0,0,.56.16.43.43,0,0,0,.4-.4A.47.47,0,0,0,76.7,16Z"></path> <path class="cls-1" d="M41.84,21c-2.54-3.33-4.76-6.11-7.14-9-.24-.32-.72-.24-.32.32,2,2.86,4,5.88,6.59,9.61C41.61,21.84,41.84,21.52,41.84,21Z"></path> <path class="cls-1" d="M65,42.56c-.16-.16-.4-.32-.56-.48A14.54,14.54,0,0,0,65,40.66a10.22,10.22,0,0,0-2.3,4.2,13.43,13.43,0,0,0,1.74-2.62,2.43,2.43,0,0,0,.56.4A2.47,2.47,0,0,0,64.47,44a3.1,3.1,0,0,0,.8-1l.08.07.08-.23h-.08a2.21,2.21,0,0,0,.08-.72A2.12,2.12,0,0,1,65,42.56Z"></path> <path class="cls-1" d="M42.72,23.27c.39-1,1.19-1.27,2.62-1,.71-.08.79-.23.16-.71l-1.75-.32A2,2,0,0,0,42,22.94h0C41.93,24.14,42.16,24.06,42.72,23.27Z"></path> <path class="cls-1" d="M45.89,27.08a1.41,1.41,0,0,0,1-.72c.16-.63.08-.95-.48-1.11a7.25,7.25,0,0,1-2.62,1.19,7,7,0,0,0,1.9-1.51.93.93,0,0,1,1-.15.92.92,0,0,0-.72-1,4.93,4.93,0,0,0-3.26,1.91,3.23,3.23,0,0,1,3-2.15,1,1,0,0,0-.39-1,3.43,3.43,0,0,0-2.46.72l-1.2,1.42c-.55.72-.39,1.52.56,2.47l1.27,1.58c1.11.8,1.67.64,1.51-.55C44.94,27.39,45.18,27.08,45.89,27.08Z"></path> <path class="cls-1" d="M63.52,45.42a1.51,1.51,0,0,0,.56-1.11A1.85,1.85,0,0,0,63.52,45.42Z"></path> <path class="cls-1" d="M63.36,40.49l-.39.4a5.81,5.81,0,0,1-.56-.4A4.07,4.07,0,0,1,63,41a5.51,5.51,0,0,0-.24.64A1.64,1.64,0,0,0,63.36,40.49Z"></path> <path class="cls-1" d="M47.56,27.24a.52.52,0,0,0,.4-.48.44.44,0,0,0-.4-.47c-.24,0-.4.15-.4.47A.45.45,0,0,0,47.56,27.24Z"></path> <path class="cls-1" d="M80,11.44c.8-.56,2.15.08,2.23-.72a3.24,3.24,0,0,1,2.86,0c1.27.48,2.06-.16.08-.87a12.83,12.83,0,0,0-3-.08A4.35,4.35,0,0,0,79.72,11C79.4,11.52,79.48,11.67,80,11.44Z"></path> <polygon class="cls-1" points="82.18 17.86 82.18 17.86 82.18 17.86 82.18 17.86"></polygon> <path class="cls-1" d="M82.18,17.86c0,.8,1.83,1,2.06.09.4-1-.31-1.67-.07-2.62A2.48,2.48,0,0,0,82.18,17.86Z"></path> <path class="cls-1" d="M84,11.44a5.72,5.72,0,0,0-1.67.08V12a2.62,2.62,0,0,1,.79.08c.71.24,1.19.95,1.43,2.22.48-.15.8-.55,1-1.27C85.52,12.31,85,11.75,84,11.44Z"></path> <path class="cls-1" d="M81.46,17.15c-.15-.16-.31-.08-.47.16s-.16.47,0,.55.32,0,.47-.23S81.62,17.23,81.46,17.15Z"></path> <path class="cls-1" d="M85.52,19.85h0a2.05,2.05,0,0,1,.15,1.35c-.15,1.2.08,1,.16,1.35.32.47.8.32,1.19.63A2,2,0,0,0,87,20.65c.31-.32.23-.72-.4-1.28C85.59,19,85.28,19.05,85.52,19.85Z"></path> <path class="cls-1" d="M85.36,14.29c-.16.24-.16.48-.08.56s.31.08.55-.08.24-.48.08-.55S85.59,14.14,85.36,14.29Z"></path> <path class="cls-1" d="M83.61,22.71c.79-.08.87,0,1.11-.64a9.39,9.39,0,0,0,.08-2.14c0-.71-.4-.88-1.11-.88a1.86,1.86,0,0,0-2,.88c-.31,1,.32,1.59-.24,2.94C82.42,22.31,82.74,22.71,83.61,22.71Z"></path> <path class="cls-1" d="M85.44,18.5c.39.48,1,0,1-.55a2,2,0,0,0-.8-1.51c-.39-.48-.87-.24-.47.39S85,18,85.44,18.5Z"></path> <path class="cls-1" d="M81.23,12.15l.63-.16v-.47a2.44,2.44,0,0,0-.71.31h0C80.59,12,80.91,12.23,81.23,12.15Z"></path> <path class="cls-1" d="M75.11,14.45l-1.82.88a12,12,0,0,1-3.66,1.11c-.79.08-1.11.55-.23.79a3.86,3.86,0,0,0,3.49-.63,21.17,21.17,0,0,0,2.54-1.75C76.15,14.14,76,14.05,75.11,14.45Z"></path> <path class="cls-1" d="M80.11,22.4c.4-.17.56-.4.48-.56s-.48-.16-.79,0-.56.31-.48.47S79.8,22.47,80.11,22.4Z"></path> <path class="cls-1" d="M78.29,12.86a.34.34,0,0,0,.32.32.36.36,0,0,0,.39-.32.36.36,0,0,0-.39-.31A.33.33,0,0,0,78.29,12.86Z"></path> <path class="cls-1" d="M86.63,15.17c-.32.16-.48.39-.32.55s.32.24.56.08a.42.42,0,0,0,.31-.55C87.11,15.09,86.87,15.09,86.63,15.17Z"></path> <path class="cls-1" d="M50.34,28.19a2.71,2.71,0,0,0-4.05.39c-1.11,1.36-1.35,2.87-.31,4.06.47.63,1,.31.71-.32-.48-2.06.56-3.42,3.25-3.42C50.9,28.9,51.13,28.82,50.34,28.19Z"></path> <path class="cls-1" d="M87.26,12.79,86.63,14c-.16.55,0,.71.39.55a1.89,1.89,0,0,0,1-1.74c0-1.2.07-1.75.47-2.15-.71-1.19-1.43-1-1.19.24A2.83,2.83,0,0,1,87.26,12.79Z"></path> <path class="cls-1" d="M85.52,11.28c.15.87.87.71.63,2.22a1.57,1.57,0,0,0,.56-1.59c-.08-.55-.56-.63-1.19-.63Z"></path> <path class="cls-1" d="M76.07,13.42c1.58-1.19,3-2.46,4.44-3.73l-1.74.39c-.64.24-1-.08-1.35.16-2.7,1.35-2.86,1.83-1.44,1.12a1,1,0,0,1,.88,0A10.93,10.93,0,0,1,71,13.58l-.07-.64a5.48,5.48,0,0,1-3.26-.79c-1.11-.24-.88,0-.64.4a16.6,16.6,0,0,0,3,1.82C71.86,15,73.84,14.69,76.07,13.42Z"></path> <path class="cls-1" d="M73.84,86.15c.24.24,1.19-.16,2.31-.87s1.82-1.59,1.66-1.83-1.19.24-2.22,1S73.76,85.91,73.84,86.15Z"></path> <path class="cls-1" d="M74,83.53c-.32,0-.47.24-.47.56a.45.45,0,0,0,.47.47.51.51,0,0,0,.48-.47A.53.53,0,0,0,74,83.53Z"></path> <path class="cls-1" d="M75.67,83.53a.38.38,0,0,0-.4-.4.37.37,0,0,0-.32.4c0,.24.16.48.32.48A.45.45,0,0,0,75.67,83.53Z"></path> <path class="cls-1" d="M82.82,93c.23-.64-.4-.8-.72-.17-.55,4-.55,6.36-.95,10.49l.31.71A60.23,60.23,0,0,1,82.82,93Z"></path> <path class="cls-1" d="M80.91,92.66a43.73,43.73,0,0,0-.8,12.23h.24a75.61,75.61,0,0,1,1.11-12.08C81.55,92.42,81.15,92.34,80.91,92.66Z"></path> <path class="cls-1" d="M70.11,92l-.24.08a48.43,48.43,0,0,0-1.75,15.47c0,1,.24,1.44,1,1.36a85.3,85.3,0,0,0,11.2-1.75c.63-.23.55-.48-.08-.71h-.56A55.24,55.24,0,0,1,80,93.38c.48-1,.08-1.43-.31-1a49.81,49.81,0,0,0-.64,14.14l-.47-.08a57,57,0,0,1,0-12.79c.56-.87.56-1.66-.08-1.43-.72,2.79-1,7.47-.64,14.3l-.31.08A97.89,97.89,0,0,1,77.5,92l-.32-.25a57.56,57.56,0,0,0-.24,14.7h-.32a53.47,53.47,0,0,1-.16-14.14l-.39.47c-.72,3.35-.4,7.87-.24,13.59l-.32.16a56.28,56.28,0,0,1,0-14.22L75.19,92c-.87,3.48-1.19,8.17-.55,14.77l-.32.07c-.79-3.89-.71-8.65.16-14.69L74,92.11c-1,4-1,8.33-.39,14.6l-.32.33a41.28,41.28,0,0,1,.32-15.26l-.56-.07a46.07,46.07,0,0,0-.64,15.4l-.32.24c-1-3.81-1-8.5.16-14.29v-.79c-1.43,2.53-2.06,7.3-1.34,15.56a32.75,32.75,0,0,1,.71-16.28L71.38,91c-1.43,1.34-2.38,9.36-2,16.91C68.6,103.07,69.08,97.67,70.11,92Z"></path> <path class="cls-1" d="M84.48,96.16c-.63.47-.87,1,.4,1-.87.79-.95,1.34-.24,1.59-1.59,2-1.59,2.53-.08,1.66-1.74,2.23-1.51,2.54-.32,2.15-1.5,1.82-1.27,2.06-.79,2.13-1,1.44-1,2.16-.08,2.07a2.47,2.47,0,0,0-1.51,2.23c-.31,1.27-3.73,2.69-.87,3.89.87.47,1.59,1.66,2.14,3.73.24,1.11.71,1.19,1.67.79a12.31,12.31,0,0,1,2.38-.39c1.51.15,1.59-1.51-.07-1.75.15-.64-.4-1-1.28-.56.72-1.18-.16-.87-.47-1,.47-.24.39-.79-.88-.08l-.16-.39a1.33,1.33,0,0,0,1-1.12l-2.15.72c.64-.56,1-1,.88-1.36l-1.51.33c1.59-1.12,2.22-1.91,2.14-2.31l-1.67.48c1.19-1,2-1.74,1.91-2.22l-1.43.56c0-.48.64-1,1.83-1.27,1-.48,1.42-1.12,1.27-2l-2.15,1c1.75-1.59,3.18-3,3.57-4-.16-.56-1.9.64-4.21,2.54v-.39A18.08,18.08,0,0,0,89,98.94l-4.21,3.25,3.81-4.52c-.24-.56-1.35.07-3.49,2.29l.16-.46,2-2.15A7.4,7.4,0,0,0,90.36,94c.39-1-1,.32-3,2.15-.47.47-1,.71-1.59,1.27l4.85-5.09.08-.63C90.2,91.23,87.11,94.88,84.48,96.16Z"></path> <path class="cls-1" d="M65.27,102.11a26.15,26.15,0,0,0-.08,8.65c.32,1.59,1,2.15,1.74,2.07l11.84-1.91c.87-.16,1.74-.87,1.34-1.67l-.47-.94-.4,1.35-.63-1.12-.48,1.27-.71-1.58-.56,1.9-.71-1.51-.4,1.59-.4-1.35-.48,1.66-.55-1.5-.48,1.83-.63-1.76-.48,1.28-.56-1-.39,1-.56-.8a2,2,0,0,0-1.67,0l-.23.4-.32-.4c-.87-.24-1.83-.4-2.7-.55l1.11-.56c0-.39-.4-.55-1.11-.47l1.19-.87-1.27-.24,1.19-.72c0-.32-.32-.64-1.27-1l1.27-.4v-.31l-1.27-.15,1.35-.64c.16-.32-.24-.56-1.11-.87l1.11-.32a1.29,1.29,0,0,0-.95-1l.95-.31-.95-.72,1.19-.47c0-.4-.16-.56-.87-.87l1.27-.56a1.65,1.65,0,0,0-1.2-.87l1.2-.4-1-.64L68.29,96l-.88-.32,1-.64c.24-.24-.15-.47-1-.55L68.6,94l.08-.48-1.11.16.56-.47-.72-.56,1.67-.39.15-.32-1.18-.32,1-.56a.87.87,0,0,0-1-.63h0C67,92.51,66,95.68,65.27,102.11Z"></path> <path class="cls-1" d="M79.4,81.94c-.63.48-1.11,1-1,1.19s.72-.23,1.35-.71,1.11-1.11,1-1.27S80,81.39,79.4,81.94Z"></path> <path class="cls-1" d="M79.72,114.25l1.59,1c.63.32,1.11-.24.39-.88l-1.26-1.27C79.88,112.59,78.84,113.7,79.72,114.25Z"></path> <path class="cls-1" d="M58.52,78.69a1.24,1.24,0,0,0-.32,1c.16.08.48-.16.79-.55s.4-1,.24-1.12S58.84,78.21,58.52,78.69Z"></path> <path class="cls-1" d="M60.1,78.37c-.39.55-.55,1.11-.39,1.27s.56-.16.95-.72.48-1.1.32-1.26S60.42,77.82,60.1,78.37Z"></path> <path class="cls-1" d="M56.46,78.53c-.8,0-1.43.24-1.43.48s.63.55,1.43.55,1.34-.24,1.34-.55S57.17,78.53,56.46,78.53Z"></path> <path class="cls-1" d="M91.39,120,90,118.46a1.92,1.92,0,0,0-1.51-.94l-2.86.23a.7.7,0,0,0-.23,1.2,34.12,34.12,0,0,0,5.47,2.14C91.47,121.25,92,120.69,91.39,120Z"></path> <path class="cls-1" d="M78.77,115.77l2.54,1.58c.55.4,1.27-.55.55-1.11l-2.38-1.75C78.84,113.94,77.89,115.21,78.77,115.77Z"></path> <path class="cls-1" d="M84.17,93.46c.07-.65-.16-.8-.72-.48L83,95.36l.16.08Z"></path> <path class="cls-1" d="M35.33,70l1.75-1.9-.16.87,1.51-.79c.32.24.08.79-.4,1.66l2.15-1.74c.31-.24.4.08.24.32l-1,1.58a6.55,6.55,0,0,0,2.62-1.66l-.39,1.35A5.74,5.74,0,0,0,44,68.29c.08.39-.32.95-.88,1.66a5.14,5.14,0,0,0,2.54-1.43l-.87,1.67,2.07-1.35-.8,1.51L48.91,69l-1.66,1.75,2.69-1.43L49,70.83a8.11,8.11,0,0,0,3-1.51c-.24.79-1.43,1.27-1.43,1.82l3.09-1.43c-1,.88-1.51,1.43-1.42,1.91.87-.48,1.59-1.43,2.62-1.35-.32.56-1.75,1.35-.95,1.75.31.16,2.22-2.47,3.33-2.47-.79,1.12-1.27,2-1,2.39L60,68.84l-1.27,3.34c1.19-.4,2.78-3.5,4.21-4.13l-.64,2.54c2.14-1.51,3.49-3.18,3.89-5.08,0-.41-.08-.56-.32-.48-4.76,2.31-9.36,3.81-13.57,3.1.07-.24.39-.4,1-.4l.39-.79,1.83.79-.39-1.43,2.14.64-.4-1.2c.95-.56,1.43.72,2.46.72L58.84,65l1.43.71a1.16,1.16,0,0,0,1.11-.48L60.5,64l1.59.48c3.34-2.63,3.65-3.42,3.26-3.74-1.75.87-3.5,2.14-5,2.86a45.57,45.57,0,0,1-5.24,1.5,39.47,39.47,0,0,1-5.33,1.2c-1,.16-1.51.16-1.51-.24l1.44-.4.87-1.43.55.56c.32.16.8-.31,1.35-1.11l.32.8A9.87,9.87,0,0,1,54.62,63c.41.48.64.32.88-.39.32-.08.48.16.79.08.17-.56.48-.72,1-.08a3.52,3.52,0,0,0,1.11-1.51l.72.4L59.47,60q.36-.48.72,0v1.19l.47.08L61,59.16c.24.31.48.31.63-.24.24.95.48,1.35.72.95,1.43-.95,1.9-1.51,1.43-1.67-1.43.24-1.51-.23-.4-1.35a5.25,5.25,0,0,0-2.54.72c-.55.31-.4-.56.79-1.75-.31.16-.63.08-.87.16-2.62,1.66-3,1.58-1.35-.32-3.57,1.75-4,1.43-1.27-1-.39-.4-.79.15-1.11.32-2.22,1.34-2.86,1.75-1.35-.25-.32-.15-.79.25-1.11.41-2.22,1.42-2.54,1.66-1.27.16.23-.32.71-.57.64-1s-.88.4-1.2.64c-1.27.87-1.9,1.34-2.06,1.19s1-1.28.47-1.43c-1.74,1.43-2.7,1.9-1.66.32-.48-.48-2,1.26-2.31,1.27s-.15-.64,1-2.15l-2.07,1.12L46,54.55l-1.91.64-.16-.72A4.88,4.88,0,0,0,42.16,56a4.63,4.63,0,0,0-4.37,1.43c-.79,1-.31,2.86.88,5.08l.39-2.86.64,2.62L40,59.39l.79,3.18.24-3.26L42.24,63l.08-3.81,1,3.65.32-3.57.8,3.73.47-4,.71,4,.72-3.89.32,3.8,1.19-3.64.39,3.17L49,59.16l.4,3,1-2.62.24,1.51,1.11-1.51v1.27l2.86-.16c.71-.08,1,.08.32.56a12.16,12.16,0,0,1-3.49,1.91,22.13,22.13,0,0,1-6.76,1.66,33.27,33.27,0,0,0-6.11,1.11,7.39,7.39,0,0,0-4.69,3.81l1.83-1.19C35.41,69.4,35.1,69.88,35.33,70Z"></path> <path class="cls-1" d="M82.42,83.45a5.12,5.12,0,0,0-2.07,1.27l-.24-.16c.24-.32.4-.71.64-1.11a4.83,4.83,0,0,0-1.19.79l-.16-.07a3,3,0,0,0-1.82,2.14l.15.08A11.09,11.09,0,0,0,76.94,88a8.21,8.21,0,0,0,1.51-1.34l1.27.47a8.14,8.14,0,0,0-.8,1.35c.48-.4,1-.79,1.36-1.19l.79.32a2.39,2.39,0,0,0-.63,1.19,15.51,15.51,0,0,0,1.18-1l.88.31a5.14,5.14,0,0,0-.8,1,13.39,13.39,0,0,0,1.35-.87l.64.23a6.17,6.17,0,0,0-.64.79,11.72,11.72,0,0,0,1.12-.55l.63.24a2.81,2.81,0,0,0-.63.71c.39-.16.79-.4,1.11-.55l.63.15c-.08.09-.16.17-.16.24a.44.44,0,0,1,.32-.15l2.54.87.32-.16-1.67-1a10,10,0,0,1,1.43-.48,3.61,3.61,0,0,0-1.82.16l-.48-.24c.56-.23,1-.55,1.66-.79a5.38,5.38,0,0,0-2.14.47l-.32-.23a12.13,12.13,0,0,1,1.75-.8,4.08,4.08,0,0,0-2.3.48l-.56-.32c.64-.31,1.27-.71,1.83-1a4.76,4.76,0,0,0-2.38.72l-.64-.4c.8-.32,1.43-.48,2.46-1a11.25,11.25,0,0,0-2,.23,13.68,13.68,0,0,1,1.11-1A5.87,5.87,0,0,0,82.5,86l-.56-.32c.64-.55,1.19-1.18,1.75-1.74a8.6,8.6,0,0,0-2.3,1.43L80.91,85A10,10,0,0,0,82.42,83.45Z"></path> <path class="cls-1" d="M69,75.91a3,3,0,0,0,.79-1.27c-.16-.16-.56.39-1.11,1.1A3.48,3.48,0,0,0,68,77C68.05,77.1,68.52,76.63,69,75.91Z"></path> <path class="cls-1" d="M65.59,80V79a2.9,2.9,0,0,0-1.36,1.11c-.39.71-.23,1.11.56,1.43,3.18,1,6.27-.09,9.37-1.83l3.89-1.82c.72-.88.56-1.12-.4-.8l-1.9,1,.47-1.59a7.63,7.63,0,0,0-2.14,2.46l-.32-.79a3.08,3.08,0,0,0-1,1.67l-.4-.88a2.53,2.53,0,0,0-1,1l.16-1.12c-.32-.23-.8.33-1.43,1.59l.32-1.18c-.24-.24-.64.23-1.2,1.42l1.28-3.81c-.64.08-1.51,1.51-2.46,4-.4.08-.56-.08-.48-.4L69,77.73c-.71-.07-1.51,1-2.46,2.78l1.11-3.17Z"></path> <path class="cls-1" d="M93.38,104.73a.38.38,0,0,0,.39-.4.38.38,0,0,0-.39-.4.37.37,0,0,0-.32.4A.37.37,0,0,0,93.38,104.73Z"></path> <path class="cls-1" d="M93.61,103.46l.24-1.27c0-.47-.63-1.11-.71-.32l-.08,1.2C93.3,103.54,93.38,103.7,93.61,103.46Z"></path> <path class="cls-1" d="M51.21,47.32a1.63,1.63,0,0,0,.08,1c.16.55.4,1,.64.87.08,0,.08-.48-.08-1S51.45,47.32,51.21,47.32Z"></path> <path class="cls-1" d="M54.79,43.51a34.34,34.34,0,0,0-6.59-9l.16,2.78.55-1.19a8.11,8.11,0,0,0,.16,4.36c.16-2.37.47-3.17,1-2.78A8.63,8.63,0,0,0,50,42l.8-2.22c-.08,2.3-.16,4.37.56,5.08-.09-2.54,0-4.37.39-4l.48,2.94.55-2.06.8,4.76c.24.48.32-1,.24-3.34l.95,3.34Z"></path> <path class="cls-1" d="M48.83,46.77l1.43,3.81c.24-3.42-.08-5.72-1.59-5.72-1.11-2.22-2-2-2.78.56-.63-1.43-1.58-.87-2.78.95-1.35,1.11,4.77-1.34,5.72,2.86Z"></path> <path class="cls-1" d="M98.38,103.54a5.1,5.1,0,0,1,.55,2.46c0,.56.64,0,.72-.79a2.08,2.08,0,0,0-.72-1.91C98.61,103,98.06,103.14,98.38,103.54Z"></path> <path class="cls-1" d="M99.81,111.63c-.08,0-.16.25-.16.56s.08.56.16.56.16-.24.16-.56S99.89,111.63,99.81,111.63Z"></path> <path class="cls-1" d="M84.24,119.5a14.69,14.69,0,0,0,3.34,2.14,7.56,7.56,0,0,0,3.65.71c.87,0,1.27-.55.16-.79A27.57,27.57,0,0,1,84.8,119C84.17,118.71,83.84,119.17,84.24,119.5Z"></path> <path class="cls-1" d="M88.29,111.39l1.12-.47-.08,2.14,1-2.61-.24,3.65a14,14,0,0,0,1.35-3.58l.24-.15-.16,2.78c-.48,1.27-.64,1.9-.16,1.9l1.43-4.92H93c.32,2-1.19,4-.4,5.24a18.35,18.35,0,0,0,1.27-5.56l.24.16a13.49,13.49,0,0,1-.63,5.8c.79-.56,1.5-2.23,2.06-6.2.24-.24.4-.16.4.32l-.24,3.41.87-3.89H97l-.16,4c.56-.63.87-2.22,1.11-4.36l.32-.08v4.29c.71-.64,1-2.71,1.27-5.17.08-.87-.24-1-1-.48a38.31,38.31,0,0,1-7.94,1.91A4.14,4.14,0,0,0,88.29,111.39Z"></path> <path class="cls-1" d="M100.2,109.73l.48-1.11c.4-.87-.56-1.11-.63-.24l-.08,1.35Z"></path> <path class="cls-1" d="M61.85,74.4,61.77,76a4.25,4.25,0,0,0,1.43-1.91c.8.32,1.67-.16,2-1.43.47-1.19.16-1.59-.88-1.19-3.41,2.39-7.93,3-14.6,1C45.42,71.3,41,71.14,36.52,71c-2-.08-3.65.24-4.44,2.06l-.32.87c.4.08.72-.47,1.11-.71l-.32,1.43c.48.08,1.59-1.11,2.39-1.67l-.56,1.43c.72,0,1.19-1,1.75-1.59l-.32,1.51c.87-.08,1.43-1.19,2.14-1.83l-.16,1.43c.64-.07,1.12-1,1.75-1.5l.32,1c.56.08.87-.72,1.35-1l.24,1,1.19-1.19.24,1,1.35-.48.39.56,1.11-.56-.08,1.19,1.51-.63.16.79,1.11-.63v1l1.28-.32.07,1,1.91-.79-.63,1.42,1.66-1-.24,1.11,1.83-.8-1,1.67c1.19.08,1.59-.79,2.38-1.19L55.11,77a6.2,6.2,0,0,0,3.25-2.46c.24.39.08,1-.79,2.38A4.67,4.67,0,0,0,60,74.56l-.4,1.67A3.44,3.44,0,0,0,61.85,74.4Z"></path> <path class="cls-1" d="M90.44,107l.31-.09V107c0,.31.16.55.32.55s.32-.24.32-.55v-.25l.71-.15v1.59c-.24.08-.47.08-.79.16a.27.27,0,0,0-.24-.25.35.35,0,0,0-.32.32.27.27,0,0,1,.09.16c-.16.08,0,.08.31.32l5.32-1.19c1.59,0,2-1.19,1.59-3.1.24-.64.08-.87-.48-.8l-1.19-.16.72-.47c1-.47,1-.71.16-.71l-1.67-.24L97,102c.4-.08.55-.56-.08-.79L95.44,101l1.11-.23c.72-.57.32-1-1-1.12.47-.56.4-1-.16-1-.24-.56-1-1-.71.08L95,104c.16.56-.08,1-.71,1.2l-3.89.79C89.72,106.4,89.72,106.71,90.44,107Zm6.11-1c-.08,0-.16-.08-.16-.24a.16.16,0,0,1,.32,0C96.71,105.92,96.63,106,96.55,106Zm-.31-1.43c.31-.08.55,0,.63.16s-.16.4-.48.48-.55,0-.63-.24C95.68,104.89,95.92,104.64,96.24,104.57Zm-1.12,1.35h.16c.64.16.64.48.08,1.12a.44.44,0,0,1-.24.07Zm-.47.08v1.27c-.08.08-.16.08-.24.17l-.08-1.36Zm-.8.16v1.51c-.16,0-.24.08-.39.08l-.32-1.43Zm-1.11.24V108h-.16l-.24-1.43Z"></path> <path class="cls-1" d="M100.44,107.11c.24,0,.24-.4.16-.79s-.24-.71-.48-.71a1.39,1.39,0,0,0-.07.87C100.12,106.87,100.36,107.19,100.44,107.11Z"></path> <path class="cls-1" d="M100.2,111.08c.16,0,.24-.16.24-.32s-.08-.31-.24-.31a.28.28,0,0,0-.31.31A.34.34,0,0,0,100.2,111.08Z"></path> <path class="cls-1" d="M97.42,66.3l-.15-.47c-1,2.62-2.23,4.52-3.81,5.55a17.58,17.58,0,0,0-3.74,3.81c-.48.48-.48,1-.87,1.67a21.06,21.06,0,0,0-1.67,2c-.55.72-.47,1,.48.56,1.51-2.3,2.54-3.81,3.41-4.29l2.7-2.38C95.84,72.26,97,70,97.42,66.3Z"></path> <path class="cls-1" d="M86.15,76.23c1.51-.56,1-2.94,4.76-4.85.48-.63.32-.87-.47-.63L87,73.29c1.18-1.91,2.38-3.41,4.12-3.81a5.05,5.05,0,0,0,3.1-1.67c.4-.87.24-1.11-.4-.71-2.14,1.42-4,2-5.64,3.25A8.47,8.47,0,0,0,85.2,75l1.11-.47C85.91,75.28,85.83,75.83,86.15,76.23Z"></path> <path class="cls-1" d="M92.9,75.83a5.37,5.37,0,0,0-2.22,3.73c-.16,1.27.55.71.79.24a28.05,28.05,0,0,1,1.91-3.42C94.25,75.28,94,75,92.9,75.83Z"></path> <path class="cls-1" d="M90.2,76.78c-.16,0-.24.39-.24.79s.08.8.24.8.24-.32.24-.8S90.28,76.78,90.2,76.78Z"></path> <path class="cls-1" d="M94,73.53a4.52,4.52,0,0,0-2.54,2.14c-.4,1-.24,1,.48.32a17.17,17.17,0,0,1,2.38-1.91C94.65,73.85,95,73.29,94,73.53Z"></path> <path class="cls-1" d="M99,52.64a57.58,57.58,0,0,0,2.7,5.64c1.83,3.1,6.2,6.82,6.51,7.86-4.52-3.65-8.33-9-9.21-13.1-.08.48-.08,1-.15,1.51v.23a31.73,31.73,0,0,0,2.46,5.33c2.06,3.33,6.82,7.06,7.14,8.26-4.45-3.5-8.41-8.5-9.69-12.63a7.65,7.65,0,0,0-.08,1.35A39.89,39.89,0,0,0,101.16,62c2.06,3.5,7.14,7.63,7.62,8.82-4.45-3.42-8.66-8.5-10.17-12.71a6.4,6.4,0,0,0-.07,1.19,24.79,24.79,0,0,0,2.22,4.61c2.22,3.73,7.7,8.26,8.18,9.61-4.37-3.58-8.82-9-10.56-13.18v1.11a30,30,0,0,0,2.14,4.37c2.38,3.88,8.1,8.89,8.58,10.24-4.21-3.65-8.82-9.22-10.88-13.34v.79a35,35,0,0,0,2.14,4.21c2.46,4,7.55,8.18,8,9.61A42.41,42.41,0,0,1,98.06,64.79v.72a29.46,29.46,0,0,0,2.06,4.13c2.62,4.21,7.55,8.18,8.1,9.61-4.76-4.14-8.17-8.19-10.32-12.55-.08.55-.08,1-.16,1.43.4.87,1,1.91,1.59,3,3.1,4.14,8.18,8.5,8.5,10.09A63.41,63.41,0,0,1,97.58,69.32a14.54,14.54,0,0,1-.23,1.74c3.09,3.34,6.9,8.11,10.48,12.31,1.27,1.51,1.58,1.67,2.45,2.86.49.24,1.91.8,1.6-.48-1.19-2-2.71-3.25-2.86-4a18,18,0,0,1,3.89,4.77,1.34,1.34,0,0,0,1,.55l2.78.48c-.08-.08.16-.16.08-.24-2.46-3.1-1.59-2.85.87-.47a3.41,3.41,0,0,1,.8,1l1.43.23c-2.07-3.25-1.83-3.25.79.16.48.4.87.4,1.19.08-3-4-2.7-4.2-.16-1.11.4.4.4.79.8,1.27.79.64.79.71.71-.56-4-5.07-4-5.24.16-.55.55.24.4-.08.08-.63-3.5-4.61-3.42-5.16.16-.72.47.48.55.32.08-.64-3.66-5.24-2.78-4.36.16-.79.23.08.23,0,0-.55-3.18-4.77-3.1-5.32.15-.88.64.24.56-.15.08-.95-4.6-6.19-3.49-5.32.08-1.27.8.4.56-.24.08-.95-3.25-4.45-3.49-5-.63-2.31.16.09.47.24.55.09.16-.32-.08-.65-.24-1-4.2-4.36-4-5.08-.07-2.14.15.08.31-.16.15-.32-2.77-2.86-5-4.92-.87-1.83.56-.07.4-.55-.32-1.26-4.13-4.13-2.54-2.86-.16-.88.24-.16.16-.64-.55-1.75-2.94-2.54-3.1-2.94-.4-1.26.4-.17.16-.57-.4-1-2.22-1.67-2.54-2.3-2.06-2.22.16.07.64.4.95.55s.48.16.4-.15a2.18,2.18,0,0,0-.79-1.2c-1.91-1.27-1.83-1.43-.16-1.19-2.7-2.14-2.54-2.14-.88-1.74.08-.24,0-.48-.31-.72-1.35-1.27-1.51-1.75-.8-1.66-.47-.48-1.27-1.44-.55-1.68-.64-1.34-1.59-2.61-2.23-3.81l2.31,1.2c.24-1.2-3-1.35-3.58-5.4.16.16.56-5.09.72-5.09.87.24-.48,4.53.79,6.12.16.07.08-4.28.16-4.28s.56,4.6.72,4.68c1.19.72-.33-3.81.23-4.37.24-.24,1,4.29,1,4.68s.55.32.55.08c-.55-1.66-.55-5.55-.31-4.2l1,4.76c.16.48,1,.63,1,.31l-.72-3.81c-.23-1,1,2.15,1.28,4,.07.63.71.54.71.15l-.56-2.78c1,.4.56,1.75,1.12,2.7.39.8.63-1,1.19.64.47,1,.71,1.11.79.23-.16-2-.08-2,.4.09,0,.71.24.63.47.16.16-1.19.48-1.12,1,.23.15.4.23.4.55.24.88-1.11.56-.32.48.08.08.48.16.48.47.16.48-.48.4.08.64.16s.32-.24.48-.24.15.48.39.48c.32.16.88-.16.8.08.16.39.47.71.55.31.4-1,1-1.5,2.46-1.27-.07.24.24.17.24.32.08.88.24,1.43,1.12,1.35l-.08,1.2c-.08.63.39,1.18,1.18,1.74s1.43.16,1.67-.72.08-1.5-.07-1.58c-1.2-.17-.4,1.74-1.12,1.58l-.4-.39c-1-3.81,1.44-2.38,1.59-2.86.24-1.12-.55-1.59-2.38-1.67l.08-.24c1.11,0,.56-.86-.71-.63-.32-.71-1.19-.64-1.27-1.19q-2.27,0-.48-.48c.24-.24.08-.4-.08-.63-1.27,0-1.43-.24-.4-.48.08-.24-.08-.56-.55-.8-2-.15-2.07-.39-.4-.47.32-.32,0-.71-.79-1.11-1.91-.08-1.83-.24-.8-.4.24-.24.24-.55-.16-.71l-1.51-.24,1.27-.24c.8-.16.56-.24-.79-1-.31-.72-.63-.72-.95,0-.32.95-1.19.55-2.3-.8.71,0,.87-.24.39-.55L122,41.45c.87-1.11,2.78-.32,2.94-1.19.08-.48-1.19-.56-1.51-1.35,1.35.71,2.06.79,2.14.15a10.06,10.06,0,0,0-4.76-1.26l.4-.48c.15-.23.23-.4-.32-.63l-1.67-.16.48-.4c.71-.08.47-.24.39-.4l-1.27-.56h.56c.56,0,.71-.23.32-.71a2.87,2.87,0,0,0-3-.32c.24.88.4,1.67.08,2.07a3.61,3.61,0,0,1-.71-1.59l-.16-.08a4.8,4.8,0,0,0,.63,3.26c-.8-.09-1.35-1.91-1.35-3.57l-.87-.25a5.54,5.54,0,0,0,.63,2.94c-.71-.16-1.27-1.67-1.35-3.25l-.63-.17v1.2a24.46,24.46,0,0,1,.32,3.25,7.53,7.53,0,0,1-.8-4.6l-.16-.08C105.21,34.46,100.36,41.21,99,52.64Zm25.17-6.19a.57.57,0,0,1,.32.55,11.57,11.57,0,0,0,.71,2.38c.08.17-.08.09-.39-.31a1.74,1.74,0,0,1-.48-1.19C124.26,47.4,124,46.45,124.18,46.45Zm-1.11-1.19a1.12,1.12,0,0,1,.32.64,11.3,11.3,0,0,0,.63,2.85c.08.16-.08,0-.39-.39a2.58,2.58,0,0,1-.48-1.43C123.15,46.37,122.91,45.26,123.07,45.26Zm-1.19-1.19c.24.08.32.24.32.72a18.88,18.88,0,0,0,.63,3.25c.08.24-.08.08-.4-.4A2.82,2.82,0,0,1,122,45.9C122,45.26,121.72,44,121.88,44.07Zm-1.11-1.19c.16.08.32.23.32.79a24.57,24.57,0,0,0,.55,3.73c.08.24-.08.08-.47-.47a3.57,3.57,0,0,1-.4-2C120.77,44.23,120.61,42.71,120.77,42.88ZM119.58,44a16,16,0,0,1,.08-2.38,1.17,1.17,0,0,1,.31,1,22,22,0,0,0,.48,4.21c.08.23-.16.08-.48-.64A4,4,0,0,1,119.58,44Zm-1.19-1a18,18,0,0,1,.08-2.61c.23.16.39.39.31,1a25.71,25.71,0,0,0,.48,4.68c0,.24-.16.08-.48-.71A4.29,4.29,0,0,1,118.39,43Zm-1.12-.47c.09-.72.09-2.22.17-2.07a.87.87,0,0,1,.23.88A22,22,0,0,0,118,45.1c0,.24-.16.08-.4-.55A3.48,3.48,0,0,1,117.27,42.56Zm-1-.4c.08-.55.08-1.74.24-1.67a.89.89,0,0,1,.16.72,12.36,12.36,0,0,0,.08,2.94c0,.16-.08.08-.32-.48A2.53,2.53,0,0,1,116.32,42.16ZM100.6,47.88h0c.56.63.87,2.22,2.3,4.76s4.37,5.08,4.61,6c-3.89-3.1-6.59-7.22-6.91-10.72Zm.63-1.51c.56.56.88,2.07,2.15,4.37,1.43,2.38,4.05,4.76,4.21,5.55C104,53.44,101.55,49.63,101.23,46.37Zm1.2,8.1c1.66,2.78,4.76,5.56,5.08,6.51-4.21-3.34-7.15-7.78-7.46-11.51C100.6,50.1,100.84,51.77,102.43,54.47Zm-3-3.5c.64.8,1,2.47,2.62,5.4s5.4,6.2,5.71,7.23C103.3,60,100,55,99.41,51ZM102,44.86h0c.48.48.71,1.91,2,4s3.58,4.37,3.73,5.09C104.41,51.37,102.27,47.8,102,44.86Zm.79-1.51c.4.4.72,1.75,1.83,3.73s3.18,4.06,3.33,4.69C104.89,49.31,103,46.05,102.82,43.35Zm.88-1.51c.39.4.63,1.67,1.66,3.42s2.78,3.65,2.86,4.21C105.52,47.32,103.78,44.31,103.7,41.84Zm1-1.42c.4.31.63,1.5,1.51,3.09s2.38,3.26,2.46,3.73C106.16,45.34,104.65,42.64,104.65,40.42Zm7.23,43.27c-1-1.66-2.54-3-2.63-3.57,2.55,1.91,3.81,3.57,4,5.87C112.83,85.67,112.83,85.28,111.88,83.69Zm-.08-2.46c-.8-1.35-2.15-2.7-2.23-3.1a8.27,8.27,0,0,1,3.57,5.48A25.82,25.82,0,0,1,111.8,81.23Zm0-2.46c-.64-1-1.67-2.07-1.75-2.39a5.78,5.78,0,0,1,2.78,4.21A16.87,16.87,0,0,1,111.8,78.77Zm-1.2-4a3.49,3.49,0,0,1,1.91,2.78,13.61,13.61,0,0,1-.71-1.19C111.32,75.59,110.69,75,110.6,74.72ZM111.32,34h0c.24.16.32,1.19.56,2.23a13.68,13.68,0,0,1,.71,2.62A5.63,5.63,0,0,1,111.32,34Zm-1.43,1.35c.24.09.56,1,.88,1.83a18.76,18.76,0,0,1,.79,1.9A4.26,4.26,0,0,1,109.89,35.33Zm-.55,3.26a23.37,23.37,0,0,1,1.18,2.3,5.66,5.66,0,0,1-2.22-4.44C108.62,36.6,108.86,37.48,109.34,38.59Zm-1.2,1.51c.64,1.27,1.59,2.46,1.67,2.86A6.83,6.83,0,0,1,107,37.71,20.44,20.44,0,0,1,108.14,40.1ZM107,41.76c.8,1.43,2.07,2.87,2.07,3.34A8.69,8.69,0,0,1,105.76,39,29.19,29.19,0,0,1,107,41.76Z"></path> <path class="cls-1" d="M99.81,85.12c.47.24.79.24,1,0-1.83-2.3-3.49-4.05-5.32-6.35a9.26,9.26,0,0,0-.16,2.06C97,82.5,98.3,83.53,99.81,85.12Z"></path> <path class="cls-1" d="M97.27,85.12c-.48-.56-1-.79-1.51-1.35C95.84,85,96.07,85.2,97.27,85.12Z"></path> <path class="cls-1" d="M99.25,85c-1.27-1.35-2.46-2.14-3.81-3.49.08.48.16,1,.24,1.51.79.79,1.59,1.27,2.38,2.14A1.1,1.1,0,0,0,99.25,85Z"></path> <path class="cls-1" d="M97.82,36.69a10.81,10.81,0,0,1,6.51-.8c.79.08.79-.79-.63-1a8.67,8.67,0,0,0-6,1.43C97.18,36.69,97,37.09,97.82,36.69Z"></path> <path class="cls-1" d="M101.32,39.78a10.19,10.19,0,0,0-3.74,2.86c-.63.79-.08,1.35.4.71,1.83-2.3,2.94-3,3.73-3C102.74,40.34,102.82,39.14,101.32,39.78Z"></path> <path class="cls-1" d="M84.64,49.63l.32.71,1.11-1c.32-.4.64-.32.88.24L87,48.28c.4-.24.72-.08,1,.31a1.22,1.22,0,0,0,.08-1.19l.16-1.59c-.63-1-1.11-1.66-1.82-1.9a2.75,2.75,0,0,1,.16,2.22A2.45,2.45,0,0,0,85.28,44a2.77,2.77,0,0,1,.31,1.91,2.26,2.26,0,0,0-.79-.72l.16,1-.48.32Z"></path> <path class="cls-1" d="M94.88,42.08c-.23.56-.15.72.32.48a12.27,12.27,0,0,1,4.29-4.29,9.81,9.81,0,0,1,2.62-.79,7.21,7.21,0,0,1,2.22-.39c.88.07,1-.88.08-1-4.6-.08-7.06,1-8.49,2.7-.24.63-.16.87.07.63,2-1.82,3.34-2.3,4.45-2.06l-.08.16C98.38,37.71,96.47,39.23,94.88,42.08Z"></path> <path class="cls-1" d="M92,44h-.72c.24.24.4.4.56.4S92,44.23,92,44Z"></path> <path class="cls-1" d="M86.47,33.9c.24-.32.08-.87-.4-.55a1.94,1.94,0,0,0-.87,1.82h0C85.59,34.46,86,34.46,86.47,33.9Z"></path> <path class="cls-1" d="M93.93,43.35c-.16.88-.16,1-.63,1-.88,0-2.7,3.81-3.66,6.43-.15,1.43.16,1.66,1,.79,1.26-1.27,1.9-2.14,1.5-2.7l1.75-2.22c1.19-.16,1.91-.72,1.91-1.9A1.66,1.66,0,0,0,96.71,43a13.41,13.41,0,0,1,5-4c.56-.63.24-.86-.48-.95-2.14.64-4.28,2.31-6.27,5.56q-.58.72-.48-.24C94.65,42.88,94,42.71,93.93,43.35Z"></path> <path class="cls-1" d="M95.76,33.9a14.4,14.4,0,0,0-2.94,2.86l-1,1.27c-.55-.39-.79.56.17.24l1.35-1.18c.63-1.12.23.31.63.23a2.66,2.66,0,0,0,1-2.15l1.12-.55C96.79,34.07,96.63,33.82,95.76,33.9Z"></path> <path class="cls-1" d="M128.07,86.31a46.8,46.8,0,0,0,.48-8.1c0-1.19-.72-1.19-.72-.16,0,2.46-.39,5.16-.47,8.5C127.36,87.42,128.07,86.71,128.07,86.31Z"></path> <path class="cls-1" d="M132,100.44c.16,0,.24-.16.24-.32s-.08-.31-.24-.31h0c-.16,0-.23.15-.23.31S131.8,100.44,132,100.44Z"></path> <path class="cls-1" d="M133.16,93.85c.23-.08.15-.47,0-.87s-.56-.71-.72-.64-.16.56.08,1S133,94,133.16,93.85Z"></path> <path class="cls-1" d="M128.31,93.06h0a65.23,65.23,0,0,1,.95,7.71c.08,1.1,1,1,1-.17A19,19,0,0,0,129,92.74C128.47,91.32,128,91.55,128.31,93.06Z"></path> <path class="cls-1" d="M90.44,42.8a7.86,7.86,0,0,0,.47.79h.88a3.18,3.18,0,0,0-.32-1H90.36C90.36,42.72,90.36,42.8,90.44,42.8Z"></path> <path class="cls-1" d="M150.38,123.7c0,.8.16,1.52.48,1.52s.48-.72.48-1.52-.24-1.5-.48-1.5S150.38,122.92,150.38,123.7Z"></path> <path class="cls-1" d="M150,126.25l-.8,1.66c-.39,1,.32,1.83,1.51,2.79l.24-.87.64-.33-.64-1c.64-.17,1.51-.17,1.91-.57l-1.91-1.74C150.7,125.69,150.38,125.69,150,126.25Z"></path> <path class="cls-1" d="M150.78,117.35c.16-.07.08-.55-.24-1s-.63-.72-.79-.56h0c-.16.07-.08.47.24,1S150.62,117.44,150.78,117.35Z"></path> <path class="cls-1" d="M128,91.15c.56-.15,1-1,.72-1.91s-.88-1.5-1.43-1.42-1,1-.8,1.9S127.36,91.23,128,91.15Z"></path> <path class="cls-1" d="M109.73,31.21c.16.24.48.24.4-.08l-.56-1.59c.88.95,1.67,1.27,2.31.63,1,.8,1.58,1.12,1.51.4l1.66.88c.56.4,1.19-.16.4-.72-1.35-1.11-3.5-1.42-6-1.91-.95-.08-1.35.32-.79,1Z"></path> <path class="cls-1" d="M130.38,57.57c1,.94,2.14.63,1.82.31l-1.59-1.59C129.74,55.43,129.18,56.45,130.38,57.57Z"></path> <path class="cls-1" d="M117.12,32.56c-.72.16-.16.39.08.55a2.49,2.49,0,0,0,1.82.16c.88-.08,1.51,0,1.59.55l.24,1c0,.79.24,1,.63.31a2.77,2.77,0,0,0-.39-2.45c-.4-.49-1.59-.56-3.34-.49a8.29,8.29,0,0,1,3.65,0c.32.09.48,1.12.64,1.67.24,1.35-.08,2.47.48,2.47.23,0,.15-1.2,0-2.79l.71,3.26c.48,1.11,2.14.72.32-1a7.8,7.8,0,0,0-1.12-3.73c1.2.56.8,1.19,1.28,1.9,1,1.19,1.58.4.87-1.26l-1.11-1.27c-2.46-1.36-4.13-.16-6.27-.09C116.64,31.45,116.32,32.08,117.12,32.56Z"></path> <path class="cls-1" d="M112.12,31.13c-.32.23.07.79.31,1s.71.16.56-.31S112.43,30.89,112.12,31.13Z"></path> <path class="cls-1" d="M124.42,87.82l-.32.23a.2.2,0,0,0-.08.32l1.27,1.52a.2.2,0,0,0,.32.07l.32-.24a.23.23,0,0,0,0-.31l-1.19-1.51A.2.2,0,0,0,124.42,87.82Z"></path> <path class="cls-1" d="M121.09,90.2c-.8-1.11-1.83-.72-1.43-.08a52.54,52.54,0,0,1,5.4,8.33c.71,1.43,1.42,1,.71-.55A53,53,0,0,0,121.09,90.2Z"></path> <path class="cls-1" d="M122.12,90.91A38.65,38.65,0,0,1,125.77,97c.4.87,1,.64.56-.32a50.77,50.77,0,0,0-3.34-6C122.36,89.72,121.56,90.12,122.12,90.91Z"></path> <path class="cls-1" d="M125.13,91.71c-.15.07-.15.47.08.87s.56.71.72.64.16-.48-.08-1S125.29,91.63,125.13,91.71Z"></path> <path class="cls-1" d="M86.07,70c-.24,1.11.08,1.35.8.8a8.38,8.38,0,0,1,3.81-2.7,15.5,15.5,0,0,0,3.49-2,3.66,3.66,0,0,0,1.59-1.5c.4-.88.63-1.59-.64-.8a9.69,9.69,0,0,1-4.21,3.18C88.45,67.73,86.71,68.6,86.07,70Z"></path> <path class="cls-1" d="M80.11,23.74a5.46,5.46,0,0,0-1,4.29l.72.16-.63.47H80l-.55.8.48.16-.4,1L80,31l-.23.63.64.08-.16.64.47.08-.16.63.48.16a4.75,4.75,0,0,0,1.51,1.27,2.41,2.41,0,0,0,1.51.16,13.49,13.49,0,0,0,2-2.22c.24-.08.32-.55.32-1.27A1.17,1.17,0,0,0,87,29.94l.4-.56V27.47a2.14,2.14,0,0,1-1.19.16l-1.11-.47-.32,2.46c0,.47-.24,1.19-.79.95l-1.35-.63c-.32-.17-.24-.63.16-.8l.47-.08V26.92a2.71,2.71,0,0,1-2.46-.24,2,2,0,0,0-1-.16,3.16,3.16,0,0,1,.87-1.11l-.47-.72c.16,0,.47.09.71.09,1.11-.09,1.67-.25,2,.07a3.64,3.64,0,0,0,.87.72l.09-.56c.24-.63.71-.79,1.43-.55L85.2,26l2.54-.79v-.47c-.48-.8-1.67-1.36-3.42-1.6A12.45,12.45,0,0,0,80.11,23.74Zm4,7.55c1.27.31,1.35.79.15,1.5a8.13,8.13,0,0,1-2.3-.23c.24-.4.48-.56-.08-1.27A5.24,5.24,0,0,1,84.09,31.29Z"></path> <path class="cls-1" d="M86,26.68c0,.24.24.48.64.48s.63-.08.63-.32-.24-.48-.63-.48S86,26.52,86,26.68Z"></path> <path class="cls-1" d="M85,24.93c0-.4-.16-.15-.56.24,0,.24-.08.4-.08.56h.56A2.47,2.47,0,0,0,85,24.93Z"></path> <path class="cls-1" d="M81.7,25.65c-.39-.08-.71.16-.71.39s.24.48.63.48.72-.16.72-.4S82.1,25.65,81.7,25.65Z"></path> <path class="cls-1" d="M83.85,29.62h0c.17.32.33.47.48.16a25.14,25.14,0,0,0,.48-3.34h-.56C84.09,27.71,83.93,28.58,83.85,29.62Z"></path> <path class="cls-1" d="M95.92,35.89a11.25,11.25,0,0,0-2.46,6.43c.15.39.87-.48,1.9-1.83l-.63-.23a5.17,5.17,0,0,1,.71-1.35c.16-.24.16-.64.55-.88a1.5,1.5,0,0,0,.8-.87h-.55c1.82-2.22,4.36-2.78,7.22-2.7l2.22.24a1.45,1.45,0,0,0,1-.24c.23-.16.31-.39-.09-.39a19.9,19.9,0,0,0-7.54.31c1.83-1.19,4.45-1.27,8.18-1.11,1.51.08,1.59-1,.16-1.19C100.84,31.52,97.66,33.67,95.92,35.89Z"></path> <path class="cls-1" d="M84,32.4c.23-.17.31-.4.08-.55a1.18,1.18,0,0,0-1.27,0h0c.23.15.08.31.31.55A1.64,1.64,0,0,0,84,32.4Z"></path> <path class="cls-1" d="M90.36,36.05c.24,0,.39.32.32,1,.71-.56,1-1.59,1.5-1.68l.16.88c.72-.88,1.35-2.63,2.31-3.26l.31.48c.48-.16.56-.64,1.28-.79a.85.85,0,0,1,.94.15c.72-.15,1-.47.32-.87a4.07,4.07,0,0,1-1.43-.07,5.19,5.19,0,0,0-3.33,1.26C90,34.94,88,36.37,88,36.92,88.29,37.24,89.17,36.84,90.36,36.05Z"></path> <path class="cls-1" d="M79.88,50.58c0,1.11.08,2.3.08,3.49.24-1.43.39-2.54.48-3.57.23,0,.47-.07.71-.07a13.44,13.44,0,0,1-.24,2.45,15.64,15.64,0,0,0,.64-2.54,1.14,1.14,0,0,0,.47-.16,10.23,10.23,0,0,1-.32,3.1,12.25,12.25,0,0,0,.8-3.18c.16-.08.24-.08.4-.15a17.54,17.54,0,0,1-.48,4.92c1.67-4.61,1.67-6.67-.16-11.2.24,1.36.32,2.54.48,3.65a1,1,0,0,1-.48.08,17.58,17.58,0,0,0-.71-2.06c.07.79.23,1.51.31,2.22-.16,0-.31.08-.47.08a7,7,0,0,0-.64-2A20.09,20.09,0,0,1,81,47.72c-.24,0-.48.08-.71.08A15.94,15.94,0,0,0,79.72,45v2.85h-.8c-.15-.56-.23-1.19-.39-1.91a15.9,15.9,0,0,0-.08,1.91,3.78,3.78,0,0,1-1-.08c-.08-.56-.24-1.11-.4-1.83V47.8c-.24,0-.56-.08-.8-.08a12.38,12.38,0,0,0-.23-1.43c0,.48-.09,1-.09,1.35-.23,0-.39-.08-.63-.08,0-.63.08-1.19.08-1.83-.24.64-.32,1.19-.48,1.67-.16,0-.39-.08-.55-.08l.24-.71a7.44,7.44,0,0,0-.4.63,2.38,2.38,0,0,1-.71-.24,10.09,10.09,0,0,0-.32-4.2A33.88,33.88,0,0,1,73,46.93c-.32-.16-.56-.24-.88-.4a15.61,15.61,0,0,0-.39-3c-.08,3-.16,5.4-1.19,7.94A10.92,10.92,0,0,0,71.94,48c.23.16.55.32.79.48a17,17,0,0,1-.79,2.3,14.34,14.34,0,0,0,1.11-2.15,1.67,1.67,0,0,1,.48.32c-.56,1.75-.48,3.17.08,5.64A18.42,18.42,0,0,1,74,49.07a1.47,1.47,0,0,0,.64.31,22.37,22.37,0,0,0,.23,4.93c.08-1.67.24-3.1.32-4.68l.72.23c-.08,1.43-.08,2.7-.08,4.14a31.12,31.12,0,0,0,.63-4l.72.24c0,1.43.08,2.86.16,4.37a31.43,31.43,0,0,0,.39-4.29c.32.09.56.09.8.16.08,1.35.08,2.7.16,4.13a29.94,29.94,0,0,0,.39-4.05Z"></path> <path class="cls-1" d="M109.25,86c-.79-.87-.71-.79-2.14-2.54-2.7-3.33-7.38-9-9.76-12-.08.4-.17.8-.24,1.27,2.94,3.26,6.59,7.78,9.92,11.68a15.11,15.11,0,0,0,1.35,1.66C108.94,86.23,109.25,86.39,109.25,86Z"></path> <path class="cls-1" d="M82.82,29.62c0,.07.15.15.23.16s.24-.09.24-.16a.21.21,0,0,0-.24-.24A.25.25,0,0,0,82.82,29.62Z"></path> <path class="cls-1" d="M75,62.65c0,.32.16.63.32.63s.4-.31.4-.63-.16-.56-.4-.56S75,62.33,75,62.65Z"></path> <path class="cls-1" d="M76.3,61.77c-.15,0-.23.4-.23,1s.08.87.23.87.32-.4.32-.87S76.46,61.77,76.3,61.77Z"></path> <path class="cls-1" d="M78.53,63.52c0-.16-.32-.32-.72-.32s-.63.16-.63.32.32.24.63.24S78.53,63.6,78.53,63.52Z"></path> <path class="cls-1" d="M82.82,64.48H79.88c-.48.08-.48.55,0,.7,1.11,0,1.67.24,1.82.72-.08,2.55,1.91,1.51,1.59-.07C83.93,65,83.77,64.48,82.82,64.48Z"></path> <path class="cls-1" d="M78.61,65.27a.37.37,0,0,0,.31-.4.33.33,0,0,0-.31-.31h0a.34.34,0,0,0-.24.31C78.37,65.1,78.53,65.27,78.61,65.27Z"></path> <path class="cls-1" d="M88.37,44.79c.4.55.8.94.87.87s0-.56-.31-1.19-.8-1-.88-.88S88.05,44.15,88.37,44.79Z"></path> <path class="cls-1" d="M90.44,59.08c-.72.63-1,1.66-1.67,3.57S90,64.79,90,63.2A7.93,7.93,0,0,1,91,59.31C91.55,58.28,91.31,58.2,90.44,59.08Z"></path> <path class="cls-1" d="M92.82,62.81a8.62,8.62,0,0,1-3,2.61h0c-1.11.72-.63,1.52,1,.88a4.87,4.87,0,0,0,3.25-3.49C94.41,61.14,93.93,61.22,92.82,62.81Z"></path> <path class="cls-1" d="M96,55.34c.25-.39,0-1-.39-.56l-1.75,1.67c-.71.08-1.27.72-1.59,1.83L91,61.38c-.24.55-.15,1.11.4.39l1.91-2.61-1.51,3c-.32.48.24.48.55.16a9.15,9.15,0,0,0,2.39-4.92Z"></path> <path class="cls-1" d="M107.11,85.67c-.56-.63,0-.16-.79-1.18-2.54-3.1-6.75-8.18-9.29-11.36-.08.56-.24,1-.32,1.51h0c2.86,3.18,3.89,4.61,7,8.26.31.47,2,2.14,2.3,2.53C106.4,86.23,107.74,86.23,107.11,85.67Z"></path> <path class="cls-1" d="M89.56,43.91h0c-.07,0,0,.48.32,1s.56.8.64.71,0-.47-.24-.94S89.64,43.83,89.56,43.91Z"></path> <path class="cls-1" d="M97.66,49.23c-1.27,1.66-2.22,2.3-2.7,3.5-1.5.47-2.7,2.14-4.44,2.93a1.54,1.54,0,0,0-.64,1.43c-.71.47-1.19,1.27-1.27,3,.08.63.16.47.48,0l.71-2a21.75,21.75,0,0,0,2.94-2.78c.48.72,1.35.09,2.7-1.74A5.43,5.43,0,0,0,98.38,50C98.77,48.59,98.54,48.36,97.66,49.23Z"></path> <path class="cls-1" d="M97.42,53.52l-.87,2.38a5.31,5.31,0,0,0-1.19,3l-.56,2.85c-.32,1.59,0,1.75,1,.56.63-.56.87-2.3,1-4.45.56-.16.56-.79.63-1.35.32-.47.56-1,.08-1.19l.56-1.51C98.06,52.64,97.66,52.56,97.42,53.52Z"></path> <path class="cls-1" d="M87.11,58.84c.31.55.55.55.87,0l.15-2c.08-1.51,1.43-1.27,2.23-2.78.48,2,2.46-1.11,3.65-1.74.47-.48.4-.72-.32-.65l-1.43.72a2.91,2.91,0,0,1,2.22-1.51c2.07-1.11,4.38-5,6.68-8.25.87-1.75.55-2-1-.88A28.34,28.34,0,0,0,95,48c-1.19-.08-2.46,3.18-6.11,5.4C87.5,54.31,86.87,56,87.11,58.84Z"></path> <path class="cls-1" d="M70.11,42.48a8.53,8.53,0,0,1-.63,5.16C70.82,45.34,71,44.7,70.11,42.48Z"></path> <path class="cls-1" d="M103.22,85.43c-2.06-2.7-4.68-5.63-7.06-8.57-.17.39-.24.71-.4,1a.67.67,0,0,0-.08.39c2.06,2.38,4,4.44,6.19,7.07C102.51,85.67,103,85.67,103.22,85.43Z"></path> <path class="cls-1" d="M95.28,76.46c.24.08.64-.31.79-.79s.09-1-.15-1.19-.64.32-.88.87S95,76.38,95.28,76.46Z"></path> <path class="cls-1" d="M105.36,85.67c-.31-.31-2.22-2.61-2.54-3-2.3-2.85-3.65-4.36-6.27-7.54a7.57,7.57,0,0,1-.31,1.2c2.69,3.09,5.15,5.87,8,9.29A1.14,1.14,0,0,0,105.36,85.67Z"></path> <path class="cls-1" d="M89.09,38.12c.24-.32.4-.56.24-.72h0q-.24-.12-.72.24a.71.71,0,0,0-.24.71A.74.74,0,0,0,89.09,38.12Z"></path> <path class="cls-1" d="M87,77.66a28.77,28.77,0,0,1,5-5.88,15.51,15.51,0,0,0,5.32-7.07c.63-1.9-.09-2.46-.56-1.27-1,2.86-2.23,5.4-4.13,6.91a21.32,21.32,0,0,0-6,6.82C86.07,78.05,86.47,78.37,87,77.66Z"></path> <path class="cls-1" d="M90,41.13c-.24,0-.16.56.16,1.19h1C90.84,41.61,90.28,41.13,90,41.13Z"></path> <path class="cls-1" d="M89.33,56.7a.54.54,0,0,0,.08-.72.57.57,0,0,0-.64.23h0a.64.64,0,0,0-.16.71A.49.49,0,0,0,89.33,56.7Z"></path> <path class="cls-1" d="M73.21,166a2.31,2.31,0,0,1-.72-1.59c-.87.64-1.27,1.35-.79,2.31l1.75,1.5A1.39,1.39,0,0,0,73.21,166Z"></path> <path class="cls-1" d="M96.39,151.5c-.08,0-.15.16-.23.4h.39C96.47,151.66,96.47,151.5,96.39,151.5Z"></path> <path class="cls-1" d="M95.44,152.46c-.16,0-.24.15-.4.7s-.24,1,.24,1,.4-.4.4-1S95.6,152.53,95.44,152.46Z"></path> <path class="cls-1" d="M96.24,154c.31.08.31-.56.31-1.43h-.48C95.92,153.33,95.92,154,96.24,154Z"></path> <path class="cls-1" d="M97.74,152.37c0-.71-.08-1-.24-1s-.32.25-.55.88-.32,1.35.23,1.43S97.74,153.09,97.74,152.37Z"></path> <path class="cls-1" d="M92.58,143.08c-.24,0-.32.64-.32,1.35s.08,1.35.32,1.35.32-.55.32-1.35S92.74,143.08,92.58,143.08Z"></path> <path class="cls-1" d="M100.12,134.27c.08-.08-.07-.32-.47-.55s-.72-.33-.79-.25.15.4.47.64S100.05,134.43,100.12,134.27Z"></path> <path class="cls-1" d="M91.79,149.91a1.65,1.65,0,0,0,.07,1c.17.48.09.8.4.64s.24-.32.08-.8S92,149.91,91.79,149.91Z"></path> <path class="cls-1" d="M93.14,150.78l.08-.07C93.14,150.71,93.14,150.71,93.14,150.78Z"></path> <path class="cls-1" d="M91.23,142.61c-.24,0-.39.7-.39,1.59s.23,1.58.39,1.58.4-.71.4-1.58S91.39,142.61,91.23,142.61Z"></path> <path class="cls-1" d="M97.35,144c.15-.95.15-1.74-.08-1.74s-.48.71-.64,1.66-.08,1.76.08,1.76S97.18,144.91,97.35,144Z"></path> <path class="cls-1" d="M92.82,149.28a1.55,1.55,0,0,0,.24,1c.08.16.08.31.16.4.16.31.31.47.39.47s.08-.24,0-.56a1.68,1.68,0,0,0-.15-.55C93.22,149.51,93,149.19,92.82,149.28Z"></path> <path class="cls-1" d="M98.46,145.7c.23.08.55-.87.79-2.06s-.24-2.31-.48-2.31-.08,1-.23,2.22S98.22,145.63,98.46,145.7Z"></path> <path class="cls-1" d="M98.14,132.44C96.07,130.7,94,129,92,128.55h0c2.3,1.51,4.36,3.89,5.79,4.37C98.3,133.15,98.46,133,98.14,132.44Z"></path> <path class="cls-1" d="M95.6,144.12c.08-1,0-1.75-.24-1.83s-.4.79-.48,1.75,0,1.74.16,1.74S95.44,145,95.6,144.12Z"></path> <path class="cls-1" d="M104.65,145.86a5.1,5.1,0,0,0-.4-5.32L104,138c-.31-2.29-1.34-3.09-2.85-2.62l-4.45.88A48.13,48.13,0,0,1,84.4,137l.72,1.19c.4.08.71.08,1.11.16.16.17,1.35,1.43,1.51,1.67-.08-.24-.63-1.5-.72-1.75,1,.08.56.08.64.17s1.83,1.11,2,1.34c-.08-.23-.4-.79-.47-1,0-.08.32,0,.47,0a3.06,3.06,0,0,0,2,1.2c-.08-.56.08-.88-.08-1.36.31,0,.16-.15.48-.15.47.87,1.66,1.51,2.22,2.14.4-.48-.72-1.91-1.51-2.31.32,0,.4-.08.72-.08.63.48,2.22,1.2,2.61,2.23.17-1,.17-1.19-.87-2.38h.72a9.53,9.53,0,0,1,1.66,2.54,3.58,3.58,0,0,0-.63-2.94h.4c1.34,1,1,1.51,1.42,3,.32-.4.48-2.94-.23-3.57a1.1,1.1,0,0,1,.47.16,18.84,18.84,0,0,1,.8,8.49c.87-1.83.87-4.53.79-7.79h.24a20.18,20.18,0,0,1,.08,8.11c1-1.67,1.19-4.2,1.35-7.23.16.32.31.56.47.88a34.35,34.35,0,0,1-1.27,7.93,1.31,1.31,0,0,0-.47.16,5.11,5.11,0,0,0-.08-1.18c0-.32-.08-.48-.16-.4s-.16.23-.24.56-.08.78-.08,1.26c-.16.16-.32.16-.47.24a2.31,2.31,0,0,0-.16-.79c0-.24-.08-.4-.16-.32s-.16.24-.16.47v.88c-.24.08-.4.15-.63.24-.09-.4-.25-.88-.32-.8s-.08.17-.16.4V149a1.27,1.27,0,0,1-.48.15c-.08-.39-.16-.79-.24-1.11s-.16-.4-.24-.4-.15.16-.15.49v1.27c-.16.07-.24.07-.4.15a.27.27,0,0,1-.08-.23c-.16-.56-.55-1.19-.63-1.12s-.09.16,0,.4a2.48,2.48,0,0,0,.15,1c0,.08,0,.08.08.16a2.38,2.38,0,0,1-.4.16c-.15-.63-.55-1.2-.63-1.11s-.08.16-.08.48a3.28,3.28,0,0,0,.08.79c-.24.08-.4.16-.63.24a3.46,3.46,0,0,0-.08-.4c-.17-.63-.4-1.11-.56-1s-.16.63,0,1.27c.08.08.08.16.08.32a1.46,1.46,0,0,0-.56.15h.64c.16.32.32.56.4.48s.15-.24.08-.56c.23-.07.47-.07.71-.15.08.39.08.79.48.63s.32-.31.24-.71a3.22,3.22,0,0,1,.39-.08c.16.24.32.48.4.48s.08-.24,0-.48v-.08a.87.87,0,0,1,.4-.08c.07.08.07.24.15.32,0,.23.08.39.16.39s.16-.24.24-.47V150c.16-.08.4-.08.56-.15a7.58,7.58,0,0,1-.16,2.77,8,8,0,0,0,.63-1.75v-1.11l.64-.24c0,1.11-.48,2.15-.4,3.26a4.11,4.11,0,0,0,.88-3.1v-.23a2.08,2.08,0,0,0,.55-.16,7.27,7.27,0,0,1-.16,2.46c.79-.72.88-1.35,1.27-3.42h.48l-.32,2.86a5.65,5.65,0,0,0,1.11-3.41c.24.15.32.71.16,2,.32.09.32-.31.64-1.43a23.2,23.2,0,0,1,1.58,6.52l-.47.47a7.1,7.1,0,0,0-1-4,36.7,36.7,0,0,1,.47,4.62c-.08.07-.24.15-.24.23a9,9,0,0,0-1.11-3.33,34.38,34.38,0,0,1,.48,3.89c-.16.16-.32.24-.48.4a7.36,7.36,0,0,0-1-3c.16,1.19.32,2.46.4,3.57a3.56,3.56,0,0,0-.64.56,8.14,8.14,0,0,0-.79-2.15c.16.88.23,1.75.32,2.54-.24.16-.48.4-.72.56a8.86,8.86,0,0,0-.63-1.59c.08.64.15,1.27.23,1.9-.15.17-.39.32-.55.49a8.89,8.89,0,0,0-.56-1.28c.08.48.16,1,.24,1.5l.08-.07-.08.08h0c-.7.61-1.46,1.15-2.15,1.76l8.18-5.08a13,13,0,0,1-.47,1.74,7.82,7.82,0,0,0-.48-.79c.08.4.24.79.32,1.19a8.65,8.65,0,0,1-.64,1.19,5.81,5.81,0,0,0-.55-.95c.16.48.24.95.39,1.35-.15.32-.39.63-.55,1-.16-.32-.32-.56-.48-.87.08.47.16.87.24,1.27l-.71,1.2a2.1,2.1,0,0,0-.4-.88l.24,1.18c-.08.17-.16.25-.24.41a1.17,1.17,0,0,1,.24-.33c0-.08.16-.15.16-.23,1.66-2.31,3.57-4.45,4.92-7.94,1.51-2.39,1.35-4.06.08-5.24A8,8,0,0,1,104.65,145.86Z"></path> <path class="cls-1" d="M74,150.71c-.16.39-.24.87-.08.87s.4-.25.64-.72a1.16,1.16,0,0,0,.08-.87C74.48,149.91,74.24,150.23,74,150.71Z"></path> <path class="cls-1" d="M94.25,144.27c0-.87-.16-1.59-.32-1.59s-.32.72-.32,1.59.16,1.59.32,1.59S94.25,145.14,94.25,144.27Z"></path> <path class="cls-1" d="M94.25,154.2c.32,0,.32-.4.32-.87h-.48C94,153.72,93.93,154.12,94.25,154.2Z"></path> <path class="cls-1" d="M80.51,172.7c.08.32.72.32,1.35.08s1.11-.72,1-1-.72-.31-1.36-.08S80.44,172.46,80.51,172.7Z"></path> <path class="cls-1" d="M82.18,137.6l.08.08-.48-.79-2.14-.25c.71.17.56.25,1,.4s.87.09,1,.4C82.9,140.14,81.94,137.6,82.18,137.6Z"></path> <path class="cls-1" d="M80.11,169.6a.84.84,0,0,0-.79,0c-.4.16-.63.39-.55.56s.4.16.79,0S80.2,169.84,80.11,169.6Z"></path> <path class="cls-1" d="M81.55,143.87c-.16,0-.24.25-.16.64a1.15,1.15,0,0,0,.47.79c.16.09.24-.16.16-.55A1.55,1.55,0,0,0,81.55,143.87Z"></path> <path class="cls-1" d="M79.64,171.74c.08.16.56.24,1,0s.79-.47.72-.71-.56-.24-1,0S79.48,171.51,79.64,171.74Z"></path> <path class="cls-1" d="M90.68,150.31c-.08,0,0,.4.16.79s.31.64.39.56a2.42,2.42,0,0,0-.16-.8C90.91,150.54,90.75,150.23,90.68,150.31Z"></path> <path class="cls-1" d="M74.87,148.64c-.23.32-.31.72-.23.8s.39-.16.63-.56.4-.64.24-.8A1.14,1.14,0,0,0,74.87,148.64Z"></path> <polygon class="cls-1" points="65.59 144.59 65.59 144.59 65.58 144.59 65.59 144.59"></polygon> <path class="cls-1" d="M77.65,143.48a9.94,9.94,0,0,0-3.49.07,9.25,9.25,0,0,1-5.48-.31c-1.82-.8-3.57-.24-3.09,1.35.47-.64.87-1.11,1.42-.79l-.31,1.34,1.59-1.27v.8l1.19-.55-.16.71,1.9-.63L68.13,149l3.41-3.57c-2.46,3.57-3.25,7.22-2.06,11-.32-6.35,1.82-9.76,4.92-12.07a16,16,0,0,0-2.78,4.93,26.77,26.77,0,0,1,4.84-5.08c-2.85,3.72-4.68,6.74-3.81,7.93.32-2.38,2.22-4.85,4.77-7.22C78.77,144.67,78.84,144.12,77.65,143.48Z"></path> <path class="cls-1" d="M88.53,143.31c-.16,0-.16.81-.08,1.44s0,1,.56.95.4-.4.23-1S88.69,143.24,88.53,143.31Z"></path> <path class="cls-1" d="M89.56,143h0c-.15,0-.07.64.08,1.35s.48,1.28.64,1.19.16-.63,0-1.34S89.8,142.92,89.56,143Z"></path> <path class="cls-1" d="M87,143.08c-.17,0-.17.56,0,1.27s.39,1.19.55,1.19.24-.63.08-1.34S87.18,143,87,143.08Z"></path> <path class="cls-1" d="M82.74,143.8c-.16,0-.08.32.08.79s.31.64.47.64,0-.4-.16-.8S82.82,143.72,82.74,143.8Z"></path> <path class="cls-1" d="M82.82,137l.55.95a2.67,2.67,0,0,0,.72.16l-.64-1A2.23,2.23,0,0,0,82.82,137Z"></path> <path class="cls-1" d="M85.52,143.08h0c-.16.08-.08.56.07,1.19s.48,1,.64,1,.08-.56-.08-1.11A2.29,2.29,0,0,0,85.52,143.08Z"></path> <path class="cls-1" d="M84.17,143.55c-.08,0-.08.57,0,1s0,.8.31.71.32-.23.24-.71S84.32,143.55,84.17,143.55Z"></path> <path class="cls-1" d="M97.9,159.76l.24,1.42.24-.23A3.63,3.63,0,0,0,97.9,159.76Z"></path> <path class="cls-1" d="M120.37,124.5c.4-.48.64-.88.48-1s-.64.09-1,.48-.64,1-.48,1.11S120,124.89,120.37,124.5Z"></path> <path class="cls-1" d="M119.42,130.06a.51.51,0,0,0,.48-.48.53.53,0,0,0-.48-.55.54.54,0,0,0-.56.55A.53.53,0,0,0,119.42,130.06Z"></path> <path class="cls-1" d="M125,135.53c.47-.07.79-.47.87-1.18l-.79-.4h1.11l-1.19-.8c.39-.07,1.35.16,1.27-.23s-1.19-.56-1.75-.8l1.35-.31c.08-.4-.72-.72-2-1.11l1.26-.32-1.42-.88,1.11-.32-1.75-.87,1-.47-1-.32,1-.48c-.79-.31-1.11-1-1.82-.24-.48.72-.64,3.42,1.75,6.67C124.74,134.58,123.71,135.37,125,135.53Z"></path> <path class="cls-1" d="M48.27,32.32C64.15,54.7,88.21,87.42,116.56,126l-.16.56,2.38,1.34-.79-3.17-.48.31c-21.83-30.48-47.16-66.37-68-94C48.36,30.65,48,31.13,48.27,32.32Z"></path> <path class="cls-1" d="M119.9,126.17a3.73,3.73,0,0,0,.31,2.7c0-1.35.08-1.91.32-2.07.32-.79,1.91-1.43,1-2.46C121,124.34,120.45,124.74,119.9,126.17Z"></path> <path class="cls-1" d="M120.61,131.49c.24-.4.16-.79-.16-.88s-.55.09-.71.48-.16.8.16.87S120.45,131.89,120.61,131.49Z"></path> <path class="cls-1" d="M121.72,134c-.4.16-.47.48-.32.71a.86.86,0,0,0,1,.24c.4-.16.56-.47.32-.79A.93.93,0,0,0,121.72,134Z"></path> <path class="cls-1" d="M121.56,132.28a1.17,1.17,0,0,0-1.27.56.68.68,0,0,0,.24,1,1.22,1.22,0,0,0,1.19-.56c.32-.47.24-.87-.16-1Z"></path> <path class="cls-1" d="M118.55,130.61c-.88-.32-1.35-.71-.64-1.27l-4-3,1.51-.56-5.24-6.91c-.56-1-1.51-1.19-2.78-.8-6.75,3.74-15.17,5.64-24.06,6.76-2.22.32-4.2.79-6.43,1-3.33,4.45-6,7.38-7.86,8.66-3.26,2.21-2.94,4.84-.08,7.78,1.11,1.34,2.3,1.43,3.41.71a43.66,43.66,0,0,1,5.88-.48c0-3.33-2.14-5.71-6.12-7.3-1.19-.95-.87-1.27.88-.95a51.67,51.67,0,0,0,15.16,2.3c1.91-.87,2-1.75.08-2.62,1.83-2.62,1.2-5.24-1.11-7.86,2.38,0,6,1.9,10.72,5.48,2.46,1.43,4.29,1.74,5.56.87s3.17-1,5.56-1c4.6.32,5.87,3,4.52,8.34-.08,3.41-.71,6.19-1,9.52-.4,6.2,3.34,7.23,8,4.69a12,12,0,0,0,4.92-5.4c-1.11-.16-1.43-.88-1.66-2.22a5.25,5.25,0,0,1-.48-1.59l-1.75-3.57a5.58,5.58,0,0,1-1.82-3.66l-2.15-3.09c-1-2-.87-2.63.4-2,2.06,2,1.35.56,1-.4C118.39,132.05,118.07,131.33,118.55,130.61Z"></path> <path class="cls-1" d="M156.26,109.33c.16-.16.16-.31-.08-.47l-1.35-.87c-.24-.24-.47-.16-.71.07-.88,1-1,1.83-.56,2.54l1.75,1.36c.55.47,1.19.23.87-.24l-.64-.87c.4.15.72.54,1.12.54s.4-.47,0-.79C156,110,155.86,109.73,156.26,109.33Z"></path> <path class="cls-1" d="M156.66,102.74a6.56,6.56,0,0,0-.4-3.8c-.95-1.59-2-1.27-1,.23-1-.08-1.19.48-.4,1.43a7.76,7.76,0,0,1,1,2.14C156,103.38,156.58,103.22,156.66,102.74Z"></path> <path class="cls-1" d="M121.48,102.67c-1-.8-1.27-1.12-.79-2a1.09,1.09,0,0,0-.48-1.51l-2.54-5.08c.32.55.72.79,1,1.27,1,1.67,1.75,3,2,2.94-.4-1.11-1.75-3.58-2.78-6.35,2,3.49,3.73,6.5,4.21,6.11-.24-1.35-1.83-4-3.42-6.67a11.78,11.78,0,0,1,1,1c.63.8,1.19,1.51,1.51,1.35-1.27-2.62-2.62-4.29-4-4.76-2.23-.79-3.58-1.11-3.26.32l-1.11-1.28-1.19-.15c-.4.15.16.79,1,2.14l-.24.16-1.35-2.15c-.4-.23-1-.47-1,0l.71,1.43-1.5-1.66c-.72-.4-1.51-.56-1.51-.24l2.22,3.65c-.4-.56-1-1.11-1.59-1.9-.87-1.2-1.59-2.07-2.61-2.23s1,1.59,2.45,5l-3.41-4.93c-.32-.23-1.67-.47-1.75,0l4,5.72c-1.82-2.07-3.65-3.81-4.68-5.8a.91.91,0,0,0-.72-.23c-.15-.08-.31,0-.47.16l4.84,6.26a26.34,26.34,0,0,1-2.62-2.7c-1-1.42-2-2.37-2.78-3.64a.74.74,0,0,0-1-.08c-.4.55,3.65,4.68,5.4,7.14a39.92,39.92,0,0,1-6.12-7.14c-.79-.4-1.34-.4-1.58,0s4.92,5.4,6.9,8.49a91.42,91.42,0,0,1-7.46-8.49c-.31-.4-1.27-.4-1.27,0,0,.79,4.45,4.84,8,9.76-2.62-2.86-5.8-6.67-7.14-7.46-.64-.08,1.58,2.7,6.66,8.5a68.48,68.48,0,0,1-7-7.39c-.64.55,2.14,4,6.19,8.5l-6.35-6.67c-.88-.56-1-.48-.56.31a85.33,85.33,0,0,0,8.81,12.07c.4.48.08-.95.4-.39a14.64,14.64,0,0,0,2.3,3.41c.48-.4-1-1.75-1.27-3.33l4.53,5.23c.39-.71-2.22-3.8-4.37-6.51l.32-.31,5.16,6.74.24-.08c-.79-2.21-3.18-4.92-4.76-7.38l.15-.56c1,1.2,2.23,3,3.26,4.53,1.51,2.15,2.86,4,3.25,4.21,1.91.47-4.52-6.28-7.46-11.91l.08-.31c3.49,5.31,6.59,10.16,10,12.38.39.24.71-.24.31-.72-3.09-3.65-6.74-7.62-9-11.19l.16-.32c3.33,4,5.08,8.5,11.43,12.31.4.23.64.63,1,.31,1.43-1.11-5.48-2.77-10.8-11.75l.08-.63c2,2.7,2.3,3.5,4.12,5.39,2.54,2.79,6.52,6,7.15,5.56s-5.71-4.92-9.13-10.23l.16-.16c2.7,3.73,6.51,8.26,12.07,11.11.79.4.48.32,1.43.32,2.46.16-5.48-3.89-9.61-8.42l.08-.4c1.19,1,2.7,2.38,4.37,3.74a65.78,65.78,0,0,0,5.71,3.65c1.51.79,2.7,1.27,3.26,1,1.43-.72-5.48-3.17-7.23-5,1,.55,2.07,1,2.94,1.35,3,1.51,5.16,2.54,5.64,2,.32-.4-1.27-1.28-4-2.31-.32-.32-.08-.4.72-.23,3.17,1.26,5,2.14,5.39,1.9,1-.32-.63-1-2.54-2.23,2.38,1,4.45,2,5.56,1.68.4-.09-1.35-1-2.86-2.39,2.14,1.35,7.23,3.18,2.38-.24l.32-.15c1.83,1.34,4.13,1.9,1.35-.33h.4c1.59,1.28,2.46,2.23,1.27-.39,1.59,2.3,3.17,3.18,1-.16l2.46,1.91c-.87.4-.79.63,0,1.11,2.06,1.35,2.23,1.12,1.83,0a4.26,4.26,0,0,0-2-4.45c-1.58-1-1.51.16.32,3a7,7,0,0,1-1.66-1.82,2,2,0,0,0-1.83-1,93.89,93.89,0,0,0-10.88,1.27C124.5,103.7,122.43,103.3,121.48,102.67Z"></path> <path class="cls-1" d="M83.77,0H0V157.61c0,17,11,29,32.08,29H51.77c15.09,0,24.85,5.24,32,12.31,7.14-7.07,16.83-12.31,32-12.31h19.69c21.12,0,32-12,32-29V0Zm74.48,114.25a.75.75,0,0,1-.8.4c-2.54-1-4.84-3-5.08-5,0-1.35.87-2,2-3s.55-2.86-.64-4.92c-1.75.16-2.14-1.51-2-4.05l-4.93-5.16c-1.27-1.26-1.91-1.91-3.17-.31-3.42,3.81-6.83,7.3-8.82,8.41v.87a12.28,12.28,0,0,0,4.53-.24c1.74-1,4.52.88,4.68,4.69.64.32.95,1,1.35,2.23a25.62,25.62,0,0,0,4.45,5.63c1.51,1.28,2,3.18,2.06,6.83a12.19,12.19,0,0,0,1.83,5.4,11.06,11.06,0,0,1,1.51,4.45c.08,2.93-1,3.49-3,1.82l-3.1-2.22c-1-.56-1.18-1.66-.47-3.41,1.27-2.71,1.11-4.85-.32-6.44-1.59-1.34-2.7-2.62-2.23-3.57a2.19,2.19,0,0,0-.39-2.78l-4.52-4.69c-1-1-1.67-1.67-3.66-.87l-4.44,1.35a44.72,44.72,0,0,1-18.5,5.8c-.56.08-1.52.64-2.07.71l5,7.22.8-1.26.47,2.38c1.67-2.86,4.85-2.7,4.77.31a18.69,18.69,0,0,0,3.49,6.36l.56.32c2-1.59,3.57.87,4.92,5.16l1.9,3.09a6.4,6.4,0,0,1,2.07,3.34c.56.88,1.35.79,1.35,1.11s-.24.72-1,1h-2c0,1.83.32,2.07,1,2.15-1,.63-1.83.87-2.47.55-.08,4.61-.79,7.55-2.3,8.26-2.14,3.65-3.81,5.48-5.88,5.8-.47,1-1.11,1.5-1.42,2.22-.88,1.67-1.19,2.54-1.91,2.3-1.43-.55-1.67.24-.63,1.91,1,1.27,2.46,1.19,4.36.31,1.91-1.66,3.34-1.58,4.45.32,2-.55,3.1-.15,3.33,1.2,1.83,1.5,1.59,2.7.08,3.49,1-1.75-2.54-3.73-3.41-1.35,2.06-.08.47,4-1.11,4.76,1.74-2.94-1.2-3.65-3.89-1.83a2.84,2.84,0,0,1,.23,3c-2.3-3.18-5.39-3.42-9.28-2.39a14.3,14.3,0,0,0-2.55.48c-2,.07-3-.4-3.25-1.51l-2.23.24c-3.17,2.06-6.43-1-6.19,2.78-1-2-1-3.5,1.11-4.13,0-1.67,1.59-2.07,3.89-2,0-1.27-.24-2-.79-2.06-.64.16-1-.47-.88-2.22.24-1.19-3.33-1.19-5.71.71-.8,1-1.67.87-2.54-.4-.8-.71-1.43-.79-2.07-.31l-1.19-.4a8.07,8.07,0,0,0-4.2-1.11,11.8,11.8,0,0,1-3.18-.4c-1.43-.56-2.14-2.45-4-2-3.42.71-2.78,4.36,3.26,5.95,1.43-1.35,2.46-1.27,2.93.08,2.07.48,3,1.43,2.78,3-1-1-2.06-1.51-3.1-1-1.18,2.14-1.42-.48-2,1.27,3.26.16,4,1.9,2.86,5.16-.32-2.22-.72-3.26-2.38-1.6a9.57,9.57,0,0,1-5.24-1c-3.74-.71-5.88-.63-4.53,1a1.36,1.36,0,0,1,.48,1.75l-.4,1.5c-.32-1.67-2.07-1.58-3.1-1.67-4.21-2.54-4-.31-5.87-2.29a1.91,1.91,0,0,0-1.75-1,4.86,4.86,0,0,0-4-.08c-1.27.56-2.78.16-4.21.24-.79-.48-2.3-.32-3.09,1.58-.08-2.53.71-4.12,3.41-4.28.4-2.38,2.54-2.54,5.48-1.83,2.78-.15,4-.95,1.82-3.09-4.12-1.83-2.69-4.68,1.12-8-.08-3.18-1.51-2.14-1.43-5.4-.8-1.42-2.3-1.51-4.61-.24,2.38,7.23-.79,12.54-7.22,13.11-4.85.39-7.39-1.51-9.77-5.64a9.9,9.9,0,0,1,0-8.74,53.89,53.89,0,0,1-10.08-2.7l-.56.87c-1.19,3.1-.4,6.28,3.34,9.61,1.26,2.15,2.46,3.41,2.14,5.16,0,.4.08.72-.32.79-3.81.4-6.51-.47-7.62-2.06a4,4,0,0,1,.32-3.49c-.4-3.1-1-5.56-2.3-7.07-1.75-1.43-2.23-2.7-1.59-3.73l2-2.54-.24-.64c-7.46-5.16-7.22-11.67-2-20.16a11.17,11.17,0,0,0,.79-11.12c-.63-1.43-1.11-1.59-2-.24A5.53,5.53,0,0,1,23,117c-3,.87-4.92,5.48-5.72,14.53l-.47.24c-3.74-8.26-4.37-14.7-.24-20.73,1.67-2.46,1-4.92-1.12-5.64-3.81-2.22-5.16-4.84-4.92-7.77s2.62-6.28,6.83-5.4l-.24-3.9.56.08C20.09,90.91,21,94,19.29,98.54,18.5,97,17.71,95.6,15.64,95.6l-.08-.32c1.43-1.35.4-2.86-2.3-.31-1.91,1.82-1.19,4.6,2.62,7.7,1.91,1.1,2.86.63,3.26-.56,2.06-6.83,4.6-11.28,7.38-14.53,5.32-6.19,11.43-6,18.74-1.43a43.77,43.77,0,0,1,4.68,2.78c1.75,0,3.66-.8,5.64-1.27,1.75-.48,3.73-.48,5.48-.87l-.24-2.07c-1.59-.31-2.06-1.35-1.59-3.17-4.36-.24-3.89-1.43-6.67-3.73-5.63-4.69-13.57-3.58-21.67-.88-1.11.16-1.11-.56-.56-2.14a11.24,11.24,0,0,1,2.54-3.74A3.46,3.46,0,0,1,34,67.89c3.65-2.23,4.77-4.69,2.62-7.46-1.66-3.9,2.54-5.88,8.34-7.31a3.42,3.42,0,0,0,2.78-4.61c-.16-.31-.63-.39-1-.63L42,48.36c-.47-.4-.31-1-.16-1.67.32-1.27,2-3.34,5.32-6.11l-.39-3.42c-.4-.32-.48-.71-.72-1-.95-1-1.67-2.06-1.11-3.18-.56-.47-.87-1.82-1.11-3.49l-2.38-2.3c-1.19-1.2-1-2.06-.4-3.42.08-.39-.4-.87-.63-1.35l-7.07-10c-.16-1.19.24-1.91,1.27-2.07l8.26,10.17a4.68,4.68,0,0,0,2.54.55c.95,0,1.51.48,1.11,1.83l1.19,1.51a4.48,4.48,0,0,0,1.51,2.54c1.75.16,2.7,1.35,2.62,3.89l1.66,3.57c.25,1.27,1.52,1.19,3,.16l4-3.09c1.83-1.19,4-1.28,6.35.47L68,32c1-.79,3.25-.32,5.87.4a9.84,9.84,0,0,1,1.35-3.66c.24-5.32,1.51-8.25,3.34-9.76.64-1.27.55-1.59-.4-1-1.75.71-3.34,1-4.68.23-3.58.08-5.88-.71-7.07-2.29,2.06.15,3.33.07,4-.4a11.4,11.4,0,0,1-4.69-3.42c-.31-.63-.15-1,.64-.87,7,3,8-1.43,13.73-2.86a3,3,0,0,1,3.66.08,4.29,4.29,0,0,0,2.62,1.11h1.11c1-.63,1.59,0,1.82,1.91a6.42,6.42,0,0,1-1.19,4.36c-.31.4-1.66.24-1.34,1.59,1.66,2,2.53,4.84,2.22,9.29h-.32l.4,2.94h-.48l.08,4.52.56.24c3.89-2.93,7.62-4.84,10.64-2.3a22.37,22.37,0,0,0,3.09-.48l5.56-.31a8.15,8.15,0,0,0-1.91-2.63c-.23-.47-.07-.79.88-.63l4.37.71c.87.08.08-.79-.08-1.11-1-1.82,1.74-.47,4.29,2,.71.79,1.43,1.43,2,1.27,4.05-1.2,6.75-.72,7.54,2.22L127,35.49l-1.43-.32.08.48L125,36a4.59,4.59,0,0,1,1.74,3.73,1.88,1.88,0,0,0,.32,1,51.41,51.41,0,0,0,7,9.37l1.66,1c.72.55.8,1.82.56,3.49.56,2.06-.08,3.57-2.06,3.57-1.11-1.11-2.15-1.83-2.94-1.83.71.72,2.14,1.59,1.91,2.07-.64,1.51-3.18.4-5.17-1.75-1.34-1.34-4.76-2.22-9.29-2.7,1.2,5.56,4.45,11.6,6.83,18.82,4.45,4.61,8.5,9.37,9,15.32,0,1.28.79,2.54,2,1.75l4.76-3.33c2.47-4.92,6.36-3.74,6.28.79a59.38,59.38,0,0,0,7.85,9.85c2.47,1.74,2.39,3,2.15,5.32a12.14,12.14,0,0,0-.08,3l.87,2.94A8.27,8.27,0,0,1,158.25,114.25Z"></path> <path class="cls-1" d="M156.34,105c-.24-.4-.4-.47-.48,0l-.39,1.83c-.09.48.07.88.63,1.51a1.46,1.46,0,0,0,1.27.56c.4-.08.48-.4.32-1A5.37,5.37,0,0,0,156.34,105Z"></path> <path class="cls-1" d="M136.17,92.18l-.31.72-.4-1c-.64-.24-.72.16-.64,1.27.08,1,.16,1.43.64,1.43l.55-1.11-.47,3.09c.32,1.35.55.48.87,0l.16-3.41C136.81,92.18,136.73,91.87,136.17,92.18Z"></path> <path class="cls-1" d="M145.38,85.67l1-.31c0-.24-.16-.56-.64-.8a1.27,1.27,0,0,0-1.75.24,1.47,1.47,0,0,0,0,2c.4.55.56.39.56-.32a1.21,1.21,0,0,1,1.58.24c.56.87,1.12-.16.49-.72Z"></path> <path class="cls-1" d="M108.62,142.84c.16.64.79,1.28.95,1.91a1.91,1.91,0,0,0-.47-1.91C108.78,142.53,108.54,142.44,108.62,142.84Z"></path> <path class="cls-1" d="M140.3,91.47l-.39-.24c.63-1.75.94-3-.48-.71-.4-.4-.72-.32-1,.39a15.82,15.82,0,0,0-1,4.6c.16.72.4.57.72-.39l.39-2.06c.4,1.11,1.28.79,2.55-.79C141.33,90.83,142.05,88.22,140.3,91.47Z"></path> <path class="cls-1" d="M112.51,162.13c.08-.07.08-.15.16-.23.08.08.08.16.16.23-.08.09-.16.17-.32.32-.24.32-.32.73-.16.8s.4-.07.71-.4c0-.08.08-.16.17-.23.31.63.23.79.39.71a2,2,0,0,0-.39-1.67c-.17-.24-.64-.4-.8-.71s-.08-.48-.24-.88c-.47-1-.71-1.58-1.19-1.19-.23.16-.16.49,0,.8-.23.32-.31.63-.23.71s.31,0,.55-.16c.08.08.08.16.24.32a.17.17,0,0,0-.16.16c-.32.4-.4.79-.24.95s.56-.08.87-.48c.09,0,.09.08.16.16s-.24.16-.31.32c-.32.4-.4.87-.24,1S112.19,162.53,112.51,162.13Z"></path> <path class="cls-1" d="M112,173c-.15,0-.15.39-.08.79s.4.71.56.63.16-.39.08-.79S112.19,172.93,112,173Z"></path> <path class="cls-1" d="M113,172.85c-.16.09-.16.32-.08.56s.23.48.32.48.16-.32.07-.56S113.06,172.85,113,172.85Z"></path> <path class="cls-1" d="M113.23,163.41c-.17-.16-.64.07-1,.55s-.47,1-.24,1.11.56-.07,1-.55S113.46,163.56,113.23,163.41Z"></path> <path class="cls-1" d="M112.43,136.33a4.55,4.55,0,0,0-2.7-2.94,8.68,8.68,0,0,1,2.15,3.5C112.43,137.52,112.51,137.13,112.43,136.33Z"></path> <path class="cls-1" d="M108.3,139.9c.8.72,1.11,1.91,1.75,2.63.4.47.47.08.32-.48C109.81,140.54,109.34,140.46,108.3,139.9Z"></path> <path class="cls-1" d="M109.1,134.58c1.11,1.12,1.67,3.41,2,4.53.24.79.64.24.64-.63a4.3,4.3,0,0,0-2.62-3.9Z"></path> <path class="cls-1" d="M111,140.14c-.63-2.22-1.19-2.38-2.54-3.33h0c1,1.18,1.19,2.86,2,4C110.92,141.49,111.16,141,111,140.14Z"></path> <path class="cls-1" d="M119.1,172.7c.8-.24,1.19-.72,2.3.15.4-.47.8,0,1.2.4,0-.55.07-1.35-.56-1.51A2.16,2.16,0,0,0,119.1,172.7Z"></path> <path class="cls-1" d="M121.8,158.25c-.24-.08-.71.39-1,1.12s-.48,1.34-.24,1.42.64-.48,1-1.11.4-1.35.24-1.43Z"></path> <path class="cls-1" d="M122.36,159.44c-.16.47-.24.95-.16.95s.47-.24.63-.71.24-1,.16-1S122.6,159,122.36,159.44Z"></path> <path class="cls-1" d="M114.81,173a.45.45,0,0,0-.47.47.44.44,0,0,0,.47.4c.32,0,.56-.16.56-.4S115.13,173,114.81,173Z"></path> <path class="cls-1" d="M124.66,137.92c.63,1,1.27,1.19,1.82.87v2.14l.8-.63.24,1.75.87-1.12.32,3.11c.4.08.55-.49.55-1.67l.24,1.67c.24.87.48,1,.56.16l-.24-3.34-.64,1,.08-1.2c-1.19-.71-1.66-1.11-1.35-1.43,2.15,1.27,2.86.95,2.86-.08-.16-1.35.56-1.43.72,0,0,1.35-.32,1.91-1.11,1.74,0,2.38.39,3.9,1.19,4.85.39-1.66-.72-2.54-.72-4.05.8.88,1.19,3.81,3.18,4.68.31-.78-.56-2.37-1.91-4.28,1.51,1.42,2.86,2.3,4,2.38-.79-1.83-2.38-1.43-3.73-3.26,1,0,1.11,1.19,2.22,1.36a5.78,5.78,0,0,0-2.22-2.62l.87-.09c-.15-1.11-1.19-.55-1.43-1.82l1,.4c-.32-1.75-3-1.59-2.86-.8.08,1.67-1,1.27-1.35-.31-.39-1.36,0-1.67.79-1.43,1.19.39,1.27-1.75-.08-1.51.08-.32.32-.4.72-.4a2.48,2.48,0,0,0-1.43-.88l.4-.31c.15-.4-.08-.64-.72-.64-.79.24-1.27.72-1,1.67.24.4.47.4.88.48s.39.47.23.71c-1.35.16-2.06.95-1.67,2.54A2.53,2.53,0,0,1,124.66,137.92Z"></path> <polygon class="cls-1" points="114.02 167.85 114.02 167.85 114.02 167.85 114.02 167.85"></polygon> <path class="cls-1" d="M118.3,158.09c-.23.55-.31,1-.15,1.11s.47-.32.71-.87.32-1.12.16-1.19S118.55,157.45,118.3,158.09Z"></path> <path class="cls-1" d="M114,167.85c-1.35.72-1.67,1.51-.4,2.31.88.55,1.35.63,1.51.23C116.72,170.08,114.5,169.2,114,167.85Z"></path> <path class="cls-1" d="M31.68,127.2a1.77,1.77,0,0,0-1.59-.4l-1.35.64C30.17,127.67,31.36,127.6,31.68,127.2Z"></path> <path class="cls-1" d="M46.05,158.64c0-.15-.47-.39-1.11-.55s-1.27,0-1.27.16.48.47,1.11.55S46,158.88,46.05,158.64Z"></path> <path class="cls-1" d="M61.69,91.78c0,.25.72.33,1.59.33s1.59-.08,1.59-.33-.72-.31-1.59-.31S61.69,91.63,61.69,91.78Z"></path> <path class="cls-1" d="M63,117.83l-.15,1.43c0,.32.71.16.71-.09l.16-1.42C63.76,117.35,63.12,117.52,63,117.83Z"></path> <path class="cls-1" d="M18.82,111.63c.08-.94-.16-1.66-.79-.63-1,1.83-2.07,2.7-2.47,4.21A12.39,12.39,0,0,0,18.82,111.63Z"></path> <path class="cls-1" d="M62.09,119.65c0,.25.16.41.24.41a.37.37,0,0,0,.32-.41.36.36,0,0,0-.32-.39C62.25,119.26,62.09,119.42,62.09,119.65Z"></path> <path class="cls-1" d="M15.72,122.27a3.74,3.74,0,0,0,.56,2c0-1,.55-1,.4-2.22C16.52,121.4,15.8,121.33,15.72,122.27Z"></path> <path class="cls-1" d="M30.73,155.15l.79,3.34a1.73,1.73,0,0,0,1.27,1.9q3.69.36,1-1.9c0-.64-.56-1.28-1.43-2.07C32,155.23,31.76,154.75,30.73,155.15Z"></path> <path class="cls-1" d="M36.05,137.76l-2.54,3.73c1-1.9,1.66-3.57,1.51-4.2,1.58-1,1.82-3.1,1.9-5.57.32,1.2.8,1.67,1.35,1.36l.32-1.83.71,1.9a9,9,0,0,0,1-2.93l.15,2.62c.56-.08,1-.88,1.35-2.23-.08.88,0,1.67.48,2,.64-.71.4-2.46,1.27-2.94-.08,1.43.08,2.06.64,1.75l1-2.54c.32-.39.32.24.08,1.91.47.07.79-.32.79-1.44l.8-1.5a3,3,0,0,0,.16,2.3,10.5,10.5,0,0,0,1.42-2.87c-.39,1.76-.23,2.56.48,2.39l.8-2.93c-.17,1.34-.08,2.3.39,2.38a6.31,6.31,0,0,1,1.83-3.42l-.24,1.67c.08,1.35,1-.16,2.23-2.94l.23,1.75a5.39,5.39,0,0,0,1.43-2.78l.56.87.55-1.5c-.4-.32-1-.17-1.66.16-3,1.34-6,.87-8.1,2.3l-.64-.33a12.09,12.09,0,0,0,3-5.47l.16.48-1,3.89a11.73,11.73,0,0,0,2.15-4.62c.24-.71.48-.87.87-.39l-.87,2.31c-.95,1.74-1.27,2.46-1,2.7a15.4,15.4,0,0,0,3.34-6.44c-.08,1.43-.32,2.86-2,5.8l.39-.08c1.19-.72,1.91-3,2.86-6.27l.47-.08-1.5,4.45c-.56,1.1-.48,1.35.24,1.18l2.38-6.51L55,119.42h.55L57,115.21l-.55,4.21,1.66-6.12.32.08-.4,3.81c.32.87,1.43.16.56-.32l1.19-6.9.48-.4a39.08,39.08,0,0,1-1,7.39c.88-1.12,1.51-4.29,2-8.18a.93.93,0,0,1,.79-.87c-.4,2.78-1,5.39-1.43,7.3-.16,1,.56,1.12.72.08L63,106.24l-.39,7.3.39-.31a49.08,49.08,0,0,0,1.35-12.07l.48-4.37c.24-1,0-1.59-.79-1.67-2.39-.48-4.85.39-7.54,2.23V97c2.37-1.83,4.92-2.94,7.93-2.46l.32-.64c-4.29-1-7.7.71-10.64,3.74l-.48-.16a12.59,12.59,0,0,1,10.8-4.29l.48-.41c-2.7,0-5.16-.15-7.22.72-5.88,2.39-9.06,8.9-9.85,17.71l-.24.24c.79-11.6,4.84-15,9.13-18l.16-.55c-5.08,2.86-6.19,4.21-8,7.79-2.62,5.15-3.18,12.53-2.62,19.84a7.54,7.54,0,0,1-.71,3.41l-.32.16a6,6,0,0,0,.55-2.22,61.32,61.32,0,0,1,.8-16.83A21.41,21.41,0,0,1,52.48,94.8l.08-.55c-.55.55-1.27.72-1.9,1.35a18.13,18.13,0,0,0-1.35,1.91,20.92,20.92,0,0,0-3.58,8.57c-.79,3.81-.79,9.37-1,15.88l-.23.56a48.38,48.38,0,0,1,0-7.71c.07-11,2.93-19.13,9.84-23.34l.24-.71c-7.7,3.09-12.71,11-11.83,28.89.07,4.14-1.27,7.79-5.16,9.93-1.83,1-3.26,2.07-3.42,4.37-.55,6.43-3.41,11.19-6.35,16-1.19,1.91,1.19,3,1.75.87,1.74.88,2.62-.24,1.9-2l.72-.32v-1.27l.79-.08-.08-.95.64-.55c.24-1.28-.48-2.08-.64-1.43-.87,2.06-1.59,3.57-2.7,4.28a15.62,15.62,0,0,0,2.46-5.08c.48.32,1,.47,1.35,0l2.62-4.29C36.84,137.92,36.6,137.6,36.05,137.76Z"></path> <path class="cls-1" d="M59.71,121.17c0,.32.16.47.39.47s.4-.15.4-.47a.44.44,0,0,0-.4-.48A.45.45,0,0,0,59.71,121.17Z"></path> <polygon class="cls-1" points="54.71 121 55.02 121.17 55.34 120.13 54.87 120.13 54.71 121"></polygon> <path class="cls-1" d="M36.52,145.23l-.79,1.66c1.43-.87,2.54-2,2.54-2.54A2.22,2.22,0,0,0,36.52,145.23Z"></path> <path class="cls-1" d="M39.3,145.23a6.26,6.26,0,0,1,.8.16,1,1,0,0,0-.32.31l-.56,1.12a7.76,7.76,0,0,0,1.67-1.36h.48a4.07,4.07,0,0,0-.56.48l-.71,1.35c1.19-.63,2.14-1.51,2.22-2h.08a2.17,2.17,0,0,0-1.67-.63Z"></path> <path class="cls-1" d="M58.84,121.25l-.08,1c-.08.56.55.32.55,0v-1C59.23,120.69,58.84,120.85,58.84,121.25Z"></path> <path class="cls-1" d="M34.22,161.82c-.24,0-.4.48-.4,1s.4.87.64.79.48-.47.4-.94S34.54,161.74,34.22,161.82Z"></path> <path class="cls-1" d="M57.49,122V123c0,.47.71.4.71.08l-.08-.95C58.12,121.64,57.49,121.64,57.49,122Z"></path> <path class="cls-1" d="M61,119.81l.16,1.12c0,.56.79.24.71-.08l-.16-1.11C61.61,119.11,61,119.42,61,119.81Z"></path> <path class="cls-1" d="M73,174.92c-.4,0-.64.16-.64.32s.4.23.8.23.71-.08.63-.23S73.45,174.92,73,174.92Z"></path> <path class="cls-1" d="M61.85,77.42h0c-.39.71-.63,1.42-.47,1.59s.71-.17,1.19-.88.63-1.35.47-1.59S62.33,76.7,61.85,77.42Z"></path> <polygon class="cls-1" points="47.56 90.44 44.47 91 47.4 91.07 47.56 90.44"></polygon> <path class="cls-1" d="M29.78,126.09c.71,0,1.43-.08,1.5-.32a.84.84,0,0,0-.87-.08Z"></path> <path class="cls-1" d="M27.79,135.37a1.75,1.75,0,0,0-1.75.09l-1.19,1C26.28,136.25,27.63,135.77,27.79,135.37Z"></path> <path class="cls-1" d="M27.47,133.87a1.64,1.64,0,0,0-1.66.24l-1,1.11C26.2,134.9,27.32,134.34,27.47,133.87Z"></path> <path class="cls-1" d="M32.48,122.59a1.28,1.28,0,0,0-1.12-.55l-1,.23C31.28,122.67,32.24,122.83,32.48,122.59Z"></path> <path class="cls-1" d="M28,136.57a1.8,1.8,0,0,0-1.67.07l-1.11,1C26.52,137.44,27.71,137,28,136.57Z"></path> <path class="cls-1" d="M32,123.39a1.51,1.51,0,0,0-1.43,0l-1,.79C30.73,124,31.76,123.79,32,123.39Z"></path> <path class="cls-1" d="M28.59,141.41a2.31,2.31,0,0,0-1.36,1.51c.56.16,1.83-.63,3.1-1.75Z"></path> <path class="cls-1" d="M29.7,143.31a1.61,1.61,0,0,0-.88-.07l-.71.4h0C28.9,143.72,29.62,143.55,29.7,143.31Z"></path> <path class="cls-1" d="M28.19,140.38a1.46,1.46,0,0,0-1.19,1c.4.17,1.51-.31,2.54-1Z"></path> <path class="cls-1" d="M27.47,131.72a1.35,1.35,0,0,0-1.19.17l-.79.87C26.52,132.52,27.4,132.12,27.47,131.72Z"></path> <path class="cls-1" d="M27.63,137.84a1.34,1.34,0,0,0-1.19.15l-.72.8C26.68,138.56,27.55,138.16,27.63,137.84Z"></path> <path class="cls-1" d="M29,108.86c5.72,6.59,6.75,14.06,2.07,22.71-1.75,4.2-1.51,6.91.79,8.18a23.94,23.94,0,0,0,1.51-6c.47-3.57,2.78-3.18,5.79-6.27,3.26-3.34,2.31-6.83,2-12.38-.55-11.92,1.9-18.83,5.4-22.72C37.63,90,32.24,96.55,29,108.86Z"></path> <path class="cls-1" d="M32.4,163.18l1.19.3c0-.63-.56-1.18-1.51-1.66h.79c-.39-1.11-1.11-1.43-1.74-.56a2.54,2.54,0,0,0,.31,3.1,2,2,0,0,0,1.59.71l-.32-.87,1,.64C33.67,164.36,33.27,163.81,32.4,163.18Z"></path> <path class="cls-1" d="M40.81,88.29l1.51-.07A15.17,15.17,0,0,0,33,94.72l.48-.08a17.78,17.78,0,0,1,9.21-5.55l.47.08A15.28,15.28,0,0,0,38,91.78l.16.49c2.31-1.51,5.8-2.31,9.93-2.71h0C43,85,38,82.65,34.22,83.45,27.16,85,23.74,91.55,21.68,97.74c1.19-2.06,2.22-3.41,3.49-3.81a35.64,35.64,0,0,0-5.8,17.7,4.24,4.24,0,0,1-1.26,2.07c-2.23,1.67-2.07,3-2.47,4.36a15.12,15.12,0,0,0,1.75-2.22,10.82,10.82,0,0,0,2.54-4.52c.72-2.78,1-5.56,1.59-7.62a26.33,26.33,0,0,1,3-6.91c2.54-4.21,5.79-8,9.52-9.61v.32c-3.65,2-6.27,5-9.21,9.69a24.4,24.4,0,0,0-1.83,4,17.32,17.32,0,0,0-1.43,5.24c-.47,4.29-1.5,7.07-2.69,8.74s-2.07,2.38-2.31,3.16a4.07,4.07,0,0,0-.39,1.91c2.78-5.24,4.05-4.76,5.24-8.49,1.66-5.72.55-11.6,8.18-19.94h.55C26.52,96,24.06,100,22.79,108.46a17.12,17.12,0,0,1-1.11,4.6c-.95,1.84-2.94,3.27-3.49,5.09l.39-.09a21.28,21.28,0,0,0,3.57-4.68c2.31-4.44,1.51-10.4,4.45-15.16C30.41,92,33.35,88.69,38,86.87l.56-.08c-6.43,3.41-7.54,5.87-10.32,9.68a15.65,15.65,0,0,0-2.46,4.92,51.54,51.54,0,0,0-1.59,7.7,13.15,13.15,0,0,1-2.94,6.68c-.72.87-1.27,1.27-1.83,2.06a11.82,11.82,0,0,0-1.19,3l.4-.16c1.75-4.68,2.78-3.65,4.05-5.24a11.75,11.75,0,0,0,2.14-5.08,29.83,29.83,0,0,1,3-11.12A31.11,31.11,0,0,1,35.1,89.8a10.72,10.72,0,0,1,4.2-2.3h.4c-2.14,1.43-3.57,1.83-5.24,3.41a29,29,0,0,0-6.59,9.61,35,35,0,0,0-2.46,10c.08-.47.31.24.48-.15,1.43-8.26,4.36-14.06,8.09-17.79A15.07,15.07,0,0,1,40.81,88.29Z"></path> <polygon class="cls-1" points="67.01 153.56 67.01 153.57 67.01 153.56 67.01 153.56"></polygon> <path class="cls-1" d="M66,132.2l-1-.87c-.16-.16-.72.16-.4.48l.8.87C65.66,132.84,66.22,132.44,66,132.2Z"></path> <path class="cls-1" d="M70.74,127.84l-1.51-1.27c-.39-.32-.87.23-.47.63l1.43,1.35C70.51,128.79,71.14,128.24,70.74,127.84Z"></path> <path class="cls-1" d="M66.7,162.45c.07-.47-.32-.71-.64-.32a1.68,1.68,0,0,0-.08,2c.56.72,1,.08.88-.31A1.68,1.68,0,0,1,66.7,162.45Z"></path> <path class="cls-1" d="M71.78,127.27l-1.27-1.1c-.32-.24-.72.24-.4.56l1.19,1.18C71.54,128.16,72.09,127.6,71.78,127.27Z"></path> <path class="cls-1" d="M65.35,131.17l.79.79c.16.16.63-.15.4-.39l-.8-.79C65.58,130.61,65.19,130.93,65.35,131.17Z"></path> <path class="cls-1" d="M68.44,130,67,128.55c-.39-.24-1.11.32-.79.72l1.43,1.43C67.89,131,68.84,130.38,68.44,130Z"></path> <path class="cls-1" d="M70,128.79l-1.74-1.52c-.4-.39-1,.25-.56.72l1.67,1.59C69.79,129.9,70.51,129.18,70,128.79Z"></path> <path class="cls-1" d="M73,173.49c-.16-.16-.88-.08-1.59.08s-1.27.48-1.11.64a2.28,2.28,0,0,0,1.59-.08C72.57,174,73.05,173.65,73,173.49Z"></path> <path class="cls-1" d="M56.06,92.66a10.51,10.51,0,0,1,5.63-1.51h2.39c1.19.08,1.35-1.19.07-1.19H60.82a7.48,7.48,0,0,0-5.08,1.75C55,92.27,55.11,93.06,56.06,92.66Z"></path> <path class="cls-1" d="M73.37,174.28c-.08-.15-.56-.15-1,0s-.87.32-.79.4.55.16,1.11.08S73.45,174.36,73.37,174.28Z"></path> <path class="cls-1" d="M71,156c.16,0,.32-.47.32-1s-.16-1-.32-1-.32.4-.32,1S70.82,156,71,156Z"></path> <path class="cls-1" d="M67.73,156.74c.24.24.56-.08.39-.64A4.77,4.77,0,0,1,67,153.57,4.1,4.1,0,0,0,67.73,156.74Z"></path> <path class="cls-1" d="M67.81,163a.33.33,0,0,0-.64-.09,1.57,1.57,0,0,0,.64,1.59c.63.32.79-.32.48-.56A1.56,1.56,0,0,1,67.81,163Z"></path> <path class="cls-1" d="M71.22,173.49c.64-.24,1.11-.47,1-.64s-.79-.07-1.43.08h0c-.63.16-1,.39-.95.55A2.07,2.07,0,0,0,71.22,173.49Z"></path> <path class="cls-1" d="M70.51,171.27c0-.16-.4-.32-.8-.32s-.71.16-.63.32.32.24.79.24S70.51,171.34,70.51,171.27Z"></path> <path class="cls-1" d="M46.93,149.36c-.48-.08-1.28.39-1.91,2.06a3.61,3.61,0,0,0,0,3.33l.24-1.9,1,1-.4-2.14,1.28,1.11C46.77,151.26,47.48,150,46.93,149.36Z"></path> <path class="cls-1" d="M56,157.06a1.16,1.16,0,0,0,.56.47c.07-.08,0-.39-.25-.71a.79.79,0,0,0-.47-.48C55.66,156.42,55.82,156.74,56,157.06Z"></path> <path class="cls-1" d="M54.15,159.91c-.16.09-.16.64.08,1.27s.48,1,.64,1,.24-.64,0-1.27S54.31,159.83,54.15,159.91Z"></path> <path class="cls-1" d="M51.13,144.91l-2,1.27H49v.16h0v.32l.08,1.66c.24-.79.56-1.59.79-2.22l.24,1.58c.16-.47.24-1,.4-1.5v.16l1.11,2.3c0-1,0-1.91-.08-2.78a.72.72,0,0,0,.4-.08l.79,1.75a15.18,15.18,0,0,1-.08-1.9H53l.55,1.19c0-.48-.07-1-.07-1.36.32-.07.48-.23.48-.32C54.15,144,52.48,144.27,51.13,144.91Z"></path> <path class="cls-1" d="M52.16,156c-1.42,1-1.5,2-.31,2.47C53.44,157.77,53.44,156.58,52.16,156Z"></path> <path class="cls-1" d="M67.25,130.93l-1-1c-.24-.24-.79.16-.48.48l.88.87C66.86,131.57,67.49,131.17,67.25,130.93Z"></path> <path class="cls-1" d="M46.21,145.46c-.87.32-1.27.24-1.83.95l-.31.8a5.67,5.67,0,0,0,1.19-1,3.7,3.7,0,0,0,.39.08c-.07.07-.23.15-.31.23l-.48,1.2a7,7,0,0,0,1.59-1.36H47a3.1,3.1,0,0,0-.48.48l-.64,1.43c1.12-.79,2.15-1.66,2.23-2.14C48.36,145.63,46.69,145.23,46.21,145.46Z"></path> <path class="cls-1" d="M55,144A7.89,7.89,0,0,1,63,142.29c.39-1.12-.72-2.39-3.42-3.73-2-1.59-1.67-3.26-.24-4.84l2.7-3.11c1.75-3.41,1.43-4.2-.95-2.45-5.64,2.62-10.8,5.23-15.48,6-4.85.79-7.79,3.25-9.06,8a5.66,5.66,0,0,1,3,1.51c2.3-.41,3.65-.08,4.13,1.11a6.12,6.12,0,0,1,4.92.31C51.38,143.8,53.36,143.55,55,144Z"></path> <path class="cls-1" d="M56.29,158.25c-.31-.48-.63-.72-.79-.64s0,.48.32,1,.64.71.79.63,0-.48-.32-.95Z"></path> <path class="cls-1" d="M45.58,160.39c-.4-.08-.8,0-.8.16s.32.24.72.32a1.31,1.31,0,0,0,.87-.08C46.37,160.63,46.05,160.47,45.58,160.39Z"></path> <path class="cls-1" d="M59.47,142.84c-2,.24-3,1-3,2.39A2.47,2.47,0,0,1,58,143.72L57.8,145l.56-1.35a8.75,8.75,0,0,1,.87-.24l-.24.4-.79,1.66L59.31,144l.48-.73h.63L60,144l-1,1.51,1.19-1.34.71-.72c.16,0,.32.08.48.08l-.4.64-1,1.58,1.2-1.35.71-.71a7.78,7.78,0,0,1,1,.31l-.23.88-.56,1.74.87-1.58.4-1h.24C64.55,143,61.77,142.53,59.47,142.84Z"></path> <path class="cls-1" d="M55,159c-.16.08-.08.48.08.87s.47.64.55.56.08-.39-.08-.79S55.11,159,55,159Z"></path> <path class="cls-1" d="M66.62,114.49c0,1.2.31,1.91.95,2,.48-.32.64-1.2,1-2.24H69a4.52,4.52,0,0,0-.16,3.66c.48-.56.79-1.74,1.11-3.74l.24.25a12.11,12.11,0,0,0-.08,3.41c.48-.24,1-1.66,1.51-3.73a6.13,6.13,0,0,0,.24,2.94,10.74,10.74,0,0,0,1.59-3.42c-.24,2.15-.32,3.49.08,3.42,1-1.43.63-2.79,1.82-3.89-.16,1.27-1,2.94-.48,3.81,1.28-.32,1-2.31,1.75-4.21-.08,2.06,0,3.42.4,3.09a7.46,7.46,0,0,0,.79-2.78c.08-.71,0-1-.55-1L66.62,113.7c-1,.08-1.51.4-1.67,1a10,10,0,0,0-.56,4A7.33,7.33,0,0,0,66.62,114.49Z"></path> <path class="cls-1" d="M46.13,159.83c0-.15-.4-.39-1-.46s-1,0-1,.14.39.32,1,.49S46.13,160,46.13,159.83Z"></path> <path class="cls-2" d="M212.22,10.81h20.86V41.06h3.09v12h-4v-8H209.45v8h-4v-12h2.67q4.14-6.24,4.15-25.24v-5Zm16.32,4h-12v1.75c0,2.92-.25,6.9-.78,12a39.26,39.26,0,0,1-3.07,12.48h15.81Z"></path> <path class="cls-2" d="M258,37.11l4.36.53a10.69,10.69,0,0,1-3.81,5.93,11.59,11.59,0,0,1-7.12,2.1,11.36,11.36,0,0,1-8.64-3.36q-3.2-3.35-3.19-9.41,0-6.28,3.22-9.74a10.94,10.94,0,0,1,8.38-3.46,10.62,10.62,0,0,1,8.14,3.39c2.11,2.26,3.16,5.45,3.16,9.54,0,.26,0,.63,0,1.13H244A9.55,9.55,0,0,0,246.27,40a6.91,6.91,0,0,0,5.2,2.18A6.47,6.47,0,0,0,255.42,41,8,8,0,0,0,258,37.11Zm-13.82-6.82h13.87a8.36,8.36,0,0,0-1.59-4.69,6.46,6.46,0,0,0-5.21-2.44,6.72,6.72,0,0,0-4.88,1.94A7.69,7.69,0,0,0,244.19,30.29Z"></path> <polygon class="cls-2" points="267.68 20.26 287.29 20.26 287.29 45.11 283.07 45.11 283.07 23.75 271.89 23.75 271.89 45.11 267.68 45.11 267.68 20.26"></polygon> <path class="cls-2" d="M309.82,42a15.89,15.89,0,0,1-4.51,2.81,13.12,13.12,0,0,1-4.64.82,9.06,9.06,0,0,1-6.3-2,6.61,6.61,0,0,1-2.19-5.11,6.76,6.76,0,0,1,.83-3.34,6.87,6.87,0,0,1,2.17-2.42,10.21,10.21,0,0,1,3-1.38,29.34,29.34,0,0,1,3.74-.63,38.24,38.24,0,0,0,7.52-1.46c0-.57,0-.94,0-1.09a4.59,4.59,0,0,0-1.2-3.62,7,7,0,0,0-4.79-1.43,7.5,7.5,0,0,0-4.39,1A6.41,6.41,0,0,0,297,27.91l-4.12-.56a10.24,10.24,0,0,1,1.85-4.27,8.06,8.06,0,0,1,3.72-2.5,16.45,16.45,0,0,1,5.64-.88,14.82,14.82,0,0,1,5.16.75,6.92,6.92,0,0,1,2.94,1.88,6.67,6.67,0,0,1,1.3,2.87,23.76,23.76,0,0,1,.21,3.88v5.61a59.29,59.29,0,0,0,.27,7.43,9.41,9.41,0,0,0,1.07,3h-4.4a8.76,8.76,0,0,1-.84-3.07Zm-.35-9.41a30.93,30.93,0,0,1-6.88,1.6,15.94,15.94,0,0,0-3.67.84,3.59,3.59,0,0,0-1.66,1.37,3.5,3.5,0,0,0-.59,2,3.63,3.63,0,0,0,1.27,2.81,5.54,5.54,0,0,0,3.73,1.12A8.68,8.68,0,0,0,306,41.31a6.6,6.6,0,0,0,2.79-2.92,10.18,10.18,0,0,0,.68-4.21Z"></path> <path class="cls-2" d="M320.25,54.63V20.26h3.84v3.23a9.32,9.32,0,0,1,3.07-2.84,8.38,8.38,0,0,1,4.13-.95,9.92,9.92,0,0,1,5.62,1.63A10.08,10.08,0,0,1,340.58,26a16.82,16.82,0,0,1,1.24,6.54,16.53,16.53,0,0,1-1.37,6.87,10.44,10.44,0,0,1-9.46,6.3,8,8,0,0,1-3.78-.89,8.59,8.59,0,0,1-2.75-2.24V54.63Zm3.81-21.81c0,3.2.65,5.56,1.94,7.1a6,6,0,0,0,4.71,2.29,6.09,6.09,0,0,0,4.81-2.38q2-2.37,2-7.36c0-3.17-.65-5.53-2-7.11A5.89,5.89,0,0,0,330.9,23a6.07,6.07,0,0,0-4.77,2.52Q324.06,28,324.06,32.82Z"></path> <polygon class="cls-2" points="343.57 20.26 363.77 20.26 363.77 23.75 355.77 23.75 355.77 45.11 351.57 45.11 351.57 23.75 343.57 23.75 343.57 20.26"></polygon> <path class="cls-2" d="M383.47,42a15.85,15.85,0,0,1-4.5,2.81,13.22,13.22,0,0,1-4.65.82,9,9,0,0,1-6.29-2,6.59,6.59,0,0,1-2.2-5.11,6.76,6.76,0,0,1,.83-3.34,6.87,6.87,0,0,1,2.17-2.42,10.15,10.15,0,0,1,3-1.38,29.12,29.12,0,0,1,3.73-.63,38.08,38.08,0,0,0,7.52-1.46c0-.57,0-.94,0-1.09A4.63,4.63,0,0,0,382,24.62a7,7,0,0,0-4.8-1.43,7.5,7.5,0,0,0-4.39,1,6.41,6.41,0,0,0-2.09,3.69l-4.11-.56a10.24,10.24,0,0,1,1.84-4.27,8.11,8.11,0,0,1,3.72-2.5,16.45,16.45,0,0,1,5.64-.88,14.92,14.92,0,0,1,5.17.75,6.88,6.88,0,0,1,2.93,1.88,6.8,6.8,0,0,1,1.31,2.87,25,25,0,0,1,.21,3.88v5.61a57.28,57.28,0,0,0,.27,7.43,9.15,9.15,0,0,0,1.06,3h-4.4a9,9,0,0,1-.84-3.07Zm-.35-9.41a30.79,30.79,0,0,1-6.88,1.6,15.94,15.94,0,0,0-3.67.84,3.68,3.68,0,0,0-1,6.18,5.5,5.5,0,0,0,3.73,1.12,8.64,8.64,0,0,0,4.32-1.06,6.55,6.55,0,0,0,2.79-2.92,10,10,0,0,0,.68-4.21Z"></path> <polygon class="cls-2" points="394.02 20.26 400.57 20.26 407.1 40.15 414.35 20.26 420.41 20.26 420.41 45.11 416.2 45.11 416.2 25.1 408.86 45.11 405.09 45.11 398.14 24.14 398.14 45.11 394.02 45.11 394.02 20.26"></polygon> <path class="cls-2" d="M443.85,37.11l4.35.53a10.58,10.58,0,0,1-3.81,5.93,11.56,11.56,0,0,1-7.11,2.1,11.33,11.33,0,0,1-8.64-3.36q-3.19-3.35-3.2-9.41,0-6.28,3.23-9.74a10.93,10.93,0,0,1,8.38-3.46,10.6,10.6,0,0,1,8.13,3.39c2.11,2.26,3.17,5.45,3.17,9.54,0,.26,0,.63,0,1.13H429.8A9.5,9.5,0,0,0,432.11,40a6.9,6.9,0,0,0,5.19,2.18A6.45,6.45,0,0,0,441.25,41a8,8,0,0,0,2.6-3.88ZM430,30.29H443.9a8.43,8.43,0,0,0-1.59-4.69,6.47,6.47,0,0,0-5.22-2.44,6.72,6.72,0,0,0-4.88,1.94A7.73,7.73,0,0,0,430,30.29Z"></path> <polygon class="cls-2" points="453.51 20.26 457.73 20.26 457.73 30.61 469.4 30.61 469.4 20.26 473.61 20.26 473.61 45.11 469.4 45.11 469.4 34.09 457.73 34.09 457.73 45.11 453.51 45.11 453.51 20.26"></polygon> <polygon class="cls-2" points="477.68 20.26 497.87 20.26 497.87 23.75 489.87 23.75 489.87 45.11 485.68 45.11 485.68 23.75 477.68 23.75 477.68 20.26"></polygon> <path class="cls-2" d="M208.54,73.79h4.21V84.52a4.09,4.09,0,0,0,2.82-.76,17,17,0,0,0,2.37-4.5,18.22,18.22,0,0,1,2-3.88,3.84,3.84,0,0,1,1.78-1.26,11.39,11.39,0,0,1,3.23-.33h.85v3.48l-1.18,0a3.07,3.07,0,0,0-2.12.5,12.06,12.06,0,0,0-1.5,3.06,12.42,12.42,0,0,1-1.76,3.36,7,7,0,0,1-2.45,1.71c1.8.49,3.59,2.17,5.33,5.06l4.61,7.7h-4.63l-4.5-7.7a10.3,10.3,0,0,0-2.4-3,4.07,4.07,0,0,0-2.46-.74V98.64h-4.21Z"></path> <path class="cls-2" d="M229.87,108.2l-.47-4a9.5,9.5,0,0,0,2.41.38,4.53,4.53,0,0,0,2.25-.48,3.76,3.76,0,0,0,1.38-1.31,19.41,19.41,0,0,0,1.28-3.13c.08-.24.21-.57.38-1l-9.42-24.89h4.53l5.18,14.38c.66,1.83,1.27,3.75,1.79,5.76a58.92,58.92,0,0,1,1.74-5.66l5.31-14.48h4.21L241,99.06a50.81,50.81,0,0,1-2.37,5.64,8.29,8.29,0,0,1-2.57,3,6.14,6.14,0,0,1-3.46,1A8.27,8.27,0,0,1,229.87,108.2Z"></path> <path class="cls-2" d="M255,73.79h19.56V98.64h-4.19V77.27H259.24V89.65a37,37,0,0,1-.28,5.71,4.22,4.22,0,0,1-1.55,2.41,5.63,5.63,0,0,1-3.65,1c-1,0-2.12-.06-3.4-.19v-3.5h1.86a4.65,4.65,0,0,0,1.87-.28,1.4,1.4,0,0,0,.75-.85,21.18,21.18,0,0,0,.18-3.82Z"></path> <path class="cls-2" d="M280.85,73.79h4.21v9.7h5.34c3.48,0,6.15.68,8,2a6.49,6.49,0,0,1,2.82,5.58,7,7,0,0,1-2.35,5.32q-2.34,2.22-7.52,2.22H280.85V73.79Zm4.21,21.38h4.43q4,0,5.71-1a3.3,3.3,0,0,0,1.7-3.06,3.94,3.94,0,0,0-1.27-2.88c-.83-.84-2.7-1.27-5.59-1.27h-5Z"></path> <polygon class="cls-2" points="299.87 73.79 320.06 73.79 320.06 77.27 312.06 77.27 312.06 98.64 307.87 98.64 307.87 77.27 299.87 77.27 299.87 73.79"></polygon> <path class="cls-2" d="M324.43,108.2l-.47-4a9.5,9.5,0,0,0,2.41.38,4.53,4.53,0,0,0,2.25-.48,3.76,3.76,0,0,0,1.38-1.31,19.41,19.41,0,0,0,1.28-3.13c.08-.24.21-.57.38-1l-9.42-24.89h4.53L332,88.17c.66,1.83,1.27,3.75,1.79,5.76a56.21,56.21,0,0,1,1.74-5.66l5.31-14.48H345l-9.45,25.27a50.81,50.81,0,0,1-2.37,5.64,8.29,8.29,0,0,1-2.57,3,6.14,6.14,0,0,1-3.46,1A8.27,8.27,0,0,1,324.43,108.2Z"></path> <path class="cls-2" d="M348,108.15V73.79h3.84V77A9.32,9.32,0,0,1,355,74.18a8.27,8.27,0,0,1,4.13-1,9.66,9.66,0,0,1,9.29,6.26A16.75,16.75,0,0,1,369.62,86a16.45,16.45,0,0,1-1.38,6.86,10.39,10.39,0,0,1-9.46,6.3,8,8,0,0,1-3.78-.88,8.49,8.49,0,0,1-2.75-2.25v12.09Zm3.81-21.8q0,4.8,1.94,7.09a6,6,0,0,0,4.71,2.3,6.09,6.09,0,0,0,4.81-2.38c1.33-1.58,2-4,2-7.36s-.65-5.53-2-7.11a5.86,5.86,0,0,0-4.66-2.37A6.07,6.07,0,0,0,353.92,79Q351.85,81.56,351.85,86.35Z"></path> <path class="cls-2" d="M398.34,73.79h4.22V98.64h-4.22V73.79Zm-23.56,0H379v9.7h5.33q5.22,0,8,2a6.52,6.52,0,0,1,2.82,5.58,7,7,0,0,1-2.36,5.32q-2.35,2.22-7.51,2.22H374.78V73.79ZM379,95.17h4.41c2.67,0,4.58-.33,5.71-1a3.28,3.28,0,0,0,1.71-3.06,4,4,0,0,0-1.26-2.88c-.85-.84-2.71-1.27-5.59-1.27h-5Z"></path> <polygon class="cls-2" points="208.58 127.32 222.88 127.32 222.88 130.8 212.8 130.8 212.8 152.16 208.58 152.16 208.58 127.32"></polygon> <path class="cls-2" d="M223.41,139.74q0-6.9,3.84-10.22a11.55,11.55,0,0,1,7.81-2.77,11.1,11.1,0,0,1,8.38,3.37q3.26,3.34,3.25,9.27a16.39,16.39,0,0,1-1.44,7.54,10.2,10.2,0,0,1-4.18,4.28,12.27,12.27,0,0,1-6,1.51,11.18,11.18,0,0,1-8.43-3.34q-3.23-3.34-3.22-9.64Zm4.33,0q0,4.77,2.08,7.15a6.94,6.94,0,0,0,10.47,0q2.07-2.38,2.07-7.28c0-3.07-.69-5.4-2.09-7a6.93,6.93,0,0,0-10.45,0Q227.74,135,227.74,139.74Z"></path> <path class="cls-2" d="M251.63,161.68V127.32h3.84v3.23a9.43,9.43,0,0,1,3.06-2.85,8.45,8.45,0,0,1,4.14-1,9.82,9.82,0,0,1,5.61,1.64A10.07,10.07,0,0,1,272,133a16.82,16.82,0,0,1,1.24,6.54,16.49,16.49,0,0,1-1.37,6.87,10.39,10.39,0,0,1-9.46,6.3,8,8,0,0,1-3.78-.88,8.49,8.49,0,0,1-2.75-2.25v12.09Zm3.81-21.8q0,4.8,1.94,7.09a6,6,0,0,0,4.71,2.3,6.06,6.06,0,0,0,4.8-2.38q2-2.38,2-7.36c0-3.17-.66-5.53-2-7.11a5.87,5.87,0,0,0-4.66-2.37,6.07,6.07,0,0,0-4.77,2.52C256.13,134.24,255.44,136.69,255.44,139.88Z"></path> <path class="cls-2" d="M276.71,139.74q0-6.9,3.84-10.22a11.55,11.55,0,0,1,7.81-2.77,11.12,11.12,0,0,1,8.38,3.37q3.25,3.34,3.25,9.27a16.39,16.39,0,0,1-1.44,7.54,10.26,10.26,0,0,1-4.18,4.28,12.27,12.27,0,0,1-6,1.51,11.18,11.18,0,0,1-8.43-3.34q-3.23-3.34-3.22-9.64Zm4.33,0q0,4.77,2.08,7.15a6.93,6.93,0,0,0,10.46,0c1.38-1.59,2.08-4,2.08-7.28q0-4.6-2.09-7a6.93,6.93,0,0,0-10.45,0Q281,135,281,139.74Z"></path> <path class="cls-2" d="M307.2,127.32h17.31V148.7h2.68v10.51h-3.45v-7.05H304.18v7.05h-3.47V148.7h2.22q4.45-6,4.27-21.38Zm3.5,3.48q-.46,12.1-3.74,17.9h13.36V130.8Z"></path> <path class="cls-2" d="M348,149.1a15.94,15.94,0,0,1-4.5,2.81,13.14,13.14,0,0,1-4.65.81,9,9,0,0,1-6.29-2,7,7,0,0,1-1.36-8.45,6.77,6.77,0,0,1,2.17-2.42,10.21,10.21,0,0,1,3-1.38,29,29,0,0,1,3.74-.63,38,38,0,0,0,7.51-1.46c0-.57,0-.94,0-1.09a4.63,4.63,0,0,0-1.2-3.63,7,7,0,0,0-4.79-1.43,7.5,7.5,0,0,0-4.39,1,6.42,6.42,0,0,0-2.1,3.69l-4.11-.57a10.25,10.25,0,0,1,1.85-4.26,8,8,0,0,1,3.72-2.51,16.7,16.7,0,0,1,5.64-.88,15.06,15.06,0,0,1,5.16.75,6.92,6.92,0,0,1,2.93,1.89,6.56,6.56,0,0,1,1.31,2.87,23.67,23.67,0,0,1,.21,3.88v5.61a59.29,59.29,0,0,0,.27,7.43,9.58,9.58,0,0,0,1.06,3h-4.4a9.15,9.15,0,0,1-.84-3.06Zm-.35-9.41a30.68,30.68,0,0,1-6.87,1.6,15.67,15.67,0,0,0-3.68.84,3.63,3.63,0,0,0-1.66,1.37,3.71,3.71,0,0,0,.69,4.81,5.52,5.52,0,0,0,3.73,1.12,8.69,8.69,0,0,0,4.33-1.07,6.56,6.56,0,0,0,2.78-2.91,10.05,10.05,0,0,0,.68-4.21Z"></path> <path class="cls-2" d="M372.19,152.16V117.87H379l8.12,24.28c.75,2.26,1.3,3.95,1.63,5.08q.59-1.87,1.83-5.5l8.21-23.86h6.11v34.29h-4.38v-28.7l-10,28.7h-4.1L376.56,123v29.19Z"></path> <path class="cls-2" d="M410.67,139.74q0-6.9,3.84-10.22a11.55,11.55,0,0,1,7.81-2.77,11.12,11.12,0,0,1,8.38,3.37q3.26,3.34,3.25,9.27a16.39,16.39,0,0,1-1.44,7.54,10.2,10.2,0,0,1-4.18,4.28,12.27,12.27,0,0,1-6,1.51,11.18,11.18,0,0,1-8.43-3.34q-3.22-3.34-3.22-9.64Zm4.33,0q0,4.77,2.08,7.15a6.93,6.93,0,0,0,10.46,0c1.38-1.59,2.08-4,2.08-7.28q0-4.6-2.09-7a6.93,6.93,0,0,0-10.45,0Q415,135,415,139.74Z"></path> <path class="cls-2" d="M455.1,143.06l4.14.54a10.74,10.74,0,0,1-3.47,6.7,10.12,10.12,0,0,1-6.87,2.42,10.66,10.66,0,0,1-8.2-3.33q-3.09-3.33-3.1-9.56a17.27,17.27,0,0,1,1.33-7,9.34,9.34,0,0,1,4.07-4.53,12.07,12.07,0,0,1,5.92-1.51,10.27,10.27,0,0,1,6.62,2.06,9.36,9.36,0,0,1,3.31,5.81l-4.1.63a6.83,6.83,0,0,0-2.07-3.77,5.35,5.35,0,0,0-3.59-1.26,6.55,6.55,0,0,0-5.18,2.28q-2,2.28-2,7.21c0,3.34.63,5.77,1.92,7.29a6.26,6.26,0,0,0,5,2.27,5.91,5.91,0,0,0,4.13-1.53A7.48,7.48,0,0,0,455.1,143.06Z"></path> <path class="cls-2" d="M462.83,127.32H467v10.73a4.05,4.05,0,0,0,2.82-.76,16.87,16.87,0,0,0,2.37-4.5,18.11,18.11,0,0,1,2-3.88,3.84,3.84,0,0,1,1.78-1.26,11,11,0,0,1,3.22-.33h.85v3.48l-1.17,0a3.15,3.15,0,0,0-2.13.49,12.4,12.4,0,0,0-1.5,3.07,12.42,12.42,0,0,1-1.76,3.36,6.92,6.92,0,0,1-2.45,1.71c1.81.49,3.59,2.17,5.34,5.06l4.6,7.69h-4.63l-4.49-7.69a10.31,10.31,0,0,0-2.41-3.05,4.05,4.05,0,0,0-2.46-.74v11.48h-4.2Z"></path> <path class="cls-2" d="M483.83,127.32h9.71a17.86,17.86,0,0,1,5.32.59,6.5,6.5,0,0,1,3,2.19,6,6,0,0,1,1.25,3.82,6.18,6.18,0,0,1-.74,3.1,6.07,6.07,0,0,1-2.21,2.21,5.79,5.79,0,0,1,2.91,2.19,6.26,6.26,0,0,1,1.16,3.8,6.71,6.71,0,0,1-2.52,5.24c-1.54,1.14-3.76,1.7-6.67,1.7H483.83V127.32ZM488,137.77h4.49a15.37,15.37,0,0,0,3.7-.28,3.79,3.79,0,0,0,1.8-1.13,2.89,2.89,0,0,0,.79-2,2.85,2.85,0,0,0-1.39-2.74,10.39,10.39,0,0,0-4.75-.78H488v7Zm0,10.93h5.55c2.38,0,4-.27,4.91-.83a3.24,3.24,0,0,0,1.4-2.86,3.54,3.54,0,0,0-.77-2.21,3.31,3.31,0,0,0-2-1.29,20.77,20.77,0,0,0-4-.27H488Z"></path> <path class="cls-2" d="M532.92,127.32h4.21v24.84h-4.21V127.32Zm-23.56,0h4.21V137h5.34c3.47,0,6.16.68,8,2a6.49,6.49,0,0,1,2.82,5.58,7,7,0,0,1-2.35,5.32c-1.57,1.48-4.08,2.21-7.52,2.21H509.36V127.32Zm4.21,21.38H518c2.67,0,4.58-.33,5.71-1a3.29,3.29,0,0,0,1.71-3.06,4,4,0,0,0-1.26-2.89c-.85-.83-2.71-1.26-5.59-1.26h-5Z"></path> </svg> 