<?xml version="1.0" standalone="no"?>
<!DOCTYPE svg PUBLIC "-//W3C//DTD SVG 1.1//EN" "http://www.w3.org/Graphics/SVG/1.1/DTD/svg11.dtd" >
<svg xmlns="http://www.w3.org/2000/svg">
<metadata>
Created by FontPrep 20130207 at Thu Jan 12 16:47:57 2017
 By Mark Fokin
Copyright (c) 2014 by Henrik Kubel, A2/SW/HK + A2-TYPE. All rights reserved. 
</metadata>
<defs>
<font id="95454ac2f61dd121d265ebde72ac14e3" horiz-adv-x='1024' >
  <font-face 
    font-family="MCWXXMedium"
    font-weight="500"
    font-stretch="normal"
    units-per-em="2048"
    panose-1="2 11 7 3 3 7 2 2 5 4"
    ascent="1669"
    descent="-379"
    x-height="1020"
    cap-height="1434"
    bbox="-350 -428 2376 2034"
    underline-thickness="0"
    underline-position="0"
    unicode-range="U+0020-FB02"
  />
<missing-glyph horiz-adv-x="1413" 
d="M334 78h745l-372 565zM1124 156v1122l-370 -561zM285 150l372 567l-372 567v-1134zM707 788l370 566h-743zM195 0v1434h1024v-1434h-1024z" />
    <glyph glyph-name="t_t" unicode="tt" horiz-adv-x="1343" 
d="M209 0v823h-170v197h170v350h233v-350h375v350h234v-350h268l-72 -197h-196v-823h-234v823h-375v-823h-233z" />
    <glyph glyph-name=".notdef" horiz-adv-x="1413" 
d="M334 78h745l-372 565zM1124 156v1122l-370 -561zM285 150l372 567l-372 567v-1134zM707 788l370 566h-743zM195 0v1434h1024v-1434h-1024z" />
    <glyph glyph-name=".null" horiz-adv-x="1024" 
 />
    <glyph glyph-name="nonmarkingreturn" horiz-adv-x="681" 
 />
    <glyph glyph-name="space" unicode=" " horiz-adv-x="512" 
 />
    <glyph glyph-name="exclam" unicode="!" horiz-adv-x="647" 
d="M182 0v311h283v-311h-283zM221 514l-28 920h262l-29 -920h-205z" />
    <glyph glyph-name="quotedbl" unicode="&#x22;" horiz-adv-x="874" 
d="M496 887v547h235v-547h-235zM143 887v547h236v-547h-236z" />
    <glyph glyph-name="numbersign" unicode="#" horiz-adv-x="1452" 
d="M250 0l67 385h-254l33 176h254l56 313h-254l30 177h254l68 383h194l-67 -383h307l68 383h196l-67 -383h254l-31 -177h-254l-55 -313h254l-33 -176h-254l-68 -385h-196l67 385h-307l-68 -385h-194zM545 561h307l55 313h-307z" />
    <glyph glyph-name="dollar" unicode="$" horiz-adv-x="1193" 
d="M604 1458h12l15 139h137l-14 -155q195 -45 327 -178l-155 -156q-84 76 -195 113l-37 -398l125 -51q281 -117 281 -375q0 -174 -133 -296t-355 -126l-16 -165h-139l16 174q-244 33 -403 192l159 160q119 -104 267 -133l41 420l-134 55q-283 117 -282 381q0 159 126 279
t357 120zM840 374q0 70 -41 112t-129 81l-37 -372q99 8 153 59t54 120zM381 1074q0 -64 43 -110t137 -85l35 364q-109 -1 -162 -53t-53 -116z" />
    <glyph glyph-name="percent" unicode="%" horiz-adv-x="1366" 
d="M970 123q66 0 109 46t43 115q0 68 -43 114t-109 46t-108 -46q-43 -46 -43 -114t43 -115q42 -46 108 -46zM1286 284q0 -130 -90 -220t-225 -89q-135 -1 -225 89t-89 220q0 130 89 220q88 90 224 90t226 -90t90 -220zM215 147l-104 107l1034 1032l106 -104zM242 1147
q0 -68 42 -114t108 -46t110 46q43 46 43 114t-43 115t-109 47q-67 0 -109 -47t-42 -115zM393 840q-135 0 -224 89t-89 219t89 220t224 90t225 -90t90 -220t-90 -219t-225 -89z" />
    <glyph glyph-name="ampersand" unicode="&#x26;" horiz-adv-x="1472" 
d="M82 393q0 131 68 240t186 182q-104 135 -104 275t108 254q109 114 315 114q115 0 216 -47t159 -121l-149 -149q-100 106 -219 106q-86 0 -136 -47t-51 -108q0 -109 137 -248l334 -344q104 193 137 342h254q-102 -322 -227 -502l336 -340h-332l-158 160
q-160 -184 -415 -185q-205 0 -332 125t-127 293zM544 195q168 0 257 118l-328 336q-143 -92 -143 -229q0 -100 66 -163q67 -62 148 -62z" />
    <glyph glyph-name="quotesingle" unicode="'" horiz-adv-x="522" 
d="M143 887v547h236v-547h-236z" />
    <glyph glyph-name="parenleft" unicode="(" horiz-adv-x="638" 
d="M606 1595v-30q-227 -416 -227 -832q-1 -221 65 -455t162 -411v-29h-196q-270 446 -270 876t270 881h196z" />
    <glyph glyph-name="parenright" unicode=")" horiz-adv-x="638" 
d="M33 -162v29q96 177 162 411t65 455q0 416 -227 832v30h196q271 -451 271 -881t-271 -876h-196z" />
    <glyph glyph-name="asterisk" unicode="*" horiz-adv-x="1042" 
d="M397 510l76 362h96l76 -362h-248zM858 637l-276 248l45 78l354 -115zM184 637l-123 211l355 115l45 -78zM627 981l-45 78l276 248l123 -211zM416 981l-355 115l123 211l277 -248zM473 1071l-76 363h248l-76 -363h-96z" />
    <glyph glyph-name="plus" unicode="+" horiz-adv-x="1032" 
d="M410 274v340h-322v205h322v338h208v-338h326v-205h-326v-340h-208z" />
    <glyph glyph-name="comma" unicode="," horiz-adv-x="518" 
d="M125 0v311h281v-311l-125 -299h-148l92 299h-100z" />
    <glyph glyph-name="hyphen" unicode="-" horiz-adv-x="788" 
d="M117 420v235h555v-235h-555z" />
    <glyph glyph-name="period" unicode="." horiz-adv-x="567" 
d="M143 0v311h281v-311h-281z" />
    <glyph glyph-name="slash" unicode="/" horiz-adv-x="925" 
d="M41 -143l653 1577h191l-654 -1577h-190z" />
    <glyph glyph-name="zero" unicode="0" horiz-adv-x="1347" 
d="M674 195q150 0 226 138t77 384q0 246 -77 384q-76 138 -226 138t-227 -138t-77 -384t78 -384q76 -138 226 -138zM674 -25q-260 0 -407 199q-146 199 -146 543t146 543q147 198 407 198t406 -198t146 -543q0 -344 -146 -543t-406 -199z" />
    <glyph glyph-name="one" unicode="1" horiz-adv-x="985" 
d="M84 0v217h291v1000h-271v217h514v-1217h328l-82 -217h-780z" />
    <glyph glyph-name="two" unicode="2" horiz-adv-x="1202" 
d="M111 0v186l362 363q209 209 272 295t63 179t-70 153q-71 60 -177 61q-186 0 -350 -154l-154 158q93 93 229 155t279 62q227 0 359 -122t131 -296q0 -134 -76 -248t-268 -307l-265 -264v-4h674l-80 -217h-929z" />
    <glyph glyph-name="three" unicode="3" horiz-adv-x="1196" 
d="M551 -25q-305 0 -502 197l162 164q152 -139 340 -139q127 -1 208 69t81 180t-96 176q-96 65 -232 64q-68 0 -129 -12v172l371 371h-617v217h922v-179l-373 -372v-4q170 -19 289 -137t119 -308t-155 -324t-388 -135z" />
    <glyph glyph-name="four" unicode="4" horiz-adv-x="1263" 
d="M754 0v322h-680v182l395 930h256l-387 -902v-4h416v404h239v-404h230l-76 -206h-154v-322h-239z" />
    <glyph glyph-name="five" unicode="5" horiz-adv-x="1230" 
d="M584 -25q-305 0 -500 199l162 162q156 -139 336 -139q131 -1 216 71t85 182t-77 181t-203 71t-238 -75l-197 20l41 787h893l-80 -217h-612l-19 -363h4q123 63 260 64q187 0 333 -121t146 -331t-150 -350q-152 -140 -400 -141z" />
    <glyph glyph-name="six" unicode="6" horiz-adv-x="1230" 
d="M344 472q0 -114 79 -196t201 -81q122 -1 200 81t79 196q0 114 -78 195q-77 81 -201 81t-202 -81t-78 -195zM682 958q184 0 328 -133t143 -345t-149 -358t-385 -147q-237 0 -383 157t-146 376q0 156 75 312t247 372l209 266l270 -24l-440 -533l4 -2q98 59 227 59z" />
    <glyph glyph-name="seven" unicode="7" horiz-adv-x="1075" 
d="M45 1217v217h971v-179l-510 -1255h-279l514 1217h-696z" />
    <glyph glyph-name="eight" unicode="8" horiz-adv-x="1306" 
d="M653 625q-131 0 -209 -66t-78 -156q0 -91 78 -155t209 -64t209 65t78 155t-78 155q-78 66 -209 66zM653 840q123 0 191 59t68 147t-68 145q-68 58 -191 58t-191 -58t-67 -145q-1 -86 67 -146t191 -60zM653 1458q227 0 367 -116t139 -285q0 -101 -56 -187t-153 -125v-4
q102 -39 172 -134t70 -208q0 -188 -150 -306t-390 -118t-388 118q-150 118 -149 306q0 113 69 208q70 95 172 134v4q-96 39 -152 125t-57 187q-1 169 139 285t367 116z" />
    <glyph glyph-name="nine" unicode="9" horiz-adv-x="1230" 
d="M887 962q0 114 -79 196t-201 81q-121 0 -201 -82q-80 -81 -80 -195t78 -195t202 -81q123 0 202 81t79 195zM78 953q0 213 148 359t385 146t383 -156t147 -374q0 -156 -75 -312t-247 -372l-209 -269l-270 25l440 532l-4 5q-96 -59 -227 -60q-184 0 -328 132
q-143 132 -143 344z" />
    <glyph glyph-name="colon" unicode=":" horiz-adv-x="509" 
d="M115 0v311h280v-311h-280zM115 709v311h280v-311h-280z" />
    <glyph glyph-name="semicolon" unicode=";" horiz-adv-x="499" 
d="M113 0v311h280v-311l-125 -299h-147l92 299h-100zM113 709v311h280v-311h-280z" />
    <glyph glyph-name="less" unicode="&#x3c;" horiz-adv-x="1083" 
d="M938 246l-854 356v225l854 357v-248l-563 -219v-4l563 -219v-248z" />
    <glyph glyph-name="equal" unicode="=" horiz-adv-x="1269" 
d="M207 434v205h856v-205h-856zM207 795v204h856v-204h-856z" />
    <glyph glyph-name="greater" unicode="&#x3e;" horiz-adv-x="1083" 
d="M145 246v248l564 219v4l-564 219v248l854 -357v-225z" />
    <glyph glyph-name="question" unicode="?" horiz-adv-x="761" 
d="M225 0v311h283v-311h-283zM338 1245q-125 0 -238 -104l-147 147q166 170 407 170q164 0 266 -92t103 -230q0 -138 -174 -325q-68 -73 -79 -99t-11 -38q0 -35 43 -68l-139 -139q-141 70 -142 203q0 83 67 176q35 47 127 152q108 137 21 213q-39 34 -104 34z" />
    <glyph glyph-name="at" unicode="@" horiz-adv-x="1796" 
d="M884 754q-98 0 -150 -80t-52 -209t52 -212t150 -83q97 0 150 83t53 212t-53 209t-150 80zM930 -391q-371 -1 -614 237q-242 238 -242 614t238 618t603 243q213 0 397 -91q184 -90 301 -272q116 -182 116 -420t-112 -390q-112 -150 -286 -150t-231 143h-4
q-35 -61 -101 -102t-149 -41q-166 0 -269 128t-104 337q0 209 102 338q101 129 271 129t246 -142h4v117h188v-669q0 -90 76 -91q66 1 114 63q91 118 91 322q1 287 -185 464t-467 177q-281 1 -475 -197t-194 -512t196 -512t490 -198q225 0 366 96l111 -110
q-205 -129 -477 -129z" />
    <glyph glyph-name="A" unicode="A" horiz-adv-x="1409" 
d="M301 0h-262l557 1434h217l557 -1434h-272l-119 324h-561zM494 530h411l-205 553h-4z" />
    <glyph glyph-name="B" unicode="B" horiz-adv-x="1353" 
d="M440 207h314q112 0 184 63q72 64 72 158t-72 158t-184 63h-314v-442zM440 848h236q86 0 146 51t61 137q-1 86 -61 138t-146 51h-236v-377zM195 0v1434h520q195 0 307 -106t113 -249q0 -184 -152 -280v-4q137 -41 212 -141t75 -232q0 -174 -133 -298t-351 -124h-591z" />
    <glyph glyph-name="C" unicode="C" horiz-adv-x="1363" 
d="M803 -25q-295 0 -498 211t-203 532q0 320 202 530t497 210t491 -201l-159 -159q-141 137 -333 137q-192 1 -317 -147t-125 -371t125 -371t317 -147q192 0 333 137l159 -160q-194 -201 -489 -201z" />
    <glyph glyph-name="D" unicode="D" horiz-adv-x="1513" 
d="M440 217h226q219 0 353 128t134 371q0 244 -134 372t-353 129h-226v-1000zM195 0v1434h481q336 0 536 -199t199 -518q0 -319 -200 -518t-535 -199h-481z" />
    <glyph glyph-name="E" unicode="E" horiz-adv-x="1236" 
d="M195 0v1434h954l-80 -217h-629v-371h439v-217h-439v-412h727v-217h-972z" />
    <glyph glyph-name="F" unicode="F" horiz-adv-x="1165" 
d="M195 0v1434h899v-217h-654v-433h521l-80 -217h-441v-567h-245z" />
    <glyph glyph-name="G" unicode="G" horiz-adv-x="1554" 
d="M778 -25q-288 0 -486 204t-198 532q0 327 210 537t528 210t532 -203l-166 -165q-162 145 -371 145q-209 1 -343 -147t-134 -388t135 -374q135 -133 309 -133t295 94q122 94 136 245h-412l-74 205h691v-737h-205v174h-4q-57 -82 -170 -140t-273 -59z" />
    <glyph glyph-name="H" unicode="H" horiz-adv-x="1605" 
d="M195 0v1434h245v-590h725v590h246v-1434h-246v627h-725v-627h-245z" />
    <glyph glyph-name="I" unicode="I" horiz-adv-x="950" 
d="M88 0v207h264v1020h-264v207h774v-207h-264v-1020h264v-207h-774z" />
    <glyph glyph-name="J" unicode="J" horiz-adv-x="1171" 
d="M1001 473q0 -217 -136 -357t-385 -141q-249 0 -433 160l164 164q129 -100 264 -100q135 1 208 77t73 199v742h-394l80 217h559v-961z" />
    <glyph glyph-name="K" unicode="K" horiz-adv-x="1447" 
d="M195 0v1434h245v-586h185l432 586h289l-510 -670l583 -764h-313l-471 631h-195v-631h-245z" />
    <glyph glyph-name="L" unicode="L" horiz-adv-x="1243" 
d="M195 0v1434h245v-1217h764l-80 -217h-929z" />
    <glyph glyph-name="M" unicode="M" horiz-adv-x="2123" 
d="M315 0h-268l461 1434h205l348 -1043h4l346 1043h205l461 -1434h-269l-301 979h-4l-329 -979h-224l-329 979h-5z" />
    <glyph glyph-name="N" unicode="N" horiz-adv-x="1615" 
d="M195 0v1434h219l766 -1012h4v1012h237v-1434h-219l-766 1014h-4v-1014h-237z" />
    <glyph glyph-name="O" unicode="O" horiz-adv-x="1619" 
d="M811 199q199 0 325 147q126 146 126 370t-126 371t-325 147t-326 -146q-127 -148 -127 -371t127 -371t326 -147zM1518 717q0 -319 -206 -531t-502 -211q-296 0 -502 211q-206 210 -206 530t206 531t502 211t502 -211t206 -530z" />
    <glyph glyph-name="P" unicode="P" horiz-adv-x="1286" 
d="M440 748h262q119 0 188 63q68 63 68 171t-68 171q-69 63 -188 64h-262v-469zM195 0v1434h522q239 0 367 -130t128 -320t-129 -322q-129 -131 -366 -132h-277v-530h-245z" />
    <glyph glyph-name="Q" unicode="Q" horiz-adv-x="1677" 
d="M811 -25q-297 0 -503 211q-206 210 -206 530t206 531t502 211t502 -211t206 -530q0 -268 -150 -467l250 -250h-287l-108 109q-181 -134 -412 -134zM811 199q141 0 246 75l-332 332l143 144l324 -324q70 127 70 291q0 223 -126 370t-325 147t-326 -146
q-127 -148 -127 -371t127 -371t326 -147z" />
    <glyph glyph-name="R" unicode="R" horiz-adv-x="1415" 
d="M440 557v-557h-245v1434h534q252 0 377 -125t125 -314q0 -121 -71 -229t-204 -160v-4l424 -602h-295l-380 557h-265zM440 762h283q111 0 181 62t69 168q0 106 -70 166q-70 58 -180 59h-283v-455z" />
    <glyph glyph-name="S" unicode="S" horiz-adv-x="1193" 
d="M596 -25q-326 0 -526 201l159 160q162 -143 369 -143q115 0 178 53q64 53 64 128t-50 120t-163 92l-224 92q-283 117 -282 381q0 159 126 279t357 120q279 0 477 -194l-155 -156q-147 135 -324 135q-111 0 -166 -52t-55 -117q0 -64 43 -110t137 -85l258 -107
q281 -117 281 -375q0 -178 -138 -300t-366 -122z" />
    <glyph glyph-name="T" unicode="T" horiz-adv-x="1327" 
d="M541 0v1217h-486v217h1243l-69 -217h-443v-1217h-245z" />
    <glyph glyph-name="U" unicode="U" horiz-adv-x="1499" 
d="M748 -25q-268 0 -426 156t-158 375v928h246v-897q0 -164 94 -251t248 -87t250 87t96 249v899h237v-928q1 -219 -159 -375t-428 -156z" />
    <glyph glyph-name="V" unicode="V" horiz-adv-x="1402" 
d="M811 0h-217l-557 1434h274l396 -1084h4l395 1084h262z" />
    <glyph glyph-name="W" unicode="W" horiz-adv-x="2113" 
d="M1804 1434h269l-461 -1434h-205l-348 1042h-4l-346 -1042h-205l-461 1434h268l301 -979h4l330 979h223l330 -979h4z" />
    <glyph glyph-name="X" unicode="X" horiz-adv-x="1359" 
d="M37 0l500 725l-480 709h301l332 -516h4l334 516h277l-478 -699l496 -735h-295l-356 539h-4l-353 -539h-278z" />
    <glyph glyph-name="Y" unicode="Y" horiz-adv-x="1353" 
d="M555 0v584l-535 850h287l377 -617h4l371 617h274l-532 -850v-584h-246z" />
    <glyph glyph-name="Z" unicode="Z" horiz-adv-x="1320" 
d="M84 0v188l780 1029h-751v217h1073v-189l-780 -1028h849l-79 -217h-1092z" />
    <glyph glyph-name="bracketleft" unicode="[" horiz-adv-x="720" 
d="M195 -162v1757h487v-202h-264v-1354h264v-201h-487z" />
    <glyph glyph-name="backslash" unicode="\" horiz-adv-x="925" 
d="M885 -143h-191l-653 1577h190z" />
    <glyph glyph-name="bracketright" unicode="]" horiz-adv-x="720" 
d="M39 -162v203h264v1352h-264v202h487v-1757h-487z" />
    <glyph glyph-name="asciicircum" unicode="^" horiz-adv-x="1015" 
d="M72 461l303 973h280l285 -973h-235l-191 706h-4l-201 -706h-237z" />
    <glyph glyph-name="underscore" unicode="_" horiz-adv-x="778" 
d="M0 -358v213h778v-213h-778z" />
    <glyph glyph-name="grave" unicode="`" horiz-adv-x="546" 
d="M233 1176l-170 292h308l61 -292h-199z" />
    <glyph glyph-name="a" unicode="a" horiz-adv-x="1071" 
d="M424 -25q-154 1 -256 97t-102 236t111 238q112 97 337 97q92 0 197 -16v32q1 83 -53 131t-148 48q-139 0 -254 -86l-150 149q78 68 189 106t223 37q202 0 314 -102t112 -291v-651h-227v104h-4q-94 -129 -289 -129zM488 166q91 0 157 66t66 171v48q-79 14 -181 14
t-164 -41q-62 -40 -62 -106t46 -109q47 -43 138 -43z" />
    <glyph glyph-name="b" unicode="b" horiz-adv-x="1253" 
d="M369 510q0 -140 80 -234q81 -94 203 -94t201 93t79 235t-79 234q-79 94 -202 94t-203 -94t-79 -234zM377 143v-143h-234v1520h234v-643h4q43 71 128 119t191 48q203 0 338 -150q136 -150 136 -383q0 -232 -136 -384t-338 -152q-106 1 -191 49t-128 119h-4z" />
    <glyph glyph-name="c" unicode="c" horiz-adv-x="991" 
d="M587 -25q-224 0 -367 151q-142 151 -142 384t142 384q142 150 366 150t364 -143l-147 -145q-88 84 -211 84t-200 -94t-77 -236t77 -236t200 -94t211 84l147 -145q-139 -144 -363 -144z" />
    <glyph glyph-name="d" unicode="d" horiz-adv-x="1253" 
d="M877 143h-5q-43 -71 -128 -119t-191 -49q-203 0 -338 152t-135 384t135 383t338 150q106 0 191 -48t128 -119h5v643h233v-1520h-233v143zM885 510q0 141 -80 234q-80 94 -203 94t-202 -94q-78 -94 -78 -234q0 -141 78 -235q79 -93 202 -93t203 94t80 234z" />
    <glyph glyph-name="e" unicode="e" horiz-adv-x="1132" 
d="M576 846q-100 0 -168 -70t-82 -170h491q-8 100 -74 170q-67 70 -167 70zM614 -25q-232 1 -385 147q-151 146 -151 382t142 389q142 151 355 151t351 -144t139 -423v-43h-739q16 -120 99 -184t193 -64q145 0 244 99l150 -150q-166 -160 -398 -160z" />
    <glyph glyph-name="f" unicode="f" horiz-adv-x="780" 
d="M227 0v823h-188v197h188v174q1 142 95 244t259 102t281 -100l-147 -148q-55 39 -117 39t-99 -39q-38 -39 -38 -104v-168h295l-72 -197h-223v-823h-234z" />
    <glyph glyph-name="g" unicode="g" horiz-adv-x="1198" 
d="M745 178q141 0 221 -74t78 -202q0 -128 -131 -228q-131 -102 -415 -102t-473 115l157 157q164 -80 334 -80q287 0 287 125q0 78 -117 78h-287q-147 0 -215 73q-68 72 -68 180t89 204q-115 102 -115 256t119 259t326 105q139 0 241 -51q119 115 275 115q78 0 151 -25
l-72 -198q-53 16 -106 16t-104 -29q59 -88 59 -192q0 -152 -119 -258t-325 -107q-94 0 -199 31q-25 -39 -25 -80q0 -88 123 -88h311zM535 862q-101 0 -159 -53t-58 -130t56 -130q58 -53 160 -53t160 53t58 130t-58 130t-159 53z" />
    <glyph glyph-name="h" unicode="h" horiz-adv-x="1167" 
d="M143 0v1520h234v-625h4q117 149 289 149t270 -100t98 -276v-668h-233v621q0 100 -54 151t-137 51q-133 0 -237 -135v-688h-234z" />
    <glyph glyph-name="i" unicode="i" horiz-adv-x="591" 
d="M215 0v823h-184l71 197h347v-1020h-234zM215 1174v260h234v-260h-234z" />
    <glyph glyph-name="j" unicode="j" horiz-adv-x="518" 
d="M21 -403q-165 0 -281 100l149 149q59 -41 117 -41t97 39q38 39 38 105v1071h234v-1077q0 -141 -94 -244q-95 -102 -260 -102zM141 1174v260h234v-260h-234z" />
    <glyph glyph-name="k" unicode="k" horiz-adv-x="1140" 
d="M143 0v1520h234v-883h129l295 383h268l-360 -451l409 -569h-284l-314 444h-143v-444h-234z" />
    <glyph glyph-name="l" unicode="l" horiz-adv-x="520" 
d="M143 0v1520h234v-1520h-234z" />
    <glyph glyph-name="m" unicode="m" horiz-adv-x="1808" 
d="M377 0h-234v1020h230v-123h4q119 147 297 147q221 0 309 -184h4q131 184 338 184q164 0 259 -100t95 -276v-668h-233v625q0 98 -53 148t-133 50q-123 0 -232 -133v-690h-233v625q-1 96 -53 147t-130 51q-129 0 -235 -133v-690z" />
    <glyph glyph-name="n" unicode="n" horiz-adv-x="1167" 
d="M143 0v1020h230v-123h4q115 147 290 147t273 -100t98 -276v-668h-233v621q0 100 -54 151t-137 51q-135 0 -237 -133v-690h-234z" />
    <glyph glyph-name="o" unicode="o" horiz-adv-x="1181" 
d="M590 184q122 0 198 92t76 234t-77 235t-197 93t-197 -92q-76 -92 -76 -235t76 -235t197 -92zM590 -25q-219 0 -366 152q-146 152 -146 384t146 383q146 150 366 150t366 -150q148 -150 148 -383q0 -232 -148 -384t-366 -152z" />
    <glyph glyph-name="p" unicode="p" horiz-adv-x="1253" 
d="M377 143v-522h-234v1399h234v-143h4q43 71 128 119t191 48q203 0 338 -150q136 -150 136 -383q0 -232 -136 -384t-338 -152q-106 1 -191 49t-128 119h-4zM369 510q0 -140 80 -234q81 -94 203 -94t201 93t79 235t-79 234q-79 94 -202 94t-203 -94t-79 -234z" />
    <glyph glyph-name="q" unicode="q" horiz-adv-x="1253" 
d="M885 510q0 141 -80 234q-80 94 -203 94t-202 -94q-78 -94 -78 -234q0 -141 78 -235q79 -93 202 -93t203 94t80 234zM877 143h-5q-43 -71 -128 -119t-191 -49q-203 0 -338 152t-135 384t135 383t338 150q106 0 191 -48t128 -119h5v143h233v-1399h-233v522z" />
    <glyph glyph-name="r" unicode="r" horiz-adv-x="835" 
d="M143 0v1020h230v-154h4q133 166 301 166q59 0 131 -22l-84 -236q-41 18 -102 19q-123 0 -246 -119v-674h-234z" />
    <glyph glyph-name="s" unicode="s" horiz-adv-x="919" 
d="M459 -25q-250 0 -410 142l150 149q115 -96 254 -96q77 0 115 31t38 69q0 70 -100 111l-203 80q-213 84 -213 282q0 127 100 214t275 87q223 0 366 -135l-145 -147q-102 90 -217 90q-61 0 -100 -28t-39 -66t28 -63q28 -26 101 -56l137 -55q129 -51 189 -122
q61 -72 61 -188t-108 -208t-279 -91z" />
    <glyph glyph-name="t" unicode="t" horiz-adv-x="735" 
d="M209 0v823h-170v197h170v350h233v-350h269l-72 -197h-197v-823h-233z" />
    <glyph glyph-name="u" unicode="u" 
d="M491 -25q-170 -1 -268 101t-98 276v668h233v-621q0 -100 52 -152t131 -52q133 0 231 135v690h234v-1020h-230v121h-4q-111 -146 -281 -146z" />
    <glyph glyph-name="v" unicode="v" horiz-adv-x="1054" 
d="M285 1020l245 -670h5l245 670h250l-401 -1020h-201l-401 1020h258z" />
    <glyph glyph-name="w" unicode="w" horiz-adv-x="1665" 
d="M1292 0h-223l-233 690h-5l-233 -690h-223l-342 1020h258l205 -686h4l239 686h193l239 -686h5l206 686h252z" />
    <glyph glyph-name="x" unicode="x" horiz-adv-x="1079" 
d="M27 0l381 530l-345 490h271l213 -315h4l205 315h258l-336 -488l375 -532h-273l-241 358h-4l-246 -358h-262z" />
    <glyph glyph-name="y" unicode="y" horiz-adv-x="1056" 
d="M233 -379l216 524h-78l-344 875h258l245 -670h5l245 670h250l-549 -1399h-248z" />
    <glyph glyph-name="z" unicode="z" horiz-adv-x="989" 
d="M70 0v172l501 651h-489v197h786v-170l-506 -653h574l-70 -197h-796z" />
    <glyph glyph-name="braceleft" unicode="{" horiz-adv-x="741" 
d="M463 578v-537h239v-203h-462v819h-150v205h150v733h462v-202h-239v-447q0 -133 -98 -184v-4q98 -51 98 -180z" />
    <glyph glyph-name="bar" unicode="|" horiz-adv-x="567" 
d="M195 -279v1924h178v-1924h-178z" />
    <glyph glyph-name="braceright" unicode="}" horiz-adv-x="741" 
d="M279 946v447h-240v202h463v-733h149v-205h-149v-819h-463v203h240v537q0 129 98 180v4q-98 51 -98 184z" />
    <glyph glyph-name="asciitilde" unicode="~" horiz-adv-x="1200" 
d="M831 571q-49 0 -218 46q-169 47 -195 47t-36 -14q-11 -14 -13 -48v-31h-195v82q0 227 199 228q49 0 218 -46q169 -47 195 -47t36 14q11 14 14 48v31h194v-82q0 -228 -199 -228z" />
    <glyph glyph-name="exclamdown" unicode="&#xa1;" horiz-adv-x="643" 
d="M219 920h205l29 -920h-263zM180 1434h283v-312h-283v312z" />
    <glyph glyph-name="cent" unicode="&#xa2;" horiz-adv-x="927" 
d="M39 526q0 208 132 356t337 160l16 172h140l-19 -178q162 -29 266 -135l-147 -145q-59 57 -137 75l-64 -651q119 6 201 84l147 -145q-139 -143 -368 -144l-17 -165h-139l19 184q-166 43 -267 183q-100 140 -100 349zM426 211l61 620q-96 -23 -153 -111q-58 -88 -58 -198
q0 -222 150 -311z" />
    <glyph glyph-name="sterling" unicode="&#xa3;" horiz-adv-x="1269" 
d="M106 0v217h162v356h-162v205h162v211q0 201 131 335t351 134q264 0 440 -186l-158 -158q-133 127 -278 127q-104 0 -172 -74t-68 -198v-191h344v-205h-344v-356h696l-80 -217h-1024z" />
    <glyph glyph-name="yen" unicode="&#xa5;" horiz-adv-x="1314" 
d="M535 0v233h-345v187h345v155h-345v187h240l-389 672h287l336 -613h4l329 613h275l-389 -672h241v-187h-344v-155h344v-187h-344v-233h-245z" />
    <glyph glyph-name="brokenbar" unicode="&#xa6;" horiz-adv-x="583" 
d="M203 -190v770h178v-770h-178zM203 786v770h178v-770h-178z" />
    <glyph glyph-name="section" unicode="&#xa7;" horiz-adv-x="1316" 
d="M625 -49q-233 0 -373 137l145 145q100 -88 224 -88q59 0 98 29t39 68q0 38 -33 66t-80 48t-190 79q-143 58 -185 79q-213 104 -213 283q0 109 73 189t206 106q-16 49 -17 96q-1 123 101 211t272 88q231 0 371 -137l-143 -146q-100 88 -224 88q-59 0 -98 -28t-39 -67
q0 -40 33 -69t113 -61q301 -121 339 -141q215 -115 216 -285q0 -109 -74 -191t-207 -106q16 -45 16 -94q0 -123 -100 -211t-270 -88zM1022 621q0 66 -131 124q-59 27 -219 91t-208 99q-7 5 -11 7q-158 -16 -158 -125q-1 -65 71 -99t258 -115t232 -109q82 8 124 46t42 81z
" />
    <glyph glyph-name="dieresis" unicode="&#xa8;" horiz-adv-x="952" 
d="M559 1188v280h250v-280h-250zM143 1188v280h248v-280h-248z" />
    <glyph glyph-name="copyright" unicode="&#xa9;" horiz-adv-x="1701" 
d="M424 719q0 201 127 332t313 131t310 -129l-107 -107q-88 84 -204 84q-117 0 -193 -88t-76 -223t77 -223t193 -88t203 84l107 -107q-124 -129 -310 -129t-313 131t-127 332zM223 719q0 -279 177 -462q176 -183 450 -183t452 183q177 183 177 462t-177 462
q-176 183 -450 183t-452 -183t-177 -462zM100 719q0 328 219 541t531 213t532 -213t220 -541t-220 -541t-531 -213q-312 0 -532 213q-219 213 -219 541z" />
    <glyph glyph-name="ordfeminine" unicode="&#xaa;" horiz-adv-x="899" 
d="M366 602q-134 0 -214 77t-80 189t89 191q89 78 269 78q66 0 156 -15v33q0 61 -44 98t-112 37q-117 0 -207 -67l-117 118q130 117 308 117t268 -84t90 -233v-518h-182v82h-4q-87 -103 -220 -103zM449 991q-85 0 -137 -34t-52 -84q0 -49 37 -83t107 -34t126 54
q55 54 56 136v37q-51 8 -137 8z" />
    <glyph glyph-name="guillemotleft" unicode="&#xab;" horiz-adv-x="1034" 
d="M702 0l-194 408l194 407h242l-186 -407l186 -408h-242zM287 0l-197 408l197 407h239l-186 -407l186 -408h-239z" />
    <glyph glyph-name="logicalnot" unicode="&#xac;" horiz-adv-x="1153" 
d="M750 434v361h-648v204h856v-565h-208z" />
    <glyph glyph-name="registered" unicode="&#xae;" horiz-adv-x="1701" 
d="M688 616v-335h-168v899h352q156 0 241 -81t85 -196q0 -77 -46 -143t-132 -98v-3l272 -378h-202l-236 335h-166zM688 762h158q80 0 128 36t48 100t-48 101t-128 37h-158v-274zM223 719q-1 -279 177 -462t451 -183t451 183q177 183 177 462t-177 462q-176 183 -450 183
t-452 -183t-177 -462zM851 -35q-312 0 -532 213q-219 213 -219 541t219 541t531 213t532 -213t220 -541t-220 -541t-531 -213z" />
    <glyph glyph-name="macron" unicode="&#xaf;" horiz-adv-x="882" 
d="M143 1204v185h596v-185h-596z" />
    <glyph glyph-name="degree" unicode="&#xb0;" horiz-adv-x="788" 
d="M242 1147q0 -68 42 -114t108 -46t110 46q43 46 43 114t-43 115t-109 47q-67 0 -109 -47t-42 -115zM393 840q-135 0 -224 89t-89 219t89 220t224 90t225 -90t90 -220t-90 -219t-225 -89z" />
    <glyph glyph-name="plusminus" unicode="&#xb1;" horiz-adv-x="1093" 
d="M119 0v205h856v-205h-856zM440 391v340h-321v205h321v338h209v-338h326v-205h-326v-340h-209z" />
    <glyph glyph-name="twosuperior" unicode="&#xb2;" horiz-adv-x="915" 
d="M121 520v133l241 238q113 109 150 164t37 106t-37 83t-92 32q-104 0 -213 -102l-125 124q59 70 151 115t191 45q152 0 241 -83t89 -185t-54 -186t-172 -193l-122 -115h401l-64 -176h-622z" />
    <glyph glyph-name="threesuperior" unicode="&#xb3;" horiz-adv-x="911" 
d="M422 494q-211 0 -348 147l131 131q96 -98 219 -98q63 0 106 38t43 97t-51 95q-50 36 -112 36t-105 -8v129l195 194h-363v179h627v-138l-213 -215q100 -23 165 -95t64 -177q0 -133 -102 -224t-256 -91z" />
    <glyph glyph-name="acute" unicode="&#xb4;" horiz-adv-x="546" 
d="M115 1200l61 293h307l-170 -293h-198z" />
    <glyph glyph-name="paragraph" unicode="&#xb6;" horiz-adv-x="1079" 
d="M639 0v530h-53q-238 0 -375 136t-137 319q0 185 136 317t376 132h299v-1434h-246z" />
    <glyph glyph-name="periodcentered" unicode="&#xb7;" horiz-adv-x="669" 
d="M195 580v311h280v-311h-280z" />
    <glyph glyph-name="cedilla" unicode="&#xb8;" horiz-adv-x="555" 
d="M82 -268l156 350h270l-236 -350h-190z" />
    <glyph glyph-name="onesuperior" unicode="&#xb9;" horiz-adv-x="813" 
d="M117 510v176h207v571h-195v177h395v-748h236l-64 -176h-579z" />
    <glyph glyph-name="ordmasculine" unicode="&#xba;" horiz-adv-x="980" 
d="M492 768q96 0 156 74t60 188t-60 187t-157 73t-158 -73q-61 -74 -61 -187q0 -114 62 -188t158 -74zM901 1030q1 -186 -117 -307t-293 -121t-293 121t-118 307t118 307t293 121t293 -121t117 -307z" />
    <glyph glyph-name="guillemotright" unicode="&#xbb;" horiz-adv-x="1034" 
d="M508 0l186 408l-186 407h240l196 -407l-196 -408h-240zM90 0l186 408l-186 407h242l194 -407l-194 -408h-242z" />
    <glyph glyph-name="onequarter" unicode="&#xbc;" horiz-adv-x="2023" 
d="M1640 0v193h-434v124l258 607h209l-241 -562h208v199h201v-199h135l-61 -169h-74v-193h-201zM465 0l930 1434h155l-929 -1434h-156zM84 510v176h207v571h-195v177h396v-748h235l-63 -176h-580z" />
    <glyph glyph-name="onehalf" unicode="&#xbd;" horiz-adv-x="2070" 
d="M1313 0v133l241 238q113 109 150 164t37 106t-37 83t-92 32q-104 0 -213 -103l-125 125q59 70 151 115t191 45q152 0 241 -83t89 -185t-54 -187q-54 -84 -172 -192l-123 -115h402l-64 -176h-622zM465 0l930 1434h155l-929 -1434h-156zM84 510v176h207v571h-195v177h396
v-748h235l-63 -176h-580z" />
    <glyph glyph-name="threequarters" unicode="&#xbe;" horiz-adv-x="2074" 
d="M397 494q-211 0 -348 147l131 131q96 -98 219 -98q63 0 107 38q43 38 43 97t-51 95t-113 36t-104 -8v129l194 194h-362v179h626v-138l-213 -215q100 -23 165 -95t65 -192q0 -118 -102 -209t-257 -91zM1692 0v193h-435v124l259 607h208l-241 -562h209v199h200v-199h136
l-62 -169h-74v-193h-200zM516 0l930 1434h156l-930 -1434h-156z" />
    <glyph glyph-name="questiondown" unicode="&#xbf;" horiz-adv-x="765" 
d="M430 188q121 0 234 105l147 -148q-166 -170 -408 -170q-164 -1 -266 93t-102 224t143 300q16 18 43 49t53 60t25 62q0 32 -43 64l139 140q143 -72 144 -199q0 -82 -74 -181q-25 -32 -70 -85q-113 -132 -113 -188t42 -91q41 -35 106 -35zM539 1434v-312h-283v312h283z" />
    <glyph glyph-name="Agrave" unicode="&#xc0;" horiz-adv-x="1409" 
d="M301 0h-262l557 1434h217l557 -1434h-272l-119 324h-561zM494 530h411l-205 553h-4zM608 1563l-170 292h307l62 -292h-199z" />
    <glyph glyph-name="Aacute" unicode="&#xc1;" horiz-adv-x="1409" 
d="M301 0h-262l557 1434h217l557 -1434h-272l-119 324h-561zM494 530h411l-205 553h-4zM604 1563l62 292h307l-170 -292h-199z" />
    <glyph glyph-name="Acircumflex" unicode="&#xc2;" horiz-adv-x="1409" 
d="M301 0h-262l557 1434h217l557 -1434h-272l-119 324h-561zM494 530h411l-205 553h-4zM336 1561l268 350h201l268 -350h-229l-137 161h-5l-135 -161h-231z" />
    <glyph glyph-name="Atilde" unicode="&#xc3;" horiz-adv-x="1409" 
d="M301 0h-262l557 1434h217l557 -1434h-272l-119 324h-561zM494 530h411l-205 553h-4zM552 1847q62 0 156 -38t115 -37q57 0 70 81l158 -41q-7 -137 -69 -188t-124 -51t-158 38q-94 38 -114 38q-56 0 -68 -82l-160 41q8 137 70 188t124 51z" />
    <glyph glyph-name="Adieresis" unicode="&#xc4;" horiz-adv-x="1409" 
d="M301 0h-262l557 1434h217l557 -1434h-272l-119 324h-561zM494 530h411l-205 553h-4zM788 1575v280h250v-280h-250zM373 1575v280h248v-280h-248z" />
    <glyph glyph-name="Aring" unicode="&#xc5;" horiz-adv-x="1409" 
d="M301 0h-262l557 1434h217l557 -1434h-272l-119 324h-561zM494 530h411l-205 553h-4zM706 1675q46 0 80 31t33 78q0 47 -34 78q-33 30 -79 30t-80 -30t-34 -78q0 -47 34 -78t80 -31zM705 1534q-115 0 -193 71t-78 179t78 180q78 70 193 70t193 -71t79 -179
q-1 -108 -79 -180q-78 -70 -193 -70z" />
    <glyph glyph-name="AE" unicode="&#xc6;" horiz-adv-x="1957" 
d="M1161 1217v-371h438v-217h-438v-412h727v-217h-973v324h-454l-162 -324h-268l749 1434h1090l-80 -217h-629zM915 530v687h-4l-352 -687h356z" />
    <glyph glyph-name="Ccedilla" unicode="&#xc7;" horiz-adv-x="1363" 
d="M801 1458q295 0 491 -201l-159 -159q-141 137 -333 137q-192 1 -317 -147t-125 -371t125 -371t317 -147q192 0 333 137l159 -160q-176 -180 -428 -199l-205 -305h-190l145 328q-227 63 -369 258t-143 459q0 321 202 531t497 210z" />
    <glyph glyph-name="Egrave" unicode="&#xc8;" horiz-adv-x="1236" 
d="M195 0v1434h954l-80 -217h-629v-371h439v-217h-439v-412h727v-217h-972zM569 1563l-170 292h308l61 -292h-199z" />
    <glyph glyph-name="Eacute" unicode="&#xc9;" horiz-adv-x="1236" 
d="M195 0v1434h954l-80 -217h-629v-371h439v-217h-439v-412h727v-217h-972zM565 1563l62 292h307l-170 -292h-199z" />
    <glyph glyph-name="Ecircumflex" unicode="&#xca;" horiz-adv-x="1236" 
d="M195 0v1434h954l-80 -217h-629v-371h439v-217h-439v-412h727v-217h-972zM297 1561l268 350h201l268 -350h-229l-137 161h-4l-136 -161h-231z" />
    <glyph glyph-name="Edieresis" unicode="&#xcb;" horiz-adv-x="1236" 
d="M195 0v1434h954l-80 -217h-629v-371h439v-217h-439v-412h727v-217h-972zM750 1575v280h249v-280h-249zM334 1575v280h248v-280h-248z" />
    <glyph glyph-name="Igrave" unicode="&#xcc;" horiz-adv-x="950" 
d="M88 0v207h264v1020h-264v207h774v-207h-264v-1020h264v-207h-774zM379 1563l-170 292h307l62 -292h-199z" />
    <glyph glyph-name="Iacute" unicode="&#xcd;" horiz-adv-x="950" 
d="M88 0v207h264v1020h-264v207h774v-207h-264v-1020h264v-207h-774zM375 1563l61 292h307l-170 -292h-198z" />
    <glyph glyph-name="Icircumflex" unicode="&#xce;" horiz-adv-x="950" 
d="M88 0v207h264v1020h-264v207h774v-207h-264v-1020h264v-207h-774zM106 1561l269 350h200l269 -350h-230l-137 161h-4l-135 -161h-232z" />
    <glyph glyph-name="Idieresis" unicode="&#xcf;" horiz-adv-x="950" 
d="M88 0v207h264v1020h-264v207h774v-207h-264v-1020h264v-207h-774zM559 1575v280h250v-280h-250zM143 1575v280h248v-280h-248z" />
    <glyph glyph-name="Eth" unicode="&#xd0;" horiz-adv-x="1572" 
d="M500 217h225q219 0 353 128t134 371q0 244 -134 372t-353 129h-225v-373h426l-80 -217h-346v-410zM254 0v627h-182v217h182v590h481q336 0 536 -199q199 -199 199 -518t-200 -518t-535 -199h-481z" />
    <glyph glyph-name="Ntilde" unicode="&#xd1;" horiz-adv-x="1615" 
d="M195 0v1434h219l766 -1012h4v1012h237v-1434h-219l-766 1014h-4v-1014h-237zM654 1847q63 0 156 -38t116 -37q57 0 69 81l158 -41q-7 -137 -69 -188t-124 -51t-157 38q-94 38 -115 38q-55 0 -67 -82l-160 41q8 137 69 188t124 51z" />
    <glyph glyph-name="Ograve" unicode="&#xd2;" horiz-adv-x="1619" 
d="M811 199q199 0 325 147q126 146 126 370t-126 371t-325 147t-326 -146q-127 -148 -127 -371t127 -371t326 -147zM1518 717q0 -319 -206 -531t-502 -211q-296 0 -502 211q-206 210 -206 530t206 531t502 211t502 -211t206 -530zM715 1563l-170 292h307l61 -292h-198z" />
    <glyph glyph-name="Oacute" unicode="&#xd3;" horiz-adv-x="1619" 
d="M811 199q199 0 325 147q126 146 126 370t-126 371t-325 147t-326 -146q-127 -148 -127 -371t127 -371t326 -147zM1518 717q0 -319 -206 -531t-502 -211q-296 0 -502 211q-206 210 -206 530t206 531t502 211t502 -211t206 -530zM711 1563l61 292h307l-170 -292h-198z" />
    <glyph glyph-name="Ocircumflex" unicode="&#xd4;" horiz-adv-x="1619" 
d="M811 199q199 0 325 147q126 146 126 370t-126 371t-325 147t-326 -146q-127 -148 -127 -371t127 -371t326 -147zM1518 717q0 -319 -206 -531t-502 -211q-296 0 -502 211q-206 210 -206 530t206 531t502 211t502 -211t206 -530zM442 1561l269 350h200l269 -350h-230
l-137 161h-4l-135 -161h-232z" />
    <glyph glyph-name="Otilde" unicode="&#xd5;" horiz-adv-x="1619" 
d="M811 199q199 0 325 147q126 146 126 370t-126 371t-325 147t-326 -146q-127 -148 -127 -371t127 -371t326 -147zM1518 717q0 -319 -206 -531t-502 -211q-296 0 -502 211q-206 210 -206 530t206 531t502 211t502 -211t206 -530zM658 1847q62 0 156 -38q93 -38 116 -37
q57 0 69 81l158 -41q-7 -137 -69 -188t-124 -51t-157 38q-94 38 -115 38q-55 0 -67 -82l-160 41q7 137 69 188t124 51z" />
    <glyph glyph-name="Odieresis" unicode="&#xd6;" horiz-adv-x="1619" 
d="M811 199q199 0 325 147q126 146 126 370t-126 371t-325 147t-326 -146q-127 -148 -127 -371t127 -371t326 -147zM1518 717q0 -319 -206 -531t-502 -211q-296 0 -502 211q-206 210 -206 530t206 531t502 211t502 -211t206 -530zM895 1575v280h250v-280h-250zM479 1575v280
h248v-280h-248z" />
    <glyph glyph-name="multiply" unicode="&#xd7;" horiz-adv-x="1050" 
d="M236 281l-146 145l291 291l-291 291l146 143l290 -291l291 291l144 -143l-291 -291l291 -291l-144 -145l-291 290z" />
    <glyph glyph-name="Oslash" unicode="&#xd8;" horiz-adv-x="1619" 
d="M811 199q199 0 325 147t126 371q0 141 -54 258l-676 -676q119 -100 279 -100zM811 1235q-199 1 -326 -147t-127 -371q1 -129 50 -248l671 674q-111 92 -268 92zM1518 717q0 -319 -206 -531t-502 -211q-296 0 -502 211q-206 210 -206 530t206 531t502 211t502 -211
t206 -530z" />
    <glyph glyph-name="Ugrave" unicode="&#xd9;" horiz-adv-x="1499" 
d="M748 -25q-268 0 -426 156t-158 375v928h246v-897q0 -164 94 -251t248 -87t250 87t96 249v899h237v-928q1 -219 -159 -375t-428 -156zM651 1563l-170 292h307l62 -292h-199z" />
    <glyph glyph-name="Uacute" unicode="&#xda;" horiz-adv-x="1499" 
d="M748 -25q-268 0 -426 156t-158 375v928h246v-897q0 -164 94 -251t248 -87t250 87t96 249v899h237v-928q1 -219 -159 -375t-428 -156zM647 1563l62 292h307l-170 -292h-199z" />
    <glyph glyph-name="Ucircumflex" unicode="&#xdb;" horiz-adv-x="1499" 
d="M748 -25q-268 0 -426 156t-158 375v928h246v-897q0 -164 94 -251t248 -87t250 87t96 249v899h237v-928q1 -219 -159 -375t-428 -156zM379 1561l268 350h201l268 -350h-229l-137 161h-5l-135 -161h-231z" />
    <glyph glyph-name="Udieresis" unicode="&#xdc;" horiz-adv-x="1499" 
d="M748 -25q-268 0 -426 156t-158 375v928h246v-897q0 -164 94 -251t248 -87t250 87t96 249v899h237v-928q1 -219 -159 -375t-428 -156zM831 1575v280h250v-280h-250zM416 1575v280h248v-280h-248z" />
    <glyph glyph-name="Yacute" unicode="&#xdd;" horiz-adv-x="1353" 
d="M555 0v584l-535 850h287l377 -617h4l371 617h274l-532 -850v-584h-246zM578 1563l61 292h307l-170 -292h-198z" />
    <glyph glyph-name="Thorn" unicode="&#xde;" horiz-adv-x="1286" 
d="M440 510h242q121 -4 199 58q77 62 77 170t-76 172q-77 62 -200 63h-242v-463zM195 0v1434h245v-244h260q240 0 376 -131t136 -319t-135 -318q-135 -129 -377 -129h-260v-293h-245z" />
    <glyph glyph-name="germandbls" unicode="&#xdf;" horiz-adv-x="1171" 
d="M1128 299q0 -129 -97 -227t-269 -97q-172 0 -289 95l150 149q72 -53 133 -53t100 33t39 88t-68 117q-20 19 -50 48t-68 62q-127 117 -127 215q0 59 105 215t105 222t-50 121q-50 54 -146 54t-158 -70q-61 -71 -61 -204v-1067h-234v1051q0 231 131 360t330 129
q198 0 306 -108t108 -246q0 -72 -31 -147t-67 -123q-98 -132 -97 -161q0 -45 153 -174q56 -48 104 -125t48 -157z" />
    <glyph glyph-name="agrave" unicode="&#xe0;" horiz-adv-x="1071" 
d="M424 -25q-154 1 -256 97t-102 236t111 238q112 97 337 97q92 0 197 -16v32q1 83 -53 131t-148 48q-139 0 -254 -86l-150 149q78 68 189 106t223 37q202 0 314 -102t112 -291v-651h-227v104h-4q-94 -129 -289 -129zM488 166q91 0 157 66t66 171v48q-79 14 -181 14
t-164 -41q-62 -40 -62 -106t46 -109q47 -43 138 -43zM418 1141l-170 293h307l61 -293h-198z" />
    <glyph glyph-name="aacute" unicode="&#xe1;" horiz-adv-x="1071" 
d="M424 -25q-154 1 -256 97t-102 236t111 238q112 97 337 97q92 0 197 -16v32q1 83 -53 131t-148 48q-139 0 -254 -86l-150 149q78 68 189 106t223 37q202 0 314 -102t112 -291v-651h-227v104h-4q-94 -129 -289 -129zM488 166q91 0 157 66t66 171v48q-79 14 -181 14
t-164 -41q-62 -40 -62 -106t46 -109q47 -43 138 -43zM414 1141l61 293h307l-170 -293h-198z" />
    <glyph glyph-name="acircumflex" unicode="&#xe2;" horiz-adv-x="1071" 
d="M424 -25q-154 1 -256 97t-102 236t111 238q112 97 337 97q92 0 197 -16v32q1 83 -53 131t-148 48q-139 0 -254 -86l-150 149q78 68 189 106t223 37q202 0 314 -102t112 -291v-651h-227v104h-4q-94 -129 -289 -129zM488 166q91 0 157 66t66 171v48q-79 14 -181 14
t-164 -41q-62 -40 -62 -106t46 -109q47 -43 138 -43zM145 1139l269 350h200l269 -350h-230l-137 161h-4l-135 -161h-232z" />
    <glyph glyph-name="atilde" unicode="&#xe3;" horiz-adv-x="1071" 
d="M424 -25q-154 1 -256 97t-102 236t111 238q112 97 337 97q92 0 197 -16v32q1 83 -53 131t-148 48q-139 0 -254 -86l-150 149q78 68 189 106t223 37q202 0 314 -102t112 -291v-651h-227v104h-4q-94 -129 -289 -129zM488 166q91 0 157 66t66 171v48q-79 14 -181 14
t-164 -41q-62 -40 -62 -106t46 -109q47 -43 138 -43zM362 1425q62 1 155 -37t116 -38q57 0 69 82l158 -41q-8 -137 -69 -189t-124 -51q-63 0 -157 38t-115 38q-55 0 -67 -82l-160 41q8 137 70 188t124 51z" />
    <glyph glyph-name="adieresis" unicode="&#xe4;" horiz-adv-x="1071" 
d="M424 -25q-154 1 -256 97t-102 236t111 238q112 97 337 97q92 0 197 -16v32q1 83 -53 131t-148 48q-139 0 -254 -86l-150 149q78 68 189 106t223 37q202 0 314 -102t112 -291v-651h-227v104h-4q-94 -129 -289 -129zM488 166q91 0 157 66t66 171v48q-79 14 -181 14
t-164 -41q-62 -40 -62 -106t46 -109q47 -43 138 -43zM598 1153v281h250v-281h-250zM182 1153v281h248v-281h-248z" />
    <glyph glyph-name="aring" unicode="&#xe5;" horiz-adv-x="1071" 
d="M424 -25q-154 1 -256 97t-102 236t111 238q112 97 337 97q92 0 197 -16v32q1 83 -53 131t-148 48q-139 0 -254 -86l-150 149q78 68 189 106t223 37q202 0 314 -102t112 -291v-651h-227v104h-4q-94 -129 -289 -129zM488 166q91 0 157 66t66 171v48q-79 14 -181 14
t-164 -41q-62 -40 -62 -106t46 -109q47 -43 138 -43zM515 1253q46 0 80 31t34 78t-34 78q-34 30 -80 30t-80 -30t-34 -78q0 -47 34 -78t80 -31zM514 1112q-114 0 -192 71t-78 179t78 180q78 70 192 70t194 -71q78 -71 78 -179t-78 -180q-78 -70 -194 -70z" />
    <glyph glyph-name="ae" unicode="&#xe6;" horiz-adv-x="1695" 
d="M487 170q90 0 157 67t67 169v47q-96 14 -164 14q-244 0 -244 -152q0 -57 47 -101t137 -44zM1192 -25q-117 1 -215 49t-156 134h-4q-125 -182 -371 -183q-172 1 -276 97t-104 237t111 238q112 96 337 96q92 0 197 -16v32q3 83 -51 131t-168 48t-236 -86l-150 149
q172 143 408 143t342 -135h4q124 135 316 135t321 -144t129 -423v-43h-690q16 -120 95 -184t193 -64t210 95l145 -146q-158 -160 -387 -160zM1168 846q-94 0 -158 -68q-62 -68 -74 -172h453q-7 100 -67 170t-154 70z" />
    <glyph glyph-name="ccedilla" unicode="&#xe7;" horiz-adv-x="991" 
d="M78 510q0 233 142 384q142 150 366 150t364 -143l-147 -145q-88 84 -211 84t-200 -94t-77 -236t77 -236t200 -94t211 84l147 -145q-115 -117 -293 -139l-206 -308h-191l148 332q-152 52 -241 188t-89 318z" />
    <glyph glyph-name="egrave" unicode="&#xe8;" horiz-adv-x="1132" 
d="M576 846q-100 0 -168 -70t-82 -170h491q-8 100 -74 170q-67 70 -167 70zM614 -25q-232 1 -385 147q-151 146 -151 382t142 389q142 151 355 151t351 -144t139 -423v-43h-739q16 -120 99 -184t193 -64q145 0 244 99l150 -150q-166 -160 -398 -160zM479 1141l-170 293h307
l62 -293h-199z" />
    <glyph glyph-name="eacute" unicode="&#xe9;" horiz-adv-x="1132" 
d="M576 846q-100 0 -168 -70t-82 -170h491q-8 100 -74 170q-67 70 -167 70zM614 -25q-232 1 -385 147q-151 146 -151 382t142 389q142 151 355 151t351 -144t139 -423v-43h-739q16 -120 99 -184t193 -64q145 0 244 99l150 -150q-166 -160 -398 -160zM475 1141l62 293h307
l-170 -293h-199z" />
    <glyph glyph-name="ecircumflex" unicode="&#xea;" horiz-adv-x="1132" 
d="M576 846q-100 0 -168 -70t-82 -170h491q-8 100 -74 170q-67 70 -167 70zM614 -25q-232 1 -385 147q-151 146 -151 382t142 389q142 151 355 151t351 -144t139 -423v-43h-739q16 -120 99 -184t193 -64q145 0 244 99l150 -150q-166 -160 -398 -160zM207 1139l268 350h201
l268 -350h-229l-137 161h-5l-135 -161h-231z" />
    <glyph glyph-name="edieresis" unicode="&#xeb;" horiz-adv-x="1132" 
d="M576 846q-100 0 -168 -70t-82 -170h491q-8 100 -74 170q-67 70 -167 70zM614 -25q-232 1 -385 147q-151 146 -151 382t142 389q142 151 355 151t351 -144t139 -423v-43h-739q16 -120 99 -184t193 -64q145 0 244 99l150 -150q-166 -160 -398 -160zM659 1153v281h250v-281
h-250zM244 1153v281h248v-281h-248z" />
    <glyph glyph-name="igrave" unicode="&#xec;" horiz-adv-x="591" 
d="M215 0v823h-184l71 197h347v-1020h-234zM225 1141l-170 293h307l62 -293h-199z" />
    <glyph glyph-name="iacute" unicode="&#xed;" horiz-adv-x="591" 
d="M215 0v823h-184l71 197h347v-1020h-234zM221 1141l62 293h307l-170 -293h-199z" />
    <glyph glyph-name="icircumflex" unicode="&#xee;" horiz-adv-x="591" 
d="M215 0v823h-184l71 197h347v-1020h-234zM-47 1139l268 350h201l268 -350h-229l-137 161h-5l-135 -161h-231z" />
    <glyph glyph-name="idieresis" unicode="&#xef;" horiz-adv-x="591" 
d="M215 0v823h-184l71 197h347v-1020h-234zM385 1153v281h250v-281h-250zM-10 1153v281h248v-281h-248z" />
    <glyph glyph-name="eth" unicode="&#xf0;" horiz-adv-x="1193" 
d="M590 184q120 0 196 92t76 234t-76 235t-196 93t-198 -92q-77 -92 -77 -235t77 -235t198 -92zM596 -25q-236 0 -377 158q-141 157 -141 397t143 377t330 137q96 0 182 -40l2 4l-104 137h-273v153h160l-133 183l254 37l154 -220h254v-153h-152q209 -336 209 -591t-136 -417
t-372 -162z" />
    <glyph glyph-name="ntilde" unicode="&#xf1;" horiz-adv-x="1167" 
d="M143 0v1020h230v-123h4q115 147 290 147t273 -100t98 -276v-668h-233v621q0 100 -54 151t-137 51q-135 0 -237 -133v-690h-234zM418 1425q62 1 156 -37q93 -38 116 -38q57 0 70 82l158 -41q-8 -137 -70 -189t-124 -51q-62 0 -156 38t-115 38q-56 0 -68 -82l-160 41
q7 137 69 188t124 51z" />
    <glyph glyph-name="ograve" unicode="&#xf2;" horiz-adv-x="1181" 
d="M590 184q122 0 198 92t76 234t-77 235t-197 93t-197 -92q-76 -92 -76 -235t76 -235t197 -92zM590 -25q-219 0 -366 152q-146 152 -146 384t146 383q146 150 366 150t366 -150q148 -150 148 -383q0 -232 -148 -384t-366 -152zM492 1141l-170 293h307l61 -293h-198z" />
    <glyph glyph-name="oacute" unicode="&#xf3;" horiz-adv-x="1181" 
d="M590 184q122 0 198 92t76 234t-77 235t-197 93t-197 -92q-76 -92 -76 -235t76 -235t197 -92zM590 -25q-219 0 -366 152q-146 152 -146 384t146 383q146 150 366 150t366 -150q148 -150 148 -383q0 -232 -148 -384t-366 -152zM487 1141l62 293h307l-170 -293h-199z" />
    <glyph glyph-name="ocircumflex" unicode="&#xf4;" horiz-adv-x="1181" 
d="M590 184q122 0 198 92t76 234t-77 235t-197 93t-197 -92q-76 -92 -76 -235t76 -235t197 -92zM590 -25q-219 0 -366 152q-146 152 -146 384t146 383q146 150 366 150t366 -150q148 -150 148 -383q0 -232 -148 -384t-366 -152zM219 1139l268 350h201l268 -350h-229
l-137 161h-4l-135 -161h-232z" />
    <glyph glyph-name="otilde" unicode="&#xf5;" horiz-adv-x="1181" 
d="M590 184q122 0 198 92t76 234t-77 235t-197 93t-197 -92q-76 -92 -76 -235t76 -235t197 -92zM590 -25q-219 0 -366 152q-146 152 -146 384t146 383q146 150 366 150t366 -150q148 -150 148 -383q0 -232 -148 -384t-366 -152zM435 1425q63 1 156 -37t116 -38q57 0 69 82
l158 -41q-8 -137 -70 -189t-124 -51q-62 0 -156 38t-115 38q-56 0 -68 -82l-159 41q8 137 69 188t124 51z" />
    <glyph glyph-name="odieresis" unicode="&#xf6;" horiz-adv-x="1181" 
d="M590 184q122 0 198 92t76 234t-77 235t-197 93t-197 -92q-76 -92 -76 -235t76 -235t197 -92zM590 -25q-219 0 -366 152q-146 152 -146 384t146 383q146 150 366 150t366 -150q148 -150 148 -383q0 -232 -148 -384t-366 -152zM672 1153v281h250v-281h-250zM256 1153v281
h248v-281h-248z" />
    <glyph glyph-name="divide" unicode="&#xf7;" horiz-adv-x="995" 
d="M369 233v252h254v-252h-254zM70 614v205h856v-205h-856zM369 948v254h254v-254h-254z" />
    <glyph glyph-name="oslash" unicode="&#xf8;" horiz-adv-x="1181" 
d="M590 184q122 0 198 92t76 234q0 68 -20 135l-410 -409q68 -52 156 -52zM317 510q0 -71 23 -139l410 411q-68 56 -174 56t-183 -92q-76 -92 -76 -236zM590 -25q-219 0 -366 152q-146 152 -146 384t146 383q146 150 366 150t366 -150q148 -150 148 -383q0 -232 -148 -384
t-366 -152z" />
    <glyph glyph-name="ugrave" unicode="&#xf9;" 
d="M491 -25q-170 -1 -268 101t-98 276v668h233v-621q0 -100 52 -152t131 -52q133 0 231 135v690h234v-1020h-230v121h-4q-111 -146 -281 -146zM463 1141l-170 293h307l62 -293h-199z" />
    <glyph glyph-name="uacute" unicode="&#xfa;" 
d="M491 -25q-170 -1 -268 101t-98 276v668h233v-621q0 -100 52 -152t131 -52q133 0 231 135v690h234v-1020h-230v121h-4q-111 -146 -281 -146zM459 1141l61 293h307l-170 -293h-198z" />
    <glyph glyph-name="ucircumflex" unicode="&#xfb;" 
d="M491 -25q-170 -1 -268 101t-98 276v668h233v-621q0 -100 52 -152t131 -52q133 0 231 135v690h234v-1020h-230v121h-4q-111 -146 -281 -146zM190 1139l269 350h200l269 -350h-230l-137 161h-4l-135 -161h-232z" />
    <glyph glyph-name="udieresis" unicode="&#xfc;" 
d="M491 -25q-170 -1 -268 101t-98 276v668h233v-621q0 -100 52 -152t131 -52q133 0 231 135v690h234v-1020h-230v121h-4q-111 -146 -281 -146zM643 1153v281h250v-281h-250zM227 1153v281h248v-281h-248z" />
    <glyph glyph-name="yacute" unicode="&#xfd;" horiz-adv-x="1056" 
d="M233 -379l216 524h-78l-344 875h258l245 -670h5l245 670h250l-549 -1399h-248zM432 1141l62 293h307l-170 -293h-199z" />
    <glyph glyph-name="thorn" unicode="&#xfe;" horiz-adv-x="1253" 
d="M377 143v-522h-234v1899h234v-643h4q43 71 128 119t191 48q203 0 338 -150q136 -150 136 -383q0 -232 -136 -384t-338 -152q-106 1 -191 49t-128 119h-4zM369 510q0 -140 80 -234q81 -94 203 -94t201 93t79 235t-79 234q-79 94 -202 94t-203 -94t-79 -234z" />
    <glyph glyph-name="ydieresis" unicode="&#xff;" horiz-adv-x="1056" 
d="M233 -379l216 524h-78l-344 875h258l245 -670h5l245 670h250l-549 -1399h-248zM616 1153v281h250v-281h-250zM201 1153v281h248v-281h-248z" />
    <glyph glyph-name="Amacron" unicode="&#x100;" horiz-adv-x="1409" 
d="M301 0h-262l557 1434h217l557 -1434h-272l-119 324h-561zM494 530h411l-205 553h-4zM408 1591v185h596v-185h-596z" />
    <glyph glyph-name="amacron" unicode="&#x101;" horiz-adv-x="1071" 
d="M424 -25q-154 1 -256 97t-102 236t111 238q112 97 337 97q92 0 197 -16v32q1 83 -53 131t-148 48q-139 0 -254 -86l-150 149q78 68 189 106t223 37q202 0 314 -102t112 -291v-651h-227v104h-4q-94 -129 -289 -129zM488 166q91 0 157 66t66 171v48q-79 14 -181 14
t-164 -41q-62 -40 -62 -106t46 -109q47 -43 138 -43zM217 1169v185h596v-185h-596z" />
    <glyph glyph-name="Abreve" unicode="&#x102;" horiz-adv-x="1409" 
d="M301 0h-262l557 1434h217l557 -1434h-272l-119 324h-561zM494 530h411l-205 553h-4zM707 1563q-119 0 -206 55t-130 119l127 127q84 -113 211 -113t204 113l127 -127q-42 -63 -128 -119t-205 -55z" />
    <glyph glyph-name="abreve" unicode="&#x103;" horiz-adv-x="1071" 
d="M424 -25q-154 1 -256 97t-102 236t111 238q112 97 337 97q92 0 197 -16v32q1 83 -53 131t-148 48q-139 0 -254 -86l-150 149q78 68 189 106t223 37q202 0 314 -102t112 -291v-651h-227v104h-4q-94 -129 -289 -129zM488 166q91 0 157 66t66 171v48q-79 14 -181 14
t-164 -41q-62 -40 -62 -106t46 -109q47 -43 138 -43zM516 1141q-119 0 -206 55t-130 119l127 127q84 -113 211 -113t205 113l127 -127q-41 -63 -128 -119t-206 -55z" />
    <glyph glyph-name="cacute" unicode="&#x107;" horiz-adv-x="991" 
d="M587 -25q-224 0 -367 151q-142 151 -142 384t142 384q142 150 366 150t364 -143l-147 -145q-88 84 -211 84t-200 -94t-77 -236t77 -236t200 -94t211 84l147 -145q-139 -144 -363 -144zM416 1141l61 293h307l-170 -293h-198z" />
    <glyph glyph-name="ccircumflex" unicode="&#x109;" horiz-adv-x="991" 
d="M587 -25q-224 0 -367 151q-142 151 -142 384t142 384q142 150 366 150t364 -143l-147 -145q-88 84 -211 84t-200 -94t-77 -236t77 -236t200 -94t211 84l147 -145q-139 -144 -363 -144zM147 1139l269 350h200l269 -350h-230l-137 161h-4l-135 -161h-232z" />
    <glyph glyph-name="cdotaccent" unicode="&#x10b;" horiz-adv-x="991" 
d="M587 -25q-224 0 -367 151q-142 151 -142 384t142 384q142 150 366 150t364 -143l-147 -145q-88 84 -211 84t-200 -94t-77 -236t77 -236t200 -94t211 84l147 -145q-139 -144 -363 -144zM381 1165v281h272v-281h-272z" />
    <glyph glyph-name="ccaron" unicode="&#x10d;" horiz-adv-x="991" 
d="M587 -25q-224 0 -367 151q-142 151 -142 384t142 384q142 150 366 150t364 -143l-147 -145q-88 84 -211 84t-200 -94t-77 -236t77 -236t200 -94t211 84l147 -145q-139 -144 -363 -144zM416 1141l-269 350h232l135 -162h4l137 162h230l-269 -350h-200z" />
    <glyph glyph-name="Emacron" unicode="&#x112;" horiz-adv-x="1236" 
d="M195 0v1434h954l-80 -217h-629v-371h439v-217h-439v-412h727v-217h-972zM369 1591v185h596v-185h-596z" />
    <glyph glyph-name="emacron" unicode="&#x113;" horiz-adv-x="1132" 
d="M576 846q-100 0 -168 -70t-82 -170h491q-8 100 -74 170q-67 70 -167 70zM614 -25q-232 1 -385 147q-151 146 -151 382t142 389q142 151 355 151t351 -144t139 -423v-43h-739q16 -120 99 -184t193 -64q145 0 244 99l150 -150q-166 -160 -398 -160zM279 1169v185h595v-185
h-595z" />
    <glyph glyph-name="Ebreve" unicode="&#x114;" horiz-adv-x="1236" 
d="M195 0v1434h954l-80 -217h-629v-371h439v-217h-439v-412h727v-217h-972zM668 1563q-119 0 -206 55t-130 119l127 127q84 -113 211 -113t204 113l127 -127q-41 -63 -127 -119t-206 -55z" />
    <glyph glyph-name="ebreve" unicode="&#x115;" horiz-adv-x="1132" 
d="M576 846q-100 0 -168 -70t-82 -170h491q-8 100 -74 170q-67 70 -167 70zM614 -25q-232 1 -385 147q-151 146 -151 382t142 389q142 151 355 151t351 -144t139 -423v-43h-739q16 -120 99 -184t193 -64q145 0 244 99l150 -150q-166 -160 -398 -160zM577 1141
q-119 0 -205 55t-130 119l127 127q85 -113 211 -113t204 113l127 -127q-41 -63 -128 -119t-206 -55z" />
    <glyph glyph-name="Edotaccent" unicode="&#x116;" horiz-adv-x="1236" 
d="M195 0v1434h954l-80 -217h-629v-371h439v-217h-439v-412h727v-217h-972zM530 1587v281h273v-281h-273z" />
    <glyph glyph-name="edotaccent" unicode="&#x117;" horiz-adv-x="1132" 
d="M576 846q-100 0 -168 -70t-82 -170h491q-8 100 -74 170q-67 70 -167 70zM614 -25q-232 1 -385 147q-151 146 -151 382t142 389q142 151 355 151t351 -144t139 -423v-43h-739q16 -120 99 -184t193 -64q145 0 244 99l150 -150q-166 -160 -398 -160zM440 1165v281h273v-281
h-273z" />
    <glyph glyph-name="Ecaron" unicode="&#x11a;" horiz-adv-x="1236" 
d="M195 0v1434h954l-80 -217h-629v-371h439v-217h-439v-412h727v-217h-972zM565 1563l-268 350h231l136 -162h4l137 162h229l-268 -350h-201z" />
    <glyph glyph-name="ecaron" unicode="&#x11b;" horiz-adv-x="1132" 
d="M576 846q-100 0 -168 -70t-82 -170h491q-8 100 -74 170q-67 70 -167 70zM614 -25q-232 1 -385 147q-151 146 -151 382t142 389q142 151 355 151t351 -144t139 -423v-43h-739q16 -120 99 -184t193 -64q145 0 244 99l150 -150q-166 -160 -398 -160zM475 1141l-268 350h231
l135 -162h5l137 162h229l-268 -350h-201z" />
    <glyph glyph-name="gcircumflex" unicode="&#x11d;" horiz-adv-x="1198" 
d="M745 178q141 0 221 -74t78 -202q0 -128 -131 -228q-131 -102 -415 -102t-473 115l157 157q164 -80 334 -80q287 0 287 125q0 78 -117 78h-287q-147 0 -215 73q-68 72 -68 180t89 204q-115 102 -115 256t119 259t326 105q139 0 241 -51q119 115 275 115q78 0 151 -25
l-72 -198q-53 16 -106 16t-104 -29q59 -88 59 -192q0 -152 -119 -258t-325 -107q-94 0 -199 31q-25 -39 -25 -80q0 -88 123 -88h311zM535 862q-101 0 -159 -53t-58 -130t56 -130q58 -53 160 -53t160 53t58 130t-58 130t-159 53zM158 1139l268 350h201l268 -350h-229
l-138 161h-4l-135 -161h-231z" />
    <glyph glyph-name="gbreve" unicode="&#x11f;" horiz-adv-x="1198" 
d="M745 178q141 0 221 -74t78 -202q0 -128 -131 -228q-131 -102 -415 -102t-473 115l157 157q164 -80 334 -80q287 0 287 125q0 78 -117 78h-287q-147 0 -215 73q-68 72 -68 180t89 204q-115 102 -115 256t119 259t326 105q139 0 241 -51q119 115 275 115q78 0 151 -25
l-72 -198q-53 16 -106 16t-104 -29q59 -88 59 -192q0 -152 -119 -258t-325 -107q-94 0 -199 31q-25 -39 -25 -80q0 -88 123 -88h311zM535 862q-101 0 -159 -53t-58 -130t56 -130q58 -53 160 -53t160 53t58 130t-58 130t-159 53zM528 1141q-120 0 -206 55t-129 119l126 127
q84 -113 211 -113t205 113l127 -127q-41 -63 -128 -119t-206 -55z" />
    <glyph glyph-name="gdotaccent" unicode="&#x121;" horiz-adv-x="1198" 
d="M745 178q141 0 221 -74t78 -202q0 -128 -131 -228q-131 -102 -415 -102t-473 115l157 157q164 -80 334 -80q287 0 287 125q0 78 -117 78h-287q-147 0 -215 73q-68 72 -68 180t89 204q-115 102 -115 256t119 259t326 105q139 0 241 -51q119 115 275 115q78 0 151 -25
l-72 -198q-53 16 -106 16t-104 -29q59 -88 59 -192q0 -152 -119 -258t-325 -107q-94 0 -199 31q-25 -39 -25 -80q0 -88 123 -88h311zM535 862q-101 0 -159 -53t-58 -130t56 -130q58 -53 160 -53t160 53t58 130t-58 130t-159 53zM391 1165v281h273v-281h-273z" />
    <glyph glyph-name="Itilde" unicode="&#x128;" horiz-adv-x="950" 
d="M88 0v207h264v1020h-264v207h774v-207h-264v-1020h264v-207h-774zM322 1847q62 0 156 -38q93 -38 116 -37q57 0 70 81l157 -41q-8 -137 -69 -188t-124 -51t-157 38t-115 38q-55 0 -67 -82l-160 41q7 137 69 188t124 51z" />
    <glyph glyph-name="itilde" unicode="&#x129;" horiz-adv-x="591" 
d="M215 0v823h-184l71 197h347v-1020h-234zM168 1425q62 1 156 -37t116 -38q57 0 70 82l158 -41q-8 -137 -70 -189t-124 -51q-62 0 -156 38t-115 38q-56 0 -68 -82l-160 41q7 137 69 188t124 51z" />
    <glyph glyph-name="Imacron" unicode="&#x12a;" horiz-adv-x="950" 
d="M88 0v207h264v1020h-264v207h774v-207h-264v-1020h264v-207h-774zM178 1591v185h596v-185h-596z" />
    <glyph glyph-name="imacron" unicode="&#x12b;" horiz-adv-x="591" 
d="M215 0v823h-184l71 197h347v-1020h-234zM25 1169v185h596v-185h-596z" />
    <glyph glyph-name="Ibreve" unicode="&#x12c;" horiz-adv-x="950" 
d="M88 0v207h264v1020h-264v207h774v-207h-264v-1020h264v-207h-774zM477 1563q-119 0 -206 55t-130 119l127 127q84 -113 211 -113t205 113l127 -127q-41 -63 -128 -119t-206 -55z" />
    <glyph glyph-name="ibreve" unicode="&#x12d;" horiz-adv-x="591" 
d="M215 0v823h-184l71 197h347v-1020h-234zM324 1141q-119 0 -206 55t-130 119l127 127q84 -113 211 -113t204 113l127 -127q-41 -63 -127 -119t-206 -55z" />
    <glyph glyph-name="Idotaccent" unicode="&#x130;" horiz-adv-x="950" 
d="M88 0v207h264v1020h-264v207h774v-207h-264v-1020h264v-207h-774zM340 1587v281h272v-281h-272z" />
    <glyph glyph-name="dotlessi" unicode="&#x131;" horiz-adv-x="591" 
d="M215 0v823h-184l71 197h347v-1020h-234z" />
    <glyph glyph-name="Lslash" unicode="&#x141;" horiz-adv-x="1284" 
d="M236 0v518l-142 -41v201l142 41v715h247v-641l400 118v-200l-400 -119v-375h762l-80 -217h-929z" />
    <glyph glyph-name="lslash" unicode="&#x142;" horiz-adv-x="630" 
d="M201 0v602l-138 -55v215l138 55v703h233v-609l137 56v-215l-137 -56v-696h-233z" />
    <glyph glyph-name="Nacute" unicode="&#x143;" horiz-adv-x="1615" 
d="M195 0v1434h219l766 -1012h4v1012h237v-1434h-219l-766 1014h-4v-1014h-237zM707 1563l61 292h307l-170 -292h-198z" />
    <glyph glyph-name="nacute" unicode="&#x144;" horiz-adv-x="1167" 
d="M143 0v1020h230v-123h4q115 147 290 147t273 -100t98 -276v-668h-233v621q0 100 -54 151t-137 51q-135 0 -237 -133v-690h-234zM471 1141l61 293h308l-170 -293h-199z" />
    <glyph glyph-name="Ncaron" unicode="&#x147;" horiz-adv-x="1615" 
d="M195 0v1434h219l766 -1012h4v1012h237v-1434h-219l-766 1014h-4v-1014h-237zM707 1563l-269 350h232l135 -162h4l137 162h230l-269 -350h-200z" />
    <glyph glyph-name="ncaron" unicode="&#x148;" horiz-adv-x="1167" 
d="M143 0v1020h230v-123h4q115 147 290 147t273 -100t98 -276v-668h-233v621q0 100 -54 151t-137 51q-135 0 -237 -133v-690h-234zM471 1141l-268 350h231l135 -162h4l138 162h229l-268 -350h-201z" />
    <glyph glyph-name="Omacron" unicode="&#x14c;" horiz-adv-x="1619" 
d="M811 199q199 0 325 147q126 146 126 370t-126 371t-325 147t-326 -146q-127 -148 -127 -371t127 -371t326 -147zM1518 717q0 -319 -206 -531t-502 -211q-296 0 -502 211q-206 210 -206 530t206 531t502 211t502 -211t206 -530zM514 1591v185h596v-185h-596z" />
    <glyph glyph-name="omacron" unicode="&#x14d;" horiz-adv-x="1181" 
d="M590 184q122 0 198 92t76 234t-77 235t-197 93t-197 -92q-76 -92 -76 -235t76 -235t197 -92zM590 -25q-219 0 -366 152q-146 152 -146 384t146 383q146 150 366 150t366 -150q148 -150 148 -383q0 -232 -148 -384t-366 -152zM291 1169v185h596v-185h-596z" />
    <glyph glyph-name="Obreve" unicode="&#x14e;" horiz-adv-x="1619" 
d="M811 199q199 0 325 147q126 146 126 370t-126 371t-325 147t-326 -146q-127 -148 -127 -371t127 -371t326 -147zM1518 717q0 -319 -206 -531t-502 -211q-296 0 -502 211q-206 210 -206 530t206 531t502 211t502 -211t206 -530zM813 1563q-119 0 -206 55t-130 119l127 127
q84 -113 211 -113t205 113l127 -127q-41 -63 -128 -119t-206 -55z" />
    <glyph glyph-name="obreve" unicode="&#x14f;" horiz-adv-x="1181" 
d="M590 184q122 0 198 92t76 234t-77 235t-197 93t-197 -92q-76 -92 -76 -235t76 -235t197 -92zM590 -25q-219 0 -366 152q-146 152 -146 384t146 383q146 150 366 150t366 -150q148 -150 148 -383q0 -232 -148 -384t-366 -152zM590 1141q-119 0 -206 55t-130 119l127 127
q84 -113 211 -113t205 113l127 -127q-41 -63 -128 -119t-206 -55z" />
    <glyph glyph-name="Ohungarumlaut" unicode="&#x150;" horiz-adv-x="1619" 
d="M811 199q199 0 325 147q126 146 126 370t-126 371t-325 147t-326 -146q-127 -148 -127 -371t127 -371t326 -147zM1518 717q0 -319 -206 -531t-502 -211q-296 0 -502 211q-206 210 -206 530t206 531t502 211t502 -211t206 -530zM909 1563l64 292h307l-170 -292h-201z
M492 1563l61 292h307l-170 -292h-198z" />
    <glyph glyph-name="ohungarumlaut" unicode="&#x151;" horiz-adv-x="1181" 
d="M590 184q122 0 198 92t76 234t-77 235t-197 93t-197 -92q-76 -92 -76 -235t76 -235t197 -92zM590 -25q-219 0 -366 152q-146 152 -146 384t146 383q146 150 366 150t366 -150q148 -150 148 -383q0 -232 -148 -384t-366 -152zM686 1141l64 293h307l-170 -293h-201z
M268 1141l62 293h307l-170 -293h-199z" />
    <glyph glyph-name="OE" unicode="&#x152;" horiz-adv-x="2301" 
d="M798 -25q-300 0 -498 210t-198 532q0 321 198 531t499 210t456 -221h5v197h954l-80 -217h-629v-371h439v-217h-439v-412h727v-217h-972v195h-5q-157 -220 -457 -220zM811 199q199 0 325 147q126 146 126 370t-126 371t-325 147t-326 -146q-127 -148 -127 -371t127 -371
t326 -147z" />
    <glyph glyph-name="oe" unicode="&#x153;" horiz-adv-x="1900" 
d="M590 184q122 0 198 92t76 234t-77 235t-197 93t-197 -92q-76 -92 -76 -235t76 -235t197 -92zM1342 846q-100 0 -168 -70t-82 -170h491q-8 100 -74 170q-67 70 -167 70zM1363 -25q-251 0 -396 179h-4q-121 -178 -355 -178t-383 151q-147 152 -147 384t147 383t367 150
q119 0 214 -47t150 -129h5q153 176 373 176t358 -144t139 -423v-43h-739q16 -120 99 -184t193 -64q145 0 244 99l148 -150q-162 -160 -413 -160z" />
    <glyph glyph-name="racute" unicode="&#x155;" horiz-adv-x="835" 
d="M143 0v1020h230v-154h4q133 166 301 166q59 0 131 -22l-84 -236q-41 18 -102 19q-123 0 -246 -119v-674h-234zM356 1141l62 293h307l-170 -293h-199z" />
    <glyph glyph-name="rcaron" unicode="&#x159;" horiz-adv-x="835" 
d="M143 0v1020h230v-154h4q133 166 301 166q59 0 131 -22l-84 -236q-41 18 -102 19q-123 0 -246 -119v-674h-234zM356 1141l-268 350h231l136 -162h4l137 162h229l-268 -350h-201z" />
    <glyph glyph-name="Sacute" unicode="&#x15a;" horiz-adv-x="1193" 
d="M596 -25q-326 0 -526 201l159 160q162 -143 369 -143q115 0 178 53q64 53 64 128t-50 120t-163 92l-224 92q-283 117 -282 381q0 159 126 279t357 120q279 0 477 -194l-155 -156q-147 135 -324 135q-111 0 -166 -52t-55 -117q0 -64 43 -110t137 -85l258 -107
q281 -117 281 -375q0 -178 -138 -300t-366 -122zM498 1563l61 292h307l-170 -292h-198z" />
    <glyph glyph-name="sacute" unicode="&#x15b;" horiz-adv-x="919" 
d="M459 -25q-250 0 -410 142l150 149q115 -96 254 -96q77 0 115 31t38 69q0 70 -100 111l-203 80q-213 84 -213 282q0 127 100 214t275 87q223 0 366 -135l-145 -147q-102 90 -217 90q-61 0 -100 -28t-39 -66t28 -63q28 -26 101 -56l137 -55q129 -51 189 -122
q61 -72 61 -188t-108 -208t-279 -91zM365 1141l61 293h307l-170 -293h-198z" />
    <glyph glyph-name="Scircumflex" unicode="&#x15c;" horiz-adv-x="1193" 
d="M596 -25q-326 0 -526 201l159 160q162 -143 369 -143q115 0 178 53q64 53 64 128t-50 120t-163 92l-224 92q-283 117 -282 381q0 159 126 279t357 120q279 0 477 -194l-155 -156q-147 135 -324 135q-111 0 -166 -52t-55 -117q0 -64 43 -110t137 -85l258 -107
q281 -117 281 -375q0 -178 -138 -300t-366 -122zM229 1561l269 350h200l269 -350h-230l-137 161h-4l-135 -161h-232z" />
    <glyph glyph-name="scircumflex" unicode="&#x15d;" horiz-adv-x="919" 
d="M459 -25q-250 0 -410 142l150 149q115 -96 254 -96q77 0 115 31t38 69q0 70 -100 111l-203 80q-213 84 -213 282q0 127 100 214t275 87q223 0 366 -135l-145 -147q-102 90 -217 90q-61 0 -100 -28t-39 -66t28 -63q28 -26 101 -56l137 -55q129 -51 189 -122
q61 -72 61 -188t-108 -208t-279 -91zM96 1139l269 350h200l269 -350h-230l-137 161h-4l-135 -161h-232z" />
    <glyph glyph-name="Scaron" unicode="&#x160;" horiz-adv-x="1193" 
d="M596 -25q-326 0 -526 201l159 160q162 -143 369 -143q115 0 178 53q64 53 64 128t-50 120t-163 92l-224 92q-283 117 -282 381q0 159 126 279t357 120q279 0 477 -194l-155 -156q-147 135 -324 135q-111 0 -166 -52t-55 -117q0 -64 43 -110t137 -85l258 -107
q281 -117 281 -375q0 -178 -138 -300t-366 -122zM498 1563l-269 350h232l135 -162h4l137 162h230l-269 -350h-200z" />
    <glyph glyph-name="scaron" unicode="&#x161;" horiz-adv-x="919" 
d="M459 -25q-250 0 -410 142l150 149q115 -96 254 -96q77 0 115 31t38 69q0 70 -100 111l-203 80q-213 84 -213 282q0 127 100 214t275 87q223 0 366 -135l-145 -147q-102 90 -217 90q-61 0 -100 -28t-39 -66t28 -63q28 -26 101 -56l137 -55q129 -51 189 -122
q61 -72 61 -188t-108 -208t-279 -91zM365 1141l-269 350h232l135 -162h4l137 162h230l-269 -350h-200z" />
    <glyph glyph-name="Utilde" unicode="&#x168;" horiz-adv-x="1499" 
d="M748 -25q-268 0 -426 156t-158 375v928h246v-897q0 -164 94 -251t248 -87t250 87t96 249v899h237v-928q1 -219 -159 -375t-428 -156zM594 1847q62 0 156 -38t116 -37q57 0 70 81l158 -41q-8 -137 -70 -188t-124 -51t-156 38t-115 38q-56 0 -68 -82l-160 41q7 137 69 188
t124 51z" />
    <glyph glyph-name="utilde" unicode="&#x169;" 
d="M491 -25q-170 -1 -268 101t-98 276v668h233v-621q0 -100 52 -152t131 -52q133 0 231 135v690h234v-1020h-230v121h-4q-111 -146 -281 -146zM406 1425q62 1 156 -37q93 -38 116 -38q57 0 70 82l157 -41q-8 -137 -69 -189t-124 -51q-63 0 -157 38t-115 38q-55 0 -67 -82
l-160 41q7 137 69 188t124 51z" />
    <glyph glyph-name="Umacron" unicode="&#x16a;" horiz-adv-x="1499" 
d="M748 -25q-268 0 -426 156t-158 375v928h246v-897q0 -164 94 -251t248 -87t250 87t96 249v899h237v-928q1 -219 -159 -375t-428 -156zM451 1591v185h596v-185h-596z" />
    <glyph glyph-name="umacron" unicode="&#x16b;" 
d="M491 -25q-170 -1 -268 101t-98 276v668h233v-621q0 -100 52 -152t131 -52q133 0 231 135v690h234v-1020h-230v121h-4q-111 -146 -281 -146zM262 1169v185h596v-185h-596z" />
    <glyph glyph-name="Ubreve" unicode="&#x16c;" horiz-adv-x="1499" 
d="M748 -25q-268 0 -426 156t-158 375v928h246v-897q0 -164 94 -251t248 -87t250 87t96 249v899h237v-928q1 -219 -159 -375t-428 -156zM750 1563q-119 0 -206 55t-130 119l127 127q84 -113 211 -113t204 113l127 -127q-41 -63 -127 -119t-206 -55z" />
    <glyph glyph-name="ubreve" unicode="&#x16d;" 
d="M491 -25q-170 -1 -268 101t-98 276v668h233v-621q0 -100 52 -152t131 -52q133 0 231 135v690h234v-1020h-230v121h-4q-111 -146 -281 -146zM561 1141q-119 0 -206 55t-130 119l127 127q84 -113 211 -113t205 113l127 -127q-41 -63 -128 -119t-206 -55z" />
    <glyph glyph-name="Uring" unicode="&#x16e;" horiz-adv-x="1499" 
d="M748 -25q-268 0 -426 156t-158 375v928h246v-897q0 -164 94 -251t248 -87t250 87t96 249v899h237v-928q1 -219 -159 -375t-428 -156zM749 1675q45 0 79 31t34 78t-34 78q-34 30 -80 30t-79 -30q-34 -30 -34 -78q0 -47 34 -78t80 -31zM748 1534q-115 0 -193 71t-78 179
t78 180q78 70 193 70q116 0 194 -71t78 -179t-78 -180q-78 -70 -194 -70z" />
    <glyph glyph-name="uring" unicode="&#x16f;" 
d="M491 -25q-170 -1 -268 101t-98 276v668h233v-621q0 -100 52 -152t131 -52q133 0 231 135v690h234v-1020h-230v121h-4q-111 -146 -281 -146zM560 1253q46 0 80 31t34 78t-34 78q-34 30 -80 30t-80 -30t-34 -78q0 -47 34 -78t80 -31zM559 1112q-115 0 -193 71t-77 179
q0 108 78 180q79 70 193 70t193 -71t79 -179t-80 -180q-78 -70 -193 -70z" />
    <glyph glyph-name="Uhungarumlaut" unicode="&#x170;" horiz-adv-x="1499" 
d="M748 -25q-268 0 -426 156t-158 375v928h246v-897q0 -164 94 -251t248 -87t250 87t96 249v899h237v-928q1 -219 -159 -375t-428 -156zM846 1563l63 292h308l-170 -292h-201zM428 1563l61 292h308l-170 -292h-199z" />
    <glyph glyph-name="uhungarumlaut" unicode="&#x171;" 
d="M491 -25q-170 -1 -268 101t-98 276v668h233v-621q0 -100 52 -152t131 -52q133 0 231 135v690h234v-1020h-230v121h-4q-111 -146 -281 -146zM657 1141l64 293h307l-170 -293h-201zM240 1141l61 293h307l-170 -293h-198z" />
    <glyph glyph-name="Ycircumflex" unicode="&#x176;" horiz-adv-x="1353" 
d="M555 0v584l-535 850h287l377 -617h4l371 617h274l-532 -850v-584h-246zM309 1561l269 350h200l269 -350h-230l-137 161h-4l-135 -161h-232z" />
    <glyph glyph-name="ycircumflex" unicode="&#x177;" horiz-adv-x="1056" 
d="M233 -379l216 524h-78l-344 875h258l245 -670h5l245 670h250l-549 -1399h-248zM164 1139l268 350h201l268 -350h-229l-137 161h-5l-135 -161h-231z" />
    <glyph glyph-name="Ydieresis" unicode="&#x178;" horiz-adv-x="1353" 
d="M555 0v584l-535 850h287l377 -617h4l371 617h274l-532 -850v-584h-246zM762 1575v280h250v-280h-250zM346 1575v280h248v-280h-248z" />
    <glyph glyph-name="Zacute" unicode="&#x179;" horiz-adv-x="1320" 
d="M84 0v188l780 1029h-751v217h1073v-189l-780 -1028h849l-79 -217h-1092zM539 1563l61 292h307l-170 -292h-198z" />
    <glyph glyph-name="zacute" unicode="&#x17a;" horiz-adv-x="989" 
d="M70 0v172l501 651h-489v197h786v-170l-506 -653h574l-70 -197h-796zM377 1141l61 293h307l-170 -293h-198z" />
    <glyph glyph-name="Zdotaccent" unicode="&#x17b;" horiz-adv-x="1320" 
d="M84 0v188l780 1029h-751v217h1073v-189l-780 -1028h849l-79 -217h-1092zM504 1587v281h272v-281h-272z" />
    <glyph glyph-name="zdotaccent" unicode="&#x17c;" horiz-adv-x="989" 
d="M70 0v172l501 651h-489v197h786v-170l-506 -653h574l-70 -197h-796zM342 1165v281h272v-281h-272z" />
    <glyph glyph-name="Zcaron" unicode="&#x17d;" horiz-adv-x="1320" 
d="M84 0v188l780 1029h-751v217h1073v-189l-780 -1028h849l-79 -217h-1092zM539 1563l-269 350h232l135 -162h4l137 162h230l-269 -350h-200z" />
    <glyph glyph-name="zcaron" unicode="&#x17e;" horiz-adv-x="989" 
d="M70 0v172l501 651h-489v197h786v-170l-506 -653h574l-70 -197h-796zM377 1141l-268 350h231l135 -162h4l137 162h230l-268 -350h-201z" />
    <glyph glyph-name="florin" unicode="&#x192;" horiz-adv-x="1009" 
d="M718 1540q163 0 281 -100l-149 -148q-52 39 -118 39t-105 -40t-49 -107l-29 -164h293l-72 -197h-256l-145 -823h-234l146 823h-189l33 197h190l29 174q27 146 119 246t255 100z" />
    <glyph glyph-name="circumflex" unicode="&#x2c6;" horiz-adv-x="827" 
d="M45 1176l268 350h201l268 -350h-229l-137 161h-4l-136 -161h-231z" />
    <glyph glyph-name="caron" unicode="&#x2c7;" horiz-adv-x="815" 
d="M307 1176l-268 350h231l136 -162h4l137 162h229l-268 -350h-201z" />
    <glyph glyph-name="breve" unicode="&#x2d8;" horiz-adv-x="811" 
d="M405 1176q-119 0 -205 55t-130 119l127 127q85 -113 211 -113t204 113l127 -127q-41 -62 -128 -118t-206 -56z" />
    <glyph glyph-name="dotaccent" unicode="&#x2d9;" horiz-adv-x="559" 
d="M143 1200v281h273v-281h-273z" />
    <glyph glyph-name="ring" unicode="&#x2da;" horiz-adv-x="731" 
d="M366 1288q46 0 80 31t33 78q0 47 -34 78q-33 31 -79 31t-80 -32q-34 -30 -34 -77t34 -78t80 -31zM365 1147q-115 0 -193 71q-78 72 -78 180t78 178t193 71q115 0 193 -71q78 -72 79 -180q-1 -108 -79 -178t-193 -71z" />
    <glyph glyph-name="ogonek" unicode="&#x2db;" horiz-adv-x="552" 
d="M326 -403q-121 0 -182 49q-60 49 -60 138t80 186t178 161l88 -53q-139 -158 -139 -236q0 -72 104 -71q29 0 66 6l-4 -168q-74 -12 -131 -12z" />
    <glyph glyph-name="tilde" unicode="&#x2dc;" horiz-adv-x="903" 
d="M300 1460q62 0 156 -38t115 -38q57 0 70 82l158 -41q-7 -137 -69 -188t-124 -51t-157 38q-94 38 -115 38q-56 0 -68 -82l-160 41q8 137 70 188t124 51z" />
    <glyph glyph-name="hungarumlaut" unicode="&#x2dd;" horiz-adv-x="966" 
d="M532 1176l64 292h307l-170 -292h-201zM115 1176l61 292h307l-170 -292h-198z" />
    <glyph glyph-name="Delta" unicode="&#x394;" horiz-adv-x="1470" 
d="M389 217h682l-340 852h-4zM49 0v217h90l504 1217h184l504 -1217h90v-217h-1372z" />
    <glyph glyph-name="Omega" unicode="&#x3a9;" horiz-adv-x="1560" 
d="M233 0v217h224v217q-156 43 -261 169t-106 310q0 238 197 392q197 153 493 153t494 -154q197 -154 196 -391q0 -184 -105 -310t-261 -169v-217h221v-217h-465v571q354 63 354 342q0 131 -119 228q-120 96 -315 96q-194 0 -314 -96t-120 -228q0 -279 354 -342v-571h-467z
" />
    <glyph glyph-name="mu" unicode="&#x3bc;" horiz-adv-x="1167" 
d="M143 -379v1399h234v-621q0 -100 51 -152t131 -52q133 0 232 135v690h233v-1020h-229v121h-4q-111 -145 -281 -146q-102 0 -174 43h-4v-397h-189z" />
    <glyph glyph-name="pi" unicode="&#x3c0;" horiz-adv-x="1380" 
d="M209 0v815h-170v205h1317l-74 -205h-192v-815h-234v815h-414v-815h-233z" />
    <glyph glyph-name="afii10023" unicode="&#x401;" horiz-adv-x="1214" 
d="M195 0v1434h954l-80 -217h-629v-371h439v-217h-439v-412h727v-217h-972zM750 1575v280h249v-280h-249zM334 1575v280h248v-280h-248z" />
    <glyph glyph-name="afii10051" unicode="&#x402;" horiz-adv-x="1560" 
d="M1051 -25q-158 0 -265 74l170 170q34 -20 102 -20t126 60q57 60 57 179q0 118 -76 182t-186 64q-154 0 -297 -115v-569h-248v1217h-422v217h1141l-80 -217h-391v-424h4q64 56 160 86q96 31 176 30q215 0 345 -134t130 -335q-1 -201 -123 -333t-323 -132z" />
    <glyph glyph-name="afii10052" unicode="&#x403;" horiz-adv-x="1091" 
d="M195 0v1434h899l-80 -217h-574v-1217h-245zM524 1563l62 292h307l-170 -292h-199z" />
    <glyph glyph-name="afii10053" unicode="&#x404;" horiz-adv-x="1320" 
d="M794 -25q-294 0 -497 211t-203 532q0 320 202 530t497 210t491 -201l-160 -159q-141 137 -317 137t-294 -109t-151 -284h594v-213h-600q25 -191 146 -311t301 -120t321 138l160 -160q-196 -201 -490 -201z" />
    <glyph glyph-name="afii10054" unicode="&#x405;" horiz-adv-x="1193" 
d="M596 -25q-326 0 -526 201l159 160q162 -143 369 -143q115 0 178 53q64 53 64 128t-50 120t-163 92l-224 92q-283 117 -282 381q0 159 126 279t357 120q279 0 477 -194l-155 -156q-147 135 -324 135q-111 0 -166 -52t-55 -117q0 -64 43 -110t137 -85l258 -107
q281 -117 281 -375q0 -178 -138 -300t-366 -122z" />
    <glyph glyph-name="afii10055" unicode="&#x406;" horiz-adv-x="950" 
d="M88 0v207h264v1020h-264v207h774v-207h-264v-1020h264v-207h-774z" />
    <glyph glyph-name="afii10056" unicode="&#x407;" horiz-adv-x="950" 
d="M88 0v207h264v1020h-264v207h774v-207h-264v-1020h264v-207h-774zM559 1575v280h250v-280h-250zM143 1575v280h248v-280h-248z" />
    <glyph glyph-name="afii10057" unicode="&#x408;" horiz-adv-x="1171" 
d="M1001 473q0 -217 -136 -357t-385 -141q-249 0 -433 160l164 164q129 -100 264 -100q135 1 208 77t73 199v742h-394l80 217h559v-961z" />
    <glyph glyph-name="afii10061" unicode="&#x40c;" horiz-adv-x="1421" 
d="M195 0v1434h245v-586h189l428 586h280l-506 -676l588 -758h-305l-475 631h-199v-631h-245zM604 1563l62 292h307l-170 -292h-199z" />
    <glyph glyph-name="afii10062" unicode="&#x40e;" horiz-adv-x="1261" 
d="M327 -66q-155 0 -276 115l156 150q55 -51 121 -52q102 0 159 123l35 74l-495 1090h276l344 -803h4l332 803h260l-485 -1115q-86 -199 -181 -292t-250 -93zM631 1538q-127 0 -219 58t-140 126l131 133q98 -123 228 -122q72 -1 132 37t95 85l133 -133q-47 -68 -140 -126
t-220 -58z" />
    <glyph glyph-name="afii10017" unicode="&#x410;" horiz-adv-x="1363" 
d="M279 0h-263l557 1434h218l557 -1434h-273l-119 324h-561zM471 530h412l-205 553h-4z" />
    <glyph glyph-name="afii10018" unicode="&#x411;" horiz-adv-x="1335" 
d="M1012 442q0 109 -78 172t-197 64h-297v-471h297q119 0 197 63t78 172zM758 885q240 0 375 -129q135 -130 135 -314t-135 -313t-375 -129h-563v1434h958l-80 -217h-633v-332h318z" />
    <glyph glyph-name="afii10019" unicode="&#x412;" horiz-adv-x="1345" 
d="M440 207h314q112 0 184 63q72 64 72 158t-72 158t-184 63h-314v-442zM440 848h236q86 0 146 51t61 137q-1 86 -61 138t-146 51h-236v-377zM195 0v1434h520q195 0 307 -106t113 -249q0 -184 -152 -280v-4q137 -41 212 -141t75 -232q0 -174 -133 -298t-351 -124h-591z" />
    <glyph glyph-name="afii10020" unicode="&#x413;" horiz-adv-x="1091" 
d="M195 0v1434h899l-80 -217h-574v-1217h-245z" />
    <glyph glyph-name="afii10021" unicode="&#x414;" horiz-adv-x="1509" 
d="M20 -297v514h99q59 35 93 145q65 210 116 943l10 129h928v-1217h184v-514h-219v297h-991v-297h-220zM395 217h623v1000h-471q-25 -349 -51 -607t-101 -389v-4z" />
    <glyph glyph-name="afii10022" unicode="&#x415;" horiz-adv-x="1214" 
d="M195 0v1434h954l-80 -217h-629v-371h439v-217h-439v-412h727v-217h-972z" />
    <glyph glyph-name="afii10024" unicode="&#x416;" horiz-adv-x="2048" 
d="M901 844v590h246v-590h133l424 590h287l-500 -680l539 -754h-299l-441 627h-143v-627h-246v627h-143l-441 -627h-299l539 754l-500 680h287l424 -590h133z" />
    <glyph glyph-name="afii10025" unicode="&#x417;" horiz-adv-x="1212" 
d="M557 -25q-334 0 -532 199l161 162q156 -137 359 -137q135 0 216 59t81 160q0 213 -291 213h-184v209h184q119 0 189 54t69 147q0 93 -71 143t-183 51q-180 0 -326 -125l-157 158q203 190 497 190q227 0 359 -106t133 -273q0 -125 -75 -208t-140 -107v-4q122 -43 190 -138
t68 -210q0 -182 -150 -310t-397 -127z" />
    <glyph glyph-name="afii10026" unicode="&#x418;" horiz-adv-x="1619" 
d="M195 0v1434h237v-1067h4l772 1067h217v-1434h-237v1067h-4l-770 -1067h-219z" />
    <glyph glyph-name="afii10027" unicode="&#x419;" horiz-adv-x="1619" 
d="M195 0v1434h237v-1067h4l772 1067h217v-1434h-237v1067h-4l-770 -1067h-219zM811 1538q-127 0 -221 58t-137 126l131 133q96 -123 227 -123t227 123l131 -133q-43 -68 -137 -126t-221 -58z" />
    <glyph glyph-name="afii10028" unicode="&#x41a;" horiz-adv-x="1421" 
d="M195 0v1434h245v-586h189l428 586h280l-506 -676l588 -758h-305l-475 631h-199v-631h-245z" />
    <glyph glyph-name="afii10029" unicode="&#x41b;" horiz-adv-x="1464" 
d="M147 -20q-88 0 -129 20v215q28 -14 90 -14q62 -1 95 65q84 167 129 985l10 183h928v-1434h-246v1217h-463q-37 -553 -72 -775t-110 -343q-76 -119 -232 -119z" />
    <glyph glyph-name="afii10030" unicode="&#x41c;" horiz-adv-x="2082" 
d="M295 0h-268l460 1434h205l348 -1043h4l347 1043h204l461 -1434h-268l-301 979h-4l-330 -979h-223l-330 979h-4z" />
    <glyph glyph-name="afii10031" unicode="&#x41d;" horiz-adv-x="1605" 
d="M195 0v1434h245v-590h725v590h246v-1434h-246v627h-725v-627h-245z" />
    <glyph glyph-name="afii10032" unicode="&#x41e;" horiz-adv-x="1599" 
d="M801 199q199 0 325 147q126 146 125 370q0 224 -126 371q-127 147 -325 147t-325 -146q-127 -148 -127 -371t127 -371t326 -147zM800 -25q-296 0 -502 211q-206 210 -206 530t206 531t502 211t502 -211t206 -530t-206 -531q-206 -211 -502 -211z" />
    <glyph glyph-name="afii10033" unicode="&#x41f;" horiz-adv-x="1583" 
d="M195 0v1434h1194v-1434h-246v1217h-703v-1217h-245z" />
    <glyph glyph-name="afii10034" unicode="&#x420;" horiz-adv-x="1267" 
d="M440 748h262q119 0 188 63q68 63 68 171t-68 171q-69 63 -188 64h-262v-469zM195 0v1434h522q239 0 367 -130t128 -320t-129 -322q-129 -131 -366 -132h-277v-530h-245z" />
    <glyph glyph-name="afii10035" unicode="&#x421;" horiz-adv-x="1355" 
d="M795 -25q-295 0 -498 211t-203 532q0 320 202 530t497 210t491 -201l-160 -159q-140 137 -332 137q-192 1 -317 -147t-125 -371t125 -371t317 -147q192 0 332 137l160 -160q-194 -201 -489 -201z" />
    <glyph glyph-name="afii10036" unicode="&#x422;" horiz-adv-x="1327" 
d="M541 0v1217h-486v217h1243l-69 -217h-443v-1217h-245z" />
    <glyph glyph-name="afii10037" unicode="&#x423;" horiz-adv-x="1261" 
d="M327 -66q-155 0 -276 115l156 150q55 -51 121 -52q102 0 159 123l35 74l-495 1090h276l344 -803h4l332 803h260l-485 -1115q-86 -199 -181 -292t-250 -93z" />
    <glyph glyph-name="afii10038" unicode="&#x424;" horiz-adv-x="1693" 
d="M725 365v725q-186 -8 -295 -102q-108 -94 -108 -261q0 -166 108 -259t295 -103zM971 365q186 10 294 103q107 93 107 260t-107 260q-108 93 -294 102v-725zM725 -25v179q-283 8 -470 164t-187 409q0 252 187 410t470 166v155h246v-155q283 -8 469 -166t186 -410
t-186 -409t-469 -164v-179h-246z" />
    <glyph glyph-name="afii10039" unicode="&#x425;" horiz-adv-x="1320" 
d="M16 0l500 725l-479 709h301l332 -516h4l334 516h276l-477 -699l496 -735h-295l-357 539h-4l-352 -539h-279z" />
    <glyph glyph-name="afii10040" unicode="&#x426;" horiz-adv-x="1632" 
d="M1354 -297v297h-1159v1434h245v-1217h703v1217h243v-1217h187v-514h-219z" />
    <glyph glyph-name="afii10041" unicode="&#x427;" horiz-adv-x="1382" 
d="M942 0v647h-4q-150 -133 -364 -133t-353 128t-139 351v441h246v-390q0 -152 76 -228t217 -75q86 0 180 44t141 108v541h246v-1434h-246z" />
    <glyph glyph-name="afii10042" unicode="&#x428;" horiz-adv-x="2035" 
d="M195 0v1434h245v-1217h455v1217h246v-1217h454v1217h246v-1434h-1646z" />
    <glyph glyph-name="afii10043" unicode="&#x429;" horiz-adv-x="2086" 
d="M1806 -297v297h-1611v1434h245v-1217h455v1217h246v-1217h454v1217h246v-1217h187v-514h-222z" />
    <glyph glyph-name="afii10044" unicode="&#x42a;" horiz-adv-x="1536" 
d="M1225 442q0 109 -78 172t-197 64h-297v-471h297q119 0 197 63t78 172zM971 0h-563v1217h-402l80 217h567v-549h318q240 0 375 -129q135 -130 135 -314t-135 -313t-375 -129z" />
    <glyph glyph-name="afii10045" unicode="&#x42b;" horiz-adv-x="1869" 
d="M1012 442q0 109 -78 172t-197 64h-297v-471h297q119 0 197 63t78 172zM1430 0v1434h245v-1434h-245zM195 1434h245v-549h318q240 0 375 -129q135 -130 135 -314t-135 -313t-375 -129h-563v1434z" />
    <glyph glyph-name="afii10046" unicode="&#x42c;" horiz-adv-x="1323" 
d="M1012 442q0 109 -78 172t-197 64h-297v-471h297q119 0 197 63t78 172zM195 1434h245v-549h318q240 0 375 -129q135 -130 135 -314t-135 -313t-375 -129h-563v1434z" />
    <glyph glyph-name="afii10047" unicode="&#x42d;" horiz-adv-x="1327" 
d="M526 -25q-299 0 -493 201l157 160q142 -137 328 -137q186 -1 309 119t148 311h-613v213h609q-33 178 -150 286t-293 107q-176 0 -319 -137l-160 159q197 201 491 201t494 -208t199 -532q0 -324 -204 -533q-204 -210 -503 -210z" />
    <glyph glyph-name="afii10048" unicode="&#x42e;" horiz-adv-x="2084" 
d="M1319 199q186 0 300 146q114 145 114 371t-114 372t-300 147q-186 0 -300 -146q-114 -145 -114 -371t114 -372t300 -147zM1330 -25q-276 -1 -462 181t-215 471h-213v-627h-245v1434h245v-590h217q39 272 223 443t439 171q287 0 478 -210t191 -532t-190 -531
q-192 -210 -468 -210z" />
    <glyph glyph-name="afii10049" unicode="&#x42f;" horiz-adv-x="1404" 
d="M141 991q0 187 130 315t372 128h567v-1434h-245v557h-258l-379 -557h-295l426 588v4q-152 36 -235 150t-83 249zM647 762h318v455h-318q-102 1 -176 -59t-74 -166t74 -168t176 -62z" />
    <glyph glyph-name="afii10065" unicode="&#x430;" horiz-adv-x="1071" 
d="M424 -25q-154 1 -256 97t-102 236t111 238q112 97 337 97q92 0 197 -16v32q1 83 -53 131t-148 48q-139 0 -254 -86l-150 149q78 68 189 106t223 37q202 0 314 -102t112 -291v-651h-227v104h-4q-94 -129 -289 -129zM488 166q91 0 157 66t66 171v48q-79 14 -181 14
t-164 -41q-62 -40 -62 -106t46 -109q47 -43 138 -43z" />
    <glyph glyph-name="afii10066" unicode="&#x431;" horiz-adv-x="1208" 
d="M342 491q0 -133 81 -223t199 -90t198 89t81 223q0 134 -81 225q-80 90 -198 90t-199 -90t-81 -224zM618 -25q-228 0 -375 167q-146 167 -147 458v39q0 353 135 575q149 242 519 256q217 10 299 54v-205q-70 -43 -320 -53q-189 -8 -287 -104t-125 -314h5q49 66 138 110
t195 46q209 0 346 -140t137 -367q0 -226 -146 -374t-374 -148z" />
    <glyph glyph-name="afii10067" unicode="&#x432;" horiz-adv-x="1095" 
d="M377 182h250q150 0 149 125q0 59 -40 91t-111 32h-248v-248zM377 606h215q61 0 100 31t39 86t-38 84t-101 29h-215v-230zM682 0h-539v1020h500q156 0 243 -78t85 -190q-2 -68 -39 -122t-96 -85v-4q84 -29 134 -92t50 -146q0 -131 -90 -217t-248 -86z" />
    <glyph glyph-name="afii10068" unicode="&#x433;" horiz-adv-x="858" 
d="M143 0v1020h684l-73 -205h-377v-815h-234z" />
    <glyph glyph-name="afii10069" unicode="&#x434;" horiz-adv-x="1173" 
d="M23 -250v447h69q86 51 115 290q22 165 47 453l4 80h719v-823h153v-447h-215v250h-677v-250h-215zM346 197h397v626h-282q-14 -213 -34 -367t-81 -255v-4z" />
    <glyph glyph-name="afii10070" unicode="&#x435;" horiz-adv-x="1132" 
d="M576 846q-100 0 -168 -70t-82 -170h491q-8 100 -74 170q-67 70 -167 70zM614 -25q-232 1 -385 147q-151 146 -151 382t142 389q142 151 355 151t351 -144t139 -423v-43h-739q16 -120 99 -184t193 -64q145 0 244 99l150 -150q-166 -160 -398 -160z" />
    <glyph glyph-name="afii10072" unicode="&#x436;" horiz-adv-x="1624" 
d="M696 614v406h234v-406h61l314 406h258l-387 -479l446 -541h-272l-342 422h-78v-422h-234v422h-80l-342 -422h-272l447 539l-388 481h258l314 -406h63z" />
    <glyph glyph-name="afii10073" unicode="&#x437;" horiz-adv-x="950" 
d="M442 -25q-264 0 -422 144l148 147q106 -94 258 -94q92 0 146 35t55 94q0 127 -203 127h-135v184h141q84 0 131 32t47 87t-47 86t-115 31q-127 2 -253 -86l-142 141q174 141 418 141q156 0 262 -80t107 -206q0 -158 -144 -223v-5q78 -26 126 -90t48 -141q0 -145 -123 -235
t-303 -89z" />
    <glyph glyph-name="afii10074" unicode="&#x438;" horiz-adv-x="1177" 
d="M143 0v1020h234v-653h4l450 653h203v-1020h-233v653h-4l-449 -653h-205z" />
    <glyph glyph-name="afii10075" unicode="&#x439;" horiz-adv-x="1177" 
d="M143 0v1020h234v-653h4l450 653h203v-1020h-233v653h-4l-449 -653h-205zM590 1141q-119 0 -205 55t-131 121l127 125q88 -113 210 -113t208 113l125 -125q-41 -63 -128 -119t-206 -57z" />
    <glyph glyph-name="afii10076" unicode="&#x43a;" horiz-adv-x="1089" 
d="M143 0v1020h234v-406h88l299 406h262l-356 -481l415 -539h-276l-324 422h-108v-422h-234z" />
    <glyph glyph-name="afii10077" unicode="&#x43b;" horiz-adv-x="1165" 
d="M127 -20q-68 0 -102 20v197q20 -10 51 -11q63 0 89 62q51 121 77 704l2 68h778v-1020h-234v823h-342q-10 -215 -18 -346q-20 -261 -84 -379t-217 -118z" />
    <glyph glyph-name="afii10078" unicode="&#x43c;" horiz-adv-x="1492" 
d="M39 0l252 1020h186l264 -678h4l275 678h182l252 -1020h-244l-137 625h-4l-252 -625h-158l-247 625h-4l-136 -625h-233z" />
    <glyph glyph-name="afii10079" unicode="&#x43d;" horiz-adv-x="1157" 
d="M143 0v1020h234v-397h403v397h234v-1020h-234v426h-403v-426h-234z" />
    <glyph glyph-name="afii10080" unicode="&#x43e;" horiz-adv-x="1181" 
d="M590 184q122 0 198 92t76 234t-77 235t-197 93t-197 -92q-76 -92 -76 -235t76 -235t197 -92zM590 -25q-219 0 -366 152q-146 152 -146 384t146 383q146 150 366 150t366 -150q148 -150 148 -383q0 -232 -148 -384t-366 -152z" />
    <glyph glyph-name="afii10081" unicode="&#x43f;" horiz-adv-x="1157" 
d="M143 0v1020h871v-1020h-234v823h-403v-823h-234z" />
    <glyph glyph-name="afii10082" unicode="&#x440;" horiz-adv-x="1253" 
d="M377 143v-522h-234v1399h234v-143h4q43 71 128 119t191 48q203 0 338 -150q136 -150 136 -383q0 -232 -136 -384t-338 -152q-106 1 -191 49t-128 119h-4zM369 510q0 -140 80 -234q81 -94 203 -94t201 93t79 235t-79 234q-79 94 -202 94t-203 -94t-79 -234z" />
    <glyph glyph-name="afii10083" unicode="&#x441;" horiz-adv-x="991" 
d="M587 -25q-224 0 -367 151q-142 151 -142 384t142 384q142 150 366 150t364 -143l-147 -145q-88 84 -211 84t-200 -94t-77 -236t77 -236t200 -94t211 84l147 -145q-139 -144 -363 -144z" />
    <glyph glyph-name="afii10084" unicode="&#x442;" horiz-adv-x="944" 
d="M348 0v823h-307v197h872l-69 -197h-260v-823h-236z" />
    <glyph glyph-name="afii10085" unicode="&#x443;" horiz-adv-x="1054" 
d="M246 -403q-152 0 -258 90l151 153q49 -35 103 -35q131 0 184 189l-416 1026h264l273 -717h4l240 717h251l-385 -1059q-128 -364 -411 -364z" />
    <glyph glyph-name="afii10086" unicode="&#x444;" horiz-adv-x="1437" 
d="M303 510q0 -138 84 -232t215 -102v668q-133 -10 -216 -102t-83 -232zM1135 511q0 140 -83 232t-216 103v-670q133 10 216 102t83 233zM602 -379v354q-229 10 -382 161t-152 374q0 223 152 374q153 151 382 160v476h234v-476q229 -10 382 -160q152 -150 152 -374
q0 -223 -152 -374t-382 -161v-354h-234z" />
    <glyph glyph-name="afii10087" unicode="&#x445;" horiz-adv-x="1079" 
d="M27 0l381 530l-345 490h271l213 -315h4l205 315h258l-336 -488l375 -532h-273l-241 358h-4l-246 -358h-262z" />
    <glyph glyph-name="afii10088" unicode="&#x446;" horiz-adv-x="1189" 
d="M934 -250v250h-791v1020h234v-823h383v823h233v-823h156v-447h-215z" />
    <glyph glyph-name="afii10089" unicode="&#x447;" horiz-adv-x="1091" 
d="M715 0v457h-4q-105 -127 -275 -127t-270 102t-100 279v309h233v-266q0 -102 52 -154t138 -53q143 0 226 112v361h233v-1020h-233z" />
    <glyph glyph-name="afii10090" unicode="&#x448;" horiz-adv-x="1585" 
d="M143 0v1020h234v-823h299v823h233v-823h299v823h234v-1020h-1299z" />
    <glyph glyph-name="afii10091" unicode="&#x449;" horiz-adv-x="1638" 
d="M1384 -250v250h-1241v1020h234v-823h299v823h233v-823h299v823h234v-823h157v-447h-215z" />
    <glyph glyph-name="afii10092" unicode="&#x44a;" horiz-adv-x="1230" 
d="M543 193h223q82 0 129 44t47 103t-47 103t-129 44h-223v-294zM309 0v823h-301l70 197h465v-340h260q182 0 282 -98q101 -98 101 -242t-100 -242t-283 -98h-494z" />
    <glyph glyph-name="afii10093" unicode="&#x44b;" horiz-adv-x="1456" 
d="M377 193h182q82 0 129 44t47 103t-47 103t-129 44h-182v-294zM1079 0v1020h234v-1020h-234zM143 1020h234v-340h219q182 0 282 -98t101 -242q0 -144 -100 -242t-283 -98h-453v1020z" />
    <glyph glyph-name="afii10094" unicode="&#x44c;" horiz-adv-x="1064" 
d="M377 193h223q82 0 129 44t47 103t-47 103t-129 44h-223v-294zM143 1020h234v-340h260q183 0 283 -98t100 -242t-100 -242t-283 -98h-494v1020z" />
    <glyph glyph-name="afii10095" unicode="&#x44d;" horiz-adv-x="974" 
d="M901 510q-1 -233 -143 -384t-366 -151t-363 144l147 145q88 -84 202 -84t185 69q72 69 92 179h-362v193h356q-27 100 -95 159q-70 60 -180 60t-198 -84l-147 145q139 143 363 143t367 -150q142 -151 142 -384z" />
    <glyph glyph-name="afii10096" unicode="&#x44e;" horiz-adv-x="1576" 
d="M1010 182q116 0 186 93t70 235t-71 235t-185 93t-186 -92q-70 -92 -70 -235q0 -142 70 -236q71 -93 186 -93zM1020 -25q-198 0 -334 124q-135 124 -162 323h-147v-422h-234v1020h234v-393h151q35 188 168 303q133 114 328 114t338 -152t143 -382q0 -231 -143 -383
q-144 -152 -342 -152z" />
    <glyph glyph-name="afii10097" unicode="&#x44f;" horiz-adv-x="1085" 
d="M473 1020h469v-1020h-233v352h-166l-240 -352h-266l274 391q-98 27 -156 108t-59 185q0 150 109 243t268 93zM709 530v301h-209q-68 -1 -115 -41t-47 -110t47 -110t115 -40h209z" />
    <glyph glyph-name="afii10071" unicode="&#x451;" horiz-adv-x="1132" 
d="M576 846q-100 0 -168 -70t-82 -170h491q-8 100 -74 170q-67 70 -167 70zM614 -25q-232 1 -385 147q-151 146 -151 382t142 389q142 151 355 151t351 -144t139 -423v-43h-739q16 -120 99 -184t193 -64q145 0 244 99l150 -150q-166 -160 -398 -160zM659 1153v281h250v-281
h-250zM244 1153v281h248v-281h-248z" />
    <glyph glyph-name="afii10099" unicode="&#x452;" horiz-adv-x="1159" 
d="M377 0h-234v1137h-161v188h161v195h234v-195h387l-68 -188h-319v-285h4q117 150 289 150t270 -101q98 -100 98 -276v-682q0 -141 -95 -243t-260 -103q-165 0 -282 100l150 149q59 -41 119 -41t97 39q38 39 38 105v629q0 100 -54 151t-137 51q-133 0 -237 -135v-645z" />
    <glyph glyph-name="afii10100" unicode="&#x453;" horiz-adv-x="858" 
d="M143 0v1020h684l-73 -205h-377v-815h-234zM350 1141l62 293h307l-170 -293h-199z" />
    <glyph glyph-name="afii10101" unicode="&#x454;" horiz-adv-x="976" 
d="M583 -25q-224 0 -367 151q-142 151 -142 384t142 384q142 150 366 150t364 -143l-147 -147q-91 86 -199 86t-177 -58t-97 -157h366v-199h-373q21 -110 93 -178t184 -68t203 86l147 -147q-139 -144 -363 -144z" />
    <glyph glyph-name="afii10102" unicode="&#x455;" horiz-adv-x="919" 
d="M459 -25q-250 0 -410 142l150 149q115 -96 254 -96q77 0 115 31t38 69q0 70 -100 111l-203 80q-213 84 -213 282q0 127 100 214t275 87q223 0 366 -135l-145 -147q-102 90 -217 90q-61 0 -100 -28t-39 -66t28 -63q28 -26 101 -56l137 -55q129 -51 189 -122
q61 -72 61 -188t-108 -208t-279 -91z" />
    <glyph glyph-name="afii10103" unicode="&#x456;" horiz-adv-x="577" 
d="M201 0v823h-185l72 197h346v-1020h-233zM201 1174v260h233v-260h-233z" />
    <glyph glyph-name="afii10104" unicode="&#x457;" horiz-adv-x="577" 
d="M201 0v823h-185l72 197h346v-1020h-233zM371 1153v281h250v-281h-250zM-25 1153v281h248v-281h-248z" />
    <glyph glyph-name="afii10105" unicode="&#x458;" horiz-adv-x="518" 
d="M21 -403q-165 0 -281 100l149 149q59 -41 117 -41t97 39q38 39 38 105v1071h234v-1077q0 -141 -94 -244q-95 -102 -260 -102zM141 1174v260h234v-260h-234z" />
    <glyph glyph-name="afii10106" unicode="&#x459;" horiz-adv-x="1646" 
d="M958 193h224q82 0 129 44t47 103t-47 103t-129 44h-224v-294zM958 1020v-340h261q182 0 282 -98q101 -98 101 -242t-100 -242t-283 -98h-494v815h-270q-3 -23 -9 -145t-12 -193q-20 -262 -85 -380t-216 -117q-63 0 -110 20v197q20 -10 55 -11q63 0 91 64t40 217l39 553
h710z" />
    <glyph glyph-name="afii10107" unicode="&#x45a;" horiz-adv-x="1677" 
d="M377 422v-422h-234v1020h234v-393h383v393h233v-381h269q168 0 271 -91q103 -90 103 -228t-103 -229t-271 -91h-502v422h-383zM993 193h244q76 1 116 35t40 91t-40 93t-116 34h-244v-253z" />
    <glyph glyph-name="afii10108" unicode="&#x45b;" horiz-adv-x="1159" 
d="M377 0h-234v1137h-161v188h161v195h234v-195h387l-68 -188h-319v-285h4q117 150 289 150t270 -101q98 -100 98 -276v-625h-233v578q0 100 -54 151t-137 51q-133 0 -237 -135v-645z" />
    <glyph glyph-name="afii10109" unicode="&#x45c;" horiz-adv-x="1089" 
d="M143 0v1020h234v-406h88l299 406h262l-356 -481l415 -539h-276l-324 422h-108v-422h-234zM453 1141l61 293h307l-170 -293h-198z" />
    <glyph glyph-name="afii10110" unicode="&#x45e;" horiz-adv-x="1054" 
d="M246 -403q-152 0 -258 90l151 153q49 -35 103 -35q131 0 184 189l-416 1026h264l273 -717h4l240 717h251l-385 -1059q-128 -364 -411 -364zM530 1141q-120 0 -206 55t-129 119l127 127q84 -113 210 -113t205 113l127 -127q-41 -63 -128 -119t-206 -55z" />
    <glyph glyph-name="afii10193" unicode="&#x45f;" horiz-adv-x="1136" 
d="M461 -250v250h-318v1020h234v-815h383v815h233v-1020h-317v-250h-215z" />
    <glyph glyph-name="afii10050" unicode="&#x490;" horiz-adv-x="1093" 
d="M195 0v1434h667v297h219v-514h-641v-1217h-245z" />
    <glyph glyph-name="afii10098" unicode="&#x491;" horiz-adv-x="833" 
d="M143 0v1020h455v250h215v-455h-434v-815h-236z" />
    <glyph glyph-name="Ygrave" unicode="&#x1ef2;" horiz-adv-x="1353" 
d="M555 0v584l-535 850h287l377 -617h4l371 617h274l-532 -850v-584h-246zM582 1563l-170 292h307l61 -292h-198z" />
    <glyph glyph-name="ygrave" unicode="&#x1ef3;" horiz-adv-x="1056" 
d="M233 -379l216 524h-78l-344 875h258l245 -670h5l245 670h250l-549 -1399h-248zM436 1141l-170 293h307l62 -293h-199z" />
    <glyph glyph-name="endash" unicode="&#x2013;" horiz-adv-x="1290" 
d="M197 438v217h897v-217h-897z" />
    <glyph glyph-name="emdash" unicode="&#x2014;" horiz-adv-x="2101" 
d="M117 438v217h1868v-217h-1868z" />
    <glyph glyph-name="quoteleft" unicode="&#x2018;" horiz-adv-x="522" 
d="M143 887v547h236v-547h-236z" />
    <glyph glyph-name="quoteright" unicode="&#x2019;" horiz-adv-x="522" 
d="M143 887v547h236v-547h-236z" />
    <glyph glyph-name="quotesinglbase" unicode="&#x201a;" horiz-adv-x="522" 
d="M143 -238v549h236v-549h-236z" />
    <glyph glyph-name="quotedblleft" unicode="&#x201c;" horiz-adv-x="874" 
d="M496 887v547h235v-547h-235zM143 887v547h236v-547h-236z" />
    <glyph glyph-name="quotedblright" unicode="&#x201d;" horiz-adv-x="874" 
d="M496 887v547h235v-547h-235zM143 887v547h236v-547h-236z" />
    <glyph glyph-name="quotedblbase" unicode="&#x201e;" horiz-adv-x="874" 
d="M496 -238v549h235v-549h-235zM143 -238v549h236v-549h-236z" />
    <glyph glyph-name="dagger" unicode="&#x2020;" horiz-adv-x="780" 
d="M283 270v635h-281v191h281v338h215v-338h280v-191h-280v-635h-215z" />
    <glyph glyph-name="daggerdbl" unicode="&#x2021;" horiz-adv-x="919" 
d="M352 270v371h-280v190h280v158h-280v191h280v254h215v-254h281v-191h-281v-158h281v-190h-281v-371h-215z" />
    <glyph glyph-name="bullet" unicode="&#x2022;" horiz-adv-x="837" 
d="M420 455q-115 0 -197 82q-82 83 -82 197t82 195t197 81q116 0 196 -81t80 -196t-80 -197t-196 -81z" />
    <glyph glyph-name="ellipsis" unicode="&#x2026;" horiz-adv-x="1716" 
d="M1292 0v311h281v-311h-281zM717 0v311h282v-311h-282zM143 0v311h281v-311h-281z" />
    <glyph glyph-name="perthousand" unicode="&#x2030;" horiz-adv-x="2099" 
d="M1704 123q66 0 108 46q43 46 43 115q0 68 -43 114q-42 46 -108 46t-109 -46t-43 -114t43 -115q43 -46 109 -46zM970 123q66 0 109 46t43 115q0 68 -43 114t-109 46t-108 -46q-43 -46 -43 -114t43 -115q42 -46 108 -46zM2019 284q0 -130 -90 -220t-225 -89
q-135 -1 -224 89t-89 220t89 220t224 90t225 -90t90 -220zM1286 284q0 -130 -90 -220t-225 -89q-135 -1 -225 89t-89 220q0 130 89 220q88 90 224 90t226 -90t90 -220zM215 147l-104 107l1034 1032l106 -104zM242 1147q0 -68 42 -114t108 -46t110 46q43 46 43 114t-43 115
t-109 47q-67 0 -109 -47t-42 -115zM393 840q-135 0 -224 89t-89 219t89 220t224 90t225 -90t90 -220t-90 -219t-225 -89z" />
    <glyph glyph-name="guilsinglleft" unicode="&#x2039;" horiz-adv-x="616" 
d="M287 0l-197 408l197 407h239l-186 -407l186 -408h-239z" />
    <glyph glyph-name="guilsinglright" unicode="&#x203a;" horiz-adv-x="616" 
d="M90 0l186 408l-186 407h242l194 -407l-194 -408h-242z" />
    <glyph glyph-name="fraction" unicode="&#x2044;" horiz-adv-x="1130" 
d="M25 0l929 1434h156l-930 -1434h-155z" />
    <glyph glyph-name="Euro" unicode="&#x20ac;" horiz-adv-x="1277" 
d="M805 -25q-215 0 -365 126t-207 352h-139v186h111q-2 25 -2 78t2 78h-111v186h139q57 225 207 351t365 126q125 0 235 -48t183 -130l-162 -162q-104 119 -260 119q-109 0 -190 -65t-122 -191h390v-186h-424q-2 -25 -2 -78t2 -78h424v-186h-390q41 -127 122 -192t190 -64
q156 0 260 118l162 -161q-73 -82 -183 -130t-235 -49z" />
    <glyph glyph-name="uni20BB" unicode="&#x20bb;" horiz-adv-x="1316" 
d="M524 788h230q102 0 171 58t69 162q0 102 -69 160t-171 59h-230v-439zM279 0v233h-162v207h162v142h-162v206h162v646h493q225 0 350 -124t125 -302t-125 -302t-350 -124h-248v-142h379l-76 -207h-303v-233h-245z" />
    <glyph glyph-name="afii61352" unicode="&#x2116;" horiz-adv-x="2486" 
d="M1497 0v221h825v-221h-825zM195 0v1434h239l586 -981h4v981h240v-1434h-240l-586 981h-4v-981h-239zM1909 690q102 0 168 78t65 199q0 121 -66 199t-167 77q-102 0 -168 -78q-66 -79 -66 -199t66 -198t168 -78zM1909 477q-197 0 -332 138q-135 137 -135 351t135 352
t332 138t332 -138t135 -351t-135 -351t-332 -139z" />
    <glyph glyph-name="trademark" unicode="&#x2122;" horiz-adv-x="1667" 
d="M1108 874l188 560h117l250 -770h-150l-161 518h-2l-179 -518h-131l-178 518h-2l-162 -518h-149l250 770h116l189 -560h4zM190 664v647h-249v123h657l-33 -123h-235v-647h-140z" />
    <glyph glyph-name="partialdiff" unicode="&#x2202;" horiz-adv-x="1191" 
d="M590 184q120 0 196 92t76 234t-76 235t-196 93t-198 -92q-77 -92 -77 -235t77 -235t198 -92zM596 -25q-236 0 -377 158q-141 157 -141 397t143 377t330 137q96 0 182 -40l2 4l-350 473l254 37l158 -226q163 -233 235 -409t72 -346q0 -238 -136 -400t-372 -162z" />
    <glyph glyph-name="product" unicode="&#x220f;" horiz-adv-x="1701" 
d="M913 598h-163v-317h-168v899h331q135 0 231 -78t95 -213q1 -135 -95 -213t-231 -78zM750 741h145q74 0 121 38t47 110q0 71 -47 109t-121 38h-145v-295zM223 719q-1 -279 177 -462t451 -183t451 183q177 183 177 462t-177 462q-176 183 -450 183t-452 -183t-177 -462z
M851 -35q-312 0 -532 213q-219 213 -219 541t219 541t531 213t532 -213t220 -541t-220 -541t-531 -213z" />
    <glyph glyph-name="summation" unicode="&#x2211;" horiz-adv-x="1153" 
d="M92 0v176l393 549l-393 512v197h973v-217h-649v-5l323 -430v-106l-331 -455v-4h657v-217h-973z" />
    <glyph glyph-name="minus" unicode="&#x2212;" horiz-adv-x="1245" 
d="M195 614v205h856v-205h-856z" />
    <glyph glyph-name="radical" unicode="&#x221a;" horiz-adv-x="1386" 
d="M457 -379l-418 1036h268l252 -667h4l514 1444h277l-690 -1813h-207z" />
    <glyph glyph-name="infinity" unicode="&#x221e;" horiz-adv-x="1771" 
d="M1288 463q102 0 159 74q58 74 58 180t-58 180q-57 74 -159 74q-102 -1 -180 -71t-129 -183q51 -113 129 -183t180 -71zM266 717q0 -104 60 -179t160 -75q101 0 180 71q78 71 127 183q-49 113 -127 183t-180 71q-102 0 -160 -75q-60 -75 -60 -179zM35 717q0 235 133 357
t303 122q127 0 237 -66t175 -190h4q71 124 179 190t234 66q170 0 304 -122t133 -358q0 -236 -133 -357q-133 -122 -304 -121q-128 0 -236 66t-177 190h-4q-65 -125 -175 -191t-237 -65q-170 0 -303 122t-133 357z" />
    <glyph glyph-name="integral" unicode="&#x222b;" horiz-adv-x="952" 
d="M-69 -403q-163 0 -281 100l149 147q59 -41 121 -41t102 41t52 107l217 1243q27 146 119 246t255 100t281 -100l-149 -150q-55 41 -119 41t-104 -40t-50 -107l-219 -1241q-27 -147 -119 -247t-255 -99z" />
    <glyph glyph-name="approxequal" unicode="&#x2248;" horiz-adv-x="1177" 
d="M788 588q57 0 70 82l158 -41q-10 -187 -156 -229q-32 -9 -72 -9t-208 37t-191 37q-58 0 -70 -80l-157 41q8 135 76 186q68 52 131 52t230 -38t189 -38zM391 1042q41 0 208 -38t189 -37q57 0 70 82l158 -41q-10 -187 -156 -229q-32 -9 -72 -9t-208 37t-191 37
q-58 0 -70 -80l-157 39q4 74 28 124q57 115 201 115z" />
    <glyph glyph-name="notequal" unicode="&#x2260;" horiz-adv-x="1163" 
d="M475 274v160h-321v205h321v156h-321v204h321v158h209v-158h326v-204h-326v-156h326v-205h-326v-160h-209z" />
    <glyph glyph-name="lessequal" unicode="&#x2264;" horiz-adv-x="1146" 
d="M117 0v205h854v-205h-854zM971 317l-854 357v225l854 356v-247l-563 -220v-4l563 -219v-248z" />
    <glyph glyph-name="greaterequal" unicode="&#x2265;" horiz-adv-x="1146" 
d="M176 0v205h854v-205h-854zM176 317v248l563 219v4l-563 220v247l854 -356v-225z" />
    <glyph glyph-name="lozenge" unicode="&#x25ca;" horiz-adv-x="1560" 
d="M776 170h6l453 549l-453 549h-6l-450 -549zM776 -168l-741 887l741 885h6l744 -885l-744 -887h-6z" />
    <glyph glyph-name="fi" unicode="&#xfb01;" horiz-adv-x="1341" 
d="M965 0v823h-185l72 197h346v-1020h-233zM227 0v823h-188v197h188v174q1 142 95 244t259 102t281 -100l-147 -148q-55 39 -117 39t-99 -39q-38 -39 -38 -104v-168h295l-72 -197h-223v-823h-234zM965 1174v260h233v-260h-233z" />
    <glyph glyph-name="fl" unicode="&#xfb02;" horiz-adv-x="1269" 
d="M227 0v823h-188v197h188v174q1 142 95 244t259 102t281 -100l-147 -148q-55 39 -117 39t-99 -39q-38 -39 -38 -104v-168h295l-72 -197h-223v-823h-234zM893 0v1520h233v-1520h-233z" />
    <glyph glyph-name="CR" horiz-adv-x="1024" 
 />
    <glyph glyph-name="hyphen.alt" horiz-adv-x="788" 
d="M117 610v234h555v-234h-555z" />
    <glyph glyph-name="endash.alt" horiz-adv-x="1290" 
d="M197 627v217h897v-217h-897z" />
    <glyph glyph-name="emdash.alt" horiz-adv-x="2093" 
d="M113 627v217h1867v-217h-1867z" />
    <glyph glyph-name="arrow.left" horiz-adv-x="1325" 
d="M1251 840v-209h-835l282 -283l-135 -135l-522 522l522 522l135 -135l-282 -282h835z" />
    <glyph glyph-name="arrow.right" horiz-adv-x="1325" 
d="M74 631v209h835l-282 282l135 135l522 -522l-522 -522l-135 135l282 283h-835z" />
    <glyph glyph-name="arrow.up" horiz-adv-x="1114" 
d="M662 131h-209v836l-283 -283l-135 135l522 522l522 -522l-135 -135l-282 283v-836z" />
    <glyph glyph-name="arrow.down" horiz-adv-x="1114" 
d="M453 1339h209v-835l282 282l135 -135l-522 -522l-522 522l135 135l283 -282v835z" />
    <glyph glyph-name="arrowdown.left" 
d="M909 307h-737v737h190v-399l592 592l148 -147l-592 -592h399v-191z" />
    <glyph glyph-name="arrowdown.right" 
d="M240 307v191h399l-592 592l148 147l591 -592v399h191v-737h-737z" />
    <glyph glyph-name="arrowup.left" 
d="M909 1225v-191h-399l592 -592l-148 -147l-592 592v-400h-190v738h737z" />
    <glyph glyph-name="arrowup.right" 
d="M240 1225h737v-738h-191v400l-591 -592l-148 147l592 592h-399v191z" />
    <glyph glyph-name="zero.posf" horiz-adv-x="1175" 
d="M588 190q128 0 194 104t66 288t-67 288t-193 104t-194 -104q-66 -104 -66 -287t66 -288t194 -105zM588 -20q-231 0 -365 167q-133 169 -133 437t133 436t365 168t364 -168q133 -168 133 -436t-133 -436t-364 -168z" />
    <glyph glyph-name="one.posf" horiz-adv-x="815" 
d="M57 0v203h230v760h-213v202h444v-962h266l-75 -203h-652z" />
    <glyph glyph-name="two.posf" horiz-adv-x="1040" 
d="M90 0v172l356 307q135 119 191 188q55 69 55 145t-56 120q-56 45 -147 45q-147 0 -307 -137l-147 145q84 84 212 143t261 60q196 0 308 -106t112 -237t-69 -235t-210 -223l-213 -180v-4h555l-76 -203h-825z" />
    <glyph glyph-name="three.posf" horiz-adv-x="1044" 
d="M492 -143q-283 0 -469 182l157 158q135 -129 305 -129q109 0 179 58t70 151t-79 153q-78 60 -196 59q-61 0 -127 -16v168l315 315h-536v209h835v-174l-317 -317v-4q141 -20 242 -126t101 -273q0 -168 -137 -291q-138 -123 -343 -123z" />
    <glyph glyph-name="four.posf" horiz-adv-x="1134" 
d="M664 -121v285h-601v172l330 829h242l-328 -796v-4h357v354h227v-354h209l-74 -201h-135v-285h-227z" />
    <glyph glyph-name="five.posf" horiz-adv-x="1073" 
d="M512 -143q-276 0 -461 184l156 156q139 -129 301 -129q112 0 184 62t72 156t-66 153q-66 61 -176 61t-207 -64l-182 17l37 712h815l-76 -209h-544l-17 -303h4q98 49 223 49q174 0 302 -109q127 -110 127 -295t-138 -313t-354 -128z" />
    <glyph glyph-name="six.posf" horiz-adv-x="1101" 
d="M559 186q109 0 177 70t67 168q0 98 -68 168q-69 70 -177 70t-176 -70t-67 -168q-1 -98 67 -168t177 -70zM1034 434q0 -190 -136 -324t-348 -133q-212 -1 -343 141t-131 339q0 137 68 278q69 141 221 334l186 240l258 -25l-371 -450l2 -5q74 33 166 33q178 0 303 -119
t125 -309z" />
    <glyph glyph-name="seven.posf" horiz-adv-x="925" 
d="M18 956v209h877v-172l-455 -1114h-266l455 1077h-611z" />
    <glyph glyph-name="eight.posf" horiz-adv-x="1138" 
d="M569 555q-113 0 -179 -56t-66 -133t66 -133q68 -55 180 -55t179 55t67 133t-67 133q-67 56 -180 56zM569 760q106 0 164 50q57 50 57 123t-58 123t-162 50t-163 -50t-59 -123t58 -123t163 -50zM569 1309q203 -1 330 -107t127 -258q0 -86 -47 -163t-127 -113v-4
q86 -35 144 -119t59 -185q0 -170 -135 -276q-134 -106 -350 -106t-351 106t-135 276q0 100 58 184t145 120v4q-80 38 -127 114t-47 162q1 152 127 258t329 107z" />
    <glyph glyph-name="nine.posf" horiz-adv-x="1097" 
d="M541 979q-109 0 -177 -70t-67 -168q0 -98 68 -168q69 -69 177 -69t176 70t66 167q0 98 -67 168t-176 70zM550 1188q212 0 343 -141t131 -338q0 -137 -69 -279t-220 -334l-186 -239l-258 24l371 451l-3 4q-74 -33 -165 -33q-178 0 -304 119q-124 119 -124 309
q0 189 136 323t348 134z" />
    <glyph glyph-name="zero.tnum" horiz-adv-x="1208" 
d="M604 195q150 0 226 138t77 384q0 246 -77 384q-76 138 -226 138t-226 -138t-77 -384q1 -246 77 -384t226 -138zM604 -25q-260 0 -406 199t-147 543q1 344 147 543q146 198 406 198t407 -198q146 -199 146 -543q-1 -344 -147 -543t-406 -199z" />
    <glyph glyph-name="one.tnum" horiz-adv-x="1206" 
d="M131 0v217h332v1000h-311v217h553v-1217h370l-80 -217h-864z" />
    <glyph glyph-name="two.tnum" horiz-adv-x="1206" 
d="M125 0v186l362 363q209 209 273 295t63 179q0 93 -70 154q-71 60 -178 60q-186 0 -350 -154l-153 158q92 93 228 155t280 62q227 0 358 -122t131 -296q0 -134 -76 -248t-268 -307l-264 -264v-4h674l-80 -217h-930z" />
    <glyph glyph-name="three.tnum" horiz-adv-x="1208" 
d="M584 -25q-305 0 -502 197l162 164q152 -139 340 -139q127 -1 208 69q80 70 80 180t-96 176q-96 65 -231 64q-68 0 -129 -12v172l370 371h-616v217h922v-179l-373 -372v-4q170 -19 289 -137t118 -293q0 -205 -154 -339t-388 -135z" />
    <glyph glyph-name="four.tnum" horiz-adv-x="1206" 
d="M709 0v322h-680v182l395 930h256l-387 -902v-4h416v404h239v-404h230l-76 -206h-154v-322h-239z" />
    <glyph glyph-name="five.tnum" horiz-adv-x="1206" 
d="M578 -25q-305 0 -500 199l162 162q156 -139 335 -139q131 0 217 71q85 72 85 182t-77 181t-203 71t-239 -75l-196 20l41 787h893l-80 -217h-613l-18 -363h4q123 63 260 64q187 0 333 -121t146 -331t-151 -350t-399 -141z" />
    <glyph glyph-name="six.tnum" horiz-adv-x="1206" 
d="M605 195q122 -1 201 81t79 196t-78 195t-202 81t-202 -81q-77 -81 -77 -195t78 -196q79 -81 201 -81zM601 -25q-237 0 -383 157t-146 376q0 156 74 312t247 372l209 266l270 -24l-440 -533l4 -2q98 59 228 59q184 0 327 -133t143 -345t-148 -358t-385 -147z" />
    <glyph glyph-name="seven.tnum" horiz-adv-x="1208" 
d="M119 1217v217h971v-179l-510 -1255h-279l514 1217h-696z" />
    <glyph glyph-name="eight.tnum" horiz-adv-x="1208" 
d="M604 625q-131 0 -209 -66t-78 -156q0 -91 78 -155t209 -64t209 65t78 155t-78 155q-78 66 -209 66zM604 840q123 0 191 59q67 59 67 147t-67 145q-68 58 -191 58q-122 0 -190 -58t-68 -145q0 -86 68 -146t190 -60zM604 1458q226 0 366 -116t140 -285q0 -101 -56 -187
t-153 -125v-4q102 -39 172 -134t70 -208q0 -188 -150 -306q-149 -118 -389 -118t-390 118t-148 306q0 113 69 208q70 95 172 134v4q-96 39 -152 125t-57 187q0 169 140 285t366 116z" />
    <glyph glyph-name="nine.tnum" horiz-adv-x="1206" 
d="M881 962q0 114 -79 196t-201 81q-122 0 -202 -82q-80 -81 -80 -195t79 -195t202 -81t202 81t79 195zM72 953q0 213 148 359t385 146t383 -156t147 -374q0 -156 -75 -312t-247 -372l-209 -269l-270 25l440 532l-4 5q-96 -59 -227 -60q-184 0 -328 132q-143 132 -143 344z
" />
    <glyph glyph-name="one.alt" horiz-adv-x="733" 
d="M539 0h-244v1217h-258l78 217h424v-1434z" />
    <glyph glyph-name="logo" horiz-adv-x="2285" 
d="M2245 186v-186h-719v186h143l-158 422l-368 -614l-369 614l-158 -422h144v-186h-719v186h139l496 1321l467 -821l467 821l495 -1321h140z" />
    </font>
</defs>
</svg>
