<svg width="15" height="14" viewBox="0 0 15 14" xmlns="http://www.w3.org/2000/svg"><title>3632C673-7B4F-4F56-8DA2-63D170B26540</title><g fill="#FFF" fill-rule="evenodd"><path d="M14.686 5.471h-2.26V3.209a.314.314 0 0 0-.314-.313h-.643a.314.314 0 0 0-.314.313v2.262H8.893a.313.313 0 0 0-.312.313v.645a.312.312 0 0 0 .312.311h2.265v2.261c0 .174.139.313.312.313h.645a.313.313 0 0 0 .313-.313V6.74h2.26c.171 0 .312-.14.312-.312v-.645a.315.315 0 0 0-.314-.312z"/><path d="M7.907 1.211l.89-.645A.313.313 0 0 0 8.613 0H4.635C4.2 0 3.757.075 3.324.227 1.874.727.86 1.962.86 3.231c0 1.797 1.393 3.159 3.253 3.202a1.581 1.581 0 0 0 .161 1.213h-.052c-1.774 0-3.375.87-3.983 2.165A2.39 2.39 0 0 0 0 10.825c0 .325.083.64.249.936.382.685 1.202 1.215 2.311 1.494a7.409 7.409 0 0 0 1.826.219c.574 0 1.121-.074 1.627-.221 1.577-.458 2.596-1.62 2.596-2.957 0-1.287-.414-2.056-1.523-2.842-.476-.336-.908-.83-.916-.982 0-.277.025-.409.645-.892.802-.628 1.244-1.452 1.244-2.324 0-.79-.242-1.492-.654-1.985h.318a.311.311 0 0 0 .184-.06zM2.914 3.18c-.087-.657.05-1.249.379-1.623a1.04 1.04 0 0 1 .8-.368h.035c.879.025 1.721 1.005 1.876 2.186.087.66-.059 1.281-.392 1.659-.211.24-.485.368-.809.368h-.014c-.861-.027-1.721-1.044-1.875-2.222zm4.005 6.937c.026.113.04.228.04.339 0 1.165-.869 1.756-2.583 1.756-1.299 0-2.316-.798-2.316-1.814 0-.937 1.188-1.757 2.543-1.757h.037c.294.004.583.047.853.131l.27.184c.627.427 1.042.709 1.156 1.161z"/></g></svg>