<svg width="8" height="14" viewBox="0 0 8 14" xmlns="http://www.w3.org/2000/svg" xmlns:xlink="http://www.w3.org/1999/xlink"><title>5A67F278-5F17-4992-A07B-0881FEE687C8</title><defs><path id="a" d="M0 0h7.96v13.985H0z"/></defs><g fill="none" fill-rule="evenodd"><mask id="b" fill="#fff"><use xlink:href="#a"/></mask><path d="M3.98 7.079c1.85 0 3.35-1.585 3.35-3.54C7.33 1.586 5.83 0 3.98 0S.63 1.585.63 3.54c0 1.954 1.5 3.539 3.35 3.539m0-5.28c.91 0 1.648.779 1.648 1.74 0 .962-.738 1.742-1.648 1.742-.91 0-1.648-.78-1.648-1.742 0-.961.738-1.74 1.648-1.74M7.841 7.51c-.189-.402-.713-.735-1.409-.156-.94.783-2.452.783-2.452.783s-1.51 0-2.452-.783C.832 6.775.308 7.11.12 7.511c-.33.7.043 1.038.884 1.608.718.487 1.704.67 2.341.737l-.532.562L.84 12.504c-.3.317-.3.83 0 1.148l.09.096a.74.74 0 0 0 1.086 0l1.974-2.086 1.974 2.085a.74.74 0 0 0 1.086 0l.09-.095c.3-.317.3-.831 0-1.148l-1.973-2.086-.534-.563c.638-.07 1.614-.253 2.326-.736.84-.57 1.213-.908.883-1.608" fill="#FFF" mask="url(#b)"/></g></svg>