<svg width="14" height="11" viewBox="0 0 14 11" xmlns="http://www.w3.org/2000/svg"><title>A96F8256-A99D-4D87-BA7D-99762C0A31DC</title><path d="M0 9.757c.228.022.455.033.683.033 1.335 0 2.527-.396 3.574-1.188a2.83 2.83 0 0 1-1.673-.55A2.711 2.711 0 0 1 1.57 6.677c.151.03.33.044.535.044.265 0 .52-.033.762-.099a2.792 2.792 0 0 1-1.656-.951 2.634 2.634 0 0 1-.654-1.766v-.033c.402.22.838.334 1.309.341a2.762 2.762 0 0 1-.94-.984A2.636 2.636 0 0 1 .58 1.903C.58 1.404.713.939.98.506A7.938 7.938 0 0 0 3.59 2.558c1.028.51 2.13.793 3.307.852a3.024 3.024 0 0 1-.08-.638c0-.763.28-1.415.842-1.958C8.222.271 8.9 0 9.698 0c.827 0 1.525.293 2.094.88a5.88 5.88 0 0 0 1.821-.682 2.66 2.66 0 0 1-1.252 1.54A6.038 6.038 0 0 0 14 1.298a5.417 5.417 0 0 1-1.423 1.441v.363a7.806 7.806 0 0 1-1.36 4.361 8.595 8.595 0 0 1-1.645 1.81c-.637.528-1.402.948-2.293 1.26A8.65 8.65 0 0 1 4.405 11 8.268 8.268 0 0 1 0 9.757z" fill="#FFF" fill-rule="evenodd"/></svg>