<svg width="19" height="12" viewBox="0 0 19 12" xmlns="http://www.w3.org/2000/svg"><title>586B6021-C916-44BD-95C3-C45A137CC7E4</title><path d="M0 .79C.01.784.024.777.026.767.046.698.096.66.156.63.267.572.386.534.508.512.618.492.73.479.841.479h.622L2.816.476c.094 0 .187-.003.28-.006.138-.006.274.013.41.041.193.04.34.147.432.324.116.223.232.446.332.677a17.017 17.017 0 0 0 1.98 3.417c.039.054.083.106.126.157.098.114.219.198.355.26.05.023.102.037.157.038a.276.276 0 0 0 .226-.102.489.489 0 0 0 .067-.104c.079-.167.142-.34.17-.523.016-.105.027-.211.04-.317.027-.244.044-.49.054-.736a10.018 10.018 0 0 0-.024-1.282c-.015-.176-.027-.352-.062-.525a3.311 3.311 0 0 0-.052-.227.867.867 0 0 0-.51-.59L6.307.76l-.06-.029c.006-.016.009-.03.016-.043.102-.184.248-.325.433-.425.135-.073.28-.12.43-.156.237-.057.479-.087.723-.095A31.955 31.955 0 0 1 9.622.011c.095.003.191.006.287.013.169.012.333.05.497.09.05.012.1.025.15.041.225.074.39.219.492.434.055.116.086.239.106.365.023.146.032.293.034.441.003.236-.013.472-.025.707l-.023.396-.037.707c-.016.313-.032.627-.045.94-.007.153 0 .306.033.456.037.167.1.322.203.459.047.062.098.12.146.182a.17.17 0 0 0 .15.065.385.385 0 0 0 .084-.014.799.799 0 0 0 .288-.15c.094-.073.175-.16.248-.256.155-.204.312-.407.46-.617a13.381 13.381 0 0 0 1.47-2.706c.083-.204.173-.405.26-.607a.92.92 0 0 1 .058-.11.79.79 0 0 1 .577-.38c.072-.012.145-.018.217-.017.182 0 .363.006.544.009.239.003.477.006.716.007.451.002.902 0 1.353.003.182.002.363.007.544.029.087.01.175.022.26.045.21.056.328.196.323.441a1.032 1.032 0 0 1-.036.23c-.069.27-.172.527-.297.776a8.03 8.03 0 0 1-.53.886c-.243.359-.508.702-.776 1.042-.379.48-.755.963-1.12 1.453a2.234 2.234 0 0 0-.262.458c-.036.084-.06.17-.076.26a.776.776 0 0 0 .093.518c.06.108.136.203.224.288.186.18.372.361.56.54.307.29.612.582.9.892.38.406.73.835 1.036 1.3.108.163.196.335.259.52.02.057.03.115.033.175a.513.513 0 0 1-.117.346.654.654 0 0 1-.156.14c-.161.105-.34.164-.53.187-.092.01-.186.016-.28.016-.308-.001-.616-.007-.925-.01-.254-.002-.508-.006-.762-.004-.124.002-.248.014-.372.024-.137.01-.274.023-.41.032a.91.91 0 0 1-.27-.034 2.732 2.732 0 0 1-1.232-.664 5.504 5.504 0 0 1-.354-.36c-.232-.259-.459-.522-.69-.782-.112-.125-.226-.25-.343-.37a2.21 2.21 0 0 0-.203-.181.836.836 0 0 0-.425-.18.5.5 0 0 0-.544.312c-.045.108-.07.222-.092.337a6.441 6.441 0 0 0-.097.779c-.01.163-.023.326-.06.485-.012.05-.026.1-.043.15a.56.56 0 0 1-.305.335 1.349 1.349 0 0 1-.318.099 3.384 3.384 0 0 1-.851.054c-.187-.01-.373-.022-.559-.038a7.365 7.365 0 0 1-1.81-.362 6.03 6.03 0 0 1-1.858-1.05 7.17 7.17 0 0 1-.754-.717 18.74 18.74 0 0 1-1.45-1.817 27.028 27.028 0 0 1-1.418-2.257A36.19 36.19 0 0 1 .269 1.816a2.918 2.918 0 0 1-.223-.774L.028.912C.025.891.021.874 0 .868V.79z" fill="#FFF" fill-rule="evenodd"/></svg>