<svg version="1.1" id="Слой_1" xmlns="http://www.w3.org/2000/svg" xmlns:xlink="http://www.w3.org/1999/xlink" x="0px" y="0px" viewBox="0 0 18 18" style="enable-background:new 0 0 18 18;" xml:space="preserve"><style type="text/css">.st0{fill:#0F93BD;}</style><g id="CByFKN_2_"><g><g><path class="st0" d="M0.8,8.9c0-1.5,0-3.1,0-4.6C1,3.9,1.2,3.8,1.6,3.8c1.2,0,2.3,0,3.5,0c0.1,0,0.1,0,0.2,0c0.1-0.4,0.2-0.7,0.4-1c0.5-0.7,1.1-1.2,2-1.4c1-0.3,2.1-0.3,3.1,0.1c0.7,0.2,1.2,0.6,1.6,1.2c0.2,0.3,0.4,0.7,0.4,1.1c0.1,0,0.1,0,0.2,0c1.2,0,2.4,0,3.6,0c0.1,0,0.2,0,0.3,0c0.2,0,0.4,0.2,0.4,0.4c0,1.5,0,3.1,0,4.6c0,0-0.1,0-0.1,0c-0.3,0.2-0.7,0.4-1,0.5c-0.8,0.3-1.6,0.6-2.5,0.8c-1.1,0.2-2.1,0.4-3.2,0.4c-0.1,0-0.3,0-0.4,0c0,0.5,0,0.9,0,1.4c0,0.3-0.3,0.6-0.6,0.6c-0.2,0-0.4,0-0.6,0c-0.4,0-0.7-0.3-0.7-0.7c0-0.4,0-0.8,0-1.2c0,0,0-0.1,0-0.1c-0.4,0-0.7,0-1.1-0.1c-0.8-0.1-1.5-0.2-2.3-0.3c-1-0.2-2-0.5-3-0.9C1.4,9.2,1.1,9,0.8,8.9z M11.4,3.8C11.4,3.8,11.4,3.8,11.4,3.8c0-0.1,0-0.1,0-0.2c-0.2-0.4-0.5-0.6-0.8-0.8c-0.4-0.2-0.9-0.3-1.4-0.3c-0.8,0-1.6,0.2-2.2,0.8C6.8,3.4,6.7,3.6,6.6,3.8C8.2,3.8,9.8,3.8,11.4,3.8z"/><path class="st0" d="M1.8,10.6c0.3,0.1,0.5,0.2,0.8,0.3C3.4,11,4.2,11.3,5,11.4c0.7,0.1,1.4,0.2,2.1,0.3c0.1,0,0.2,0,0.2,0.2c0,0.3,0,0.7,0,1c0,0.4,0.2,0.6,0.6,0.6c0.8,0,1.6,0,2.4,0c0.4,0,0.6-0.2,0.6-0.6c0-0.3,0-0.7,0-1c0,0,0-0.1,0-0.2c1.8-0.2,3.7-0.5,5.4-1.1c0,0.1,0,0.1,0,0.2c0,2,0,3.9,0,5.9c0,0.1,0,0.2-0.2,0.2c-4.7,0-9.4,0-14.1,0c-0.1,0-0.2,0-0.2-0.2c0-2,0-3.9,0-5.9C1.8,10.7,1.8,10.7,1.8,10.6z"/></g></g></g></svg>