<svg version="1.1" id="Слой_1" xmlns="http://www.w3.org/2000/svg" xmlns:xlink="http://www.w3.org/1999/xlink" x="0px" y="0px" viewBox="0 0 18 18" style="enable-background:new 0 0 18 18;" xml:space="preserve"><style type="text/css">.st0{fill:#CC2222;}.st1{fill:#FFFFFF;}.st2{fill:none;}</style><g><path class="st0" d="M15.3,17.9H4.8c-1.7,0-3-1.3-3-3V3.1c0-1.7,1.3-3,3-3h10.5c0.6,0,1,0.4,1,1v15.9C16.3,17.5,15.9,17.9,15.3,17.9z"/><path class="st1" d="M14.3,16.4H5c-0.6,0-1.2-0.5-1.2-1.2V15c0-0.6,0.5-1.2,1.2-1.2h9.3V16.4z"/><g><path class="st2" d="M8.6,10.6c-0.1,0-0.1,0.1-0.1,0.1c0.1,0,0.2,0,0.2,0C8.7,10.7,8.7,10.6,8.6,10.6z"/><path class="st2" d="M8.9,10.2c0,0,0.1,0.2,0.3,0.4c0.1,0.1,0.1,0.1,0.1,0.2c0.2,0,0.3,0,0.5,0C9.7,10.4,10,10,10,10C9.5,9.6,8.9,10.2,8.9,10.2z"/><path class="st2" d="M9.6,9.2c0,0,0.4,0.1,0.5,0.1c0,0-0.4-0.3-0.4-0.3C9.6,9,9.6,9.2,9.6,9.2z"/><path class="st2" d="M8.9,9.2c0,0-0.8-0.1-1.1-0.3C7.5,8.8,7.2,8.7,7.2,8.8C7.1,8.9,7,8.9,7,8.9S6.9,8.8,6.7,8.8c-0.1,0-0.4,0.4-0.3,0.5c0.1,0.1,0.3,0.1,0.3,0.1s0.2,0.3,0.2,0.4l0.3,0c0,0,0.1-0.5,0.5-0.6C8.1,9.2,8.6,9.4,8.9,9.2z"/><path class="st2" d="M12.3,9.9l-0.1,0l0,0.7C12.5,10.5,12.3,9.9,12.3,9.9z"/><path class="st2" d="M10.1,10.7c0.1,0,0.1,0,0.2,0c0.1-0.1,0.1-0.3,0-0.5C10.3,10.3,10,10.5,10.1,10.7z"/><path class="st2" d="M8.5,6.8c0.3-0.3,0.6-0.3,0.6-0.3c-0.1-0.6,0.3-1,0.3-1l0-0.1c0,0-0.1,0-0.1,0L8.5,6.4c0,0.1,0,0.2,0,0.2C8.4,6.8,8.5,6.8,8.5,6.8z"/><path class="st2" d="M12.5,7.9c0,0-0.1-0.3-0.9-0.2c0,0,0.1,0.9-0.1,1.1c0,0,0.5,0.6,0.6,0.6C12.1,9.4,11.7,8.3,12.5,7.9z"/><path class="st2" d="M10.8,10.8c0.2,0,0.4,0.1,0.6,0.1c-0.2-0.1-0.4-0.3-0.4-0.3C11,10.6,10.9,10.7,10.8,10.8z"/><path class="st2" d="M11.1,9.4L11,9.6c0,0,0.2,0.5,0.3,0.5c0,0,0.1,0.1,0,0.2c0,0,0.2,0.2,0.5,0.3c0,0,0.2-0.1,0.1-0.7C11.8,10,11.6,9.5,11.1,9.4z"/><path class="st1" d="M12.1,11C12.1,11,12.1,11,12.1,11c0.2,0,0.7-0.3,0.4-1.2c-0.3-1-0.5-1.5,0.2-1.8c0,0,0.1,0,0.2,0.3c0.1,0.3,0.3,0.5,0.5,0.3c0.3-0.2,0.1-0.3-0.1-0.5c0,0,0.3-0.1,0-0.5c0,0,0.3-0.1,0.3-0.6l0.1,0l-0.3-0.5l-0.1,0.5l0.1,0c0,0-0.1,0.3-0.2,0.4c-0.1,0.1-0.1,0.1-0.1,0.1S13,6.9,11.5,7.5c0,0-0.5-0.5-1.5-0.3c0,0,0.1-0.3,0-0.5c0,0,0-0.2,0.1-0.3c0.1-0.1,0.1-0.4,0.1-0.4s0.4,0,1,0l0.2-0.2c0,0,0.8,0.2,1-0.2l-0.1-0.1c0,0,0-0.1-0.1-0.1c-0.1,0-0.5,0.2-0.8,0c-0.3-0.2-0.5-0.4-0.9-0.5c0,0,0-0.6-0.4-0.8c0,0,0,0,0,0l1.2-1.7l0.4,0.2l0,0l-0.4-0.2l0.3-0.5l0,0l-0.3,0.5L11,2.1l0,0l0.3,0.2L10.1,4C10,4,9.9,3.9,9.9,4c-0.2,0.1,0,0.1,0,0.1l0.1,0.1L9.7,4.5l0,0c0,0-0.3-0.3-0.3-0.3c0,0,0-0.1,0.2-0.1c0.2,0.1,0.2-0.1,0.2-0.1s-0.1,0-0.2-0.1C9.4,4,9.2,4,9.1,4.1c-0.1,0.1,0,0.2,0,0.3c0.1,0,0.1,0.1,0,0.2C9.1,4.5,8.9,4.8,9,4.9C9,4.9,9.3,5,9.2,5.2c0,0,0,0,0,0.1L8.4,6.3C8.4,5.8,8.1,4.9,7.3,4.9c0,0-0.1-0.1-0.2-0.1c-0.2,0-0.3-0.2-0.3-0.2s0,0.3,0,0.3c0,0.1-0.3,0.4-0.3,0.5C6.4,5.7,6.1,6,6.1,6s0,0.1,0,0.2c0,0,0,0.2,0.1,0.3c0,0,0.1,0,0.1,0c0,0,0.1-0.2,0.1-0.1c0.1,0,0,0.1,0,0.1c-0.1,0,0,0.1,0,0.1c0,0,0.2,0,0.2,0c0.1-0.1,0.1-0.2,0.2-0.2C6.9,6.3,7,6.2,7,6.2s0,0.2,0,0.3c0,0.1-0.3,0.7-0.2,0.8c0,0-0.3,0.4-0.2,0.5c0,0-0.3,0-0.5-0.1C5.7,7.6,5.4,7.8,5.1,8.2C4.7,8.5,4.5,8.7,4.5,9l0.1,0.3c0,0,0.5-0.1,0.6-0.2L5,8.8c0,0,0.4-0.6,0.8-0.6c0.4,0,0.3,0.1,0.3,0.1S5.7,8.9,5.8,9c0,0.1,0.1,0.1,0.1,0.1l0.1,0.7c0,0,0.6,0.6,0.3,1.1l0,0C6,11,5.7,11.1,5.5,11.2v0.6c2.2,0.1,5.2,0.1,7.4,0.1v-0.6C12.6,11.2,12.3,11.1,12.1,11z M12.2,9.9l0.1,0c0,0,0.2,0.7-0.2,0.7L12.2,9.9z M9.2,5.4c0.1,0,0.1,0,0.1,0l0,0.1c0,0-0.3,0.4-0.3,1c0,0-0.3,0-0.6,0.3c0,0-0.1,0.1-0.1-0.1c0,0,0-0.1,0-0.2L9.2,5.4z M7.1,9.8l-0.3,0c0-0.2-0.2-0.4-0.2-0.4s-0.2,0-0.3-0.1C6.3,9.2,6.6,8.8,6.7,8.8C6.9,8.8,7,8.9,7,8.9s0.1,0,0.2-0.1c0.1-0.1,0.4,0,0.7,0.1c0.3,0.2,1.1,0.3,1.1,0.3c-0.3,0.2-0.8,0-1.3,0C7.2,9.3,7.1,9.8,7.1,9.8z M9.7,10.7c-0.2,0-0.3,0-0.5,0c0-0.1,0-0.1-0.1-0.2c-0.2-0.2-0.3-0.4-0.3-0.4S9.5,9.6,10,10C10,10,9.7,10.4,9.7,10.7z M9.6,9.2c0,0,0-0.2,0.1-0.2c0.1,0,0.4,0.3,0.4,0.3C9.9,9.3,9.6,9.2,9.6,9.2z M10.3,10.8c-0.1,0-0.1,0-0.2,0c-0.1-0.2,0.2-0.5,0.2-0.5C10.4,10.5,10.3,10.7,10.3,10.8z M11.7,10.7c-0.3-0.1-0.5-0.3-0.5-0.3c0.1-0.1,0-0.2,0-0.2C11.2,10,11,9.6,11,9.6l0.1-0.2c0.4,0.1,0.7,0.6,0.7,0.6C11.9,10.6,11.7,10.7,11.7,10.7z M11.5,8.8c0.2-0.2,0.1-1.1,0.1-1.1c0.7-0.1,0.9,0.2,0.9,0.2c-0.8,0.5-0.4,1.5-0.4,1.5C12,9.5,11.5,8.8,11.5,8.8z"/></g></g></svg>