<?xml version="1.0" encoding="UTF-8"?> <svg xmlns="http://www.w3.org/2000/svg" id="Слой_1" data-name="Слой 1" viewBox="0 0 445.78 445.78"> <defs> <style>.cls-1,.cls-3{fill:#5eb030;}.cls-1{opacity:0.3;}.cls-2{fill:#fff;}.cls-4{fill:#005063;}.cls-5{fill:#eb5848;}</style> </defs> <title>1Монтажная область 19</title> <path class="cls-1" d="M222.89,0C99.79,0,0,99.79,0,222.89A222.12,222.12,0,0,0,61.92,377.05c17.21-41.42,53.44-72.21,66.31-82.23l19.47-47a262,262,0,0,1-12.06-27,25.89,25.89,0,0,1-1.37-2.77c-7.24-18.17-10.1-30.54-10.41-42.45a100.9,100.9,0,0,1,.31-28.49c6.54-38.76,34.06-68.83,76.35-67.6a11.34,11.34,0,0,0-3.21-8.74,17.59,17.59,0,0,1,0-24.68l4.82-5a3.16,3.16,0,1,1,4.53,4.41l-4.82,4.95a11.3,11.3,0,0,0,0,15.87,17.59,17.59,0,0,1,5,13.55q3.38.33,6.86.93c2.73.46,6.13,1.26,10,2.3a11.33,11.33,0,0,0-2.33-12.38,17.59,17.59,0,0,1,0-24.68l4.82-5a3.16,3.16,0,0,1,4.53,4.41l-4.82,4.95a11.3,11.3,0,0,0,0,15.87,17.57,17.57,0,0,1,3.91,18.51l1.39.41a103.23,103.23,0,0,1,12,3.63l2.22-2.28a11.32,11.32,0,0,0,0-15.87,17.59,17.59,0,0,1,0-24.68l4.82-5a3.16,3.16,0,1,1,4.52,4.41l-4.82,4.95a11.32,11.32,0,0,0,0,15.87,17.59,17.59,0,0,1,0,24.68l-.17.17c24.93,8.38,51.4,18.56,51.4,18.56s2.4,16.64-11.48,27.26c3.16,12.12,3.11,25.66-.24,40.09L300.11,216c.68,2.19-.1,5-2,7.23a8.85,8.85,0,0,1-7.65,3.2l-6.14.74-1.87,17.09-8.24,18.16L270.08,274a19.05,19.05,0,0,1-21.73,14.61l-.27-.06-26.16-6.75-10.83,33.66,5.73,14.72h.05s43.19,55.37,58.74,109.34c97.65-23.68,170.17-111.66,170.17-216.6C445.78,99.79,346,0,222.89,0ZM341.78,358.07a25.67,25.67,0,0,1-17.19-44.75V220.37a17.19,17.19,0,0,1,34.37,0v92.95a25.67,25.67,0,0,1-17.18,44.75Z"></path> <path class="cls-2" d="M283,176.39c3.18-13.31,3.47-25.47.88-36.38-9,1.63-42.93,2.8-56.9,9.22-9,4.13-15.46,23.12-15.46,23.12s-21.37-9-25.35,14.93c-2.5,15.07,4.17,22.59,4.17,22.59S169.81,231.78,163,239c-2.14,2.27-5.37,5.19-8.14,7.6a6.37,6.37,0,0,1-.18.89l-.12.33-19,45.87a164.17,164.17,0,0,0,38.64,24.23l1.89.79c2.68,1.11,5.36,2.2,8,3.26a152.75,152.75,0,0,0,25.44,7.14l-5.24-13.46,13.37-41.54,31.83,8.22a12.66,12.66,0,0,0,14.37-9.89L264,272l4.34-12.1,7.88-17.35,2.3-21.1,12-1.44.45.07a2.22,2.22,0,0,0,1.85-.58,3.25,3.25,0,0,0,1.12-1.75l-11.13-40.57ZM224.11,212a8.05,8.05,0,0,1-8.06-8c0-4.46,8.06-15.2,8.06-15.2s8.06,10.74,8.06,15.2A8.05,8.05,0,0,1,224.11,212Zm20.44-24.85a8.06,8.06,0,0,1-8.06-8.06c0-4.45,8.06-15.2,8.06-15.2s8,10.75,8,15.2A8.05,8.05,0,0,1,244.55,187.16Z"></path> <path class="cls-3" d="M134.27,218a25.89,25.89,0,0,0,1.37,2.77c-5-13.08-9.86-29.07-11.78-45.22C124.17,187.45,127,199.82,134.27,218Z"></path> <path class="cls-4" d="M243.08,89l.09-.1a103.23,103.23,0,0,0-12-3.63C234.94,86.35,239,87.61,243.08,89Z"></path> <path class="cls-3" d="M147.7,247.77l-19.47,47c2.94-2.29,6.48-1.93,7.38-1.16l19-45.87.12-.33a6.37,6.37,0,0,0,.18-.89c-2.95,2.58-5.38,4.58-5.38,4.58S148.84,250,147.7,247.77Z"></path> <path class="cls-4" d="M174.25,317.89c3.42,1.53,6.72,2.87,9.88,4.05-2.63-1.06-5.31-2.15-8-3.26Z"></path> <path class="cls-3" d="M289.42,177.07c3.35-14.43,3.4-28,.24-40.09a34.36,34.36,0,0,1-3.75,2.49,7.48,7.48,0,0,1-2,.54c2.59,10.91,2.3,23.07-.88,36.38l-.19.79L294,217.75a3.25,3.25,0,0,1-1.12,1.75,2.22,2.22,0,0,1-1.85.58l-.45-.07-12,1.44-2.3,21.1-7.88,17.35L264,272l-.12.41a12.66,12.66,0,0,1-14.37,9.89l-31.83-8.22-13.37,41.54,5.24,13.46c4.27.78,6.87,1,7.25,1.06l-5.73-14.72,10.83-33.66,26.16,6.75.27.06A19.05,19.05,0,0,0,270.08,274l4.14-11.54,8.24-18.16,1.87-17.09,6.14-.74a8.85,8.85,0,0,0,7.65-3.2c1.89-2.21,2.67-5,2-7.23Z"></path> <path class="cls-3" d="M249.74,91.16l-6.09,6.26A3.16,3.16,0,1,1,239.13,93l4-4.05c-4.13-1.35-8.14-2.61-11.9-3.73l-1.39-.41A17.83,17.83,0,0,1,225.88,91l-6.27,6.43A3.16,3.16,0,1,1,215.09,93l6.26-6.43a11.35,11.35,0,0,0,2.33-3.49c-3.86-1-7.26-1.84-10-2.3q-3.48-.6-6.86-.93a17.6,17.6,0,0,1-5,11.13l-6.27,6.43a3.14,3.14,0,0,1-4.46.06,3.16,3.16,0,0,1-.06-4.47l6.26-6.43a11.32,11.32,0,0,0,3.21-7.13c-42.29-1.23-69.81,28.84-76.35,67.6a100.9,100.9,0,0,0-.31,28.49c1.92,16.15,6.79,32.14,11.78,45.22a262,262,0,0,0,12.06,27c1.14,2.18,1.81,3.38,1.81,3.38s2.43-2,5.38-4.58c2.77-2.41,6-5.33,8.14-7.6,6.78-7.19,27.35-29.1,27.35-29.1s-6.67-7.52-4.17-22.59c4-24,25.35-14.93,25.35-14.93s6.46-19,15.46-23.12c14-6.42,47.89-7.59,56.9-9.22a7.48,7.48,0,0,0,2-.54,34.36,34.36,0,0,0,3.75-2.49c13.88-10.62,11.48-27.26,11.48-27.26S274.67,99.54,249.74,91.16Z"></path> <path class="cls-3" d="M216.82,330.14c-.38,0-3-.28-7.25-1.06a152.75,152.75,0,0,1-25.44-7.14c-3.16-1.18-6.46-2.52-9.88-4.05a164.17,164.17,0,0,1-38.64-24.23c-.9-.77-5-3.29-5.86-4.08,0,0-1.73,1.21-4.67,3.49-12.88,10-45.95,42.56-63.16,84a223.13,223.13,0,0,0,213.69,62.44c-15.55-54-58.74-109.34-58.74-109.34Z"></path> <path class="cls-2" d="M353.64,315.86V220.37a11.87,11.87,0,0,0-23.73,0v95.49a20.37,20.37,0,1,0,23.73,0Zm-11.86,29.77a13.23,13.23,0,0,1-7.71-24l3-2.13V248.84a4.75,4.75,0,1,1,9.49,0v70.67l3,2.13a13.23,13.23,0,0,1-7.71,24Z"></path> <path class="cls-3" d="M359,313.32V220.37a17.19,17.19,0,0,0-34.37,0v92.95a25.69,25.69,0,1,0,34.37,0Zm-17.18,39.43a20.35,20.35,0,0,1-11.87-36.89V220.37a11.87,11.87,0,0,1,23.73,0v95.49a20.35,20.35,0,0,1-11.86,36.89Z"></path> <path class="cls-5" d="M349.49,321.64l-3-2.13V248.84a4.75,4.75,0,1,0-9.49,0v70.67l-3,2.13a13.24,13.24,0,1,0,15.42,0Z"></path> <path class="cls-2" d="M206.66,45.49a3.16,3.16,0,1,0-4.53-4.41l-4.82,5a17.59,17.59,0,0,0,0,24.68,11.34,11.34,0,0,1,0,15.87L191.05,93a3.17,3.17,0,0,0,2.26,5.37,3.12,3.12,0,0,0,2.26-1L201.84,91a17.65,17.65,0,0,0,0-24.68,11.3,11.3,0,0,1,0-15.87Z"></path> <path class="cls-2" d="M230.7,45.49a3.16,3.16,0,0,0-4.53-4.41l-4.82,5a17.59,17.59,0,0,0,0,24.68,11.34,11.34,0,0,1,0,15.87L215.09,93a3.16,3.16,0,1,0,4.52,4.41L225.88,91a17.83,17.83,0,0,0,3.91-6.17,17.57,17.57,0,0,0-3.91-18.51,11.3,11.3,0,0,1,0-15.87Z"></path> <path class="cls-2" d="M254.73,45.49a3.16,3.16,0,1,0-4.52-4.41l-4.82,5a17.59,17.59,0,0,0,0,24.68,11.32,11.32,0,0,1,0,15.87l-2.22,2.28-.09.1-4,4.05a3.16,3.16,0,0,0,.06,4.47,3.14,3.14,0,0,0,4.46-.06l6.09-6.26.17-.17a17.59,17.59,0,0,0,0-24.68,11.32,11.32,0,0,1,0-15.87Z"></path> <path class="cls-3" d="M236.49,179.1a8.06,8.06,0,1,0,16.11,0c0-4.45-8-15.2-8-15.2S236.49,174.65,236.49,179.1Z"></path> <path class="cls-3" d="M216.05,204a8.06,8.06,0,0,0,16.12,0c0-4.46-8.06-15.2-8.06-15.2S216.05,199.5,216.05,204Z"></path> </svg> 