<?xml version="1.0" encoding="UTF-8"?> <svg xmlns="http://www.w3.org/2000/svg" xmlns:xlink="http://www.w3.org/1999/xlink" id="Слой_1" data-name="Слой 1" width="445.04" height="445.04" viewBox="0 0 445.04 445.04"> <defs> <style>.cls-1,.cls-2,.cls-5,.cls-6,.cls-7{fill:none;}.cls-1,.cls-11,.cls-12,.cls-14,.cls-5,.cls-6,.cls-7{stroke-miterlimit:10;}.cls-1{stroke:url(#Безымянный_градиент_7);}.cls-3{opacity:0.6;}.cls-4{clip-path:url(#clip-path);}.cls-10,.cls-11,.cls-12,.cls-13,.cls-14,.cls-5{stroke-width:6px;}.cls-5{stroke:url(#Безымянный_градиент_7-2);}.cls-6,.cls-7{stroke-width:4px;}.cls-6{stroke:url(#Безымянный_градиент_7-3);}.cls-7{stroke:url(#Безымянный_градиент_7-4);}.cls-12,.cls-13,.cls-8{fill:#c9dab8;}.cls-9{clip-path:url(#clip-path-2);}.cls-10,.cls-11{fill:#5ea430;}.cls-10,.cls-11,.cls-12,.cls-13,.cls-14{stroke:#5ea430;}.cls-10{stroke-linejoin:round;}.cls-13{stroke-linejoin:bevel;}.cls-14{fill:#fff;}</style> <linearGradient id="Безымянный_градиент_7" x1="947.62" y1="1188.44" x2="2508.27" y2="287.4" gradientUnits="userSpaceOnUse"> <stop offset="0" stop-color="#fff"></stop> <stop offset="1" stop-color="#fff" stop-opacity="0.1"></stop> </linearGradient> <clipPath id="clip-path"> <rect class="cls-1" x="887.45" y="392.99" width="1681" height="689.86"></rect> </clipPath> <linearGradient id="Безымянный_градиент_7-2" x1="-50.67" y1="1275.62" x2="2163.86" y2="-2.94" gradientTransform="translate(1382.75 -553.17) rotate(74.27)" xlink:href="#Безымянный_градиент_7"></linearGradient> <linearGradient id="Безымянный_градиент_7-3" x1="462.56" y1="979.31" x2="1650.62" y2="293.38" xlink:href="#Безымянный_градиент_7"></linearGradient> <linearGradient id="Безымянный_градиент_7-4" x1="209.18" y1="1125.6" x2="1904" y2="147.09" xlink:href="#Безымянный_градиент_7"></linearGradient> <clipPath id="clip-path-2"> <circle id="Oval" class="cls-2" cx="222.52" cy="222.52" r="222.52"></circle> </clipPath> </defs> <title>1Монтажная область 23 копия 8</title> <g class="cls-3"> <g class="cls-4"> <ellipse id="Oval-2" data-name="Oval" class="cls-5" cx="1056.59" cy="636.34" rx="1276.16" ry="1274.84" transform="translate(157.7 1480.92) rotate(-74.27)"></ellipse> <circle id="Oval-3" data-name="Oval" class="cls-6" cx="1056.59" cy="636.34" r="683.93"></circle> <circle id="Oval-4" data-name="Oval" class="cls-7" cx="1056.59" cy="636.34" r="976.51"></circle> </g> <rect class="cls-1" x="887.45" y="392.99" width="1681" height="689.86"></rect> </g> <circle id="Oval-5" data-name="Oval" class="cls-8" cx="222.52" cy="222.52" r="222.52"></circle> <g class="cls-9"> <path class="cls-10" d="M212.59,149c-.23-.07,24.7-26.06,22-27.14-.62-.23-3.57-.54-4.42-.85a47.68,47.68,0,0,1-5.27-2.15,1.56,1.56,0,0,1-.81-1.39L224,105.26,209.4,109l-14.24-3.74L195,117.63a1.57,1.57,0,0,1-.73,1.34c-1.31.81-6.86,1.7-8.7,2.39-.5.19-1,.39-1.39.54C181.6,122.94,213.09,149.2,212.59,149Z"></path> <path class="cls-11" d="M237.05,71.47c-1.15,0-2,1.31-2.38,1.88v0l-.27.58-.86-15.21L228,47.25l-16-6.4h-5.27l-15.95,6.36L186.2,58.72l-1.71,15.21-.27-.58v0c-.35-.58-1.23-1.89-2.39-1.89-.46,0-1.35.23-1.77,1.69-.54,1.93.42,7.86.77,8.82h0l3.24,8.2c.11.31,1.23,3,3.31,3a1.36,1.36,0,0,0,.42,0c.08.23.12.5.19.73.7,2.74,1.24,5,1.58,6.47s1-5.44,1.77-4.17c1,1.5,2.62,2.1,4.86,4.91a6.9,6.9,0,0,0,9.32,1.77h8c.19,0,2,3.6,6.16-1.6,2.23-2.81,3.37-2.81,4.33-4.35.81-1.27,5.06,4.94,5.41,3.44s.89-3.73,1.58-6.47c.08-.23.12-.5.19-.73a1.57,1.57,0,0,0,.43,0h0c2.08,0,3.19-2.66,3.31-3L238.09,82c.39-1,1.31-6.89.77-8.82C238.36,71.7,237.52,71.47,237.05,71.47Z"></path> <path class="cls-10" d="M229.31,43.32s-3.85-8.74-10-9.59-20.87-1.39-26.53,3.7-9.25,8.93-9.05,13.36L183.58,72l3.33,8.26s0-15.48,1.24-18.33,3-8.21,9.55-8.21,23.3.54,26.53-2.31a22.55,22.55,0,0,1,7,12.75A82.45,82.45,0,0,1,232.43,80s2-1.22,2.93-8.38c.85-6.35,1.08-19.49-1-23.18A12.88,12.88,0,0,0,229.31,43.32Z"></path> <path class="cls-11" d="M267.76,147.12c-2.62-12-14.52-16.21-15-16.36-.19-.08-9.33-6.59-15.8-8.94l-1-.34-.81.69c-5.74,4.93-15.33,7.89-25.65,7.89s-19.91-3-25.65-7.89l-.8-.69-1,.34c-6.5,2.35-17.1,8.86-17.25,8.94-.5.19-12.4,4.39-15,16.36-1.46,6.59-2.16,19.3-2.54,21.26v69.33h123.2V168.38C270,166.46,269.22,153.71,267.76,147.12Z"></path> <path class="cls-11" d="M229.53,95.58l-1-11.94c-17,8.59-38.07-.15-38.07-.15L189.28,94.7s.26,6.51.76,7.41,6,10.49,15,11.86h8.49s5.46.27,14.13-9.5A84.28,84.28,0,0,0,229.53,95.58Z"></path> <line class="cls-12" x1="228.57" y1="83.64" x2="232.76" y2="79.71"></line> <line class="cls-12" x1="190.5" y1="83.49" x2="186.91" y2="80.25"></line> <path class="cls-10" d="M353.52,185.72c-.23-.08,24.7-26.07,22.05-27.15-.62-.23-3.57-.53-4.42-.84a49.84,49.84,0,0,1-5.28-2.16,1.58,1.58,0,0,1-.81-1.39L365,141.94l-14.61,3.77L336.1,142,336,154.3a1.57,1.57,0,0,1-.73,1.35c-1.31.81-6.86,1.69-8.71,2.39-.5.19-1,.38-1.38.53C322.54,159.61,354,185.87,353.52,185.72Z"></path> <path class="cls-11" d="M378,108.14c-1.15,0-2,1.31-2.39,1.89v0l-.26.58-.87-15.22L369,83.92l-16-6.39h-5.28l-15.94,6.35L327.13,95.4l-1.7,15.21-.27-.58v0c-.35-.58-1.23-1.89-2.39-1.89-.46,0-1.35.23-1.77,1.7-.54,1.92.42,7.85.77,8.82h0l3.23,8.2c.12.31,1.24,3,3.32,3a1.84,1.84,0,0,0,.42,0c.08.23.11.5.19.73.69,2.73,1.23,5,1.58,6.47s1-5.45,1.77-4.18c1,1.51,2.62,2.11,4.85,4.92a6.89,6.89,0,0,0,9.32,1.76h8c.2,0,2,3.6,6.16-1.6,2.24-2.81,3.38-2.81,4.34-4.35.81-1.27,5.06,4.95,5.41,3.45s.88-3.74,1.58-6.47c.08-.23.11-.5.19-.73a2,2,0,0,0,.42,0h0c2.08,0,3.2-2.65,3.32-3l3.19-8.13c.39-1,1.31-6.89.77-8.81C379.3,108.37,378.45,108.14,378,108.14Z"></path> <path class="cls-10" d="M370.25,80s-3.85-8.74-10-9.59S339.41,69,333.74,74.1s-9.24,8.93-9,13.36l-.18,21.2,3.32,8.26s.05-15.48,1.25-18.33,3-8.2,9.55-8.2,23.29.54,26.53-2.31a22.5,22.5,0,0,1,7,12.75,82,82,0,0,1,1.18,15.89s2-1.22,2.94-8.39c.85-6.35,1.08-19.48-1-23.18A13,13,0,0,0,370.25,80Z"></path> <path class="cls-11" d="M408.7,183.8c-2.62-12-14.52-16.21-15-16.37-.2-.08-9.33-6.58-15.8-8.93l-1-.35-.81.69c-5.74,4.93-15.33,7.9-25.65,7.9s-19.91-3-25.65-7.9l-.81-.69-1,.35c-6.51,2.35-17.1,8.85-17.25,8.93-.5.19-12.4,4.39-15,16.37-1.47,6.58-2.16,19.29-2.54,21.26v69.32h123.2V205.06C410.89,203.13,410.16,190.38,408.7,183.8Z"></path> <path class="cls-11" d="M370.47,132.25l-1-11.93c-17,8.58-38.07-.15-38.07-.15l-1.22,11.2s.26,6.52.76,7.42,6,10.49,15,11.85h8.48s5.47.27,14.14-9.5A83.65,83.65,0,0,0,370.47,132.25Z"></path> <line class="cls-12" x1="369.51" y1="120.32" x2="373.7" y2="116.38"></line> <line class="cls-12" x1="331.44" y1="120.17" x2="327.84" y2="116.92"></line> <path class="cls-12" d="M158.57,141.85c-1.52,0-2.68,1.72-3.14,2.47v.05l-.35.76-1.13-20L146.73,110l-21-8.4h-6.93L97.87,110,91.76,125.1l-2.24,20-.35-.76v0c-.46-.76-1.62-2.48-3.14-2.48-.61,0-1.77.31-2.33,2.23-.71,2.53.56,10.32,1,11.58h0L89,166.38c.16.4,1.62,3.89,4.35,3.89a1.91,1.91,0,0,0,.56-.05c.1.31.15.66.25,1,.91,3.6,1.62,6.63,2.08,8.5s1.26-7.15,2.32-5.48c1.27,2,3.44,2.76,6.38,6.46A9.06,9.06,0,0,0,117.14,183h10.47c.25,0,2.58,4.73,8.09-2.1,2.93-3.69,4.43-3.69,5.69-5.71,1.07-1.67,6.66,6.5,7.11,4.52s1.17-4.9,2.08-8.5c.1-.3.15-.65.25-1a2.09,2.09,0,0,0,.56.05h0c2.73,0,4.19-3.49,4.35-3.89l4.19-10.67c.51-1.27,1.72-9.06,1-11.59C160.29,142.15,159.18,141.85,158.57,141.85Z"></path> <path class="cls-12" d="M148.4,104.87s-5.06-11.48-13.1-12.6-27.42-1.82-34.85,4.86-12.14,11.73-11.89,17.55l-.23,27.85,4.37,10.85s.06-20.34,1.63-24.08,4-10.77,12.54-10.77,30.6.7,34.85-3a29.53,29.53,0,0,1,9.21,16.74,107.87,107.87,0,0,1,1.56,20.88s2.59-1.6,3.85-11c1.12-8.35,1.42-25.6-1.26-30.45A16.94,16.94,0,0,0,148.4,104.87Z"></path> <path class="cls-12" d="M198.9,241.22c-3.44-15.73-19.07-21.29-19.73-21.49-.25-.11-28.48-12.35-29.59-12.75a63,63,0,0,1-6.93-2.83,2.08,2.08,0,0,1-1.06-1.83l-.16-16.08-19.18,5-18.72-4.91-.15,16.19a2.07,2.07,0,0,1-1,1.77c-1.72,1.06-38.6,15.37-38.8,15.48-.66.25-16.29,5.76-19.73,21.49-1.92,8.65-2.83,25.35-3.34,27.93v91.06H202.39V269.15C201.78,266.62,200.82,249.87,198.9,241.22Z"></path> <path class="cls-12" d="M148.68,173.52l-1.26-15.68c-22.33,11.27-50-.2-50-.2l-1.61,14.72s.35,8.55,1,9.74,7.92,13.78,19.66,15.57h11.14s7.18.36,18.56-12.47A107.36,107.36,0,0,0,148.68,173.52Z"></path> <line class="cls-12" x1="147.42" y1="157.84" x2="152.93" y2="152.67"></line> <line class="cls-12" x1="97.42" y1="157.64" x2="92.7" y2="153.38"></line> <line class="cls-12" x1="95.81" y1="172.36" x2="111.63" y2="183.31"></line> <line class="cls-12" x1="103.1" y1="144.99" x2="113.63" y2="144.99"></line> <line class="cls-12" x1="131.12" y1="144.99" x2="141.65" y2="144.99"></line> <path class="cls-12" d="M335.24,175.32c-1.72,0-3,2-3.55,2.81v.06l-.4.86L330,156.41l-8.17-17.14-23.78-9.51h-7.86l-23.72,9.46-6.92,17.13L257,179l-.4-.86v-.06c-.51-.86-1.83-2.81-3.55-2.81-.69,0-2,.35-2.64,2.53-.8,2.86.63,11.69,1.15,13.12h0l4.81,12.21c.17.46,1.84,4.41,4.93,4.41a2,2,0,0,0,.63-.06c.12.35.17.75.29,1.09,1,4.07,1.83,7.51,2.35,9.63s1.43-8.1,2.63-6.21c1.44,2.23,3.9,3.13,7.22,7.31,6.19,7.74,13.87,2.63,13.87,2.63h11.87c.28,0,2.91,5.35,9.16-2.38,3.33-4.19,5-4.19,6.45-6.48,1.21-1.89,7.54,7.36,8.05,5.13s1.32-5.56,2.35-9.63c.12-.34.18-.74.29-1.09a2.25,2.25,0,0,0,.63.06h0c3.1,0,4.76-3.95,4.93-4.41l4.76-12.1c.57-1.43,1.95-10.25,1.14-13.12C337.19,175.67,335.93,175.32,335.24,175.32Z"></path> <path class="cls-12" d="M323.72,133.43s-5.73-13-14.84-14.27-31.06-2.06-39.49,5.5-13.75,13.3-13.47,19.89l-.26,31.55,5,12.29s.07-23,1.85-27.28S267,148.9,276.67,148.9s34.67.8,39.49-3.44a33.5,33.5,0,0,1,10.43,19,121.79,121.79,0,0,1,1.76,23.66s2.94-1.82,4.37-12.48c1.26-9.46,1.6-29-1.43-34.5A19.26,19.26,0,0,0,323.72,133.43Z"></path> <path class="cls-13" d="M380.93,287.91c-3.9-17.82-21.6-24.13-22.35-24.35-.29-.12-32.26-14-33.52-14.45a69.56,69.56,0,0,1-7.86-3.21,2.34,2.34,0,0,1-1.2-2.06l-.17-18.22-21.74,5.61-21.2-5.56L272.72,244a2.32,2.32,0,0,1-1.09,2c-1.95,1.2-43.74,17.42-44,17.54-.75.28-18.46,6.53-22.36,24.35-2.17,9.8-3.2,28.71-3.78,31.64V422.71H384.89V319.55C384.2,316.68,383.11,297.71,380.93,287.91Z"></path> <path class="cls-12" d="M324,211.2l-1.43-17.76c-25.29,12.78-56.65-.23-56.65-.23l-1.82,16.68s.39,9.7,1.13,11,9,15.61,22.27,17.64h12.63s8.13.4,21-14.13A122.77,122.77,0,0,0,324,211.2Z"></path> <line class="cls-12" x1="322.61" y1="193.44" x2="328.85" y2="187.58"></line> <line class="cls-12" x1="265.96" y1="193.21" x2="260.61" y2="188.39"></line> <line class="cls-12" x1="273.17" y1="178.88" x2="285.09" y2="178.88"></line> <line class="cls-12" x1="304.91" y1="178.88" x2="316.83" y2="178.88"></line> <path class="cls-14" d="M73.77,348.31c-.39-.13,41.93-44.25,37.42-46.08-1-.39-6.06-.92-7.5-1.44a80.64,80.64,0,0,1-9-3.66,2.66,2.66,0,0,1-1.37-2.35L93.16,274l-24.79,6.4-24.19-6.34L44,295a2.65,2.65,0,0,1-1.25,2.29c-2.22,1.37-11.64,2.88-14.78,4.05-.85.33-1.63.66-2.35.92C21.16,304,74.62,348.57,73.77,348.31Z"></path> <path class="cls-14" d="M115.31,216.61c-2,0-3.47,2.22-4,3.2v.07l-.46,1L109.34,195,100,175.49,72.88,164.64h-9L36.86,175.42,29,195l-2.9,25.82-.46-1v-.06c-.59-1-2.09-3.2-4.05-3.2-.79,0-2.29.39-3,2.87-.92,3.27.72,13.34,1.31,15h0l5.49,13.93c.19.52,2.09,5,5.62,5a2.69,2.69,0,0,0,.72-.06c.13.39.2.85.33,1.24,1.17,4.64,2.09,8.56,2.68,11s1.63-9.24,3-7.08c1.63,2.55,4.44,3.57,8.23,8.34,7.06,8.83,15.82,3,15.82,3H75.3c.32,0,3.33,6.11,10.45-2.72,3.79-4.77,5.73-4.77,7.36-7.39,1.38-2.15,8.6,8.4,9.19,5.85s1.5-6.34,2.68-11c.13-.39.2-.85.33-1.24a2.88,2.88,0,0,0,.72.06h0c3.53,0,5.42-4.51,5.62-5l5.42-13.8c.66-1.63,2.23-11.7,1.31-15C117.53,217,116.09,216.61,115.31,216.61Z"></path> <path class="cls-10" d="M102.17,168.82S95.63,154,85.23,152.54s-35.43-2.35-45,6.28S24.5,174,24.83,181.5l-.3,36,5.64,14s.08-26.28,2.11-31.11,5.16-13.93,16.21-13.93,39.56.92,45.05-3.92a38.17,38.17,0,0,1,11.9,21.64,138.82,138.82,0,0,1,2,27s3.35-2.07,5-14.23c1.44-10.79,1.83-33.08-1.63-39.36A21.94,21.94,0,0,0,102.17,168.82Z"></path> <path class="cls-14" d="M58.1,225.62a16,16,0,0,0-9.48-2.81,15.84,15.84,0,0,0-9.48,2.81"></path> <path class="cls-14" d="M97.66,225.62a16,16,0,0,0-9.48-2.81,15.82,15.82,0,0,0-9.48,2.81"></path> <path class="cls-11" d="M167.43,345.05c-4.44-20.33-24.64-27.52-25.49-27.78-.33-.13-15.84-11.18-26.83-15.17l-1.7-.59L112,302.69c-9.74,8.37-26,13.4-43.54,13.4s-33.8-5-43.54-13.4l-1.38-1.18-1.7.59c-11,4-29,15-29.29,15.17-.85.32-21,7.45-25.5,27.78-2.48,11.18-3.66,32.76-4.31,36.09V438.2H171.94V381.14C171.16,377.87,169.92,356.23,167.43,345.05Z"></path> <path class="cls-12" d="M102.53,257.54l-1.62-20.26C72,251.85,36.27,237,36.27,237L34.2,256s.45,11.07,1.29,12.6,10.23,17.8,25.4,20.12H75.3s9.27.46,24-16.12A141.7,141.7,0,0,0,102.53,257.54Z"></path> <line class="cls-12" x1="100.91" y1="237.28" x2="108.03" y2="230.6"></line> <line class="cls-12" x1="36.27" y1="237.02" x2="30.17" y2="231.51"></line> <line class="cls-12" x1="34.2" y1="256.04" x2="54.64" y2="270.2"></line> <path class="cls-14" d="M198.94,372.35c-.45-.15,48.91-51.61,43.65-53.74-1.22-.46-7.07-1.07-8.74-1.68a95.62,95.62,0,0,1-10.45-4.27,3.11,3.11,0,0,1-1.6-2.75l-.23-24.25-28.93,7.48-28.21-7.4-.23,24.4a3.1,3.1,0,0,1-1.44,2.67c-2.6,1.6-13.58,3.36-17.24,4.73-1,.38-1.91.76-2.75,1.07C137.59,320.67,199.94,372.66,198.94,372.35Z"></path> <path class="cls-14" d="M247.4,218.74c-2.29,0-4.05,2.59-4.73,3.74v.07l-.54,1.15-1.7-30.12-10.88-22.8-31.64-12.66H187.46L155.89,170.7l-9.2,22.8-3.38,30.12-.54-1.14v-.08c-.68-1.14-2.44-3.73-4.73-3.73-.91,0-2.66.45-3.5,3.35-1.07,3.81.84,15.56,1.52,17.46h0l6.41,16.25c.23.61,2.44,5.87,6.56,5.87a2.66,2.66,0,0,0,.83-.08c.16.46.23,1,.39,1.45,1.37,5.41,2.44,10,3.12,12.81.69,3,1.91-10.78,3.51-8.26,1.91,3,5.19,4.16,9.61,9.73,8.23,10.29,18.45,3.49,18.45,3.49h15.79c.38,0,3.88,7.13,12.19-3.16,4.43-5.57,6.68-5.57,8.59-8.62,1.6-2.52,10,9.8,10.71,6.82.69-2.82,1.76-7.4,3.13-12.81.15-.46.23-1,.38-1.45a3,3,0,0,0,.84.08h0c4.12,0,6.33-5.26,6.56-5.87l6.33-16.09c.76-1.91,2.59-13.65,1.52-17.47C250,219.2,248.31,218.74,247.4,218.74Z"></path> <path class="cls-10" d="M232.07,163s-7.63-17.31-19.75-19-41.33-2.75-52.54,7.32-18.3,17.69-17.92,26.46l-.35,42,6.58,16.35s.1-30.65,2.46-36.29,6-16.24,18.91-16.24S215.6,184.65,222,179a44.53,44.53,0,0,1,13.88,25.24,162.45,162.45,0,0,1,2.35,31.48s3.9-2.42,5.81-16.61c1.68-12.58,2.14-38.58-1.91-45.9A25.6,25.6,0,0,0,232.07,163Z"></path> <path class="cls-14" d="M180.67,229.25a20.27,20.27,0,0,0-22.11,0"></path> <path class="cls-14" d="M226.81,229.25a20.29,20.29,0,0,0-22.12,0"></path> <path class="cls-11" d="M308.19,368.56c-5.18-23.72-28.74-32.11-29.74-32.41-.38-.16-18.47-13-31.28-17.7l-2-.68-1.6,1.37c-11.36,9.76-30.35,15.63-50.78,15.63S153.37,328.9,142,319.14l-1.6-1.37-2,.68c-12.89,4.66-33.87,17.54-34.17,17.7-1,.38-24.56,8.69-29.74,32.41-2.9,13-4.27,38.2-5,42.09V477.2h244V410.65C312.54,406.84,311.09,381.6,308.19,368.56Z"></path> <path class="cls-12" d="M232.49,266.48l-1.89-23.63c-33.67,17-75.39-.3-75.39-.3l-2.42,22.19s.52,12.9,1.51,14.68,11.93,20.77,29.63,23.48h16.8s10.82.54,28-18.81A163.17,163.17,0,0,0,232.49,266.48Z"></path> <line class="cls-12" x1="230.6" y1="242.85" x2="238.9" y2="235.06"></line> <line class="cls-12" x1="155.21" y1="242.55" x2="148.09" y2="236.12"></line> <line class="cls-12" x1="152.79" y1="264.74" x2="176.63" y2="281.25"></line> <path class="cls-14" d="M388.56,348.31c-.39-.13,41.93-44.25,37.42-46.08-1.05-.39-6.06-.92-7.5-1.44a80.64,80.64,0,0,1-9-3.66,2.66,2.66,0,0,1-1.37-2.35L408,274l-24.79,6.4L359,274.05,358.78,295a2.65,2.65,0,0,1-1.25,2.29c-2.22,1.37-11.64,2.88-14.78,4.05-.85.33-1.63.66-2.35.92C336,304,389.41,348.57,388.56,348.31Z"></path> <path class="cls-14" d="M430.1,216.61c-2,0-3.47,2.22-4.05,3.2v.07l-.46,1L424.13,195l-9.33-19.55-27.13-10.85h-9l-27.06,10.78L343.76,195l-2.9,25.82-.46-1v-.06c-.59-1-2.09-3.2-4-3.2-.79,0-2.29.39-3,2.87-.92,3.27.72,13.34,1.31,15h0l5.49,13.93c.19.52,2.09,5,5.62,5a2.69,2.69,0,0,0,.72-.06c.13.39.2.85.33,1.24,1.17,4.64,2.09,8.56,2.68,11s1.63-9.24,3-7.08c1.63,2.55,4.44,3.57,8.23,8.34,7.06,8.83,15.82,3,15.82,3h13.54c.32,0,3.33,6.11,10.45-2.72,3.79-4.77,5.73-4.77,7.36-7.39,1.38-2.15,8.6,8.4,9.19,5.85s1.5-6.34,2.68-11c.13-.39.2-.85.33-1.24a2.88,2.88,0,0,0,.72.06h0c3.53,0,5.42-4.51,5.62-5l5.42-13.8c.66-1.63,2.23-11.7,1.31-15C432.32,217,430.88,216.61,430.1,216.61Z"></path> <path class="cls-10" d="M417,168.82S410.42,154,400,152.54s-35.43-2.35-45,6.28S339.29,174,339.62,181.5l-.3,36,5.64,14s.08-26.28,2.11-31.11,5.16-13.93,16.21-13.93,39.56.92,45.05-3.92a38.17,38.17,0,0,1,11.9,21.64,138.82,138.82,0,0,1,2,27s3.35-2.07,5-14.23c1.44-10.79,1.83-33.08-1.63-39.36A21.94,21.94,0,0,0,417,168.82Z"></path> <path class="cls-14" d="M372.89,225.62a17.4,17.4,0,0,0-19,0"></path> <path class="cls-14" d="M412.45,225.62a16,16,0,0,0-9.48-2.81,15.82,15.82,0,0,0-9.48,2.81"></path> <path class="cls-11" d="M482.22,345.05c-4.44-20.33-24.64-27.52-25.49-27.78-.33-.13-15.84-11.18-26.83-15.17l-1.7-.59-1.37,1.18c-9.74,8.37-26,13.4-43.54,13.4s-33.8-5-43.54-13.4l-1.38-1.18-1.7.59c-11.05,4-29,15-29.29,15.17-.85.32-21.05,7.45-25.5,27.78-2.48,11.18-3.66,32.76-4.31,36.09V438.2H486.73V381.14C486,377.87,484.71,356.23,482.22,345.05Z"></path> <path class="cls-12" d="M417.32,257.54l-1.62-20.26c-28.87,14.57-64.64-.26-64.64-.26L349,256s.45,11.07,1.29,12.6,10.23,17.8,25.4,20.12h14.41s9.27.46,24-16.12A139.07,139.07,0,0,0,417.32,257.54Z"></path> <line class="cls-12" x1="415.7" y1="237.28" x2="422.82" y2="230.6"></line> <line class="cls-12" x1="351.06" y1="237.02" x2="344.96" y2="231.51"></line> <line class="cls-12" x1="348.99" y1="256.04" x2="369.43" y2="270.2"></line> </g> </svg> 