<?xml version="1.0" encoding="UTF-8"?> <svg xmlns="http://www.w3.org/2000/svg" xmlns:xlink="http://www.w3.org/1999/xlink" id="Слой_1" data-name="Слой 1" width="157.26mm" height="157.26mm" viewBox="0 0 445.78 445.78"> <defs> <style>.cls-1,.cls-9{fill:none;}.cls-2{fill:#d5e6c4;}.cls-3,.cls-8{fill:#fff;}.cls-4{fill:#005063;}.cls-5{fill:#5eb030;}.cls-6{fill:#eb5848;}.cls-7{clip-path:url(#clip-path);}.cls-8,.cls-9{stroke:#5eb030;stroke-miterlimit:10;stroke-width:6px;}</style> <clipPath id="clip-path"> <circle class="cls-1" cx="222.47" cy="223.11" r="223.31"></circle> </clipPath> </defs> <title>1Монтажная область 22 копия</title> <circle class="cls-2" cx="222.47" cy="223.11" r="223.31"></circle> <path class="cls-3" d="M303.47,170.06c4.75-12.83,6.49-24.87,5.22-36-9.14.54-43-2.35-57.59,2.35-9.44,3-18.12,21.11-18.12,21.11S212.85,146,206,169.32c-4.29,14.66,1.44,22.92,1.44,22.92s-23,19.3-30.63,25.63c-2.39,2-5.95,4.51-9,6.58a6.08,6.08,0,0,1-.29.85l-.15.32-25.26,44.95a154.21,154.21,0,0,0,18,15.94c5.19,3.33,11.79,7.31,20.22,12.06,5.41,3.06,10.83,6,15.83,8.67A152.18,152.18,0,0,0,212.33,313l-3.62-14.11L227.08,259l27.59,14.34A12.68,12.68,0,0,0,270,265.14l.13-.37,7-10.71-19.7-10.45,2.84-3c.33-.36,8.38-8.77,23.1-6a9.18,9.18,0,0,0,5.67-.38l4.64-20h12.11l.44.13a2.19,2.19,0,0,0,1.9-.35,3.29,3.29,0,0,0,1.32-1.61l-6.21-41.6Z"></path> <path class="cls-4" d="M276.38,79.48a104,104,0,0,0-13.51-6.12C267.12,75.21,271.69,77.29,276.38,79.48Z"></path> <path class="cls-5" d="M150.8,193.6a25.67,25.67,0,0,0,1,2.92c-3.39-13.59-6.32-30-6.29-46.31C144.42,162.08,145.78,174.7,150.8,193.6Z"></path> <path class="cls-5" d="M160.58,224.78,136.86,267c.83-.49,1.28-.74,1.28-.74,1.33,1.49,2.67,2.92,4,4.32l25.26-44.95.15-.32a6.08,6.08,0,0,0,.29-.85c-3.24,2.2-5.88,3.9-5.88,3.9S161.45,227.08,160.58,224.78Z"></path> <path class="cls-5" d="M309.73,171.5c5-13.94,6.71-27.37,5-39.78a33.5,33.5,0,0,1-4,2,7.46,7.46,0,0,1-2,.31c1.27,11.14-.47,23.18-5.22,36l-.28.77,6.21,41.6a3.29,3.29,0,0,1-1.32,1.61,2.19,2.19,0,0,1-1.9.35l-.44-.13H293.63l-4.64,20a9.18,9.18,0,0,1-5.67.38c-14.72-2.79-22.77,5.62-23.1,6l-2.84,3,19.7,10.45-7,10.71-.13.37a12.68,12.68,0,0,1-15.29,8.15L227.08,259,208.71,298.9,212.33,313c4.13,1.21,6.68,1.73,7,1.8l-3.93-15.31,14.63-31.81,22.23,11.55.3.09a19.06,19.06,0,0,0,23.25-11.73l10.38-15.9-17.6-9.34a21.15,21.15,0,0,1,13.5-1.51c7.77,1.46,11.53-2,11.94-2.44l.64-.65,4-17.13h6.19a8.87,8.87,0,0,0,8-2.26c2.14-2,3.24-4.69,2.83-6.94Z"></path> <path class="cls-5" d="M276.38,79.48c-4.69-2.19-9.26-4.27-13.51-6.12A165.08,165.08,0,0,0,246,66.86C197.67,52.47,161.48,80.49,149.24,122a100.72,100.72,0,0,0-3.7,28.24c0,16.27,2.9,32.72,6.29,46.31a263.8,263.8,0,0,0,8.75,28.26c.87,2.3,1.4,3.57,1.4,3.57s2.64-1.7,5.88-3.9c3-2.07,6.6-4.59,9-6.58,7.59-6.33,30.63-25.63,30.63-25.63S201.75,184,206,169.32C212.85,146,233,157.51,233,157.51s8.68-18.08,18.12-21.11c14.63-4.7,48.45-1.81,57.59-2.35a7.46,7.46,0,0,0,2-.31,33.5,33.5,0,0,0,4-2C329.8,122.84,329.4,106,329.4,106S301.28,91.14,276.38,79.48Z"></path> <path class="cls-5" d="M219.43,314.82h-.06c-.36-.07-2.91-.59-7-1.8a152.18,152.18,0,0,1-16.15-5.77c-5-2.67-10.42-5.61-15.83-8.67-8.43-4.75-15-8.73-20.22-12.06a154.21,154.21,0,0,1-18-15.94c-1.35-1.4-2.69-2.83-4-4.32,0,0-.45.25-1.28.74-9.37,5.47-67.74,41.39-86.44,97.09a223.2,223.2,0,0,0,215.71,77.5C260.78,383.37,219.43,314.82,219.43,314.82Z"></path> <path class="cls-6" d="M318.28,236.73l-13.78.12a3.56,3.56,0,0,0-.4,7.09,3.25,3.25,0,0,0,.44,0l13.77-.12a3.56,3.56,0,0,0,0-7.12Z"></path> <path class="cls-6" d="M318.29,259.44l-17.32-7a3.56,3.56,0,0,0-3.41,6.24l.38.2,17.32,7a3.56,3.56,0,0,0,3-6.44Z"></path> <path class="cls-6" d="M303.39,277.17l-10.48-10.72a3.56,3.56,0,0,0-5.86,4l.25.36,10.48,10.72a3.56,3.56,0,1,0,5.61-4.37Z"></path> <path class="cls-6" d="M206.31,255.62a9.46,9.46,0,1,0,9.46,9.45A9.45,9.45,0,0,0,206.31,255.62Z"></path> <path class="cls-6" d="M206.31,244.6a20.48,20.48,0,1,0,20.48,20.47A20.5,20.5,0,0,0,206.31,244.6Zm0,36.43a16,16,0,1,1,16-16A16,16,0,0,1,206.31,281Z"></path> <path class="cls-6" d="M206.31,234a31.08,31.08,0,1,0,31.08,31.07A31.11,31.11,0,0,0,206.31,234Zm0,58.28a27.21,27.21,0,1,1,27.21-27.21A27.23,27.23,0,0,1,206.31,292.28Z"></path> <g class="cls-7"> <path class="cls-8" d="M319,275.49s15-27,21.63-28c12.66-2,13.78,9.27,13.78,9.27,11.37-8,19.71,9.55,19.71,9.55,14.09-3.07,15.91,11.78,15.91,11.78,7.76-.91,9.39,11.49,9.39,11.49s-6.21,45.46-10,53.89-19.71,15.21-19.71,15.21l-7.62,79.06-65,39.12,27.56-132.61s-13.34-10.66-12.12-26.35S319,275.49,319,275.49s18.42-27.07,21.63-28,12.8.72,10.52,9.41S334.28,288,334.28,288s26.07,20.46,20,42.12"></path> <path class="cls-9" d="M393.26,278.54s-12-6-18.74,30.89c5.25,6.28,6.49,7.18,14.7-6"></path> <path class="cls-9" d="M374.1,266.29s-6.16,2-12.62,30.81c0,0-3.86,12.8,2.21,14.94s10.83-2.61,10.83-2.61"></path> <path class="cls-9" d="M354.39,256.74A93.81,93.81,0,0,0,344,296.57l7.32,12.11s6.74,4,8.82-.23"></path> </g> </svg> 