<?xml version="1.0" encoding="UTF-8"?> <svg xmlns="http://www.w3.org/2000/svg" id="Слой_1" data-name="Слой 1" viewBox="0 0 445.78 445.78"> <defs> <style>.cls-1,.cls-4{fill:#5eb030;}.cls-1{opacity:0.3;}.cls-2{fill:#fff;}.cls-3{fill:#005063;}.cls-5{fill:#eb5848;}</style> </defs> <title>1Монтажная область 22</title> <path class="cls-1" d="M222.89,0C99.79,0,0,99.79,0,222.89A222,222,0,0,0,50.42,364.08c18.7-55.7,77.07-91.62,86.44-97.09l23.72-42.21a263.8,263.8,0,0,1-8.75-28.26,25.67,25.67,0,0,1-1-2.92c-5-18.9-6.38-31.52-5.26-43.39a100.72,100.72,0,0,1,3.7-28.24c12.24-41.48,48.43-69.5,96.79-55.11a165.08,165.08,0,0,1,16.84,6.5,104,104,0,0,1,13.51,6.12c24.9,11.66,53,26.55,53,26.55s.4,16.81-14.65,25.69c1.69,12.41,0,25.84-5,39.78l6,39.93c.41,2.25-.69,5-2.83,6.94a8.87,8.87,0,0,1-8,2.26h-6.19l-4,17.13-.64.65c-.41.4-4.17,3.9-11.94,2.44a21.15,21.15,0,0,0-13.5,1.51l17.6,9.34-10.38,15.9a19.06,19.06,0,0,1-23.25,11.73l-.3-.09-22.23-11.55L215.44,299.5l3.93,15.31h.06s41.35,68.55,46.7,126.76a222,222,0,0,0,39.14-11.52l12.15-53.8-1.67-26.37a50.06,50.06,0,0,1,6.82-26.23l20.09-39.06,2.16.22a11.22,11.22,0,0,1,7.83,4.88c2.53,3.8,2.77,9.09.73,15.74l-.18.46c-2.3,4.7-5.95,12.41-6.61,14.39a11.35,11.35,0,0,0-.18,6.32c3.71-4.11,11.2-13.88,16.81-30.58,2.17-6.46.44-27.23-.41-34.69l-.05-.45.07-.44a21.6,21.6,0,0,1,2.31-6.33c2.51-4.46,6.39-6.91,10.94-6.91h2.64l10.61,54.69-33.68,85.49-.34,14.8a222.57,222.57,0,0,0,90.47-179.3C445.78,99.79,346,0,222.89,0Zm91.16,290.83a3.56,3.56,0,0,1-5-.37L290.77,269.3a3.56,3.56,0,0,1,5.39-4.65l18.26,21.16A3.55,3.55,0,0,1,314.05,290.83Zm18.38-26.32a3.56,3.56,0,0,1-3.32,2.27,3.38,3.38,0,0,1-1.28-.24l-23-8.9a3.56,3.56,0,0,1,2.57-6.64l23,8.91A3.56,3.56,0,0,1,332.43,264.51Zm-.13-25-27.75,3.35a3.11,3.11,0,0,1-.43,0,3.56,3.56,0,0,1-.42-7.09l27.75-3.36a3.56,3.56,0,0,1,.85,7.07Z"></path> <path class="cls-2" d="M303.47,170.06c4.75-12.83,6.49-24.87,5.22-36-9.14.54-43-2.35-57.59,2.35-9.44,3-18.12,21.11-18.12,21.11S212.85,146,206,169.32c-4.29,14.66,1.44,22.92,1.44,22.92s-23,19.3-30.63,25.63c-2.39,2-5.95,4.51-9,6.58a6.08,6.08,0,0,1-.29.85l-.15.32-25.26,44.95a154.21,154.21,0,0,0,18,15.94c5.19,3.33,11.79,7.31,20.22,12.06,5.41,3.06,10.83,6,15.83,8.67A152.18,152.18,0,0,0,212.33,313l-3.62-14.11L227.08,259l27.59,14.34A12.68,12.68,0,0,0,270,265.14l.13-.37,7-10.71-19.7-10.45,2.84-3c.33-.36,8.38-8.77,23.1-6a9.18,9.18,0,0,0,5.67-.38l4.64-20h12.11l.44.13a2.19,2.19,0,0,0,1.9-.35,3.29,3.29,0,0,0,1.32-1.61l-6.21-41.6Z"></path> <path class="cls-3" d="M276.38,79.48a104,104,0,0,0-13.51-6.12C267.12,75.21,271.69,77.29,276.38,79.48Z"></path> <path class="cls-4" d="M150.8,193.6a25.67,25.67,0,0,0,1,2.92c-3.39-13.59-6.32-30-6.29-46.31C144.42,162.08,145.78,174.7,150.8,193.6Z"></path> <path class="cls-4" d="M160.58,224.78,136.86,267c.83-.49,1.28-.74,1.28-.74,1.33,1.49,2.67,2.92,4,4.32l25.26-44.95.15-.32a6.08,6.08,0,0,0,.29-.85c-3.24,2.2-5.88,3.9-5.88,3.9S161.45,227.08,160.58,224.78Z"></path> <path class="cls-4" d="M309.73,171.5c5-13.94,6.71-27.37,5-39.78a33.5,33.5,0,0,1-4,2,7.46,7.46,0,0,1-2,.31c1.27,11.14-.47,23.18-5.22,36l-.28.77,6.21,41.6a3.29,3.29,0,0,1-1.32,1.61,2.19,2.19,0,0,1-1.9.35l-.44-.13H293.63l-4.64,20a9.18,9.18,0,0,1-5.67.38c-14.72-2.79-22.77,5.62-23.1,6l-2.84,3,19.7,10.45-7,10.71-.13.37a12.68,12.68,0,0,1-15.29,8.15L227.08,259,208.71,298.9,212.33,313c4.13,1.21,6.68,1.73,7,1.8l-3.93-15.31,14.63-31.81,22.23,11.55.3.09a19.06,19.06,0,0,0,23.25-11.73l10.38-15.9-17.6-9.34a21.15,21.15,0,0,1,13.5-1.51c7.77,1.46,11.53-2,11.94-2.44l.64-.65,4-17.13h6.19a8.87,8.87,0,0,0,8-2.26c2.14-2,3.24-4.69,2.83-6.94Z"></path> <path class="cls-4" d="M276.38,79.48c-4.69-2.19-9.26-4.27-13.51-6.12A165.08,165.08,0,0,0,246,66.86C197.67,52.47,161.48,80.49,149.24,122a100.72,100.72,0,0,0-3.7,28.24c0,16.27,2.9,32.72,6.29,46.31a263.8,263.8,0,0,0,8.75,28.26c.87,2.3,1.4,3.57,1.4,3.57s2.64-1.7,5.88-3.9c3-2.07,6.6-4.59,9-6.58,7.59-6.33,30.63-25.63,30.63-25.63S201.75,184,206,169.32C212.85,146,233,157.51,233,157.51s8.68-18.08,18.12-21.11c14.63-4.7,48.45-1.81,57.59-2.35a7.46,7.46,0,0,0,2-.31,33.5,33.5,0,0,0,4-2C329.8,122.84,329.4,106,329.4,106S301.28,91.14,276.38,79.48Z"></path> <path class="cls-4" d="M219.43,314.82h-.06c-.36-.07-2.91-.59-7-1.8a152.18,152.18,0,0,1-16.15-5.77c-5-2.67-10.42-5.61-15.83-8.67-8.43-4.75-15-8.73-20.22-12.06a154.21,154.21,0,0,1-18-15.94c-1.35-1.4-2.69-2.83-4-4.32,0,0-.45.25-1.28.74-9.37,5.47-67.74,41.39-86.44,97.09a223.2,223.2,0,0,0,215.71,77.5C260.78,383.37,219.43,314.82,219.43,314.82Z"></path> <path class="cls-2" d="M369.19,261.13c.51,4.59,2.95,28.36.07,36.93-8.32,24.78-20.48,35.28-21,35.72l-1.76,1.5-2-1.22c-5.63-3.48-5.47-11.35-4-15.79.95-2.88,5.84-12.95,6.81-14.94,1.35-4.49,1.36-8,0-10a4.8,4.8,0,0,0-1.33-1.36l-18,35a43.73,43.73,0,0,0-5.94,22.65l1.73,27.22L312.48,427a222.09,222.09,0,0,0,36.35-20.23l.47-20.69,33.42-84.82-9.14-47.1C370.64,255.74,369.49,259.84,369.19,261.13Z"></path> <path class="cls-4" d="M376.1,247.21h0c-4.55,0-8.43,2.45-10.94,6.91a21.6,21.6,0,0,0-2.31,6.33l-.07.44.05.45c.85,7.46,2.58,28.23.41,34.69-5.61,16.7-13.1,26.47-16.81,30.58a11.35,11.35,0,0,1,.18-6.32c.66-2,4.31-9.69,6.61-14.39l.18-.46c2-6.65,1.8-11.94-.73-15.74a11.22,11.22,0,0,0-7.83-4.88l-2.16-.22-20.09,39.06a50.06,50.06,0,0,0-6.82,26.23l1.67,26.37-12.15,53.8c2.42-1,4.83-2,7.21-3l11.36-50.26-1.73-27.22a43.73,43.73,0,0,1,5.94-22.65l18-35a4.8,4.8,0,0,1,1.33,1.36c1.33,2.08,1.32,5.55,0,10-1,2-5.86,12.06-6.81,14.94-1.49,4.44-1.65,12.31,4,15.79l2,1.22,1.76-1.5c.52-.44,12.68-10.94,21-35.72,2.88-8.57.44-32.34-.07-36.93.3-1.29,1.45-5.39,4.39-6.94l9.14,47.1L349.3,386.11l-.47,20.69q3.29-2.25,6.48-4.61l.34-14.8,33.68-85.49-10.61-54.69Z"></path> <path class="cls-5" d="M331.45,232.45l-27.75,3.36a3.56,3.56,0,0,0,.42,7.09,3.11,3.11,0,0,0,.43,0l27.75-3.35a3.56,3.56,0,0,0-.85-7.07Z"></path> <path class="cls-5" d="M330.4,259.91l-23-8.91a3.56,3.56,0,0,0-2.57,6.64l23,8.9a3.38,3.38,0,0,0,1.28.24,3.56,3.56,0,0,0,1.29-6.87Z"></path> <path class="cls-5" d="M296.16,264.65a3.56,3.56,0,0,0-5.39,4.65L309,290.46a3.56,3.56,0,1,0,5.38-4.65Z"></path> </svg> 