<?xml version="1.0" encoding="UTF-8"?> <svg xmlns="http://www.w3.org/2000/svg" width="150" height="150" viewBox="0 0 150 150" fill="none"> <g clip-path="url(#clip0)"> <circle cx="75" cy="75" r="75" fill="#D5E6C8"></circle> <path d="M37.1636 120.52L16.8043 136.209L7.20024e-05 110.5L32.2058 101.742L49.3973 91.8168C52.5936 89.9715 56.2028 88.9599 59.8926 88.8752L83.7174 88.3284C84.9949 88.2991 85.9813 89.4884 85.3373 90.5921C82.444 95.5507 74.1705 96.132 69.9089 95.7126C67.1735 96.6361 62.3376 98.9035 64.8772 100.585C67.4169 102.266 81.3937 100.885 88.0647 99.9848L100.527 92.79C103.819 90.889 107.779 90.5247 111.363 91.793L111.451 91.8241C112.182 92.0829 112.353 93.0395 111.757 93.5356L94.7062 107.72C91.5747 110.326 87.8075 112.052 83.7898 112.724L37.1636 120.52Z" fill="white" stroke="#5EB030" stroke-width="3"></path> <circle cx="77.9998" cy="60" r="19" fill="#EB5848"></circle> <path d="M72.5998 67.58H69.8998V65.42H72.5998V62.9H69.8998V60.44H72.5998V50H79.1998C80.4398 50 81.5198 50.16 82.4398 50.48C83.3798 50.8 84.1598 51.25 84.7798 51.83C85.4198 52.39 85.8998 53.07 86.2198 53.87C86.5398 54.65 86.6998 55.51 86.6998 56.45C86.6998 57.39 86.5398 58.26 86.2198 59.06C85.8998 59.84 85.4198 60.52 84.7798 61.1C84.1598 61.66 83.3798 62.1 82.4398 62.42C81.5198 62.74 80.4398 62.9 79.1998 62.9H75.4198V65.42H82.4998V67.58H75.4198V71H72.5998V67.58ZM79.0498 60.44C80.7698 60.44 81.9998 60.08 82.7398 59.36C83.4998 58.64 83.8798 57.67 83.8798 56.45C83.8798 55.23 83.4998 54.26 82.7398 53.54C81.9998 52.82 80.7698 52.46 79.0498 52.46H75.4198V60.44H79.0498Z" fill="white"></path> </g> <defs> <clipPath id="clip0"> <rect width="150" height="150" rx="75" fill="white"></rect> </clipPath> </defs> </svg> 