<?xml version="1.0" encoding="UTF-8"?> <svg xmlns="http://www.w3.org/2000/svg" width="150" height="150" viewBox="0 0 150 150" fill="none"> <circle cx="75" cy="75" r="75" fill="#D5E6C8"></circle> <path d="M52 68.5V67H50.5H49.3541L39.6462 62.1457L39.646 62.1456C37.1053 60.8755 35.5 58.2778 35.5 55.438V47.5C35.5 43.3575 38.8575 40 43 40H44.5V38.5V32.5V31H43C33.8871 31 26.5 38.3871 26.5 47.5V56.2297C26.5 62.4802 30.0313 68.1923 35.6208 70.9878L35.621 70.9879L48.3292 77.3417L48.6459 77.5H49H50.5H52V76V68.5Z" fill="white" stroke="#5EB030" stroke-width="3"></path> <path d="M79 31H77.5V32.5V38.5V40H79C83.1425 40 86.5 43.3575 86.5 47.5V55.438C86.5 58.279 84.8949 60.8757 82.3535 62.1473L72.646 67H71.5H70V68.5V76V77.5H71.5H73H73.3541L73.6708 77.3417L86.379 70.9879L86.3792 70.9878C91.9688 68.1922 95.5 62.4786 95.5 56.2297V47.5C95.5 38.3871 88.1129 31 79 31Z" fill="white" stroke="#5EB030" stroke-width="3"></path> <path d="M112.5 94.7156V94.2156H112H109H108.5V94.7156V99.5H106.5V94.7156V94.2156H106H103H102.5V94.7156V103V103.5H103H105.5V110.5C105.5 114.359 102.359 117.5 98.5 117.5H70C66.1409 117.5 63 114.359 63 110.5V91.5H65.5H66V91V82.4182C66 80.5178 67.3531 78.8679 69.2147 78.4957L73.0979 77.7201L73.5 77.6397V77.2297V67V66.5H73H49H48.5V67V77.2297V77.6397L48.902 77.72L52.7839 78.4957L52.7839 78.4957C54.6469 78.8679 56 80.5193 56 82.4182V91V91.5H56.5H59V110.5C59 116.564 63.934 121.5 70 121.5H98.5C104.566 121.5 109.5 116.564 109.5 110.5V103.5H112H112.5V103V94.7156Z" fill="#5EB030" stroke="#5EB030"></path> <path d="M51.3333 42H42V29H51.3333C55.0091 29 58 31.9161 58 35.5C58 39.0839 55.0091 42 51.3333 42Z" fill="#5EB030"></path> <path d="M107.5 98C115.508 98 122 91.5083 122 83.5C122 75.4917 115.508 69 107.5 69C99.4917 69 93 75.4917 93 83.5C93 91.5083 99.4917 98 107.5 98Z" fill="white" stroke="#5EB030" stroke-width="2"></path> <path d="M107.5 89.5C104.191 89.5 101.5 86.8091 101.5 83.5C101.5 80.1909 104.191 77.5 107.5 77.5C110.809 77.5 113.5 80.1909 113.5 83.5C113.5 86.8091 110.809 89.5 107.5 89.5ZM107.5 80.5C105.845 80.5 104.5 81.8455 104.5 83.5C104.5 85.1545 105.845 86.5 107.5 86.5C109.155 86.5 110.5 85.1545 110.5 83.5C110.5 81.8455 109.155 80.5 107.5 80.5Z" fill="#5EB030"></path> <path d="M80 42H70.6667C66.9909 42 64 39.0839 64 35.5C64 31.9161 66.9909 29 70.6667 29H80V42Z" fill="#5EB030"></path> </svg> 