<?xml version="1.0" encoding="UTF-8"?> <svg xmlns="http://www.w3.org/2000/svg" width="150" height="150" viewBox="0 0 150 150" fill="none"> <circle cx="75" cy="75" r="75" fill="#D5E6C8"></circle> <path d="M92.2926 29.7612L89.4283 39.7862L100.807 46.1418L104.242 33.0333C105.116 29.6973 103.097 26.2896 99.7515 25.4532C96.5103 24.6429 93.2104 26.5488 92.2926 29.7612Z" fill="#5EB030"></path> <path d="M84.0979 39.7862V39.4831C84.0979 35.0648 80.5162 31.4831 76.0979 31.4831H73.4414C69.0231 31.4831 65.4414 35.0648 65.4414 39.4831V39.7862M89.4283 39.7862L92.2926 29.7612C93.2104 26.5488 96.5103 24.6429 99.7515 25.4532V25.4532C103.097 26.2896 105.116 29.6973 104.242 33.0333L100.807 46.1418L89.4283 39.7862Z" stroke="#5EB030" stroke-width="3"></path> <path d="M57.5544 29.7612L60.4187 39.7862L49.0403 46.1418L45.6055 33.0333C44.7313 29.6973 46.7498 26.2896 50.0955 25.4532C53.3367 24.6429 56.6366 26.5488 57.5544 29.7612Z" fill="#5EB030" stroke="#5EB030" stroke-width="3"></path> <path d="M60.325 39.5812H88.8047C97.6413 39.5812 104.805 46.7446 104.805 55.5812V61.2104V117.897H95.8865H54.1657H44.325V61.2104V55.5812C44.325 46.7446 51.4884 39.5812 60.325 39.5812Z" fill="white"></path> <path d="M54.1657 117.897H44.325V61.2104M54.1657 117.897V92.9879H95.8865V117.897M54.1657 117.897H95.8865M95.8865 117.897H104.805V61.2104M61.4438 99.8559H83.4831M87.8909 99.8559H83.4831M83.4831 99.8559V104.059M44.325 61.2104V55.5812C44.325 46.7446 51.4884 39.5812 60.325 39.5812H88.8047C97.6413 39.5812 104.805 46.7446 104.805 55.5812V61.2104M44.325 61.2104L74.5648 69.5114L104.805 61.2104" stroke="#5EB030" stroke-width="3"></path> <path d="M94.5001 127C95.5626 128 97 126.5 97 126.5C97 126.5 98.0462 126.792 99 127C100.538 127.336 102.5 126 102.5 126C102.5 126 104.408 126.968 105.5 126.5C109 125 113.076 108.734 106 106.5C103.766 105.794 102 107.5 99.5 107.5C97 107.5 91.0001 103 88.5001 111C86.5001 117.4 93.4376 126 94.5001 127Z" fill="#EB5848"></path> <path d="M104.62 117.917C104.62 117.917 105.185 112.827 104.62 110" stroke="white" stroke-width="2"></path> <circle cx="104.824" cy="121.473" r="1.39354" transform="rotate(-45 104.824 121.473)" fill="white"></circle> </svg> 