<?xml version="1.0" encoding="UTF-8"?> <svg xmlns="http://www.w3.org/2000/svg" width="490" height="490" viewBox="0 0 490 490" fill="none"> <path d="M95.8695 223.695C89.9865 223.706 85.209 218.945 85.198 213.062C85.193 210.226 86.3195 207.504 88.3277 205.501L194.85 98.9802C199.081 94.8937 205.825 95.0106 209.912 99.2418C213.899 103.37 213.899 109.914 209.912 114.042L103.39 220.564C101.397 222.563 98.6926 223.689 95.8695 223.695Z" fill="#5EA430"></path> <path d="M394.13 223.695C391.303 223.7 388.59 222.582 386.589 220.585L280.067 114.064C275.98 109.832 276.097 103.089 280.328 99.0012C284.457 95.0146 291.001 95.0146 295.128 99.0012L401.65 205.523C405.804 209.689 405.794 216.434 401.626 220.588C399.636 222.572 396.942 223.689 394.13 223.695Z" fill="#5EA430"></path> <path d="M53.2605 202.392H436.739C466.153 202.392 489.999 226.237 489.999 255.652V383.478C489.999 412.893 466.153 436.739 436.739 436.739H53.2605C23.8455 436.739 0 412.893 0 383.478V255.652C0 226.237 23.8455 202.392 53.2605 202.392Z" fill="#C9DAB8"></path> <path d="M53.2605 394.131C47.3775 394.131 42.608 389.361 42.608 383.478V255.652C42.608 249.769 47.3775 245 53.2605 245H117.174C123.057 245 127.826 249.769 127.826 255.652C127.826 261.535 123.057 266.305 117.174 266.305H63.913V383.478C63.913 389.361 59.1435 394.131 53.2605 394.131Z" fill="#5EA430"></path> <path d="M95.8695 330.218H53.2605C47.3775 330.218 42.608 325.448 42.608 319.565C42.608 313.682 47.3775 308.913 53.2605 308.913H95.8695C101.753 308.913 106.522 313.682 106.522 319.565C106.522 325.448 101.753 330.218 95.8695 330.218Z" fill="#5EA430"></path> <path d="M223.696 394.13C220.868 394.135 218.155 393.017 216.154 391.02L170.435 345.279V383.478C170.435 389.361 165.666 394.13 159.783 394.13C153.9 394.13 149.13 389.361 149.13 383.478V255.652C149.13 249.769 153.9 245 159.783 245H191.739C215.271 245 234.348 264.077 234.348 287.609C234.348 311.14 215.271 330.218 191.739 330.218H185.497L231.215 375.936C235.381 380.091 235.389 386.835 231.234 391.001C229.237 393.004 226.525 394.13 223.696 394.13ZM170.435 308.913H191.739C203.505 308.913 213.043 299.374 213.043 287.609C213.043 275.843 203.505 266.305 191.739 266.305H170.435V308.913Z" fill="#5EA430"></path> <path d="M330.218 394.131H266.305C260.422 394.131 255.652 389.361 255.652 383.478V255.652C255.652 249.769 260.422 245 266.305 245H330.218C336.101 245 340.87 249.769 340.87 255.652C340.87 261.535 336.101 266.305 330.218 266.305H276.957V372.827H330.218C336.101 372.827 340.87 377.596 340.87 383.479C340.869 389.361 336.101 394.131 330.218 394.131Z" fill="#5EA430"></path> <path d="M308.913 330.218H266.303C260.421 330.218 255.651 325.448 255.651 319.565C255.651 313.682 260.421 308.913 266.303 308.913H308.913C314.796 308.913 319.565 313.682 319.565 319.565C319.565 325.448 314.796 330.218 308.913 330.218Z" fill="#5EA430"></path> <path d="M436.739 394.131H372.825C366.943 394.131 362.173 389.361 362.173 383.478V255.652C362.173 249.769 366.943 245 372.825 245H436.739C442.622 245 447.391 249.769 447.391 255.652C447.391 261.535 442.622 266.305 436.739 266.305H383.478V372.827H436.739C442.622 372.827 447.391 377.596 447.391 383.479C447.391 389.361 442.622 394.131 436.739 394.131Z" fill="#5EA430"></path> <path d="M415.435 330.218H372.826C366.943 330.218 362.173 325.448 362.173 319.565C362.173 313.682 366.943 308.913 372.826 308.913H415.435C421.318 308.913 426.087 313.682 426.087 319.565C426.087 325.448 421.318 330.218 415.435 330.218Z" fill="#5EA430"></path> <path d="M245 159.782C215.585 159.782 191.739 135.937 191.739 106.522C191.739 77.107 215.585 53.2615 245 53.2615C274.414 53.2615 298.26 77.107 298.26 106.522C298.26 135.937 274.415 159.782 245 159.782Z" fill="#C9DAB8"></path> </svg> 