<?xml version="1.0" encoding="UTF-8"?> <svg xmlns="http://www.w3.org/2000/svg" width="150" height="150" viewBox="0 0 150 150" fill="none"> <circle cx="75" cy="75" r="75" fill="#D5E6C8"></circle> <path d="M38.3403 61.9121L43.4113 56.8412L56.0886 69.5185L51.0177 74.5895L38.3403 61.9121Z" fill="#EB5848"></path> <path d="M76.3704 99.9501L81.4413 94.8791L94.1187 107.556L89.0477 112.627L76.3704 99.9501Z" fill="#EB5848"></path> <path d="M38.3367 107.553L51.014 94.8761L56.085 99.9471L43.4076 112.624L38.3367 107.553Z" fill="#EB5848"></path> <path d="M66.0552 107.861C78.9292 107.861 89.3657 97.4244 89.3657 84.5503C89.3657 71.6762 78.9292 61.2397 66.0552 61.2397C53.1811 61.2397 42.7446 71.6762 42.7446 84.5503C42.7446 97.4244 53.1811 107.861 66.0552 107.861Z" fill="#EB5848"></path> <path d="M62.6555 104.461H69.828V120.599H62.6555V104.461Z" fill="#EB5848"></path> <path d="M66.2418 125.978C70.2031 125.978 73.4143 123.57 73.4143 120.599C73.4143 117.628 70.2031 115.22 66.2418 115.22C62.2806 115.22 59.0693 117.628 59.0693 120.599C59.0693 123.57 62.2806 125.978 66.2418 125.978Z" fill="#EB5848"></path> <path d="M62.6555 48.8743H69.828V66.8055H62.6555V48.8743Z" fill="#EB5848"></path> <path d="M66.2418 54.2536C70.2031 54.2536 73.4143 51.8452 73.4143 48.8743C73.4143 45.9034 70.2031 43.4949 66.2418 43.4949C62.2806 43.4949 59.0693 45.9034 59.0693 48.8743C59.0693 51.8452 62.2806 54.2536 66.2418 54.2536Z" fill="#EB5848"></path> <path d="M95.3849 113.896C98.1855 111.096 98.7531 107.123 96.6526 105.022C94.5522 102.922 90.5791 103.489 87.7785 106.29C84.9779 109.091 84.4103 113.064 86.5107 115.164C88.6112 117.265 92.5843 116.697 95.3849 113.896Z" fill="#EB5848"></path> <path d="M44.6798 63.1798C47.4804 60.3792 48.048 56.4061 45.9475 54.3057C43.8471 52.2052 39.874 52.7728 37.0734 55.5734C34.2728 58.374 33.7052 62.3471 35.8056 64.4476C37.9061 66.548 41.8792 65.9804 44.6798 63.1798Z" fill="#EB5848"></path> <path d="M84.1729 81.1505H102.104V88.3229H84.1729V81.1505Z" fill="#EB5848"></path> <path d="M102.104 91.9092C105.075 91.9092 107.484 88.6979 107.484 84.7367C107.484 80.7754 105.075 77.5642 102.104 77.5642C99.1333 77.5642 96.7249 80.7754 96.7249 84.7367C96.7249 88.6979 99.1333 91.9092 102.104 91.9092Z" fill="#EB5848"></path> <path d="M30.3794 81.1505H48.3106V88.3229H30.3794V81.1505Z" fill="#EB5848"></path> <path d="M30.3794 91.9092C33.3503 91.9092 35.7587 88.6979 35.7587 84.7367C35.7587 80.7754 33.3503 77.5642 30.3794 77.5642C27.4084 77.5642 25 80.7754 25 84.7367C25 88.6979 27.4084 91.9092 30.3794 91.9092Z" fill="#EB5848"></path> <path d="M45.9419 115.158C48.0424 113.058 47.4748 109.085 44.6742 106.284C41.8736 103.484 37.9005 102.916 35.8 105.016C33.6996 107.117 34.2672 111.09 37.0678 113.891C39.8684 116.691 43.8415 117.259 45.9419 115.158Z" fill="#EB5848"></path> <path d="M59.0691 81.1504C61.0498 81.1504 62.6554 79.5448 62.6554 77.5642C62.6554 75.5836 61.0498 73.978 59.0691 73.978C57.0885 73.978 55.4829 75.5836 55.4829 77.5642C55.4829 79.5448 57.0885 81.1504 59.0691 81.1504Z" fill="#A83221"></path> <path d="M66.2417 97.2885C71.1933 97.2885 75.2073 95.6829 75.2073 93.7023C75.2073 91.7216 71.1933 90.116 66.2417 90.116C61.2902 90.116 57.2761 91.7216 57.2761 93.7023C57.2761 95.6829 61.2902 97.2885 66.2417 97.2885Z" fill="#A83221"></path> <path d="M80.9043 61.4286L105.675 36.6575L114.311 45.2929L89.5397 70.064L80.9043 61.4286Z" fill="white" stroke="#5EB030" stroke-width="3"></path> <path d="M107.471 36.3337L116.436 27.3696L123.607 34.5412L114.643 43.5053L107.471 36.3337Z" fill="#5EB030"></path> <path d="M66.2417 86.5298C65.2519 86.5298 64.4486 85.7283 64.4468 84.7385C64.4468 84.2633 64.6351 83.8061 64.9722 83.469L77.524 70.9171C78.2359 70.2286 79.3709 70.2483 80.0595 70.962C80.7301 71.6577 80.7301 72.7587 80.0595 73.4526L67.5076 86.0045C67.1723 86.3398 66.7169 86.5298 66.2417 86.5298V86.5298Z" fill="white"></path> <path d="M80.5867 73.978L77.0005 70.3918L80.5867 63.2193L87.7592 70.3918L80.5867 73.978Z" fill="#5EB030"></path> <path d="M118.242 48.8743C117.767 48.8743 117.31 48.6861 116.974 48.349L102.629 34.004C101.941 33.2921 101.961 32.1571 102.674 31.4685C103.37 30.7979 104.471 30.7979 105.165 31.4685L119.51 45.8135C120.209 46.5146 120.209 47.6497 119.51 48.349C119.173 48.6861 118.717 48.8743 118.242 48.8743Z" fill="#5EB030"></path> <path d="M87.5978 59.9738C87.2571 60.3055 86.7999 60.492 86.3247 60.4938C85.8495 60.4884 85.3941 60.3019 85.0516 59.9738C85.0516 59.9738 82.717 57.623 82.6667 57.5531L85.1771 55.0427C85.247 55.0929 87.5978 57.4276 87.5978 57.4276C88.2989 58.1323 88.3007 59.2709 87.5978 59.9738V59.9738Z" fill="#5EB030"></path> <path d="M92.7978 54.7737C92.0985 55.4695 90.9688 55.4695 90.2695 54.7737C90.2695 54.7737 87.9151 52.4176 87.8667 52.353L90.3771 49.8427C90.4506 49.8857 92.7978 52.2275 92.7978 52.2275C93.4935 52.9322 93.4917 54.0672 92.7978 54.7737Z" fill="#5EB030"></path> <path d="M97.998 49.5737C97.2987 50.2694 96.169 50.2694 95.4697 49.5737C95.4697 49.5737 93.1153 47.2176 93.0669 47.153L95.5773 44.6426C95.6508 44.6857 97.998 47.0275 97.998 47.0275C98.6991 47.7322 98.7009 48.8708 97.998 49.5737Z" fill="#5EB030"></path> <path d="M103.198 44.3557C102.527 45.0532 101.417 45.0765 100.718 44.4041C100.702 44.388 100.686 44.3718 100.67 44.3557C100.67 44.3557 98.3277 42.0085 98.2847 41.935L100.777 39.4426C100.851 39.4856 103.198 41.8274 103.198 41.8274C103.894 42.5267 103.894 43.6564 103.198 44.3557Z" fill="#5EB030"></path> <path d="M127.208 39.9088C126.733 39.9088 126.275 39.7205 125.94 39.3834L111.595 25.0384C110.906 24.3266 110.926 23.1915 111.64 22.503C112.336 21.8323 113.437 21.8323 114.13 22.503L128.475 36.8479C129.175 37.549 129.175 38.6841 128.475 39.3834C128.138 39.7205 127.683 39.9088 127.208 39.9088Z" fill="#5EB030"></path> </svg> 