<?xml version="1.0" encoding="UTF-8"?> <svg xmlns="http://www.w3.org/2000/svg" width="150" height="150" viewBox="0 0 150 150" fill="none"> <circle cx="75" cy="75" r="75" fill="#D5E6C8"></circle> <path d="M120 80.8095C120 91.746 102.542 102.476 93.1748 103.508C83.8072 102.476 66.3494 91.746 66.3494 80.8095C66.3494 67.8095 66.7752 50.4762 66.3494 40.9841C70.1816 39.746 82.4413 35 93.1748 35C103.908 35 116.168 39.746 120 40.9841C119.574 50.4762 120 67.8095 120 80.8095Z" fill="#EAF2E1" stroke="#5EB030" stroke-width="3"></path> <path d="M76.6665 60.5873C78.2485 63.2011 82.9808 66.8603 89.2538 60.5873" stroke="#5EB030" stroke-width="2"></path> <path d="M109.476 60.5873C107.894 63.2011 103.162 66.8603 96.889 60.5873" stroke="#5EB030" stroke-width="2"></path> <path d="M82.4446 84.1111V84.1111C88.6236 79.2648 97.3132 79.2648 103.492 84.1111V84.1111" stroke="#5EB030" stroke-width="2"></path> <path d="M85.3677 82.1008C90.836 91.5721 81.0821 109.594 73.4854 115.171C64.857 118.961 44.373 118.397 38.9048 108.926C32.4048 97.6678 24.1068 82.4438 18.9921 74.4364C21.6918 71.4481 29.936 61.208 39.2315 55.8413C48.5269 50.4745 61.5172 48.4549 65.455 47.611C69.8323 56.0442 78.8677 70.8424 85.3677 82.1008Z" fill="white" stroke="#5EB030" stroke-width="3"></path> <path d="M39.4606 89.2541C39.5238 86.1995 41.7924 80.6644 50.3615 82.9605" stroke="#5EB030" stroke-width="2"></path> <path d="M67.8747 72.8493C65.1977 71.3768 59.2698 70.5739 56.9737 79.143" stroke="#5EB030" stroke-width="2"></path> <path d="M52.4309 100.164V100.164C60.2052 101.271 67.7307 96.9264 70.6587 89.6399V89.6399" stroke="#5EB030" stroke-width="2"></path> </svg> 