<?xml version="1.0" encoding="UTF-8"?> <svg xmlns="http://www.w3.org/2000/svg" width="150" height="150" viewBox="0 0 150 150" fill="none"> <circle cx="75" cy="75" r="75" fill="#D5E6C8"></circle> <path d="M74.5 34L41.4836 62.4296V110H107.516V62.4296L74.5 34Z" fill="white" stroke="#5EB030" stroke-width="3"></path> <path d="M76.7273 84.1975H92C95.866 84.1975 99 87.3315 99 91.1975V102.484H50V99.5414V95.758H76.7273V84.1975Z" fill="#5EB030"></path> <path d="M50 76V95.758M50 109V102.484M99 109V102.484M50 95.758V99.5414V102.484M50 95.758H76.7273V84.1975H92C95.866 84.1975 99 87.3315 99 91.1975V102.484M50 102.484H99" stroke="#5EB030" stroke-width="3"></path> <path d="M63 88.5C63 86.0147 65.0147 84 67.5 84H74V93H67.5C65.0147 93 63 90.9853 63 88.5V88.5Z" fill="#EB5848"></path> <circle cx="57.5" cy="86.5" r="3.5" fill="#EB5848"></circle> <path d="M37 65L75 34L113 65" stroke="#5EB030" stroke-width="6"></path> </svg> 