<?xml version="1.0" encoding="UTF-8"?> <svg xmlns="http://www.w3.org/2000/svg" width="490" height="490" viewBox="0 0 490 490" fill="none"> <rect x="93" y="356" width="147" height="98" fill="#C9DAB8"></rect> <path d="M221.635 299.982L218.133 298.786V267.754H231.785C239.325 267.754 245.438 261.641 245.438 254.101V199.538C245.438 191.998 239.325 185.885 231.785 185.885H104.363C96.8236 185.885 90.711 191.998 90.711 199.538V254.101C90.711 261.641 96.8236 267.754 104.363 267.754H118.016V298.618L117.156 298.869C90.569 306.652 72 331.437 72 359.141V464.348C72 471.887 78.1126 478 85.6523 478H250.497C258.037 478 264.149 471.887 264.149 464.348V359.417C264.149 332.546 247.064 308.661 221.635 299.982ZM118.016 213.19H218.133V240.449C205.869 240.449 133.506 240.449 118.016 240.449V213.19ZM190.828 267.754V295.058H145.32V267.754H190.828ZM236.845 450.695H99.3038V359.141C99.3038 343.482 109.799 329.473 124.826 325.074L134.088 322.363H202.678L212.815 325.824C227.188 330.729 236.844 344.23 236.844 359.417L236.845 450.695Z" fill="#5EA430"></path> <path d="M405.224 395.176H405.178V163.086C405.178 155.562 399.09 149.461 391.571 149.435V108.477C391.571 100.937 385.459 94.8242 377.919 94.8242H364.221V25.6523C364.221 18.1126 358.109 12 350.569 12C343.029 12 336.916 18.1126 336.916 25.6523V94.8242H323.31C315.77 94.8242 309.657 100.937 309.657 108.477V149.434H309.612C302.072 149.434 295.959 155.546 295.959 163.086V395.178C288.441 395.202 282.353 401.303 282.353 408.828C282.353 416.368 288.465 422.48 296.005 422.48H336.916V450.695H309.704C302.164 450.695 296.051 456.808 296.051 464.348C296.051 471.887 302.164 478 309.704 478H391.526C399.066 478 405.178 471.887 405.178 464.348C405.178 456.808 399.066 450.695 391.526 450.695H364.221V422.48H405.224C412.763 422.48 418.876 416.368 418.876 408.828C418.876 401.288 412.763 395.176 405.224 395.176ZM323.264 395.176V176.738H374.341C375.469 177.044 376.649 177.222 377.873 177.226V204.043H363.803C356.264 204.043 350.151 210.156 350.151 217.695C350.151 225.235 356.264 231.348 363.803 231.348H377.873V258.652H363.803C356.264 258.652 350.151 264.765 350.151 272.305C350.151 279.844 356.264 285.957 363.803 285.957H377.873V313.262H363.803C356.264 313.262 350.151 319.374 350.151 326.914C350.151 334.454 356.264 340.566 363.803 340.566H377.873V395.176H323.264ZM336.962 122.129H364.267V149.434H336.962V122.129Z" fill="#5EA430"></path> <path d="M218.133 298.787L221.635 299.982C247.064 308.661 264.149 332.546 264.149 359.417V464.348C264.149 471.887 258.037 478 250.497 478H85.6523C78.1126 478 72 471.887 72 464.348V359.141C72 331.437 90.569 306.652 117.156 298.869L118.016 298.618L145.32 295.059H190.828L218.133 298.787Z" fill="#C9DAB8"></path> </svg> 