<svg version="1.1" id="Слой_1" xmlns="http://www.w3.org/2000/svg" xmlns:xlink="http://www.w3.org/1999/xlink" x="0px" y="0px" viewBox="0 0 18 18" style="enable-background:new 0 0 18 18;" xml:space="preserve"><style type="text/css">.st0{fill:#75E224;}.st1{fill:#A13800;}</style><path class="st0" d="M8.6,13.7c2.3,0,4.1-2.1,4.1-4.7c0-2-1.2-3.2-1.2-3.3c0-0.2,0.2-0.7,0.2-1.4c0-2.3-1.4-4.2-3.1-4.2S5.4,2.1,5.4,4.4c0,0.7,0.2,1.2,0.2,1.4C5.5,5.8,4.4,7,4.4,9C4.4,11.6,6.3,13.7,8.6,13.7z"/><path class="st1" d="M17.9,17.4c0-0.3-0.2-0.5-0.5-0.5h-2.6v-2.2c-0.3,0.1-0.7,0.1-1,0.1c-0.4,0-0.7,0-1-0.1v2.2H9.6v-2.2c-0.3,0.1-0.7,0.1-1,0.1c-0.4,0-0.7,0-1-0.1v2.2H5.4v-1h0.5c0.3,0,0.5-0.2,0.5-0.5c0-0.3-0.2-0.5-0.5-0.5H5.4v-1.6c0-0.3-0.2-0.5-0.5-0.5H1.8c-0.3,0-0.5,0.2-0.5,0.5v1.6H0.7c-0.3,0-0.5,0.2-0.5,0.5c0,0.3,0.2,0.5,0.5,0.5h0.5v1H0.7c-0.3,0-0.5,0.2-0.5,0.5c0,0.3,0.2,0.5,0.5,0.5h16.6C17.6,17.9,17.9,17.6,17.9,17.4z M4.4,16.8H2.3v-1h2.1V16.8z"/><path class="st0" d="M12.6,5.5c0.9,1.3,1.1,2.6,1.1,3.5c0,1.7-0.7,3.2-1.7,4.3c0.5,0.3,1.1,0.4,1.7,0.4c2.3,0,4.1-2.1,4.1-4.7c0-2.1-1.2-3.2-1.2-3.3c0-0.2,0.2-0.7,0.2-1.4c0-2.3-1.4-4.2-3.1-4.2c-0.7,0-1.4,0.4-1.9,0.9c0.6,0.9,0.9,2,0.9,3.2C12.7,4.8,12.6,5.2,12.6,5.5z"/></svg>