<svg version="1.1" id="Слой_1" xmlns="http://www.w3.org/2000/svg" xmlns:xlink="http://www.w3.org/1999/xlink" x="0px" y="0px" viewBox="0 0 18 18" style="enable-background:new 0 0 18 18;" xml:space="preserve"><style type="text/css">.st0{fill:#0044CC;}.st1{fill:#CC2222;}</style><g><path class="st0" d="M0,8.5c0-0.1,0-0.2,0-0.3c0-0.3,0.2-0.5,0.5-0.5c0.3-0.1,0.7-0.1,1-0.2c0.1,0,0.1-0.1,0.1-0.1c0.2-0.8,0.5-1.6,1-2.3c0,0,0-0.1,0-0.2C2.5,4.6,2.3,4.4,2.1,4.1c-0.2-0.3-0.2-0.5,0-0.8c0.3-0.4,0.7-0.7,1.1-1c0.2-0.2,0.5-0.2,0.7,0c0.3,0.2,0.5,0.4,0.8,0.6c0.1,0.1,0.2,0.1,0.2,0c0.7-0.4,1.4-0.8,2.2-0.9c0.1,0,0.1-0.1,0.2-0.2c0-0.3,0.1-0.6,0.1-0.9c0.1-0.4,0.2-0.6,0.6-0.6c0.1,0,0.2,0,0.3,0c0.2,0,0.4,0.1,0.4,0.3c0,0.8,0,1.6,0,2.4c0,0.2-0.1,0.3-0.3,0.3C7.1,3.3,5.9,3.8,4.9,4.8c-1.7,1.6-2.2,3.6-1.6,5.8c0.6,2.2,2.2,3.5,4.4,4.1c0.3,0.1,0.6,0.1,0.8,0.1c0.2,0,0.3,0.1,0.3,0.3c0,0.8,0,1.6,0,2.4c0,0.2-0.1,0.3-0.3,0.3c-0.2,0-0.4,0-0.5,0c-0.2,0-0.4-0.2-0.4-0.4c-0.1-0.3-0.1-0.7-0.2-1c0-0.1-0.1-0.2-0.2-0.2c-0.8-0.2-1.5-0.5-2.2-0.9c-0.1-0.1-0.2-0.1-0.3,0c-0.3,0.2-0.5,0.4-0.8,0.6c-0.3,0.2-0.5,0.2-0.8,0c-0.4-0.3-0.7-0.7-1-1c-0.2-0.3-0.2-0.5,0-0.8c0.2-0.3,0.4-0.5,0.6-0.8c0.1-0.1,0.1-0.2,0-0.2c-0.4-0.7-0.8-1.4-0.9-2.2c0-0.1-0.1-0.2-0.2-0.2c-0.3,0-0.6-0.1-1-0.2c-0.3-0.1-0.5-0.2-0.5-0.6c0-0.1,0-0.1,0-0.2C0,9.2,0,8.8,0,8.5z"/><path class="st0" d="M8.9,9c0,1.4,0,2.7,0,4.1c0,0.4-0.1,0.4-0.5,0.4c-2-0.2-3.6-1.6-4-3.5C3.8,7.4,5.7,4.8,8.3,4.5c0.5-0.1,0.6,0,0.6,0.5C8.9,6.3,8.9,7.7,8.9,9z"/><path class="st1" d="M9.5,9.3c0-0.2,0-0.4,0-0.6c0.1,0,0.1,0,0.2,0c2.1,0,4.2,0,6.3,0c0.1,0,0.2,0,0.3-0.1c0.2-0.4,0.6-0.5,1-0.4C17.7,8.2,18,8.6,18,9c0,0.4-0.3,0.8-0.7,0.9c-0.4,0.1-0.8-0.1-1-0.4c-0.1-0.1-0.1-0.1-0.3-0.1c-2.1,0-4.2,0-6.3,0C9.6,9.3,9.6,9.3,9.5,9.3z"/><path class="st1" d="M9.5,7.8c0-0.2,0-0.4,0-0.6c0.1,0,0.1,0,0.2,0c1.4,0,2.8,0,4.2,0c0.3,0,0.4-0.1,0.4-0.4c0-0.4,0-0.9,0-1.3c0-0.1,0-0.2-0.1-0.2c-0.4-0.2-0.6-0.6-0.4-1c0.1-0.4,0.4-0.7,0.8-0.7c0.4,0,0.8,0.2,0.9,0.6c0.1,0.4,0,0.8-0.4,1c-0.1,0.1-0.2,0.1-0.2,0.3c0,0.4,0,0.9,0,1.3c0,0.6-0.4,1-0.9,1c-1.5,0-2.9,0-4.4,0C9.6,7.8,9.5,7.8,9.5,7.8z"/><path class="st1" d="M9.5,10.2c0.1,0,0.1,0,0.2,0c1.4,0,2.8,0,4.3,0c0.6,0,1,0.4,1,1c0,0.4,0,0.9,0,1.3c0,0.1,0,0.1,0.1,0.2c0.4,0.2,0.6,0.6,0.5,1c-0.1,0.4-0.5,0.7-0.9,0.7c-0.4,0-0.8-0.3-0.9-0.7c-0.1-0.4,0.1-0.8,0.5-1c0.1,0,0.1-0.1,0.1-0.2c0-0.5,0-0.9,0-1.4c0-0.3-0.1-0.4-0.4-0.4c-1.4,0-2.8,0-4.2,0c-0.1,0-0.1,0-0.2,0C9.5,10.6,9.5,10.4,9.5,10.2z"/><path class="st1" d="M9.5,13.3c0-0.2,0-0.4,0-0.6c0,0,0.1,0,0.1,0c0.4,0,0.9,0,1.3,0c0.6,0,0.9,0.4,1,0.9c0,0.6,0,1.1,0,1.7c0,0.1,0,0.2,0.1,0.2c0.4,0.2,0.6,0.6,0.5,1c-0.1,0.4-0.5,0.7-0.9,0.7c-0.4,0-0.8-0.3-0.9-0.7c-0.1-0.4,0.1-0.8,0.5-1c0.1-0.1,0.1-0.1,0.1-0.2c0-0.5,0-1.1,0-1.6c0-0.3-0.1-0.4-0.4-0.4c-0.4,0-0.8,0-1.2,0C9.6,13.3,9.5,13.3,9.5,13.3z"/><path class="st1" d="M9.5,5.4c0-0.2,0-0.4,0-0.6c0.3,0,0.7,0,1,0c0.2,0,0.3,0,0.5,0c0.2,0,0.3-0.1,0.3-0.3c0-0.6,0-1.2,0-1.8c0-0.1-0.1-0.1-0.1-0.2c-0.4-0.2-0.5-0.6-0.4-1c0.1-0.4,0.4-0.7,0.9-0.7c0.4,0,0.8,0.2,0.9,0.6c0.1,0.4,0,0.9-0.4,1.1c-0.1,0.1-0.1,0.1-0.1,0.2c0,0.5,0,1.1,0,1.6c0,0.6-0.4,1-1,1C10.4,5.4,9.9,5.4,9.5,5.4z"/><path class="st1" d="M9.5,6c0.3,0,0.5,0,0.8,0c0.7,0,1.4,0,2.1,0c0.1,0,0.2,0,0.2,0c0.1,0,0.2,0.2,0.2,0.3c0,0.1-0.1,0.2-0.2,0.3c0,0-0.1,0-0.2,0c-0.9,0-1.9,0-2.8,0c0,0-0.1,0-0.1,0C9.5,6.4,9.5,6.2,9.5,6z"/><path class="st1" d="M9.5,12c0-0.2,0-0.4,0-0.6c0.1,0,0.1,0,0.2,0c0.9,0,1.8,0,2.7,0c0.1,0,0.2,0,0.2,0c0.1,0.1,0.2,0.2,0.2,0.3c0,0.1-0.1,0.2-0.2,0.3c0,0-0.1,0-0.2,0C11.5,12,10.5,12,9.5,12C9.5,12,9.5,12,9.5,12z"/></g></svg>