<svg width="20px" height="18px" viewBox="0 0 20 18" version="1.1" xmlns="http://www.w3.org/2000/svg" xmlns:xlink="http://www.w3.org/1999/xlink"><g id="Адаптив" stroke="none" stroke-width="1" fill="none" fill-rule="evenodd"><g id="Theme_icons" transform="translate(-123.000000, -633.000000)" fill-rule="nonzero"><g id="old_people_icon" transform="translate(123.000000, 633.000000)"><path d="M8.67048719,11.0294777 C8.60734132,11.0294777 8.54419546,11.0294777 8.48104959,11.0084291 L8.48104959,17.6176962 C8.48104959,17.8281824 8.64943857,17.9965714 8.85992478,17.9965714 C9.070411,17.9965714 9.23879997,17.8281824 9.23879997,17.6176962 L9.23879997,10.8821373 C9.21775135,10.903186 9.19670273,10.903186 9.1756541,10.9242346 C9.00726513,10.9873804 8.83887616,11.0294777 8.67048719,11.0294777 Z" id="Path" fill="#636161"></path><path d="M8.48104959,7.30387167 C8.43895235,7.21967719 8.37580649,7.1354827 8.31266062,7.05128822 L7.04974333,5.78837092 C6.6287709,5.36739849 6.08150674,5.13586366 5.47109671,5.13586366 L3.91349872,5.13586366 C3.38728318,5.13586366 2.86106764,5.28320401 2.39799797,5.57788471 L0.335233058,6.86185062 C0.0195037349,7.11443408 -0.106787994,7.57750375 0.103698221,7.95637894 L1.36661551,10.1454356 C1.59815035,10.5243108 2.08226865,10.6716511 2.46114383,10.4401163 C2.58743556,10.3769704 2.67163005,10.2717273 2.73477591,10.1664842 L2.60848418,17.1125293 C2.60848418,17.575599 2.96631075,17.9755228 3.45042905,17.9755228 C3.91349872,17.9755228 4.31342253,17.6176962 4.31342253,17.1335779 L4.41866564,11.8293253 L5.02907566,11.8293253 L5.13431877,17.1335779 C5.13431877,17.5966476 5.51319396,17.9755228 5.97626363,17.9755228 C5.97626363,17.9755228 5.99731225,17.9755228 5.99731225,17.9755228 C6.46038193,17.9755228 6.83925711,17.575599 6.83925711,17.1125293 L6.64981952,7.64064962 L7.07079195,8.06162205 L7.93378543,10.0612411 C8.06007716,10.3559218 8.35475786,10.5453594 8.67048719,10.5453594 C8.7757303,10.5453594 8.8809734,10.5243108 8.98621651,10.4822135 C9.38614032,10.3138246 9.57557791,9.82970626 9.40718894,9.42978245 L8.48104959,7.30387167 Z M2.75582453,9.34558796 L1.89283105,7.83008721 L2.79792178,7.26177443 L2.75582453,9.34558796 Z" id="Shape" fill="#14468D"></path><path d="M2.8189704,2.71527218 C2.8189704,2.7363208 2.8189704,2.7363208 2.8189704,2.71527218 C2.8189704,3.76770326 3.66091526,4.60964812 4.71334634,4.60964812 C5.76577742,4.60964812 6.60772228,3.76770326 6.60772228,2.71527218 C6.60772228,2.71527218 6.60772228,2.71527218 6.60772228,2.71527218 C6.12360398,2.79946666 5.49214534,2.86261253 4.71334634,2.86261253 C3.93454734,2.86261253 3.32413732,2.82051529 2.8189704,2.71527218 Z" id="Path" fill="#F6C69D"></path><path d="M4.71334634,2.39954286 C6.16570122,2.39954286 7.36547265,2.16800802 7.36547265,1.87332732 C7.36547265,1.72598697 7.00764609,1.57864662 6.46038193,1.47340351 L6.1446526,0.526215538 C6.06045812,0.27363208 5.82892328,0.105243108 5.5552912,0.105243108 L3.8924501,0.105243108 C3.63986664,0.105243108 3.38728318,0.27363208 3.30308869,0.526215538 L2.98735937,1.47340351 C2.44009521,1.57864662 2.08226865,1.70493834 2.08226865,1.87332732 C2.08226865,2.1469594 3.26099145,2.39954286 4.71334634,2.39954286 Z" id="Path" fill="#8B5134"></path><path d="M11.3647107,11.1557694 C11.3436621,11.1557694 11.3436621,11.1557694 11.3226135,11.1347208 L11.3226135,17.6176962 C11.3226135,17.8281824 11.4910025,17.9965714 11.7014887,17.9965714 C11.9119749,17.9965714 12.0803639,17.8281824 12.0803639,17.6176962 L12.0803639,11.176818 C11.848829,11.2399639 11.5962456,11.2399639 11.3647107,11.1557694 Z" id="Path" fill="#857676"></path><path d="M19.636819,6.88289924 L17.7845403,5.66207919 C17.4267137,5.43054436 17.0057413,5.30425263 16.5637203,5.30425263 L14.7745874,5.30425263 C14.1431288,5.30425263 13.5327188,5.57788471 13.1117463,6.062003 L11.8067318,7.57750375 C11.7435859,7.66169824 11.7014887,7.74589273 11.6172942,7.95637894 L11.0489814,9.68236591 C10.9226897,10.0401925 11.0489814,10.4822135 11.406808,10.6716511 C11.5330997,10.734797 11.6593914,10.7768942 11.7856832,10.7768942 C12.1014125,10.7768942 12.4171418,10.566408 12.5223849,10.2506787 L13.1117463,8.5036431 L13.9326426,7.53540651 L13.9326426,8.23001102 C13.9326426,8.5036431 13.8905453,8.77727518 13.8273995,9.05090726 L12.627628,13.6395068 C12.5644822,13.849993 12.627628,14.0815278 12.7539198,14.2499168 C12.8802115,14.4183058 13.0906977,14.5235489 13.3222325,14.5235489 L13.5537674,14.5235489 L13.3432812,17.0704321 C13.3011839,17.5545504 13.6590105,17.9755228 14.1431288,17.9965714 C14.1641774,17.9965714 14.185226,17.9965714 14.2062747,17.9965714 C14.6482957,17.9965714 15.0061223,17.6597935 15.0482195,17.2177724 L15.2587057,14.5235489 L15.8480671,14.5235489 L16.079602,17.2177724 C16.1216992,17.7229393 16.6058175,18.1018145 17.132033,17.9755228 C17.5319569,17.8702797 17.8055889,17.4703559 17.7634917,17.0493834 L17.5530055,14.5235489 L17.7845403,14.5235489 C17.9950265,14.5235489 18.2055127,14.4183058 18.3528531,14.2499168 C18.4791448,14.0815278 18.5422907,13.849993 18.4791448,13.6395068 L17.6372,10.3138246 C17.7634917,10.4401163 17.910832,10.5243108 18.1423669,10.5243108 C18.4791448,10.5243108 18.7738255,10.3138246 18.9211659,9.99809523 L19.9314997,7.85113583 C20.0788401,7.51435789 19.973597,7.09338546 19.636819,6.88289924 Z M17.468811,9.42978245 C17.4477624,9.47187969 17.4477624,9.49292831 17.4267137,9.53502556 L17.300422,9.02985864 C17.2372762,8.75622656 17.1951789,8.48259448 17.1951789,8.2089624 L17.1951789,7.1354827 L18.2265614,7.80903859 L17.468811,9.42978245 Z" id="Shape" fill="#F06319"></path><path d="M15.5,2 C16.2867434,2 16.9886068,2.37235452 17.4468786,2.89707493 C17.4289006,3.93377372 16.5940453,4.75698847 15.5533864,4.75698847 C14.522004,4.75698847 13.6590105,3.91504361 13.6590105,2.86261253 C13.6590105,2.83538193 13.6595813,2.80828723 13.6607122,2.78134017 C14.1179352,2.31821419 14.7726984,2 15.5,2 Z" id="Combined-Shape" fill="#F6C69D"></path><path d="M15.5533864,0 C16.0585533,0 16.4795258,0.357826566 16.4795258,0.778798997 C16.4795258,0.926139348 16.4374285,1.05243108 16.353234,1.15767418 C16.9444941,1.42469484 17.3629277,1.9855203 17.4362705,2.65222565 C16.977529,2.14673548 16.2805376,1.79508577 15.5,1.79508577 C14.7874767,1.79508577 14.1445738,2.08812167 13.6891896,2.52355143 C13.7993175,1.91341837 14.2009486,1.40723104 14.7535388,1.15767418 C14.6693443,1.05243108 14.6272471,0.926139348 14.6272471,0.778798997 C14.6272471,0.357826566 15.0482195,0 15.5533864,0 Z" id="Combined-Shape" fill="#CFC8B0"></path></g></g></g></svg>