<?xml version="1.0" encoding="utf-8"?><svg version="1.1" id="Слой_1" xmlns="http://www.w3.org/2000/svg" xmlns:xlink="http://www.w3.org/1999/xlink" x="0px" y="0px" viewBox="0 0 18 18" style="enable-background:new 0 0 18 18;" xml:space="preserve"><style type="text/css">.st0{fill:#FFFFFF;}.st1{fill:#CC2222;}</style><g><g><path class="st0" d="M1.4,16.2c-0.3,0-0.5-0.2-0.6-0.3c-0.1-0.1-0.2-0.4,0-0.6L8.4,2.1C8.6,1.8,8.9,1.8,9,1.8s0.4,0,0.6,0.3l7.6,13.2c0.2,0.3,0.1,0.5,0,0.6s-0.2,0.3-0.6,0.3H1.4z"/><path class="st1" d="M9,2.6l3.7,6.4l3.7,6.4H9H1.6l3.7-6.4L9,2.6 M9,1C8.5,1,8.1,1.3,7.8,1.7L4,8.3l-3.8,6.6C-0.3,15.8,0.3,17,1.4,17H9h7.6c1.1,0,1.7-1.2,1.2-2.1L14,8.3l-3.8-6.6C9.9,1.3,9.5,1,9,1L9,1z"/></g><g><path d="M9,5.5c0.5,0,1.1,0.1,1.1,0.6c0,0.2,0,0.4-0.1,0.6c-0.1,0.9-0.5,2.9-0.7,4.6H8.7C8.5,9.7,8.1,7.6,8,6.7c0-0.2-0.1-0.5-0.1-0.6C7.9,5.6,8.5,5.5,9,5.5z M9,14.5c-0.6,0-1.1-0.5-1.1-1.1c0-0.7,0.5-1.1,1.1-1.1c0.6,0,1.1,0.5,1.1,1.1C10.1,14,9.7,14.5,9,14.5z"/></g></g></svg>