<svg width="13px" height="18px" viewBox="0 0 13 18" version="1.1" xmlns="http://www.w3.org/2000/svg" xmlns:xlink="http://www.w3.org/1999/xlink"><g id="Адаптив" stroke="none" stroke-width="1" fill="none" fill-rule="evenodd"><g id="Theme_icons" transform="translate(-125.000000, -123.000000)" fill="#9E9582" fill-rule="nonzero"><g id="Group" transform="translate(125.000000, 123.000000)"><path d="M5.43545279,16.7148936 L5.43545279,12.8340426 L7.53949904,12.8340426 L7.53949904,16.7148936 L12.3236994,16.7148936 L12.3236994,7.26808511 L12.3236994,7.14042553 L12.3236994,1.65957447 L10.7456647,1.65957447 L10.7456647,7.26808511 L8.69171484,7.26808511 L8.69171484,2.23829787 L7.51445087,2.23829787 L7.51445087,3.77021277 L5.41040462,3.77021277 L5.41040462,0 L4.25818882,0 L4.25818882,3.77021277 L2.15414258,3.77021277 L2.15414258,3.32765957 L0.626204239,3.32765957 L0.626204239,16.7404255 L5.43545279,16.7404255 L5.43545279,16.7148936 Z M10.7707129,8.69787234 L10.7707129,11.1489362 L8.66666667,11.1489362 L8.66666667,8.69787234 L10.7707129,8.69787234 Z M10.7707129,12.8340426 L10.7707129,15.2851064 L8.66666667,15.2851064 L8.66666667,12.8340426 L10.7707129,12.8340426 Z M5.43545279,4.71489362 L7.53949904,4.71489362 L7.53949904,7.16595745 L5.43545279,7.16595745 L5.43545279,4.71489362 Z M5.43545279,8.69787234 L7.53949904,8.69787234 L7.53949904,11.1489362 L5.43545279,11.1489362 L5.43545279,8.69787234 Z M2.17919075,4.71489362 L4.28323699,4.71489362 L4.28323699,7.16595745 L2.17919075,7.16595745 L2.17919075,4.71489362 Z M2.17919075,8.69787234 L4.28323699,8.69787234 L4.28323699,11.1489362 L2.17919075,11.1489362 L2.17919075,8.69787234 Z M2.17919075,12.8340426 L4.28323699,12.8340426 L4.28323699,15.2851064 L2.17919075,15.2851064 L2.17919075,12.8340426 Z" id="Shape"></path><rect id="Rectangle" x="2.42967245" y="8.95319149" width="1.60308285" height="1.94042553"></rect><rect id="Rectangle" x="5.68593449" y="8.95319149" width="1.60308285" height="1.94042553"></rect><rect id="Rectangle" x="8.91714836" y="8.95319149" width="1.60308285" height="1.94042553"></rect><rect id="Rectangle" x="5.68593449" y="4.97021277" width="1.60308285" height="1.94042553"></rect><rect id="Rectangle" x="2.42967245" y="13.0893617" width="1.60308285" height="1.94042553"></rect><rect id="Rectangle" x="5.68593449" y="13.0893617" width="1.60308285" height="3.62553191"></rect><rect id="Rectangle" x="0" y="16.9702128" width="13" height="1.02978723"></rect></g></g></g></svg>