<?xml version="1.0" encoding="utf-8"?><svg version="1.1" id="Слой_1" xmlns="http://www.w3.org/2000/svg" xmlns:xlink="http://www.w3.org/1999/xlink" x="0px" y="0px" viewBox="0 0 18 18" style="enable-background:new 0 0 18 18;" xml:space="preserve"><style type="text/css">.st0{fill:#808080;}.st1{fill:#CC2222;}.st2{fill:#CD9650;}</style><polygon class="st0" points="19.5,16.9 19.5,16.9 19.5,16.9 "/><g><g><g><path class="st1" d="M15.4,2.2L15.4,2.2l-0.6,0.3l0.1,0.1c1.5,2.3,1.4,5.3-0.2,7.5l-0.1,0.1l0.6,0.4l0.1-0.1C16.9,8,17,4.8,15.4,2.2z"/><path class="st1" d="M2.8,1.9C1.1,4.4,1,7.7,2.6,10.2l0.1,0.1L3.3,10L3.2,9.9C1.8,7.5,1.8,4.6,3.4,2.3l0.1-0.1L2.8,1.9L2.8,1.9z"/></g><g><path class="st1" d="M9.4,5c0,0-0.1,0-0.1,0C8.9,5,8.6,5.2,8.4,5.4C7.8,5.9,7.7,6.6,8.1,7.2C8.6,7.8,9.4,7.9,10,7.5l0,0c0.3-0.2,0.5-0.5,0.6-0.9c0.1-0.3,0-0.7-0.2-1C10.1,5.3,9.8,5.1,9.4,5z"/><path class="st2" d="M13,5.8l0-0.2l-0.2-0.1c-0.1,0-0.2,0-0.3-0.1c0,0,0,0-0.1,0c0-0.1-0.1-0.3-0.1-0.4c0.1-0.1,0.2-0.1,0.2-0.2l0.2-0.2l-0.1-0.2c-0.2-0.3-0.4-0.6-0.6-0.8l-0.1-0.2l-0.2,0.1c-0.1,0-0.2,0.1-0.3,0.1c0,0,0,0-0.1,0c-0.1-0.1-0.2-0.1-0.3-0.2c0,0-0.1,0-0.1-0.1c0,0,0,0,0,0c0-0.1,0.1-0.2,0-0.4L11,3l-0.2-0.1c0,0-0.1,0-0.1-0.1c-0.3-0.1-0.6-0.2-0.9-0.2l-0.2,0L9.5,2.8c0,0.1-0.1,0.1-0.1,0.2c-0.1,0-0.2,0-0.3,0c0,0-0.1,0-0.1,0c0,0,0,0,0,0c0-0.1-0.1-0.2-0.1-0.3L8.7,2.5L8.5,2.6c-0.1,0-0.1,0-0.2,0.1C8,2.7,7.8,2.8,7.5,3L7.4,3.1l0,0.2c0,0.1,0,0.1,0,0.2c0,0,0,0.1,0,0.1C7.3,3.6,7.2,3.7,7.1,3.8C7,3.8,6.8,3.7,6.7,3.7l-0.2,0L6.4,3.8c0,0-0.1,0.1-0.1,0.1C6.1,4.1,5.9,4.4,5.8,4.6L5.7,4.8l0.1,0.1C6,5,6,5.1,6.1,5.2c0,0.1,0,0.1-0.1,0.2C6,5.4,6,5.5,6,5.6c-0.1,0-0.2,0-0.3,0l-0.2,0L5.5,5.8C5.4,6,5.4,6.3,5.4,6.5c0,0.1,0,0.2,0,0.3l0,0.2l0.2,0.1C5.7,7.2,5.9,7.2,6,7.2c0,0,0,0,0,0c0,0.1,0.1,0.2,0.1,0.3c0,0,0,0.1,0,0.1C6.1,7.7,6,7.7,6,7.8c0,0-0.1,0.1-0.1,0.1L5.7,8l0.1,0.2C6.1,8.6,6.3,8.8,6.5,9l0.1,0.2l0.2-0.1C6.9,9.1,7,9,7.1,9c0,0,0,0,0,0C7.2,9,7.3,9.1,7.4,9.2c0,0,0,0,0,0c0,0,0,0,0,0L7.2,9.8l0.3,0.1c0.1,0,0.2,0.1,0.3,0.1C8,10,8.1,10,8.2,10.1c0.1,0,0.3,0.1,0.5,0.1l0.2,0l0.1-0.2c0,0,0,0,0,0l0,0C9,9.8,9,9.8,9,9.7c0.1,0,0.3,0,0.4,0c0,0,0,0,0,0c0,0,0,0,0,0.1c0,0.1,0.1,0.2,0.1,0.2l0.1,0.2l0.3-0.1c0.3-0.1,0.6-0.1,0.9-0.3l0.1-0.1l0-0.2c0-0.1,0-0.2,0-0.3c0,0,0-0.1,0-0.1c0.1-0.1,0.2-0.2,0.4-0.2c0,0,0,0,0.1,0c0.1,0,0.1,0.1,0.2,0.1l0.2,0.2L12,9c0.2-0.3,0.4-0.5,0.6-0.8L12.7,8l-0.1-0.2c-0.1-0.1-0.2-0.2-0.2-0.3c0.1-0.1,0.1-0.3,0.1-0.4c0,0,0,0,0,0c0,0,0,0,0,0c0.1,0,0.2,0,0.3,0l0.2,0l0-0.2C13.1,6.6,13.1,6.2,13,5.8z M11.2,6.7c-0.1,0.5-0.4,1-0.8,1.3C10,8.2,9.6,8.3,9.2,8.3C8.6,8.3,8,8,7.7,7.5C7,6.6,7.2,5.6,8,4.9c0.4-0.4,0.9-0.5,1.5-0.5c0.5,0.1,1,0.3,1.3,0.8C11.1,5.7,11.2,6.2,11.2,6.7z"/></g></g><g><path class="st2" d="M0.2,13.9c0.3-0.2,0.6-0.3,0.9-0.5c0.8-0.6,1.6-1.3,2.5-1.9C4.3,11,5,10.6,5.9,10.5c0.5-0.1,1,0,1.4,0.1C8,10.7,8.7,10.8,9.3,11c0.9,0.2,1.7,0.2,2.6,0.1c0.5,0,0.9,0,1.4,0.1c0.5,0.1,0.8,0.7,0.7,1.2c-0.1,0.3-0.3,0.4-0.5,0.5c-0.4,0.2-0.9,0.3-1.3,0.3c-0.5,0.1-1,0.1-1.5,0.1c0,0-0.1,0-0.1,0c0.7,0.3,2.7,1.1,3.1,1.1c1.6-0.4,1.9-1.6,2.3-2.1c0.3-0.4,0.7-0.7,1.2-0.9c0.4-0.1,0.5-0.1,0.7,0.3c0,0.1,0,0.2,0,0.3c0,0,0,0,0,0.1c-0.2,0.8-0.5,1.7-0.9,2.4c-0.5,1-1.3,1.7-2.4,2.1c-1,0.3-2,0.4-3,0.3c-1.2-0.1-2.4-0.3-3.6-0.5C7,16.3,6,16.2,5.1,16.2c-0.7,0.1-1.3,0.2-1.9,0.5c-0.1,0-0.1,0-0.2,0c-0.7-0.7-1.4-1.4-2.1-2.1C0.7,14.4,0.4,14.2,0.2,13.9C0.2,13.9,0.2,13.9,0.2,13.9z"/></g></g></svg>