<svg width="22px" height="18px" viewBox="0 0 22 18" version="1.1" xmlns="http://www.w3.org/2000/svg" xmlns:xlink="http://www.w3.org/1999/xlink"><g id="Адаптив" stroke="none" stroke-width="1" fill="none" fill-rule="evenodd"><g id="Theme_icons" transform="translate(-122.000000, -401.000000)" fill-rule="nonzero"><g id="theatre_icon" transform="translate(122.000000, 401.000000)"><g id="Group" transform="translate(0.000000, 0.000000)"><path d="M21.6514869,0.719389363 C21.6514869,0.212298785 21.1443963,-0.0919555623 20.6711118,0.0770746305 C16.3439389,1.90260071 12.3548263,1.90260071 8.60235605,0.0770746305 C8.12907151,-0.159567639 7.58817489,0.178492746 7.58817489,0.685583324 C7.55436885,1.8011826 7.58817489,2.88297583 7.65578697,3.89715699 C9.31228285,3.79573887 11.0701969,3.39006641 12.8281109,2.64633356 C12.9971411,2.57872148 13.1661712,2.54491544 13.3690075,2.54491544 C14.1465464,2.54491544 14.7550551,3.15342414 14.7550551,3.93096303 C14.7888611,5.79029515 14.6536369,7.44679103 14.4169947,8.96806277 C15.6340121,9.00186881 16.6143872,9.94843789 16.6481932,11.1654553 L13.9437101,11.1654553 C13.6394558,12.2810545 13.2337833,13.2952357 12.7266927,14.2079987 C13.0309471,14.3770289 13.3352014,14.5460591 13.6732618,14.6812833 C14.3493826,14.9517316 15.1269215,14.9517316 15.7692362,14.6136712 C19.4879005,12.6191149 21.752905,8.46097219 21.6514869,0.719389363 Z M16.1072966,5.01275626 C16.1072966,4.6070838 16.2763268,4.23521737 16.5467751,3.96476906 C16.8172234,3.69432076 17.1890898,3.52529056 17.5947623,3.52529056 C18.0004348,3.52529056 18.3723012,3.69432076 18.6427495,3.96476906 C18.9131978,4.23521737 19.082228,4.6070838 19.082228,5.01275626 C18.0342408,4.77611399 17.0538657,4.74230795 16.1072966,5.01275626 Z" id="Shape" fill="#F3BF58"></path><path d="M14.0789343,3.89715699 C14.0789343,3.39006641 13.5718437,3.08581206 13.0985592,3.25484225 C8.77138624,5.0465623 4.74846765,5.0465623 1.02980341,3.22103622 C0.55651887,2.98439395 0.0156222532,3.32245433 0.0156222532,3.82954491 C-0.187213978,10.8612009 1.57070003,15.7968826 6.13451523,17.7914388 C6.810636,18.0956932 7.58817489,18.0618871 8.23048962,17.7238268 C11.9153478,15.7968826 14.1465464,11.6387398 14.0789343,3.89715699 Z M2.51726911,8.35955408 C2.51726911,7.95388161 2.6862993,7.58201519 2.95674761,7.31156688 C3.22719592,7.04111857 3.59906234,6.87208838 4.0047348,6.87208838 C4.41040726,6.87208838 4.78227369,7.04111857 5.052722,7.31156688 C5.32317031,7.58201519 5.4922005,7.95388161 5.4922005,8.35955408 C4.4442133,8.12291181 3.46383819,8.12291181 2.51726911,8.35955408 Z M7.04727827,13.8361323 C5.79645485,13.8361323 4.81607973,12.8557572 4.74846765,11.6387398 L9.34608889,11.6387398 C9.27847682,12.8557572 8.2981017,13.8361323 7.04727827,13.8361323 Z M8.63616208,8.35955408 C8.63616208,7.95388161 8.80519228,7.58201519 9.07564059,7.31156688 C9.34608889,7.04111857 9.71795532,6.87208838 10.1236278,6.87208838 C10.5293002,6.87208838 10.9011667,7.04111857 11.171615,7.31156688 C11.4420633,7.58201519 11.6110935,7.95388161 11.6110935,8.35955408 C10.5969123,8.12291181 9.6165372,8.12291181 8.63616208,8.35955408 Z" id="Shape" fill="#E45656"></path></g></g></g></g></svg>