<?xml version="1.0" encoding="UTF-8"?> <svg xmlns="http://www.w3.org/2000/svg" id="Слой_1" data-name="Слой 1" viewBox="0 0 60 60"> <defs> <style>.cls-1{fill:#009ed0;}</style> </defs> <path class="cls-1" d="M7,30.59a5.79,5.79,0,0,1,5.74-5.84,4.56,4.56,0,0,1,.92.09.75.75,0,0,0,.61-.15.76.76,0,0,0,.29-.57,7,7,0,0,1,9-6.54.74.74,0,0,0,.58-.07.77.77,0,0,0,.36-.45,10.09,10.09,0,0,1,19.84,2.82c0,.35,0,.7-.05,1a.77.77,0,0,0,.23.57.79.79,0,0,0,.58.25,7.38,7.38,0,0,1,2.24,14.36h0A1.39,1.39,0,0,1,46,34.35a6.27,6.27,0,0,0,.2-1.32,6.79,6.79,0,0,0-6.77-7.12,6.83,6.83,0,0,0-6,3.56,2.75,2.75,0,0,0-.12,2.58A2.58,2.58,0,0,0,38,32a1.62,1.62,0,0,1,2.67-.39,1.59,1.59,0,0,1,.41,1.25,1.71,1.71,0,0,1-1.72,1.47H21.89a2.58,2.58,0,0,0-2.27,1.36,1.39,1.39,0,0,1-1.23.76H12.75A5.8,5.8,0,0,1,7,30.59Zm13.82,6.3a1.06,1.06,0,0,1,1.06-1.06H39.37a3.14,3.14,0,0,0,2.43-5.25,3.14,3.14,0,0,0-5.16.75,1,1,0,0,1-1,.6,1.06,1.06,0,0,1-.91-.5,1,1,0,0,1-.06-1,5.29,5.29,0,0,1,4.75-3A5.27,5.27,0,0,1,44.73,33a5.11,5.11,0,0,1-1.45,3.32.6.6,0,0,0-.08.08A5.53,5.53,0,0,1,39.3,38H21.89A1.06,1.06,0,0,1,20.83,36.89Z"></path> <path class="cls-1" d="M51.54,48.77a5.22,5.22,0,0,1-3.82,1.64,5.3,5.3,0,0,1-4.75-3,1,1,0,0,1,.06-1,1.07,1.07,0,0,1,.91-.51,1.06,1.06,0,0,1,1,.61,3.17,3.17,0,0,0,2.83,1.77,3.14,3.14,0,0,0,2.33-1,3.18,3.18,0,0,0,.8-2.42A3.23,3.23,0,0,0,47.62,42H30.14a1.07,1.07,0,0,1,0-2.13H47.55a5.35,5.35,0,0,1,5.43,5A5.18,5.18,0,0,1,51.54,48.77Z"></path> </svg> 