<?xml version="1.0" encoding="UTF-8"?> <svg xmlns="http://www.w3.org/2000/svg" xmlns:xlink="http://www.w3.org/1999/xlink" width="60px" height="60px" viewBox="0 0 60 60"> <!-- Generator: Sketch 62 (91390) - https://sketch.com --> <title>Artboard_11</title> <desc>Created with Sketch.</desc> <defs> <polygon id="path-1" points="0 1.24235519 38.7823548 1.24235519 38.7823548 18.8704645 0 18.8704645"></polygon> <polygon id="path-3" points="0 45.4615452 38.7823548 45.4615452 38.7823548 0.000125806452 0 0.000125806452"></polygon> </defs> <g id="Artboard_11" stroke="none" stroke-width="1" fill="none" fill-rule="evenodd"> <rect id="Rectangle" fill="#FFFFFF" x="0" y="0" width="60" height="60"></rect> <g id="Group-11" transform="translate(11.000000, 7.000000)"> <g id="Group-3" transform="translate(0.000000, 26.590577)"> <mask id="mask-2" fill="white"> <use xlink:href="#path-1"></use> </mask> <g id="Clip-2"></g> <path d="M0,15.6384968 L5.16058065,17.8501742 C7.62512903,18.5219806 10.1626452,18.8704645 12.7265806,18.8704645 L23.829,18.8704645 C26.5665484,18.8704645 29.1569032,17.5771742 30.7986774,15.3856258 L38.045129,8.47256129 C38.9169677,7.32898065 38.9823871,5.75891613 38.4187742,4.91349677 C38.2690645,4.6644 38.0702903,4.46436774 37.8463548,4.29075484 C36.9292258,3.48936774 35.3855806,3.56485161 34.4848065,4.53985161 L27.5629355,10.0086581 L27.3893226,10.2086903 C26.6923548,10.9798839 25.6959677,11.4025935 24.6505161,11.4025935 L14.9923548,11.4025935 C14.2953871,11.4025935 13.748129,10.8553355 13.748129,10.1583677 C13.748129,9.4614 14.2953871,8.91414194 14.9923548,8.91414194 L22.5847742,8.91414194 C23.9535484,8.91414194 25.058129,8.07375484 25.058129,6.70498065 C25.058129,6.70498065 25.3160323,4.63798065 23.0062258,4.37127097 L17.9148387,3.52207742 C17.1675484,3.52207742 15.9447097,3.2000129 15.2993226,2.65275484 C12.2623548,-0.0105677419 8.9523871,1.71675484 7.49554839,2.81504516 C6.03870968,3.91333548 5.0913871,4.08820645 3.159,4.79523871 L0,5.50227097 L0,15.6384968 Z" id="Fill-1" fill="#0071BC" mask="url(#mask-2)"></path> </g> <mask id="mask-4" fill="white"> <use xlink:href="#path-3"></use> </mask> <g id="Clip-5"></g> <polygon id="Fill-4" fill="#0071BC" mask="url(#mask-4)" points="21.2688387 26.5025129 25.877129 26.5025129 25.877129 15.9335129 21.2688387 15.9335129"></polygon> <polygon id="Fill-6" fill="#0071BC" mask="url(#mask-4)" points="29.6337097 26.5025129 34.242 26.5025129 34.242 15.9335129 29.6337097 15.9335129"></polygon> <polygon id="Fill-7" fill="#0071BC" mask="url(#mask-4)" points="12.9052258 26.5025129 17.5135161 26.5025129 17.5135161 15.9335129 12.9052258 15.9335129"></polygon> <polygon id="Fill-8" fill="#0071BC" mask="url(#mask-4)" points="4.54035484 26.5025129 9.14864516 26.5025129 9.14864516 15.9335129 4.54035484 15.9335129"></polygon> <path d="M35.3511097,12.8629548 L35.3511097,11.9986645 L3.43149677,11.9986645 L3.43149677,12.8629548 C3.43149677,13.3397613 3.91836774,13.7272452 4.51720645,13.7272452 L34.2654,13.7272452 C34.8642387,13.7272452 35.3511097,13.3397613 35.3511097,12.8629548" id="Fill-9" fill="#0071BC" mask="url(#mask-4)"></path> <path d="M1.94119355,10.2712161 L36.8411613,10.2712161 C37.3267742,10.2712161 37.7545161,10.014571 37.8853548,9.64218387 C38.0187097,9.27105484 37.8237097,8.87476452 37.4098065,8.67221613 L19.9604516,0.127441935 C19.6119677,-0.0423967742 19.1703871,-0.0423967742 18.8219032,0.127441935 L1.37254839,8.67221613 C0.958645161,8.87476452 0.763645161,9.27105484 0.897,9.64218387 C1.02909677,10.014571 1.45558065,10.2712161 1.94119355,10.2712161" id="Fill-10" fill="#0071BC" mask="url(#mask-4)"></path> </g> </g> </svg> 