<?xml version="1.0" encoding="UTF-8"?> <svg xmlns="http://www.w3.org/2000/svg" xmlns:xlink="http://www.w3.org/1999/xlink" width="60px" height="60px" viewBox="0 0 60 60"> <title>Artboard_20 Copy 17</title> <g id="Artboard_20-Copy-17" stroke="none" stroke-width="1" fill="none" fill-rule="evenodd"> <g id="virus" transform="translate(5.000000, 5.000000)" fill="#00A1A0" fill-rule="nonzero"> <path d="M46.875,21.875 C45.7207031,21.875 44.7109375,22.5039063 44.1699219,23.4375 L41.3320313,23.4375 C41.0136719,20.0841797 39.6827148,17.0217773 37.6477539,14.5619141 L39.6606445,12.5490234 C40.6960938,12.8277344 41.8594727,12.5591797 42.6776367,11.7422852 C43.8963867,10.5235352 43.8963867,8.54111328 42.6776367,7.32236328 C41.4588867,6.10361328 39.4764648,6.10361328 38.2577148,7.32236328 C37.4423828,8.13867188 37.1728516,9.29755859 37.4509766,10.3393555 L35.4380859,12.3522461 C32.9782227,10.3172852 29.9158203,8.98632813 26.5625,8.66796875 L26.5625,5.83007813 C27.4960938,5.2890625 28.125,4.27929688 28.125,3.125 C28.125,1.40136719 26.7236328,3.55271368e-15 25,3.55271368e-15 C23.2763672,3.55271368e-15 21.875,1.40136719 21.875,3.125 C21.875,4.27929688 22.5039063,5.2890625 23.4375,5.83007813 L23.4375,8.66796875 C20.0841797,8.98632813 17.0217773,10.3172852 14.5619141,12.3522461 L12.5490234,10.3393555 C12.8271484,9.29746094 12.5575195,8.13857422 11.7422852,7.32236328 C10.5235352,6.10361328 8.54111328,6.10361328 7.32236328,7.32236328 C6.10361328,8.54111328 6.10361328,10.5235352 7.32236328,11.7422852 C8.14013672,12.5586914 9.30341797,12.8279297 10.3393555,12.5490234 L12.3522461,14.5619141 C10.3172852,17.0217773 8.98632813,20.0841797 8.66796875,23.4375 L5.83007813,23.4375 C5.2890625,22.5039063 4.27929688,21.875 3.125,21.875 C1.40136719,21.875 3.55271368e-15,23.2763672 3.55271368e-15,25 C3.55271368e-15,26.7236328 1.40136719,28.125 3.125,28.125 C4.27929688,28.125 5.2890625,27.4960938 5.83007813,26.5625 L8.66796875,26.5625 C8.98632813,29.9158203 10.3172852,32.9782227 12.3522461,35.4380859 L10.3393555,37.4509766 C9.29755859,37.1728516 8.13857422,37.4424805 7.32236328,38.2577148 C6.10361328,39.4764648 6.10361328,41.4588867 7.32236328,42.6776367 C8.54335938,43.8986328 10.5257813,43.8941406 11.7422852,42.6776367 C12.5576172,41.8613281 12.8271484,40.7024414 12.5490234,39.6606445 L14.5619141,37.6477539 C17.0217773,39.6827148 20.0841797,41.0136719 23.4375,41.3320312 L23.4375,44.1699219 C22.5039063,44.7109375 21.875,45.7207031 21.875,46.875 C21.875,48.5986328 23.2763672,50 25,50 C26.7236328,50 28.125,48.5986328 28.125,46.875 C28.125,45.7207031 27.4960938,44.7109375 26.5625,44.1699219 L26.5625,41.3320312 C29.9158203,41.0136719 32.9782227,39.6827148 35.4380859,37.6477539 L37.4509766,39.6606445 C37.1728516,40.7024414 37.4424805,41.8614258 38.2577148,42.6776367 C39.4742188,43.8941406 41.4566406,43.8986328 42.6776367,42.6776367 C43.8963867,41.4588867 43.8963867,39.4764648 42.6776367,38.2577148 C41.8613281,37.4423828 40.7024414,37.1728516 39.6606445,37.4509766 L37.6477539,35.4380859 C39.6827148,32.9782227 41.0136719,29.9158203 41.3320312,26.5625 L44.1699219,26.5625 C44.7109375,27.4960938 45.7207031,28.125 46.875,28.125 C48.5986328,28.125 50,26.7236328 50,25 C50,23.2763672 48.5986328,21.875 46.875,21.875 Z M19.8242188,24.21875 C18.3164063,24.21875 17.0898438,22.9921875 17.0898438,21.484375 C17.0898438,19.9765625 18.3164063,18.75 19.8242188,18.75 C21.3320313,18.75 22.5585938,19.9765625 22.5585938,21.484375 C22.5585938,22.9921875 21.3320313,24.21875 19.8242188,24.21875 Z M26.5625,33.59375 C24.8388672,33.59375 23.4375,32.1923828 23.4375,30.46875 C23.4375,28.7451172 24.8388672,27.34375 26.5625,27.34375 C28.2861328,27.34375 29.6875,28.7451172 29.6875,30.46875 C29.6875,32.1923828 28.2861328,33.59375 26.5625,33.59375 Z M32.03125,22.65625 C30.7392578,22.65625 29.6875,21.6044922 29.6875,20.3125 C29.6875,19.0205078 30.7392578,17.96875 32.03125,17.96875 C33.3232422,17.96875 34.375,19.0205078 34.375,20.3125 C34.375,21.6044922 33.3232422,22.65625 32.03125,22.65625 Z" id="Shape"></path> </g> </g> </svg> 