<?xml version="1.0" encoding="UTF-8"?> <svg xmlns="http://www.w3.org/2000/svg" width="60" height="60" viewBox="0 0 60 60" fill="none"> <g id="Artboard_20 Copy 27"> <g id="Frame" clip-path="url(#clip0_104_186)"> <g id="Group"> <path id="Vector" d="M16.4634 27.576C20.4853 27.576 23.7457 24.313 23.7457 20.288C23.7457 16.2629 20.4853 13 16.4634 13C12.4415 13 9.18115 16.2629 9.18115 20.288C9.18115 24.313 12.4415 27.576 16.4634 27.576Z" fill="#00A1A0"></path> <path id="Vector_2" d="M38.0564 42.3903C36.8142 42.3903 30.3497 42.3903 30.3497 42.3903C30.3497 42.3903 29.6199 42.2297 27.8861 39.8418C26.0901 36.9981 20.2363 28.8658 15.7334 29.3475C15.7334 29.3475 8.99463 29.3734 8.99463 36.0864C8.99463 42.7995 8.99463 48 8.99463 48H24.3459V44.8714L26.9958 47.9948L38.4239 48C38.4239 48 41.3274 48.0984 41.3274 45.0941C41.3326 43.0481 39.2986 42.3903 38.0564 42.3903Z" fill="#00A1A0"></path> <path id="Vector_3" d="M49.5156 28.2546H34.8423C33.5018 28.2546 32.4046 29.3216 32.358 30.6528L30.4585 40.9658C30.5465 41.0435 30.6189 41.1057 30.6707 41.1471C30.9968 41.1471 31.5402 41.1471 32.1924 41.1471L34.0763 30.9015L34.0919 30.8238V30.7461C34.0919 30.3369 34.4283 30.0002 34.8372 30.0002H49.5104C49.8986 30.0002 50.2195 30.3006 50.2505 30.6839L47.5643 45.2806L47.5488 45.3583V45.436C47.5488 45.8452 47.2124 46.1819 46.8035 46.1819H42.4507C42.3006 46.8553 42.0056 47.4458 41.5812 47.9223H46.8035C48.144 47.9223 49.2412 46.8553 49.2878 45.5241L51.9792 30.9015L51.9947 30.8238V30.7461C51.9999 29.3734 50.8871 28.2546 49.5156 28.2546Z" fill="#00A1A0"></path> </g> </g> </g> <defs> <clipPath id="clip0_104_186"> <rect width="43" height="35" fill="white" transform="translate(9 13)"></rect> </clipPath> </defs> </svg> 