<?xml version="1.0" encoding="UTF-8"?> <svg xmlns="http://www.w3.org/2000/svg" xmlns:xlink="http://www.w3.org/1999/xlink" width="60px" height="60px" viewBox="0 0 60 60"> <title>Artboard_20 Copy 10</title> <g id="Artboard_20-Copy-10" stroke="none" stroke-width="1" fill="none" fill-rule="evenodd"> <rect id="Rectangle" fill="#FFFFFF" x="0" y="0" width="60" height="60"></rect> <g id="charity" transform="translate(6.000000, 10.000000)" fill="#009ED0" fill-rule="nonzero"> <path d="M34.7537254,1.85840217 C33.4135691,0.602967391 31.6974142,0 29.9680369,0 C28.0213304,0 26.0567135,0.764021739 24.5913045,2.22223913 L23.961675,2.84852174 L23.3320456,2.222 C21.8666366,0.764380435 19.9020197,0 17.9553132,0 C16.2255752,0 14.5102617,0.602967391 13.1696247,1.85840217 C10.221377,4.6196413 10.1687276,9.2368913 13.0117966,12.0648478 L23.9617952,22.9565217 L34.9116737,12.0648478 C37.7547427,9.23677174 37.7020932,4.61952174 34.7537254,1.85840217 Z" id="Path"></path> <path d="M21.3530324,41.7391304 L21.344732,31.0857924 C21.344732,25.9407748 18.697143,22.9243473 15.1903446,21.7881707 C14.2116094,21.4933266 13.334732,20.7186822 12.5191589,19.9065035 C11.0374197,18.3704343 9.45334858,16.2695816 7.40137229,16.2956666 L7.39947506,16.2878765 C6.73010747,16.2966109 6.06085846,16.5373963 5.48054226,17.1150452 C4.11963316,18.4696992 4.66947506,20.5393915 5.84315095,21.7076728 L9.65564107,25.5022857 C10.0113723,25.8563818 10.2114118,26.3367723 10.2114118,26.8375824 C10.2114118,27.3385105 10.0113723,27.8187829 9.65564107,28.1729972 L4.5016885,23.0429696 C3.60595727,22.1514734 2.99730115,20.946248 2.83141182,19.7366554 C2.62485056,18.22974 3.08896123,16.8245683 4.13848692,15.7798665 C4.92453435,14.997432 5.8889217,14.555756 6.94081893,14.4440977 L6.17101656,11.3491789 C6.11267664,-0.136285136 0.483941465,1.26688004 0.483941465,3.96875201 L0.483467156,24.1320514 C0.483467156,25.3843716 0.970818935,26.5646923 1.85635253,27.4553622 C11.2813328,36.9238944 9.96963316,33.8734737 9.96963316,41.7391304 L21.3530324,41.7391304 Z" id="Path"></path> <path d="M47.4395146,3.9686965 C47.4395146,1.26693859 41.8107794,-0.136346675 41.7524395,11.3492523 L40.9826371,14.4441756 C42.0345343,14.5558341 42.9989217,14.9973927 43.7849691,15.7799464 C44.8344948,16.8246497 45.2987241,18.2298235 45.0920442,19.7367411 C44.9262735,20.9463355 44.3176174,22.1515626 43.4217676,23.0430601 L38.267815,28.1730953 C37.9120838,27.8187625 37.7120442,27.3386073 37.7120442,26.8376785 C37.7120442,26.3369858 37.9120838,25.8564765 38.267815,25.5023798 L42.0803051,21.7077614 C43.253981,20.5394783 43.8038229,18.469665 42.4429138,17.1151271 C41.8625976,16.5374773 41.19323,16.2966915 40.523981,16.2879572 L40.5220838,16.2957473 C38.4701075,16.2696622 36.8860363,18.370518 35.4042972,19.9065895 C34.5886055,20.7187693 33.711728,21.4932969 32.7331114,21.7882594 C29.226313,22.9243197 26.5787241,25.9408696 26.5787241,31.0857768 L26.5704237,41.7391304 L37.9538229,41.7391304 C37.9538229,33.8736982 36.6421233,36.9240053 46.0671035,27.4553412 C46.9527557,26.5645519 47.4399889,25.3842296 47.4399889,24.1320255 L47.4395146,3.9686965 Z" id="Path"></path> </g> </g> </svg> 