<?xml version="1.0" encoding="UTF-8"?> <svg xmlns="http://www.w3.org/2000/svg" xmlns:xlink="http://www.w3.org/1999/xlink" width="60px" height="60px" viewBox="0 0 60 60"> <title>Artboard_17 Copy 2</title> <g id="Artboard_17-Copy-2" stroke="none" stroke-width="1" fill="none" fill-rule="evenodd"> <rect id="Rectangle" fill="#FFFFFF" x="0" y="0" width="60" height="60"></rect> <g id="city-map" transform="translate(5.000000, 13.000000)" fill="#006CB2" fill-rule="nonzero"> <polygon id="Path" points="10.5392157 8.33333333 10.5392157 22.0588235 23.5294118 22.0588235 23.5294118 15.6640344 18.8842901 8.33333333"></polygon> <polygon id="Path" points="10.5392157 25 23.5294118 25 23.5294118 33.3921569 10.5392157 33.3921569"></polygon> <polygon id="Path" points="26.4705882 25 39.4607843 25 39.4607843 33.3921569 26.4705882 33.3921569"></polygon> <polygon id="Path" points="26.4705882 16.6666667 39.4607843 16.6666667 39.4607843 22.0588235 26.4705882 22.0588235"></polygon> <polygon id="Path" points="0 0 7.59803922 0 7.59803922 5.39215686 0 5.39215686"></polygon> <polygon id="Path" points="10.5392157 0 18.1372549 0 18.1372549 5.39215686 10.5392157 5.39215686"></polygon> <polygon id="Path" points="0 8.33333333 7.59803922 8.33333333 7.59803922 33.3921569 0 33.3921569"></polygon> <polygon id="Path" points="42.4019608 16.6666667 50 16.6666667 50 33.3921569 42.4019608 33.3921569"></polygon> <polygon id="Path" points="42.4019608 0 50 0 50 13.7254902 42.4019608 13.7254902"></polygon> <polygon id="Path" points="23.4885074 0 21.0784314 0 21.0784314 6.43190673 25.7443803 13.7254902 39.4607843 13.7254902 39.4607843 0"></polygon> </g> </g> </svg> 