<?xml version="1.0" encoding="UTF-8"?> <svg xmlns="http://www.w3.org/2000/svg" xmlns:xlink="http://www.w3.org/1999/xlink" width="60px" height="60px" viewBox="0 0 60 60"> <!-- Generator: Sketch 62 (91390) - https://sketch.com --> <title>Artboard_14</title> <desc>Created with Sketch.</desc> <defs> <polygon id="path-1" points="0.0869121212 0.881630303 18.4587273 0.881630303 18.4587273 15.0025697 0.0869121212 15.0025697"></polygon> <polygon id="path-3" points="0.0866515152 0.244969697 18.4587273 0.244969697 18.4587273 21.9221818 0.0866515152 21.9221818"></polygon> </defs> <g id="Artboard_14" stroke="none" stroke-width="1" fill="none" fill-rule="evenodd"> <rect id="Rectangle" fill="#FFFFFF" x="0" y="0" width="60" height="60"></rect> <rect id="Rectangle-Copy" fill="#FFFFFF" x="0" y="0" width="60" height="60"></rect> <g id="Group-12" transform="translate(9.000000, 11.000000)"> <path d="M25.5633697,0.823460606 L20.0437333,0.823460606 C19.8430667,0.823460606 19.6541273,0.902945455 19.5134,1.04367273 L18.9843697,1.57270303 L18.4553394,1.04367273 C18.3146121,0.902945455 18.1230667,0.824763636 17.9263091,0.823460606 L10.2801273,0.823460606 C8.58097576,0.823460606 5.73515758,0.823460606 2.86718788,3.6914303 C0.00182424242,6.55549091 0.00182424242,9.18500606 0.000521212121,11.1030667 C0.000521212121,11.4066727 0.181642424,11.6790061 0.461793939,11.7936727 C0.741945455,11.9109455 1.06509697,11.8457939 1.27879394,11.632097 C5.55012727,7.36206667 7.85649091,8.68073333 9.22076364,10.043703 C10.353097,11.1773394 10.5746121,12.6823394 10.6045818,13.5306121 L17.5223697,13.5306121 C17.8259758,11.9617636 18.4084303,9.88473333 19.0834,9.31921818 L19.8091879,10.043703 C19.9499152,10.1857333 20.1414606,10.2639152 20.3382182,10.2652182 L25.6337333,10.2652182 C25.8304909,10.2639152 26.0220364,10.1857333 26.1627636,10.043703 L26.1810061,10.0254606 C26.3230364,9.87430909 26.3960061,9.67233939 26.3803697,9.46646061 L26.3113091,1.52449091 C26.2852485,1.12967273 25.9594909,0.824763636 25.5633697,0.823460606 L0.461793939,16.8659668" id="Fill-1" fill="#0071BC"></path> <g id="Group-5" transform="translate(13.903209, 27.354392) rotate(2.000000) translate(-13.903209, -27.354392) translate(9.403209, 15.354392)" fill="#0071BC"> <path d="M1.16574545,19.8335 C1.16574545,20.8655 1.56707879,21.8362576 2.35932121,22.627197 C3.86562424,24.134803 6.31532121,24.134803 7.82162424,22.627197 C8.59041212,21.8597121 9.00086667,20.7964394 8.95004848,19.7123182 L7.99362424,0.261984848 L0.829133995,0.512174361 L1.16574545,19.8335 Z" id="Fill-3"></path> </g> <g id="Group-8" transform="translate(23.454545, 23.512997)"> <mask id="mask-2" fill="white"> <use xlink:href="#path-1"></use> </mask> <g id="Clip-7"></g> <path d="M0.0869121212,13.8467818 C0.0869121212,14.4852667 0.604215152,15.0025697 1.2427,15.0025697 L3.6937,15.0025697 C4.24748788,15.0025697 4.72439697,14.6077515 4.82863939,14.0630848 L5.65345758,9.73441818 L6.50694242,14.0696 C6.61379091,14.6116606 7.08809394,15.0025697 7.64057879,15.0025697 L12.9582455,15.0025697 C13.4481848,15.0025697 13.886003,14.6911455 14.0475788,14.2285697 L14.2860333,13.5483879 L14.5544576,14.2559333 C14.7238515,14.7054788 15.1538515,15.0025697 15.6346697,15.0025697 L17.3038515,15.0025697 C17.9410333,15.0025697 18.4596394,14.4852667 18.4596394,13.8467818 L18.4596394,0.881630303 L0.0869121212,0.881630303 L0.0869121212,13.8467818 Z" id="Fill-6" fill="#0071BC" mask="url(#mask-2)"></path> </g> <g id="Group-11" transform="translate(23.454545, 0.058452)"> <mask id="mask-4" fill="white"> <use xlink:href="#path-3"></use> </mask> <g id="Clip-10"></g> <path d="M7.64031818,4.515 C7.64031818,3.61330303 8.37131818,2.88360606 9.27301515,2.88360606 C10.1734091,2.88360606 10.9057121,3.61330303 10.9057121,4.515 C10.9057121,5.41669697 10.1734091,6.14769697 9.27301515,6.14769697 C8.37131818,6.14769697 7.64031818,5.41669697 7.64031818,4.515 L7.64031818,4.515 Z M18.4593788,21.9221818 L18.4593788,18.1694545 C18.4593788,17.8632424 18.3368939,17.5700606 18.1205909,17.3524545 C17.9042879,17.1361515 17.609803,17.0149697 17.3035909,17.0149697 L13.7437121,17.0149697 C13.0570152,17.0149697 12.4172273,16.7074545 11.9885303,16.1719091 C11.5598333,15.6376667 11.3995606,14.9457576 11.546803,14.276 C13.4427121,5.70987879 13.4427121,4.73521212 13.4427121,4.41466667 C13.4427121,2.11612121 11.5728636,0.244969697 9.27301515,0.244969697 C6.97056061,0.244969697 5.10201515,2.11742424 5.10201515,4.41466667 C5.10201515,4.73521212 5.10201515,5.71118182 6.99922727,14.276 C7.1464697,14.9444545 6.98489394,15.6350606 6.55619697,16.1706061 C6.12489394,16.7061515 5.48640909,17.0149697 4.80231818,17.0149697 L1.24243939,17.0149697 C0.605257576,17.0149697 0.0866515152,17.5322727 0.0866515152,18.1694545 L0.0866515152,21.9221818 L18.4593788,21.9221818 Z" id="Fill-9" fill="#0071BC" mask="url(#mask-4)"></path> </g> </g> </g> </svg> 