<?xml version="1.0" encoding="UTF-8"?> <svg xmlns="http://www.w3.org/2000/svg" width="60" height="60" viewBox="0 0 60 60" fill="none"> <g id="Artboard_20 Copy"> <rect width="60" height="60" fill="white"></rect> <g id="Frame" clip-path="url(#clip0_103_46)"> <g id="Group"> <path id="Vector" fill-rule="evenodd" clip-rule="evenodd" d="M38.2631 8.22736C32.7303 7.16087 27.1832 6.12245 21.636 5.09806C20.9732 4.97177 20.2528 4.95773 19.59 5.08403C17.5873 5.50501 16.5211 6.82409 16.1321 8.74657C13.8123 20.52 11.4638 32.2795 9.12965 44.0389C9.10083 44.1792 9.07202 44.3055 9.05761 44.4459C8.68299 46.8735 10.1814 48.9363 12.6597 49.3994C18.3221 50.4659 23.9845 51.5324 29.6614 52.5989C32.1828 53.076 34.3729 51.6166 34.8628 49.1609C36.0442 43.1829 37.2401 37.219 38.4216 31.2411C39.6031 25.2912 40.7845 19.3273 41.966 13.3774C42.0092 13.1388 42.0669 12.9003 42.0669 12.6617C42.1677 10.4586 40.6837 8.69044 38.2631 8.22736ZM27.212 9.93936C28.5375 10.1498 29.8487 10.4024 31.1598 10.6831C31.3327 10.7252 31.448 11.0199 31.5921 11.2023C31.3904 11.2865 31.1887 11.483 31.0013 11.4549C30.3386 11.3707 29.6758 11.2304 29.0274 11.1041C28.3646 10.9778 27.7019 10.8796 27.0535 10.7112C26.8806 10.6691 26.7509 10.4165 26.6068 10.2621C26.8086 10.1498 27.0391 9.91129 27.212 9.93936ZM25.6127 9.6587C25.7712 9.67274 25.9008 9.91129 26.1602 10.1639C25.8288 10.3042 25.6127 10.4726 25.4686 10.4305C25.3101 10.3884 25.2236 10.1358 25.094 9.96742C25.2669 9.85516 25.4542 9.64467 25.6127 9.6587ZM39.0123 16.7452C37.1248 26.1472 35.2662 35.5351 33.3931 44.937C33.3643 45.1054 33.3211 45.2738 33.2923 45.4703C26.189 44.1371 19.129 42.804 11.9969 41.4569C13.942 31.6901 15.8727 21.9374 17.8178 12.1706C18.0051 12.1986 18.1492 12.2127 18.3077 12.2407C25.0507 13.5037 31.7794 14.7807 38.5224 16.0436C39.0267 16.1278 39.0988 16.2962 39.0123 16.7452Z" fill="#006CB2"></path> <g id="Group_2"> <path id="Vector_2" d="M33.7101 27.1858C33.4363 30.68 30.3242 33.2901 26.7365 33.0375C23.1489 32.7708 20.4689 29.7398 20.7283 26.2456C21.002 22.7515 24.1142 20.1414 27.7019 20.394C31.2895 20.6606 33.9694 23.7057 33.7101 27.1858Z" fill="white"></path> <path id="Vector_3" d="M27.2265 34.0197C27.0392 34.0197 26.8519 34.0197 26.6646 34.0057C24.6618 33.8654 22.8464 32.9673 21.5352 31.4938C20.2241 30.0204 19.5901 28.126 19.7342 26.1894C20.0224 22.4006 23.3074 19.4257 27.1977 19.4257C27.385 19.4257 27.5723 19.4257 27.7596 19.4397C31.8803 19.7344 34.9781 23.2426 34.6755 27.27C34.4018 31.0588 31.1167 34.0197 27.2265 34.0197ZM27.2121 21.3481C24.3448 21.3481 21.9387 23.5373 21.7225 26.3157C21.6073 27.7471 22.0827 29.1363 23.0481 30.2168C24.0134 31.2974 25.339 31.9569 26.8086 32.0692C26.9527 32.0832 27.0824 32.0832 27.2265 32.0832C30.0937 32.0832 32.4999 29.8941 32.716 27.1156C32.9465 24.1687 30.6556 21.5867 27.6299 21.3622C27.4858 21.3622 27.3417 21.3481 27.2121 21.3481Z" fill="#006CB2"></path> </g> <path id="Vector_4" d="M32.2548 31.2131L29.9351 28.9679L32.2404 26.7227L34.5457 28.9679L32.2548 31.2131Z" fill="url(#paint0_radial_103_46)"></path> <g id="Group_3"> <path id="Vector_5" d="M43.2195 54.5216C39.4734 55.7424 35.4679 55.2794 32.7879 53.3007L32.7447 53.2727C32.4565 53.0482 32.4565 53.0481 24.7481 45.1056C21.3766 41.6255 21.2613 41.415 21.1029 41.1344C20.224 39.5066 20.8435 37.3736 22.4716 36.3913C22.731 36.2229 23.0336 36.0966 23.3505 35.9843C24.143 35.7317 24.9931 35.6896 25.7711 35.844C25.5982 35.3388 22.7742 26.9613 22.7742 26.9613L22.8751 26.0772C23.0768 24.3793 24.1862 23.0461 25.8576 22.5129C27.5145 21.9797 29.2291 22.3866 30.4394 23.6215L31.0734 24.267C31.0734 24.267 32.6294 28.7434 32.6439 28.7855C34.0126 28.4207 35.4967 28.7575 36.5917 29.6415C36.7214 29.5854 36.8366 29.5433 36.9663 29.5012C38.4071 29.0381 40.0209 29.3468 41.1879 30.287C41.3032 30.2449 41.4329 30.1888 41.5481 30.1467C43.2051 29.6135 44.9197 30.0204 46.13 31.2553L46.7639 31.9008L48.8531 37.963C50.7262 43.4077 50.8703 43.8286 50.9423 44.4882L50.9567 44.5724V44.6566C51.144 49.0769 48.0895 52.9499 43.2195 54.5216Z" fill="white"></path> </g> <path id="Vector_6" d="M23.6965 47.1824C23.6965 48.3471 22.7311 49.2873 21.5353 49.2873C20.3394 49.2873 19.374 48.3471 19.374 47.1824C19.374 46.0177 20.3394 45.0775 21.5353 45.0775C22.7167 45.0775 23.6965 46.0177 23.6965 47.1824Z" fill="white"></path> <path id="Vector_7" d="M27.1545 30.5817H23.8838V34.6371H27.1545V30.5817Z" fill="url(#paint1_radial_103_46)"></path> <g id="Group_4"> <path id="Vector_8" d="M34.1998 51.4905C34.0557 51.3782 33.3209 50.6205 26.4626 43.548C24.7336 41.7658 23.264 40.2082 23.1919 40.0819C22.8893 39.5065 23.1343 38.6786 23.7106 38.3278C24.2293 38.0191 25.0073 37.9489 25.5549 38.1594C25.9439 38.3138 26.4049 38.6786 27.2262 39.4644C27.961 40.1801 28.6959 40.7414 28.9264 40.7835C29.1713 40.8256 29.3875 40.7414 29.5604 40.5309C29.6468 40.4327 29.7188 40.3345 29.7332 40.3345C29.7332 40.3204 28.7103 37.2613 27.4567 33.5286L25.1658 26.7367L25.2091 26.3438C25.3099 25.5299 25.8142 24.9265 26.6067 24.6739C27.3991 24.4213 28.1772 24.6038 28.7535 25.1931L29.0272 25.4738L30.3816 29.3749C31.7072 33.2058 31.736 33.276 31.736 32.9392C31.736 32.2235 32.053 31.6622 32.6581 31.2553C33.4506 30.722 34.5888 30.8483 35.2804 31.564C35.5398 31.8306 35.583 31.9148 35.9288 32.8831L36.3034 33.9215V33.5847C36.3034 32.869 36.6204 32.3077 37.2255 31.9008C38.018 31.3675 39.1562 31.4938 39.8478 32.2095C40.1072 32.4761 40.1504 32.5603 40.5394 33.6128C40.77 34.2302 40.9429 34.6512 40.914 34.553C40.8276 34.2443 40.9573 33.5707 41.159 33.2199C41.4471 32.7428 41.7353 32.4902 42.2828 32.3218C43.0753 32.0692 43.8389 32.2516 44.4296 32.855L44.7034 33.1357L46.6341 38.7067C48.3199 43.6041 48.5648 44.3338 48.608 44.7408C48.8818 51.715 39.0266 55.0268 34.1998 51.4905Z" fill="#006CB2"></path> </g> </g> </g> </g> <defs> <radialGradient id="paint0_radial_103_46" cx="0" cy="0" r="1" gradientUnits="userSpaceOnUse" gradientTransform="translate(32.2443 28.9676) rotate(44.2436) scale(2.18913 2.18837)"> <stop stop-color="white"></stop> <stop offset="0.5942" stop-color="#FDFDFD"></stop> <stop offset="0.808" stop-color="#F6F6F6"></stop> <stop offset="0.9601" stop-color="#EBEBEB"></stop> <stop offset="1" stop-color="#E6E6E6"></stop> </radialGradient> <radialGradient id="paint1_radial_103_46" cx="0" cy="0" r="1" gradientUnits="userSpaceOnUse" gradientTransform="translate(25.5245 32.6132) scale(2.21789 2.7606)"> <stop stop-color="white"></stop> <stop offset="0.5942" stop-color="#FDFDFD"></stop> <stop offset="0.808" stop-color="#F6F6F6"></stop> <stop offset="0.9601" stop-color="#EBEBEB"></stop> <stop offset="1" stop-color="#E6E6E6"></stop> </radialGradient> <clipPath id="clip0_103_46"> <rect width="42" height="50.1951" fill="white" transform="translate(9 5)"></rect> </clipPath> </defs> </svg> 