<?xml version="1.0" encoding="UTF-8"?> <svg xmlns="http://www.w3.org/2000/svg" xmlns:xlink="http://www.w3.org/1999/xlink" width="60px" height="60px" viewBox="0 0 60 60"> <title>Artboard_20 Copy 7</title> <g id="Artboard_20-Copy-7" stroke="none" stroke-width="1" fill="none" fill-rule="evenodd"> <rect id="Rectangle" fill="#FFFFFF" x="0" y="0" width="60" height="60"></rect> <g id="smart-city" transform="translate(12.000000, 7.000000)" fill="#009ED0" fill-rule="nonzero"> <path d="M19.2978723,3.56670389 C16.670046,1.26678022 13.335023,0 10,0 C6.66497699,0 3.32995398,1.26678022 0.70212766,3.56670389 L2.39409371,5.87234043 C4.57650433,3.96345303 7.28825216,2.89219094 10,2.89219094 C12.7117478,2.89219094 15.4235859,3.96345303 17.6059063,5.87234043 L19.2978723,3.56670389 Z" id="Path"></path> <path d="M16.3617021,7.78147042 C13.0431372,5.23596376 7.93549669,5.23596376 4.61702128,7.78147042 L6.29595851,9.78723404 C8.70153979,7.94213373 12.2771836,7.94213373 14.6827649,9.78723404 L16.3617021,7.78147042 Z" id="Path"></path> <path d="M7.55319149,11.6162411 L9.18700709,13.7021277 C9.5106383,13.4382934 10.4893617,13.4382934 10.8130799,13.7021277 L12.4468085,11.6162411 C11.06546,10.4825296 8.93471395,10.4825296 7.55319149,11.6162411 L7.55319149,11.6162411 Z" id="Path"></path> <path d="M20.2765957,46 L20.2765957,16.6382979 L0.70212766,16.6382979 L0.70212766,46 L9.09118541,46 L9.09118541,37.8636247 L11.887538,37.8636247 L11.887538,46 L20.2765957,46 Z M9.09118541,35.2104589 L6.29483283,35.2104589 L6.29483283,32.557293 L9.09118541,32.557293 L9.09118541,35.2104589 Z M9.09118541,29.9041271 L6.29483283,29.9041271 L6.29483283,27.2509613 L9.09118541,27.2509613 L9.09118541,29.9041271 Z M9.09118541,24.5977954 L6.29483283,24.5977954 L6.29483283,21.9446296 L9.09118541,21.9446296 L9.09118541,24.5977954 Z M11.887538,21.9446296 L14.6838906,21.9446296 L14.6838906,24.5977954 L11.887538,24.5977954 L11.887538,21.9446296 Z M11.887538,27.2509613 L14.6838906,27.2509613 L14.6838906,29.9041271 L11.887538,29.9041271 L11.887538,27.2509613 Z M11.887538,32.557293 L14.6838906,32.557293 L14.6838906,35.2104589 L11.887538,35.2104589 L11.887538,32.557293 Z" id="Shape"></path> <polygon id="Path" points="22.2340426 21.9446296 35.2340426 27.2509613 35.2340426 46 22.2340426 46"></polygon> </g> </g> </svg> 