<?xml version="1.0" encoding="UTF-8"?> <svg xmlns="http://www.w3.org/2000/svg" width="60" height="60" viewBox="0 0 60 60" fill="none"> <g id="Artboard_20 Copy"> <rect width="60" height="60" fill="white"></rect> <g id="Frame" clip-path="url(#clip0_103_91)"> <g id="Group"> <path id="Vector" d="M32.2118 5.36449L32.1882 9.78802C19.0353 10.7057 10 18.9645 10 29.0115C10 31.4351 10.5882 33.741 11.6706 35.8586C15.6706 29.7645 22.5882 25.4821 32.1176 25.0586V29.4586C32.1176 30.941 33.2235 31.2704 34.5882 30.2115L48.4941 19.4115C49.8588 18.3527 49.8824 16.6115 48.5176 15.5527L34.6824 4.63507C33.3176 3.55272 32.2118 3.88213 32.2118 5.36449Z" fill="#009ED0"></path> <path id="Vector_2" d="M27.8117 55.2L27.8352 50.7765C40.9882 49.8588 50.0235 41.6 50.0235 31.5294C50.0235 29.1059 49.4352 26.8 48.3529 24.6824C44.3529 30.7765 37.4352 35.0588 27.9058 35.4824L27.9294 31.0824C27.9294 29.6 26.8235 29.2706 25.4588 30.3294L11.5058 41.1294C10.1411 42.1883 10.1176 43.9294 11.4823 44.9883L25.3411 55.9059C26.6823 56.9883 27.8117 56.6588 27.8117 55.2Z" fill="#009ED0"></path> </g> </g> </g> <defs> <clipPath id="clip0_103_91"> <rect width="40" height="52.5412" fill="white" transform="translate(10 4)"></rect> </clipPath> </defs> </svg> 