<?xml version="1.0" encoding="UTF-8"?> <svg xmlns="http://www.w3.org/2000/svg" xmlns:xlink="http://www.w3.org/1999/xlink" width="60px" height="60px" viewBox="0 0 60 60"> <title>Artboard_17 Copy</title> <g id="Artboard_17-Copy" stroke="none" stroke-width="1" fill="none" fill-rule="evenodd"> <rect id="Rectangle" fill="#FFFFFF" x="0" y="0" width="60" height="60"></rect> <g id="tram" transform="translate(13.000000, 7.000000)" fill="#006CB2" fill-rule="nonzero"> <path d="M19.6798548,7.08524446 L21.4595325,3.52499725 L29.1202014,3.52499725 L29.1202014,0 L5.548836,0 L5.548836,3.52499725 L16.7452152,3.52499725 L14.9538255,7.08524446 C7.57590293,7.30853101 0.834518717,8.77724314 0.834518717,15.2750248 L0.834518717,35.1089726 C0.834518717,38.5047566 3.62772989,41.3482177 6.93947507,42.1002538 L3.19162211,45.8249642 L3.19162211,47 L8.44800799,47 L13.1623253,42.299967 L22.0487808,42.299967 L26.763098,47 L31.4774153,47 L31.4774153,45.8249642 L27.941705,42.299967 L27.7530969,42.299967 C31.7366271,42.299967 33.8345187,39.0687562 33.8345187,35.1089726 L33.8345187,15.2750248 C33.8345187,8.7067432 27.6823827,7.28495759 19.6798548,7.08524446 Z M17.3344635,38.7749697 C15.3780003,38.7749697 13.7987531,37.2005077 13.7987531,35.2499725 C13.7987531,33.2994373 15.3780003,31.7249752 17.3344635,31.7249752 C19.2909267,31.7249752 20.8701738,33.2994373 20.8701738,35.2499725 C20.8701738,37.2005077 19.2909267,38.7749697 17.3344635,38.7749697 Z M29.1202014,28.199978 L5.548836,28.199978 L5.548836,16.4499504 L29.1202014,16.4499504 L29.1202014,28.199978 Z" id="Shape"></path> </g> </g> </svg> 