<?xml version="1.0" encoding="UTF-8"?> <svg xmlns="http://www.w3.org/2000/svg" xmlns:xlink="http://www.w3.org/1999/xlink" width="60px" height="60px" viewBox="0 0 60 60"> <title>Artboard_20 Copy 2</title> <g id="Artboard_20-Copy-2" stroke="none" stroke-width="1" fill="none" fill-rule="evenodd"> <g id="building" transform="translate(9.000000, 11.000000)" fill="#009ED0" fill-rule="nonzero"> <g id="Group" transform="translate(34.304034, 4.300000)"> <path d="M0.0263626168,6.36863029 L0.0263626168,33.467492 L8.6,33.467492 L8.6,6.36863029 L0.0263626168,6.36863029 Z M3.08314019,11.3566926 L5.49435514,11.3566926 L5.49435514,13.7871274 L3.08314019,13.7871274 L3.08314019,11.3566926 Z M5.49435514,24.758191 L3.08314019,24.758191 L3.08314019,22.3277562 L5.49435514,22.3277562 L5.49435514,24.758191 Z M5.52771028,19.2726187 L3.11649533,19.2726187 L3.11649533,16.8421839 L5.52771028,16.8421839 L5.52771028,19.2726187 Z" id="Shape"></path> <polygon id="Path" points="0.0441252336 0.0416414493 8.6 0.0416414493 8.6 3.93827652 0.0441252336 3.93827652"></polygon> </g> <path d="M0.764194827,1.72 L0.764034335,37.84 L9.36387384,37.84 L9.36403433,4.21881328 L0.764194827,1.72 Z M3.85785163,9.92540965 L6.26524176,9.92540965 L6.26524176,12.3845488 L3.85785163,12.3845488 L3.85785163,9.92540965 Z M6.2677294,29.0354621 L3.86033927,29.0354621 L3.86033927,26.5763229 L6.2677294,26.5763229 L6.2677294,29.0354621 Z M6.2677294,23.485185 L3.86033927,23.485185 L3.86033927,21.0260458 L6.2677294,21.0260458 L6.2677294,23.485185 Z M6.28305645,17.9348259 L3.87566632,17.9348259 L3.87566632,15.4756867 L6.28305645,15.4756867 L6.28305645,17.9348259 Z" id="Shape"></path> <g id="Group" transform="translate(11.944034, 0.000000)"> <polygon id="Path" points="6.00911392 31.0681828 8.51291139 31.0681828 8.51291139 37.7673245 6.00911392 37.7673245"></polygon> <polygon id="Path" points="11.0167089 31.0681828 13.5205063 31.0681828 13.5205063 37.7673245 11.0167089 37.7673245"></polygon> <path d="M0.0809561181,0.0726755365 L0.0809561181,37.7673245 L3.50531646,37.7673245 L3.50531646,28.6321313 L16.0243038,28.6321313 L16.0243038,37.7673245 L19.7215781,37.7673245 L19.7215781,0.0726755365 L0.0809561181,0.0726755365 Z M6.00911392,24.9780541 L3.50531646,24.9780541 L3.50531646,19.8014446 L6.00911392,19.8014446 L6.00911392,24.9780541 Z M6.00911392,17.3653931 L3.50531646,17.3653931 L3.50531646,12.1887837 L6.00911392,12.1887837 L6.00911392,17.3653931 Z M6.00911392,9.75273219 L3.50531646,9.75273219 L3.50531646,4.57612275 L6.00911392,4.57612275 L6.00911392,9.75273219 Z M11.0167089,24.9780541 L8.51291139,24.9780541 L8.51291139,19.8014446 L11.0167089,19.8014446 L11.0167089,24.9780541 Z M11.0167089,17.3653931 L8.51291139,17.3653931 L8.51291139,12.1887837 L11.0167089,12.1887837 L11.0167089,17.3653931 Z M11.0167089,9.75273219 L8.51291139,9.75273219 L8.51291139,4.57612275 L11.0167089,4.57612275 L11.0167089,9.75273219 Z M16.0243038,24.9780541 L13.5205063,24.9780541 L13.5205063,19.8014446 L16.0243038,19.8014446 L16.0243038,24.9780541 Z M16.0243038,17.3653931 L13.5205063,17.3653931 L13.5205063,12.1887837 L16.0243038,12.1887837 L16.0243038,17.3653931 Z M16.0243038,9.75273219 L13.5205063,9.75273219 L13.5205063,4.57612275 L16.0243038,4.57612275 L16.0243038,9.75273219 Z" id="Shape"></path> </g> </g> </g> </svg> 