<?xml version="1.0" encoding="UTF-8"?> <svg xmlns="http://www.w3.org/2000/svg" width="60" height="60" viewBox="0 0 60 60" fill="none"> <path d="M60 0H0V60H60V0Z" fill="white"></path> <g clip-path="url(#clip0)"> <path fill-rule="evenodd" clip-rule="evenodd" d="M21.9416 36.0894C21.9416 36.0924 21.9417 36.0955 21.9417 36.0985C21.9417 36.1015 21.9416 36.1046 21.9416 36.1076V36.1388H21.94C21.9306 36.2486 21.8831 36.3522 21.8051 36.4313L11.5801 46.7927C11.1981 47.1797 10.5391 46.9092 10.5391 46.3655V11.1472C10.5391 10.8113 10.8113 10.5391 11.1472 10.5391H21.3335C21.6694 10.5391 21.9417 10.8113 21.9417 11.1472V14.492L21.9416 14.5023V17.9784L21.9417 17.9888V19.053C21.9417 19.3889 21.6694 19.6611 21.3335 19.6611H15.7082C15.3724 19.6611 15.1001 19.9334 15.1001 20.2693V21.3335C15.1001 21.6694 15.3724 21.9417 15.7082 21.9417H21.3335C21.6694 21.9417 21.9417 22.2139 21.9417 22.5498V23.614L21.9416 23.6244V27.1005L21.9417 27.1108V28.1751C21.9417 28.511 21.6694 28.7832 21.3335 28.7832H15.7082C15.3724 28.7832 15.1001 29.0555 15.1001 29.3914V30.4556C15.1001 30.7915 15.3724 31.0637 15.7082 31.0637H21.3335C21.6694 31.0637 21.9417 31.336 21.9417 31.6719V32.7361C21.9417 32.7396 21.9416 32.7431 21.9416 32.7465V36.0894Z" fill="#006CB2"></path> <path fill-rule="evenodd" clip-rule="evenodd" d="M28.1761 37.9024V37.9023H28.1726H27.1083H23.7485L23.7057 37.9023V37.9043C23.5954 37.9144 23.4916 37.9631 23.4132 38.0426L13.1706 48.4217C12.7914 48.8059 13.0636 49.457 13.6035 49.457H48.8493C49.1852 49.457 49.4574 49.1847 49.4574 48.8488V38.5105C49.4574 38.1746 49.1852 37.9023 48.8493 37.9023H45.7329H45.3525H41.8557L41.2625 37.9023V37.9023H40.7915C40.4556 37.9023 40.1833 38.1746 40.1833 38.5105V44.1358C40.1833 44.4716 39.9111 44.7439 39.5752 44.7439H38.5109C38.1751 44.7439 37.9028 44.4716 37.9028 44.1358V38.5105C37.9028 38.1746 37.6305 37.9023 37.2947 37.9023H36.4297H36.2304H32.7336L31.9592 37.9023V37.9023H31.6694C31.3335 37.9023 31.0612 38.1746 31.0612 38.5105V44.1358C31.0612 44.4716 30.789 44.7439 30.4531 44.7439H29.3889C29.053 44.7439 28.7807 44.4716 28.7807 44.1358V38.5105C28.7807 38.1758 28.5104 37.9043 28.1761 37.9024Z" fill="#006CB2"></path> <path d="M41.6917 13.3184C41.4542 13.5559 41.4542 13.9409 41.6917 14.1784L45.6787 18.1654C45.9123 18.399 46.2897 18.4034 46.5287 18.1753L49.0031 15.8127C49.2527 15.5745 49.2542 15.1765 49.0065 14.9363L44.901 10.9559C44.6625 10.7246 44.2826 10.7276 44.0477 10.9625L41.6917 13.3184Z" fill="#006CB2"></path> <path d="M26.2274 28.7798C26.1607 28.8466 26.1104 28.9279 26.0805 29.0175L24.0917 34.9835C23.9332 35.4589 24.3855 35.9112 24.861 35.7527L30.8269 33.7639C30.9165 33.734 30.9979 33.6837 31.0646 33.617L31.5296 33.152C31.7671 32.9145 31.7671 32.5294 31.5296 32.2919L27.5525 28.3148C27.315 28.0773 26.9299 28.0773 26.6924 28.3148L26.2274 28.7798Z" fill="#006CB2"></path> <path d="M39.2198 15.7894C39.4573 15.5519 39.8424 15.5519 40.0799 15.7894L44.057 19.7665C44.2945 20.004 44.2945 20.3891 44.057 20.6266L34.0033 30.6801C33.7658 30.9176 33.3807 30.9176 33.1432 30.6801L29.1663 26.7029C28.9288 26.4654 28.9288 26.0804 29.1663 25.8429L39.2198 15.7894Z" fill="#006CB2"></path> </g> <defs> <clipPath id="clip0"> <rect x="10.5391" y="10.5391" width="38.9209" height="38.9209" rx="0.0380087" fill="white"></rect> </clipPath> </defs> </svg> 