<?xml version="1.0" encoding="UTF-8"?> <svg xmlns="http://www.w3.org/2000/svg" xmlns:xlink="http://www.w3.org/1999/xlink" width="60px" height="60px" viewBox="0 0 60 60"> <!-- Generator: Sketch 62 (91390) - https://sketch.com --> <title>Artboard_18</title> <desc>Created with Sketch.</desc> <defs> <polygon id="path-1" points="0.9197 0.936416667 15.5623667 0.936416667 15.5623667 10.4759667 0.9197 10.4759667"></polygon> <polygon id="path-3" points="0 0.726041667 33.48235 0.726041667 33.48235 11.6287083 0 11.6287083"></polygon> <polygon id="path-5" points="0.72505 0.492008333 32.70205 0.492008333 32.70205 15.5833333 0.72505 15.5833333"></polygon> </defs> <g id="Artboard_18" stroke="none" stroke-width="1" fill="none" fill-rule="evenodd"> <g id="Group-12" transform="translate(13.000000, 7.000000)"> <g id="Group-3" transform="translate(8.500000, 0.480675)"> <mask id="mask-2" fill="white"> <use xlink:href="#path-1"></use> </mask> <g id="Clip-2"></g> <path d="M8.24103333,3.52296667 C9.09245,3.52296667 9.7852,4.2228 9.7852,5.08413333 C9.7852,5.17621667 9.79511667,5.26546667 9.81211667,5.35188333 L6.66995,5.35188333 C6.68695,5.26546667 6.69828333,5.17621667 6.69828333,5.08413333 C6.69828333,4.2228 7.38961667,3.52296667 8.24103333,3.52296667 M8.24103333,9.03805 C10.7938667,9.03805 13.2702,9.53246667 15.5623667,10.4759667 L15.5623667,10.0084667 C15.5623667,7.91888333 14.1797,6.14663333 12.27995,5.55871667 C12.3380333,5.41138333 12.3720333,5.2513 12.3720333,5.08413333 C12.3720333,2.79763333 10.5190333,0.936133333 8.24103333,0.936133333 C5.96445,0.936133333 4.11003333,2.79763333 4.11003333,5.08413333 C4.11003333,5.25271667 4.14403333,5.41138333 4.20211667,5.55871667 C2.30378333,6.14663333 0.9197,7.91888333 0.9197,10.0084667 L0.9197,10.4759667 C3.21328333,9.53246667 5.68961667,9.03805 8.24103333,9.03805" id="Fill-1" fill="#006CB2" mask="url(#mask-2)"></path> </g> <g id="Group-6" transform="translate(0.000000, 21.730675)"> <mask id="mask-4" fill="white"> <use xlink:href="#path-3"></use> </mask> <g id="Clip-5"></g> <path d="M8.86776667,6.96220833 C9.29418333,6.530125 9.88635,6.28220833 10.4926833,6.28220833 L10.4941,6.28220833 C11.0891,6.283625 11.6515167,6.51029167 12.07935,6.92395833 L16.8506833,11.532375 L21.3471833,6.97070833 C21.7736,6.538625 22.3657667,6.29070833 22.9735167,6.29070833 L22.9749333,6.29070833 L22.99335,6.29070833 C23.58835,6.29070833 24.1507667,6.51879167 24.5786,6.93245833 L29.4406,11.6287083 L33.4426833,8.39304167 C33.4681833,8.009125 33.48235,7.62095833 33.48235,7.22854167 C33.48235,6.028625 33.3562667,4.85704167 33.1182667,3.72654167 L30.8516,5.548375 C30.4336833,5.884125 29.9279333,6.049875 29.4236,6.049875 C28.8484333,6.049875 28.2761,5.83595833 27.8369333,5.41095833 L22.9876833,0.726041667 L18.4812667,5.297625 C17.6071833,6.18445833 16.1664333,6.202875 15.2696833,5.33729167 L10.49835,0.727458333 L5.91968333,5.37129167 C5.11076667,6.19154167 3.8131,6.279375 2.90076667,5.57529167 L0.384766667,3.635875 C0.1326,4.79470833 -0.000566666667,5.99604167 -0.000566666667,7.22854167 C-0.000566666667,7.592625 0.0136,7.95245833 0.0362666667,8.310875 L4.26785,11.6272917 L8.86776667,6.96220833 Z" id="Fill-4" fill="#006CB2" mask="url(#mask-4)"></path> </g> <path d="M4.26643333,25.0938417 L8.86776667,20.4273417 C9.29418333,19.9952583 9.88635,19.7473417 10.4941,19.7473417 L10.4941,19.7473417 C11.0876833,19.7473417 11.6515167,19.975425 12.07935,20.387675 L16.8506833,24.9975083 L21.3471833,20.4358417 C21.7736,20.0037583 22.3657667,19.754425 22.9735167,19.754425 L22.9749333,19.754425 L22.99335,19.754425 C23.58835,19.7558417 24.1507667,19.983925 24.5786,20.3975917 L29.4406,25.0952583 L32.31785,22.7818417 C29.8656,16.5343417 23.8079333,12.104425 16.7416,12.104425 C9.69793333,12.1058417 3.65726667,16.5060083 1.18943333,22.720925 L4.26643333,25.0938417 Z" id="Fill-7" fill="#006CB2"></path> <g id="Group-11" transform="translate(0.000000, 30.230675)"> <mask id="mask-6" fill="white"> <use xlink:href="#path-5"></use> </mask> <g id="Clip-10"></g> <path d="M32.70205,3.81834167 L30.8547167,5.31150833 C29.9579667,6.03259167 28.6603,5.97309167 27.8358,5.17550833 L22.9879667,0.492008333 L18.48155,5.062175 C17.6074667,5.950425 16.1667167,5.96884167 15.2699667,5.10325833 L10.4986333,0.493425 L5.91996667,5.13725833 C5.47655,5.58634167 4.8858,5.81584167 4.29221667,5.81584167 C3.80346667,5.81584167 3.3133,5.66000833 2.90105,5.342675 C2.89821667,5.33984167 2.89538333,5.338425 2.89255,5.33559167 L0.72505,3.63700833 C2.81605,10.544675 9.20521667,15.5837583 16.7404667,15.5837583 C24.21055,15.5837583 30.5529667,10.6325083 32.70205,3.81834167" id="Fill-9" fill="#006CB2" mask="url(#mask-6)"></path> </g> </g> </g> </svg> 