<?xml version="1.0" encoding="UTF-8"?> <svg xmlns="http://www.w3.org/2000/svg" width="60" height="60" viewBox="0 0 60 60" fill="none"> <g id="Artboard_20 Copy 22"> <g id="Frame" clip-path="url(#clip0_104_129)"> <path id="Vector" fill-rule="evenodd" clip-rule="evenodd" d="M39.6841 35.1757C39.7279 34.64 39.7776 34.0841 39.839 33.5484C39.9997 32.1036 40.2248 30.818 40.4761 29.7061C40.7304 28.5913 41.0139 27.6503 41.3675 26.8077C41.7211 25.9651 42.1478 25.2209 42.5716 24.5608C42.9983 23.8977 43.4221 23.3157 43.9072 22.8148C44.3924 22.3138 44.9389 21.8911 45.2136 21.6797C45.4883 21.4683 45.4883 21.4683 45.2341 21.8303C44.9798 22.1922 44.4742 22.9132 43.9774 23.7268C43.4805 24.5405 42.9954 25.4439 42.5687 26.4573C42.1449 27.4707 41.7796 28.5942 41.5955 29.1559C41.4143 29.7177 41.4143 29.7177 41.6247 29.8595C41.838 29.9985 42.2618 30.2823 42.8083 30.3807C43.3548 30.4821 44.0241 30.401 44.7022 30.2099C45.3802 30.0188 46.0699 29.7177 46.7772 29.0662C47.4874 28.4147 48.2151 27.4099 48.8025 26.3762C49.39 25.3425 49.8342 24.2799 50.3427 22.9335C50.8483 21.59 51.4153 19.9627 51.7923 18.7697C52.1664 17.5768 52.3505 16.8124 52.4411 16.433C52.5317 16.0508 52.5317 16.0508 52.0144 16.0827C51.4971 16.1116 50.4655 16.1724 49.3403 16.3346C48.2151 16.4938 46.9993 16.7573 45.8858 17.128C44.7723 17.4986 43.7582 17.9821 42.8375 18.5728C41.9169 19.1635 41.0869 19.8671 40.4469 20.7097C39.8098 21.5523 39.3626 22.5368 39.12 23.3678C38.8775 24.2017 38.8365 24.8822 38.8658 25.5858C38.895 26.2894 38.9973 27.0104 39.1493 27.5316C39.3012 28.0527 39.5029 28.3741 39.6052 28.5363C39.7075 28.6955 39.7075 28.6955 39.6052 29.0691C39.5029 29.4397 39.3012 30.1838 39.1785 30.8035C39.0557 31.426 39.0177 31.9269 38.9973 32.1789C38.9768 32.4308 38.9768 32.4308 38.7635 31.5361C38.5501 30.6442 38.1264 28.8577 37.761 27.5113C37.3957 26.1678 37.0918 25.2644 36.931 24.7519C36.7703 24.2394 36.7498 24.1206 36.7381 24.0598C36.7294 23.999 36.7294 23.999 36.7995 23.7384C36.8696 23.4778 37.0128 22.9566 37.083 22.3746C37.1531 21.7926 37.1531 21.1498 37.0421 20.3767C36.931 19.6036 36.7089 18.7002 36.2121 17.7766C35.7152 16.8529 34.9466 15.909 34.175 15.1967C33.4064 14.4844 32.6348 14.0037 31.7844 13.5607C30.9339 13.1206 30.0016 12.7181 29.0605 12.4459C28.1311 12.1766 27.1784 12.0376 26.1233 12.0058C25.0712 11.9768 23.9168 12.055 23.2767 12.0956C22.6396 12.1361 22.5169 12.1361 22.4555 12.1361C22.3941 12.1361 22.3941 12.1361 22.5052 12.5183C22.6162 12.9005 22.8383 13.662 23.2738 14.7565C23.7093 15.851 24.3581 17.2756 25.0157 18.5786C25.6732 19.8845 26.3425 21.0659 26.9913 22.0301C27.6401 22.9943 28.2685 23.7355 28.8852 24.3581C29.5018 24.9806 30.1097 25.4815 30.8287 25.7421C31.5476 26.0027 32.3776 26.023 32.9972 25.9216C33.6139 25.8203 34.0201 25.6002 34.3241 25.3889C34.628 25.1775 34.8297 24.9777 34.932 24.8677C35.0343 24.7576 35.0343 24.7374 34.7712 24.2162C34.5082 23.695 33.9821 22.67 33.5262 21.8274C33.0703 20.9848 32.6845 20.3217 32.2111 19.6905C31.7347 19.0593 31.1677 18.457 30.7118 17.9937C30.2558 17.5333 29.911 17.2119 29.7386 17.0498C29.5661 16.8905 29.5661 16.8905 29.8905 17.0903C30.2149 17.2901 30.8637 17.6926 31.5096 18.2138C33.0995 19.4936 34.0581 21.0022 35.0138 22.7684C35.4785 23.6313 35.8643 24.4131 36.1478 25.1572C36.8667 27.0364 37.5506 29.5874 37.647 31.5592C37.688 32.3815 37.6675 33.1836 37.5565 34.2694C37.5477 34.3679 37.536 34.4663 37.5243 34.5705C38.252 34.7935 38.9008 34.9759 39.5292 35.1381L39.6841 35.1757Z" fill="#006CB2"></path> <path id="Vector_2" d="M12.8023 45.7908C12.1038 45.9761 11.5251 46.0224 10.8968 45.9645C8.01423 45.1361 6.56857 40.8861 6.20605 38.8646C7.55336 38.2913 9.31568 37.553 10.3912 37.0781C11.4609 36.6061 11.832 36.3977 12.2967 36.0531C12.7614 35.7085 13.3196 35.225 13.9918 34.6488C14.6669 34.0725 15.456 33.4066 16.2334 32.8883C17.0108 32.3729 17.7795 32.0022 18.4984 31.7619C19.2174 31.5216 19.8925 31.4058 20.6816 31.3594C21.4707 31.3131 22.3767 31.3363 23.1775 31.4058C23.9783 31.4753 24.6767 31.5911 25.4308 31.8082C26.1848 32.0283 27.0002 32.3497 28.1137 32.7406C29.2301 33.1315 30.6447 33.5919 32.1089 34.0754C33.5702 34.559 35.0811 35.0657 36.3349 35.4682C37.5916 35.8707 38.5882 36.1718 39.541 36.4121C40.4908 36.6525 41.3968 36.8378 41.9901 37.2403C42.5834 37.6427 42.861 38.2653 42.9195 38.6909C42.9779 39.1166 42.8143 39.3453 42.4314 39.4264C42.0486 39.5075 41.4436 39.438 40.7246 39.4032C38.0914 39.2758 35.613 39.0905 32.9915 38.9197C32.1089 38.8617 31.3899 38.9081 30.5657 39.0123C29.7416 39.1166 28.8122 39.2758 28.1955 39.4959C27.5789 39.713 27.2778 39.9881 27.1726 40.1966C27.0674 40.4051 27.1609 40.5412 27.4269 40.6338C27.6928 40.7265 28.1342 40.7728 28.6339 40.7381C29.1337 40.7062 29.689 40.5904 30.2355 40.5093C31.9043 40.2632 33.7572 40.4253 35.4377 40.4977C37.0276 40.5672 39.2107 40.6599 40.5697 40.7062C41.9287 40.7525 42.4636 40.7525 42.8932 40.602C44.4217 40.0721 44.5678 38.4651 43.428 37.3358C43.2293 37.1389 43.2527 37.1157 43.7057 36.8754C44.1587 36.6322 45.0413 36.1718 46.2483 35.4363C47.4553 34.7009 48.9897 33.6874 50.1616 32.9172C51.3336 32.147 52.1461 31.6171 52.7627 31.3189C53.3765 31.0207 53.7944 30.9512 54.3643 30.9743C54.9313 30.9975 55.6532 31.1104 56.3137 31.2841C56.9742 31.455 57.5791 31.6866 57.8451 32.008C58.114 32.3323 58.0438 32.7464 57.5908 33.4819C57.1408 34.2173 56.302 35.2771 55.2118 36.4266C54.1217 37.5761 52.7744 38.8183 51.81 39.6696C50.8455 40.5209 50.2668 40.9784 49.2673 41.5893C48.2678 42.2003 46.8503 42.9589 45.202 43.8334C43.5537 44.7078 41.6715 45.6981 40.1518 46.422C38.6291 47.1488 37.4689 47.6091 36.5395 47.8263C35.6101 48.0464 34.9145 48.0232 34.2979 47.9421C33.6812 47.8611 33.1464 47.725 32.4742 47.5281C31.7991 47.3341 30.9866 47.0793 30.1507 46.8158C29.3149 46.5523 28.4556 46.2743 27.5029 45.9761C26.5501 45.6778 25.5068 45.3535 24.5423 45.0785C23.5779 44.8034 22.6952 44.5746 21.8828 44.3777C21.0703 44.1837 20.328 44.0216 19.6528 44.01C18.9806 43.9984 18.3757 44.1345 17.6333 44.3198C16.891 44.5022 16.0084 44.7339 15.1608 45.009C14.3104 45.284 13.4979 45.6054 12.8023 45.7908Z" fill="#006CB2"></path> </g> </g> <defs> <clipPath id="clip0_104_129"> <rect width="55" height="36" fill="white" transform="translate(3 12)"></rect> </clipPath> </defs> </svg> 