<?xml version="1.0" encoding="UTF-8"?> <svg xmlns="http://www.w3.org/2000/svg" width="60" height="60" viewBox="0 0 60 60" fill="none"> <g id="Artboard_20 Copy 20"> <g id="Group 41"> <g id="Group 40"> <rect id="Rectangle 1" x="6" y="19.3576" width="14.6667" height="28.6423" fill="#009ED0"></rect> <rect id="Rectangle 2" x="22.9229" y="9.12823" width="14.6667" height="38.8717" fill="#009ED0"></rect> <rect id="Rectangle 3" x="39.8462" y="26" width="14.6667" height="22" fill="#009ED0"></rect> </g> <path id="1" d="M27.3163 19.928H29.4863V14.734L27.3163 16.274V13.754L29.5003 12.2H32.0063V19.928H33.7563V22H27.3163V19.928Z" fill="white"></path> <path id="3" d="M47.2 39.182C46.5747 39.182 46.024 39.098 45.548 38.93C45.0813 38.7527 44.6893 38.51 44.372 38.202C44.0547 37.894 43.8167 37.53 43.658 37.11C43.4993 36.6807 43.42 36.214 43.42 35.71H45.94C45.94 36.1673 46.0427 36.5127 46.248 36.746C46.4627 36.97 46.8033 37.082 47.27 37.082C47.6713 37.082 47.97 36.984 48.166 36.788C48.362 36.592 48.46 36.3213 48.46 35.976C48.46 35.6213 48.3573 35.3507 48.152 35.164C47.956 34.9773 47.6387 34.884 47.2 34.884H46.374V33.036H47.2C47.9467 33.036 48.32 32.7047 48.32 32.042C48.32 31.7527 48.2267 31.5287 48.04 31.37C47.8627 31.202 47.606 31.118 47.27 31.118C46.4767 31.118 46.08 31.5287 46.08 32.35H43.56C43.56 31.3047 43.8727 30.488 44.498 29.9C45.1327 29.312 46.0333 29.018 47.2 29.018C47.7787 29.018 48.292 29.088 48.74 29.228C49.1973 29.3587 49.58 29.5453 49.888 29.788C50.196 30.0213 50.4293 30.306 50.588 30.642C50.756 30.9687 50.84 31.3327 50.84 31.734C50.84 32.266 50.6907 32.7187 50.392 33.092C50.0933 33.4653 49.692 33.7313 49.188 33.89C49.776 34.0487 50.2193 34.3193 50.518 34.702C50.826 35.0847 50.98 35.584 50.98 36.2C50.98 36.648 50.8913 37.054 50.714 37.418C50.5367 37.782 50.2847 38.0947 49.958 38.356C49.6313 38.6173 49.2347 38.8227 48.768 38.972C48.3013 39.112 47.7787 39.182 47.2 39.182Z" fill="white"></path> <path id="2" d="M9.10635 31.208L12.3543 28.52C12.6717 28.2587 12.9423 28.0253 13.1663 27.82C13.3903 27.6053 13.5723 27.4047 13.7123 27.218C13.8617 27.0313 13.969 26.854 14.0343 26.686C14.109 26.5087 14.1463 26.3267 14.1463 26.14C14.1463 25.8133 14.053 25.5613 13.8663 25.384C13.689 25.2067 13.4323 25.118 13.0963 25.118C12.2097 25.118 11.7663 25.6687 11.7663 26.77H9.24635C9.24635 25.5753 9.56368 24.6513 10.1983 23.998C10.8423 23.3447 11.8083 23.018 13.0963 23.018C13.6937 23.018 14.2163 23.0973 14.6643 23.256C15.1123 23.4053 15.4857 23.62 15.7843 23.9C16.083 24.1707 16.3023 24.4973 16.4423 24.88C16.5917 25.2627 16.6663 25.6827 16.6663 26.14C16.6663 26.476 16.6057 26.798 16.4843 27.106C16.3723 27.414 16.209 27.7127 15.9943 28.002C15.789 28.2913 15.5417 28.5713 15.2523 28.842C14.963 29.1127 14.6503 29.3787 14.3143 29.64L12.6203 30.928H16.8063V33H9.10635V31.208Z" fill="white"></path> </g> </g> </svg> 