<?xml version="1.0" encoding="UTF-8"?> <svg xmlns="http://www.w3.org/2000/svg" xmlns:xlink="http://www.w3.org/1999/xlink" width="60px" height="60px" viewBox="0 0 60 60"> <!-- Generator: Sketch 62 (91390) - https://sketch.com --> <title>Artboard_22</title> <desc>Created with Sketch.</desc> <g id="Artboard_22" stroke="none" stroke-width="1" fill="none" fill-rule="evenodd"> <g id="Group-12" transform="translate(10.000000, 9.000000)" fill="#009ED0"> <polygon id="Fill-1" points="31.6121081 33.9619622 36.3958108 33.9619622 36.3958108 22.5063405 31.6121081 22.5063405"></polygon> <polygon id="Fill-2" points="22.5511081 33.9619622 27.3359189 33.9619622 27.3359189 22.5063405 22.5511081 22.5063405"></polygon> <polygon id="Fill-3" points="13.4912162 33.9619622 18.2749189 33.9619622 18.2749189 22.5063405 13.4912162 22.5063405"></polygon> <polygon id="Fill-4" points="4.43243243 33.9619622 9.21613514 33.9619622 9.21613514 22.5063405 4.43243243 22.5063405"></polygon> <g id="Group-11" transform="translate(0.000000, 0.935908)"> <path d="M37.9912649,17.9822676 L37.9912649,16.7855108 L2.83653514,16.7855108 L2.83653514,17.9822676 C2.83653514,18.6427 3.37285946,19.1779162 4.03329189,19.1779162 L36.7945081,19.1779162 C37.4560486,19.1779162 37.9912649,18.6427 37.9912649,17.9822676" id="Fill-5"></path> <path d="M39.6307108,35.418127 L1.19708919,35.418127 C0.536656757,35.418127 0.00144054054,35.9533432 0.00144054054,36.6148838 L0.00144054054,39.8040189 C0.00144054054,40.4644514 0.536656757,40.9996676 1.19708919,40.9996676 L39.6307108,40.9996676 C40.2922514,40.9996676 40.8274676,40.4644514 40.8274676,39.8040189 L40.8274676,36.6148838 C40.8274676,35.9533432 40.2922514,35.418127 39.6307108,35.418127" id="Fill-7"></path> <path d="M19.6008811,7.20735676 L21.2264757,7.20735676 C21.8880162,7.20735676 22.4232324,7.74257297 22.4232324,8.40411351 C22.4232324,9.06454595 21.8880162,9.59976216 21.2264757,9.59976216 L19.6008811,9.59976216 C18.9404486,9.59976216 18.4041243,9.06454595 18.4041243,8.40411351 C18.4041243,7.74257297 18.9404486,7.20735676 19.6008811,7.20735676 M1.19631351,14.3934378 L39.6321514,14.3934378 C40.1662595,14.3934378 40.6372054,14.0388432 40.7823676,13.523573 C40.9286378,13.0083027 40.7136649,12.4597892 40.2582324,12.1783297 L21.0403135,0.350383784 C20.6569081,0.113248649 20.1715568,0.113248649 19.7859351,0.350383784 L0.569124324,12.1783297 C0.113691892,12.4597892 -0.100172973,13.0083027 0.0460972973,13.523573 C0.191259459,14.0388432 0.661097297,14.3934378 1.19631351,14.3934378" id="Fill-9"></path> </g> </g> </g> </svg> 