<?xml version="1.0" encoding="UTF-8"?> <svg xmlns="http://www.w3.org/2000/svg" width="60" height="60" viewBox="0 0 60 60" fill="none"> <g id="Artboard_20 Copy"> <rect width="60" height="60" fill="white"></rect> <g id="Frame" clip-path="url(#clip0_103_39)"> <g id="Group"> <path id="Vector" d="M22.1918 26.5095C22.8991 25.575 23.9175 24.9803 25.0774 24.867C26.209 24.7538 27.3406 25.1219 28.2176 25.8582L31.7256 28.69C32.7724 29.5395 34.1869 29.7094 35.4034 29.1714C35.5731 29.0865 35.658 28.9449 35.658 28.8882C35.6863 28.8033 35.7146 28.6617 35.6297 28.4918L29.9716 17.8158V17.8441C29.9716 17.8441 26.3222 10.1133 16.7601 10.2832C8.66905 10.4248 5.72686 18.9769 7.48085 25.7732C8.32956 29.0865 10.5645 32.428 13.3369 35.6279C13.9027 36.2793 14.9495 36.2509 15.487 35.543L22.1918 26.5095Z" fill="#009ED0"></path> <path id="Vector_2" d="M27.7084 47.0118L33.0553 40.5836C33.3948 40.1588 34.0172 40.1022 34.4132 40.4703C34.8376 40.8102 34.8942 41.4332 34.5264 41.8296L29.0947 48.3711C28.5571 49.0224 28.6703 49.9852 29.321 50.495L29.3493 50.5233C29.8868 50.9481 30.6789 50.9481 31.2164 50.495C31.8671 49.9569 32.9421 49.0224 34.6396 47.4932C41.2878 41.4048 50.7367 33.1926 52.5756 25.3201C54.1881 18.4955 51.0762 10 42.9852 10.0283C36.4218 10.0566 32.8007 13.5964 31.1033 15.9185L37.3271 27.5856C37.6383 28.1803 37.6949 28.8882 37.4969 29.5112C37.2706 30.1342 36.8179 30.6723 36.1955 30.9554C34.3001 31.805 32.1217 31.5218 30.5092 30.2192L26.9729 27.3024C26.5485 26.9626 25.9827 26.736 25.4169 26.7644C24.738 26.7927 24.1156 27.1042 23.7195 27.6705L16.8733 36.9306C16.2792 37.7518 16.364 38.8845 17.0713 39.5925L17.0996 39.6208C17.9483 40.4703 19.3628 40.3854 20.0984 39.4509L24.6531 33.8156C24.9926 33.3908 25.5867 33.3342 26.011 33.674C26.4354 34.0138 26.492 34.6085 26.1525 35.0333L21.2017 41.15C20.5793 41.9146 20.6925 42.9907 21.3997 43.642L21.428 43.6703C22.1918 44.3499 23.38 44.265 24.0307 43.4437L28.9249 37.327C29.2644 36.9022 29.8585 36.8456 30.2829 37.1854C30.7072 37.5252 30.7638 38.1199 30.4243 38.5447L25.2189 45.0579C24.7097 45.7092 24.7945 46.672 25.4169 47.2101C26.1525 47.7481 27.1426 47.6915 27.7084 47.0118Z" fill="#009ED0"></path> </g> </g> </g> <defs> <clipPath id="clip0_103_39"> <rect width="46" height="40.8064" fill="white" transform="translate(7 10)"></rect> </clipPath> </defs> </svg> 