<?xml version="1.0" encoding="UTF-8"?> <svg xmlns="http://www.w3.org/2000/svg" xmlns:xlink="http://www.w3.org/1999/xlink" width="60px" height="60px" viewBox="0 0 60 60"> <!-- Generator: Sketch 62 (91390) - https://sketch.com --> <title>Artboard_6</title> <desc>Created with Sketch.</desc> <g id="Artboard_6" stroke="none" stroke-width="1" fill="none" fill-rule="evenodd"> <rect id="Rectangle" fill="#FFFFFF" x="0" y="0" width="60" height="60"></rect> <g id="Group-4" transform="translate(12.000000, 12.000000)" fill="#006CB2"> <path d="M26.8652903,30.0424645 L31.3060645,30.0424645 L31.3060645,27.7895613 L26.8652903,27.7895613 L26.8652903,30.0424645 Z M26.8652903,25.3973032 L31.3060645,25.3973032 L31.3060645,23.1444 L26.8652903,23.1444 L26.8652903,25.3973032 Z M26.8652903,20.7521419 L31.3060645,20.7521419 L31.3060645,18.4992387 L26.8652903,18.4992387 L26.8652903,20.7521419 Z M35.4483871,16.1174323 L22.9122581,13.4964 L22.9122581,35.1022065 L32.868,35.1022065 C34.2905806,35.1022065 35.4483871,33.9444 35.4483871,32.5206581 L35.4483871,18.2182065 L35.4483871,16.1174323 Z" id="Fill-1"></path> <path d="M9.31354839,8.7804 L12.2341935,8.7804 L12.2341935,4.91794839 L9.31354839,4.91794839 L9.31354839,8.7804 Z M9.31354839,14.5868516 L12.2341935,14.5868516 L12.2341935,10.7244 L9.31354839,10.7244 L9.31354839,14.5868516 Z M9.31354839,20.3933032 L12.2341935,20.3933032 L12.2341935,16.5308516 L9.31354839,16.5308516 L9.31354839,20.3933032 Z M4.6683871,8.7804 L7.58903226,8.7804 L7.58903226,4.91794839 L4.6683871,4.91794839 L4.6683871,8.7804 Z M4.6683871,14.5868516 L7.58903226,14.5868516 L7.58903226,10.7244 L4.6683871,10.7244 L4.6683871,14.5868516 Z M4.6683871,20.3933032 L7.58903226,20.3933032 L7.58903226,16.5308516 L4.6683871,16.5308516 L4.6683871,20.3933032 Z M19.2692903,2.46298065 L0,-0.000116129032 L0,2.55123871 L0,33.576271 C0,34.4158839 0.686322581,35.1022065 1.52593548,35.1022065 L7.48103226,35.1022065 L7.48103226,28.6036258 L14.0074839,28.6036258 L14.0074839,35.1022065 L21.4374194,35.1022065 L21.4374194,5.01433548 C21.4374194,3.74620645 20.5223226,2.66969032 19.2692903,2.46298065 L19.2692903,2.46298065 Z" id="Fill-3"></path> </g> </g> </svg> 