<?xml version="1.0" encoding="UTF-8"?> <svg xmlns="http://www.w3.org/2000/svg" xmlns:xlink="http://www.w3.org/1999/xlink" width="60px" height="60px" viewBox="0 0 60 60"> <title>Artboard_20 Copy 9</title> <g id="Artboard_20-Copy-9" stroke="none" stroke-width="1" fill="none" fill-rule="evenodd"> <g id="monitor" transform="translate(9.000000, 10.000000)" fill="#00A1A0" fill-rule="nonzero"> <path d="M31.2099078,38.5758384 L27.9027555,38.5758384 C27.3802389,38.2624646 26.3512588,37.2197172 25.2723714,33.7515152 C25.1937754,33.4987475 25.1197091,33.2475152 25.0497754,33 L15.8184376,33 C15.7508085,33.2391919 15.6792853,33.4819394 15.6034707,33.7264646 C14.5220403,37.2143838 13.4894045,38.2615758 12.965378,38.5757576 L9.59401376,38.5757576 C8.93568264,38.5757576 8.40196078,39.1184646 8.40196078,39.7878788 C8.40196078,40.4572929 8.93568264,41 9.59401376,41 L31.2099078,41 C31.8682389,41 32.4019608,40.4572929 32.4019608,39.7878788 C32.4019608,39.1184646 31.8682389,38.5758384 31.2099078,38.5758384 L31.2099078,38.5758384 Z" id="Path"></path> <path d="M41.4019608,21 L41.4019608,3.56603774 C41.4019608,1.59972453 39.7854237,0 37.7984452,0 L4.00547641,0 C2.01849789,0 0.401960784,1.59972453 0.401960784,3.56603774 L0.401960784,21 L41.4019608,21 Z M15.7769608,7.05283019 L26.0269608,7.05283019 C26.690328,7.05283019 27.2281327,7.58504151 27.2281327,8.24150943 C27.2281327,8.89797736 26.690328,9.43018868 26.0269608,9.43018868 L15.7769608,9.43018868 C15.1135936,9.43018868 14.5757889,8.89797736 14.5757889,8.24150943 C14.5757889,7.58504151 15.1135936,7.05283019 15.7769608,7.05283019 Z M11.9332108,12.1245283 L29.8707108,12.1245283 C30.534078,12.1245283 31.0718827,12.6567396 31.0718827,13.3132075 C31.0718827,13.9696755 30.534078,14.5018868 29.8707108,14.5018868 L11.9332108,14.5018868 C11.2698436,14.5018868 10.7320389,13.9696755 10.7320389,13.3132075 C10.7320389,12.6567396 11.2698436,12.1245283 11.9332108,12.1245283 Z" id="Shape"></path> <path d="M0.401960784,23 L0.401960784,26.4204545 C0.401960784,28.3942159 2.01849789,30 4.00547641,30 L33.7945389,30 L33.7945389,26.8977273 C33.7945389,26.2387727 34.3323436,25.7045455 34.9957108,25.7045455 C35.659078,25.7045455 36.1968827,26.2387727 36.1968827,26.8977273 L36.1968827,30 L37.7984452,30 C39.7854237,30 41.4019608,28.3942159 41.4019608,26.4204545 L41.4019608,23 L0.401960784,23 Z" id="Path"></path> </g> </g> </svg> 