<?xml version="1.0" encoding="UTF-8"?> <svg xmlns="http://www.w3.org/2000/svg" xmlns:xlink="http://www.w3.org/1999/xlink" width="60px" height="60px" viewBox="0 0 60 60"> <!-- Generator: Sketch 62 (91390) - https://sketch.com --> <title>Artboard_24</title> <desc>Created with Sketch.</desc> <defs> <polygon id="path-1" points="0.584754248 0.608925 10.8069765 0.608925 10.8069765 5.72003611 0.584754248 5.72003611"></polygon> <polygon id="path-3" points="1.21138125 0.633075 3.94694375 0.633075 3.94694375 7.1875 1.21138125 7.1875"></polygon> </defs> <g id="Artboard_24" stroke="none" stroke-width="1" fill="none" fill-rule="evenodd"> <g id="Group-17" transform="translate(30.000000, 29.511111) rotate(-180.000000) translate(-30.000000, -29.511111) translate(7.000000, 6.000000)"> <g id="Group-3" transform="translate(16.793024, 0.828575)"> <mask id="mask-2" fill="white"> <use xlink:href="#path-1"></use> </mask> <g id="Clip-2"></g> <path d="M10.8069765,1.95442952 C10.8069765,1.21244548 10.198907,0.608925 9.45319001,0.608925 L1.9370281,0.608925 C1.19131109,0.608925 0.584754248,1.21244548 0.584754248,1.95442952 L0.584754248,5.72003611 L10.8069765,5.72003611 L10.8069765,1.95442952 Z" id="Fill-1" fill="#00A1A0" mask="url(#mask-2)"></path> </g> <path d="M44.039825,22.7574937 L40.2203875,22.7574937 C39.4642625,22.7574937 38.853325,23.3698687 38.853325,24.1245562 C38.853325,24.8806812 39.4642625,25.4916187 40.2203875,25.4916187 L44.039825,25.4916187 C44.7945125,25.4916187 45.4068875,24.8806812 45.4068875,24.1245562 C45.4068875,23.3698687 44.7945125,22.7574937 44.039825,22.7574937" id="Fill-4" fill="#00A1A0"></path> <path d="M5.1873625,22.7574937 L1.367925,22.7574937 C0.6118,22.7574937 0.0008625,23.3698687 0.0008625,24.1245562 C0.0008625,24.8806812 0.6118,25.4916187 1.367925,25.4916187 L5.1873625,25.4916187 C5.94205,25.4916187 6.554425,24.8806812 6.554425,24.1245562 C6.554425,23.3698687 5.94205,22.7574937 5.1873625,22.7574937" id="Fill-6" fill="#00A1A0"></path> <path d="M36.0571,35.5433375 C35.52235,35.010025 34.656975,35.010025 34.122225,35.5433375 C33.5889125,36.0780875 33.5889125,36.9449 34.122225,37.4782125 L36.8232875,40.179275 C37.3580375,40.7125875 38.2234125,40.7125875 38.756725,40.179275 C39.291475,39.6459625 39.291475,38.77915 38.756725,38.2444 L36.0571,35.5433375 Z" id="Fill-8" fill="#00A1A0"></path> <g id="Group-12" transform="translate(20.125000, 39.641075)"> <mask id="mask-4" fill="white"> <use xlink:href="#path-3"></use> </mask> <g id="Clip-11"></g> <path d="M2.57844375,0.633075 C1.82375625,0.633075 1.21138125,1.24545 1.21138125,2.0001375 L1.21138125,5.819575 C1.21138125,6.5757 1.82375625,7.188075 2.57844375,7.188075 C3.33313125,7.188075 3.94694375,6.5757 3.94694375,5.819575 L3.94694375,2.0001375 C3.94694375,1.24545 3.33313125,0.633075 2.57844375,0.633075" id="Fill-10" fill="#00A1A0" mask="url(#mask-4)"></path> </g> <path d="M9.3503625,35.5433375 L6.6493,38.2444 C6.1159875,38.77915 6.1159875,39.6459625 6.6493,40.179275 C7.18405,40.7125875 8.049425,40.7125875 8.584175,40.179275 L11.2852375,37.4782125 C11.81855,36.9449 11.81855,36.0780875 11.2852375,35.5433375 C10.7504875,35.010025 9.8851125,35.010025 9.3503625,35.5433375" id="Fill-13" fill="#00A1A0"></path> <path d="M30.2040773,15.6774339 C28.8034736,14.6747692 27.9684084,13.0381118 27.9684084,11.2996454 L27.9684084,10.028575 L24.1856876,10.028575 L24.1856876,19.5245815 C26.7391799,20.1770848 28.6320982,22.4785861 28.6320982,25.2089193 L28.6320982,29.5697397 C28.6320982,30.359531 28.0198209,31.0398005 27.2221467,31.076822 C26.3715019,31.1169285 25.6673051,30.4459144 25.6673051,29.6113889 C25.6673051,27.1216952 25.6673051,26.2840844 25.6673051,25.1904086 C25.6688631,23.5691768 24.3414833,22.2549147 22.70407,22.2549147 C21.0666567,22.2549147 19.7408349,23.5676343 19.7408349,25.188866 L19.7408349,29.6113889 C19.7408349,30.4459144 19.0366381,31.1169285 18.1844354,31.076822 C17.3883191,31.0398005 16.7760418,30.359531 16.7760418,29.5697397 L16.7760418,25.2089193 C16.7760418,22.4785861 18.6674022,20.1770848 21.2208945,19.5245815 L21.2208945,10.028575 L17.4412896,10.028575 L17.4412896,11.2996454 C17.4412896,13.0365693 16.6046665,14.6747692 15.2025047,15.6774339 C11.8762655,18.0606909 9.88986972,21.9047533 9.88986972,25.9616892 C9.88986972,32.9093846 15.6371749,38.6507972 22.7071859,38.6507972 C29.7678492,38.6507972 35.4746475,33.0728961 35.5169442,26.0403598 C35.5416397,21.9494876 33.5552439,18.0776591 30.2040773,15.6774339" id="Fill-15" fill="#00A1A0"></path> </g> </g> </svg> 