<?xml version="1.0" encoding="UTF-8"?> <svg xmlns="http://www.w3.org/2000/svg" xmlns:xlink="http://www.w3.org/1999/xlink" width="60px" height="60px" viewBox="0 0 60 60"> <!-- Generator: Sketch 62 (91390) - https://sketch.com --> <title>Artboard_3</title> <desc>Created with Sketch.</desc> <defs> <polygon id="path-1" points="0.6355 0.8021 30.558 0.8021 30.558 38 0.6355 38"></polygon> <polygon id="path-3" points="0 0.3191 2.6577 0.3191 2.6577 4.3051 0 4.3051"></polygon> </defs> <g id="Artboard_3" stroke="none" stroke-width="1" fill="none" fill-rule="evenodd"> <g id="Group-15" transform="translate(11.000000, 11.000000)"> <g id="Group-3" transform="translate(8.000000, 0.198300)"> <mask id="mask-2" fill="white"> <use xlink:href="#path-1"></use> </mask> <g id="Clip-2"></g> <path d="M26.5415045,26.0121 C26.5415045,26.3791 26.2435,26.6771045 25.8765,26.6771045 L5.9495,26.6771045 C5.6805,26.6781 5.4375,26.5141 5.3385,26.2641 C5.2345,26.0171 5.2895,25.7321 5.4775,25.5401 L25.4055,5.6131 C25.5965,5.4251 25.8825,5.3691 26.1295,5.4731 C26.3785,5.5731 26.5425,5.8161 26.5415045,6.0841 L26.5415045,26.0121 Z M0.6355,0.8021 L0.6355,5.9911 L12.5915,5.9911 C12.7685,5.9921 12.9375,6.0611 13.0635,6.1831 L15.7205,8.8411 C15.9795,9.1011 15.9795,9.5231 15.7205,9.7831 L13.0635,12.4411 C12.9375,12.5631 12.7685,12.6321 12.5915,12.6341 L0.6355,12.6341 L0.6355,31.3571 L24.5795,31.3571 C24.9465,31.3571 25.2445,31.6551 25.2445,32.0221 L25.2445,33.3501 C25.2425,33.5081 25.2515,33.6651 25.2705,33.8221 L25.2705,33.8551 C25.5115,36.0241 27.2265,37.7361 29.3955,37.9731 L29.4225,37.9731 C29.5395,37.9871 29.6565,37.9931 29.7735,37.9931 C29.8335,37.9931 29.8875,38.0001 29.9465,38.0001 C30.2955,37.9771 30.5645,37.6851 30.5585984,37.3361 L30.5585984,0.8021 L0.6355,0.8021 Z" id="Fill-1" fill="#FFFFFF" mask="url(#mask-2)"></path> </g> <polygon id="Fill-4" fill="#FFFFFF" points="30.5835 14.0278 21.3935 23.2188 30.5835 23.2188"></polygon> <polygon id="Fill-6" fill="#FFFFFF" points="20.4209 7.6215 19.9479 9.5105 20.4209 11.3995 22.3099 9.5105"></polygon> <g id="Group-10" transform="translate(0.000000, 7.198300)"> <mask id="mask-4" fill="white"> <use xlink:href="#path-3"></use> </mask> <g id="Clip-9"></g> <path d="M1.9927,4.3051 L2.6577,4.3051 L2.6577,0.3191 L1.9927,0.3191 C0.8917,0.3191 -0.0003,1.2121 -0.0003,2.3121 C-0.0003,3.4121 0.8917,4.3051 1.9927,4.3051" id="Fill-8" fill="#FFFFFF" mask="url(#mask-4)"></path> </g> <path d="M7.3067,38.1982 L34.1347,38.1982 C33.9817,38.0732 33.8337,37.9412 33.6897,37.8002 C33.5247,37.6362 33.3697,37.4622 33.2247,37.2802 L33.2037,37.2512 C33.0787,37.0932 32.9617,36.9292 32.8537,36.7602 C32.8407,36.7392 32.8277,36.7172 32.8147,36.6932 C32.7157,36.5332 32.6237,36.3702 32.5407,36.2022 C32.5247,36.1702 32.5097,36.1352 32.4937,36.1062 C32.4187,35.9472 32.3507,35.7862 32.2897,35.6212 C32.2737,35.5772 32.2577,35.5332 32.2427,35.4892 C32.1897,35.3332 32.1427,35.1762 32.1027,35.0162 C32.0887,34.9612 32.0737,34.9062 32.0617,34.8512 C32.0267,34.6942 31.9997,34.5332 31.9777,34.3732 C31.9697,34.3162 31.9587,34.2602 31.9527,34.2022 C31.9287,33.9852 31.9157,33.7672 31.9157,33.5482 L31.9157,32.8842 L2.6577,32.8842 L2.6577,33.5482 C2.6597,36.1152 4.7397,38.1952 7.3067,38.1982" id="Fill-11" fill="#FFFFFF"></path> <polygon id="Fill-13" fill="#FFFFFF" points="18.7456 8.8461 19.0776 7.5171 3.9856 7.5171 3.9856 11.5031 19.0776 11.5031 18.7456 10.1751"></polygon> </g> </g> </svg> 