<?xml version="1.0" encoding="UTF-8"?> <svg xmlns="http://www.w3.org/2000/svg" xmlns:xlink="http://www.w3.org/1999/xlink" width="60px" height="60px" viewBox="0 0 60 60"> <!-- Generator: Sketch 62 (91390) - https://sketch.com --> <title>Artboard_10</title> <desc>Created with Sketch.</desc> <defs> <polygon id="path-1" points="0.389307317 0.857902439 24.972722 0.857902439 24.972722 42.9996854 0.389307317 42.9996854"></polygon> <polygon id="path-3" points="0.310960552 0.625495419 13.8250244 0.625495419 13.8250244 30.0488195 0.310960552 30.0488195"></polygon> <polygon id="path-5" points="0 0.425105028 14.4818956 0.425105028 14.4818956 34.9511341 0 34.9511341"></polygon> </defs> <g id="Artboard_10" stroke="none" stroke-width="1" fill="none" fill-rule="evenodd"> <rect id="Rectangle" fill="#FFFFFF" x="0" y="0" width="60" height="60"></rect> <g id="Group-10" transform="translate(9.000000, 8.000000)"> <g id="Group-3" transform="translate(8.390244, 0.191298)"> <mask id="mask-2" fill="white"> <use xlink:href="#path-1"></use> </mask> <g id="Clip-2"></g> <path d="M9.5598439,6.8566122 C7.40669756,7.92951463 5.96357561,9.98931951 5.70138049,12.3679537 C5.65103902,12.8168317 5.27033171,13.1492951 4.82879512,13.1492951 C4.79733171,13.1492951 4.76377073,13.1471976 4.73125854,13.1440512 C4.24986829,13.0895146 3.90167317,12.6563683 3.95516098,12.1739293 C4.28552683,9.20063659 6.08733171,6.62483171 8.77640488,5.28553902 C9.21479512,5.06844146 9.7370878,5.24673415 9.95418537,5.67883171 C10.1712829,6.11302683 9.99403902,6.64056341 9.5598439,6.8566122 L9.5598439,6.8566122 Z M14.3223561,27.043539 C20.5154049,26.0041976 24.972722,19.2511 24.972722,13.1492951 C24.972722,6.37102683 19.4582341,0.857587805 12.6810146,0.857587805 C5.90379512,0.857587805 0.389307317,6.37102683 0.389307317,13.1492951 C0.389307317,19.2511 4.84662439,26.0041976 11.0396732,27.043539 L9.3448439,29.303661 C9.14452683,29.5700512 9.11306341,29.9255878 9.26199024,30.2234415 C9.41091707,30.5202463 9.71401463,30.707978 10.0475268,30.707978 L11.7371122,30.707978 C11.6175512,31.4547098 11.3448683,31.9350512 11.040722,32.4678317 C10.5750634,33.2827341 10.046478,34.2067098 10.046478,35.9760024 C10.046478,37.7463439 10.5750634,38.6692707 11.040722,39.4841732 C11.4497463,40.2004902 11.8031854,40.818222 11.8031854,42.1218561 C11.8031854,42.6074415 12.1954293,42.9996854 12.6810146,42.9996854 C13.1655512,42.9996854 13.5588439,42.6074415 13.5588439,42.1218561 C13.5588439,40.3525634 13.0313073,39.4285878 12.5656488,38.6136854 C12.1566244,37.8973683 11.8031854,37.2796366 11.8031854,35.9760024 C11.8031854,34.6723683 12.1566244,34.0546366 12.5656488,33.3393683 C12.9442585,32.6754902 13.3490878,31.9140756 13.4927707,30.707978 L15.3145024,30.707978 C15.6480146,30.707978 15.9511122,30.5202463 16.100039,30.2234415 C16.2479171,29.9255878 16.2175024,29.5700512 16.0171854,29.303661 L14.3223561,27.043539 Z" id="Fill-1" fill="#00A1A0" mask="url(#mask-2)"></path> </g> <g id="Group-6" transform="translate(28.317073, 9.630322)"> <mask id="mask-4" fill="white"> <use xlink:href="#path-3"></use> </mask> <g id="Clip-5"></g> <path d="M13.8256537,8.97777073 C13.8256537,5.19796585 11.3935317,1.8576 7.77209268,0.669331707 C7.48158049,0.574941463 7.1638,0.634721951 6.93201951,0.831892683 C6.69919024,1.02906341 6.58487317,1.3311122 6.62892195,1.63316098 C6.74638537,2.41869756 6.80197073,3.07838049 6.80197073,3.70974634 C6.80197073,8.4261122 4.3792878,13.4613073 0.631995122,16.5415756 C0.425385366,16.711478 0.306873171,16.9673805 0.310960552,17.2348195 C0.315263415,17.5022585 0.442165854,17.7539659 0.655068293,17.9165268 C1.61260488,18.651722 2.64984878,19.1268195 3.70492195,19.3544049 L3.38189756,19.9983561 C3.24660488,20.271039 3.26023902,20.5940634 3.42070244,20.8531122 C3.58116585,21.1111122 3.8632878,21.269478 4.16848293,21.269478 L4.26182439,21.269478 C4.4443122,22.129478 4.87221463,22.6779902 5.23823902,23.1352585 C5.65145854,23.6512585 5.92414146,23.9910634 5.92414146,24.7807951 C5.92414146,25.5705268 5.65145854,25.9113805 5.23823902,26.4273805 C4.7610439,27.0241366 4.16848293,27.7656244 4.16848293,29.1709902 C4.16848293,29.6565756 4.56072683,30.0488195 5.04526341,30.0488195 C5.53084878,30.0488195 5.92414146,29.6565756 5.92414146,29.1709902 C5.92414146,28.3812585 6.19682439,28.0414537 6.6100439,27.5254537 C7.08619024,26.9286976 7.6798,26.186161 7.6798,24.7807951 C7.6798,23.376478 7.08619024,22.6339415 6.6100439,22.0382341 C6.38036098,21.7519171 6.20101951,21.5127951 6.08145854,21.2285756 C6.32058049,21.1824293 6.53977561,21.0639171 6.67087317,20.8531122 C6.83133659,20.5940634 6.84497073,20.271039 6.70862927,19.9983561 L6.38560488,19.3512585 C10.6069463,18.4241366 13.8256537,13.3018927 13.8256537,8.97777073" id="Fill-4" fill="#00A1A0" mask="url(#mask-4)"></path> </g> <g id="Group-9" transform="translate(0.000000, 6.483980)"> <mask id="mask-6" fill="white"> <use xlink:href="#path-5"></use> </mask> <g id="Clip-8"></g> <path d="M14.1057829,20.3688902 C9.86975854,17.4113293 7.02441707,11.9796951 7.02441707,6.85640244 C7.02441707,5.06928049 7.36631951,3.31152439 8.04278293,1.63137805 C8.17178293,1.31045122 8.09941707,0.942329268 7.85819756,0.693768293 C7.61592927,0.443109756 7.24780732,0.359207317 6.92688049,0.478768293 C2.78419756,1.99215854 -0.000314634146,5.96703659 -0.000314634146,10.3677195 C-0.000314634146,15.6105732 3.91792927,21.6242805 9.17966098,22.5304268 L8.87236829,23.1450122 C8.73602683,23.4166463 8.75070976,23.7396707 8.91117317,23.9987195 C9.05275854,24.2273537 9.29397805,24.3563537 9.55617317,24.3888659 C9.43136829,24.9017195 9.20378293,25.2698415 8.92795366,25.6841098 C8.46963659,26.3700122 7.90119756,27.2226707 7.90119756,28.8052805 C7.90119756,30.3878902 8.46963659,31.2415976 8.92690488,31.9264512 C9.33488049,32.538939 9.65790488,33.0224268 9.65790488,34.0733049 C9.65790488,34.5588902 10.0501488,34.9511341 10.5357341,34.9511341 C11.0213195,34.9511341 11.4135634,34.5588902 11.4135634,34.0733049 C11.4135634,32.4906951 10.8451244,31.6380366 10.3889049,30.9521341 C9.97988049,30.3396463 9.65790488,29.8561585 9.65790488,28.8052805 C9.65790488,27.7544024 9.97988049,27.2709146 10.3889049,26.6584268 C10.7507341,26.1151585 11.1702463,25.4491829 11.3338561,24.4150854 L11.4135634,24.4150854 C11.7177098,24.4150854 11.9998317,24.2577683 12.1602951,23.9987195 C12.3207585,23.7396707 12.3354415,23.4166463 12.1991,23.1450122 L11.8802707,22.5084024 C12.5798073,22.3856951 13.2772463,22.200061 13.9652463,21.8885732 C14.253661,21.7585244 14.4487341,21.4837439 14.4781,21.1691098 C14.5074659,20.8555244 14.3648317,20.5492805 14.1057829,20.3688902" id="Fill-7" fill="#00A1A0" mask="url(#mask-6)"></path> </g> </g> </g> </svg> 