<?xml version="1.0" encoding="UTF-8"?> <svg xmlns="http://www.w3.org/2000/svg" xmlns:xlink="http://www.w3.org/1999/xlink" width="60px" height="60px" viewBox="0 0 60 60"> <!-- Generator: Sketch 62 (91390) - https://sketch.com --> <title>Artboard_27</title> <desc>Created with Sketch.</desc> <defs> <polygon id="path-1" points="0 27.6476 43.693 27.6476 43.693 -0.0004 0 -0.0004"></polygon> </defs> <g id="Artboard_27" stroke="none" stroke-width="1" fill="none" fill-rule="evenodd"> <g id="Group-6" transform="translate(8.000000, 16.000000)"> <path d="M29.9939,1.8449 C28.2189,0.6379 26.1459,-0.0001 23.9999,-0.0001 L20.7489,-0.0001 L20.7489,5.6239 C20.7499,6.4449 21.4169,7.1129 22.2369,7.1129 L37.7419,7.1129 L29.9939,1.8449 Z" id="Fill-1" fill="#00A1A0"></path> <mask id="mask-2" fill="white"> <use xlink:href="#path-1"></use> </mask> <g id="Clip-4"></g> <polygon id="Fill-3" fill="#00A1A0" mask="url(#mask-2)" points="0 27.6476 36.269 27.6476 36.269 25.0876 0 25.0876"></polygon> <path d="M30.352,15.0746 L32.912,15.0746 L32.912,12.5146 L30.352,12.5146 L30.352,15.0746 Z M25.601,15.0746 L28.162,15.0746 L28.162,12.5146 L25.601,12.5146 L25.601,15.0746 Z M20.851,15.0746 L23.411,15.0746 L23.411,12.5146 L20.851,12.5146 L20.851,15.0746 Z M41.299,9.6726 L22.237,9.6726 C20.006,9.6726 18.189,7.8566 18.189,5.6246 L18.189,0.0006 L0,0.0006 L0,3.4806 L8.797,3.4806 L8.797,9.9646 L0,9.9646 L0,23.1966 L35.821,23.1966 C40.162,23.1966 43.693,19.6656 43.693,15.3256 C43.693,13.1736 42.816,11.1416 41.299,9.6726 L41.299,9.6726 Z" id="Fill-5" fill="#00A1A0" mask="url(#mask-2)"></path> </g> </g> </svg> 