<?xml version="1.0" encoding="UTF-8"?> <svg xmlns="http://www.w3.org/2000/svg" xmlns:xlink="http://www.w3.org/1999/xlink" width="60px" height="60px" viewBox="0 0 60 60"> <!-- Generator: Sketch 62 (91390) - https://sketch.com --> <title>Artboard_17</title> <desc>Created with Sketch.</desc> <defs> <polygon id="path-1" points="1.21693 0.520405 23.4765 0.520405 23.4765 16.65 1.21693 16.65"></polygon> </defs> <g id="Artboard_17" stroke="none" stroke-width="1" fill="none" fill-rule="evenodd"> <g id="Group-10" transform="translate(12.000000, 6.000000)"> <g id="Group-3" transform="translate(12.950000, 30.180160)"> <mask id="mask-2" fill="white"> <use xlink:href="#path-1"></use> </mask> <g id="Clip-2"></g> <path d="M23.26893,7.702105 L18.78083,0.520405 C17.57463,1.528655 14.78668,3.691305 10.66488,5.881705 C7.62903,7.496755 4.45443,8.813955 1.21693,9.801855 L1.21693,15.277855 C1.21693,16.036355 1.83113,16.650555 2.58778,16.650555 L7.93798,16.650555 C8.69648,16.650555 9.31068,16.036355 9.31068,15.277855 L9.31068,9.801855 L22.10528,9.801855 C22.60293,9.801855 23.06358,9.529905 23.30593,9.093305 C23.54643,8.658555 23.53348,8.125755 23.26893,7.702105" id="Fill-1" fill="#006CB2" mask="url(#mask-2)"></path> </g> <path d="M13.3829,29.327865 C14.393,29.327865 15.21255,30.151115 15.21255,31.166765 C15.21255,32.182415 14.393,33.007515 13.3829,33.007515 C12.3728,33.007515 11.55325,32.182415 11.55325,31.166765 C11.55325,30.151115 12.3728,29.327865 13.3829,29.327865 M22.2444,33.682765 C24.42555,32.528365 26.22375,31.372115 27.5798,30.413815 C25.8593,30.221415 24.1092,29.819965 22.34245,29.209465 C19.8505,28.349215 17.3234,27.072715 14.8296,25.420665 C11.57915,23.265415 9.25925,21.049115 8.31205,20.087115 L5.24475,24.540065 C4.9543,24.960015 4.92285,25.505765 5.15965,25.957165 C5.39645,26.408565 5.8645,26.691615 6.37325,26.691615 L7.2002,26.691615 L0.2072,37.882265 C-0.0555,38.305915 -0.06845,38.838715 0.17205,39.273465 C0.20165,39.328965 0.23495,39.378915 0.27195,39.428865 C9.72545,39.290115 17.4381,36.228365 22.2444,33.682765" id="Fill-4" fill="#006CB2"></path> <path d="M21.796515,7.64827 L19.417415,4.37007 C20.101915,3.95752 20.560715,3.20827 20.560715,2.35172 C20.560715,1.05302 19.509915,0.00037 18.213065,0.00037 C16.916215,0.00037 15.865415,1.05302 15.865415,2.35172 C15.865415,3.20827 16.324215,3.95752 17.008715,4.36822 L9.096265,15.28137 C8.792865,15.69947 8.750315,16.25077 8.985265,16.70957 C9.088865,16.91677 9.244265,17.08882 9.427415,17.21462 C16.744165,16.11387 20.333165,10.68967 21.796515,7.64827" id="Fill-6" fill="#006CB2"></path> <path d="M20.808245,23.249505 C19.798145,23.249505 18.978595,22.426255 18.978595,21.408755 C18.978595,20.393105 19.798145,19.569855 20.808245,19.569855 C21.818345,19.569855 22.637895,20.393105 22.637895,21.408755 C22.637895,22.426255 21.818345,23.249505 20.808245,23.249505 M19.503995,15.313005 C17.239595,17.386855 14.632945,18.803955 11.726595,19.547655 C12.858795,20.565155 14.462745,21.887905 16.403395,23.171805 C19.683445,25.336305 24.584095,27.796805 29.919495,27.798655 L29.225745,26.690505 L30.052695,26.690505 C30.561445,26.690505 31.029495,26.409305 31.268145,25.956055 C31.504945,25.506505 31.471645,24.960755 31.183045,24.540805 L26.300895,17.457155 C26.783745,17.427555 27.220345,17.144505 27.442345,16.709755 C27.677295,16.250955 27.632895,15.697805 27.331345,15.281555 L23.596195,10.131155 C22.673045,11.764705 21.355845,13.618405 19.503995,15.313005" id="Fill-8" fill="#006CB2"></path> </g> </g> </svg> 