<?xml version="1.0" encoding="UTF-8"?> <svg xmlns="http://www.w3.org/2000/svg" xmlns:xlink="http://www.w3.org/1999/xlink" width="60px" height="60px" viewBox="0 0 60 60"> <title>Artboard_20 Copy 12</title> <g id="Artboard_20-Copy-12" stroke="none" stroke-width="1" fill="none" fill-rule="evenodd"> <g id="molecule" transform="translate(6.000000, 6.000000)" fill="#00A1A0" fill-rule="nonzero"> <path d="M40.1725176,28.7077647 L32.7478588,25.8517647 C33.2528,23.4637176 32.7769412,20.8763294 31.2385882,18.7579294 L38.9977412,10.9987765 C42.9177412,13.3838118 48,10.5548235 48,5.92941176 C48,2.65995294 45.3400471,0 42.0705882,0 C37.4413176,0 34.6185412,5.08621176 37.0012235,9.00225882 L29.2420706,16.7614118 C25.9107765,14.3423059 21.3437176,14.5078588 18.1906824,17.2090353 L14.2418824,13.8524235 C16.2119529,9.93138824 13.3471059,5.27058824 8.94117647,5.27058824 C5.67171765,5.27058824 3.01176471,7.93054118 3.01176471,11.2 C3.01176471,16.0526118 8.53298824,18.8142118 12.4122353,16.0028235 L16.3603765,19.3588706 C14.4928,22.4216471 14.6405647,26.3215059 16.7615059,29.2420706 L11.5971765,34.4063059 C6.71265882,31.0948706 0,34.5860706 0,40.5647059 C0,44.6645647 3.33543529,48 7.43529412,48 C13.4089412,48 16.9087059,41.2924235 13.5936,36.4029176 L18.7579294,31.2386824 C20.9221647,32.8103529 23.6244706,33.3021176 26.1404235,32.6816941 L29.3501176,40.2685176 C26.3139765,42.9626353 28.2240941,48 32.2823529,48 C34.7215059,48 36.7058824,46.0156235 36.7058824,43.5764706 C36.7058824,41.0417882 34.5515294,38.9723294 31.9498353,39.1667765 L28.7394824,31.5783529 C29.9696941,30.8062118 30.9996235,29.7432471 31.7317647,28.4862118 L39.1577412,31.3427765 C39.0519529,33.8724706 41.0809412,35.9529412 43.5764706,35.9529412 C46.0156235,35.9529412 48,33.9685647 48,31.5294118 C48,27.4264471 42.8248471,25.5136 40.1725176,28.7077647 Z" id="Path"></path> </g> </g> </svg> 