<?xml version="1.0" encoding="UTF-8"?> <svg xmlns="http://www.w3.org/2000/svg" xmlns:xlink="http://www.w3.org/1999/xlink" width="60px" height="60px" viewBox="0 0 60 60"> <!-- Generator: Sketch 62 (91390) - https://sketch.com --> <title>Artboard_26</title> <desc>Created with Sketch.</desc> <defs> <polygon id="path-1" points="0 0.117142857 9.42357143 0.117142857 9.42357143 11.6714286 0 11.6714286"></polygon> <polygon id="path-3" points="0.163 0.529 9.58714286 0.529 9.58714286 12.0832857 0.163 12.0832857"></polygon> <polygon id="path-5" points="0.163 0.117142857 9.58714286 0.117142857 9.58714286 11.6714286 0.163 11.6714286"></polygon> <polygon id="path-7" points="0.953285714 0.772857143 7.13328571 0.772857143 7.13328571 9.18814286 0.953285714 9.18814286"></polygon> <polygon id="path-9" points="0 0.529 9.42357143 0.529 9.42357143 12.0832857 0 12.0832857"></polygon> </defs> <g id="Artboard_26" stroke="none" stroke-width="1" fill="none" fill-rule="evenodd"> <g id="Group-38" transform="translate(10.000000, 9.000000)"> <path d="M18.6332857,40.6555714 L18.6332857,32.2398571 C16.5261429,32.3212857 14.439,32.6184286 12.4518571,33.1112857 C12.7718571,33.8841429 13.1232857,34.6227143 13.5018571,35.3227143 C15.0147143,38.1112857 16.8947143,40.037 18.6332857,40.6555714" id="Fill-1" fill="#00A1A0"></path> <path d="M26.0851429,35.3221429 C26.4637143,34.625 26.8137143,33.8835714 27.1337143,33.1107143 C25.148,32.6178571 23.0608571,32.3207143 20.9537143,32.2407143 L20.9537143,40.655 C22.6922857,40.0378571 24.5722857,38.1107143 26.0851429,35.3221429" id="Fill-3" fill="#00A1A0"></path> <path d="M18.6332857,29.9188571 L18.6332857,22.2017143 L10.1761429,22.2017143 C10.2818571,25.2145714 10.7961429,28.2102857 11.6561429,30.9217143 C13.8975714,30.3474286 16.2561429,30.0045714 18.6332857,29.9188571" id="Fill-5" fill="#00A1A0"></path> <path d="M18.6332857,19.8825714 L18.6332857,12.1654286 C16.2561429,12.0797143 13.8975714,11.7368571 11.6561429,11.1625714 C10.7961429,13.874 10.2818571,16.8697143 10.1761429,19.8825714 L18.6332857,19.8825714 Z" id="Fill-7" fill="#00A1A0"></path> <path d="M29.3768571,8.32014286 C30.7882857,7.84442857 32.1254286,7.26585714 33.3554286,6.59157143 C31.1954286,4.563 28.5825714,3.01157143 25.6868571,2.10871429 C26.554,3.08871429 27.3754286,4.27728571 28.124,5.65585714 C28.5825714,6.50157143 29.0011429,7.393 29.3768571,8.32014286" id="Fill-9" fill="#00A1A0"></path> <path d="M13.5014286,6.76185714 C13.1228571,7.46042857 12.7728571,8.20185714 12.4528571,8.97471429 C14.4385714,9.46757143 16.5257143,9.76471429 18.6328571,9.84328571 L18.6328571,1.429 C16.8942857,2.04757143 15.0142857,3.97471429 13.5014286,6.76185714" id="Fill-11" fill="#00A1A0"></path> <path d="M20.9532857,22.2012857 L20.9532857,29.9184286 C23.3304286,30.0041429 25.689,30.347 27.9304286,30.9212857 C28.7904286,28.2098571 29.3047143,25.2141429 29.4104286,22.2012857 L20.9532857,22.2012857 Z" id="Fill-13" fill="#00A1A0"></path> <path d="M20.9532857,12.165 L20.9532857,19.8821429 L29.4104286,19.8821429 C29.3047143,16.8692857 28.7904286,13.8735714 27.9304286,11.1635714 C25.689,11.7364286 23.3304286,12.0792857 20.9532857,12.165" id="Fill-15" fill="#00A1A0"></path> <g id="Group-19" transform="translate(0.000000, 22.084571)"> <mask id="mask-2" fill="white"> <use xlink:href="#path-1"></use> </mask> <g id="Clip-18"></g> <path d="M9.42357143,9.50142857 C8.49642857,6.58142857 7.95785714,3.38714286 7.85357143,0.117142857 L-0.000714285714,0.117142857 C0.253571429,4.5 1.93785714,8.50428571 4.59071429,11.6714286 C6.06785714,10.8142857 7.69642857,10.0857143 9.42357143,9.50142857" id="Fill-17" fill="#00A1A0" mask="url(#mask-2)"></path> </g> <path d="M29.3768571,33.7651429 C28.9997143,34.6908571 28.5825714,35.5822857 28.124,36.4294286 C27.3754286,37.8065714 26.554,38.9951429 25.6868571,39.9765714 C28.5825714,39.0722857 31.1954286,37.5208571 33.3554286,35.4922857 C32.1254286,34.8194286 30.7882857,34.2408571 29.3768571,33.7651429" id="Fill-20" fill="#00A1A0"></path> <path d="M10.2097143,33.7651429 C8.79828571,34.2408571 7.46114286,34.8194286 6.23114286,35.4922857 C8.39114286,37.5208571 11.004,39.0722857 13.8997143,39.9765714 C13.0325714,38.9951429 12.2111429,37.8065714 11.4625714,36.4294286 C11.004,35.5822857 10.5854286,34.6908571 10.2097143,33.7651429" id="Fill-22" fill="#00A1A0"></path> <g id="Group-26" transform="translate(30.000000, 7.798857)"> <mask id="mask-4" fill="white"> <use xlink:href="#path-3"></use> </mask> <g id="Clip-25"></g> <path d="M0.163,2.70042857 C1.09014286,5.62042857 1.62871429,8.81471429 1.733,12.0832857 L9.58728571,12.0832857 C9.33157143,7.70185714 7.64871429,3.69757143 4.99585714,0.529 C3.51871429,1.38757143 1.89014286,2.11614286 0.163,2.70042857" id="Fill-24" fill="#00A1A0" mask="url(#mask-4)"></path> </g> <g id="Group-29" transform="translate(30.000000, 22.084571)"> <mask id="mask-6" fill="white"> <use xlink:href="#path-5"></use> </mask> <g id="Clip-28"></g> <path d="M0.163,9.50142857 C1.89014286,10.0857143 3.51871429,10.8128571 4.99585714,11.6714286 C7.64871429,8.50428571 9.33157143,4.49857143 9.58728571,0.117142857 L1.733,0.117142857 C1.62871429,3.38714286 1.09014286,6.58142857 0.163,9.50142857" id="Fill-27" fill="#00A1A0" mask="url(#mask-6)"></path> </g> <g id="Group-32" transform="translate(20.000000, 0.656000)"> <mask id="mask-8" fill="white"> <use xlink:href="#path-7"></use> </mask> <g id="Clip-31"></g> <path d="M0.953285714,0.772428571 L0.953285714,9.18814286 C3.06042857,9.10814286 5.14757143,8.811 7.13328571,8.31814286 C6.81471429,7.54528571 6.46471429,6.80528571 6.08471429,6.10528571 C4.57185714,3.31814286 2.69185714,1.39242857 0.953285714,0.772428571" id="Fill-30" fill="#00A1A0" mask="url(#mask-8)"></path> </g> <g id="Group-35" transform="translate(0.000000, 7.798857)"> <mask id="mask-10" fill="white"> <use xlink:href="#path-9"></use> </mask> <g id="Clip-34"></g> <path d="M9.42357143,2.70042857 C7.69642857,2.11614286 6.06785714,1.38757143 4.59071429,0.529 C1.93642857,3.69757143 0.253571429,7.70185714 -0.000714285714,12.0832857 L7.85357143,12.0832857 C7.95785714,8.81471429 8.49642857,5.62042857 9.42357143,2.70042857" id="Fill-33" fill="#00A1A0" mask="url(#mask-10)"></path> </g> <path d="M10.2097143,8.32014286 C10.5868571,7.393 11.004,6.50157143 11.4625714,5.65585714 C12.2111429,4.27728571 13.0311429,3.08871429 13.8997143,2.10871429 C11.004,3.01157143 8.39114286,4.563 6.23114286,6.59157143 C7.46114286,7.26585714 8.79828571,7.84442857 10.2097143,8.32014286" id="Fill-36" fill="#00A1A0"></path> </g> </g> </svg> 