<?xml version="1.0" encoding="UTF-8"?> <svg xmlns="http://www.w3.org/2000/svg" xmlns:xlink="http://www.w3.org/1999/xlink" width="60px" height="60px" viewBox="0 0 60 60"> <!-- Generator: Sketch 62 (91390) - https://sketch.com --> <title>Artboard_28</title> <desc>Created with Sketch.</desc> <g id="Artboard_28" stroke="none" stroke-width="1" fill="none" fill-rule="evenodd"> <g id="health-care" transform="translate(10.000000, 11.000000)" fill="#00A1A0" fill-rule="nonzero"> <polygon id="Path" points="32.3205206 13.3333333 27.0679954 13.3333333 27.0679954 18.9090909 21.0275913 18.9090909 21.0275913 23.7575758 27.0679954 23.7575758 27.0679954 29.3333333 32.3205206 29.3333333 32.3205206 23.7575758 38.3609247 23.7575758 38.3609247 18.9090909 32.3205206 18.9090909"></polygon> <path d="M19.0012177,16.1552772 L24.864954,16.1552772 L24.864954,10.3794666 L35.0627562,10.3794666 L35.0627562,16.1552772 L38.0200338,16.1552772 C39.0795855,14.4811292 39.694258,12.5831476 39.694258,10.5025165 C39.694258,4.70310031 34.9222815,0.000753366607 29.0357701,0.000753366607 C25.4591459,0.000753366607 22.294258,1.73609149 20.3609247,4.39907503 C18.4275913,1.73600778 15.2627034,0 11.6860793,0 C5.79956791,0 1.02759135,4.70125875 1.02759135,10.5007586 C1.02759135,13.0218581 1.92941699,15.3350284 3.43248805,17.1451172 L20.3609247,37.3333333 L24.864954,31.9619131 L24.864954,26.2001653 L19.0012177,26.2001653 L19.0012177,16.1552772 Z" id="Path"></path> </g> </g> </svg> 