<?xml version="1.0" encoding="UTF-8"?> <svg xmlns="http://www.w3.org/2000/svg" xmlns:xlink="http://www.w3.org/1999/xlink" width="60px" height="60px" viewBox="0 0 60 60"> <title>Artboard_20 Copy 5</title> <g id="Artboard_20-Copy-5" stroke="none" stroke-width="1" fill="none" fill-rule="evenodd"> <g id="traveler" transform="translate(12.000000, 6.000000)" fill="#009ED0" fill-rule="nonzero"> <ellipse id="Oval" transform="translate(9.567277, 4.041656) rotate(-2.579148) translate(-9.567277, -4.041656) " cx="9.56727732" cy="4.04165637" rx="3.88195048" ry="3.85386394"></ellipse> <path d="M19.2311321,27.0070643 L19.2311321,13.3775849 C19.2311321,13.374481 19.2311321,13.371377 19.2311321,13.3682731 C19.2190715,10.9596017 17.2172006,9 14.7687234,9 C12.7624669,9 7.08623563,9 4.80075877,9 C2.34826138,9 0.343192639,10.9596017 0.331132075,13.3682731 L0.331132075,13.3775849 L0.331132075,27.0071556 C0.331132075,28.0317356 1.1623973,28.8624096 2.1879107,28.8624096 C3.2134241,28.8624096 4.04468933,28.0318269 4.04468933,27.0071556 L4.04468933,13.3843406 C4.04816131,13.031311 4.40787677,12.7104166 4.80094151,12.7104166 L4.84598589,12.7104166 L4.84598589,26.7790147 L4.84772188,26.7790147 L4.84772188,44.5737318 C4.84772188,45.8032643 5.8452767,46.8 7.07581968,46.8 C8.30636267,46.8 9.30391749,45.8032643 9.30391749,44.5737318 L9.30391749,26.7790147 L10.2660216,26.7790147 L10.2660216,44.5737318 C10.2660216,45.8032643 11.2635764,46.8 12.4941194,46.8 C13.7246624,46.8 14.7222172,45.8032643 14.7222172,44.5737318 C14.7139941,30.3327727 14.7381152,41.7795306 14.7038522,12.7104166 L14.7689975,12.7104166 C15.1580421,12.7104166 15.5140115,13.0309459 15.5179403,13.3837016 L15.5179403,27.0071556 C15.5179403,28.0317356 16.3492055,28.8624096 17.3747189,28.8624096 C18.3998668,28.8623183 19.2311321,28.0317356 19.2311321,27.0070643 Z" id="Path"></path> <path d="M27.634075,28.0498254 L25.6990572,28.0498254 L25.6990572,27.1734623 C25.6990572,26.5815232 25.2303295,26.1 24.6542296,26.1 L21.9079454,26.1 C21.3318455,26.1 20.863207,26.5815232 20.863207,27.1734623 L20.863207,28.0498254 L19.968201,28.0498254 C19.6509894,29.2233492 18.6485221,30.1031943 17.4311321,30.2060047 L17.4311321,44.3723167 C17.4311321,45.2218317 18.1014056,45.9105336 18.9281892,45.9105336 L19.1186767,45.9105336 L19.1186767,46.2492034 C19.1186767,46.5534198 19.3586588,46.8 19.6547349,46.8 L21.0013461,46.8 C21.2974222,46.8 21.5374044,46.5534198 21.5374044,46.2492034 L21.5374044,45.9105336 L22.7931416,45.9105336 C22.4884151,45.4774835 22.308094,44.946296 22.308094,44.3723167 L22.308094,37.4234466 C22.308094,36.8774148 22.4709359,36.369685 22.7490869,35.9488218 L22.7490869,30.4611983 C22.7490869,30.1592727 22.9872855,29.9145251 23.2811321,29.9145251 C23.5749787,29.9145251 23.8131773,30.1592727 23.8131773,30.4611983 L23.8131773,35.0271012 C24.135383,34.8766424 24.4928146,34.7920666 24.8691523,34.7920666 L25.6752462,34.7920666 L25.6752462,30.4612899 C25.6752462,30.1593643 25.9134448,29.9146168 26.2072914,29.9146168 C26.501138,29.9146168 26.7393366,30.1593643 26.7393366,30.4612899 L26.7393366,32.8418747 C27.0600262,32.6309391 27.4407337,32.5079697 27.8489977,32.5079697 L29.1311321,32.5079697 L29.1311321,29.5880423 C29.1311321,28.7385273 28.4608586,28.0498254 27.634075,28.0498254 L27.634075,28.0498254 Z M20.9756624,43.6965348 C20.9756624,43.9984604 20.7374638,44.243208 20.4436172,44.243208 C20.1497706,44.243208 19.911572,43.998552 19.911572,43.6965348 L19.911572,30.4611983 C19.911572,30.1592727 20.1497706,29.9145251 20.4436172,29.9145251 C20.7374638,29.9145251 20.9756624,30.1592727 20.9756624,30.4611983 L20.9756624,43.6965348 Z M24.6349668,28.0498254 L21.9272974,28.0498254 L21.9272974,27.1932547 L24.6349668,27.1932547 L24.6349668,28.0498254 Z" id="Shape"></path> <path d="M33.9342532,36.5375156 L31.9947764,36.5375156 C32.0033377,36.4289851 31.9971843,36.5476027 31.9991462,35.2941781 C31.9991462,34.6909091 31.5305077,34.2 30.9543186,34.2 L28.2080345,34.2 C27.6319346,34.2 27.1632961,34.6908157 27.1632961,35.2941781 C27.1653472,36.5488169 27.1591047,36.4292653 27.1676659,36.5375156 L25.2281891,36.5375156 C24.4014055,36.5375156 23.7311321,37.2765878 23.7311321,38.1424969 L23.7311321,45.225467 C23.7311321,46.0913761 24.4014055,46.7933686 25.2281891,46.7933686 L25.4186766,46.7933686 L25.4186766,47.1385741 C25.4186766,47.4486613 25.6586588,47.7 25.9547349,47.7 L27.266566,47.7 L27.3013461,47.7 C27.5974221,47.7 27.8374043,47.4486613 27.8374043,47.1385741 L27.8374043,46.7933686 L31.3248597,46.7933686 L31.3248597,47.1385741 C31.3248597,47.4486613 31.5648418,47.7 31.8609179,47.7 L33.2075291,47.7 C33.5036052,47.7 33.7435873,47.4486613 33.7435873,47.1385741 L33.7435873,46.7933686 L33.9340748,46.7933686 C34.7608584,46.7933686 35.4311319,46.0913761 35.4311319,45.225467 L35.4311319,38.1424035 C35.4313103,37.2764944 34.7610368,36.5375156 33.9342532,36.5375156 L33.9342532,36.5375156 Z M28.7995624,42.9882628 C28.2602937,42.9882628 27.8231356,42.5304172 27.8231356,41.9656289 C27.8231356,41.4008406 28.2602937,40.942995 28.7995624,40.942995 C29.3388312,40.942995 29.7759893,41.4008406 29.7759893,41.9656289 C29.7759893,42.5303238 29.3388312,42.9882628 28.7995624,42.9882628 Z M30.935145,36.5375156 L28.2274756,36.5375156 L28.2274756,35.3144458 L30.935145,35.3144458 L30.935145,36.5375156 Z M32.5344019,42.1015255 C31.9234328,42.1015255 31.4281296,41.5827833 31.4281296,40.942995 C31.4281296,40.3030199 31.9234328,39.7843711 32.5344019,39.7843711 C33.1453709,39.7843711 33.6406741,40.3031133 33.6406741,40.942995 C33.6406741,41.5827833 33.1453709,42.1015255 32.5344019,42.1015255 Z" id="Shape"></path> </g> </g> </svg> 