<?xml version="1.0" encoding="UTF-8"?> <svg xmlns="http://www.w3.org/2000/svg" xmlns:xlink="http://www.w3.org/1999/xlink" width="60px" height="60px" viewBox="0 0 60 60"> <title>Artboard_20 Copy 15</title> <g id="Artboard_20-Copy-15" stroke="none" stroke-width="1" fill="none" fill-rule="evenodd"> <rect id="Rectangle" fill="#FFFFFF" x="0" y="0" width="60" height="60"></rect> <circle id="Oval" fill="#FFFFFF" cx="30" cy="15" r="1"></circle> <g id="computer" transform="translate(10.000000, 11.000000)" fill="#29ABE2" fill-rule="nonzero"> <polygon id="Path" points="23.5014474 33 15.4985526 33 14.6210388 36.7192093 8 36.7192093 8 39 31 39 31 36.7192093 24.3789612 36.7192093"></polygon> <path d="M0,28.8564998 C0,30.0402835 1.04929688,31 2.34375,31 L37.65625,31 C38.9507031,31 40,30.0402835 40,28.8564998 L40,26 L0,26 L0,28.8564998 Z" id="Path"></path> <path d="M37.65625,0 L2.34375,0 C1.04929688,0 0,1.07358752 0,2.39800653 L0,23 L40,23 L40,2.39800653 C40,1.07366746 38.9507031,0 37.65625,0 Z" id="Shape"></path> </g> <polyline id="Path-3" stroke="#FFFFFF" stroke-width="3" points="23 21.6593312 28.3406688 27 37.3406688 18"></polyline> </g> </svg> 