<?xml version="1.0" encoding="UTF-8"?> <svg xmlns="http://www.w3.org/2000/svg" xmlns:xlink="http://www.w3.org/1999/xlink" width="60px" height="60px" viewBox="0 0 60 60"> <!-- Generator: Sketch 62 (91390) - https://sketch.com --> <title>Artboard_13</title> <desc>Created with Sketch.</desc> <g id="Artboard_13" stroke="none" stroke-width="1" fill="none" fill-rule="evenodd"> <rect id="Rectangle" fill="#FFFFFF" x="0" y="0" width="60" height="60"></rect> <rect id="Rectangle-Copy" fill="#FFFFFF" x="0" y="0" width="60" height="60"></rect> <g id="Group-11" transform="translate(8.000000, 8.000000)"> <polygon id="Fill-1" fill="#0071BC" points="1.585375 43.438175 13.8215 43.438175 13.8215 12.321925 1.585375 12.321925"></polygon> <polygon id="Fill-2" fill="#0071BC" points="15.357375 43.438175 41.650125 43.438175 41.650125 21.27455 15.357375 21.27455"></polygon> <polygon id="Fill-3" fill="#0071BC" points="15.214375 43.438175 24.2495 43.438175 24.2495 0.00055 15.214375 0.00055"></polygon> <polygon id="Fill-4" fill="#0071BC" points="0 14.626425 13.8215 14.626425 13.8215 12.32055 0 12.32055"></polygon> <polygon id="Fill-5" fill="#0071BC" points="23.975875 23.533675 43.1365 23.533675 43.1365 21.229175 23.975875 21.229175"></polygon> <polygon id="Fill-6" fill="#FFFFFF" points="16.990875 41.133675 22.32175 41.133675 22.32175 2.52505 16.990875 2.52505"></polygon> <polygon id="Fill-7" fill="#0071BC" points="18.095 42.33405 18.96125 42.33405 18.96125 0.94105 18.095 0.94105"></polygon> <polygon id="Fill-8" fill="#0071BC" points="20.11075 42.33405 20.977 42.33405 20.977 0.94105 20.11075 0.94105"></polygon> <polygon id="Fill-9" fill="#FFFFFF" points="26.21025 28.744925 29.187125 28.744925 29.187125 25.095675 26.21025 25.095675"></polygon> <polygon id="Fill-10" fill="#FFFFFF" points="30.84125 28.744925 33.818125 28.744925 33.818125 25.095675 30.84125 25.095675"></polygon> </g> </g> </svg> 