<?xml version="1.0" encoding="UTF-8"?> <svg xmlns="http://www.w3.org/2000/svg" xmlns:xlink="http://www.w3.org/1999/xlink" width="60px" height="60px" viewBox="0 0 60 60"> <!-- Generator: Sketch 62 (91390) - https://sketch.com --> <title>Artboard_5</title> <desc>Created with Sketch.</desc> <defs> <polygon id="path-1" points="0 0.551718367 6.45915102 0.551718367 6.45915102 13.5866163 0 13.5866163"></polygon> <polygon id="path-3" points="0.441787755 0.361710204 38.2870204 0.361710204 38.2870204 22.5304761 0.441787755 22.5304761"></polygon> </defs> <g id="Artboard_5" stroke="none" stroke-width="1" fill="none" fill-rule="evenodd"> <g id="Group-11"> <rect id="Rectangle" fill="#FFFFFF" x="0" y="0" width="60" height="60"></rect> <g id="Group-3" transform="translate(7.000000, 31.843837)"> <mask id="mask-2" fill="white"> <use xlink:href="#path-1"></use> </mask> <g id="Clip-2"></g> <path d="M6.45915102,6.72792245 C5.64241633,6.29796327 4.83225306,5.79384082 4.04180408,5.20147347 C1.94739592,3.62996327 0.707273469,2.03498367 -0.000563265306,0.551718367 L0.145885714,6.53735102 C0.637804082,8.41396327 1.93519184,10.3975959 4.48866122,12.3136367 C5.13172245,12.7952286 5.79168163,13.2139224 6.45915102,13.5866163 L6.45915102,6.72792245 Z" id="Fill-1" fill="#006CB2" mask="url(#mask-2)"></path> </g> <g id="Group-6" transform="translate(14.510204, 25.272408)"> <mask id="mask-4" fill="white"> <use xlink:href="#path-3"></use> </mask> <g id="Clip-5"></g> <path d="M35.5510531,3.47562857 C32.1254612,5.63293469 20.6677061,12.4155878 18.8596245,13.4407306 C17.673951,14.1138327 14.2793388,15.2722816 10.2200735,15.5219959 C9.73378776,15.551098 9.2184,15.5689347 8.67954286,15.5689347 C6.25374694,15.5689347 3.34166531,15.2122 0.441787755,14.0030571 L0.441787755,20.9011796 C8.20827755,24.3098735 16.7961959,21.4625673 18.4906857,20.5012612 C20.4433388,19.3944449 31.7584,12.6061592 35.1530122,10.5539959 C36.3480735,9.83207755 37.3760327,8.82758776 38.0538286,7.65036327 L38.2875837,0.361710204 C37.5853796,1.73513878 36.5677469,2.83538367 35.5510531,3.47562857" id="Fill-4" fill="#006CB2" mask="url(#mask-4)"></path> </g> <path d="M45.3765796,14.2475224 C41.611151,12.5398898 38.1855592,12.0000939 35.3570286,12.0000939 C30.5195184,12.0000939 27.4300082,13.5809918 27.3811918,13.6054 L11.4708245,22.1829918 C10.026049,22.9621755 7.89127347,25.3842163 7.6716,28.3310327 C7.55143673,29.9476041 8.02457959,31.4956449 9.05629388,32.9657673 C9.84674286,31.654298 11.6050694,29.345849 14.8278857,27.8503796 C14.7293143,27.4044612 14.7020898,26.9904612 14.7293143,26.6346653 C14.8616816,24.858502 16.0952327,23.4315633 17.2574367,22.8063388 L30.9175592,15.4519714 C31.0921714,15.3590327 35.1852327,13.2467878 40.6658041,15.7326653 C43.7844163,17.1464612 44.5438857,18.9845837 44.6321306,20.2772776 C44.7504163,22.0121347 43.7111918,23.4907061 42.694498,24.130951 C41.222498,25.0575224 32.3435592,30.0762163 29.4258449,31.7256449 L28.6410286,32.1687469 C27.8186612,32.6343796 25.8622531,33.3459714 23.524702,33.3459714 C21.5833143,33.3459714 19.3809469,32.8559306 17.3456816,31.3294816 C16.4012735,30.6216449 15.7882531,29.9100531 15.3873959,29.2341347 C12.1138857,30.7831143 10.5451918,33.3084204 10.0711102,34.2040122 C10.607151,34.7654 11.2239265,35.3164612 11.9373959,35.8515633 C20.1732735,42.0277673 30.9870286,38.3496449 32.6336408,37.4155633 C34.435151,36.3932367 45.8525388,29.6349918 49.2668653,27.4851959 C50.8468245,26.4900939 52.3582531,24.168502 52.1864571,21.6572776 C51.9874367,18.7395633 49.6329878,16.1776449 45.3765796,14.2475224" id="Fill-7" fill="#006CB2"></path> <path d="M41.8983224,22.8683918 C42.573302,22.4440653 43.2163633,21.4527184 43.1431388,20.3787592 C43.0567714,19.1067184 41.9875061,17.9698612 40.0489347,17.0911673 C38.2586898,16.2791265 36.6402408,16.0228408 35.3109347,16.0228408 C33.0625673,16.0228408 31.6431388,16.7560245 31.6206082,16.7672898 L17.9642408,24.1197796 C17.3146082,24.4699429 16.3129347,25.4575347 16.2171796,26.7455347 C16.1683633,27.3904735 16.3598735,28.0232082 16.7691796,28.6409224 L32.6598327,20.0426776 L32.9527306,20.1262286 C33.3723633,20.2445143 39.0256694,22.5820653 41.0083633,23.4025551 C41.4073429,23.1688 41.7152612,22.9848 41.8983224,22.8683918" id="Fill-9" fill="#006CB2"></path> </g> </g> </svg> 