<?xml version="1.0" encoding="UTF-8"?> <svg xmlns="http://www.w3.org/2000/svg" xmlns:xlink="http://www.w3.org/1999/xlink" width="60px" height="60px" viewBox="0 0 60 60"> <!-- Generator: Sketch 62 (91390) - https://sketch.com --> <title>Artboard_20</title> <desc>Created with Sketch.</desc> <defs> <polygon id="path-1" points="1.26723429 0.757028571 25.9560914 0.757028571 25.9560914 31.7131258 1.26723429 31.7131258"></polygon> </defs> <g id="Artboard_20" stroke="none" stroke-width="1" fill="none" fill-rule="evenodd"> <g id="Group-6" transform="translate(7.000000, 10.000000)"> <g id="Group-3" transform="translate(19.714286, 0.557126)"> <mask id="mask-2" fill="white"> <use xlink:href="#path-1"></use> </mask> <g id="Clip-2"></g> <path d="M16.3394629,10.1381371 C16.8717486,9.60585143 17.7352343,9.60585143 18.26752,10.1381371 C18.60792,10.4772229 19.05872,10.6638514 19.5384343,10.6638514 C20.0181486,10.6638514 20.4702629,10.4772229 20.8093486,10.1381371 C21.3429486,9.60453714 22.20512,9.60453714 22.73872,10.1381371 C23.2696914,10.6691086 23.2696914,11.5339086 22.73872,12.0661943 C21.88312,12.92048 20.7475771,13.3909943 19.5384343,13.3909943 C18.3306057,13.3909943 17.1937486,12.92048 16.3394629,12.0661943 C15.8071771,11.5339086 15.8071771,10.6691086 16.3394629,10.1381371 M1.26723429,3.85322286 L1.26723429,4.84813714 C2.64592,4.75350857 3.38454857,4.86522286 3.46077714,4.87836571 C3.90500571,4.95065143 4.28483429,5.23716571 4.47540571,5.64459429 L6.41266286,9.77539429 C6.64792,9.83059429 6.87134857,9.94625143 7.05534857,10.1249943 C7.28929143,10.35368 7.56923429,10.5324229 7.88597714,10.6086514 C8.51946286,10.7637371 9.14769143,10.5876229 9.59192,10.1565371 C10.0492914,9.71099429 10.7484914,9.59665143 11.2886629,9.93968 C12.0614629,10.42728 12.1442629,11.4603086 11.5383771,12.0661943 C10.6840914,12.92048 9.54854857,13.3909943 8.33940571,13.3909943 C8.26186286,13.3909943 8.18432,13.38968 8.10677714,13.3857371 L10.7116914,18.93728 C10.8220914,19.1725371 10.92592,19.4091086 11.0258057,19.6443657 C13.9579771,18.7191086 17.2962629,19.4077943 19.6264914,21.7130514 C20.1482629,22.2269371 20.2060914,23.06808 19.7184914,23.6161371 C19.4464343,23.9210514 19.0731771,24.0748229 18.6972914,24.0748229 C18.3490057,24.0748229 18.00072,23.94208 17.7352343,23.67528 C16.1541486,22.0968229 13.8856914,21.61448 11.8853486,22.23088 C12.6436914,25.2563657 12.5937486,28.3777943 11.8104343,31.3033943 C12.1784343,31.4256229 12.55432,31.5347086 12.9354629,31.6306514 C13.3783771,31.7397371 13.8410057,31.7410514 14.28392,31.6319657 C21.10112,29.9444229 25.9560914,23.81328 25.9560914,16.7095657 L25.9560914,3.85322286 C25.9560914,3.21579429 25.5644343,2.64670857 24.9677486,2.42196571 C23.0896343,1.71619429 19.4608914,0.756765714 13.61232,0.756765714 C7.76374857,0.756765714 4.13369143,1.71750857 2.25557714,2.42196571 C1.66020571,2.64670857 1.26723429,3.21579429 1.26723429,3.85322286" id="Fill-1" fill="#009ED0" mask="url(#mask-2)"></path> </g> <path d="M16.2303771,33.2974286 C15.2670057,33.2974286 14.2878629,33.1331429 13.3310629,32.7874857 C12.6226629,32.5325143 12.2559771,31.7505143 12.5122629,31.0421143 C12.7685486,30.3337143 13.5492343,29.9670286 14.2576343,30.2233143 C17.2804914,31.3154857 20.6292914,29.7449143 21.7227771,26.7207429 C21.9777486,26.0123429 22.7597486,25.6469714 23.4681486,25.9019429 C24.1752343,26.1582286 24.54192,26.9402286 24.2869486,27.6473143 C23.0291771,31.1288571 19.7342629,33.2974286 16.2303771,33.2974286 M11.65272,24.3852571 C11.2006057,24.2222857 10.7130057,24.2433143 10.2779771,24.4483429 C9.84294857,24.6520571 9.51437714,25.0134857 9.35140571,25.4642857 C9.15032,26.0202286 8.62592,26.3658857 8.06866286,26.3658857 C7.91489143,26.3658857 7.75849143,26.3396 7.60603429,26.2844 C6.89632,26.0281143 6.53094857,25.2461143 6.78592,24.5390286 C7.19729143,23.4021714 8.02529143,22.4926857 9.12009143,21.9801143 C10.2135771,21.4662286 11.4424343,21.4097143 12.5792914,21.8210857 C13.2876914,22.0760571 13.6543771,22.8580571 13.3980914,23.5664571 C13.1418057,24.2748571 12.36112,24.6402286 11.65272,24.3852571 M16.9256343,19.7813143 C17.7733486,17.4353143 20.3716914,16.2156571 22.7190057,17.0633714 C23.4260914,17.3196571 23.7927771,18.1003429 23.5378057,18.8100571 C23.28152,19.5171429 22.49952,19.8838286 21.79112,19.6288571 C20.8592914,19.2924 19.8262629,19.7760571 19.4898057,20.7078857 C19.2900343,21.2638286 18.7656343,21.6081714 18.2070629,21.6081714 C18.0532914,21.6081714 17.8968914,21.5832 17.7444343,21.5266857 C17.0360343,21.2717143 16.6693486,20.4897143 16.9256343,19.7813143 M27.9577486,20.654 L22.4679771,8.95291429 C22.2156343,8.41405714 21.6557486,8.08942857 21.0630057,8.13411429 C19.0797486,8.28525714 15.3616343,8.9424 10.00592,11.4553143 C4.71066286,13.9393143 1.83237714,16.3484 0.432662857,17.7849143 C-0.0115657143,18.2409714 -0.124594286,18.9244 0.144834286,19.5013714 L5.60569143,31.1393714 C8.62197714,37.5714857 15.6231771,41.0596 22.5126629,39.6901143 C22.9582057,39.6020571 23.3748343,39.4062286 23.7270629,39.1210286 C29.1839771,34.6971429 30.9753486,27.0848 27.9577486,20.654" id="Fill-4" fill="#009ED0"></path> </g> </g> </svg> 