<?xml version="1.0" encoding="UTF-8"?> <svg xmlns="http://www.w3.org/2000/svg" width="60" height="60" viewBox="0 0 60 60" fill="none"> <g id="Artboard_20 Copy 23"> <g id="Frame" clip-path="url(#clip0_104_143)"> <g id="Settings_2_"> <g id="Group"> <path id="Vector" fill-rule="evenodd" clip-rule="evenodd" d="M26.1449 17.266C25.3088 17.1962 24.4726 17.1962 23.6364 17.266L23.2881 19.2913C22.4519 19.4309 21.6854 19.6404 20.9189 19.9198L19.595 18.3834C18.8285 18.7326 18.0621 19.1516 17.4349 19.6404L18.1317 21.5959C17.5046 22.0847 16.9472 22.7133 16.3897 23.3418L14.4387 22.6434C13.9509 23.3418 13.5329 24.0401 13.1845 24.8083L14.7174 26.1352C14.4387 26.9034 14.2297 27.6716 14.0903 28.5097L12.0696 28.8589C11.9999 29.6969 11.9999 30.5349 12.0696 31.373L14.0903 31.7222C14.2297 32.5602 14.4387 33.3284 14.7174 34.0966L13.1845 35.4235C13.5329 36.1917 13.9509 36.9599 14.4387 37.5884L16.3897 36.8901C16.8775 37.5186 17.5046 38.0773 18.1317 38.636L17.4349 40.5914C18.1317 41.0803 18.8285 41.4993 19.595 41.8485L20.9189 40.3121C21.6854 40.5914 22.4519 40.8009 23.2881 40.9406L23.6364 42.9659C24.4726 43.0357 25.3088 43.0357 26.1449 42.9659L26.4933 40.9406C27.3295 40.8009 28.096 40.5914 28.8624 40.3121L30.1864 41.8485C30.9528 41.4993 31.7193 41.0803 32.3464 40.5914L31.6496 38.636C32.2768 38.1471 32.8342 37.5186 33.3916 36.8901L35.3427 37.5884C35.8304 36.8901 36.2485 36.1917 36.5969 35.4235L35.0639 34.0966C35.3427 33.3284 35.5517 32.5602 35.6911 31.7222L37.7118 31.373C37.7815 30.5349 37.7815 29.6969 37.7118 28.8589L35.6911 28.4398C35.5517 27.6018 35.3427 26.8336 35.0639 26.0654L36.5969 24.7385C36.2485 23.9703 35.8304 23.2021 35.3427 22.5736L33.3916 23.2719C32.9039 22.6434 32.2768 22.0847 31.6496 21.526L32.3464 19.5706C31.6496 19.0818 30.9528 18.6627 30.1864 18.3135L28.8624 19.85C28.096 19.5706 27.3295 19.3611 26.4933 19.2214L26.1449 17.266ZM24.8907 27.532C26.2843 27.532 27.4688 28.7192 27.4688 30.1159C27.4688 31.5127 26.2843 32.6999 24.8907 32.6999C23.4971 32.6999 22.3125 31.5127 22.3125 30.1159C22.3125 28.6494 23.4274 27.532 24.8907 27.532Z" fill="#006CB2"></path> <path id="Vector_2" fill-rule="evenodd" clip-rule="evenodd" d="M40.8475 37.309C40.081 37.2392 39.3842 37.2392 38.6178 37.309L38.2694 38.6359C37.5726 38.7756 36.8758 39.0549 36.2486 39.3343L35.1338 38.4962C34.5066 38.9153 33.9492 39.4041 33.4614 39.893L34.0886 41.15C33.6705 41.7087 33.3221 42.3373 33.0434 42.9658L31.6498 43.0356C31.4407 43.734 31.3014 44.5022 31.2317 45.2006L32.4859 45.7593C32.4859 46.4576 32.6253 47.156 32.8343 47.8543L31.8588 48.8321C32.1375 49.5304 32.4859 50.159 32.9737 50.7176L34.2976 50.2986C34.7854 50.8573 35.3428 51.2763 35.9002 51.6954L35.7609 53.0921C36.388 53.4413 37.0848 53.7206 37.8513 53.8603L38.6178 52.7429C39.3146 52.8826 40.0114 52.8826 40.7081 52.7429L41.4746 53.8603C42.1714 53.7206 42.8682 53.4413 43.565 53.0921L43.4257 51.6954C44.0528 51.3462 44.6102 50.8573 45.0283 50.2986L46.3522 50.7176C46.7703 50.159 47.1884 49.4606 47.4671 48.8321L46.4916 47.8543C46.7006 47.156 46.84 46.4576 46.84 45.7593L48.0942 45.2006C48.0942 44.4324 47.9549 43.734 47.6761 43.0356L46.2825 42.9658C46.0038 42.2674 45.6554 41.7087 45.2373 41.15L45.8645 39.893C45.3767 39.3343 44.8193 38.8454 44.1921 38.4962L43.0773 39.3343C42.4501 38.9851 41.7533 38.7756 41.0565 38.6359L40.8475 37.309ZM39.7326 44.0133C40.6385 44.0133 41.4049 44.7815 41.4049 45.6894C41.4049 46.5973 40.6385 47.3655 39.7326 47.3655C38.8268 47.3655 38.0603 46.5973 38.0603 45.6894C38.0603 44.7815 38.8268 44.0133 39.7326 44.0133Z" fill="#006CB2"></path> <path id="Vector_3" fill-rule="evenodd" clip-rule="evenodd" d="M40.499 7C39.7325 7 39.0357 7.13967 38.3389 7.34918L38.1995 8.74591C37.5027 9.02526 36.8756 9.30461 36.3182 9.79346L35.1336 9.0951C34.5762 9.58395 34.0884 10.1426 33.6703 10.7712L34.4368 11.8886C34.0884 12.5171 33.8097 13.1456 33.6703 13.844L32.3464 14.1233C32.207 14.8217 32.207 15.5899 32.2767 16.3581L33.6006 16.7073C33.74 17.4056 33.949 18.104 34.2974 18.7325L33.4613 19.8499C33.8097 20.4785 34.2974 21.0371 34.8549 21.5958L36.1091 21.0371C36.6666 21.526 37.2937 21.8752 37.9208 22.1545L37.9905 23.5513C38.6873 23.7608 39.3841 23.9703 40.1506 23.9703L40.708 22.7132C41.4048 22.7132 42.1016 22.5736 42.7984 22.4339L43.7042 23.4814C44.401 23.2021 45.0281 22.8529 45.6553 22.4339L45.3069 20.9673C45.8643 20.4785 46.3521 19.9896 46.7005 19.3611L48.0941 19.5706C48.4425 18.942 48.7212 18.2437 48.9302 17.5453L47.8153 16.7771C47.9547 16.0788 47.9547 15.3804 47.885 14.682L49.0696 13.9138C48.9302 13.2155 48.7212 12.4473 48.3728 11.8187L46.9792 11.9584C46.6308 11.3299 46.143 10.7712 45.6553 10.2823L46.0733 8.95542C45.4462 8.39673 44.8191 8.04755 44.1223 7.69837L43.1468 8.67608C42.45 8.39673 41.7532 8.25706 41.0564 8.25706L40.499 7ZM40.4293 13.7741C41.3351 13.6345 42.2409 14.263 42.3803 15.1709C42.5197 16.0788 41.8925 16.9866 40.9867 17.1263C40.0809 17.266 39.175 16.6374 39.0357 15.7296C38.8963 14.8217 39.5234 13.9138 40.4293 13.7741Z" fill="#006CB2"></path> </g> </g> </g> </g> <defs> <clipPath id="clip0_104_143"> <rect width="37" height="47" fill="white" transform="translate(12 7)"></rect> </clipPath> </defs> </svg> 