<?xml version="1.0" encoding="UTF-8"?> <svg xmlns="http://www.w3.org/2000/svg" xmlns:xlink="http://www.w3.org/1999/xlink" width="60px" height="60px" viewBox="0 0 60 60"> <!-- Generator: Sketch 62 (91390) - https://sketch.com --> <title>Artboard_9</title> <desc>Created with Sketch.</desc> <g id="Artboard_9" stroke="none" stroke-width="1" fill="none" fill-rule="evenodd"> <rect id="Rectangle" fill="#FFFFFF" x="0" y="0" width="60" height="60"></rect> <g id="Group-10" transform="translate(12.000000, 7.000000)" fill="#00A1A0"> <path d="M18.1950969,0.402259375 C16.7659719,0.402259375 15.6074094,1.56082187 15.6074094,2.98994687 L15.6074094,3.55997812 C15.6074094,4.98910312 16.7659719,6.14766562 18.1950969,6.14766562 C19.6242219,6.14766562 20.7839406,4.98910312 20.7839406,3.55997812 L20.7839406,2.98994687 C20.7839406,1.56082187 19.6242219,0.402259375 18.1950969,0.402259375" id="Fill-1"></path> <path d="M19.8775562,7.2052875 L16.5128687,7.2052875 C13.6534625,7.2052875 11.3363375,9.60913125 11.3363375,12.4685375 L11.3363375,18.2139437 L13.9251812,18.2139437 L15.6503062,32.6925062 L20.741275,32.6925062 L22.4664,18.2139437 L25.0552437,18.2139437 L25.0552437,12.4685375 C25.0552437,9.60913125 22.7369625,7.2052875 19.8775562,7.2052875" id="Fill-3"></path> <path d="M12.2944062,41.4195344 L24.0974062,41.4195344 L24.0974062,38.8306906 L12.2944062,38.8306906 L12.2944062,41.4195344 Z M27.5476562,43.1446594 L27.5476562,35.3804406 L8.84184375,35.3804406 L8.84184375,43.1446594 L3.510375,43.1446594 L3.510375,45.7335031 L32.8802812,45.7335031 L32.8802812,43.1446594 L27.5476562,43.1446594 Z" id="Fill-5"></path> <polygon id="Fill-7" points="3.724975 19.4136687 4.8766 21.745825 7.4504125 22.12045 5.58769375 23.9357625 6.02706875 26.4991687 3.724975 25.288575 1.42288125 26.4991687 1.86225625 23.9357625 -0.0004625 22.12045 2.57335 21.745825"></polygon> <path d="M35.970475,22.9189104 C35.970475,24.8353147 34.4171585,26.3886312 32.5026958,26.3886312 C30.5862915,26.3886312 29.032975,24.8353147 29.032975,22.9189104 C29.032975,21.0044478 30.5862915,19.4511312 32.5026958,19.4511312 C34.4171585,19.4511312 35.970475,21.0044478 35.970475,22.9189104" id="Fill-8"></path> <polygon id="Fill-9" points="11.3411937 0.00023125 10.12135 4.58360625 2.8670375 8.29748125 4.0880375 3.71295"></polygon> </g> </g> </svg> 