<?xml version="1.0" encoding="UTF-8"?> <svg xmlns="http://www.w3.org/2000/svg" xmlns:xlink="http://www.w3.org/1999/xlink" width="60px" height="60px" viewBox="0 0 60 60"> <title>Artboard_20 Copy 14</title> <g id="Artboard_20-Copy-14" stroke="none" stroke-width="1" fill="none" fill-rule="evenodd"> <rect id="Rectangle" fill="#FFFFFF" x="0" y="0" width="60" height="60"></rect> <g id="port-2" transform="translate(9.000000, 9.000000)" fill="#006CB2" fill-rule="nonzero"> <g id="port"> <path d="M20.9236364,7.48363636 C19.5762153,7.48363636 18.48,8.57985164 18.48,9.92727273 C18.48,11.2746938 19.5762153,12.3709091 20.9236364,12.3709091 C22.2710575,12.3709091 23.3672727,11.2746938 23.3672727,9.92727273 C23.3672727,8.57985164 22.2710575,7.48363636 20.9236364,7.48363636 Z" id="Path"></path> <path d="M38.2265625,0 L3.7734375,0 C1.69279687,0 0,1.69279687 0,3.7734375 L0,38.2265625 C0,40.3072031 1.69279687,42 3.7734375,42 L38.2265625,42 C40.3072031,42 42,40.3072031 42,38.2265625 L42,3.7734375 C42,1.69279687 40.3072031,0 38.2265625,0 Z M36.6356484,24.3309609 C36.3954609,24.5713125 36.080543,24.6914062 35.765625,24.6914062 C35.450707,24.6914062 35.1357891,24.5713125 34.8956016,24.3309609 L34.5249844,23.9603437 C34.2611719,31.1931211 28.2960234,36.9960938 21,36.9960938 C13.7039766,36.9960938 7.73882813,31.1931211 7.47501563,23.9604258 L7.10439844,24.331043 C6.62394141,24.811582 5.84480859,24.811582 5.36426953,24.331043 C4.88373047,23.8505039 4.88373047,23.0714531 5.36426953,22.5909141 L7.82504297,20.1301406 C8.29294922,19.6615781 9.07667578,19.6404961 9.56558203,20.1301406 L12.0263555,22.5909141 C12.5068945,23.0714531 12.5068945,23.8505039 12.0263555,24.331043 C11.7860859,24.5713125 11.471168,24.6914062 11.15625,24.6914062 C10.841332,24.6914062 10.5264141,24.5713125 10.2862266,24.3309609 L9.93849609,23.9832305 C10.1930391,29.43675 14.4104297,33.8711953 19.7696133,34.4664141 L19.7696133,14.6918789 C17.6491875,14.1441562 16.078207,12.2149453 16.078207,9.92578125 C16.078207,7.21185937 18.2861602,5.00390625 21.000082,5.00390625 C23.7140039,5.00390625 25.921957,7.21185937 25.921957,9.92578125 C25.921957,12.2149453 24.3509766,14.1441562 22.2305508,14.6918789 L22.2305508,34.4664141 C27.5897344,33.8711953 31.807125,29.43675 32.061668,23.9832305 L31.7139375,24.3309609 C31.2334805,24.8115 30.4543477,24.8115 29.9738086,24.3309609 C29.4932695,23.8504219 29.4932695,23.0713711 29.9738086,22.590832 L32.434582,20.1300586 C32.9120039,19.6518984 33.6958945,19.6501758 34.1751211,20.1300586 L36.6358945,22.590832 C37.1162695,23.0713711 37.1162695,23.8505039 36.6356484,24.3309609 Z" id="Shape"></path> </g> </g> </g> </svg> 