<?xml version="1.0" encoding="UTF-8"?> <svg xmlns="http://www.w3.org/2000/svg" xmlns:xlink="http://www.w3.org/1999/xlink" width="60px" height="60px" viewBox="0 0 60 60"> <!-- Generator: Sketch 62 (91390) - https://sketch.com --> <title>Artboard_19</title> <desc>Created with Sketch.</desc> <g id="Artboard_19" stroke="none" stroke-width="1" fill="none" fill-rule="evenodd"> <path d="M38.1007549,30.2260094 L34.8778313,33.3691661 L35.6381629,37.8089597 C35.8265487,38.9104223 34.6690796,39.752218 33.677933,39.2328844 L29.6929806,37.1351837 L25.706331,39.2328844 C24.7202759,39.7505209 23.5594124,38.9138166 23.7477982,37.8089597 L24.5081298,33.3691661 L21.2852062,30.2260094 C20.4841425,29.4470089 20.9288008,28.0824852 22.0336577,27.9229513 L26.4887258,27.27633 L28.481202,23.2387654 C28.9750782,22.2357386 30.4074886,22.2357386 30.9030619,23.2387654 L32.8972353,27.27633 L37.3523035,27.9229513 C38.4554632,28.0824852 38.9001214,29.4470089 38.1007549,30.2260094 M49.2290909,24.0635894 L36.5665143,22.2238584 L30.9030619,10.7509972 C30.4091858,9.7496676 28.9767753,9.7496676 28.481202,10.7509972 L22.8177497,22.2238584 L10.1568703,24.0652866 C9.05201336,24.2248205 8.60735513,25.587647 9.40841882,26.3683447 L18.5697361,35.298847 L16.407543,47.9088114 C16.2174601,49.0136683 17.3800208,49.8503725 18.367773,49.332736 L29.6929806,43.3790678 L41.0181881,49.332736 C42.0093347,49.8520697 43.1651067,49.0102739 42.9767209,47.9088114 L40.8145279,35.298847 L49.9758451,26.3683447 C50.7769088,25.587647 50.3322506,24.2248205 49.2290909,24.0635894" id="Fill-1" fill="#006CB2"></path> </g> </svg> 