<?xml version="1.0" encoding="UTF-8"?> <svg xmlns="http://www.w3.org/2000/svg" width="60" height="60" viewBox="0 0 60 60" fill="none"> <g id="Artboard_20 Copy 25"> <g id="Frame" clip-path="url(#clip0_104_162)"> <g id="Group"> <path id="Vector" d="M29.9049 15.5611H12.7399C10.1214 15.5611 8 17.8147 8 20.5986V44.4075C8 47.1913 10.1214 49.4483 12.7399 49.4483H29.9083C32.5267 49.4483 34.6482 47.1913 34.6482 44.4075V20.5986C34.6448 17.8147 32.5234 15.5611 29.9049 15.5611ZM32.38 40.0991H10.2649V22.7164H32.3766V40.0991H32.38Z" fill="#006CB2"></path> <path id="Vector_2" d="M27.7002 29.1425H23.6608V25.1324H18.9842V29.1425H14.9448V33.7923H18.9842V37.8024H23.6608V33.7923H27.7002V29.1425Z" fill="#006CB2"></path> <path id="Vector_3" d="M31.3825 13.3108C31.3825 14.2057 30.5753 14.9314 29.578 14.9314H13.0634C12.066 14.9314 11.2588 14.2057 11.2588 13.3108V11.6206C11.2621 10.7258 12.0693 10 13.0634 10H29.5813C30.5753 10 31.3825 10.7258 31.3825 11.6206V13.3108Z" fill="#006CB2"></path> <path id="Vector_4" d="M46.9398 43.4629L50.7557 39.6715C52.4135 38.0244 52.4135 35.3499 50.7557 33.7028L50.3788 33.3283C48.721 31.6811 46.0325 31.6811 44.3713 33.3283L40.5554 37.1196L46.9398 43.4629Z" fill="#006CB2"></path> <path id="Vector_5" d="M39.9552 37.7195L36.5095 41.143C34.8517 42.7901 34.8517 45.4613 36.5095 47.1118L36.8864 47.4863C38.5442 49.1334 41.2327 49.1334 42.8938 47.4863L46.3395 44.0628L39.9552 37.7195Z" fill="#006CB2"></path> </g> </g> </g> <defs> <clipPath id="clip0_104_162"> <rect width="44" height="39.4483" fill="white" transform="translate(8 10)"></rect> </clipPath> </defs> </svg> 