<?xml version="1.0" encoding="UTF-8"?> <svg xmlns="http://www.w3.org/2000/svg" xmlns:xlink="http://www.w3.org/1999/xlink" width="60px" height="60px" viewBox="0 0 60 60"> <!-- Generator: Sketch 62 (91390) - https://sketch.com --> <title>Artboard_1</title> <desc>Created with Sketch.</desc> <defs> <polygon id="path-1" points="0 0.551718367 6.45915102 0.551718367 6.45915102 13.5866163 0 13.5866163"></polygon> <polygon id="path-3" points="0.441787755 0.361710204 38.2870204 0.361710204 38.2870204 22.5304761 0.441787755 22.5304761"></polygon> </defs> <g id="Artboard_1" stroke="none" stroke-width="1" fill="none" fill-rule="evenodd"> <g id="Group-11" transform="translate(7.000000, 12.000000)"> <g id="Group-3" transform="translate(0.000000, 19.843837)"> <mask id="mask-2" fill="white"> <use xlink:href="#path-1"></use> </mask> <g id="Clip-2"></g> <path d="M6.45915102,6.72792245 C5.64241633,6.29796327 4.83225306,5.79384082 4.04180408,5.20147347 C1.94739592,3.62996327 0.707273469,2.03498367 -0.000563265306,0.551718367 L0.145885714,6.53735102 C0.637804082,8.41396327 1.93519184,10.3975959 4.48866122,12.3136367 C5.13172245,12.7952286 5.79168163,13.2139224 6.45915102,13.5866163 L6.45915102,6.72792245 Z" id="Fill-1" fill="#FFFFFF" mask="url(#mask-2)"></path> </g> <g id="Group-6" transform="translate(7.510204, 13.272408)"> <mask id="mask-4" fill="white"> <use xlink:href="#path-3"></use> </mask> <g id="Clip-5"></g> <path d="M35.5510531,3.47562857 C32.1254612,5.63293469 20.6677061,12.4155878 18.8596245,13.4407306 C17.673951,14.1138327 14.2793388,15.2722816 10.2200735,15.5219959 C9.73378776,15.551098 9.2184,15.5689347 8.67954286,15.5689347 C6.25374694,15.5689347 3.34166531,15.2122 0.441787755,14.0030571 L0.441787755,20.9011796 C8.20827755,24.3098735 16.7961959,21.4625673 18.4906857,20.5012612 C20.4433388,19.3944449 31.7584,12.6061592 35.1530122,10.5539959 C36.3480735,9.83207755 37.3760327,8.82758776 38.0538286,7.65036327 L38.2875837,0.361710204 C37.5853796,1.73513878 36.5677469,2.83538367 35.5510531,3.47562857" id="Fill-4" fill="#FFFFFF" mask="url(#mask-4)"></path> </g> <path d="M38.3765796,2.24752245 C34.611151,0.539889796 31.1855592,9.3877551e-05 28.3570286,9.3877551e-05 C23.5195184,9.3877551e-05 20.4300082,1.58099184 20.3811918,1.6054 L4.47082449,10.1829918 C3.02604898,10.9621755 0.891273469,13.3842163 0.6716,16.3310327 C0.551436735,17.9476041 1.02457959,19.4956449 2.05629388,20.9657673 C2.84674286,19.654298 4.60506939,17.345849 7.82788571,15.8503796 C7.72931429,15.4044612 7.7020898,14.9904612 7.72931429,14.6346653 C7.86168163,12.858502 9.09523265,11.4315633 10.2574367,10.8063388 L23.9175592,3.45197143 C24.0921714,3.35903265 28.1852327,1.24678776 33.6658041,3.73266531 C36.7844163,5.14646122 37.5438857,6.98458367 37.6321306,8.27727755 C37.7504163,10.0121347 36.7111918,11.4907061 35.694498,12.130951 C34.222498,13.0575224 25.3435592,18.0762163 22.4258449,19.7256449 L21.6410286,20.1687469 C20.8186612,20.6343796 18.8622531,21.3459714 16.524702,21.3459714 C14.5833143,21.3459714 12.3809469,20.8559306 10.3456816,19.3294816 C9.40127347,18.6216449 8.78825306,17.9100531 8.38739592,17.2341347 C5.11388571,18.7831143 3.54519184,21.3084204 3.0711102,22.2040122 C3.60715102,22.7654 4.22392653,23.3164612 4.93739592,23.8515633 C13.1732735,30.0277673 23.9870286,26.3496449 25.6336408,25.4155633 C27.435151,24.3932367 38.8525388,17.6349918 42.2668653,15.4851959 C43.8468245,14.4900939 45.3582531,12.168502 45.1864571,9.65727755 C44.9874367,6.73956327 42.6329878,4.1776449 38.3765796,2.24752245" id="Fill-7" fill="#FFFFFF"></path> <path d="M34.8983224,10.8683918 C35.573302,10.4440653 36.2163633,9.45271837 36.1431388,8.37875918 C36.0567714,7.10671837 34.9875061,5.96986122 33.0489347,5.09116735 C31.2586898,4.27912653 29.6402408,4.02284082 28.3109347,4.02284082 C26.0625673,4.02284082 24.6431388,4.75602449 24.6206082,4.7672898 L10.9642408,12.1197796 C10.3146082,12.4699429 9.31293469,13.4575347 9.21717959,14.7455347 C9.16836327,15.3904735 9.35987347,16.0232082 9.76917959,16.6409224 L25.6598327,8.04267755 L25.9527306,8.12622857 C26.3723633,8.24451429 32.0256694,10.5820653 34.0083633,11.4025551 C34.4073429,11.1688 34.7152612,10.9848 34.8983224,10.8683918" id="Fill-9" fill="#FFFFFF"></path> </g> </g> </svg> 