<?xml version="1.0" encoding="UTF-8"?> <svg xmlns="http://www.w3.org/2000/svg" width="60" height="60" viewBox="0 0 60 60" fill="none"> <g id="Artboard_20 Copy"> <rect width="60" height="60" fill="white"></rect> <g id="Frame" clip-path="url(#clip0_102_25)"> <path id="Vector" d="M13.1097 42.68H18.1626H24.9755H35.0245H46.8903H52V19.6865C52 18.2103 50.8077 17.0748 49.3884 17.0748H37.6929L37.3523 13.6684C37.3523 13.3845 37.409 13.1574 37.5226 12.8735C37.5794 12.76 37.5794 12.6465 37.5794 12.4761V11.9652C37.5794 11.4542 37.1819 11 36.6142 11H23.3858C22.8748 11 22.4206 11.3974 22.4206 11.9652V12.4761C22.4206 12.5897 22.4206 12.76 22.4774 12.8735C22.591 13.1006 22.6477 13.3845 22.6477 13.6684L22.3071 17.0748H10.6116C9.13548 17.0748 8 18.2671 8 19.6865V20.8787H46.8903C47.4013 20.8787 47.8555 21.3329 47.8555 21.8439C47.8555 22.3548 47.4013 22.809 46.8903 22.809H35.0245H24.9755H18.1626H8V45.8026C8 47.2787 9.19226 48.4142 10.6116 48.4142H49.3316C50.8077 48.4142 51.9432 47.2219 51.9432 45.8026V44.6103H13.1097C12.5987 44.6103 12.1445 44.1561 12.1445 43.6452C12.1445 43.1342 12.5419 42.68 13.1097 42.68ZM35.8761 17.0748H24.1239V13.4413H35.9329V17.0748H35.8761Z" fill="#009ED0"></path> </g> </g> <defs> <clipPath id="clip0_102_25"> <rect width="44" height="37.4142" fill="white" transform="translate(8 11)"></rect> </clipPath> </defs> </svg> 