<?xml version="1.0" encoding="UTF-8"?> <svg xmlns="http://www.w3.org/2000/svg" xmlns:xlink="http://www.w3.org/1999/xlink" width="60px" height="60px" viewBox="0 0 60 60"> <!-- Generator: Sketch 62 (91390) - https://sketch.com --> <title>Artboard_25</title> <desc>Created with Sketch.</desc> <defs> <polygon id="path-1" points="0 0.364965517 41.102069 0.364965517 41.102069 30.4137931 0 30.4137931"></polygon> </defs> <g id="Artboard_25" stroke="none" stroke-width="1" fill="none" fill-rule="evenodd"> <g id="Group-8" transform="translate(9.000000, 10.000000)"> <path d="M23.4525103,20.5973793 C22.9847172,20.5973793 22.6067172,20.217931 22.6067172,19.7515862 L22.6067172,15.8861379 L18.4965103,15.8861379 L18.4965103,19.7515862 C18.4965103,20.217931 18.1170621,20.5973793 17.6507172,20.5973793 L13.785269,20.5973793 L13.785269,24.6988966 L17.6507172,24.6988966 C18.1170621,24.6988966 18.4965103,25.0783448 18.4965103,25.5446897 L18.4965103,29.4101379 L22.5980276,29.4101379 L22.5980276,25.5446897 C22.5980276,25.0783448 22.9760276,24.6988966 23.4438207,24.6988966 L27.3165103,24.6988966 L27.3165103,20.5973793 L23.4525103,20.5973793 Z" id="Fill-1" fill="#00A1A0"></path> <g id="Group-5" transform="translate(0.000000, 7.495986)"> <mask id="mask-2" fill="white"> <use xlink:href="#path-1"></use> </mask> <g id="Clip-4"></g> <path d="M29.0086759,17.6342069 C29.0086759,18.3293793 28.4438483,18.8942069 27.7486759,18.8942069 L24.2988828,18.8942069 L24.2988828,22.3454483 C24.2988828,23.0406207 23.7340552,23.6054483 23.0374345,23.6054483 L18.0640552,23.6054483 C17.3688828,23.6054483 16.8040552,23.0406207 16.8040552,22.3454483 L16.8040552,18.8942069 L13.3629517,18.8942069 C12.666331,18.9 12.0986069,18.338069 12.0942621,17.6428966 L12.0942621,17.6342069 L12.0942621,12.6695172 C12.0942621,11.9743448 12.6576414,11.4095172 13.3542621,11.4095172 L16.8040552,11.4095172 L16.8040552,7.95972414 C16.8040552,7.26310345 17.3688828,6.69972414 18.0640552,6.69972414 L23.0301931,6.69972414 C23.7253655,6.69972414 24.2901931,7.26310345 24.2901931,7.95972414 L24.2901931,11.4095172 L27.7399862,11.4095172 C28.4351586,11.4051724 29.004331,11.9656552 29.0086759,12.6608276 L29.0086759,12.6695172 L29.0086759,17.6342069 Z M35.2666759,0.364965517 L5.83626207,0.364965517 C3.14681379,0.364965517 -0.000289655172,1.8957931 -0.000289655172,6.20006897 L-0.000289655172,24.5786897 C-0.000289655172,28.8829655 3.14681379,30.4137931 5.83626207,30.4137931 L35.2666759,30.4137931 C37.9561241,30.4137931 41.1032276,28.8829655 41.1032276,24.5786897 L41.1032276,6.20006897 C41.1032276,1.8957931 37.9648138,0.364965517 35.2666759,0.364965517 L35.2666759,0.364965517 Z" id="Fill-3" fill="#00A1A0" mask="url(#mask-2)"></path> </g> <path d="M25.9890207,0.00463448276 C25.896331,-0.00115862069 25.8036414,-0.00115862069 25.7109517,0.00463448276 L15.3919862,0.00463448276 C14.0349517,-0.0735724138 12.8719862,0.964841379 12.7966759,2.32187586 C12.7908828,2.41456552 12.7908828,2.50870345 12.7966759,2.59994483 L12.7966759,6.40601379 L14.4882621,6.40601379 L14.4955034,2.59994483 C14.4955034,2.35518621 14.4955034,1.69477241 15.4006759,1.69477241 L25.7109517,1.69477241 C26.6146759,1.69477241 26.6146759,2.34649655 26.6146759,2.59994483 L26.6146759,6.40601379 L28.3062621,6.40601379 L28.3062621,2.59994483 C28.3830207,1.24291034 27.3460552,0.0813931034 25.9890207,0.00463448276" id="Fill-6" fill="#00A1A0"></path> </g> </g> </svg> 