<?xml version="1.0" encoding="UTF-8"?> <svg xmlns="http://www.w3.org/2000/svg" xmlns:xlink="http://www.w3.org/1999/xlink" width="60px" height="60px" viewBox="0 0 60 60"> <!-- Generator: Sketch 62 (91390) - https://sketch.com --> <title>Artboard_12</title> <desc>Created with Sketch.</desc> <defs> <polygon id="path-1" points="0.708666667 1.09 39.1331111 1.09 39.1331111 3.16955556 0.708666667 3.16955556"></polygon> <polygon id="path-3" points="0 37.7988889 39.8433333 37.7988889 39.8433333 1.11111111 0 1.11111111"></polygon> </defs> <g id="Artboard_12" stroke="none" stroke-width="1" fill="none" fill-rule="evenodd"> <rect id="Rectangle" fill="#FFFFFF" x="0" y="0" width="60" height="60"></rect> <g id="Group-11" transform="translate(10.000000, 11.000000)"> <path d="M1.23711111,12.1066667 L1.23711111,34.0544444 L13.4904444,34.0544444 L13.4904444,20.3144444 L13.7537778,20.3144444 C14.2437778,17.3155556 16.8215556,15.0277778 19.9515556,15.0277778 C23.0871111,15.0277778 25.6782222,17.3155556 26.1726667,20.3144444 L26.3537778,20.3144444 L26.3537778,34.0544444 L38.6115556,34.0544444 L38.6115556,12.1066667 L1.23711111,12.1066667 Z" id="Fill-1" fill="#0071BC"></path> <g id="Group-5" transform="translate(0.000000, 0.021111)"> <mask id="mask-2" fill="white"> <use xlink:href="#path-1"></use> </mask> <g id="Clip-4"></g> <polygon id="Fill-3" fill="#0071BC" mask="url(#mask-2)" points="39.1331111 3.16955556 39.1331111 1.86844444 38.1442222 1.86844444 38.1442222 1.08955556 1.702 1.08955556 1.702 1.86844444 0.708666667 1.86844444 0.708666667 3.16955556"></polygon> </g> <polygon id="Fill-6" fill="#0071BC" points="1.20777778 4.59088889 1.20777778 8.20977778 0 8.20755556 0 9.66311111 39.8433333 9.66311111 39.8433333 8.20755556 38.6333333 8.20977778 38.6333333 4.59088889"></polygon> <mask id="mask-4" fill="white"> <use xlink:href="#path-3"></use> </mask> <g id="Clip-9"></g> <polygon id="Fill-8" fill="#0071BC" mask="url(#mask-4)" points="25.3733333 37.7988889 39.5844444 37.7988889 39.5844444 35.4555556 25.3733333 35.4555556"></polygon> <polygon id="Fill-10" fill="#0071BC" mask="url(#mask-4)" points="0.272222222 37.7966667 14.4877778 37.7966667 14.4877778 35.4555556 0.272222222 35.4555556"></polygon> </g> </g> </svg> 