<?xml version="1.0" encoding="UTF-8"?> <svg xmlns="http://www.w3.org/2000/svg" width="60" height="60" viewBox="0 0 60 60" fill="none"> <path d="M17 8.61328V33H14H12H9V51H26H40H51V20H40V16.2793L37 15.2793L35 14.6113L33 13.9453L31 13.2793L17 8.61328ZM19 11.3887L38 17.7207V49H33V45.8555C34.7158 45.4056 36 43.8503 36 42C36 39.8027 34.1973 38 32 38C29.8027 38 28 39.8027 28 42C28 43.8503 29.2842 45.4056 31 45.8555V49H26V33H19V11.3887ZM21 17V19H27V17H21ZM21 21V23H36V21H21ZM21 25V27H29V25H21ZM31 25V27H36V25H31ZM13 37H16V39H13V37ZM19 37H22V39H19V37ZM13 41H16V43H13V41ZM19 41H22V43H19V41ZM13 45H16V47H13V45ZM19 45H22V47H19V45Z" fill="#009ED0"></path> </svg> 