<?xml version="1.0" encoding="UTF-8"?> <svg xmlns="http://www.w3.org/2000/svg" xmlns:xlink="http://www.w3.org/1999/xlink" width="60px" height="60px" viewBox="0 0 60 60"> <!-- Generator: Sketch 62 (91390) - https://sketch.com --> <title>Artboard_16</title> <desc>Created with Sketch.</desc> <g id="Artboard_16" stroke="none" stroke-width="1" fill="none" fill-rule="evenodd"> <rect id="Rectangle" fill="#FFFFFF" x="0" y="0" width="60" height="60"></rect> <rect id="Rectangle-Copy" fill="#FFFFFF" x="0" y="0" width="60" height="60"></rect> <g id="Group-8" transform="translate(10.000000, 8.000000)" fill="#00A1A0"> <polygon id="Fill-1" points="0 0.000113888889 7.90616667 11.7397806 20.9441667 11.7397806 13.038 0.000113888889"></polygon> <polygon id="Fill-2" points="27.237325 0.000113888889 21.9471861 8.52469722 23.9459361 11.7397806 32.3691583 11.7397806 40.275325 0.000113888889"></polygon> <g id="Group-7" transform="translate(6.833333, 13.628514)"> <path d="M13.553575,10.4577333 C9.56518611,10.4577333 6.31935278,13.7035667 6.31935278,17.6919556 C6.31935278,21.6803444 9.56518611,24.9261778 13.553575,24.9261778 C17.5431028,24.9261778 20.7877972,21.6803444 20.7877972,17.6919556 C20.7877972,13.7035667 17.5431028,10.4577333 13.553575,10.4577333" id="Fill-3"></path> <path d="M13.553575,26.9266361 C8.46160278,26.9266361 4.31946389,22.7833583 4.31946389,17.6913861 C4.31946389,12.5994139 8.46160278,8.457275 13.553575,8.457275 C18.6455472,8.457275 22.788825,12.5994139 22.788825,17.6913861 C22.788825,22.7833583 18.6455472,26.9266361 13.553575,26.9266361 M14.7254917,4.97341389 L14.7254917,3.45755278 L24.0643806,3.45755278 L24.0643806,1.12283056 L3.05301944,1.12283056 L3.05301944,3.45755278 L12.3907694,3.45755278 L12.3907694,4.97341389 C5.85696389,5.56563611 0.718297222,11.1461917 0.718297222,17.8326083 C0.718297222,24.9119417 6.47879722,30.7498861 13.5581306,30.7498861 C20.6386028,30.7498861 26.3979639,24.9119417 26.3979639,17.8326083 C26.3979639,11.1461917 21.2604361,5.56563611 14.7254917,4.97341389" id="Fill-5"></path> </g> </g> </g> </svg> 