<?xml version="1.0" encoding="UTF-8"?> <svg xmlns="http://www.w3.org/2000/svg" xmlns:xlink="http://www.w3.org/1999/xlink" width="60px" height="60px" viewBox="0 0 60 60"> <title>Artboard_20 Copy 13</title> <g id="Artboard_20-Copy-13" stroke="none" stroke-width="1" fill="none" fill-rule="evenodd"> <rect id="Rectangle" fill="#FFFFFF" x="0" y="0" width="60" height="60"></rect> <g id="Group" transform="translate(7.693000, 14.500304)" fill="#006CB2"> <path d="M28.7928559,2.04519689 C26.9126699,0.707227975 24.7168246,-8.8817842e-15 22.4436533,-8.8817842e-15 L19,-8.8817842e-15 L19,6.23424785 C19.0010593,7.14433275 19.7075855,7.88481596 20.5761784,7.88481596 L37,7.88481596 L28.7928559,2.04519689 Z" id="Fill-1"></path> <polygon id="Fill-3" points="-5.08328499e-13 30.647691 44 30.647691 44 27.8099111 -5.08328499e-13 27.8099111"></polygon> <path d="M29.307,16.4996955 L32.307,16.4996955 L32.307,13.4996955 L29.307,13.4996955 L29.307,16.4996955 Z M24.307,16.4996955 L27.307,16.4996955 L27.307,13.4996955 L24.307,13.4996955 L24.307,16.4996955 Z M18.307,16.4996955 L21.307,16.4996955 L21.307,13.4996955 L18.307,13.4996955 L18.307,16.4996955 Z M20.5228567,10.340875 C18.0497758,10.340875 16.0356171,8.30535166 16.0356171,5.803541 L16.0356171,-0.500304486 L0.307,-0.500304486 L0.307,3.40036804 L5.6245119,3.40036804 L5.6245119,10.6681728 L0.307,10.6681728 L0.307,25.4996955 L35.5808266,25.4996955 C40.392859,25.4996955 44.307,21.541858 44.307,16.6772261 C44.307,14.2650861 43.3348387,11.987452 41.6532323,10.340875 L20.5228567,10.340875 Z" id="Fill-5"></path> </g> </g> </svg> 