<?xml version="1.0" encoding="UTF-8"?> <svg xmlns="http://www.w3.org/2000/svg" xmlns:xlink="http://www.w3.org/1999/xlink" width="60px" height="60px" viewBox="0 0 60 60"> <!-- Generator: Sketch 62 (91390) - https://sketch.com --> <title>Artboard_15</title> <desc>Created with Sketch.</desc> <defs> <polygon id="path-1" points="0.12304 1.0656 39.62384 1.0656 39.62384 28.22272 0.12304 28.22272"></polygon> <polygon id="path-3" points="0 1.43168 17.28144 1.43168 17.28144 15.99968 0 15.99968"></polygon> </defs> <g id="Artboard_15" stroke="none" stroke-width="1" fill="none" fill-rule="evenodd"> <g id="Group-13" transform="translate(10.000000, 8.000000)"> <g id="Group-3" transform="translate(0.000000, 0.534080)"> <mask id="mask-2" fill="white"> <use xlink:href="#path-1"></use> </mask> <g id="Clip-2"></g> <path d="M37.15504,21.04352 L37.15504,8.16352 C37.15504,7.97152 37.10224,7.79392 37.02384,7.63232 C37.07184,7.49952 37.15504,7.38272 37.15504,7.23872 C37.15504,6.68672 36.79024,6.20352 36.25904,6.04992 L18.97744,1.11232 C18.75664,1.04992 18.52144,1.04992 18.30064,1.11232 L1.01904,6.04992 C0.48784,6.20352 0.12304,6.68672 0.12304,7.23872 C0.12304,7.78912 0.48784,8.27392 1.01904,8.42592 L7.52944,10.28512 L7.52944,11.74592 C7.52944,13.15072 8.31024,14.44192 9.51664,15.03552 C15.04944,17.75392 22.22704,17.75232 27.76144,15.03712 C28.96944,14.44352 29.74864,13.15232 29.74864,11.74592 L29.74864,10.28512 L34.68624,8.87552 L34.68624,21.04352 C33.25264,21.55552 32.21744,22.91232 32.21744,24.51872 L32.21744,26.98752 C32.21744,27.67072 32.76944,28.22272 33.45264,28.22272 L38.38864,28.22272 C39.07184,28.22272 39.62384,27.67072 39.62384,26.98752 L39.62384,24.51872 C39.62384,22.91232 38.58864,21.55552 37.15504,21.04352" id="Fill-1" fill="#00A1A0" mask="url(#mask-2)"></path> </g> <path d="M28.72608,17.95024 C25.62368,19.47504 22.09248,20.28144 18.51648,20.28144 C14.93888,20.28144 11.40768,19.47504 8.30368,17.95024 C7.99968,17.79984 7.74848,17.57904 7.47968,17.38224 C7.74368,21.82544 10.13408,25.59504 13.51168,27.52624 C13.51168,27.52624 15.24448,28.34544 15.78688,28.49904 L15.78848,28.49584 C16.66528,28.74544 17.56768,28.92144 18.51648,28.92144 C19.38368,28.92144 20.62048,28.74864 21.85568,28.29264 C22.42528,28.08944 23.51648,27.52944 23.51648,27.52944 C26.89568,25.59824 29.28768,21.82704 29.55168,17.38384 C29.28288,17.58064 29.03008,17.80144 28.72608,17.95024" id="Fill-4" fill="#00A1A0"></path> <path d="M18.516,31.39008 C17.5208,31.39008 16.5624,31.23648 15.6296,31.01088 L18.516,35.34048 L21.3848,31.01568 C20.4568,31.23808 19.5048,31.39008 18.516,31.39008" id="Fill-6" fill="#00A1A0"></path> <path d="M28.39104,38.79632 L25.92224,38.79632 C25.24064,38.79632 24.68864,38.24432 24.68864,37.56272 C24.68864,36.87952 25.24064,36.32752 25.92224,36.32752 L28.39104,36.32752 C29.07264,36.32752 29.62464,36.87952 29.62464,37.56272 C29.62464,38.24432 29.07264,38.79632 28.39104,38.79632 M25.62144,29.17552 C25.59904,29.19152 25.57504,29.20112 25.55424,29.21552 L24.51584,30.77232 C24.51584,30.82992 19.78304,37.90992 19.75104,37.95792 L19.75104,43.73392 L35.79744,43.73392 C36.48064,43.73392 37.03104,43.18192 37.03104,42.49872 C37.03104,35.75952 32.07104,30.22512 25.62144,29.17552" id="Fill-8" fill="#00A1A0"></path> <g id="Group-12" transform="translate(0.000000, 27.734080)"> <mask id="mask-4" fill="white"> <use xlink:href="#path-3"></use> </mask> <g id="Clip-11"></g> <path d="M11.45584,1.46688 C11.43664,1.45408 11.41424,1.44448 11.39344,1.43168 C4.95184,2.48768 -0.00016,8.02848 -0.00016,14.76608 C-0.00016,15.44768 0.55184,15.99968 1.23504,15.99968 L17.28144,15.99968 L17.28144,10.22368 C11.68784,1.81728 12.82864,3.53408 11.45584,1.46688" id="Fill-10" fill="#00A1A0" mask="url(#mask-4)"></path> </g> </g> </g> </svg> 