<?xml version="1.0" encoding="UTF-8"?> <svg xmlns="http://www.w3.org/2000/svg" width="60" height="60" viewBox="0 0 60 60" fill="none"> <g id="Artboard_20 Copy 24"> <g id="Frame" clip-path="url(#clip0_104_153)"> <path id="Vector" fill-rule="evenodd" clip-rule="evenodd" d="M30.002 52.3889C30.002 52.3889 11.4762 47.906 11 24.5591V12.9366L16.4897 12.9288C19.3706 12.9288 22.0195 12.3685 24.3562 11.2673C27.2251 9.90367 30.002 7 30.002 7C30.002 7 32.7789 9.90367 35.6478 11.2673C37.9845 12.3685 40.6294 12.9288 43.5143 12.9288L49.004 12.9366V24.5591C48.5279 47.906 30.002 52.3889 30.002 52.3889ZM46.3992 15.4837L43.5103 15.4798C40.2372 15.4798 37.2123 14.8372 34.5194 13.5675C34.5154 13.5675 34.5114 13.5636 34.5114 13.5636C32.8029 12.7525 31.1864 11.526 29.998 10.515C28.8056 11.5299 27.1851 12.7564 25.4926 13.5636C25.4886 13.5636 25.4846 13.5675 25.4846 13.5675C22.7917 14.8372 19.7668 15.4798 16.4897 15.4798L13.6048 15.4837V24.5356C13.7089 29.4221 14.6652 33.7913 16.4497 37.5179C17.8622 40.4686 19.8028 43.0392 22.2155 45.1591C25.4286 47.9805 28.6656 49.2736 29.998 49.7243C31.3344 49.2736 34.5714 47.9844 37.7805 45.1591C40.1932 43.0392 42.1338 40.4686 43.5463 37.5179C45.3308 33.7913 46.2911 29.4221 46.3912 24.5356V15.4837H46.3992ZM36.7441 32.796L36.9842 32.9292C37.2403 33.0742 37.5364 33.1487 37.8365 33.1487H37.8485C37.9885 33.1487 38.1326 33.1291 38.2686 33.0977C38.3886 33.0664 38.5127 33.0507 38.6367 33.0507H38.6487C38.9408 33.0507 39.2289 33.133 39.481 33.2858C39.8091 33.4896 40.0452 33.8031 40.1492 34.1714C40.2532 34.5398 40.2132 34.9277 40.0372 35.2647C39.7731 35.778 39.2409 36.0994 38.6567 36.1033H38.6527H38.6447C38.3766 36.1033 38.1126 36.0327 37.8765 35.9034C37.5244 35.7075 37.2643 35.3901 37.1523 35.01C37.0242 34.5907 36.7401 34.238 36.352 34.0225L36.0799 33.8697C35.8639 33.7482 35.6398 33.6894 35.4077 33.6894H35.3997C34.9236 33.6933 34.4794 33.9559 34.2313 34.3791C33.9913 34.7945 33.9953 35.2608 34.2513 35.684C34.3034 35.7702 34.3754 35.8368 34.4634 35.8799C34.5594 35.9309 34.6635 35.97 34.7715 35.9975C35.1076 36.0915 35.3837 36.311 35.5478 36.6166C35.6958 36.8909 35.7318 37.2044 35.6518 37.5061C35.5718 37.8079 35.3837 38.0665 35.1196 38.235C34.9156 38.3643 34.6795 38.4348 34.4354 38.4387H34.4274C33.9793 38.4387 33.5591 38.2036 33.3311 37.8235C33.163 37.5453 33.115 37.2162 33.191 36.9027C33.211 36.8165 33.227 36.7263 33.231 36.6362C33.239 36.5304 33.215 36.4285 33.159 36.3384L33.127 36.2835C32.8749 35.8603 32.4668 35.6291 31.9826 35.6291H31.9746C31.6345 35.633 31.2984 35.7624 31.0463 35.9857C30.7702 36.2326 30.6182 36.5813 30.6182 36.9614V37.2318C30.6222 37.6707 30.7983 38.0861 31.1144 38.4035C31.4144 38.7052 31.5705 39.1049 31.5545 39.5281C31.5385 39.9043 31.3784 40.2648 31.1063 40.5352C30.8343 40.8056 30.4701 40.9662 30.082 40.9897C30.058 40.9897 30.03 40.9937 30.006 40.9937H30.002H29.994H29.986H29.982C29.958 40.9937 29.934 40.9937 29.906 40.9897C29.5218 40.9701 29.1577 40.8095 28.8816 40.5352C28.6096 40.2648 28.4495 39.9043 28.4335 39.5281C28.4175 39.1049 28.5735 38.7052 28.8736 38.4035C29.1897 38.0861 29.3658 37.6668 29.3698 37.2318V36.9614C29.3778 36.1346 28.6856 35.637 28.0134 35.6291H28.0054C27.5212 35.6291 27.1131 35.8603 26.861 36.2835L26.829 36.3384C26.773 36.4285 26.749 36.5304 26.757 36.6362C26.765 36.7263 26.777 36.8165 26.797 36.9027C26.873 37.2162 26.825 37.5453 26.6569 37.8235C26.4289 38.2036 26.0087 38.4387 25.5646 38.4387H25.5566C25.3125 38.4387 25.0764 38.3682 24.8724 38.235C24.6083 38.0665 24.4202 37.8079 24.3402 37.5061C24.2602 37.2044 24.2962 36.8909 24.4442 36.6166C24.6083 36.311 24.8844 36.0915 25.2205 35.9975C25.3285 35.9661 25.4326 35.9269 25.5286 35.8799C25.6166 35.8368 25.6886 35.7663 25.7407 35.684C25.9967 35.2569 26.0007 34.7945 25.7607 34.3791C25.5166 33.9559 25.0684 33.6933 24.5923 33.6894H24.5843C24.3562 33.6894 24.1281 33.7521 23.9121 33.8697L23.64 34.0225C23.2479 34.238 22.9638 34.5907 22.8397 35.01C22.7237 35.3901 22.4676 35.7075 22.1155 35.9034C21.8794 36.0327 21.6154 36.1033 21.3473 36.1033H21.3393H21.3353C20.7511 36.0994 20.2189 35.778 19.9548 35.2647C19.7788 34.9277 19.7388 34.5398 19.8428 34.1714C19.9468 33.8031 20.1829 33.4896 20.511 33.2858C20.7631 33.1291 21.0512 33.0507 21.3433 33.0507H21.3553C21.4793 33.0507 21.6033 33.0664 21.7274 33.0977C21.8634 33.133 22.0075 33.1487 22.1475 33.1487H22.1595C22.4596 33.1487 22.7517 33.0742 23.0118 32.9292L23.2519 32.796C23.528 32.6432 23.736 32.4159 23.8481 32.1416C23.9601 31.8673 23.9681 31.5616 23.8761 31.2599C23.792 30.9895 23.624 30.7583 23.3879 30.5898C23.1518 30.4213 22.8758 30.3312 22.5837 30.3273H22.5356C22.5356 30.3273 22.5356 30.3273 22.5316 30.3273C22.4276 30.3273 22.3236 30.3586 22.2355 30.4135C22.1555 30.4644 22.0835 30.5232 22.0155 30.5859C21.7794 30.8054 21.4713 30.9229 21.1472 30.9229H21.1352C21.1152 30.9229 21.0952 30.9229 21.0752 30.9229C20.7631 30.9072 20.467 30.774 20.2429 30.5546C20.0188 30.3351 19.8908 30.0412 19.8788 29.7356C19.8788 29.716 19.8788 29.6729 19.8788 29.6533C19.8908 29.3476 20.0228 29.0538 20.2429 28.8343C20.467 28.611 20.7631 28.4816 21.0752 28.466C21.0952 28.466 21.1152 28.466 21.1352 28.466H21.1432C21.4673 28.466 21.7754 28.5874 22.0115 28.803C22.0795 28.8657 22.1555 28.9244 22.2315 28.9754C22.3196 29.0342 22.4196 29.0616 22.5276 29.0616H22.5316H22.5797C22.8717 29.0577 23.1518 28.9675 23.3839 28.799C23.62 28.6305 23.788 28.3994 23.8721 28.129C23.9641 27.8272 23.9561 27.5216 23.8441 27.2473C23.732 26.973 23.528 26.7496 23.2479 26.5929L23.0078 26.4597C22.7517 26.3147 22.4556 26.2402 22.1555 26.2402H22.1435C22.0035 26.2402 21.8594 26.2598 21.7234 26.2912C21.6033 26.3225 21.4793 26.3382 21.3553 26.3382H21.3433C21.0512 26.3382 20.7631 26.2559 20.511 26.1031C20.1829 25.8993 19.9468 25.5858 19.8428 25.2175C19.7388 24.8491 19.7788 24.4612 19.9548 24.1242C20.2189 23.6109 20.7511 23.2895 21.3353 23.2856H21.3393H21.3473C21.6154 23.2856 21.8794 23.3561 22.1155 23.4855C22.4676 23.6814 22.7277 23.9988 22.8397 24.3789C22.9678 24.7982 23.2519 25.1509 23.64 25.3664L23.9121 25.5192C24.1281 25.6407 24.3522 25.6995 24.5843 25.6995H24.5923C25.0684 25.6955 25.5126 25.433 25.7607 25.0098C26.0007 24.5944 25.9967 24.1281 25.7407 23.7049C25.6886 23.6187 25.6166 23.5521 25.5286 23.5051C25.4326 23.4541 25.3285 23.4149 25.2205 23.3875C24.8844 23.2934 24.6083 23.074 24.4442 22.7684C24.2962 22.4941 24.2602 22.1806 24.3402 21.8788C24.4202 21.5771 24.6083 21.3185 24.8724 21.15C25.0764 21.0207 25.3125 20.9501 25.5566 20.9462H25.5646C26.0127 20.9462 26.4329 21.1813 26.6609 21.5614C26.829 21.8397 26.877 22.1688 26.801 22.4823C26.781 22.5685 26.765 22.6586 26.761 22.7488C26.753 22.8546 26.777 22.9564 26.833 23.0466L26.865 23.1014C27.1171 23.5246 27.5252 23.7558 28.0094 23.7558H28.0174C28.6896 23.7519 29.3778 23.2503 29.3738 22.4235V22.1531C29.3698 21.7143 29.1937 21.2989 28.8776 20.9815C28.5776 20.6798 28.4215 20.2801 28.4375 19.8569C28.4535 19.4807 28.6136 19.1202 28.8856 18.8498C29.1577 18.5794 29.5218 18.4187 29.91 18.3952C29.934 18.3952 29.962 18.3913 29.986 18.3913H29.99H29.998H30.006H30.01C30.034 18.3913 30.058 18.3913 30.086 18.3952C30.4701 18.4148 30.8343 18.5755 31.1104 18.8498C31.3824 19.1202 31.5425 19.4807 31.5585 19.8569C31.5745 20.2801 31.4184 20.6798 31.1184 20.9815C30.8023 21.2989 30.6262 21.7182 30.6222 22.1531V22.4235C30.6182 22.8036 30.7702 23.1524 31.0503 23.3992C31.3024 23.6226 31.6385 23.7519 31.9786 23.7558H31.9866C32.4708 23.7558 32.8789 23.5246 33.131 23.1014L33.163 23.0466C33.219 22.9564 33.243 22.8546 33.235 22.7488C33.227 22.6586 33.215 22.5685 33.195 22.4823C33.119 22.1688 33.167 21.8397 33.3351 21.5614C33.5631 21.1813 33.9833 20.9462 34.4274 20.9462H34.4354C34.6795 20.9462 34.9156 21.0168 35.1196 21.15C35.3837 21.3185 35.5718 21.5771 35.6518 21.8788C35.7318 22.1806 35.6958 22.4941 35.5478 22.7684C35.3837 23.074 35.1076 23.2934 34.7715 23.3875C34.6635 23.4188 34.5594 23.458 34.4634 23.5051C34.3754 23.5482 34.3034 23.6187 34.2513 23.701C33.9953 24.1281 33.9913 24.5905 34.2313 25.0059C34.4754 25.4291 34.9236 25.6916 35.3997 25.6955H35.4077C35.6358 25.6955 35.8639 25.6328 36.0799 25.5153L36.352 25.3625C36.7441 25.1469 37.0282 24.7943 37.1523 24.375C37.2683 23.9949 37.5244 23.6775 37.8765 23.4815C38.1126 23.3522 38.3766 23.2817 38.6447 23.2817H38.6527H38.6567C39.2409 23.2856 39.7731 23.6069 40.0372 24.1203C40.2132 24.4573 40.2532 24.8452 40.1492 25.2135C40.0452 25.5819 39.8091 25.8954 39.481 26.0991C39.2289 26.2559 38.9408 26.3343 38.6487 26.3343H38.6367C38.5127 26.3343 38.3886 26.3186 38.2646 26.2872C38.1286 26.252 37.9845 26.2363 37.8445 26.2363H37.8325C37.5324 26.2363 37.2403 26.3108 36.9802 26.4557L36.7401 26.589C36.464 26.7418 36.256 26.9691 36.1439 27.2434C36.0319 27.5177 36.0239 27.8233 36.1159 28.1251C36.2 28.3954 36.368 28.6266 36.6041 28.7951C36.8402 28.9636 37.1162 29.0538 37.4083 29.0577H37.4564C37.4564 29.0577 37.4564 29.0577 37.4604 29.0577C37.5644 29.0577 37.6684 29.0263 37.7565 28.9715C37.8365 28.9205 37.9085 28.8617 37.9765 28.799C38.2126 28.5796 38.5207 28.4621 38.8448 28.4621H38.8568C38.8768 28.4621 38.8968 28.4621 38.9168 28.4621C39.2289 28.4777 39.525 28.611 39.7491 28.8304C39.9731 29.0498 40.1012 29.3437 40.1132 29.6494C40.1132 29.669 40.1132 29.7121 40.1132 29.7317C40.1012 30.0373 39.9691 30.3312 39.7491 30.5507C39.525 30.774 39.2289 30.9033 38.9168 30.919C38.8968 30.919 38.8768 30.919 38.8568 30.919H38.8488C38.5247 30.919 38.2166 30.7975 37.9805 30.582C37.9125 30.5193 37.8365 30.4605 37.7605 30.4096C37.6724 30.3508 37.5724 30.3234 37.4644 30.3234H37.4604H37.4163C37.1243 30.3273 36.8442 30.4174 36.6121 30.5859C36.376 30.7544 36.208 30.9856 36.1239 31.256C36.0319 31.5577 36.0399 31.8634 36.1519 32.1377C36.26 32.4159 36.468 32.6393 36.7441 32.796ZM30.4902 26.2324C30.2141 25.962 29.8339 25.9032 29.5659 25.9032C28.8136 25.9032 27.9413 26.3147 27.2371 27.0043C26.1408 28.078 25.7807 29.5357 26.4489 30.1901C26.725 30.4605 27.1051 30.5193 27.3732 30.5193C28.1254 30.5193 28.9977 30.1079 29.7019 29.4182C30.2661 28.8657 30.6462 28.2152 30.7782 27.5765C30.8983 27.0083 30.7943 26.5302 30.4902 26.2324ZM30.9783 31.2795C30.3221 31.2795 29.7899 31.8007 29.7899 32.4433C29.7899 33.086 30.3221 33.6071 30.9783 33.6071C31.6345 33.6071 32.1667 33.086 32.1667 32.4433C32.1667 31.8007 31.6345 31.2795 30.9783 31.2795ZM32.8349 28.0702C32.4948 28.0702 32.2187 28.3406 32.2187 28.6737C32.2187 29.0067 32.4948 29.2771 32.8349 29.2771C33.175 29.2771 33.4511 29.0067 33.4511 28.6737C33.4511 28.3406 33.175 28.0702 32.8349 28.0702Z" fill="#006CB2"></path> </g> </g> <defs> <clipPath id="clip0_104_153"> <rect width="38" height="45.3889" fill="white" transform="translate(11 7)"></rect> </clipPath> </defs> </svg> 