<?xml version="1.0" encoding="UTF-8"?> <svg xmlns="http://www.w3.org/2000/svg" xmlns:xlink="http://www.w3.org/1999/xlink" width="60px" height="60px" viewBox="0 0 60 60"> <!-- Generator: Sketch 62 (91390) - https://sketch.com --> <title>Artboard_4</title> <desc>Created with Sketch.</desc> <defs> <polygon id="path-1" points="0.000111111111 0.000333333333 39.1655556 0.000333333333 39.1655556 39.1658889 0.000111111111 39.1658889"></polygon> </defs> <g id="Artboard_4" stroke="none" stroke-width="1" fill="none" fill-rule="evenodd"> <g id="Group-3" transform="translate(10.000000, 10.000000)"> <mask id="mask-2" fill="white"> <use xlink:href="#path-1"></use> </mask> <g id="Clip-2"></g> <path d="M28.2334444,29.4795556 L25.8667778,26.6773333 L28.7534444,18.594 L32.5156667,16.7506667 L36.6356667,21.2495556 C36.3878889,23.7984444 35.5678889,26.1751111 34.3212222,28.2773333 L28.2334444,29.4795556 Z M23.9478889,36.1328889 C22.5501111,36.5028889 21.0934444,36.7184444 19.5834444,36.7184444 C17.7567778,36.7184444 15.999,36.424 14.3467778,35.8928889 L12.8067778,31.0995556 L15.2623333,28.1506667 L23.9134444,28.1506667 L26.3245556,31.0051111 L23.9478889,36.1328889 Z M5.459,29.2617778 C3.86011111,26.9362222 2.82011111,24.2017778 2.53344444,21.2473333 L6.67788889,16.7462222 L10.4578889,18.594 L13.3034444,26.6795556 L10.8978889,29.5628889 L5.459,29.2617778 Z M13.3467778,3.64066667 L18.3812222,6.35733333 L18.3812222,11.1406667 L11.319,16.2884444 L7.459,14.4028889 L6.26011111,8.83177778 C8.11566667,6.53622222 10.5534444,4.73622222 13.3467778,3.64066667 L13.3467778,3.64066667 Z M20.8267778,6.36177778 L25.8612222,3.65511111 C28.6501111,4.75844444 31.0823333,6.56733333 32.9334444,8.86844444 L31.7334444,14.4062222 L27.8934444,16.2884444 L20.8267778,11.1406667 L20.8267778,6.36177778 Z M19.5834444,-0.000444444444 C8.78566667,-0.000444444444 0.000111111111,8.78511111 0.000111111111,19.5828889 C0.000111111111,30.3806667 8.78566667,39.1662222 19.5834444,39.1662222 C30.3812222,39.1662222 39.1656667,30.3806667 39.1656667,19.5828889 C39.1656667,8.78511111 30.3812222,-0.000444444444 19.5834444,-0.000444444444 L19.5834444,-0.000444444444 Z" id="Fill-1" fill="#FFFFFF" mask="url(#mask-2)"></path> </g> </g> </svg> 