<?xml version="1.0" encoding="UTF-8"?> <svg xmlns="http://www.w3.org/2000/svg" width="60" height="60" viewBox="0 0 60 60" fill="none"> <g id="Artboard_20 Copy 28"> <g id="Frame" clip-path="url(#clip0_104_209)"> <g id="Group"> <path id="Vector" d="M33.8038 20.9042C35.9042 18.8077 35.9042 15.4086 33.8038 13.312C31.7034 11.2155 28.298 11.2155 26.1976 13.312C24.0972 15.4086 24.0972 18.8077 26.1976 20.9042C28.298 23.0008 31.7034 23.0008 33.8038 20.9042Z" fill="#00A1A0"></path> <path id="Vector_2" d="M49.5191 32.5449H10.4867C9.66585 32.5449 9 33.2038 9 34.0231C9 34.8424 9.66585 35.507 10.4867 35.507H10.8885V53.5263H15.9856V51.733H44.0144V53.5263H49.1115V35.507H49.5133C50.3342 35.507 51 34.8424 51 34.0231C51 33.2038 50.3342 32.5449 49.5191 32.5449Z" fill="#00A1A0"></path> <path id="Vector_3" d="M20.0152 27.1877C20.0038 27.3138 19.9923 27.4456 19.9923 27.5716V31.8516H38.2055V27.5716C38.2055 25.5949 36.604 23.9964 34.6237 23.9964H24.3949L22.8049 8.10273C22.6786 6.81932 21.5364 5.88541 20.2506 6.01146C18.9648 6.13751 18.0292 7.28341 18.1555 8.56109L20.0152 27.1877Z" fill="#00A1A0"></path> </g> </g> </g> <defs> <clipPath id="clip0_104_209"> <rect width="42" height="47.5263" fill="white" transform="translate(9 6)"></rect> </clipPath> </defs> </svg> 