<?xml version="1.0" encoding="UTF-8"?> <svg xmlns="http://www.w3.org/2000/svg" xmlns:xlink="http://www.w3.org/1999/xlink" width="60px" height="60px" viewBox="0 0 60 60"> <!-- Generator: Sketch 62 (91390) - https://sketch.com --> <title>Artboard_23</title> <desc>Created with Sketch.</desc> <defs> <polygon id="path-1" points="0.000120588235 1.1685 35.0080912 1.1685 35.0080912 24.5071471 0.000120588235 24.5071471"></polygon> <polygon id="path-3" points="0 0.779361765 39.8311382 0.779361765 39.8311382 28.9411765 0 28.9411765"></polygon> </defs> <g id="Artboard_23" stroke="none" stroke-width="1" fill="none" fill-rule="evenodd"> <g id="Group-7" transform="translate(10.000000, 9.000000)"> <g id="Group-3" transform="translate(2.411765, 0.037624)"> <mask id="mask-2" fill="white"> <use xlink:href="#path-1"></use> </mask> <g id="Clip-2"></g> <path d="M3.50079706,19.8391765 C4.44259118,19.8391765 5.29394412,19.4617353 5.92341471,18.8551765 L9.37826765,20.582 C9.36138529,20.7218824 9.33485588,20.8617647 9.33485588,21.0064706 C9.33485588,22.9358824 10.9061206,24.5071471 12.8367382,24.5071471 C14.76615,24.5071471 16.3374147,22.9358824 16.3374147,21.0064706 C16.3374147,20.4674412 16.2047676,19.9633824 15.9865029,19.5075588 L20.6725618,14.8202941 C21.1283853,15.0397647 21.63365,15.1712059 22.1714735,15.1712059 C24.1020912,15.1712059 25.6733559,13.6011471 25.6733559,11.6717353 C25.6733559,11.3075588 25.6010029,10.9638824 25.4985029,10.6334706 L29.5695618,7.58138235 C30.1254735,7.95279412 30.7911206,8.16985294 31.5074147,8.16985294 C33.4380324,8.16985294 35.0080912,6.59979412 35.0080912,4.66917647 C35.0080912,2.73855882 33.4380324,1.1685 31.5074147,1.1685 C29.5780029,1.1685 28.0067382,2.73855882 28.0067382,4.66917647 C28.0067382,5.03335294 28.0778853,5.37582353 28.1815912,5.70502941 L24.1093265,8.75952941 C23.5546206,8.38811765 22.8889735,8.16985294 22.1714735,8.16985294 C20.2420618,8.16985294 18.6707971,9.73991176 18.6707971,11.6717353 C18.6707971,12.2095588 18.8034441,12.7148235 19.0217088,13.1706471 L14.33565,17.8555 C13.8798265,17.6384412 13.3745618,17.5045882 12.8367382,17.5045882 C11.8949441,17.5045882 11.0423853,17.8832353 10.4129147,18.4897941 L6.95926765,16.7629706 C6.97615,16.6218824 7.00147353,16.4844118 7.00147353,16.3385 C7.00147353,14.4078824 5.43141471,12.8378235 3.50079706,12.8378235 C1.57017941,12.8378235 0.000120588235,14.4078824 0.000120588235,16.3385 C0.000120588235,18.2691176 1.57017941,19.8391765 3.50079706,19.8391765" id="Fill-1" fill="#00A1A0" mask="url(#mask-2)"></path> </g> <g id="Group-6" transform="translate(0.000000, 12.096447)"> <mask id="mask-4" fill="white"> <use xlink:href="#path-3"></use> </mask> <g id="Clip-5"></g> <path d="M38.66505,26.60695 L37.4205794,26.60695 L37.4205794,1.94545 C37.4205794,1.30150882 36.8984324,0.779361765 36.2532853,0.779361765 L31.5853147,0.779361765 C30.9401676,0.779361765 30.4180206,1.30150882 30.4180206,1.94545 L30.4180206,26.60695 L28.0846382,26.60695 L28.0846382,8.94680294 C28.0846382,8.30165588 27.5624912,7.78071471 26.9173441,7.78071471 L22.2493735,7.78071471 C21.6054324,7.78071471 21.0820794,8.30165588 21.0820794,8.94680294 L21.0820794,26.60695 L18.7486971,26.60695 L18.7486971,18.28395 C18.7486971,17.6375971 18.22655,17.1166559 17.5826088,17.1166559 L12.9146382,17.1166559 C12.2694912,17.1166559 11.7473441,17.6375971 11.7473441,18.28395 L11.7473441,26.60695 L9.41396176,26.60695 L9.41396176,13.6159794 C9.41396176,12.9696265 8.89181471,12.4486853 8.24666765,12.4486853 L3.57869706,12.4486853 C2.93355,12.4486853 2.41140294,12.9696265 2.41140294,13.6159794 L2.41140294,26.60695 L1.16693235,26.60695 C0.521785294,26.60695 -0.000361764706,27.1303029 -0.000361764706,27.7742441 C-0.000361764706,28.4193912 0.521785294,28.9415382 1.16693235,28.9415382 L38.66505,28.9415382 C39.3101971,28.9415382 39.8311382,28.4193912 39.8311382,27.7742441 C39.8311382,27.1303029 39.3101971,26.60695 38.66505,26.60695" id="Fill-4" fill="#00A1A0" mask="url(#mask-4)"></path> </g> </g> </g> </svg> 