<?xml version="1.0" encoding="UTF-8"?> <svg xmlns="http://www.w3.org/2000/svg" xmlns:xlink="http://www.w3.org/1999/xlink" width="60px" height="60px" viewBox="0 0 60 60"> <!-- Generator: Sketch 62 (91390) - https://sketch.com --> <title>Artboard_21</title> <desc>Created with Sketch.</desc> <g id="Artboard_21" stroke="none" stroke-width="1" fill="none" fill-rule="evenodd"> <g id="Group-4" transform="translate(10.000000, 10.000000)" fill="#009ED0"> <path d="M30.5965806,34.215029 L35.654129,34.215029 L35.654129,31.6492226 L30.5965806,31.6492226 L30.5965806,34.215029 Z M30.5965806,28.9247065 L35.654129,28.9247065 L35.654129,26.3589 L30.5965806,26.3589 L30.5965806,28.9247065 Z M30.5965806,23.6343839 L35.654129,23.6343839 L35.654129,21.0685774 L30.5965806,21.0685774 L30.5965806,23.6343839 Z M40.3717742,18.3559645 L26.0945161,15.3709 L26.0945161,39.9775129 L37.4316774,39.9775129 C39.0531613,39.9775129 40.3717742,38.6589 40.3717742,37.0374161 L40.3717742,20.7471903 L40.3717742,18.3559645 Z" id="Fill-1"></path> <path d="M10.6084194,9.9999 L13.9333871,9.9999 L13.9333871,5.60099677 L10.6084194,5.60099677 L10.6084194,9.9999 Z M10.6084194,16.6128032 L13.9333871,16.6128032 L13.9333871,12.2139 L10.6084194,12.2139 L10.6084194,16.6128032 Z M10.6084194,23.2257065 L13.9333871,23.2257065 L13.9333871,18.8268032 L10.6084194,18.8268032 L10.6084194,23.2257065 Z M5.31809677,9.9999 L8.64306452,9.9999 L8.64306452,5.60099677 L5.31809677,5.60099677 L5.31809677,9.9999 Z M5.31809677,16.6128032 L8.64306452,16.6128032 L8.64306452,12.2139 L5.31809677,12.2139 L5.31809677,16.6128032 Z M5.31809677,23.2257065 L8.64306452,23.2257065 L8.64306452,18.8268032 L5.31809677,18.8268032 L5.31809677,23.2257065 Z M21.9455806,2.80506129 L0,-0.000132258065 L0,2.90557742 L0,38.2396419 C0,39.1958677 0.781645161,39.9775129 1.73787097,39.9775129 L8.52006452,39.9775129 L8.52006452,32.5763516 L15.9529677,32.5763516 L15.9529677,39.9775129 L24.4148387,39.9775129 L24.4148387,5.71077097 C24.4148387,4.2665129 23.3726452,3.04048065 21.9455806,2.80506129 L21.9455806,2.80506129 Z" id="Fill-3"></path> </g> </g> </svg> 