<?xml version="1.0" encoding="UTF-8"?> <svg xmlns="http://www.w3.org/2000/svg" xmlns:xlink="http://www.w3.org/1999/xlink" width="60px" height="60px" viewBox="0 0 60 60"> <title>Artboard_20 Copy 4</title> <g id="Artboard_20-Copy-4" stroke="none" stroke-width="1" fill="none" fill-rule="evenodd"> <rect id="Rectangle" fill="#FFFFFF" x="0" y="0" width="60" height="60"></rect> <g id="wallet" transform="translate(9.000000, 11.000000)" fill="#009ED0" fill-rule="nonzero"> <circle id="Oval" cx="19.5322849" cy="17.7929688" r="1"></circle> <circle id="Oval" transform="translate(9.270173, 14.588066) rotate(-9.207969) translate(-9.270173, -14.588066) " cx="9.2701731" cy="14.5880656" r="1.2286632"></circle> <circle id="Oval" cx="19.5322849" cy="28.7929688" r="1"></circle> <path d="M29.5322849,20.0420799 L29.5322849,24.5446354 C29.5322849,25.2329688 30.124309,25.7929688 30.8520053,25.7929688 L41.5322849,25.7929688 L41.5322849,18.7929688 L30.8520053,18.7929688 C30.124309,18.7929688 29.5322849,19.3529687 29.5322849,20.0420799 Z M33.2324357,21.1263021 C33.9132634,21.1263021 34.4658192,21.6489688 34.4658192,22.2929688 C34.4658192,22.9377465 33.9132634,23.4596354 33.2324357,23.4596354 C32.5516079,23.4596354 31.9990521,22.9377465 31.9990521,22.2929688 C31.9990521,21.6489688 32.5516079,21.1263021 33.2324357,21.1263021 Z" id="Shape"></path> <path d="M27.4647849,10.3213677 C27.6846287,10.1357509 27.9618943,10.0332837 28.247363,10.0332837 L42.5322849,10.0332837 L42.5322849,8.05281127 C42.5322849,7.3573782 41.9810349,6.79296875 41.3018162,6.79296875 L1.76275365,6.79296875 C1.0835349,6.79296875 0.532284905,7.3573782 0.532284905,8.05281127 L0.532284905,32.4080869 C0.532284905,33.0002128 0.611855217,33.5738611 0.76033178,34.1197929 L8.24814428,26.4532312 L8.24814428,17.2916564 C6.81587865,16.7717614 5.78720678,15.3716564 5.78720678,13.7288218 C5.78720678,11.6450422 7.44341772,9.94929421 9.47861303,9.94929421 C11.5138083,9.94929421 13.1700193,11.6450422 13.1700193,13.7288218 C13.1700193,15.3716564 12.1413474,16.7717614 10.7090818,17.2916564 L10.7090818,26.9756459 C10.7090818,27.3090842 10.5794724,27.6299241 10.3489646,27.8659346 L1.95388647,36.4614202 C3.09658178,37.8825226 4.82662084,38.7929688 6.76830053,38.7929688 L41.3018162,38.7929688 C41.9810349,38.7929688 42.5322849,38.2293992 42.5322849,37.5331262 L42.5322849,32.7104491 L31.528613,32.7104491 C31.436738,32.7104491 31.3456833,32.7003703 31.2570896,32.6793729 L23.3263083,30.8408428 C22.684824,31.958743 21.4978318,32.7104491 20.1426755,32.7104491 C18.1074802,32.7104491 16.4512693,31.0155409 16.4512693,28.9309215 C16.4512693,26.847142 18.1074802,25.1513939 20.1426755,25.1513939 C21.9900193,25.1513939 23.524824,26.5489792 23.7922458,28.3648323 L31.6664255,30.190764 L42.5322849,30.190764 L42.5322849,27.671079 L31.8772458,27.671079 C29.7944724,27.671079 28.0997068,25.9366958 28.0997068,23.8033625 L28.0997068,18.9412102 C28.0997068,16.8078769 29.7944724,15.0726538 31.8772458,15.0726538 L42.5322849,15.0726538 L42.5322849,12.5529688 L28.6895115,12.5529688 L23.811113,16.670974 C23.8258787,16.8078769 23.8340818,16.9472995 23.8340818,17.0884018 C23.8340818,19.1730212 22.1778708,20.8679294 20.1426755,20.8679294 C18.1074802,20.8679294 16.4512693,19.1730212 16.4512693,17.0884018 C16.4512693,15.0046223 18.1074802,13.3088743 20.1426755,13.3088743 C21.1278708,13.3088743 22.0236521,13.7078244 22.6864646,14.3537037 L27.4647849,10.3213677 Z" id="Path"></path> <path d="M37.5322849,4.68818246 L37.5322849,1.97476903 C37.5322849,1.32162741 36.9776687,0.79296875 36.2943023,0.79296875 L6.42095569,0.79296875 C3.69409258,0.79296875 1.37658907,2.46482221 0.532284905,4.79296875 C0.819496879,4.72442433 1.11908868,4.68818246 1.42775902,4.68818246 L37.5322849,4.68818246 Z" id="Path"></path> </g> </g> </svg> 