<?xml version="1.0" encoding="UTF-8"?> <svg xmlns="http://www.w3.org/2000/svg" xmlns:xlink="http://www.w3.org/1999/xlink" width="60px" height="60px" viewBox="0 0 60 60"> <!-- Generator: Sketch 62 (91390) - https://sketch.com --> <title>Artboard_2</title> <desc>Created with Sketch.</desc> <defs> <polygon id="path-1" points="0 0.5502 8.0829 0.5502 8.0829 2.8382 0 2.8382"></polygon> <polygon id="path-3" points="0.94505 0.404643733 25.0398 0.404643733 25.0398 29 0.94505 29"></polygon> </defs> <g id="Artboard_2" stroke="none" stroke-width="1" fill="none" fill-rule="evenodd"> <g id="Group-17" transform="translate(10.000000, 12.000000)"> <path d="M9.226,3.4314 L3.431,3.4314 C2.799,3.4314 2.288,3.9424 2.288,4.5754 C2.288,5.2074 2.799,5.7184 3.431,5.7184 L9.226,5.7184 C9.858,5.7184 10.37,5.2074 10.37,4.5754 C10.37,3.9424 9.858,3.4314 9.226,3.4314" id="Fill-1" fill="#FFFFFF"></path> <path d="M9.226,12.5813 L3.431,12.5813 C2.799,12.5813 2.288,13.0923 2.288,13.7253 C2.288,14.3573 2.799,14.8683 3.431,14.8683 L9.226,14.8683 C9.858,14.8683 10.37,14.3573 10.37,13.7253 C10.37,13.0923 9.858,12.5813 9.226,12.5813" id="Fill-3" fill="#FFFFFF"></path> <g id="Group-7" transform="translate(0.000000, 7.455900)"> <mask id="mask-2" fill="white"> <use xlink:href="#path-1"></use> </mask> <g id="Clip-6"></g> <path d="M6.9389,0.5502 L1.1439,0.5502 C0.5119,0.5502 -0.0001,1.0622 -0.0001,1.6942 C-0.0001,2.3262 0.5119,2.8382 1.1439,2.8382 L6.9389,2.8382 C7.5709,2.8382 8.0829,2.3262 8.0829,1.6942 C8.0829,1.0622 7.5709,0.5502 6.9389,0.5502" id="Fill-5" fill="#FFFFFF" mask="url(#mask-2)"></path> </g> <g id="Group-10" transform="translate(14.000000, 6.455900)"> <mask id="mask-4" fill="white"> <use xlink:href="#path-3"></use> </mask> <g id="Clip-9"></g> <path d="M22.7518,7.2689 L15.8138,7.2689 L15.8138,2.6939 C15.8138,0.6849 13.3558,-0.3731 11.9078,1.0779 L2.7588,10.2269 C1.8648,11.1199 1.8648,12.5679 2.7588,13.4609 L8.0038,18.7069 L1.6148,25.0949 C0.7218,25.9889 0.7218,27.4359 1.6148,28.3299 C2.5088,29.2239 3.9558,29.2239 4.8498,28.3299 L12.8558,20.3239 C13.7488,19.4299 13.7488,17.9829 12.8558,17.0889 L7.6098,11.8439 L11.2378,8.2159 L11.2378,9.5569 C11.2378,10.8199 12.2628,11.8439 13.5258,11.8439 L22.7518,11.8439 C24.0158,11.8439 25.0398,10.8199 25.0398,9.5569 C25.0398,8.2929 24.0158,7.2689 22.7518,7.2689" id="Fill-8" fill="#FFFFFF" mask="url(#mask-4)"></path> </g> <path d="M21.3602,2.0998 C20.4512,1.4958 19.2452,1.6148 18.4742,2.3858 L12.1832,8.6768 C11.2902,9.5698 11.2902,11.0168 12.1832,11.9108 C13.0772,12.8048 14.5252,12.8048 15.4182,11.9108 L20.3822,6.9458 L22.0552,8.1508 L24.2902,5.9158 C24.6642,5.5428 25.1042,5.2528 25.5872,5.0258 L21.3602,2.0998 Z" id="Fill-11" fill="#FFFFFF"></path> <path d="M15.1415,21.5344 C14.5615,20.9544 14.1755,20.2414 13.9715,19.4704 L1.8905,31.5514 C0.9965,32.4444 0.9965,33.8924 1.8905,34.7854 C2.7835,35.6794 4.2315,35.6794 5.1245,34.7854 L16.7585,23.1514 L15.1415,21.5344 Z" id="Fill-13" fill="#FFFFFF"></path> <path d="M30.9569,0.0002 C32.8529,0.0002 34.3889,1.5362 34.3889,3.4312 C34.3889,5.3262 32.8529,6.8622 30.9569,6.8622 C29.0619,6.8622 27.5259,5.3262 27.5259,3.4312 C27.5259,1.5362 29.0619,0.0002 30.9569,0.0002" id="Fill-15" fill="#FFFFFF"></path> </g> </g> </svg> 