<?xml version="1.0" encoding="UTF-8"?> <svg xmlns="http://www.w3.org/2000/svg" xmlns:xlink="http://www.w3.org/1999/xlink" width="60px" height="60px" viewBox="0 0 60 60"> <title>Artboard_20 Copy 11</title> <g id="Artboard_20-Copy-11" stroke="none" stroke-width="1" fill="none" fill-rule="evenodd"> <g id="buildings" transform="translate(6.000000, 5.419192)" fill="#00A1A0" fill-rule="nonzero"> <path d="M48,48.5808081 L48,45.7679675 L46.2234375,45.7679675 L46.2234375,42.8080153 L42.754875,42.8080153 L42.754875,39.9951747 L46.2234375,39.9951747 L46.2234375,37.181959 L42.754875,37.181959 L42.754875,34.3691184 L46.2234375,34.3691184 L46.2234375,31.5559027 L42.754875,31.5559027 L42.754875,28.7430621 L46.2234375,28.7430621 L46.2234375,25.9298464 L42.754875,25.9298464 L42.754875,23.1170058 L46.2234375,23.1170058 L46.2234375,19.3660829 L38.9110313,19.3660829 L38.9110313,45.7679675 L36.0985313,45.7679675 L36.0985313,16.5532422 L41.4735,16.5532422 L41.4735,11.5047559 L31.5470625,11.5047559 L31.5470625,45.7679675 L28.7345625,45.7679675 L28.7345625,4.29694558 L25.40625,4.29694558 L25.40625,0.580808081 L22.59375,0.580808081 L22.59375,4.29694558 L19.2655313,4.29694558 L19.2655313,45.7679675 L16.4530313,45.7679675 L16.4530313,17.599619 L13.1295938,17.599619 L13.1295938,45.7679675 L10.3170938,45.7679675 L10.3170938,9.42728558 L1.7765625,7.55187098 L1.7765625,14.348444 L6.5109375,14.348444 L6.5109375,17.1612846 L1.7765625,17.1612846 L1.7765625,19.5056935 L6.5109375,19.5056935 L6.5109375,22.3185341 L1.7765625,22.3185341 L1.7765625,24.6628493 L6.5109375,24.6628493 L6.5109375,27.4756899 L1.7765625,27.4756899 L1.7765625,29.8200988 L6.5109375,29.8200988 L6.5109375,32.6329394 L1.7765625,32.6329394 L1.7765625,34.9773483 L6.5109375,34.9773483 L6.5109375,37.7901889 L1.7765625,37.7901889 L1.7765625,40.134504 L6.5109375,40.134504 L6.5109375,42.9473447 L1.7765625,42.9473447 L1.7765625,45.7679675 L0,45.7679675 L0,48.5808081 L48,48.5808081 Z M21.926625,11.1603704 L26.073375,11.1603704 L26.073375,13.9732111 L21.926625,13.9732111 L21.926625,11.1603704 Z M21.926625,16.7864267 L26.073375,16.7864267 L26.073375,19.5992673 L21.926625,19.5992673 L21.926625,16.7864267 Z M21.926625,22.412483 L26.073375,22.412483 L26.073375,25.2253236 L21.926625,25.2253236 L21.926625,22.412483 Z M21.926625,28.0385393 L26.073375,28.0385393 L26.073375,30.8513799 L21.926625,30.8513799 L21.926625,28.0385393 Z M21.926625,33.6645956 L26.073375,33.6645956 L26.073375,36.4774362 L21.926625,36.4774362 L21.926625,33.6645956 Z M21.926625,39.2906519 L26.073375,39.2906519 L26.073375,42.1034925 L21.926625,42.1034925 L21.926625,39.2906519 Z" id="Shape"></path> </g> </g> </svg> 