<?xml version="1.0" encoding="UTF-8"?> <svg xmlns="http://www.w3.org/2000/svg" xmlns:xlink="http://www.w3.org/1999/xlink" width="60px" height="60px" viewBox="0 0 60 60"> <title>Artboard_5 Copy</title> <g id="Artboard_5-Copy" stroke="none" stroke-width="1" fill="none" fill-rule="evenodd"> <g id="Group-11" fill="#FFFFFF"> <rect id="Rectangle" x="0" y="0" width="60" height="60"></rect> </g> <g id="museum-(1)" transform="translate(10.000000, 8.000000)" fill="#006CB2" fill-rule="nonzero"> <polygon id="Path" points="12.2264327 36.097561 11.6370339 19.5121951 4.03534378 19.5121951 3.44594493 36.097561"></polygon> <polygon id="Path" points="28.425508 19.5121951 27.8361888 36.097561 36.6166766 36.097561 36.0273575 19.5121951"></polygon> <polygon id="Path" points="15.7425754 19.5121951 15.153262 36.097561 23.9337498 36.097561 23.344351 19.5121951"></polygon> <polygon id="Path" points="0.519115662 39.0243902 39.5435059 39.0243902 39.5435059 44.8780488 0.519115662 44.8780488"></polygon> <path d="M39.5435059,16.5853659 L39.5435059,13.947458 L20.0313108,0 L0.519115662,13.9473696 L0.519115662,16.5853659 L39.5435059,16.5853659 L39.5435059,16.5853659 Z M15.3855791,11.6935047 L15.3855791,9.04127481 L24.6770425,9.04127481 L24.6770425,11.6935047 L15.3855791,11.6935047 Z" id="Shape"></path> </g> </g> </svg> 