<?xml version="1.0" encoding="UTF-8"?> <svg xmlns="http://www.w3.org/2000/svg" xmlns:xlink="http://www.w3.org/1999/xlink" width="60px" height="60px" viewBox="0 0 60 60"> <title>Artboard_20 Copy 3</title> <g id="Artboard_20-Copy-3" stroke="none" stroke-width="1" fill="none" fill-rule="evenodd"> <rect id="Rectangle" fill="#FFFFFF" x="0" y="0" width="60" height="60"></rect> <g id="computer" transform="translate(10.000000, 11.000000)" fill="#009ED0" fill-rule="nonzero"> <polygon id="Path" points="23.9807358 33 15.9778411 33 15.1003272 36.7192093 8.47928846 36.7192093 8.47928846 39 31.4792885 39 31.4792885 36.7192093 24.8582497 36.7192093"></polygon> <path d="M0.479288463,28.8564998 C0.479288463,30.0402835 1.52858534,31 2.82303846,31 L38.1355385,31 C39.4299916,31 40.4792885,30.0402835 40.4792885,28.8564998 L40.4792885,26 L0.479288463,26 L0.479288463,28.8564998 Z" id="Path"></path> <path d="M38.1355385,0 L2.82303846,0 C1.52858534,0 0.479288463,1.07358752 0.479288463,2.39800653 L0.479288463,23 L40.4792885,23 L40.4792885,2.39800653 C40.4792885,1.07366746 39.4299916,0 38.1355385,0 Z M11.3103822,15.5395619 L19.6921791,6.96381095 L21.3494447,8.65944137 L12.9676478,17.2351923 L11.3103822,15.5395619 Z M21.2663978,17.2351923 L19.6091322,15.5395619 L27.9909291,6.96381095 L29.6481947,8.65944137 L21.2663978,17.2351923 Z" id="Shape"></path> </g> </g> </svg> 