<?xml version="1.0" encoding="UTF-8"?> <svg xmlns="http://www.w3.org/2000/svg" width="60" height="60" viewBox="0 0 60 60" fill="none"> <g id="Artboard_20 Copy"> <rect width="60" height="60" fill="white"></rect> <g id="Frame"> <g id="Cloud_1_"> <g id="Group"> <path id="Vector" d="M50.2953 16.222C50.2953 20.2187 47.0537 23.4441 43.037 23.4441C39.0202 23.4441 35.7786 20.2187 35.7786 16.222C35.7786 12.2254 39.0906 9 43.1074 9C47.0537 9 50.2953 12.2254 50.2953 16.222Z" fill="#009ED0"></path> <g id="Group_2"> <path id="Vector_2" d="M23.3054 9H9V23.2337H23.3054V9Z" fill="#009ED0"></path> <path id="Vector_3" d="M39.7249 50.6494L35.99 44.1987L39.7249 37.7479H47.2652L51.0001 44.1987L47.2652 50.6494H39.7249Z" fill="#009ED0"></path> <path id="Vector_4" d="M22.6007 48.0551C22.6007 49.6677 21.2617 51 19.6409 51H11.9597C10.3389 51 9 49.6677 9 48.0551V40.4123C9 38.7996 10.3389 37.4674 11.9597 37.4674H19.6409C21.2617 37.4674 22.6007 38.7996 22.6007 40.4123V48.0551Z" fill="#009ED0"></path> <g id="Group_3"> <path id="Vector_5" d="M16.8926 24.8464H15.3423V36.2755H16.8926V24.8464Z" fill="#009ED0"></path> <path id="Vector_6" d="M43.8826 24.8464H42.3323V36.2755H43.8826V24.8464Z" fill="#009ED0"></path> <path id="Vector_7" d="M34.51 15.3105H24.7852V16.8531H34.51V15.3105Z" fill="#009ED0"></path> <path id="Vector_8" d="M34.51 43.4274H24.7852V44.9699H34.51V43.4274Z" fill="#009ED0"></path> </g> </g> </g> </g> </g> </g> </svg> 