<?xml version="1.0" encoding="UTF-8"?> <svg xmlns="http://www.w3.org/2000/svg" xmlns:xlink="http://www.w3.org/1999/xlink" width="60px" height="60px" viewBox="0 0 60 60"> <!-- Generator: Sketch 62 (91390) - https://sketch.com --> <title>Group 22</title> <desc>Created with Sketch.</desc> <g id="Page-1" stroke="none" stroke-width="1" fill="none" fill-rule="evenodd"> <g id="Artboard" transform="translate(-648.000000, -18.000000)"> <g id="Group-22" transform="translate(648.000000, 18.000000)"> <rect id="Rectangle" fill="#FFFFFF" x="0" y="0" width="60" height="60"></rect> <path d="M26.3747,32.837 L26.3747,39.101 L23.2427,39.101 L23.2427,21.702 L30.7247,21.702 C33.3337,21.702 34.5517,22.224 35.5957,23.268 C36.8137,24.312 37.1617,25.704 37.1617,27.27 C37.1617,29.009 36.6397,30.401 35.5957,31.271 C34.5517,32.141 33.3337,32.663 30.7247,32.663 L26.3747,32.663 L26.3747,32.837 Z M40.6577,16.76 L19.7477,16.76 C18.1037,16.76 16.7597,18.104 16.7597,19.747 L16.7597,40.657 C16.7597,42.3 18.1037,43.645 19.7477,43.645 L40.6577,43.645 C42.3007,43.645 43.6447,42.3 43.6447,40.657 L43.6447,19.747 C43.6447,18.104 42.3007,16.76 40.6577,16.76 L40.6577,16.76 Z" id="Fill-1" fill="#006CB2"></path> <path d="M26.3747,30.4015 L26.3747,24.1375 L30.3757,24.1375 C31.5947,24.1375 32.4637,24.4855 32.9857,25.1815 C33.5077,25.8775 33.8557,26.3995 33.8557,27.2695 C33.8557,28.3135 33.5077,28.8355 32.9857,29.5315 C32.4637,30.0535 31.7687,30.4015 30.5507,30.4015 L26.3747,30.4015 Z" id="Fill-3" fill="#006CB2"></path> <path d="M42.0266,13.0001 L18.3786,13.0001 C15.4126,13.0001 13.0006,15.4131 13.0006,18.3781 L13.0006,42.0261 C13.0006,44.9921 15.4126,47.4041 18.3786,47.4041 L42.0266,47.4041 C44.9916,47.4041 47.4046,44.9921 47.4046,42.0261 L47.4046,18.3781 C47.4046,15.4131 44.9916,13.0001 42.0266,13.0001 M42.0266,15.0001 C43.8846,15.0001 45.4046,16.5201 45.4046,18.3781 L45.4046,42.0261 C45.4046,43.8841 43.8846,45.4041 42.0266,45.4041 L18.3786,45.4041 C16.5206,45.4041 15.0006,43.8841 15.0006,42.0261 L15.0006,18.3781 C15.0006,16.5201 16.5206,15.0001 18.3786,15.0001 L42.0266,15.0001" id="Fill-5" fill="#006CB2"></path> </g> </g> </g> </svg> 