<?xml version="1.0" encoding="UTF-8"?> <svg xmlns="http://www.w3.org/2000/svg" xmlns:xlink="http://www.w3.org/1999/xlink" width="60px" height="60px" viewBox="0 0 60 60"> <!-- Generator: Sketch 62 (91390) - https://sketch.com --> <title>Group 21</title> <desc>Created with Sketch.</desc> <defs> <polygon id="path-1" points="0 0.5789 11.5726 0.5789 11.5726 6.9999 0 6.9999"></polygon> <polygon id="path-3" points="0.5318 0.5789 12.127 0.5789 12.127 6.9999 0.5318 6.9999"></polygon> </defs> <g id="Page-1" stroke="none" stroke-width="1" fill="none" fill-rule="evenodd"> <g id="Artboard" transform="translate(-186.000000, -18.000000)"> <g id="Group-21" transform="translate(186.000000, 18.000000)"> <rect id="Rectangle" fill="#FFFFFF" x="0" y="0" width="60" height="60"></rect> <path d="M30.0639,17.2922 C28.3129,17.2922 26.8889,18.7162 26.8889,20.4672 C26.8889,22.2182 28.3129,23.6432 30.0639,23.6432 C31.8139,23.6432 33.2389,22.2182 33.2389,20.4672 C33.2389,18.7162 31.8139,17.2922 30.0639,17.2922" id="Fill-1" fill="#006CB2"></path> <path d="M30.0639,25.7595 C27.1459,25.7595 24.7719,23.3845 24.7719,20.4675 C24.7719,17.5495 27.1459,15.1755 30.0639,15.1755 C32.9809,15.1755 35.3559,17.5495 35.3559,20.4675 C35.3559,23.3845 32.9809,25.7595 30.0639,25.7595 M30.0639,12.0005 C25.3949,12.0005 21.5969,15.7985 21.5969,20.4675 C21.5969,22.0685 22.0459,23.6285 22.8969,24.9785 L30.0639,36.4145 L37.2309,24.9785 C38.0819,23.6285 38.5309,22.0685 38.5309,20.4675 C38.5309,15.7985 34.7329,12.0005 30.0639,12.0005" id="Fill-3" fill="#006CB2"></path> <polygon id="Fill-5" fill="#006CB2" points="24.9125 48.1272 35.2115 48.1272 34.3975 41.7062 25.7055 41.7062"></polygon> <polygon id="Fill-7" fill="#006CB2" points="25.9706 39.5896 29.5636 39.5896 26.5656 34.8346"></polygon> <polygon id="Fill-9" fill="#006CB2" points="36.2611 39.5896 44.5991 39.5896 41.9531 33.2386 35.4471 33.2386"></polygon> <polygon id="Fill-11" fill="#006CB2" points="15.5277 39.5896 23.8377 39.5896 24.6317 33.2386 18.1737 33.2386"></polygon> <polygon id="Fill-13" fill="#006CB2" points="30.5643 39.5896 34.1263 39.5896 33.5243 34.8956"></polygon> <g id="Group-17" transform="translate(12.000000, 41.127400)"> <mask id="mask-2" fill="white"> <use xlink:href="#path-1"></use> </mask> <g id="Clip-16"></g> <polygon id="Fill-15" fill="#006CB2" mask="url(#mask-2)" points="11.5726 0.5789 2.6456 0.5789 -0.0004 6.9999 10.7796 6.9999"></polygon> </g> <g id="Group-20" transform="translate(36.000000, 41.127400)"> <mask id="mask-4" fill="white"> <use xlink:href="#path-3"></use> </mask> <g id="Clip-19"></g> <polygon id="Fill-18" fill="#006CB2" mask="url(#mask-4)" points="9.4818 0.5789 0.5318 0.5789 1.3468 6.9999 12.1278 6.9999"></polygon> </g> </g> </g> </g> </svg> 