<?xml version="1.0" encoding="UTF-8"?> <svg xmlns="http://www.w3.org/2000/svg" xmlns:xlink="http://www.w3.org/1999/xlink" width="60px" height="60px" viewBox="0 0 60 60"> <!-- Generator: Sketch 62 (91390) - https://sketch.com --> <title>Group 23</title> <desc>Created with Sketch.</desc> <g id="Page-1" stroke="none" stroke-width="1" fill="none" fill-rule="evenodd"> <g id="Artboard" transform="translate(-180.000000, -159.000000)"> <g id="Group-23" transform="translate(180.000000, 159.000000)"> <rect id="Rectangle" fill="#FFFFFF" x="0" y="0" width="60" height="60"></rect> <g id="Group" transform="translate(17.000000, 11.000000)" fill="#009ED1"> <path d="M22.805777,-2.30926389e-14 L4.90480528,-2.30926389e-14 C3.12471914,-2.30926389e-14 1.67729115,1.44742798 1.67729115,3.22751413 L1.67729115,12.5064869 C1.67729115,14.0352545 2.74721991,15.3168748 4.17587721,15.6484902 L4.17587721,10.1810082 C4.17587721,7.82007381 6.09778627,5.89816475 8.45872068,5.89816475 C10.8206979,5.89816475 12.7415641,7.82007381 12.7415641,10.1810082 L12.7415641,15.7350438 L22.805777,15.7350438 C24.5858632,15.7350438 26.0332912,14.286573 26.0332912,12.5064869 L26.0332912,3.22751413 C26.0332912,1.44742798 24.5858632,-2.30926389e-14 22.805777,-2.30926389e-14" id="Fill-1"></path> <path d="M1.70101068,31.4473362 C2.14615102,34.3006129 3.55663085,36.7994452 4.81073818,38.5487321 L22.4193226,38.5487321 C23.8047828,35.6391613 24.536606,32.4491626 24.5376485,29.2028698 L24.538691,20.8171346 C24.538691,19.5473901 23.50976,18.5195016 22.2410579,18.5195016 C20.9723558,18.5195016 19.9434249,19.5473901 19.9434249,20.8171346 L19.9434249,19.646426 C19.9434249,18.3766814 18.9144939,17.3487929 17.6457918,17.3487929 C16.3770897,17.3487929 15.3481588,18.3766814 15.3481588,19.646426 L15.3481588,18.6623218 C15.3481588,17.4551262 14.4172212,16.4668521 13.2350452,16.3730286 C13.1735387,16.3678162 13.1130747,16.3646887 13.0505257,16.3646887 C12.1248006,16.3646887 11.3262584,16.9130349 10.9624318,17.7021947 C10.8279514,17.9951325 10.7528926,18.3193448 10.7528926,18.6623218 L10.7528926,10.1858906 C10.7528926,8.91823096 9.72396169,7.8893 8.45525959,7.8893 C7.18655748,7.8893 6.15762653,8.91823096 6.15762653,10.1858906 L6.15762653,29.9117584 L6.05859062,29.8992486 L4.64289838,23.840336 C4.35413052,22.6049934 3.1177454,21.8366833 1.88240276,22.1254511 C0.584511131,22.1254511 -0.234880695,23.1595945 0.060142062,24.4230842 L1.70101068,31.4473362 Z" id="Fill-3"></path> </g> </g> </g> </g> </svg> 