<?xml version="1.0" encoding="UTF-8"?> <svg xmlns="http://www.w3.org/2000/svg" xmlns:xlink="http://www.w3.org/1999/xlink" width="60px" height="60px" viewBox="0 0 60 60"> <!-- Generator: Sketch 62 (91390) - https://sketch.com --> <title>Group 8</title> <desc>Created with Sketch.</desc> <defs> <polygon id="path-1" points="0 0.222 49.8199006 0.222 49.8199006 23.5939 0 23.5939"></polygon> </defs> <g id="Page-1" stroke="none" stroke-width="1" fill="none" fill-rule="evenodd"> <g id="Artboard" transform="translate(-333.000000, -18.000000)"> <g id="Group-8" transform="translate(333.000000, 18.000000)"> <rect id="Rectangle" fill="#FFFFFF" x="0" y="0" width="60" height="60"></rect> <path d="M16.0451,42.4244 C15.0451,42.4244 14.2341,41.6134 14.2341,40.6134 C14.2341,39.6124 15.0451,38.8024 16.0451,38.8024 C17.0451,38.8024 17.8561,39.6124 17.8561,40.6134 C17.8561,41.6134 17.0451,42.4244 16.0451,42.4244 M16.0451,36.4484 C13.7441,36.4484 11.8791,38.3124 11.8791,40.6134 C11.8791,42.9144 13.7441,44.7784 16.0451,44.7784 C18.3471,44.7784 20.2111,42.9144 20.2111,40.6134 C20.2111,38.3124 18.3471,36.4484 16.0451,36.4484" id="Fill-1" fill="#006CB2"></path> <path d="M43.2712,42.4244 C42.2712,42.4244 41.4602,41.6134 41.4602,40.6134 C41.4602,39.6124 42.2712,38.8024 43.2712,38.8024 C44.2712,38.8024 45.0832,39.6124 45.0832,40.6134 C45.0832,41.6134 44.2712,42.4244 43.2712,42.4244 M43.2712,36.4484 C40.9702,36.4484 39.1062,38.3124 39.1062,40.6134 C39.1062,42.9144 40.9702,44.7784 43.2712,44.7784 C45.5732,44.7784 47.4372,42.9144 47.4372,40.6134 C47.4372,38.3124 45.5732,36.4484 43.2712,36.4484" id="Fill-3" fill="#006CB2"></path> <g id="Group-7" transform="translate(5.000000, 16.778500)"> <mask id="mask-2" fill="white"> <use xlink:href="#path-1"></use> </mask> <g id="Clip-6"></g> <path d="M47.0739,10.8089 C47.0739,11.8489 46.2059,12.6999 45.1439,12.6999 L38.5179,12.6999 L38.5179,3.5719 L45.1439,3.5719 C46.2059,3.5719 47.0739,4.4229 47.0739,5.4629 L47.0739,10.8089 Z M27.0729,12.6999 L34.8319,12.6999 L34.8319,3.5719 L27.0729,3.5719 L27.0729,12.6999 Z M15.6289,12.6999 L23.3869,12.6999 L23.3869,3.5719 L15.6289,3.5719 L15.6289,12.6999 Z M13.0129,12.6999 L7.0189,12.6999 L7.9689,10.4939 C8.1349,10.1089 7.9499,9.6649 7.5579,9.5029 C7.1649,9.3409 6.7129,9.5209 6.5469,9.9059 L5.3689,12.6409 C4.5739,12.4359 4.0909,11.7049 4.2539,10.8409 L5.6369,5.4309 C5.8299,4.4089 6.8569,3.5719 7.9179,3.5719 L11.9409,3.5719 L11.9409,12.6999 L13.0129,12.6999 Z M47.0539,0.2219 L5.5319,0.2219 C4.0109,0.2219 2.5169,1.4409 2.2129,2.9319 L0.5529,8.9899 C0.2489,10.4809 -0.0001,12.9449 -0.0001,14.4659 L-0.0001,20.8279 C-0.0001,22.3499 1.2449,23.5939 2.7659,23.5939 L5.5859,23.5939 C5.5859,20.5839 8.0349,18.1359 11.0449,18.1359 C14.0549,18.1359 16.5039,20.5839 16.5039,23.5939 L32.7609,23.5939 C32.7609,20.5839 35.2109,18.1359 38.2199,18.1359 C41.2299,18.1359 43.6789,20.5839 43.6789,23.5939 L47.0539,23.5939 C48.5759,23.5939 49.8199006,22.3499 49.8199006,20.8279 L49.8199006,2.9869 C49.8209,1.4659 48.5759,0.2219 47.0539,0.2219 L47.0539,0.2219 Z" id="Fill-5" fill="#006CB2" mask="url(#mask-2)"></path> </g> </g> </g> </g> </svg> 