<?xml version="1.0" encoding="UTF-8"?> <svg xmlns="http://www.w3.org/2000/svg" xmlns:xlink="http://www.w3.org/1999/xlink" width="60px" height="60px" viewBox="0 0 60 60"> <!-- Generator: Sketch 62 (91390) - https://sketch.com --> <title>Group 15</title> <desc>Created with Sketch.</desc> <g id="Page-1" stroke="none" stroke-width="1" fill="none" fill-rule="evenodd"> <g id="Artboard" transform="translate(-491.000000, -18.000000)"> <g id="Group-15" transform="translate(491.000000, 18.000000)"> <rect id="Rectangle" fill="#FFFFFF" x="0" y="0" width="60" height="60"></rect> <path d="M37.6368,40.5161 C36.1888,40.5161 35.0098,39.3381 35.0098,37.8901 C35.0098,36.4421 36.1888,35.2641 37.6368,35.2641 C39.0848,35.2641 40.2628,36.4421 40.2628,37.8901 C40.2628,39.3381 39.0848,40.5161 37.6368,40.5161 L37.6368,40.5161 Z M21.8778,40.5161 C20.4308,40.5161 19.2518,39.3381 19.2518,37.8901 C19.2518,36.4421 20.4308,35.2641 21.8778,35.2641 C23.3258,35.2641 24.5048,36.4421 24.5048,37.8901 C24.5048,39.3381 23.3258,40.5161 21.8778,40.5161 L21.8778,40.5161 Z M19.8818,20.2201 C19.9678,18.8361 21.1198,17.7541 22.5028,17.7541 L37.0888,17.7541 C38.4738,17.7541 39.6238,18.8361 39.7098,20.2201 L39.3858,29.0831 C39.3878,31.5731 32.0168,31.7621 29.7578,31.7621 C27.4988,31.7621 20.1278,31.5731 20.1278,29.1351 L19.8818,20.2201 Z M43.1038,18.3391 C42.9508,16.0471 41.0328,14.2531 38.7348,14.2531 L20.8578,14.2531 C18.5608,14.2531 16.6408,16.0471 16.4898,18.3391 L15.7498,41.3911 C15.7498,43.9711 23.1318,45.7691 29.7578,45.7691 C36.3828,45.7691 43.7648,43.9711 43.7628004,41.3341 L43.1038,18.3391 Z" id="Fill-1" fill="#006CB2"></path> <path d="M38.2862,11.0381 C38.0972,10.8301 36.2502,9.0001 29.7582,9.0001 C23.2652,9.0001 21.4182,10.8301 21.2302,11.0381 C20.9142,11.3881 20.9402,11.9171 21.2812,12.2461 C21.6212,12.5751 22.1732,12.5651 22.5092,12.2341 C22.5242,12.2181 24.0942,10.7511 29.7582,10.7511 C35.4132,10.7511 36.9852,12.2151 36.9872,12.2151 C37.1602,12.4061 37.3982,12.5021 37.6372,12.5021 C37.8472,12.5021 38.0572,12.4271 38.2242,12.2761 C38.5842,11.9501 38.6112,11.3971 38.2862,11.0381" id="Fill-3" fill="#006CB2"></path> <path d="M32.8341,10 C32.4191,9.75 31.8831,9.884 31.6331,10.299 L29.7581,13.426 L27.8811,10.299 C27.6321,9.886 27.0951,9.75 26.6801,10 C26.2671,10.249 26.1321,10.786 26.3801,11.201 L29.0061,15.578 C29.1661,15.843 29.4491,16.003 29.7581,16.003 C30.0651,16.003 30.3501,15.843 30.5071,15.578 L33.1331,11.201 C33.3821,10.786 33.2491,10.249 32.8341,10" id="Fill-5" fill="#006CB2"></path> <path d="M20.6983,43.3525 C20.3323,43.0375 19.7793,43.0795 19.4643,43.4475 L14.2113,49.5755 C13.8963,49.9435 13.9383,50.4945 14.3053,50.8105 C14.4703,50.9515 14.6743,51.0215 14.8753,51.0215 C15.1223,51.0215 15.3673,50.9185 15.5403,50.7155 L20.7933,44.5875 C21.1083,44.2195 21.0663,43.6675 20.6983,43.3525" id="Fill-7" fill="#006CB2"></path> <path d="M45.3058,49.5757 L40.0528,43.4477 C39.7378,43.0797 39.1868,43.0377 38.8188,43.3527 C38.4508,43.6677 38.4088,44.2217 38.7238,44.5877 L43.9768,50.7157 C44.1488,50.9187 44.3938,51.0217 44.6398,51.0217 C44.8418,51.0217 45.0448,50.9517 45.2108,50.8097 C45.5778,50.4947 45.6208,49.9417 45.3058,49.5757" id="Fill-9" fill="#006CB2"></path> <path d="M42.8898,47.52 L16.6258,47.52 C16.1428,47.52 15.7498,47.912 15.7498,48.395 C15.7498,48.878 16.1428,49.271 16.6258,49.271 L42.8898,49.271 C43.3718,49.271 43.7648,48.878 43.7648,48.395 C43.7648,47.912 43.3718,47.52 42.8898,47.52" id="Fill-11" fill="#006CB2"></path> <path d="M39.3878,44.018 L20.1278,44.018 C19.6448,44.018 19.2518,44.41 19.2518,44.893 C19.2518,45.377 19.6448,45.769 20.1278,45.769 L39.3878,45.769 C39.8708,45.769 40.2628,45.377 40.2628,44.893 C40.2628,44.41 39.8708,44.018 39.3878,44.018" id="Fill-13" fill="#006CB2"></path> </g> </g> </g> </svg> 