<?xml version="1.0" encoding="UTF-8"?> <svg xmlns="http://www.w3.org/2000/svg" width="60" height="60" viewBox="0 0 60 60" fill="none"> <g id="Group 9"> <g id="Group 3"> <mask id="mask0_0_71" style="mask-type:alpha" maskUnits="userSpaceOnUse" x="11" y="15" width="3" height="14"> <path id="Clip 2" fill-rule="evenodd" clip-rule="evenodd" d="M11 15.7158H13.2258V28.9811H11V15.7158Z" fill="white"></path> </mask> <g mask="url(#mask0_0_71)"> <path id="Fill 1" fill-rule="evenodd" clip-rule="evenodd" d="M10.9996 27.8993C10.9996 28.4966 11.4842 28.9811 12.0823 28.9811C12.6787 28.9811 13.1633 28.4966 13.1633 27.8993L13.2258 15.7158C11.9097 16.3492 10.9996 17.6944 10.9996 19.2493V27.8993Z" fill="#006CB2"></path> </g> </g> <g id="Group 6"> <mask id="mask1_0_71" style="mask-type:alpha" maskUnits="userSpaceOnUse" x="45" y="15" width="3" height="14"> <path id="Clip 5" fill-rule="evenodd" clip-rule="evenodd" d="M45.6949 15.7161H47.9208V28.9814H45.6949V15.7161Z" fill="white"></path> </mask> <g mask="url(#mask1_0_71)"> <path id="Fill 4" fill-rule="evenodd" clip-rule="evenodd" d="M45.7575 25.6056V27.8996C45.7575 28.4969 46.242 28.9814 46.8393 28.9814C47.4375 28.9814 47.9211 28.4969 47.9211 27.8996V19.2496C47.9211 17.6947 47.0102 16.3486 45.6949 15.7161L45.7575 25.6056Z" fill="#006CB2"></path> </g> </g> <rect id="Rectangle" width="60" height="60" fill="white"></rect> <mask id="mask2_0_71" style="mask-type:alpha" maskUnits="userSpaceOnUse" x="11" y="11" width="37" height="35"> <path id="Clip 8" fill-rule="evenodd" clip-rule="evenodd" d="M11 45.9826H47.9207V11.9998H11V45.9826Z" fill="white"></path> </mask> <g mask="url(#mask2_0_71)"> <path id="Fill 7" fill-rule="evenodd" clip-rule="evenodd" d="M17.5525 27.1266H41.3682V19.1197H17.5525V27.1266ZM38.809 36.0454C38.809 36.6427 38.3245 37.1263 37.7272 37.1263C37.1308 37.1263 36.6463 36.6427 36.6463 36.0454V33.451C36.6463 32.8537 37.1308 32.3692 37.7272 32.3692C38.3245 32.3692 38.809 32.8537 38.809 33.451V36.0454ZM22.2744 36.0454C22.2744 36.6418 21.7908 37.1263 21.1935 37.1263C20.5962 37.1263 20.1117 36.6418 20.1117 36.0454V33.451C20.1117 32.8537 20.5962 32.3692 21.1935 32.3692C21.7908 32.3692 22.2744 32.8537 22.2744 33.451V36.0454ZM40.2873 11.9998H18.6343C16.8442 11.9998 15.3889 13.4552 15.3889 15.2452V38.4143C15.3889 39.8599 16.3395 41.088 17.6486 41.5056V43.0543C17.6486 43.2921 17.6785 43.5238 17.7322 43.7458C18.0441 45.0276 19.2008 45.9826 20.5777 45.9826C21.9265 45.9826 23.0647 45.0655 23.4038 43.8225C23.4699 43.5776 23.506 43.3194 23.506 43.0543V41.6597H35.4147V43.0543C35.4147 43.3194 35.4508 43.5776 35.5178 43.8225C35.8561 45.0655 36.9943 45.9826 38.3439 45.9826C39.7199 45.9826 40.8775 45.0276 41.1885 43.7458C41.2431 43.5238 41.2722 43.2921 41.2722 43.0543V41.5056C42.5813 41.088 43.5318 39.8599 43.5318 38.4143V15.2452C43.5318 13.4552 42.0765 11.9998 40.2873 11.9998Z" fill="#006CB2"></path> </g> </g> </svg> 