<?xml version="1.0" encoding="UTF-8"?> <svg xmlns="http://www.w3.org/2000/svg" xmlns:xlink="http://www.w3.org/1999/xlink" width="60px" height="60px" viewBox="0 0 60 60"> <!-- Generator: Sketch 62 (91390) - https://sketch.com --> <title>Group 5</title> <desc>Created with Sketch.</desc> <defs> <polygon id="path-1" points="0.0004 0.143 34.7333361 0.143 34.7333361 35.3619935 0.0004 35.3619935"></polygon> </defs> <g id="Page-1" stroke="none" stroke-width="1" fill="none" fill-rule="evenodd"> <g id="Artboard" transform="translate(-26.000000, -20.000000)"> <g id="Group-5" transform="translate(26.000000, 20.000000)"> <rect id="Rectangle" fill="#FFFFFF" x="0" y="0" width="60" height="60"></rect> <polygon id="Fill-1" fill="#006CB2" points="33.5207 44.274 39.7037 49.857 49.3667 40.193 43.1847 34.61"></polygon> <g id="Group-4" transform="translate(11.000000, 10.856700)"> <mask id="mask-2" fill="white"> <use xlink:href="#path-1"></use> </mask> <g id="Clip-3"></g> <path d="M32.8829,5.9408 C34.0819,1.1908 26.5639,2.9068 26.5639,13.4308 C26.5639,13.4308 26.6549,15.4038 24.6519,13.4618 L19.7229,8.5328 L11.8989,0.7458 C11.0959,-0.0582 9.7819,-0.0582 8.9799,0.7458 C8.1759,1.5478 8.1759,2.8618 8.9799,3.6648 L17.4869,12.1858 C17.8789,12.5778 17.8789,13.2128 17.4869,13.6048 C17.0949,13.9968 16.4579,13.9928 16.0659,13.6008 L5.0779,2.6108 C4.2749,1.8088 2.9609,1.8088 2.1579,2.6108 C1.3559,3.4148 1.3559,4.7278 2.1579,5.5308 L13.7849,17.1578 L13.7879,17.1558 C14.1799,17.5478 14.1799,18.1828 13.7879,18.5748 C13.3969,18.9668 12.7579,18.9638 12.3649,18.5718 L3.5219,9.7298 C2.7189,8.9268 1.4049,8.9268 0.6019,9.7298 C-0.2001,10.5318 -0.2001,11.8458 0.6019,12.6488 L11.5869,23.6328 C11.9789,24.0248 11.9779,24.6578 11.5859,25.0498 C11.1939,25.4418 10.5559,25.4378 10.1649,25.0458 L3.9939,18.8768 C3.3429,18.2258 2.2779,18.2258 1.6269,18.8768 C0.9749,19.5268 0.9749,20.5928 1.6269,21.2438 C1.6269,21.2438 4.5559,24.1728 8.1419,27.7588 C14.1429,33.7598 24.3949,38.8508 30.9649,32.2808 C39.8889,23.3568 29.7399,18.3928 32.8829,5.9408" id="Fill-2" fill="#006CB2" mask="url(#mask-2)"></path> </g> </g> </g> </g> </svg> 