<?xml version="1.0" encoding="UTF-8"?> <svg xmlns="http://www.w3.org/2000/svg" xmlns:xlink="http://www.w3.org/1999/xlink" width="60px" height="60px" viewBox="0 0 60 60"> <!-- Generator: Sketch 62 (91390) - https://sketch.com --> <title>Group 9</title> <desc>Created with Sketch.</desc> <defs> <polygon id="path-1" points="0 0.566540476 2.22581429 0.566540476 2.22581429 13.8319214 0 13.8319214"></polygon> <polygon id="path-3" points="0.337757143 0.566804762 2.56357143 0.566804762 2.56357143 13.8321857 0.337757143 13.8321857"></polygon> <polygon id="path-5" points="11 45.9825619 47.9207143 45.9825619 47.9207143 11.9998238 11 11.9998238"></polygon> </defs> <g id="Page-1" stroke="none" stroke-width="1" fill="none" fill-rule="evenodd"> <g id="Artboard" transform="translate(-411.000000, -18.000000)"> <g id="Group-9" transform="translate(411.000000, 18.000000)"> <g id="Group-3" transform="translate(11.000000, 15.149229)"> <mask id="mask-2" fill="white"> <use xlink:href="#path-1"></use> </mask> <g id="Clip-2"></g> <path d="M-0.000352380952,12.7501119 C-0.000352380952,13.3473976 0.484171429,13.8319214 1.0823381,13.8319214 C1.67874286,13.8319214 2.16326667,13.3473976 2.16326667,12.7501119 L2.22581429,0.566540476 C0.909671429,1.19994524 -0.000352380952,2.54515952 -0.000352380952,4.10004048 L-0.000352380952,12.7501119 Z" id="Fill-1" fill="#006CB2" mask="url(#mask-2)"></path> </g> <g id="Group-6" transform="translate(45.357143, 15.149229)"> <mask id="mask-4" fill="white"> <use xlink:href="#path-3"></use> </mask> <g id="Clip-5"></g> <path d="M0.400304762,10.4563762 L0.400304762,12.7503762 C0.400304762,13.3476619 0.884828571,13.8321857 1.48211429,13.8321857 C2.08028095,13.8321857 2.56392381,13.3476619 2.56392381,12.7503762 L2.56392381,4.10030476 C2.56392381,2.54542381 1.65301905,1.19932857 0.337757143,0.566804762 L0.400304762,10.4563762 Z" id="Fill-4" fill="#006CB2" mask="url(#mask-4)"></path> </g> <rect id="Rectangle" fill="#FFFFFF" x="0" y="0" width="60" height="60"></rect> <mask id="mask-6" fill="white"> <use xlink:href="#path-5"></use> </mask> <g id="Clip-8"></g> <path d="M17.5525238,27.1266571 L41.3681905,27.1266571 L41.3681905,19.119681 L17.5525238,19.119681 L17.5525238,27.1266571 Z M38.8090238,36.045419 C38.8090238,36.6427048 38.3245,37.1263476 37.7272143,37.1263476 C37.1308095,37.1263476 36.6462857,36.6427048 36.6462857,36.045419 L36.6462857,33.4510143 C36.6462857,32.8537286 37.1308095,32.3692048 37.7272143,32.3692048 C38.3245,32.3692048 38.8090238,32.8537286 38.8090238,33.4510143 L38.8090238,36.045419 Z M22.2744286,36.045419 C22.2744286,36.6418238 21.7907857,37.1263476 21.1935,37.1263476 C20.5962143,37.1263476 20.1116905,36.6418238 20.1116905,36.045419 L20.1116905,33.4510143 C20.1116905,32.8537286 20.5962143,32.3692048 21.1935,32.3692048 C21.7907857,32.3692048 22.2744286,32.8537286 22.2744286,33.4510143 L22.2744286,36.045419 Z M40.2872619,11.9998238 L18.6343333,11.9998238 C16.8442381,11.9998238 15.3889048,13.4551571 15.3889048,15.2452524 L15.3889048,38.4143 C15.3889048,39.8599429 16.3394524,41.0879905 17.6485476,41.5055619 L17.6485476,43.0542762 C17.6485476,43.2921333 17.6785,43.5238238 17.7322381,43.7458238 C18.0440952,45.0276095 19.2007857,45.9825619 20.5777143,45.9825619 C21.9264524,45.9825619 23.0646429,45.0654905 23.4038095,43.8224667 C23.469881,43.5775619 23.506,43.3194429 23.506,43.0542762 L23.506,41.6597286 L35.4147143,41.6597286 L35.4147143,43.0542762 C35.4147143,43.3194429 35.4508333,43.5775619 35.5177857,43.8224667 C35.8560714,45.0654905 36.9942619,45.9825619 38.343881,45.9825619 C39.7199286,45.9825619 40.8775,45.0276095 41.1884762,43.7458238 C41.2430952,43.5238238 41.2721667,43.2921333 41.2721667,43.0542762 L41.2721667,41.5055619 C42.5812619,41.0879905 43.5318095,39.8599429 43.5318095,38.4143 L43.5318095,15.2452524 C43.5318095,13.4551571 42.0764762,11.9998238 40.2872619,11.9998238 L40.2872619,11.9998238 Z" id="Fill-7" fill="#006CB2" mask="url(#mask-6)"></path> </g> </g> </g> </svg> 