<?xml version="1.0" encoding="UTF-8"?> <svg xmlns="http://www.w3.org/2000/svg" xmlns:xlink="http://www.w3.org/1999/xlink" width="60px" height="60px" viewBox="0 0 60 60"> <!-- Generator: Sketch 62 (91390) - https://sketch.com --> <title>Group 7</title> <desc>Created with Sketch.</desc> <defs> <polygon id="path-1" points="11.680411 30.3197 50.75 30.3197 50.75 51 11.680411 51"></polygon> <polygon id="path-3" points="0 0.233 37.1245284 0.233 37.1245284 26.8199 0 26.8199"></polygon> </defs> <g id="Page-1" stroke="none" stroke-width="1" fill="none" fill-rule="evenodd"> <g id="Artboard" transform="translate(-106.000000, -18.000000)"> <g id="Group-7" transform="translate(106.000000, 17.000000)"> <g id="Group-3" transform="translate(0.000000, 0.767400)"> <rect id="Rectangle" fill="#FFFFFF" x="0" y="0.2326" width="60" height="60"></rect> <mask id="mask-2" fill="white"> <use xlink:href="#path-1"></use> </mask> <g id="Clip-2"></g> <path d="M45.9279,30.6217 C45.7459,31.5367 44.9349,32.2027 43.9629,32.2437 C43.6569,32.2557 43.3959,32.4797 43.3379,32.7817 C43.2759,33.0837 43.4289,33.3897 43.7059,33.5177 C44.5869,33.9317 45.0789,34.8587 44.8929,35.7727 L44.7199,36.6417 C44.4919,37.7877 43.2259,38.5037 42.1169,38.2307 C41.8069,38.1557 41.4879,38.0987 41.1739,38.0367 C40.7099,37.9447 40.2469,37.8497 39.7829,37.7587 C39.1709,37.6347 38.5589,37.5147 37.9469,37.3907 C37.2189,37.2457 36.4859,37.0967 35.7579,36.9527 C34.9429,36.7867 34.1279,36.6247 33.3129,36.4597 C32.4439,36.2857 31.5709,36.1127 30.7019,35.9337 C29.8079,35.7567 28.9149,35.5747 28.0249,35.3967 C27.1399,35.2187 26.2589,35.0407 25.3729,34.8627 C24.5289,34.6927 23.6849,34.5237 22.8409,34.3537 C22.0669,34.2007 21.2979,34.0437 20.5239,33.8907 C19.8539,33.7577 19.1829,33.6217 18.5169,33.4887 C17.9839,33.3817 17.4499,33.2737 16.9119,33.1667 C16.5439,33.0917 16.1759,33.0177 15.8069,32.9427 C15.6369,32.9097 15.4679,32.8727 15.2989,32.8397 C15.2899,32.8397 15.2819,32.8357 15.2739,32.8357 C15.3649,33.2657 15.3229,33.7247 15.1249,34.1557 C14.7069,35.0577 13.7349,35.5287 12.7999,35.3467 C12.5219,35.2927 12.2199,35.3967 12.0999,35.6527 L11.7279,36.4597 C11.6079,36.7167 11.7279,37.0147 11.9469,37.1917 C11.9889,37.2257 41.8109,50.9737 41.8609,50.9867 C42.1379,51.0397 42.4399,50.9367 42.5599,50.6797 L42.9319,49.8727 C43.0519,49.6167 42.9319,49.3187 42.7129,49.1407 C41.9679,48.5497 41.6949,47.5027 42.1129,46.6007 C42.5309,45.6987 43.5029,45.2267 44.4379,45.4087 C44.7159,45.4627 45.0169,45.3597 45.1369,45.1027 L45.5099,44.2957 C45.6299,44.0397 45.5099,43.7417 45.2899,43.5637 C44.5459,42.9727 44.2729,41.9257 44.6909,41.0237 C45.1089,40.1217 46.0809,39.6497 47.0159,39.8317 C47.2929,39.8857 47.5949,39.7827 47.7149,39.5257 L48.0869,38.7187 C48.2069,38.4627 48.0869,38.1647 47.8679,37.9867 C47.1229,37.3947 46.8499,36.3487 47.2679,35.4457 C47.6859,34.5437 48.6579,34.0727 49.5939,34.2547 C49.8699,34.3087 50.1729,34.2047 50.2929,33.9487 L50.7019,33.0547 C50.8219,32.7977 50.7099,32.4967 50.4539,32.3757 L45.9979,30.3197 L45.9279,30.6217 Z" id="Fill-1" fill="#006CB2" mask="url(#mask-2)"></path> </g> <g id="Group-6" transform="translate(10.000000, 10.767400)"> <mask id="mask-4" fill="white"> <use xlink:href="#path-3"></use> </mask> <g id="Clip-5"></g> <path d="M9.3156,5.9879 C9.4276,5.4289 9.9736,5.0649 10.5326,5.1769 C11.0906,5.2889 11.4546,5.8349 11.3426,6.3929 L10.8716,8.7389 L10.3376,11.3999 L9.9076,13.5429 L9.1426,17.3739 C9.0426,17.8659 8.6126,18.2059 8.1286,18.2059 C8.0626,18.2059 7.9916,18.1969 7.9256,18.1849 C7.8966,18.1809 7.8676,18.1729 7.8426,18.1639 C7.3296,18.0149 7.0116,17.4979 7.1186,16.9679 L7.2726,16.1949 L7.6736,14.1929 L9.3156,5.9879 Z M27.9676,9.7319 C28.0786,9.1739 28.6256,8.8099 29.1836,8.9209 C29.7426,9.0329 30.1066,9.5789 29.9946,10.1379 L28.6286,16.9309 L27.7896,21.1179 C27.6906,21.6109 27.2596,21.9499 26.7756,21.9499 C26.7096,21.9499 26.6396,21.9419 26.5726,21.9289 C26.0146,21.8179 25.6506,21.2719 25.7616,20.7129 L26.7016,16.0419 L27.9676,9.7319 Z M0.3916,20.3369 C0.4406,20.3609 32.6346,26.8199 32.6886,26.8199 C32.9696,26.8069 33.2426,26.6339 33.2956,26.3609 L33.4696,25.4909 C33.5236,25.2149 33.3416,24.9489 33.0856,24.8299 C32.2246,24.4239 31.7156,23.4719 31.9106,22.4959 C32.1046,21.5199 32.9446,20.8369 33.8966,20.7959 C34.1776,20.7829 34.4506,20.6099 34.5046,20.3369 L34.6326,19.6989 L34.6786,19.4639 C34.7326,19.1859 34.5496,18.9219 34.2936,18.8009 C33.4326,18.3959 32.9236,17.4449 33.1186,16.4679 C33.3126,15.4909 34.1526,14.8089 35.1046,14.7669 C35.3856,14.7549 35.6586,14.5809 35.7126,14.3079 L35.8866,13.4389 C35.9406,13.1619 35.7576,12.8969 35.5016,12.7779 C34.6406,12.3719 34.1316,11.4199 34.3266,10.4439 C34.5216,9.4669 35.3606,8.7849 36.3126,8.7429 C36.5936,8.7309 36.8666,8.5569 36.9206,8.2839 L37.1146,7.3199 C37.1696,7.0429 36.9906,6.7739 36.7136,6.7199 C36.7136,6.7199 4.3636,0.2329 4.3306,0.2329 C4.0906,0.2329 3.8786,0.4029 3.8296,0.6419 L3.6346,1.6059 C3.5816,1.8839 3.7636,2.1479 4.0206,2.2679 C4.8806,2.6739 5.3896,3.6249 5.1946,4.6019 C5.0006,5.5779 4.1606,6.2609 3.2096,6.3019 C2.9276,6.3149 2.6546,6.4879 2.6006,6.7609 L2.4266,7.6309 C2.3736,7.9069 2.5556,8.1729 2.8116,8.2919 C3.6726,8.6979 4.1816,9.6499 3.9866,10.6259 C3.7926,11.6019 2.9526,12.2849 2.0006,12.3259 C1.7196,12.3389 1.4466,12.5119 1.3926,12.7849 L1.2186,13.6549 C1.1656,13.9319 1.3476,14.1959 1.6036,14.3169 C2.4646,14.7219 2.9736,15.6739 2.7786,16.6499 C2.5846,17.6269 1.7446,18.3089 0.7926,18.3499 C0.5116,18.3629 0.2386,18.5369 0.1846,18.8099 L0.0106,19.6779 C-0.0474,19.9559 0.1346,20.2169 0.3916,20.3369 L0.3916,20.3369 Z" id="Fill-4" fill="#006CB2" mask="url(#mask-4)"></path> </g> </g> </g> </g> </svg> 