<?xml version="1.0" encoding="UTF-8"?> <svg xmlns="http://www.w3.org/2000/svg" xmlns:xlink="http://www.w3.org/1999/xlink" width="60px" height="60px" viewBox="0 0 60 60"> <!-- Generator: Sketch 62 (91390) - https://sketch.com --> <title>Group 24</title> <desc>Created with Sketch.</desc> <defs> <polygon id="path-1" points="0.1243 0.435 4.8943 0.435 4.8943 5.205 0.1243 5.205"></polygon> <polygon id="path-3" points="0 0.3323 4.7705 0.3323 4.7705 5.1023 0 5.1023"></polygon> <polygon id="path-5" points="0.1243 0.2295 4.8943007 0.2295 4.8943007 5 0.1243 5"></polygon> </defs> <g id="Page-1" stroke="none" stroke-width="1" fill="none" fill-rule="evenodd"> <g id="Artboard" transform="translate(-103.000000, -159.000000)"> <g id="Group-24" transform="translate(103.000000, 159.000000)"> <rect id="Rectangle" fill="#FFFFFF" x="0" y="0" width="60" height="60"></rect> <path d="M36.337,39.4621 C38.229,39.4621 39.763,37.8061 39.763,35.7631 C39.763,34.9591 39.524,34.2151 39.121,33.6081 C40.052,32.9471 40.667,31.8091 40.667,30.5151 C40.667,28.9561 39.773,27.6231 38.509,27.0791 C38.602,26.7431 38.653,26.3861 38.653,26.0171 C38.653,24.0441 37.223,22.4321 35.421,22.3241 C35.223,20.7601 33.982,19.5551 32.479,19.5551 C31.822,19.5551 31.208,19.7861 30.708,20.1761 L30.708,39.9831 C31.358,40.6211 32.221,41.0101 33.169,41.0101 C34.357,41.0101 35.413,40.3981 36.081,39.4511 C36.165,39.4581 36.25,39.4621 36.337,39.4621 Z" id="Fill-1" fill="#009ED1"></path> <path d="M28.3105,20.1884 C27.8155,19.7914 27.2035,19.5554 26.5395,19.5554 C25.0375,19.5554 23.7955,20.7604 23.5975,22.3244 C21.7955,22.4324 20.3655,24.0444 20.3655,26.0174 C20.3655,26.3864 20.4165,26.7424 20.5095,27.0794 C19.2455,27.6234 18.3515,28.9564 18.3515,30.5164 C18.3515,31.8094 18.9665,32.9474 19.8975,33.6084 C19.4945,34.2154 19.2565,34.9594 19.2565,35.7634 C19.2565,37.8064 20.7895,39.4624 22.6825,39.4624 C22.7685,39.4624 22.8525,39.4584 22.9375,39.4514 C23.6065,40.3984 24.6615,41.0104 25.8495,41.0104 C26.7975,41.0104 27.6605,40.6214 28.3105,39.9834 L28.3105,20.1884 Z" id="Fill-3" fill="#009ED1"></path> <path d="M13.3081,25.9033 C14.8571,20.2063 19.3521,15.7073 25.0551,14.1393 C24.8391,13.5963 24.7191,13.0043 24.7191,12.3853 C24.7191,12.1623 24.7361,11.9443 24.7661,11.7293 C21.4571,12.5653 18.4221,14.2773 15.9461,16.7473 C13.4751,19.2123 11.7631,22.2313 10.9221,25.5223 C11.0751,25.5073 11.2291,25.5003 11.3851,25.5003 C12.0691,25.5003 12.7191,25.6443 13.3081,25.9033" id="Fill-5" fill="#009ED1"></path> <path d="M13.3081,34.662 C12.7191,34.921 12.0691,35.065 11.3851,35.065 C11.2291,35.065 11.0751,35.058 10.9221,35.043 C11.7631,38.334 13.4751,41.353 15.9461,43.818 C18.4221,46.288 21.4571,48 24.7661,48.836 C24.7361,48.621 24.7191,48.403 24.7191,48.18 C24.7191,47.561 24.8391,46.969 25.0551,46.426 C19.3521,44.858 14.8571,40.359 13.3081,34.662" id="Fill-7" fill="#009ED1"></path> <path d="M45.7109,25.9033 C46.2999,25.6443 46.9499,25.5003 47.6339,25.5003 C47.7899,25.5003 47.9439,25.5073 48.0969,25.5223 C47.2559,22.2313 45.5439,19.2123 43.0729,16.7473 C40.5959,14.2773 37.5619,12.5653 34.2529,11.7293 C34.2829,11.9443 34.2989,12.1623 34.2989,12.3853 C34.2989,13.0043 34.1799,13.5963 33.9639,14.1393 C39.6669,15.7073 44.1619,20.2063 45.7109,25.9033" id="Fill-9" fill="#009ED1"></path> <path d="M45.7109,34.662 C44.1619,40.359 39.6669,44.858 33.9639,46.426 C34.1799,46.969 34.2989,47.561 34.2989,48.18 C34.2989,48.403 34.2829,48.621 34.2529,48.836 C37.5619,48 40.5959,46.288 43.0729,43.818 C45.5439,41.353 47.2559,38.334 48.0969,35.043 C47.9439,35.058 47.7899,35.066 47.6339,35.066 C46.9499,35.065 46.2999,34.921 45.7109,34.662" id="Fill-11" fill="#009ED1"></path> <g id="Group-15" transform="translate(27.000000, 9.565400)"> <mask id="mask-2" fill="white"> <use xlink:href="#path-1"></use> </mask> <g id="Clip-14"></g> <path d="M2.5093,5.205 C3.8263,5.205 4.8943,4.137 4.8943,2.82 C4.8943,1.502 3.8263,0.434 2.5093,0.434 C1.1923,0.434 0.1243,1.502 0.1243,2.82 C0.1243,4.137 1.1923,5.205 2.5093,5.205" id="Fill-13" fill="#009ED1" mask="url(#mask-2)"></path> </g> <path d="M47.6338,27.8974 C46.3168,27.8974 45.2478,28.9654 45.2478,30.2824 C45.2478,31.6004 46.3168,32.6684 47.6338,32.6684 C48.9508,32.6684 50.0188,31.6004 50.0188,30.2824 C50.0188,28.9654 48.9508,27.8974 47.6338,27.8974" id="Fill-16" fill="#009ED1"></path> <g id="Group-20" transform="translate(9.000000, 27.565400)"> <mask id="mask-4" fill="white"> <use xlink:href="#path-3"></use> </mask> <g id="Clip-19"></g> <path d="M4.7705,2.7173 C4.7705,1.4003 3.7025,0.3323 2.3855,0.3323 C1.0675,0.3323 -0.0005,1.4003 -0.0005,2.7173 C-0.0005,4.0343 1.0675,5.1023 2.3855,5.1023 C3.7025,5.1023 4.7705,4.0343 4.7705,2.7173" id="Fill-18" fill="#009ED1" mask="url(#mask-4)"></path> </g> <g id="Group-23" transform="translate(27.000000, 45.565400)"> <mask id="mask-6" fill="white"> <use xlink:href="#path-5"></use> </mask> <g id="Clip-22"></g> <path d="M2.5093,0.2295 C1.1923,0.2295 0.1243,1.2975 0.1243,2.6145 C0.1243,3.9325 1.1923,5.0005 2.5093,5.0005 C3.8263,5.0005 4.8943007,3.9325 4.8943007,2.6145 C4.8953,1.2975 3.8263,0.2295 2.5093,0.2295" id="Fill-21" fill="#009ED1" mask="url(#mask-6)"></path> </g> </g> </g> </g> </svg> 