<?xml version="1.0" encoding="UTF-8"?> <svg xmlns="http://www.w3.org/2000/svg" xmlns:xlink="http://www.w3.org/1999/xlink" width="60px" height="60px" viewBox="0 0 60 60"> <!-- Generator: Sketch 62 (91390) - https://sketch.com --> <title>Group 25</title> <desc>Created with Sketch.</desc> <defs> <polygon id="path-1" points="0 0.9772 37.0227 0.9772 37.0227 38 0 38"></polygon> <polygon id="path-3" points="11 49.0229 48.023 49.0229 48.023 11.9999 11 11.9999"></polygon> </defs> <g id="Page-1" stroke="none" stroke-width="1" fill="none" fill-rule="evenodd"> <g id="Artboard" transform="translate(-26.000000, -156.000000)"> <g id="Group-25" transform="translate(26.000000, 156.000000)"> <rect id="Rectangle" fill="#FFFFFF" x="0" y="0" width="60" height="60"></rect> <g id="Group-3" transform="translate(11.000000, 11.022900)"> <mask id="mask-2" fill="white"> <use xlink:href="#path-1"></use> </mask> <g id="Clip-2"></g> <path d="M30.2917,30.4272 C30.2917,30.8922 29.9147,31.2682 29.4497,31.2682 L7.5727,31.2682 C7.1077,31.2682 6.7307,30.8922 6.7307,30.4272 L6.7307,8.5502 C6.7307,8.0852 7.1077,7.7082 7.5727,7.7082 L29.4497,7.7082 C29.9147,7.7082 30.2917,8.0852 30.2917,8.5502 L30.2917,30.4272 Z M36.1817,15.2812 C36.6457,15.2812 37.0227,14.9052 37.0227,14.4402 C37.0227,13.9752 36.6457,13.5982 36.1817,13.5982 L33.6567,13.5982 L33.6567,10.2332 L36.1817,10.2332 C36.6457,10.2332 37.0227,9.8562 37.0227,9.3912 C37.0227,8.9262 36.6457,8.5502 36.1817,8.5502 L33.6567,8.5502 L33.6567,7.7082 C33.6567,5.8522 32.1477,4.3432 30.2917,4.3432 L29.4497,4.3432 L29.4497,1.8182 C29.4497,1.3532 29.0737,0.9772 28.6087,0.9772 C28.1437,0.9772 27.7677,1.3532 27.7677,1.8192 L27.7677,4.3432 L24.4007,4.3432 L24.4007,1.8192 C24.4007,1.3532 24.0247,0.9772 23.5607,0.9772 C23.0957,0.9772 22.7187,1.3532 22.7187,1.8192 L22.7187,4.3432 L19.3537,4.3432 L19.3537,1.8192 C19.3537,1.3532 18.9767,0.9772 18.5117,0.9772 C18.0467,0.9772 17.6697,1.3532 17.6697,1.8192 L17.6697,4.3432 L14.3047,4.3432 L14.3047,1.8192 C14.3047,1.3532 13.9277,0.9772 13.4627,0.9772 C12.9977,0.9772 12.6217,1.3532 12.6217,1.8192 L12.6217,4.3432 L9.2557,4.3432 L9.2557,1.8192 C9.2557,1.3532 8.8797,0.9772 8.4147,0.9772 C7.9487,0.9772 7.5727,1.3532 7.5727,1.8192 L7.5727,4.3432 L6.7307,4.3432 C4.8757,4.3432 3.3657,5.8522 3.3657,7.7082 L3.3657,8.5502 L0.8417,8.5502 C0.3767,8.5502 -0.0003,8.9262 -0.0003,9.3912 C-0.0003,9.8562 0.3767,10.2332 0.8417,10.2332 L3.3657,10.2332 L3.3657,13.5982 L0.8417,13.5982 C0.3767,13.5982 -0.0003,13.9752 -0.0003,14.4402 C-0.0003,14.9052 0.3767,15.2812 0.8417,15.2812 L3.3657,15.2812 L3.3657,18.6472 L0.8417,18.6472 C0.3767,18.6472 -0.0003,19.0232 -0.0003,19.4892 C-0.0003,19.9532 0.3767,20.3302 0.8417,20.3302 L3.3657,20.3302 L3.3657,23.6962 L0.8417,23.6962 C0.3767,23.6962 -0.0003,24.0722 -0.0003,24.5372 C-0.0003,25.0022 0.3767,25.3782 0.8417,25.3782 L3.3657,25.3782 L3.3657,28.7442 L0.8417,28.7442 C0.3767,28.7442 -0.0003,29.1202 -0.0003,29.5862 C-0.0003,30.0512 0.3767,30.4272 0.8417,30.4272 L3.3657,30.4272 L3.3657,31.2682 C3.3657,33.1252 4.8757,34.6342 6.7307,34.6342 L7.5727,34.6342 L7.5727,37.1582 C7.5727,37.6232 7.9487,38.0002 8.4147,38.0002 C8.8797,38.0002 9.2557,37.6232 9.2557,37.1582 L9.2557,34.6342 L12.6217,34.6342 L12.6217,37.1582 C12.6217,37.6232 12.9977,38.0002 13.4627,38.0002 C13.9287,38.0002 14.3047,37.6232 14.3047,37.1582 L14.3047,34.6342 L17.6697,34.6342 L17.6697,37.1582 C17.6697,37.6232 18.0467,38.0002 18.5117,38.0002 C18.9767,38.0002 19.3537,37.6232 19.3537,37.1582 L19.3537,34.6342 L22.7187,34.6342 L22.7187,37.1582 C22.7187,37.6232 23.0957,38.0002 23.5607,38.0002 C24.0247,38.0002 24.4007,37.6232 24.4007,37.1582 L24.4007,34.6342 L27.7677,34.6342 L27.7677,37.1582 C27.7677,37.6232 28.1437,38.0002 28.6087,38.0002 C29.0737,38.0002 29.4497,37.6232 29.4497,37.1582 L29.4497,34.6342 L30.2917,34.6342 C32.1467,34.6342 33.6567,33.1252 33.6567,31.2682 L33.6567,30.4272 L36.1817,30.4272 C36.6457,30.4272 37.0227,30.0512 37.0227,29.5862 C37.0227,29.1202 36.6457,28.7442 36.1817,28.7442 L33.6567,28.7442 L33.6567,25.3782 L36.1817,25.3782 C36.6457,25.3782 37.0227,25.0022 37.0227,24.5372 C37.0227,24.0722 36.6457,23.6962 36.1817,23.6962 L33.6567,23.6962 L33.6567,20.3302 L36.1817,20.3302 C36.6457,20.3302 37.0227,19.9532 37.0227,19.4892 C37.0227,19.0232 36.6457,18.6472 36.1817,18.6472 L33.6567,18.6472 L33.6567,15.2812 L36.1817,15.2812 Z" id="Fill-1" fill="#009ED1" mask="url(#mask-2)"></path> </g> <mask id="mask-4" fill="white"> <use xlink:href="#path-3"></use> </mask> <g id="Clip-5"></g> <polygon id="Fill-4" fill="#009ED1" mask="url(#mask-4)" points="19.415 40.6089 39.609 40.6089 39.609 20.4149 19.415 20.4149"></polygon> </g> </g> </g> </svg> 