<?xml version="1.0" encoding="UTF-8"?> <svg xmlns="http://www.w3.org/2000/svg" width="113" height="113" viewBox="0 0 113 113" fill="none"> <path d="M52.0875 64.6861L51.5241 64.4937V60.3989H32.9642V64.4082L32.7191 64.4799C27.7902 65.9227 24.3479 70.5173 24.3479 75.6531V93.4692C24.3479 94.867 25.4811 96.0001 26.8788 96.0001H57.4379C58.8357 96.0001 59.9688 94.867 59.9688 93.4692V75.7042C59.9688 70.7229 56.8015 66.2951 52.0875 64.6861V64.6861Z" fill="#006CB2"></path> <path d="M30.4418 58.725H54.0635C55.4612 58.725 56.5944 57.5918 56.5944 56.1941V47.7662C56.5944 46.3685 55.4612 45.2354 54.0635 45.2354H30.4418C29.0441 45.2354 27.9109 46.3685 27.9109 47.7662V56.1941C27.9109 57.5918 29.0439 58.725 30.4418 58.725V58.725Z" fill="#006CB2"></path> <path d="M83.5904 30.885C83.5904 29.4872 82.4573 28.3541 81.0595 28.3541H78.5202V15.5309C78.5202 14.1332 77.3871 13 75.9893 13C74.5916 13 73.4584 14.1332 73.4584 15.5309V28.3541H70.936C69.5383 28.3541 68.4051 29.4872 68.4051 30.885V33.4159C68.4323 33.4159 83.5631 33.416 83.5904 33.416V30.885Z" fill="#006CB2"></path> <path d="M86.1214 80.6459H86.113V70.5223H78.4429C77.0451 70.5223 75.912 69.3892 75.912 67.9914C75.912 66.5937 77.0451 65.4605 78.4429 65.4605H86.113V60.3988H78.4429C77.0451 60.3988 75.912 59.2656 75.912 57.8679C75.912 56.4701 77.0451 55.337 78.4429 55.337H86.113V50.2752H78.4429C77.0451 50.2752 75.912 49.142 75.912 47.7443C75.912 46.3466 77.0451 45.2134 78.4429 45.2134H86.113V37.6207C86.113 36.223 84.9798 35.0898 83.5821 35.0898H68.3967C66.999 35.0898 65.8658 36.223 65.8658 37.6207V80.6462C64.472 80.6508 63.3434 81.7818 63.3434 83.1768C63.3434 84.5745 64.4765 85.7077 65.8743 85.7077H73.4585V90.9382H68.4138C67.016 90.9382 65.8829 92.0713 65.8829 93.4691C65.8829 94.8668 67.016 96 68.4138 96H83.5821C84.9798 96 86.113 94.8668 86.113 93.4691C86.113 92.0713 84.9798 90.9382 83.5821 90.9382H78.5203V85.7077H86.1214C87.5191 85.7077 88.6523 84.5745 88.6523 83.1768C88.6523 81.7791 87.5191 80.6459 86.1214 80.6459Z" fill="#006CB2"></path> </svg> 