<?xml version="1.0" encoding="UTF-8"?> <svg xmlns="http://www.w3.org/2000/svg" width="60" height="60" viewBox="0 0 60 60" fill="none"> <g id="obraz_2020"> <rect width="60" height="60" fill="white"></rect> <rect id="Rectangle" width="60" height="60" fill="white"></rect> <g id="Frame" clip-path="url(#clip0_103_116)"> <g id="Group"> <path id="Vector" d="M9.28057 50.5554H19.7831C20.4925 50.5554 21.0637 49.9829 21.0637 49.2718V28.9743C21.0637 28.2632 20.4925 27.6907 19.7831 27.6907H9.28057C8.57119 27.6907 8 28.2632 8 28.9743V49.2718C8 49.9829 8.57119 50.5554 9.28057 50.5554Z" fill="#00A1A0"></path> <path id="Vector_2" d="M48.665 30.1287C50.6273 30.1287 52.1935 28.4203 51.9724 26.4071C51.7881 24.708 50.2865 23.4521 48.5729 23.4521H39.3233C38.3468 23.4521 36.9925 23.4521 36.0067 23.4521C36.0067 23.4521 37.619 18.4192 36.7806 14.8639C36.2278 12.5091 35.3066 9.39706 32.6165 9.03691C32.1374 8.97227 31.6583 8.99997 31.1885 9.11078C30.7094 9.2216 30.2488 9.42476 29.8342 9.68333C29.825 9.69256 29.7789 9.72027 29.7329 9.7572C29.4012 9.9973 29.2077 10.3852 29.2077 10.7915V16.7016C29.2077 17.4034 29.0143 18.096 28.655 18.6963L23.3669 27.4599C23.2471 27.663 23.1826 27.8939 23.1826 28.1248V46.9171C23.1826 47.6282 23.7538 48.2007 24.4632 48.2007H45.7262C47.1726 48.2007 48.4808 47.1849 48.7111 45.7443C48.9598 44.2021 48.0294 42.8447 46.6751 42.4199C48.1952 42.4199 49.5587 41.3487 49.7982 39.8434C50.0562 38.2366 49.0704 36.8237 47.6608 36.3897C49.2362 36.3805 50.6366 35.2631 50.8853 33.7117C51.1433 32.0587 50.1299 30.5904 48.665 30.1287Z" fill="#00A1A0"></path> </g> </g> </g> <defs> <clipPath id="clip0_103_116"> <rect width="44" height="41.5556" fill="white" transform="translate(8 9)"></rect> </clipPath> </defs> </svg> 