<?xml version="1.0" encoding="UTF-8"?> <svg xmlns="http://www.w3.org/2000/svg" width="60" height="60" viewBox="0 0 60 60" fill="none"> <rect width="60" height="60" fill="white"></rect> <path d="M42.3599 26.9735L35.6449 28.5777V50.6859C35.6449 51.8916 36.596 52.869 37.8017 52.869C39.0074 52.869 39.9849 51.8916 39.9849 50.6859V33.2356H40.9275V50.6859C40.9275 51.8916 41.9049 52.869 43.1106 52.869C44.3164 52.869 45.2942 51.8916 45.2942 50.6859V24.3892L43.8461 26.0685C43.4578 26.5185 42.9379 26.8351 42.3599 26.9735V26.9735Z" fill="#006CB2"></path> <path d="M45.2788 15.8008C43.7826 15.8008 33.1543 15.8008 32.3056 15.8008C33.3889 16.6834 34.1259 17.9764 34.2748 19.4394H35.6449V22.7502L40.1516 21.6746L43.4193 19.4394L40.706 22.585L32.9218 24.4483C31.9446 24.6822 31.3421 25.664 31.5761 26.6412C31.8096 27.6169 32.7901 28.2213 33.7689 27.987L42.1238 25.9871C42.4949 25.8982 42.8287 25.695 43.0779 25.4061L47.3891 20.4081C48.9496 18.5986 47.6594 15.8008 45.2788 15.8008V15.8008Z" fill="#006CB2"></path> <path d="M40.6008 14.6057C42.6812 14.512 44.2916 12.7496 44.1979 10.6692C44.1042 8.58882 42.3418 6.97832 40.2615 7.07203C38.1812 7.16573 36.5707 8.92817 36.6644 11.0085C36.7581 13.0889 38.5205 14.6994 40.6008 14.6057Z" fill="#006CB2"></path> <path d="M24.5469 17.0008C26.5944 16.6689 27.9851 14.7401 27.6532 12.6927C27.3213 10.6453 25.3925 9.25463 23.345 9.58653C21.2976 9.91844 19.9069 11.8472 20.2388 13.8946C20.5707 15.942 22.4995 17.3327 24.5469 17.0008Z" fill="#006CB2"></path> <path d="M30.5893 26.8771C30.225 25.3551 31.1635 23.8259 32.6856 23.4615L33.2086 23.3363L33.1917 19.9659C33.1799 17.613 31.2559 15.6987 28.903 15.6987H28.1396C27.3037 17.1483 25.7388 18.1268 23.9487 18.1268C22.1586 18.1268 20.5937 17.1483 19.7578 15.6987H19.1738C18.7491 15.6987 18.3378 15.8479 18.0118 16.1203L12.7413 20.5236C12.246 20.9374 12.0081 21.5835 12.1169 22.2197L13.2245 28.6981C12.4403 29.2649 11.9287 30.1863 11.9287 31.2256V34.0714C11.9287 34.5682 12.3315 34.971 12.8283 34.971C13.3252 34.971 13.7279 34.5682 13.7279 34.0714V31.2256C13.7279 31.0797 13.7527 30.9398 13.7967 30.8085C14.2003 31.3362 14.865 31.6114 15.5414 31.4958C15.8514 31.4428 16.1293 31.3138 16.3596 31.1316C16.3671 31.2359 16.3632 42.7619 16.3644 51.9638C16.3644 52.4607 16.7671 52.8634 17.264 52.8634C17.7609 52.8634 18.1636 52.4607 18.1636 51.9638V31.2256C18.1636 30.2033 17.6689 29.2945 16.9064 28.7256L15.8655 22.6367L19.2099 19.8429V50.6639C19.2099 51.8649 20.184 52.8386 21.3851 52.8386C22.5862 52.8386 23.5598 51.8649 23.5598 50.6639V33.0663H24.4988V50.7191C24.4988 51.9202 25.4724 52.8938 26.6735 52.8938C27.8746 52.8938 28.8533 51.9202 28.8533 50.7191V19.3233C29.2178 19.3233 29.5988 19.6197 29.6007 19.9842V33.2983C29.6058 34.2962 30.4495 35.1015 31.4462 35.1015H31.4555C32.4564 35.0965 33.2637 34.2811 33.2587 33.2802L33.2375 29.0497C31.9986 29.0031 30.892 28.1417 30.5893 26.8771V26.8771Z" fill="#006CB2"></path> </svg> 